%TF.GenerationSoftware,KiCad,Pcbnew,5.0.1-33cea8e~68~ubuntu18.04.1*%
%TF.CreationDate,2018-12-04T23:45:32+01:00*%
%TF.ProjectId,lightball,6C6967687462616C6C2E6B696361645F,rev?*%
%TF.SameCoordinates,Original*%
%TF.FileFunction,Legend,Top*%
%TF.FilePolarity,Positive*%
%FSLAX46Y46*%
G04 Gerber Fmt 4.6, Leading zero omitted, Abs format (unit mm)*
G04 Created by KiCad (PCBNEW 5.0.1-33cea8e~68~ubuntu18.04.1) date Di 04 Dez 2018 23:45:32 CET*
%MOMM*%
%LPD*%
G01*
G04 APERTURE LIST*
%ADD10C,0.150000*%
%ADD11C,0.100000*%
%ADD12C,0.120000*%
%ADD13C,0.127000*%
%ADD14C,0.200000*%
%ADD15C,0.075000*%
G04 APERTURE END LIST*
D10*
X73975000Y-113550000D02*
X72575000Y-113550000D01*
X73975000Y-117200000D02*
X73975000Y-113550000D01*
D11*
X84673487Y-120471120D02*
X84625868Y-120447310D01*
X84554440Y-120447310D01*
X84483011Y-120471120D01*
X84435392Y-120518739D01*
X84411582Y-120566358D01*
X84387773Y-120661596D01*
X84387773Y-120733024D01*
X84411582Y-120828262D01*
X84435392Y-120875881D01*
X84483011Y-120923500D01*
X84554440Y-120947310D01*
X84602059Y-120947310D01*
X84673487Y-120923500D01*
X84697297Y-120899691D01*
X84697297Y-120733024D01*
X84602059Y-120733024D01*
X84911582Y-120947310D02*
X84911582Y-120447310D01*
X85197297Y-120947310D01*
X85197297Y-120447310D01*
X85435392Y-120947310D02*
X85435392Y-120447310D01*
X85554440Y-120447310D01*
X85625868Y-120471120D01*
X85673487Y-120518739D01*
X85697297Y-120566358D01*
X85721106Y-120661596D01*
X85721106Y-120733024D01*
X85697297Y-120828262D01*
X85673487Y-120875881D01*
X85625868Y-120923500D01*
X85554440Y-120947310D01*
X85435392Y-120947310D01*
X86782660Y-120670830D02*
X86949327Y-121170830D01*
X87115994Y-120670830D01*
X87282660Y-121170830D02*
X87282660Y-120670830D01*
X87520756Y-121170830D02*
X87520756Y-120670830D01*
X87806470Y-121170830D01*
X87806470Y-120670830D01*
X108720238Y-115200000D02*
X108682142Y-115180952D01*
X108625000Y-115180952D01*
X108567857Y-115200000D01*
X108529761Y-115238095D01*
X108510714Y-115276190D01*
X108491666Y-115352380D01*
X108491666Y-115409523D01*
X108510714Y-115485714D01*
X108529761Y-115523809D01*
X108567857Y-115561904D01*
X108625000Y-115580952D01*
X108663095Y-115580952D01*
X108720238Y-115561904D01*
X108739285Y-115542857D01*
X108739285Y-115409523D01*
X108663095Y-115409523D01*
X108910714Y-115580952D02*
X108910714Y-115180952D01*
X109139285Y-115580952D01*
X109139285Y-115180952D01*
X109329761Y-115580952D02*
X109329761Y-115180952D01*
X109425000Y-115180952D01*
X109482142Y-115200000D01*
X109520238Y-115238095D01*
X109539285Y-115276190D01*
X109558333Y-115352380D01*
X109558333Y-115409523D01*
X109539285Y-115485714D01*
X109520238Y-115523809D01*
X109482142Y-115561904D01*
X109425000Y-115580952D01*
X109329761Y-115580952D01*
X107445238Y-115180952D02*
X107673809Y-115180952D01*
X107559523Y-115580952D02*
X107559523Y-115180952D01*
X107769047Y-115180952D02*
X108035714Y-115580952D01*
X108035714Y-115180952D02*
X107769047Y-115580952D01*
X106204761Y-115371428D02*
X106338095Y-115371428D01*
X106395238Y-115580952D02*
X106204761Y-115580952D01*
X106204761Y-115180952D01*
X106395238Y-115180952D01*
X106566666Y-115580952D02*
X106566666Y-115180952D01*
X106795238Y-115580952D01*
X106795238Y-115180952D01*
X105108333Y-115580952D02*
X104975000Y-115390476D01*
X104879761Y-115580952D02*
X104879761Y-115180952D01*
X105032142Y-115180952D01*
X105070238Y-115200000D01*
X105089285Y-115219047D01*
X105108333Y-115257142D01*
X105108333Y-115314285D01*
X105089285Y-115352380D01*
X105070238Y-115371428D01*
X105032142Y-115390476D01*
X104879761Y-115390476D01*
X105241666Y-115180952D02*
X105508333Y-115580952D01*
X105508333Y-115180952D02*
X105241666Y-115580952D01*
X103500000Y-115580952D02*
X103500000Y-115180952D01*
X103766666Y-115180952D02*
X103842857Y-115180952D01*
X103880952Y-115200000D01*
X103919047Y-115238095D01*
X103938095Y-115314285D01*
X103938095Y-115447619D01*
X103919047Y-115523809D01*
X103880952Y-115561904D01*
X103842857Y-115580952D01*
X103766666Y-115580952D01*
X103728571Y-115561904D01*
X103690476Y-115523809D01*
X103671428Y-115447619D01*
X103671428Y-115314285D01*
X103690476Y-115238095D01*
X103728571Y-115200000D01*
X103766666Y-115180952D01*
X104185714Y-115180952D02*
X104223809Y-115180952D01*
X104261904Y-115200000D01*
X104280952Y-115219047D01*
X104300000Y-115257142D01*
X104319047Y-115333333D01*
X104319047Y-115428571D01*
X104300000Y-115504761D01*
X104280952Y-115542857D01*
X104261904Y-115561904D01*
X104223809Y-115580952D01*
X104185714Y-115580952D01*
X104147619Y-115561904D01*
X104128571Y-115542857D01*
X104109523Y-115504761D01*
X104090476Y-115428571D01*
X104090476Y-115333333D01*
X104109523Y-115257142D01*
X104128571Y-115219047D01*
X104147619Y-115200000D01*
X104185714Y-115180952D01*
X102523809Y-115205952D02*
X102333333Y-115205952D01*
X102314285Y-115396428D01*
X102333333Y-115377380D01*
X102371428Y-115358333D01*
X102466666Y-115358333D01*
X102504761Y-115377380D01*
X102523809Y-115396428D01*
X102542857Y-115434523D01*
X102542857Y-115529761D01*
X102523809Y-115567857D01*
X102504761Y-115586904D01*
X102466666Y-115605952D01*
X102371428Y-115605952D01*
X102333333Y-115586904D01*
X102314285Y-115567857D01*
X102657142Y-115205952D02*
X102790476Y-115605952D01*
X102923809Y-115205952D01*
X93417358Y-123178734D02*
X93602177Y-123132654D01*
X93706106Y-123155818D01*
X93821555Y-123225187D01*
X93913840Y-123398485D01*
X93994481Y-123721917D01*
X93994356Y-123918256D01*
X93924988Y-124033705D01*
X93844098Y-124102950D01*
X93659280Y-124149030D01*
X93555351Y-124125866D01*
X93439902Y-124056497D01*
X93347617Y-123883198D01*
X93266976Y-123559767D01*
X93267100Y-123363428D01*
X93336469Y-123247979D01*
X93417358Y-123178734D01*
X94191067Y-123329365D02*
X94560704Y-123237204D01*
X94249040Y-122971373D02*
X94456402Y-123803055D01*
X94525647Y-123883944D01*
X94629576Y-123907108D01*
X94721985Y-123884068D01*
X94745522Y-123191124D02*
X95115159Y-123098963D01*
X94803495Y-122833132D02*
X95010857Y-123664814D01*
X95080101Y-123745703D01*
X95184031Y-123768867D01*
X95276440Y-123745827D01*
X95957988Y-123526821D02*
X95877099Y-123596066D01*
X95692281Y-123642146D01*
X95588352Y-123618982D01*
X95519107Y-123538093D01*
X95426946Y-123168456D01*
X95450111Y-123064527D01*
X95531000Y-122995282D01*
X95715818Y-122949202D01*
X95819747Y-122972366D01*
X95888992Y-123053255D01*
X95912032Y-123145664D01*
X95473027Y-123353274D01*
X96431554Y-123457825D02*
X96270272Y-122810961D01*
X96316353Y-122995779D02*
X96339517Y-122891850D01*
X96374202Y-122834125D01*
X96455091Y-122764880D01*
X96547500Y-122741840D01*
X97436534Y-123158178D02*
X97355645Y-123227423D01*
X97170827Y-123273503D01*
X97066897Y-123250339D01*
X97009173Y-123215654D01*
X96939928Y-123134765D01*
X96870808Y-122857538D01*
X96893972Y-122753609D01*
X96928656Y-122695884D01*
X97009545Y-122626639D01*
X97194364Y-122580559D01*
X97298293Y-122603723D01*
X98002509Y-123066141D02*
X97898580Y-123042977D01*
X97840855Y-123008293D01*
X97771610Y-122927404D01*
X97702490Y-122650176D01*
X97725654Y-122546247D01*
X97760338Y-122488522D01*
X97841227Y-122419278D01*
X97979841Y-122384717D01*
X98083770Y-122407882D01*
X98141495Y-122442566D01*
X98210740Y-122523455D01*
X98279860Y-122800683D01*
X98256696Y-122904612D01*
X98222011Y-122962336D01*
X98141122Y-123031581D01*
X98002509Y-123066141D01*
X98580500Y-122234956D02*
X98822422Y-123205252D01*
X98592020Y-122281161D02*
X98672910Y-122211916D01*
X98857728Y-122165836D01*
X98961657Y-122189000D01*
X99019382Y-122223684D01*
X99088626Y-122304574D01*
X99157747Y-122581801D01*
X99134583Y-122685730D01*
X99099898Y-122743455D01*
X99019009Y-122812699D01*
X98834191Y-122858780D01*
X98730262Y-122835615D01*
X99319773Y-122050635D02*
X99689410Y-121958474D01*
X99377746Y-121692643D02*
X99585108Y-122524325D01*
X99654353Y-122605214D01*
X99758282Y-122628378D01*
X99850691Y-122605338D01*
X100532239Y-122386332D02*
X100451350Y-122455577D01*
X100266532Y-122501657D01*
X100162603Y-122478493D01*
X100093358Y-122397604D01*
X100001197Y-122027967D01*
X100024362Y-121924038D01*
X100105251Y-121854793D01*
X100290069Y-121808713D01*
X100393998Y-121831877D01*
X100463243Y-121912766D01*
X100486283Y-122005175D01*
X100047278Y-122212785D01*
X101005805Y-122317336D02*
X100844524Y-121670472D01*
X100890604Y-121855290D02*
X100913769Y-121751361D01*
X100948453Y-121693636D01*
X101029342Y-121624391D01*
X101121751Y-121601351D01*
D10*
X112660414Y-110153935D02*
G75*
G02X73975000Y-117200000I-21460414J8103935D01*
G01*
X112675000Y-104650000D02*
X112663015Y-110154914D01*
X104050000Y-104650000D02*
X112675000Y-104650000D01*
X100250000Y-107650000D02*
X104050000Y-104650000D01*
X80300000Y-107650000D02*
X100250000Y-107650000D01*
X80300000Y-105000000D02*
X80300000Y-107650000D01*
X70050000Y-105000000D02*
X80300000Y-105000000D01*
X70050000Y-112150000D02*
X70050000Y-105000000D01*
X70850000Y-113550000D02*
X70050000Y-112150000D01*
X72575000Y-113550000D02*
X70850000Y-113550000D01*
X103375000Y-112400000D02*
G75*
G03X103375000Y-112400000I-800000J0D01*
G01*
X85075000Y-115475000D02*
G75*
G03X85075000Y-115475000I-1300000J0D01*
G01*
D12*
X77879798Y-115769913D02*
X77649593Y-116000118D01*
X78601047Y-116491162D02*
X78370842Y-116721367D01*
X76037659Y-116029200D02*
X75712101Y-116029200D01*
X76037659Y-115009200D02*
X75712101Y-115009200D01*
X93451480Y-113056920D02*
X90251480Y-113056920D01*
X90251480Y-113056920D02*
X90251480Y-117056920D01*
X86969381Y-117761480D02*
X87294939Y-117761480D01*
X86969381Y-116741480D02*
X87294939Y-116741480D01*
X91340721Y-112778000D02*
X91666279Y-112778000D01*
X91340721Y-111758000D02*
X91666279Y-111758000D01*
X91948219Y-118452360D02*
X91622661Y-118452360D01*
X91948219Y-117432360D02*
X91622661Y-117432360D01*
X94405038Y-115429553D02*
X94174833Y-115659758D01*
X95126287Y-116150802D02*
X94896082Y-116381007D01*
X86166741Y-108852240D02*
X86492299Y-108852240D01*
X86166741Y-109872240D02*
X86492299Y-109872240D01*
X90968520Y-111144360D02*
X93628520Y-111144360D01*
X90968520Y-111084360D02*
X90968520Y-111144360D01*
X93628520Y-111084360D02*
X93628520Y-111144360D01*
X90968520Y-111084360D02*
X93628520Y-111084360D01*
X90968520Y-109814360D02*
X90968520Y-108484360D01*
X90968520Y-108484360D02*
X92298520Y-108484360D01*
X81230000Y-114130000D02*
X79900000Y-114130000D01*
X81230000Y-112800000D02*
X81230000Y-114130000D01*
X81230000Y-111530000D02*
X78570000Y-111530000D01*
X78570000Y-111530000D02*
X78570000Y-108930000D01*
X81230000Y-111530000D02*
X81230000Y-108930000D01*
X81230000Y-108930000D02*
X78570000Y-108930000D01*
X87530825Y-124488278D02*
X88440598Y-121988696D01*
X85087624Y-123599026D02*
X87530825Y-124488278D01*
X85997397Y-121099443D02*
X88440598Y-121988696D01*
X85087624Y-123599026D02*
X85997397Y-121099443D01*
X83894214Y-123164660D02*
X82644423Y-122709773D01*
X82644423Y-122709773D02*
X83099310Y-121459982D01*
X84384320Y-118181880D02*
X84384320Y-120181880D01*
X84384320Y-120181880D02*
X88284320Y-120181880D01*
X84384320Y-118181880D02*
X88284320Y-118181880D01*
X84699280Y-110241840D02*
X88599280Y-110241840D01*
X84699280Y-112241840D02*
X88599280Y-112241840D01*
X84699280Y-110241840D02*
X84699280Y-112241840D01*
D13*
X101020639Y-108927279D02*
X100893360Y-108800000D01*
X100893360Y-108800000D02*
X101176203Y-108517157D01*
X102067157Y-107626203D02*
X102350000Y-107343360D01*
X102350000Y-107343360D02*
X102477279Y-107470639D01*
X103679361Y-108672721D02*
X103806640Y-108800000D01*
X103806640Y-108800000D02*
X103523797Y-109082843D01*
X102222721Y-110129361D02*
X102350000Y-110256640D01*
X102350000Y-110256640D02*
X102632843Y-109973797D01*
D14*
X101601472Y-107527208D02*
G75*
G03X101601472Y-107527208I-100000J0D01*
G01*
D12*
X81923367Y-120768521D02*
X81693162Y-120998726D01*
X81202118Y-120047272D02*
X80971913Y-120277477D01*
X103275000Y-115730000D02*
X103275000Y-115160000D01*
X103275000Y-113640000D02*
X103275000Y-113070000D01*
X103275000Y-115730000D02*
X109685000Y-115730000D01*
X109685000Y-115730000D02*
X109685000Y-114707530D01*
X109685000Y-114092470D02*
X109685000Y-113070000D01*
X103275000Y-113070000D02*
X109685000Y-113070000D01*
X101880000Y-113070000D02*
X102640000Y-113070000D01*
X101880000Y-114400000D02*
X101880000Y-113070000D01*
X70950000Y-105399930D02*
X78250000Y-105399930D01*
X70950000Y-110899930D02*
X78250000Y-110899930D01*
X78250000Y-110899930D02*
X78250000Y-109749930D01*
X104600000Y-105050000D02*
X111900000Y-105050000D01*
X104600000Y-110550000D02*
X111900000Y-110550000D01*
X111900000Y-110550000D02*
X111900000Y-109400000D01*
X93987240Y-112539860D02*
X93651365Y-112203984D01*
X93651365Y-112203984D02*
X93987240Y-111868108D01*
X100697684Y-111868108D02*
X101033559Y-112203984D01*
X101033559Y-112203984D02*
X100697684Y-112539860D01*
X97678338Y-108848762D02*
X97342462Y-108512887D01*
X97342462Y-108512887D02*
X97006586Y-108848762D01*
X97006586Y-115559206D02*
X97342462Y-115895081D01*
X77110000Y-114630000D02*
X77110000Y-113700000D01*
X77110000Y-111470000D02*
X77110000Y-112400000D01*
X77110000Y-111470000D02*
X74950000Y-111470000D01*
X77110000Y-114630000D02*
X75650000Y-114630000D01*
X77813793Y-119098060D02*
X79086585Y-120370852D01*
X81363469Y-118093968D02*
X79631057Y-116361557D01*
D10*
X81206400Y-109216440D02*
X81206400Y-110216440D01*
X84706400Y-109216440D02*
X81206400Y-109216440D01*
X84706400Y-110216440D02*
X84706400Y-109216440D01*
X84456400Y-109616440D02*
X81456400Y-109616440D01*
X84456400Y-112816440D02*
X84456400Y-109616440D01*
X81456400Y-112816440D02*
X84456400Y-112816440D01*
X81456400Y-109616440D02*
X81456400Y-112816440D01*
X85655400Y-114546760D02*
X86655400Y-114546760D01*
X85655400Y-113546760D02*
X85655400Y-114546760D01*
X86655400Y-113546760D02*
X85655400Y-113546760D01*
X87905400Y-113596760D02*
X87405400Y-113596760D01*
X87905400Y-116496760D02*
X87905400Y-113596760D01*
X87405400Y-116496760D02*
X87905400Y-116496760D01*
X87405400Y-113596760D02*
X87405400Y-116496760D01*
D15*
X79075873Y-117468935D02*
X79075873Y-117489138D01*
X79055670Y-117529544D01*
X79035467Y-117549747D01*
X78995061Y-117569950D01*
X78954655Y-117569950D01*
X78924350Y-117559848D01*
X78873843Y-117529544D01*
X78843538Y-117499239D01*
X78813234Y-117448731D01*
X78803132Y-117418427D01*
X78803132Y-117378021D01*
X78823335Y-117337615D01*
X78843538Y-117317412D01*
X78883944Y-117297209D01*
X78904147Y-117297209D01*
X79298107Y-117287107D02*
X79176889Y-117408325D01*
X79237498Y-117347716D02*
X79025366Y-117135584D01*
X79035467Y-117186092D01*
X79035467Y-117226498D01*
X79025366Y-117256803D01*
X79500137Y-117085077D02*
X79378919Y-117206295D01*
X79439528Y-117145686D02*
X79227396Y-116933554D01*
X79237498Y-116984061D01*
X79237498Y-117024467D01*
X79227396Y-117054772D01*
X75682022Y-117056342D02*
X75667737Y-117070628D01*
X75624880Y-117084914D01*
X75596308Y-117084914D01*
X75553451Y-117070628D01*
X75524880Y-117042057D01*
X75510594Y-117013485D01*
X75496308Y-116956342D01*
X75496308Y-116913485D01*
X75510594Y-116856342D01*
X75524880Y-116827771D01*
X75553451Y-116799200D01*
X75596308Y-116784914D01*
X75624880Y-116784914D01*
X75667737Y-116799200D01*
X75682022Y-116813485D01*
X75967737Y-117084914D02*
X75796308Y-117084914D01*
X75882022Y-117084914D02*
X75882022Y-116784914D01*
X75853451Y-116827771D01*
X75824880Y-116856342D01*
X75796308Y-116870628D01*
X76153451Y-116784914D02*
X76182022Y-116784914D01*
X76210594Y-116799200D01*
X76224880Y-116813485D01*
X76239165Y-116842057D01*
X76253451Y-116899200D01*
X76253451Y-116970628D01*
X76239165Y-117027771D01*
X76224880Y-117056342D01*
X76210594Y-117070628D01*
X76182022Y-117084914D01*
X76153451Y-117084914D01*
X76124880Y-117070628D01*
X76110594Y-117056342D01*
X76096308Y-117027771D01*
X76082022Y-116970628D01*
X76082022Y-116899200D01*
X76096308Y-116842057D01*
X76110594Y-116813485D01*
X76124880Y-116799200D01*
X76153451Y-116784914D01*
X94294337Y-115199777D02*
X94437194Y-115199777D01*
X94137194Y-115299777D02*
X94294337Y-115199777D01*
X94137194Y-115099777D01*
X94437194Y-114842634D02*
X94437194Y-115014062D01*
X94437194Y-114928348D02*
X94137194Y-114928348D01*
X94180051Y-114956920D01*
X94208622Y-114985491D01*
X94222908Y-115014062D01*
X86939302Y-115928622D02*
X86925017Y-115942908D01*
X86882160Y-115957194D01*
X86853588Y-115957194D01*
X86810731Y-115942908D01*
X86782160Y-115914337D01*
X86767874Y-115885765D01*
X86753588Y-115828622D01*
X86753588Y-115785765D01*
X86767874Y-115728622D01*
X86782160Y-115700051D01*
X86810731Y-115671480D01*
X86853588Y-115657194D01*
X86882160Y-115657194D01*
X86925017Y-115671480D01*
X86939302Y-115685765D01*
X87225017Y-115957194D02*
X87053588Y-115957194D01*
X87139302Y-115957194D02*
X87139302Y-115657194D01*
X87110731Y-115700051D01*
X87082160Y-115728622D01*
X87053588Y-115742908D01*
X87396445Y-115785765D02*
X87367874Y-115771480D01*
X87353588Y-115757194D01*
X87339302Y-115728622D01*
X87339302Y-115714337D01*
X87353588Y-115685765D01*
X87367874Y-115671480D01*
X87396445Y-115657194D01*
X87453588Y-115657194D01*
X87482160Y-115671480D01*
X87496445Y-115685765D01*
X87510731Y-115714337D01*
X87510731Y-115728622D01*
X87496445Y-115757194D01*
X87482160Y-115771480D01*
X87453588Y-115785765D01*
X87396445Y-115785765D01*
X87367874Y-115800051D01*
X87353588Y-115814337D01*
X87339302Y-115842908D01*
X87339302Y-115900051D01*
X87353588Y-115928622D01*
X87367874Y-115942908D01*
X87396445Y-115957194D01*
X87453588Y-115957194D01*
X87482160Y-115942908D01*
X87496445Y-115928622D01*
X87510731Y-115900051D01*
X87510731Y-115842908D01*
X87496445Y-115814337D01*
X87482160Y-115800051D01*
X87453588Y-115785765D01*
X91453500Y-110945142D02*
X91439214Y-110959428D01*
X91396357Y-110973714D01*
X91367785Y-110973714D01*
X91324928Y-110959428D01*
X91296357Y-110930857D01*
X91282071Y-110902285D01*
X91267785Y-110845142D01*
X91267785Y-110802285D01*
X91282071Y-110745142D01*
X91296357Y-110716571D01*
X91324928Y-110688000D01*
X91367785Y-110673714D01*
X91396357Y-110673714D01*
X91439214Y-110688000D01*
X91453500Y-110702285D01*
X91710642Y-110773714D02*
X91710642Y-110973714D01*
X91639214Y-110659428D02*
X91567785Y-110873714D01*
X91753500Y-110873714D01*
X91735440Y-119479502D02*
X91721154Y-119493788D01*
X91678297Y-119508074D01*
X91649725Y-119508074D01*
X91606868Y-119493788D01*
X91578297Y-119465217D01*
X91564011Y-119436645D01*
X91549725Y-119379502D01*
X91549725Y-119336645D01*
X91564011Y-119279502D01*
X91578297Y-119250931D01*
X91606868Y-119222360D01*
X91649725Y-119208074D01*
X91678297Y-119208074D01*
X91721154Y-119222360D01*
X91735440Y-119236645D01*
X92006868Y-119208074D02*
X91864011Y-119208074D01*
X91849725Y-119350931D01*
X91864011Y-119336645D01*
X91892582Y-119322360D01*
X91964011Y-119322360D01*
X91992582Y-119336645D01*
X92006868Y-119350931D01*
X92021154Y-119379502D01*
X92021154Y-119450931D01*
X92006868Y-119479502D01*
X91992582Y-119493788D01*
X91964011Y-119508074D01*
X91892582Y-119508074D01*
X91864011Y-119493788D01*
X91849725Y-119479502D01*
X95702129Y-117027559D02*
X95702129Y-117047762D01*
X95681926Y-117088168D01*
X95661722Y-117108371D01*
X95621316Y-117128575D01*
X95580910Y-117128575D01*
X95550606Y-117118473D01*
X95500098Y-117088168D01*
X95469794Y-117057864D01*
X95439489Y-117007356D01*
X95429387Y-116977052D01*
X95429387Y-116936646D01*
X95449590Y-116896239D01*
X95469794Y-116876036D01*
X95510200Y-116855833D01*
X95530403Y-116855833D01*
X95580910Y-116764920D02*
X95722332Y-116623498D01*
X95843550Y-116926544D01*
X86279520Y-108039382D02*
X86265234Y-108053668D01*
X86222377Y-108067954D01*
X86193805Y-108067954D01*
X86150948Y-108053668D01*
X86122377Y-108025097D01*
X86108091Y-107996525D01*
X86093805Y-107939382D01*
X86093805Y-107896525D01*
X86108091Y-107839382D01*
X86122377Y-107810811D01*
X86150948Y-107782240D01*
X86193805Y-107767954D01*
X86222377Y-107767954D01*
X86265234Y-107782240D01*
X86279520Y-107796525D01*
X86422377Y-108067954D02*
X86479520Y-108067954D01*
X86508091Y-108053668D01*
X86522377Y-108039382D01*
X86550948Y-107996525D01*
X86565234Y-107939382D01*
X86565234Y-107825097D01*
X86550948Y-107796525D01*
X86536662Y-107782240D01*
X86508091Y-107767954D01*
X86450948Y-107767954D01*
X86422377Y-107782240D01*
X86408091Y-107796525D01*
X86393805Y-107825097D01*
X86393805Y-107896525D01*
X86408091Y-107925097D01*
X86422377Y-107939382D01*
X86450948Y-107953668D01*
X86508091Y-107953668D01*
X86536662Y-107939382D01*
X86550948Y-107925097D01*
X86565234Y-107896525D01*
X99683294Y-113854004D02*
X99511568Y-113823700D01*
X99562075Y-113975223D02*
X99349943Y-113763091D01*
X99430756Y-113682278D01*
X99461060Y-113672177D01*
X99481263Y-113672177D01*
X99511568Y-113682278D01*
X99541872Y-113712583D01*
X99551974Y-113742888D01*
X99551974Y-113763091D01*
X99541872Y-113793395D01*
X99461060Y-113874207D01*
X99663091Y-113449943D02*
X99562075Y-113550959D01*
X99652989Y-113662075D01*
X99652989Y-113641872D01*
X99663091Y-113611568D01*
X99713598Y-113561060D01*
X99743903Y-113550959D01*
X99764106Y-113550959D01*
X99794410Y-113561060D01*
X99844918Y-113611568D01*
X99855020Y-113641872D01*
X99855020Y-113662075D01*
X99844918Y-113692380D01*
X99794410Y-113742888D01*
X99764106Y-113752989D01*
X99743903Y-113752989D01*
X100010760Y-118706422D02*
X99996474Y-118720708D01*
X99953617Y-118734994D01*
X99925045Y-118734994D01*
X99882188Y-118720708D01*
X99853617Y-118692137D01*
X99839331Y-118663565D01*
X99825045Y-118606422D01*
X99825045Y-118563565D01*
X99839331Y-118506422D01*
X99853617Y-118477851D01*
X99882188Y-118449280D01*
X99925045Y-118434994D01*
X99953617Y-118434994D01*
X99996474Y-118449280D01*
X100010760Y-118463565D01*
X100296474Y-118734994D02*
X100125045Y-118734994D01*
X100210760Y-118734994D02*
X100210760Y-118434994D01*
X100182188Y-118477851D01*
X100153617Y-118506422D01*
X100125045Y-118520708D01*
X90544948Y-109875074D02*
X90544948Y-109575074D01*
X90544948Y-109717931D02*
X90716377Y-109717931D01*
X90716377Y-109875074D02*
X90716377Y-109575074D01*
X91016377Y-109875074D02*
X90844948Y-109875074D01*
X90930662Y-109875074D02*
X90930662Y-109575074D01*
X90902091Y-109617931D01*
X90873520Y-109646502D01*
X90844948Y-109660788D01*
X100721428Y-120935714D02*
X100621428Y-120792857D01*
X100550000Y-120935714D02*
X100550000Y-120635714D01*
X100664285Y-120635714D01*
X100692857Y-120650000D01*
X100707142Y-120664285D01*
X100721428Y-120692857D01*
X100721428Y-120735714D01*
X100707142Y-120764285D01*
X100692857Y-120778571D01*
X100664285Y-120792857D01*
X100550000Y-120792857D01*
X100807142Y-120635714D02*
X100907142Y-120935714D01*
X101007142Y-120635714D01*
X101264285Y-120935714D02*
X101092857Y-120935714D01*
X101178571Y-120935714D02*
X101178571Y-120635714D01*
X101150000Y-120678571D01*
X101121428Y-120707142D01*
X101092857Y-120721428D01*
X80800000Y-109060714D02*
X80800000Y-109275000D01*
X80785714Y-109317857D01*
X80757142Y-109346428D01*
X80714285Y-109360714D01*
X80685714Y-109360714D01*
X80914285Y-109060714D02*
X81100000Y-109060714D01*
X81000000Y-109175000D01*
X81042857Y-109175000D01*
X81071428Y-109189285D01*
X81085714Y-109203571D01*
X81100000Y-109232142D01*
X81100000Y-109303571D01*
X81085714Y-109332142D01*
X81071428Y-109346428D01*
X81042857Y-109360714D01*
X80957142Y-109360714D01*
X80928571Y-109346428D01*
X80914285Y-109332142D01*
X87154409Y-124106513D02*
X87355772Y-124179803D01*
X87391159Y-124207885D01*
X87408235Y-124244505D01*
X87407001Y-124289664D01*
X87397229Y-124316512D01*
X87538923Y-123927211D02*
X87480291Y-124088301D01*
X87509607Y-124007756D02*
X87227699Y-123905150D01*
X87258200Y-123946656D01*
X87275276Y-123983277D01*
X87278929Y-124015011D01*
X89098605Y-118010451D02*
X89398605Y-118010451D01*
X89398605Y-118081880D01*
X89384320Y-118124737D01*
X89355748Y-118153308D01*
X89327177Y-118167594D01*
X89270034Y-118181880D01*
X89227177Y-118181880D01*
X89170034Y-118167594D01*
X89141462Y-118153308D01*
X89112891Y-118124737D01*
X89098605Y-118081880D01*
X89098605Y-118010451D01*
X89398605Y-118281880D02*
X89398605Y-118481880D01*
X89098605Y-118353308D01*
X84459994Y-111463268D02*
X84159994Y-111463268D01*
X84159994Y-111391840D01*
X84174280Y-111348982D01*
X84202851Y-111320411D01*
X84231422Y-111306125D01*
X84288565Y-111291840D01*
X84331422Y-111291840D01*
X84388565Y-111306125D01*
X84417137Y-111320411D01*
X84445708Y-111348982D01*
X84459994Y-111391840D01*
X84459994Y-111463268D01*
X84188565Y-111177554D02*
X84174280Y-111163268D01*
X84159994Y-111134697D01*
X84159994Y-111063268D01*
X84174280Y-111034697D01*
X84188565Y-111020411D01*
X84217137Y-111006125D01*
X84245708Y-111006125D01*
X84288565Y-111020411D01*
X84459994Y-111191840D01*
X84459994Y-111006125D01*
X102171428Y-110460714D02*
X102171428Y-110703571D01*
X102185714Y-110732142D01*
X102200000Y-110746428D01*
X102228571Y-110760714D01*
X102285714Y-110760714D01*
X102314285Y-110746428D01*
X102328571Y-110732142D01*
X102342857Y-110703571D01*
X102342857Y-110460714D01*
X102642857Y-110760714D02*
X102471428Y-110760714D01*
X102557142Y-110760714D02*
X102557142Y-110460714D01*
X102528571Y-110503571D01*
X102500000Y-110532142D01*
X102471428Y-110546428D01*
X71882142Y-112357142D02*
X71867857Y-112371428D01*
X71825000Y-112385714D01*
X71796428Y-112385714D01*
X71753571Y-112371428D01*
X71725000Y-112342857D01*
X71710714Y-112314285D01*
X71696428Y-112257142D01*
X71696428Y-112214285D01*
X71710714Y-112157142D01*
X71725000Y-112128571D01*
X71753571Y-112100000D01*
X71796428Y-112085714D01*
X71825000Y-112085714D01*
X71867857Y-112100000D01*
X71882142Y-112114285D01*
X72167857Y-112385714D02*
X71996428Y-112385714D01*
X72082142Y-112385714D02*
X72082142Y-112085714D01*
X72053571Y-112128571D01*
X72025000Y-112157142D01*
X71996428Y-112171428D01*
X72425000Y-112185714D02*
X72425000Y-112385714D01*
X72353571Y-112071428D02*
X72282142Y-112285714D01*
X72467857Y-112285714D01*
X88328337Y-113733880D02*
X88314051Y-113719594D01*
X88299765Y-113676737D01*
X88299765Y-113648165D01*
X88314051Y-113605308D01*
X88342622Y-113576737D01*
X88371194Y-113562451D01*
X88428337Y-113548165D01*
X88471194Y-113548165D01*
X88528337Y-113562451D01*
X88556908Y-113576737D01*
X88585480Y-113605308D01*
X88599765Y-113648165D01*
X88599765Y-113676737D01*
X88585480Y-113719594D01*
X88571194Y-113733880D01*
X88471194Y-113905308D02*
X88485480Y-113876737D01*
X88499765Y-113862451D01*
X88528337Y-113848165D01*
X88542622Y-113848165D01*
X88571194Y-113862451D01*
X88585480Y-113876737D01*
X88599765Y-113905308D01*
X88599765Y-113962451D01*
X88585480Y-113991022D01*
X88571194Y-114005308D01*
X88542622Y-114019594D01*
X88528337Y-114019594D01*
X88499765Y-114005308D01*
X88485480Y-113991022D01*
X88471194Y-113962451D01*
X88471194Y-113905308D01*
X88456908Y-113876737D01*
X88442622Y-113862451D01*
X88414051Y-113848165D01*
X88356908Y-113848165D01*
X88328337Y-113862451D01*
X88314051Y-113876737D01*
X88299765Y-113905308D01*
X88299765Y-113962451D01*
X88314051Y-113991022D01*
X88328337Y-114005308D01*
X88356908Y-114019594D01*
X88414051Y-114019594D01*
X88442622Y-114005308D01*
X88456908Y-113991022D01*
X88471194Y-113962451D01*
X95775000Y-116982142D02*
X95760714Y-116996428D01*
X95717857Y-117010714D01*
X95689285Y-117010714D01*
X95646428Y-116996428D01*
X95617857Y-116967857D01*
X95603571Y-116939285D01*
X95589285Y-116882142D01*
X95589285Y-116839285D01*
X95603571Y-116782142D01*
X95617857Y-116753571D01*
X95646428Y-116725000D01*
X95689285Y-116710714D01*
X95717857Y-116710714D01*
X95760714Y-116725000D01*
X95775000Y-116739285D01*
X96032142Y-116710714D02*
X95975000Y-116710714D01*
X95946428Y-116725000D01*
X95932142Y-116739285D01*
X95903571Y-116782142D01*
X95889285Y-116839285D01*
X95889285Y-116953571D01*
X95903571Y-116982142D01*
X95917857Y-116996428D01*
X95946428Y-117010714D01*
X96003571Y-117010714D01*
X96032142Y-116996428D01*
X96046428Y-116982142D01*
X96060714Y-116953571D01*
X96060714Y-116882142D01*
X96046428Y-116853571D01*
X96032142Y-116839285D01*
X96003571Y-116825000D01*
X95946428Y-116825000D01*
X95917857Y-116839285D01*
X95903571Y-116853571D01*
X95889285Y-116882142D01*
X103882142Y-107432142D02*
X103867857Y-107446428D01*
X103825000Y-107460714D01*
X103796428Y-107460714D01*
X103753571Y-107446428D01*
X103725000Y-107417857D01*
X103710714Y-107389285D01*
X103696428Y-107332142D01*
X103696428Y-107289285D01*
X103710714Y-107232142D01*
X103725000Y-107203571D01*
X103753571Y-107175000D01*
X103796428Y-107160714D01*
X103825000Y-107160714D01*
X103867857Y-107175000D01*
X103882142Y-107189285D01*
X104167857Y-107460714D02*
X103996428Y-107460714D01*
X104082142Y-107460714D02*
X104082142Y-107160714D01*
X104053571Y-107203571D01*
X104025000Y-107232142D01*
X103996428Y-107246428D01*
X104267857Y-107160714D02*
X104453571Y-107160714D01*
X104353571Y-107275000D01*
X104396428Y-107275000D01*
X104425000Y-107289285D01*
X104439285Y-107303571D01*
X104453571Y-107332142D01*
X104453571Y-107403571D01*
X104439285Y-107432142D01*
X104425000Y-107446428D01*
X104396428Y-107460714D01*
X104310714Y-107460714D01*
X104282142Y-107446428D01*
X104267857Y-107432142D01*
X82097640Y-121330141D02*
X82083354Y-121344427D01*
X82040497Y-121358713D01*
X82011925Y-121358713D01*
X81969068Y-121344427D01*
X81940497Y-121315856D01*
X81926211Y-121287284D01*
X81911925Y-121230141D01*
X81911925Y-121187284D01*
X81926211Y-121130141D01*
X81940497Y-121101570D01*
X81969068Y-121072999D01*
X82011925Y-121058713D01*
X82040497Y-121058713D01*
X82083354Y-121072999D01*
X82097640Y-121087284D01*
X82197640Y-121058713D02*
X82383354Y-121058713D01*
X82283354Y-121172999D01*
X82326211Y-121172999D01*
X82354782Y-121187284D01*
X82369068Y-121201570D01*
X82383354Y-121230141D01*
X82383354Y-121301570D01*
X82369068Y-121330141D01*
X82354782Y-121344427D01*
X82326211Y-121358713D01*
X82240497Y-121358713D01*
X82211925Y-121344427D01*
X82197640Y-121330141D01*
X102200000Y-113235714D02*
X102200000Y-113450000D01*
X102185714Y-113492857D01*
X102157142Y-113521428D01*
X102114285Y-113535714D01*
X102085714Y-113535714D01*
X102328571Y-113264285D02*
X102342857Y-113250000D01*
X102371428Y-113235714D01*
X102442857Y-113235714D01*
X102471428Y-113250000D01*
X102485714Y-113264285D01*
X102500000Y-113292857D01*
X102500000Y-113321428D01*
X102485714Y-113364285D01*
X102314285Y-113535714D01*
X102500000Y-113535714D01*
X70478571Y-110735714D02*
X70478571Y-110435714D01*
X70550000Y-110435714D01*
X70592857Y-110450000D01*
X70621428Y-110478571D01*
X70635714Y-110507142D01*
X70650000Y-110564285D01*
X70650000Y-110607142D01*
X70635714Y-110664285D01*
X70621428Y-110692857D01*
X70592857Y-110721428D01*
X70550000Y-110735714D01*
X70478571Y-110735714D01*
X70907142Y-110435714D02*
X70850000Y-110435714D01*
X70821428Y-110450000D01*
X70807142Y-110464285D01*
X70778571Y-110507142D01*
X70764285Y-110564285D01*
X70764285Y-110678571D01*
X70778571Y-110707142D01*
X70792857Y-110721428D01*
X70821428Y-110735714D01*
X70878571Y-110735714D01*
X70907142Y-110721428D01*
X70921428Y-110707142D01*
X70935714Y-110678571D01*
X70935714Y-110607142D01*
X70921428Y-110578571D01*
X70907142Y-110564285D01*
X70878571Y-110550000D01*
X70821428Y-110550000D01*
X70792857Y-110564285D01*
X70778571Y-110578571D01*
X70764285Y-110607142D01*
D10*
X73735714Y-107027380D02*
X73164285Y-107027380D01*
X73450000Y-107027380D02*
X73450000Y-106027380D01*
X73354761Y-106170238D01*
X73259523Y-106265476D01*
X73164285Y-106313095D01*
D15*
X111828571Y-110160714D02*
X111828571Y-109860714D01*
X111900000Y-109860714D01*
X111942857Y-109875000D01*
X111971428Y-109903571D01*
X111985714Y-109932142D01*
X112000000Y-109989285D01*
X112000000Y-110032142D01*
X111985714Y-110089285D01*
X111971428Y-110117857D01*
X111942857Y-110146428D01*
X111900000Y-110160714D01*
X111828571Y-110160714D01*
X112257142Y-109960714D02*
X112257142Y-110160714D01*
X112185714Y-109846428D02*
X112114285Y-110060714D01*
X112300000Y-110060714D01*
D10*
X107410714Y-106677380D02*
X106839285Y-106677380D01*
X107125000Y-106677380D02*
X107125000Y-105677380D01*
X107029761Y-105820238D01*
X106934523Y-105915476D01*
X106839285Y-105963095D01*
D15*
X95646428Y-115535714D02*
X95646428Y-115778571D01*
X95660714Y-115807142D01*
X95675000Y-115821428D01*
X95703571Y-115835714D01*
X95760714Y-115835714D01*
X95789285Y-115821428D01*
X95803571Y-115807142D01*
X95817857Y-115778571D01*
X95817857Y-115535714D01*
X96089285Y-115635714D02*
X96089285Y-115835714D01*
X96017857Y-115521428D02*
X95946428Y-115735714D01*
X96132142Y-115735714D01*
X76321428Y-115264285D02*
X76292857Y-115250000D01*
X76264285Y-115221428D01*
X76221428Y-115178571D01*
X76192857Y-115164285D01*
X76164285Y-115164285D01*
X76178571Y-115235714D02*
X76150000Y-115221428D01*
X76121428Y-115192857D01*
X76107142Y-115135714D01*
X76107142Y-115035714D01*
X76121428Y-114978571D01*
X76150000Y-114950000D01*
X76178571Y-114935714D01*
X76235714Y-114935714D01*
X76264285Y-114950000D01*
X76292857Y-114978571D01*
X76307142Y-115035714D01*
X76307142Y-115135714D01*
X76292857Y-115192857D01*
X76264285Y-115221428D01*
X76235714Y-115235714D01*
X76178571Y-115235714D01*
X76592857Y-115235714D02*
X76421428Y-115235714D01*
X76507142Y-115235714D02*
X76507142Y-114935714D01*
X76478571Y-114978571D01*
X76450000Y-115007142D01*
X76421428Y-115021428D01*
X81859628Y-117887794D02*
X81859628Y-118130651D01*
X81873914Y-118159222D01*
X81888200Y-118173508D01*
X81916771Y-118187794D01*
X81973914Y-118187794D01*
X82002485Y-118173508D01*
X82016771Y-118159222D01*
X82031057Y-118130651D01*
X82031057Y-117887794D01*
X82159628Y-117916365D02*
X82173914Y-117902080D01*
X82202485Y-117887794D01*
X82273914Y-117887794D01*
X82302485Y-117902080D01*
X82316771Y-117916365D01*
X82331057Y-117944937D01*
X82331057Y-117973508D01*
X82316771Y-118016365D01*
X82145342Y-118187794D01*
X82331057Y-118187794D01*
X94275000Y-122085714D02*
X94175000Y-121942857D01*
X94103571Y-122085714D02*
X94103571Y-121785714D01*
X94217857Y-121785714D01*
X94246428Y-121800000D01*
X94260714Y-121814285D01*
X94275000Y-121842857D01*
X94275000Y-121885714D01*
X94260714Y-121914285D01*
X94246428Y-121928571D01*
X94217857Y-121942857D01*
X94103571Y-121942857D01*
X94560714Y-122085714D02*
X94389285Y-122085714D01*
X94475000Y-122085714D02*
X94475000Y-121785714D01*
X94446428Y-121828571D01*
X94417857Y-121857142D01*
X94389285Y-121871428D01*
X95050000Y-119610714D02*
X94950000Y-119467857D01*
X94878571Y-119610714D02*
X94878571Y-119310714D01*
X94992857Y-119310714D01*
X95021428Y-119325000D01*
X95035714Y-119339285D01*
X95050000Y-119367857D01*
X95050000Y-119410714D01*
X95035714Y-119439285D01*
X95021428Y-119453571D01*
X94992857Y-119467857D01*
X94878571Y-119467857D01*
X95164285Y-119339285D02*
X95178571Y-119325000D01*
X95207142Y-119310714D01*
X95278571Y-119310714D01*
X95307142Y-119325000D01*
X95321428Y-119339285D01*
X95335714Y-119367857D01*
X95335714Y-119396428D01*
X95321428Y-119439285D01*
X95150000Y-119610714D01*
X95335714Y-119610714D01*
X103473997Y-117434657D02*
X103302271Y-117404353D01*
X103352778Y-117555876D02*
X103140646Y-117343744D01*
X103221459Y-117262931D01*
X103251763Y-117252830D01*
X103271966Y-117252830D01*
X103302271Y-117262931D01*
X103332575Y-117293236D01*
X103342677Y-117323541D01*
X103342677Y-117343744D01*
X103332575Y-117374048D01*
X103251763Y-117454860D01*
X103332575Y-117151815D02*
X103463895Y-117020495D01*
X103473997Y-117172018D01*
X103504301Y-117141713D01*
X103534606Y-117131612D01*
X103554809Y-117131612D01*
X103585113Y-117141713D01*
X103635621Y-117192221D01*
X103645723Y-117222525D01*
X103645723Y-117242728D01*
X103635621Y-117273033D01*
X103575012Y-117333642D01*
X103544707Y-117343744D01*
X103524504Y-117343744D01*
X92950000Y-121135714D02*
X92850000Y-120992857D01*
X92778571Y-121135714D02*
X92778571Y-120835714D01*
X92892857Y-120835714D01*
X92921428Y-120850000D01*
X92935714Y-120864285D01*
X92950000Y-120892857D01*
X92950000Y-120935714D01*
X92935714Y-120964285D01*
X92921428Y-120978571D01*
X92892857Y-120992857D01*
X92778571Y-120992857D01*
X93207142Y-120935714D02*
X93207142Y-121135714D01*
X93135714Y-120821428D02*
X93064285Y-121035714D01*
X93250000Y-121035714D01*
X89325000Y-116210714D02*
X89225000Y-116067857D01*
X89153571Y-116210714D02*
X89153571Y-115910714D01*
X89267857Y-115910714D01*
X89296428Y-115925000D01*
X89310714Y-115939285D01*
X89325000Y-115967857D01*
X89325000Y-116010714D01*
X89310714Y-116039285D01*
X89296428Y-116053571D01*
X89267857Y-116067857D01*
X89153571Y-116067857D01*
X89582142Y-115910714D02*
X89525000Y-115910714D01*
X89496428Y-115925000D01*
X89482142Y-115939285D01*
X89453571Y-115982142D01*
X89439285Y-116039285D01*
X89439285Y-116153571D01*
X89453571Y-116182142D01*
X89467857Y-116196428D01*
X89496428Y-116210714D01*
X89553571Y-116210714D01*
X89582142Y-116196428D01*
X89596428Y-116182142D01*
X89610714Y-116153571D01*
X89610714Y-116082142D01*
X89596428Y-116053571D01*
X89582142Y-116039285D01*
X89553571Y-116025000D01*
X89496428Y-116025000D01*
X89467857Y-116039285D01*
X89453571Y-116053571D01*
X89439285Y-116082142D01*
X81453560Y-116788194D02*
X81353560Y-116645337D01*
X81282131Y-116788194D02*
X81282131Y-116488194D01*
X81396417Y-116488194D01*
X81424988Y-116502480D01*
X81439274Y-116516765D01*
X81453560Y-116545337D01*
X81453560Y-116588194D01*
X81439274Y-116616765D01*
X81424988Y-116631051D01*
X81396417Y-116645337D01*
X81282131Y-116645337D01*
X81553560Y-116488194D02*
X81753560Y-116488194D01*
X81624988Y-116788194D01*
X73175000Y-113160714D02*
X73075000Y-113017857D01*
X73003571Y-113160714D02*
X73003571Y-112860714D01*
X73117857Y-112860714D01*
X73146428Y-112875000D01*
X73160714Y-112889285D01*
X73175000Y-112917857D01*
X73175000Y-112960714D01*
X73160714Y-112989285D01*
X73146428Y-113003571D01*
X73117857Y-113017857D01*
X73003571Y-113017857D01*
X73346428Y-112989285D02*
X73317857Y-112975000D01*
X73303571Y-112960714D01*
X73289285Y-112932142D01*
X73289285Y-112917857D01*
X73303571Y-112889285D01*
X73317857Y-112875000D01*
X73346428Y-112860714D01*
X73403571Y-112860714D01*
X73432142Y-112875000D01*
X73446428Y-112889285D01*
X73460714Y-112917857D01*
X73460714Y-112932142D01*
X73446428Y-112960714D01*
X73432142Y-112975000D01*
X73403571Y-112989285D01*
X73346428Y-112989285D01*
X73317857Y-113003571D01*
X73303571Y-113017857D01*
X73289285Y-113046428D01*
X73289285Y-113103571D01*
X73303571Y-113132142D01*
X73317857Y-113146428D01*
X73346428Y-113160714D01*
X73403571Y-113160714D01*
X73432142Y-113146428D01*
X73446428Y-113132142D01*
X73460714Y-113103571D01*
X73460714Y-113046428D01*
X73446428Y-113017857D01*
X73432142Y-113003571D01*
X73403571Y-112989285D01*
X106136114Y-111885800D02*
X105993257Y-111985800D01*
X106136114Y-112057228D02*
X105836114Y-112057228D01*
X105836114Y-111942942D01*
X105850400Y-111914371D01*
X105864685Y-111900085D01*
X105893257Y-111885800D01*
X105936114Y-111885800D01*
X105964685Y-111900085D01*
X105978971Y-111914371D01*
X105993257Y-111942942D01*
X105993257Y-112057228D01*
X106136114Y-111742942D02*
X106136114Y-111685800D01*
X106121828Y-111657228D01*
X106107542Y-111642942D01*
X106064685Y-111614371D01*
X106007542Y-111600085D01*
X105893257Y-111600085D01*
X105864685Y-111614371D01*
X105850400Y-111628657D01*
X105836114Y-111657228D01*
X105836114Y-111714371D01*
X105850400Y-111742942D01*
X105864685Y-111757228D01*
X105893257Y-111771514D01*
X105964685Y-111771514D01*
X105993257Y-111757228D01*
X106007542Y-111742942D01*
X106021828Y-111714371D01*
X106021828Y-111657228D01*
X106007542Y-111628657D01*
X105993257Y-111614371D01*
X105964685Y-111600085D01*
X87451828Y-116657474D02*
X87451828Y-116900331D01*
X87466114Y-116928902D01*
X87480400Y-116943188D01*
X87508971Y-116957474D01*
X87566114Y-116957474D01*
X87594685Y-116943188D01*
X87608971Y-116928902D01*
X87623257Y-116900331D01*
X87623257Y-116657474D01*
X87737542Y-116657474D02*
X87923257Y-116657474D01*
X87823257Y-116771760D01*
X87866114Y-116771760D01*
X87894685Y-116786045D01*
X87908971Y-116800331D01*
X87923257Y-116828902D01*
X87923257Y-116900331D01*
X87908971Y-116928902D01*
X87894685Y-116943188D01*
X87866114Y-116957474D01*
X87780400Y-116957474D01*
X87751828Y-116943188D01*
X87737542Y-116928902D01*
M02*
