M48
INCH,TZ
T1C0.0118
T2C0.0276
T3C0.0315
T4C0.0394
T5C0.0630
%
G90
G05
T1
X27836Y-44062
X27850Y-41612
X27866Y-42144
X28102Y-44380
X28543Y-44390
X28593Y-42648
X29036Y-43322
X29038Y-41584
X29331Y-41949
X29368Y-46086
X29626Y-43209
X29740Y-41566
X29960Y-46678
X29990Y-44526
X30059Y-44055
X30186Y-45076
X30690Y-47298
X30798Y-45006
X30910Y-41574
X31102Y-41929
X31334Y-42242
X31372Y-47734
X31382Y-41580
X31390Y-46720
X32094Y-45284
X32102Y-45940
X32165Y-42618
X32214Y-48172
X32302Y-44756
X32790Y-46360
X32836Y-46944
X32864Y-47374
X32936Y-42618
X33210Y-48580
X33746Y-48704
X33900Y-47032
X34284Y-47040
X34424Y-46024
X34478Y-45410
X34486Y-45034
X34780Y-48924
X34890Y-45784
X35138Y-42964
X35146Y-44498
X35182Y-42628
X35356Y-44692
X35392Y-45162
X35418Y-46458
X35754Y-49000
X35797Y-43666
X36027Y-43881
X36698Y-44584
X36708Y-48954
X36822Y-43325
X36890Y-43012
X36954Y-46036
X37040Y-44346
X37048Y-44742
X37126Y-47126
X37149Y-42802
X37245Y-43102
X37252Y-45746
X37256Y-48684
X37411Y-47953
X37539Y-47382
X37569Y-44173
X37581Y-42949
X37616Y-45179
X37778Y-48256
X37800Y-48780
X37904Y-48488
X37968Y-44262
X38071Y-42785
X38134Y-47428
X38170Y-43822
X38259Y-45481
X38276Y-44798
X38317Y-43435
X38360Y-47280
X38520Y-44268
X38596Y-42766
X38596Y-43872
X38819Y-46102
X38862Y-42935
X38908Y-46496
X38942Y-45487
X39006Y-44213
X39175Y-42905
X39326Y-48294
X39328Y-45318
X39490Y-42905
X39622Y-46994
X39631Y-43188
X39638Y-43903
X39642Y-46024
X39674Y-46496
X39840Y-48056
X39859Y-42950
X39923Y-45834
X39931Y-46270
X40054Y-43416
X40226Y-42306
X40295Y-42874
X40531Y-46368
X40557Y-45906
X40618Y-43381
X40620Y-41780
X40712Y-47554
X40813Y-43634
X40830Y-43148
X41164Y-47250
X41266Y-43454
X41326Y-44398
X41555Y-42441
X41750Y-44166
X41752Y-46181
X41959Y-46486
X42238Y-41398
X42323Y-42382
X42412Y-46110
X42431Y-42057
X42608Y-44646
X42657Y-41811
X42825Y-43976
X42948Y-41410
X43542Y-44526
X43583Y-42618
X43602Y-41410
X43612Y-43514
X43904Y-43906
X44128Y-41580
X44142Y-43084
X44156Y-42430
T2
X40409Y-45039
X40909Y-45039
X41409Y-45039
X41909Y-45039
X42409Y-45039
X42909Y-45039
T3
X39232Y-47559
X40217Y-47559
X35512Y-47697
X36208Y-48393
T4
X31457Y-43409
X31457Y-44409
X36338Y-43234
X33208Y-47998
X34148Y-48340
T5
X38248Y-46575
X41201Y-46575
T0
M30
