%TF.GenerationSoftware,KiCad,Pcbnew,5.0.1-33cea8e~68~ubuntu18.04.1*%
%TF.CreationDate,2018-12-04T23:45:32+01:00*%
%TF.ProjectId,lightball,6C6967687462616C6C2E6B696361645F,rev?*%
%TF.SameCoordinates,Original*%
%TF.FileFunction,Copper,L2,Bot,Signal*%
%TF.FilePolarity,Positive*%
%FSLAX46Y46*%
G04 Gerber Fmt 4.6, Leading zero omitted, Abs format (unit mm)*
G04 Created by KiCad (PCBNEW 5.0.1-33cea8e~68~ubuntu18.04.1) date Di 04 Dez 2018 23:45:32 CET*
%MOMM*%
%LPD*%
G01*
G04 APERTURE LIST*
%ADD10C,0.150000*%
%ADD11C,0.100000*%
%ADD12C,0.590000*%
%ADD13C,0.875000*%
%ADD14C,2.000000*%
%ADD15C,1.600000*%
%ADD16C,1.500000*%
%ADD17C,2.200000*%
%ADD18C,1.200000*%
%ADD19O,1.700000X1.700000*%
%ADD20R,1.700000X1.700000*%
%ADD21C,1.700000*%
%ADD22C,1.700000*%
%ADD23R,1.000000X1.000000*%
%ADD24O,1.000000X1.000000*%
%ADD25R,1.500000X1.000000*%
%ADD26C,0.650000*%
%ADD27C,0.600000*%
%ADD28C,0.154000*%
%ADD29C,0.300000*%
%ADD30C,0.800000*%
%ADD31C,0.400000*%
%ADD32C,0.500000*%
%ADD33C,0.200000*%
G04 APERTURE END LIST*
D10*
X73975000Y-113550000D02*
X72575000Y-113550000D01*
X73975000Y-117200000D02*
X73975000Y-113550000D01*
X112660414Y-110153935D02*
G75*
G02X73975000Y-117200000I-21460414J8103935D01*
G01*
X112675000Y-104650000D02*
X112663015Y-110154914D01*
X104050000Y-104650000D02*
X112675000Y-104650000D01*
X100250000Y-107650000D02*
X104050000Y-104650000D01*
X80300000Y-107650000D02*
X100250000Y-107650000D01*
X80300000Y-105000000D02*
X80300000Y-107650000D01*
X70050000Y-105000000D02*
X80300000Y-105000000D01*
X70050000Y-112150000D02*
X70050000Y-105000000D01*
X70850000Y-113550000D02*
X70050000Y-112150000D01*
X72575000Y-113550000D02*
X70850000Y-113550000D01*
X103375000Y-112400000D02*
G75*
G03X103375000Y-112400000I-800000J0D01*
G01*
X85075000Y-115475000D02*
G75*
G03X85075000Y-115475000I-1300000J0D01*
G01*
D11*
G36*
X105976958Y-110930710D02*
X105991276Y-110932834D01*
X106005317Y-110936351D01*
X106018946Y-110941228D01*
X106032031Y-110947417D01*
X106044447Y-110954858D01*
X106056073Y-110963481D01*
X106066798Y-110973202D01*
X106076519Y-110983927D01*
X106085142Y-110995553D01*
X106092583Y-111007969D01*
X106098772Y-111021054D01*
X106103649Y-111034683D01*
X106107166Y-111048724D01*
X106109290Y-111063042D01*
X106110000Y-111077500D01*
X106110000Y-111422500D01*
X106109290Y-111436958D01*
X106107166Y-111451276D01*
X106103649Y-111465317D01*
X106098772Y-111478946D01*
X106092583Y-111492031D01*
X106085142Y-111504447D01*
X106076519Y-111516073D01*
X106066798Y-111526798D01*
X106056073Y-111536519D01*
X106044447Y-111545142D01*
X106032031Y-111552583D01*
X106018946Y-111558772D01*
X106005317Y-111563649D01*
X105991276Y-111567166D01*
X105976958Y-111569290D01*
X105962500Y-111570000D01*
X105667500Y-111570000D01*
X105653042Y-111569290D01*
X105638724Y-111567166D01*
X105624683Y-111563649D01*
X105611054Y-111558772D01*
X105597969Y-111552583D01*
X105585553Y-111545142D01*
X105573927Y-111536519D01*
X105563202Y-111526798D01*
X105553481Y-111516073D01*
X105544858Y-111504447D01*
X105537417Y-111492031D01*
X105531228Y-111478946D01*
X105526351Y-111465317D01*
X105522834Y-111451276D01*
X105520710Y-111436958D01*
X105520000Y-111422500D01*
X105520000Y-111077500D01*
X105520710Y-111063042D01*
X105522834Y-111048724D01*
X105526351Y-111034683D01*
X105531228Y-111021054D01*
X105537417Y-111007969D01*
X105544858Y-110995553D01*
X105553481Y-110983927D01*
X105563202Y-110973202D01*
X105573927Y-110963481D01*
X105585553Y-110954858D01*
X105597969Y-110947417D01*
X105611054Y-110941228D01*
X105624683Y-110936351D01*
X105638724Y-110932834D01*
X105653042Y-110930710D01*
X105667500Y-110930000D01*
X105962500Y-110930000D01*
X105976958Y-110930710D01*
X105976958Y-110930710D01*
G37*
D12*
X105815000Y-111250000D03*
D11*
G36*
X106946958Y-110930710D02*
X106961276Y-110932834D01*
X106975317Y-110936351D01*
X106988946Y-110941228D01*
X107002031Y-110947417D01*
X107014447Y-110954858D01*
X107026073Y-110963481D01*
X107036798Y-110973202D01*
X107046519Y-110983927D01*
X107055142Y-110995553D01*
X107062583Y-111007969D01*
X107068772Y-111021054D01*
X107073649Y-111034683D01*
X107077166Y-111048724D01*
X107079290Y-111063042D01*
X107080000Y-111077500D01*
X107080000Y-111422500D01*
X107079290Y-111436958D01*
X107077166Y-111451276D01*
X107073649Y-111465317D01*
X107068772Y-111478946D01*
X107062583Y-111492031D01*
X107055142Y-111504447D01*
X107046519Y-111516073D01*
X107036798Y-111526798D01*
X107026073Y-111536519D01*
X107014447Y-111545142D01*
X107002031Y-111552583D01*
X106988946Y-111558772D01*
X106975317Y-111563649D01*
X106961276Y-111567166D01*
X106946958Y-111569290D01*
X106932500Y-111570000D01*
X106637500Y-111570000D01*
X106623042Y-111569290D01*
X106608724Y-111567166D01*
X106594683Y-111563649D01*
X106581054Y-111558772D01*
X106567969Y-111552583D01*
X106555553Y-111545142D01*
X106543927Y-111536519D01*
X106533202Y-111526798D01*
X106523481Y-111516073D01*
X106514858Y-111504447D01*
X106507417Y-111492031D01*
X106501228Y-111478946D01*
X106496351Y-111465317D01*
X106492834Y-111451276D01*
X106490710Y-111436958D01*
X106490000Y-111422500D01*
X106490000Y-111077500D01*
X106490710Y-111063042D01*
X106492834Y-111048724D01*
X106496351Y-111034683D01*
X106501228Y-111021054D01*
X106507417Y-111007969D01*
X106514858Y-110995553D01*
X106523481Y-110983927D01*
X106533202Y-110973202D01*
X106543927Y-110963481D01*
X106555553Y-110954858D01*
X106567969Y-110947417D01*
X106581054Y-110941228D01*
X106594683Y-110936351D01*
X106608724Y-110932834D01*
X106623042Y-110930710D01*
X106637500Y-110930000D01*
X106932500Y-110930000D01*
X106946958Y-110930710D01*
X106946958Y-110930710D01*
G37*
D12*
X106785000Y-111250000D03*
D11*
G36*
X99967611Y-118425493D02*
X99988846Y-118428643D01*
X100009670Y-118433859D01*
X100029882Y-118441091D01*
X100049288Y-118450270D01*
X100067701Y-118461306D01*
X100084944Y-118474094D01*
X100100850Y-118488510D01*
X100115266Y-118504416D01*
X100128054Y-118521659D01*
X100139090Y-118540072D01*
X100148269Y-118559478D01*
X100155501Y-118579690D01*
X100160717Y-118600514D01*
X100163867Y-118621749D01*
X100164920Y-118643190D01*
X100164920Y-119080690D01*
X100163867Y-119102131D01*
X100160717Y-119123366D01*
X100155501Y-119144190D01*
X100148269Y-119164402D01*
X100139090Y-119183808D01*
X100128054Y-119202221D01*
X100115266Y-119219464D01*
X100100850Y-119235370D01*
X100084944Y-119249786D01*
X100067701Y-119262574D01*
X100049288Y-119273610D01*
X100029882Y-119282789D01*
X100009670Y-119290021D01*
X99988846Y-119295237D01*
X99967611Y-119298387D01*
X99946170Y-119299440D01*
X99433670Y-119299440D01*
X99412229Y-119298387D01*
X99390994Y-119295237D01*
X99370170Y-119290021D01*
X99349958Y-119282789D01*
X99330552Y-119273610D01*
X99312139Y-119262574D01*
X99294896Y-119249786D01*
X99278990Y-119235370D01*
X99264574Y-119219464D01*
X99251786Y-119202221D01*
X99240750Y-119183808D01*
X99231571Y-119164402D01*
X99224339Y-119144190D01*
X99219123Y-119123366D01*
X99215973Y-119102131D01*
X99214920Y-119080690D01*
X99214920Y-118643190D01*
X99215973Y-118621749D01*
X99219123Y-118600514D01*
X99224339Y-118579690D01*
X99231571Y-118559478D01*
X99240750Y-118540072D01*
X99251786Y-118521659D01*
X99264574Y-118504416D01*
X99278990Y-118488510D01*
X99294896Y-118474094D01*
X99312139Y-118461306D01*
X99330552Y-118450270D01*
X99349958Y-118441091D01*
X99370170Y-118433859D01*
X99390994Y-118428643D01*
X99412229Y-118425493D01*
X99433670Y-118424440D01*
X99946170Y-118424440D01*
X99967611Y-118425493D01*
X99967611Y-118425493D01*
G37*
D13*
X99689920Y-118861940D03*
D11*
G36*
X99967611Y-116850493D02*
X99988846Y-116853643D01*
X100009670Y-116858859D01*
X100029882Y-116866091D01*
X100049288Y-116875270D01*
X100067701Y-116886306D01*
X100084944Y-116899094D01*
X100100850Y-116913510D01*
X100115266Y-116929416D01*
X100128054Y-116946659D01*
X100139090Y-116965072D01*
X100148269Y-116984478D01*
X100155501Y-117004690D01*
X100160717Y-117025514D01*
X100163867Y-117046749D01*
X100164920Y-117068190D01*
X100164920Y-117505690D01*
X100163867Y-117527131D01*
X100160717Y-117548366D01*
X100155501Y-117569190D01*
X100148269Y-117589402D01*
X100139090Y-117608808D01*
X100128054Y-117627221D01*
X100115266Y-117644464D01*
X100100850Y-117660370D01*
X100084944Y-117674786D01*
X100067701Y-117687574D01*
X100049288Y-117698610D01*
X100029882Y-117707789D01*
X100009670Y-117715021D01*
X99988846Y-117720237D01*
X99967611Y-117723387D01*
X99946170Y-117724440D01*
X99433670Y-117724440D01*
X99412229Y-117723387D01*
X99390994Y-117720237D01*
X99370170Y-117715021D01*
X99349958Y-117707789D01*
X99330552Y-117698610D01*
X99312139Y-117687574D01*
X99294896Y-117674786D01*
X99278990Y-117660370D01*
X99264574Y-117644464D01*
X99251786Y-117627221D01*
X99240750Y-117608808D01*
X99231571Y-117589402D01*
X99224339Y-117569190D01*
X99219123Y-117548366D01*
X99215973Y-117527131D01*
X99214920Y-117505690D01*
X99214920Y-117068190D01*
X99215973Y-117046749D01*
X99219123Y-117025514D01*
X99224339Y-117004690D01*
X99231571Y-116984478D01*
X99240750Y-116965072D01*
X99251786Y-116946659D01*
X99264574Y-116929416D01*
X99278990Y-116913510D01*
X99294896Y-116899094D01*
X99312139Y-116886306D01*
X99330552Y-116875270D01*
X99349958Y-116866091D01*
X99370170Y-116858859D01*
X99390994Y-116853643D01*
X99412229Y-116850493D01*
X99433670Y-116849440D01*
X99946170Y-116849440D01*
X99967611Y-116850493D01*
X99967611Y-116850493D01*
G37*
D13*
X99689920Y-117286940D03*
D11*
G36*
X88160398Y-108758470D02*
X88174716Y-108760594D01*
X88188757Y-108764111D01*
X88202386Y-108768988D01*
X88215471Y-108775177D01*
X88227887Y-108782618D01*
X88239513Y-108791241D01*
X88250238Y-108800962D01*
X88259959Y-108811687D01*
X88268582Y-108823313D01*
X88276023Y-108835729D01*
X88282212Y-108848814D01*
X88287089Y-108862443D01*
X88290606Y-108876484D01*
X88292730Y-108890802D01*
X88293440Y-108905260D01*
X88293440Y-109250260D01*
X88292730Y-109264718D01*
X88290606Y-109279036D01*
X88287089Y-109293077D01*
X88282212Y-109306706D01*
X88276023Y-109319791D01*
X88268582Y-109332207D01*
X88259959Y-109343833D01*
X88250238Y-109354558D01*
X88239513Y-109364279D01*
X88227887Y-109372902D01*
X88215471Y-109380343D01*
X88202386Y-109386532D01*
X88188757Y-109391409D01*
X88174716Y-109394926D01*
X88160398Y-109397050D01*
X88145940Y-109397760D01*
X87850940Y-109397760D01*
X87836482Y-109397050D01*
X87822164Y-109394926D01*
X87808123Y-109391409D01*
X87794494Y-109386532D01*
X87781409Y-109380343D01*
X87768993Y-109372902D01*
X87757367Y-109364279D01*
X87746642Y-109354558D01*
X87736921Y-109343833D01*
X87728298Y-109332207D01*
X87720857Y-109319791D01*
X87714668Y-109306706D01*
X87709791Y-109293077D01*
X87706274Y-109279036D01*
X87704150Y-109264718D01*
X87703440Y-109250260D01*
X87703440Y-108905260D01*
X87704150Y-108890802D01*
X87706274Y-108876484D01*
X87709791Y-108862443D01*
X87714668Y-108848814D01*
X87720857Y-108835729D01*
X87728298Y-108823313D01*
X87736921Y-108811687D01*
X87746642Y-108800962D01*
X87757367Y-108791241D01*
X87768993Y-108782618D01*
X87781409Y-108775177D01*
X87794494Y-108768988D01*
X87808123Y-108764111D01*
X87822164Y-108760594D01*
X87836482Y-108758470D01*
X87850940Y-108757760D01*
X88145940Y-108757760D01*
X88160398Y-108758470D01*
X88160398Y-108758470D01*
G37*
D12*
X87998440Y-109077760D03*
D11*
G36*
X89130398Y-108758470D02*
X89144716Y-108760594D01*
X89158757Y-108764111D01*
X89172386Y-108768988D01*
X89185471Y-108775177D01*
X89197887Y-108782618D01*
X89209513Y-108791241D01*
X89220238Y-108800962D01*
X89229959Y-108811687D01*
X89238582Y-108823313D01*
X89246023Y-108835729D01*
X89252212Y-108848814D01*
X89257089Y-108862443D01*
X89260606Y-108876484D01*
X89262730Y-108890802D01*
X89263440Y-108905260D01*
X89263440Y-109250260D01*
X89262730Y-109264718D01*
X89260606Y-109279036D01*
X89257089Y-109293077D01*
X89252212Y-109306706D01*
X89246023Y-109319791D01*
X89238582Y-109332207D01*
X89229959Y-109343833D01*
X89220238Y-109354558D01*
X89209513Y-109364279D01*
X89197887Y-109372902D01*
X89185471Y-109380343D01*
X89172386Y-109386532D01*
X89158757Y-109391409D01*
X89144716Y-109394926D01*
X89130398Y-109397050D01*
X89115940Y-109397760D01*
X88820940Y-109397760D01*
X88806482Y-109397050D01*
X88792164Y-109394926D01*
X88778123Y-109391409D01*
X88764494Y-109386532D01*
X88751409Y-109380343D01*
X88738993Y-109372902D01*
X88727367Y-109364279D01*
X88716642Y-109354558D01*
X88706921Y-109343833D01*
X88698298Y-109332207D01*
X88690857Y-109319791D01*
X88684668Y-109306706D01*
X88679791Y-109293077D01*
X88676274Y-109279036D01*
X88674150Y-109264718D01*
X88673440Y-109250260D01*
X88673440Y-108905260D01*
X88674150Y-108890802D01*
X88676274Y-108876484D01*
X88679791Y-108862443D01*
X88684668Y-108848814D01*
X88690857Y-108835729D01*
X88698298Y-108823313D01*
X88706921Y-108811687D01*
X88716642Y-108800962D01*
X88727367Y-108791241D01*
X88738993Y-108782618D01*
X88751409Y-108775177D01*
X88764494Y-108768988D01*
X88778123Y-108764111D01*
X88792164Y-108760594D01*
X88806482Y-108758470D01*
X88820940Y-108757760D01*
X89115940Y-108757760D01*
X89130398Y-108758470D01*
X89130398Y-108758470D01*
G37*
D12*
X88968440Y-109077760D03*
D14*
X97683320Y-121813320D03*
D11*
G36*
X97085648Y-123095033D02*
X96401607Y-121215648D01*
X98280992Y-120531607D01*
X98965033Y-122410992D01*
X97085648Y-123095033D01*
X97085648Y-123095033D01*
G37*
D15*
X90200000Y-121150000D03*
D11*
G36*
X89068629Y-121150000D02*
X90200000Y-120018629D01*
X91331371Y-121150000D01*
X90200000Y-122281371D01*
X89068629Y-121150000D01*
X89068629Y-121150000D01*
G37*
D15*
X91967767Y-122917767D03*
D16*
X92298520Y-109814360D03*
D17*
X97150000Y-118300000D03*
D18*
X99650000Y-120800000D03*
X102150000Y-120800000D03*
D17*
X104650000Y-118300000D03*
D19*
X79900000Y-110260000D03*
D20*
X79900000Y-112800000D03*
D21*
X84349101Y-121914869D03*
D11*
G36*
X84857123Y-123004325D02*
X83259645Y-122422891D01*
X83841079Y-120825413D01*
X85438557Y-121406847D01*
X84857123Y-123004325D01*
X84857123Y-123004325D01*
G37*
D21*
X86735920Y-122783600D03*
D22*
X86735920Y-122783600D02*
X86735920Y-122783600D01*
D11*
G36*
X72731958Y-111180710D02*
X72746276Y-111182834D01*
X72760317Y-111186351D01*
X72773946Y-111191228D01*
X72787031Y-111197417D01*
X72799447Y-111204858D01*
X72811073Y-111213481D01*
X72821798Y-111223202D01*
X72831519Y-111233927D01*
X72840142Y-111245553D01*
X72847583Y-111257969D01*
X72853772Y-111271054D01*
X72858649Y-111284683D01*
X72862166Y-111298724D01*
X72864290Y-111313042D01*
X72865000Y-111327500D01*
X72865000Y-111672500D01*
X72864290Y-111686958D01*
X72862166Y-111701276D01*
X72858649Y-111715317D01*
X72853772Y-111728946D01*
X72847583Y-111742031D01*
X72840142Y-111754447D01*
X72831519Y-111766073D01*
X72821798Y-111776798D01*
X72811073Y-111786519D01*
X72799447Y-111795142D01*
X72787031Y-111802583D01*
X72773946Y-111808772D01*
X72760317Y-111813649D01*
X72746276Y-111817166D01*
X72731958Y-111819290D01*
X72717500Y-111820000D01*
X72422500Y-111820000D01*
X72408042Y-111819290D01*
X72393724Y-111817166D01*
X72379683Y-111813649D01*
X72366054Y-111808772D01*
X72352969Y-111802583D01*
X72340553Y-111795142D01*
X72328927Y-111786519D01*
X72318202Y-111776798D01*
X72308481Y-111766073D01*
X72299858Y-111754447D01*
X72292417Y-111742031D01*
X72286228Y-111728946D01*
X72281351Y-111715317D01*
X72277834Y-111701276D01*
X72275710Y-111686958D01*
X72275000Y-111672500D01*
X72275000Y-111327500D01*
X72275710Y-111313042D01*
X72277834Y-111298724D01*
X72281351Y-111284683D01*
X72286228Y-111271054D01*
X72292417Y-111257969D01*
X72299858Y-111245553D01*
X72308481Y-111233927D01*
X72318202Y-111223202D01*
X72328927Y-111213481D01*
X72340553Y-111204858D01*
X72352969Y-111197417D01*
X72366054Y-111191228D01*
X72379683Y-111186351D01*
X72393724Y-111182834D01*
X72408042Y-111180710D01*
X72422500Y-111180000D01*
X72717500Y-111180000D01*
X72731958Y-111180710D01*
X72731958Y-111180710D01*
G37*
D12*
X72570000Y-111500000D03*
D11*
G36*
X71761958Y-111180710D02*
X71776276Y-111182834D01*
X71790317Y-111186351D01*
X71803946Y-111191228D01*
X71817031Y-111197417D01*
X71829447Y-111204858D01*
X71841073Y-111213481D01*
X71851798Y-111223202D01*
X71861519Y-111233927D01*
X71870142Y-111245553D01*
X71877583Y-111257969D01*
X71883772Y-111271054D01*
X71888649Y-111284683D01*
X71892166Y-111298724D01*
X71894290Y-111313042D01*
X71895000Y-111327500D01*
X71895000Y-111672500D01*
X71894290Y-111686958D01*
X71892166Y-111701276D01*
X71888649Y-111715317D01*
X71883772Y-111728946D01*
X71877583Y-111742031D01*
X71870142Y-111754447D01*
X71861519Y-111766073D01*
X71851798Y-111776798D01*
X71841073Y-111786519D01*
X71829447Y-111795142D01*
X71817031Y-111802583D01*
X71803946Y-111808772D01*
X71790317Y-111813649D01*
X71776276Y-111817166D01*
X71761958Y-111819290D01*
X71747500Y-111820000D01*
X71452500Y-111820000D01*
X71438042Y-111819290D01*
X71423724Y-111817166D01*
X71409683Y-111813649D01*
X71396054Y-111808772D01*
X71382969Y-111802583D01*
X71370553Y-111795142D01*
X71358927Y-111786519D01*
X71348202Y-111776798D01*
X71338481Y-111766073D01*
X71329858Y-111754447D01*
X71322417Y-111742031D01*
X71316228Y-111728946D01*
X71311351Y-111715317D01*
X71307834Y-111701276D01*
X71305710Y-111686958D01*
X71305000Y-111672500D01*
X71305000Y-111327500D01*
X71305710Y-111313042D01*
X71307834Y-111298724D01*
X71311351Y-111284683D01*
X71316228Y-111271054D01*
X71322417Y-111257969D01*
X71329858Y-111245553D01*
X71338481Y-111233927D01*
X71348202Y-111223202D01*
X71358927Y-111213481D01*
X71370553Y-111204858D01*
X71382969Y-111197417D01*
X71396054Y-111191228D01*
X71409683Y-111186351D01*
X71423724Y-111182834D01*
X71438042Y-111180710D01*
X71452500Y-111180000D01*
X71747500Y-111180000D01*
X71761958Y-111180710D01*
X71761958Y-111180710D01*
G37*
D12*
X71600000Y-111500000D03*
D23*
X102640000Y-114400000D03*
D24*
X103910000Y-114400000D03*
X105180000Y-114400000D03*
X106450000Y-114400000D03*
X107720000Y-114400000D03*
X108990000Y-114400000D03*
D25*
X72150000Y-109749930D03*
X72150000Y-106549930D03*
X77050000Y-109749930D03*
X77050000Y-106549930D03*
X105800000Y-109400000D03*
X105800000Y-106200000D03*
X110700000Y-109400000D03*
X110700000Y-106200000D03*
D26*
X92553658Y-114766821D03*
D11*
G36*
X93384508Y-115138052D02*
X92924889Y-115597671D01*
X91722808Y-114395590D01*
X92182427Y-113935971D01*
X93384508Y-115138052D01*
X93384508Y-115138052D01*
G37*
D26*
X91655633Y-115664847D03*
D11*
G36*
X92486483Y-116036078D02*
X92026864Y-116495697D01*
X90824783Y-115293616D01*
X91284402Y-114833997D01*
X92486483Y-116036078D01*
X92486483Y-116036078D01*
G37*
D26*
X90757607Y-116562873D03*
D11*
G36*
X91588457Y-116934104D02*
X91128838Y-117393723D01*
X89926757Y-116191642D01*
X90386376Y-115732023D01*
X91588457Y-116934104D01*
X91588457Y-116934104D01*
G37*
D26*
X89859581Y-117460898D03*
D11*
G36*
X90690431Y-117832129D02*
X90230812Y-118291748D01*
X89028731Y-117089667D01*
X89488350Y-116630048D01*
X90690431Y-117832129D01*
X90690431Y-117832129D01*
G37*
D26*
X84697702Y-112299019D03*
D11*
G36*
X85528552Y-112670250D02*
X85068933Y-113129869D01*
X83866852Y-111927788D01*
X84326471Y-111468169D01*
X85528552Y-112670250D01*
X85528552Y-112670250D01*
G37*
D26*
X85595727Y-111400993D03*
D11*
G36*
X86426577Y-111772224D02*
X85966958Y-112231843D01*
X84764877Y-111029762D01*
X85224496Y-110570143D01*
X86426577Y-111772224D01*
X86426577Y-111772224D01*
G37*
D26*
X86493753Y-110502967D03*
D11*
G36*
X87324603Y-110874198D02*
X86864984Y-111333817D01*
X85662903Y-110131736D01*
X86122522Y-109672117D01*
X87324603Y-110874198D01*
X87324603Y-110874198D01*
G37*
D26*
X87391779Y-109604942D03*
D11*
G36*
X88222629Y-109976173D02*
X87763010Y-110435792D01*
X86560929Y-109233711D01*
X87020548Y-108774092D01*
X88222629Y-109976173D01*
X88222629Y-109976173D01*
G37*
D27*
X89961720Y-118003320D03*
X97221040Y-113786920D03*
X98033840Y-111434880D03*
X97840800Y-112440720D03*
X96951800Y-111307880D03*
X96438720Y-112425480D03*
X99075000Y-112300000D03*
X95425000Y-112200000D03*
X97325000Y-110325000D03*
X72500000Y-112750000D03*
X75250000Y-109750000D03*
X79000000Y-106500000D03*
X81700000Y-108250000D03*
X105550000Y-107800000D03*
X95350000Y-120350000D03*
X101240842Y-109093142D03*
X108225000Y-113400000D03*
X102350000Y-108900000D03*
X107775000Y-106825000D03*
X110775000Y-110525000D03*
X110700000Y-108250000D03*
X108775000Y-111700000D03*
X106049999Y-117299999D03*
X106575000Y-118075000D03*
X101425000Y-117525000D03*
X102950000Y-117775000D03*
X89895680Y-114711480D03*
X89250520Y-109128560D03*
X94630240Y-123657360D03*
X74594720Y-117058440D03*
X76098400Y-118562120D03*
X77952600Y-120136920D03*
X96276160Y-123159520D03*
X98826320Y-118099840D03*
X100771960Y-118099840D03*
X99888040Y-122666760D03*
X101193600Y-122062240D03*
X103408480Y-120787160D03*
X110596680Y-113096040D03*
X111516160Y-111521240D03*
X112120680Y-109433360D03*
X112156240Y-107772200D03*
X112085120Y-105613200D03*
X83657440Y-108249720D03*
X79588360Y-107294680D03*
X79710280Y-105613200D03*
X78511400Y-105597960D03*
X70779640Y-107045760D03*
X71379080Y-112725200D03*
X73751440Y-110037880D03*
X76174600Y-113096040D03*
X76672440Y-114493040D03*
X78226920Y-114315240D03*
X81518760Y-115021360D03*
X82047080Y-113680240D03*
X79730600Y-118668800D03*
X86106000Y-119461280D03*
X87081360Y-119481600D03*
X83474560Y-120329960D03*
X89804240Y-113517680D03*
X87594440Y-114386360D03*
X87574120Y-115341400D03*
X89270840Y-113024920D03*
X75539600Y-105577640D03*
X73756520Y-105623360D03*
X70739000Y-105694480D03*
X70703440Y-111917480D03*
X79684880Y-121244360D03*
X81823560Y-122356880D03*
X84353400Y-123393200D03*
X85714840Y-123708160D03*
X88341200Y-124266960D03*
X90815160Y-124460000D03*
X93238320Y-124343160D03*
X96012000Y-123901200D03*
X104556560Y-120015000D03*
X107726480Y-117119400D03*
X110749080Y-105181400D03*
X109087920Y-105181400D03*
X107284520Y-105150920D03*
X93212920Y-113243360D03*
X96860360Y-120467120D03*
X104815640Y-110373160D03*
X94620080Y-116194840D03*
X93863160Y-116931440D03*
X100690680Y-116900960D03*
X100639880Y-119364760D03*
X95956120Y-122570240D03*
X97434400Y-120091200D03*
X103174800Y-106121200D03*
X83403440Y-119237760D03*
X87436960Y-116900960D03*
X88620600Y-116291360D03*
X81539080Y-116687600D03*
X72625080Y-108325010D03*
X107500000Y-107650000D03*
X95024998Y-121800000D03*
X99504818Y-108979331D03*
X106045000Y-112181640D03*
X95544654Y-114755346D03*
X94300000Y-119700000D03*
X102174683Y-107456462D03*
X96700000Y-108675020D03*
X103015016Y-116600000D03*
X98600000Y-117100000D03*
X99893153Y-115106847D03*
X83286600Y-117754400D03*
X101405652Y-116418652D03*
X101737160Y-110276640D03*
X103665465Y-110831357D03*
X104969033Y-112770164D03*
X76350000Y-111900000D03*
X91509703Y-111458481D03*
X98708219Y-109053653D03*
X94602764Y-109477939D03*
X93526920Y-110045798D03*
X95456329Y-109089392D03*
X90925543Y-110911877D03*
X93700002Y-109250000D03*
X94357545Y-108716437D03*
X100304829Y-108979031D03*
X100680526Y-111513400D03*
X100662749Y-109696661D03*
X103169562Y-110188545D03*
X98032725Y-108625020D03*
X103707782Y-109596652D03*
X94081600Y-112638840D03*
X94101920Y-113644680D03*
X108349984Y-106200000D03*
X89362398Y-108275010D03*
X74500000Y-106550000D03*
X97178588Y-115522619D03*
X98912834Y-115537814D03*
D28*
X101433984Y-108900000D02*
X101240842Y-109093142D01*
X102350000Y-108900000D02*
X101433984Y-108900000D01*
D29*
X90419200Y-117460898D02*
X90556080Y-117597778D01*
X89859581Y-117460898D02*
X90419200Y-117460898D01*
X90556080Y-117597778D02*
X90556080Y-117754400D01*
X90556080Y-117754400D02*
X90510360Y-117800120D01*
X90510360Y-117800120D02*
X90510360Y-117922040D01*
X90510360Y-117922040D02*
X90357960Y-118074440D01*
X90357960Y-118074440D02*
X90388440Y-118104920D01*
X90388440Y-118104920D02*
X90998040Y-118104920D01*
X90998040Y-118104920D02*
X90754200Y-117861080D01*
X90754200Y-117861080D02*
X90749120Y-117861080D01*
X90749120Y-117861080D02*
X90749120Y-117835680D01*
D28*
X81839079Y-116987599D02*
X81539080Y-116687600D01*
X84738958Y-117125002D02*
X81976482Y-117125002D01*
X81976482Y-117125002D02*
X81839079Y-116987599D01*
X88620600Y-116291360D02*
X85572600Y-116291360D01*
X85572600Y-116291360D02*
X84738958Y-117125002D01*
D30*
X72150000Y-109749930D02*
X72150000Y-108800090D01*
X72150000Y-108800090D02*
X72625080Y-108325010D01*
D31*
X105800000Y-109400000D02*
X105800000Y-109350000D01*
X105800000Y-109350000D02*
X107500000Y-107650000D01*
X105815000Y-109415000D02*
X105800000Y-109400000D01*
X105815000Y-111250000D02*
X105815000Y-109415000D01*
D32*
X71600000Y-110299930D02*
X72150000Y-109749930D01*
X71600000Y-111500000D02*
X71600000Y-110299930D01*
D31*
X92257880Y-121574560D02*
X92332439Y-121500001D01*
X94724999Y-121500001D02*
X95024998Y-121800000D01*
X90034309Y-119618619D02*
X90365691Y-119618619D01*
X81716158Y-118489962D02*
X87329964Y-118489962D01*
X92332439Y-121500001D02*
X94724999Y-121500001D01*
X91731381Y-121048061D02*
X92257880Y-121574560D01*
X88668619Y-119828617D02*
X89824311Y-119828617D01*
X79900000Y-112800000D02*
X79900000Y-116673804D01*
X79900000Y-116673804D02*
X81716158Y-118489962D01*
X87329964Y-118489962D02*
X88668619Y-119828617D01*
X89824311Y-119828617D02*
X90034309Y-119618619D01*
X90365691Y-119618619D02*
X91731381Y-120984309D01*
X91731381Y-120984309D02*
X91731381Y-121048061D01*
D28*
X107636870Y-112002010D02*
X110238880Y-109400000D01*
X106250030Y-112002010D02*
X107636870Y-112002010D01*
X106073828Y-112178212D02*
X106250030Y-112002010D01*
X110238880Y-109400000D02*
X110700000Y-109400000D01*
X104057147Y-112178212D02*
X106073828Y-112178212D01*
X100893880Y-112130840D02*
X101891150Y-111133570D01*
X101891150Y-111133570D02*
X103012505Y-111133570D01*
X103012505Y-111133570D02*
X104057147Y-112178212D01*
X99504818Y-108979331D02*
X99504818Y-111173578D01*
D33*
X100771960Y-112130840D02*
X100760753Y-112119633D01*
X100893880Y-112130840D02*
X100771960Y-112130840D01*
X100760753Y-112119633D02*
X100405153Y-112119633D01*
X100405153Y-112119633D02*
X99496880Y-111211360D01*
X99496880Y-111211360D02*
X99496880Y-111064040D01*
D32*
X94300000Y-119700000D02*
X94300000Y-118950000D01*
X95544654Y-115894654D02*
X95544654Y-114755346D01*
X96450000Y-116800000D02*
X95544654Y-115894654D01*
D33*
X97350010Y-108025010D02*
X101606135Y-108025010D01*
X101606135Y-108025010D02*
X101874684Y-107756461D01*
X96700000Y-108675020D02*
X97350010Y-108025010D01*
X101874684Y-107756461D02*
X102174683Y-107456462D01*
D32*
X98375000Y-116875000D02*
X98600000Y-117100000D01*
D29*
X101386306Y-116600000D02*
X99893153Y-115106847D01*
X103015016Y-116600000D02*
X101386306Y-116600000D01*
D32*
X89168729Y-119158838D02*
X88892051Y-118882160D01*
X89541535Y-119158838D02*
X89168729Y-119158838D01*
X88892051Y-118882160D02*
X88833905Y-118882160D01*
X94300000Y-118950000D02*
X94100080Y-118750080D01*
X89818213Y-118882160D02*
X89541535Y-119158838D01*
X89951560Y-118882160D02*
X89818213Y-118882160D01*
X90083640Y-118750080D02*
X89951560Y-118882160D01*
X94100080Y-118750080D02*
X90083640Y-118750080D01*
X88833905Y-118882160D02*
X87706145Y-117754400D01*
X87706145Y-117754400D02*
X83710864Y-117754400D01*
X83710864Y-117754400D02*
X83286600Y-117754400D01*
D28*
X87664272Y-109411928D02*
X87651432Y-109411928D01*
X87998440Y-109077760D02*
X87664272Y-109411928D01*
X87651432Y-109411928D02*
X87518240Y-109545120D01*
X89347040Y-109910880D02*
X87680800Y-109910880D01*
X91352064Y-108239560D02*
X91018360Y-108239560D01*
X91512287Y-108079337D02*
X91352064Y-108239560D01*
X96104317Y-108079337D02*
X91512287Y-108079337D01*
X96700000Y-108675020D02*
X96104317Y-108079337D01*
X91018360Y-108239560D02*
X89347040Y-109910880D01*
D29*
X101386306Y-116600000D02*
X101386306Y-116437998D01*
X101386306Y-116437998D02*
X101405652Y-116418652D01*
D28*
X103565960Y-110779560D02*
X102240080Y-110779560D01*
X102037159Y-110576639D02*
X101737160Y-110276640D01*
X102240080Y-110779560D02*
X102037159Y-110576639D01*
D33*
X103965464Y-110274374D02*
X103965464Y-110531358D01*
X102174683Y-107456462D02*
X102598947Y-107456462D01*
X102598947Y-107456462D02*
X104307784Y-109165299D01*
X104307784Y-109932054D02*
X103965464Y-110274374D01*
X104307784Y-109165299D02*
X104307784Y-109932054D01*
X103965464Y-110531358D02*
X103665465Y-110831357D01*
D32*
X98201640Y-116626640D02*
X98375000Y-116800000D01*
X96623360Y-116626640D02*
X98201640Y-116626640D01*
X96450000Y-116800000D02*
X96623360Y-116626640D01*
X94300000Y-118765360D02*
X94300000Y-118950000D01*
X96450000Y-116800000D02*
X96265360Y-116800000D01*
X96265360Y-116800000D02*
X94300000Y-118765360D01*
D28*
X85183676Y-113406879D02*
X85220195Y-113370360D01*
X89693037Y-111768289D02*
X91199895Y-111768289D01*
X88090966Y-113370360D02*
X89693037Y-111768289D01*
X84954190Y-113406879D02*
X85183676Y-113406879D01*
X91209704Y-111758480D02*
X91509703Y-111458481D01*
X84917671Y-113370360D02*
X84954190Y-113406879D01*
X85220195Y-113370360D02*
X88090966Y-113370360D01*
X81600001Y-111600001D02*
X83370360Y-113370360D01*
X83370360Y-113370360D02*
X84917671Y-113370360D01*
X76649999Y-111600001D02*
X81600001Y-111600001D01*
X91199895Y-111768289D02*
X91209704Y-111758480D01*
X76350000Y-111900000D02*
X76649999Y-111600001D01*
X104170000Y-114400000D02*
X104170000Y-114170000D01*
X103955000Y-114615000D02*
X104170000Y-114400000D01*
X104170000Y-114400000D02*
X103374010Y-113604010D01*
X103374010Y-113604010D02*
X101353364Y-113604010D01*
X101353364Y-113604010D02*
X98708219Y-110958865D01*
X98708219Y-109477917D02*
X98708219Y-109053653D01*
X98708219Y-110958865D02*
X98708219Y-109477917D01*
X92808838Y-115430861D02*
X92800000Y-115422023D01*
X92161360Y-112227360D02*
X94302765Y-110085955D01*
X94302765Y-110085955D02*
X94302765Y-109777938D01*
X94302765Y-109777938D02*
X94602764Y-109477939D01*
X92161360Y-114345720D02*
X92161360Y-112227360D01*
X91287600Y-115255040D02*
X91287600Y-112498464D01*
X93226921Y-110559143D02*
X93226921Y-110345797D01*
X91287600Y-112498464D02*
X93226921Y-110559143D01*
X93226921Y-110345797D02*
X93526920Y-110045798D01*
X92196920Y-116860320D02*
X91196160Y-116860320D01*
X95456329Y-109440391D02*
X92557600Y-112339120D01*
X95456329Y-109089392D02*
X95456329Y-109440391D01*
X93661518Y-115022918D02*
X93661518Y-115395722D01*
X92557600Y-113919000D02*
X93661518Y-115022918D01*
X92557600Y-112339120D02*
X92557600Y-113919000D01*
X93661518Y-115395722D02*
X92196920Y-116860320D01*
X85135720Y-112628680D02*
X88331999Y-112628680D01*
X88331999Y-112628680D02*
X90048802Y-110911877D01*
X90048802Y-110911877D02*
X90501279Y-110911877D01*
X90501279Y-110911877D02*
X90925543Y-110911877D01*
X93254122Y-109250000D02*
X93275738Y-109250000D01*
X92791481Y-108787359D02*
X93254122Y-109250000D01*
X85918040Y-111795560D02*
X88664472Y-111795560D01*
X91805559Y-108787359D02*
X92791481Y-108787359D01*
X88664472Y-111795560D02*
X91512450Y-108947582D01*
X91645336Y-108947582D02*
X91805559Y-108787359D01*
X91512450Y-108947582D02*
X91645336Y-108947582D01*
X93275738Y-109250000D02*
X93700002Y-109250000D01*
X91498700Y-108593571D02*
X91658923Y-108433348D01*
X86771480Y-110891320D02*
X89068066Y-110891320D01*
X89068066Y-110891320D02*
X91365814Y-108593571D01*
X91365814Y-108593571D02*
X91498700Y-108593571D01*
X93933281Y-108716437D02*
X94357545Y-108716437D01*
X93650192Y-108433348D02*
X93933281Y-108716437D01*
X91658923Y-108433348D02*
X93650192Y-108433348D01*
X100304829Y-108979031D02*
X100004830Y-109279030D01*
X100004830Y-109279030D02*
X100004830Y-110881110D01*
X100004830Y-110881110D02*
X100512601Y-111388881D01*
X100512601Y-111388881D02*
X100812600Y-111688880D01*
X100662749Y-109696661D02*
X102677678Y-109696661D01*
X102677678Y-109696661D02*
X102869563Y-109888546D01*
X102869563Y-109888546D02*
X103169562Y-110188545D01*
X98070201Y-108675049D02*
X98070201Y-108662496D01*
X98070201Y-108662496D02*
X98032725Y-108625020D01*
X103407783Y-109296653D02*
X103707782Y-109596652D01*
X101864259Y-108402021D02*
X102041960Y-108224320D01*
X98032725Y-108625020D02*
X98255724Y-108402021D01*
X98255724Y-108402021D02*
X101864259Y-108402021D01*
X102041960Y-108224320D02*
X102748080Y-108224320D01*
X102748080Y-108224320D02*
X103718360Y-109194600D01*
X103718360Y-109194600D02*
X103718360Y-109499400D01*
X104662999Y-115177001D02*
X101918399Y-115177001D01*
X94381599Y-112938839D02*
X94081600Y-112638840D01*
X94615279Y-113172519D02*
X94381599Y-112938839D01*
X99913917Y-113172519D02*
X94615279Y-113172519D01*
X105440000Y-114400000D02*
X104662999Y-115177001D01*
X101918399Y-115177001D02*
X99913917Y-113172519D01*
X106494977Y-115885023D02*
X101625127Y-115885023D01*
X107980000Y-114400000D02*
X106494977Y-115885023D01*
X97775000Y-116075000D02*
X97750371Y-116099629D01*
X101625127Y-115885023D02*
X100165104Y-114425000D01*
X94526184Y-113644680D02*
X94101920Y-113644680D01*
X96699629Y-116099629D02*
X96500000Y-115900000D01*
X95544680Y-113644680D02*
X94526184Y-113644680D01*
X96500000Y-115900000D02*
X96500000Y-114600000D01*
X97750371Y-116099629D02*
X96699629Y-116099629D01*
X98125000Y-114425000D02*
X97775000Y-114775000D01*
X96500000Y-114600000D02*
X95544680Y-113644680D01*
X97775000Y-114775000D02*
X97775000Y-116075000D01*
X100165104Y-114425000D02*
X98125000Y-114425000D01*
D33*
X105800000Y-106200000D02*
X108349984Y-106200000D01*
X84836110Y-108275010D02*
X89362398Y-108275010D01*
X78749930Y-109000000D02*
X84111120Y-109000000D01*
X77050000Y-109749930D02*
X78000000Y-109749930D01*
X84111120Y-109000000D02*
X84836110Y-108275010D01*
X78000000Y-109749930D02*
X78749930Y-109000000D01*
X72150000Y-106549930D02*
X74499930Y-106549930D01*
X74499930Y-106549930D02*
X74500000Y-106550000D01*
D28*
X106710000Y-114400000D02*
X105578988Y-115531012D01*
X101771763Y-115531012D02*
X100265751Y-114025000D01*
X100265751Y-114025000D02*
X97900000Y-114025000D01*
X97900000Y-114025000D02*
X97178588Y-114746412D01*
X97178588Y-115098355D02*
X97178588Y-115522619D01*
X97178588Y-114746412D02*
X97178588Y-115098355D01*
X105578988Y-115531012D02*
X101771763Y-115531012D01*
D29*
X99689920Y-118861940D02*
X98079560Y-120472300D01*
X98079560Y-120472300D02*
X98079560Y-121793000D01*
D28*
X99800000Y-117350000D02*
X99800000Y-117375000D01*
X99600000Y-117150000D02*
X99800000Y-117350000D01*
X98912834Y-115537814D02*
X98912834Y-116462834D01*
X98912834Y-116462834D02*
X99600000Y-117150000D01*
G36*
X112357168Y-110084976D02*
X111630569Y-111789481D01*
X110743938Y-113464907D01*
X109720213Y-115060277D01*
X108566596Y-116564370D01*
X107291157Y-117966667D01*
X105902847Y-119257322D01*
X104411408Y-120427277D01*
X102827303Y-121468327D01*
X101161634Y-122373175D01*
X99426115Y-123135461D01*
X97632873Y-123749856D01*
X95794510Y-124212041D01*
X93923937Y-124518773D01*
X92034230Y-124667906D01*
X90138690Y-124658388D01*
X88250601Y-124490291D01*
X86383186Y-124164789D01*
X84549554Y-123684166D01*
X82762588Y-123051801D01*
X82508069Y-122936947D01*
X84165454Y-122936947D01*
X84199970Y-123010966D01*
X84756736Y-123213612D01*
X84799495Y-123229175D01*
X84844469Y-123236098D01*
X84889928Y-123234113D01*
X84934127Y-123223298D01*
X84975367Y-123204067D01*
X85012062Y-123177161D01*
X85042804Y-123143613D01*
X85066410Y-123104711D01*
X85183284Y-122783600D01*
X85603467Y-122783600D01*
X85625227Y-123004531D01*
X85689670Y-123216971D01*
X85794320Y-123412757D01*
X85935155Y-123584365D01*
X86106763Y-123725200D01*
X86302549Y-123829850D01*
X86514989Y-123894293D01*
X86680555Y-123910600D01*
X86791285Y-123910600D01*
X86956851Y-123894293D01*
X87169291Y-123829850D01*
X87365077Y-123725200D01*
X87536685Y-123584365D01*
X87677520Y-123412757D01*
X87763302Y-123252269D01*
X90987266Y-123252269D01*
X91071364Y-123437128D01*
X91189910Y-123602028D01*
X91338349Y-123740632D01*
X91510976Y-123847614D01*
X91633265Y-123898268D01*
X91790767Y-123879860D01*
X91790767Y-123094767D01*
X92144767Y-123094767D01*
X92144767Y-123879860D01*
X92302269Y-123898268D01*
X92487128Y-123814170D01*
X92652028Y-123695624D01*
X92790632Y-123547185D01*
X92897614Y-123374558D01*
X92948268Y-123252269D01*
X92929860Y-123094767D01*
X92144767Y-123094767D01*
X91790767Y-123094767D01*
X91005674Y-123094767D01*
X90987266Y-123252269D01*
X87763302Y-123252269D01*
X87782170Y-123216971D01*
X87846613Y-123004531D01*
X87868373Y-122783600D01*
X87848642Y-122583265D01*
X90987266Y-122583265D01*
X91005674Y-122740767D01*
X91790767Y-122740767D01*
X91790767Y-121955674D01*
X91633265Y-121937266D01*
X91448406Y-122021364D01*
X91283506Y-122139910D01*
X91144902Y-122288349D01*
X91037920Y-122460976D01*
X90987266Y-122583265D01*
X87848642Y-122583265D01*
X87846613Y-122562669D01*
X87782170Y-122350229D01*
X87677520Y-122154443D01*
X87536685Y-121982835D01*
X87365077Y-121842000D01*
X87169291Y-121737350D01*
X86956851Y-121672907D01*
X86791285Y-121656600D01*
X86680555Y-121656600D01*
X86514989Y-121672907D01*
X86302549Y-121737350D01*
X86106763Y-121842000D01*
X85935155Y-121982835D01*
X85794320Y-122154443D01*
X85689670Y-122350229D01*
X85625227Y-122562669D01*
X85603467Y-122783600D01*
X85183284Y-122783600D01*
X85284619Y-122505186D01*
X85250104Y-122431167D01*
X84454889Y-122141732D01*
X84165454Y-122936947D01*
X82508069Y-122936947D01*
X81340865Y-122410237D01*
X83027872Y-122410237D01*
X83029858Y-122455697D01*
X83040673Y-122499896D01*
X83059903Y-122541136D01*
X83086810Y-122577832D01*
X83120358Y-122608573D01*
X83159260Y-122632178D01*
X83202018Y-122647741D01*
X83758784Y-122850387D01*
X83832803Y-122815872D01*
X84122238Y-122020657D01*
X83540939Y-121809081D01*
X84575964Y-121809081D01*
X85371179Y-122098516D01*
X85445198Y-122064000D01*
X85663407Y-121464474D01*
X85670330Y-121419501D01*
X85668344Y-121374041D01*
X85657529Y-121329842D01*
X85638299Y-121288602D01*
X85611392Y-121251906D01*
X85577844Y-121221165D01*
X85538942Y-121197560D01*
X85496184Y-121181997D01*
X84939418Y-120979351D01*
X84865399Y-121013866D01*
X84575964Y-121809081D01*
X83540939Y-121809081D01*
X83327023Y-121731222D01*
X83253004Y-121765738D01*
X83034795Y-122365264D01*
X83027872Y-122410237D01*
X81340865Y-122410237D01*
X81034782Y-122272115D01*
X79378301Y-121350597D01*
X79339524Y-121324552D01*
X83413583Y-121324552D01*
X83448098Y-121398571D01*
X84243313Y-121688006D01*
X84532748Y-120892791D01*
X84498232Y-120818772D01*
X83941466Y-120616126D01*
X83898707Y-120600563D01*
X83853733Y-120593640D01*
X83808274Y-120595625D01*
X83764075Y-120606440D01*
X83722835Y-120625671D01*
X83686140Y-120652577D01*
X83655398Y-120686125D01*
X83631792Y-120725027D01*
X83413583Y-121324552D01*
X79339524Y-121324552D01*
X77804724Y-120293689D01*
X76325112Y-119108818D01*
X74947868Y-117802425D01*
X74281000Y-117080319D01*
X74281000Y-113565027D01*
X74282480Y-113550000D01*
X74276572Y-113490014D01*
X74259074Y-113432332D01*
X74230660Y-113379173D01*
X74192421Y-113332579D01*
X74145827Y-113294340D01*
X74092668Y-113265926D01*
X74034986Y-113248428D01*
X73990027Y-113244000D01*
X73975000Y-113242520D01*
X73959973Y-113244000D01*
X71027579Y-113244000D01*
X70356000Y-112068739D01*
X70356000Y-111327500D01*
X71026660Y-111327500D01*
X71026660Y-111672500D01*
X71034842Y-111755577D01*
X71059075Y-111835462D01*
X71098427Y-111909084D01*
X71151386Y-111973614D01*
X71215916Y-112026573D01*
X71289538Y-112065925D01*
X71369423Y-112090158D01*
X71452500Y-112098340D01*
X71747500Y-112098340D01*
X71830577Y-112090158D01*
X71910462Y-112065925D01*
X71984084Y-112026573D01*
X72048614Y-111973614D01*
X72076840Y-111939221D01*
X72095570Y-111967254D01*
X72127746Y-111999429D01*
X72165580Y-112024709D01*
X72207619Y-112042123D01*
X72252248Y-112051000D01*
X72364750Y-112051000D01*
X72422500Y-111993250D01*
X72422500Y-111660000D01*
X72717500Y-111660000D01*
X72717500Y-111993250D01*
X72775250Y-112051000D01*
X72887752Y-112051000D01*
X72932381Y-112042123D01*
X72974420Y-112024709D01*
X73012254Y-111999429D01*
X73044430Y-111967254D01*
X73069710Y-111929419D01*
X73087123Y-111887380D01*
X73096000Y-111842751D01*
X73096000Y-111717750D01*
X73038250Y-111660000D01*
X72717500Y-111660000D01*
X72422500Y-111660000D01*
X72373000Y-111660000D01*
X72373000Y-111340000D01*
X72422500Y-111340000D01*
X72422500Y-111006750D01*
X72717500Y-111006750D01*
X72717500Y-111340000D01*
X73038250Y-111340000D01*
X73096000Y-111282250D01*
X73096000Y-111157249D01*
X73087123Y-111112620D01*
X73069710Y-111070581D01*
X73044430Y-111032746D01*
X73012254Y-111000571D01*
X72974420Y-110975291D01*
X72932381Y-110957877D01*
X72887752Y-110949000D01*
X72775250Y-110949000D01*
X72717500Y-111006750D01*
X72422500Y-111006750D01*
X72364750Y-110949000D01*
X72252248Y-110949000D01*
X72207619Y-110957877D01*
X72165580Y-110975291D01*
X72127746Y-111000571D01*
X72127000Y-111001317D01*
X72127000Y-110528270D01*
X72900000Y-110528270D01*
X72954301Y-110522922D01*
X73006516Y-110507083D01*
X73054637Y-110481361D01*
X73096816Y-110446746D01*
X73131431Y-110404567D01*
X73157153Y-110356446D01*
X73172992Y-110304231D01*
X73178340Y-110249930D01*
X73178340Y-109249930D01*
X73172992Y-109195629D01*
X73157153Y-109143414D01*
X73131431Y-109095293D01*
X73096816Y-109053114D01*
X73054637Y-109018499D01*
X73006516Y-108992777D01*
X72954301Y-108976938D01*
X72932702Y-108974811D01*
X73127304Y-108780209D01*
X73190708Y-108702951D01*
X73253572Y-108585340D01*
X73292284Y-108457725D01*
X73305355Y-108325010D01*
X73292284Y-108192295D01*
X73253572Y-108064680D01*
X73190708Y-107947069D01*
X73106107Y-107843983D01*
X73003021Y-107759382D01*
X72885410Y-107696518D01*
X72757795Y-107657806D01*
X72625080Y-107644735D01*
X72492365Y-107657806D01*
X72364750Y-107696518D01*
X72247139Y-107759382D01*
X72169881Y-107822786D01*
X71694799Y-108297869D01*
X71668974Y-108319063D01*
X71647779Y-108344889D01*
X71647776Y-108344892D01*
X71584372Y-108422150D01*
X71521508Y-108539761D01*
X71482796Y-108667376D01*
X71469726Y-108800090D01*
X71473001Y-108833344D01*
X71473001Y-108971590D01*
X71400000Y-108971590D01*
X71345699Y-108976938D01*
X71293484Y-108992777D01*
X71245363Y-109018499D01*
X71203184Y-109053114D01*
X71168569Y-109095293D01*
X71142847Y-109143414D01*
X71127008Y-109195629D01*
X71121660Y-109249930D01*
X71121660Y-110076890D01*
X71110761Y-110097281D01*
X71080626Y-110196621D01*
X71070451Y-110299930D01*
X71073001Y-110325820D01*
X71073000Y-111138486D01*
X71059075Y-111164538D01*
X71034842Y-111244423D01*
X71026660Y-111327500D01*
X70356000Y-111327500D01*
X70356000Y-106049930D01*
X71121660Y-106049930D01*
X71121660Y-107049930D01*
X71127008Y-107104231D01*
X71142847Y-107156446D01*
X71168569Y-107204567D01*
X71203184Y-107246746D01*
X71245363Y-107281361D01*
X71293484Y-107307083D01*
X71345699Y-107322922D01*
X71400000Y-107328270D01*
X72900000Y-107328270D01*
X72954301Y-107322922D01*
X73006516Y-107307083D01*
X73054637Y-107281361D01*
X73096816Y-107246746D01*
X73131431Y-107204567D01*
X73157153Y-107156446D01*
X73172992Y-107104231D01*
X73178340Y-107049930D01*
X73178340Y-106926930D01*
X74060929Y-106926930D01*
X74132184Y-106998185D01*
X74226688Y-107061331D01*
X74331695Y-107104826D01*
X74443170Y-107127000D01*
X74556830Y-107127000D01*
X74668305Y-107104826D01*
X74773312Y-107061331D01*
X74867816Y-106998185D01*
X74948185Y-106917816D01*
X75011331Y-106823312D01*
X75027332Y-106784680D01*
X76069000Y-106784680D01*
X76069000Y-107072681D01*
X76077877Y-107117310D01*
X76095290Y-107159349D01*
X76120570Y-107197184D01*
X76152746Y-107229359D01*
X76190580Y-107254639D01*
X76232619Y-107272053D01*
X76277248Y-107280930D01*
X76815250Y-107280930D01*
X76873000Y-107223180D01*
X76873000Y-106726930D01*
X77227000Y-106726930D01*
X77227000Y-107223180D01*
X77284750Y-107280930D01*
X77822752Y-107280930D01*
X77867381Y-107272053D01*
X77909420Y-107254639D01*
X77947254Y-107229359D01*
X77979430Y-107197184D01*
X78004710Y-107159349D01*
X78022123Y-107117310D01*
X78031000Y-107072681D01*
X78031000Y-106784680D01*
X77973250Y-106726930D01*
X77227000Y-106726930D01*
X76873000Y-106726930D01*
X76126750Y-106726930D01*
X76069000Y-106784680D01*
X75027332Y-106784680D01*
X75054826Y-106718305D01*
X75077000Y-106606830D01*
X75077000Y-106493170D01*
X75054826Y-106381695D01*
X75011331Y-106276688D01*
X74948185Y-106182184D01*
X74867816Y-106101815D01*
X74773312Y-106038669D01*
X74745573Y-106027179D01*
X76069000Y-106027179D01*
X76069000Y-106315180D01*
X76126750Y-106372930D01*
X76873000Y-106372930D01*
X76873000Y-105876680D01*
X77227000Y-105876680D01*
X77227000Y-106372930D01*
X77973250Y-106372930D01*
X78031000Y-106315180D01*
X78031000Y-106027179D01*
X78022123Y-105982550D01*
X78004710Y-105940511D01*
X77979430Y-105902676D01*
X77947254Y-105870501D01*
X77909420Y-105845221D01*
X77867381Y-105827807D01*
X77822752Y-105818930D01*
X77284750Y-105818930D01*
X77227000Y-105876680D01*
X76873000Y-105876680D01*
X76815250Y-105818930D01*
X76277248Y-105818930D01*
X76232619Y-105827807D01*
X76190580Y-105845221D01*
X76152746Y-105870501D01*
X76120570Y-105902676D01*
X76095290Y-105940511D01*
X76077877Y-105982550D01*
X76069000Y-106027179D01*
X74745573Y-106027179D01*
X74668305Y-105995174D01*
X74556830Y-105973000D01*
X74443170Y-105973000D01*
X74331695Y-105995174D01*
X74226688Y-106038669D01*
X74132184Y-106101815D01*
X74061069Y-106172930D01*
X73178340Y-106172930D01*
X73178340Y-106049930D01*
X73172992Y-105995629D01*
X73157153Y-105943414D01*
X73131431Y-105895293D01*
X73096816Y-105853114D01*
X73054637Y-105818499D01*
X73006516Y-105792777D01*
X72954301Y-105776938D01*
X72900000Y-105771590D01*
X71400000Y-105771590D01*
X71345699Y-105776938D01*
X71293484Y-105792777D01*
X71245363Y-105818499D01*
X71203184Y-105853114D01*
X71168569Y-105895293D01*
X71142847Y-105943414D01*
X71127008Y-105995629D01*
X71121660Y-106049930D01*
X70356000Y-106049930D01*
X70356000Y-105306000D01*
X79994000Y-105306000D01*
X79994001Y-107634963D01*
X79992520Y-107650000D01*
X79998428Y-107709986D01*
X80015926Y-107767668D01*
X80044340Y-107820827D01*
X80082579Y-107867421D01*
X80129173Y-107905660D01*
X80182332Y-107934074D01*
X80240014Y-107951572D01*
X80284973Y-107956000D01*
X80300000Y-107957480D01*
X80315027Y-107956000D01*
X84633185Y-107956000D01*
X84625647Y-107960029D01*
X84568241Y-108007141D01*
X84556438Y-108021523D01*
X83954962Y-108623000D01*
X78768438Y-108623000D01*
X78749929Y-108621177D01*
X78731420Y-108623000D01*
X78731411Y-108623000D01*
X78676025Y-108628455D01*
X78604960Y-108650012D01*
X78539467Y-108685019D01*
X78529954Y-108692826D01*
X78499325Y-108717963D01*
X78482061Y-108732131D01*
X78470258Y-108746513D01*
X78060924Y-109155847D01*
X78057153Y-109143414D01*
X78031431Y-109095293D01*
X77996816Y-109053114D01*
X77954637Y-109018499D01*
X77906516Y-108992777D01*
X77854301Y-108976938D01*
X77800000Y-108971590D01*
X76300000Y-108971590D01*
X76245699Y-108976938D01*
X76193484Y-108992777D01*
X76145363Y-109018499D01*
X76103184Y-109053114D01*
X76068569Y-109095293D01*
X76042847Y-109143414D01*
X76027008Y-109195629D01*
X76021660Y-109249930D01*
X76021660Y-110249930D01*
X76027008Y-110304231D01*
X76042847Y-110356446D01*
X76068569Y-110404567D01*
X76103184Y-110446746D01*
X76145363Y-110481361D01*
X76193484Y-110507083D01*
X76245699Y-110522922D01*
X76300000Y-110528270D01*
X77800000Y-110528270D01*
X77854301Y-110522922D01*
X77906516Y-110507083D01*
X77954637Y-110481361D01*
X77996816Y-110446746D01*
X78031431Y-110404567D01*
X78057153Y-110356446D01*
X78072992Y-110304231D01*
X78078340Y-110249930D01*
X78078340Y-110120130D01*
X78144970Y-110099918D01*
X78210463Y-110064911D01*
X78267869Y-110017799D01*
X78279677Y-110003411D01*
X78906089Y-109377000D01*
X79199439Y-109377000D01*
X79099235Y-109459235D01*
X78958400Y-109630843D01*
X78853750Y-109826629D01*
X78789307Y-110039069D01*
X78767547Y-110260000D01*
X78789307Y-110480931D01*
X78853750Y-110693371D01*
X78958400Y-110889157D01*
X79099235Y-111060765D01*
X79270843Y-111201600D01*
X79353911Y-111246001D01*
X76667373Y-111246001D01*
X76649999Y-111244290D01*
X76632625Y-111246001D01*
X76632617Y-111246001D01*
X76580603Y-111251124D01*
X76513874Y-111271366D01*
X76452376Y-111304237D01*
X76425088Y-111326632D01*
X76406830Y-111323000D01*
X76293170Y-111323000D01*
X76181695Y-111345174D01*
X76076688Y-111388669D01*
X75982184Y-111451815D01*
X75901815Y-111532184D01*
X75838669Y-111626688D01*
X75795174Y-111731695D01*
X75773000Y-111843170D01*
X75773000Y-111956830D01*
X75795174Y-112068305D01*
X75838669Y-112173312D01*
X75901815Y-112267816D01*
X75982184Y-112348185D01*
X76076688Y-112411331D01*
X76181695Y-112454826D01*
X76293170Y-112477000D01*
X76406830Y-112477000D01*
X76518305Y-112454826D01*
X76623312Y-112411331D01*
X76717816Y-112348185D01*
X76798185Y-112267816D01*
X76861331Y-112173312D01*
X76904826Y-112068305D01*
X76927000Y-111956830D01*
X76927000Y-111954001D01*
X78771660Y-111954001D01*
X78771660Y-113650000D01*
X78777008Y-113704301D01*
X78792847Y-113756516D01*
X78818569Y-113804637D01*
X78853184Y-113846816D01*
X78895363Y-113881431D01*
X78943484Y-113907153D01*
X78995699Y-113922992D01*
X79050000Y-113928340D01*
X79423000Y-113928340D01*
X79423001Y-116650379D01*
X79420694Y-116673804D01*
X79429903Y-116767311D01*
X79457178Y-116857226D01*
X79465864Y-116873476D01*
X79501472Y-116940093D01*
X79516014Y-116957812D01*
X79545237Y-116993420D01*
X79561080Y-117012725D01*
X79579271Y-117027654D01*
X81362305Y-118810689D01*
X81377237Y-118828883D01*
X81395428Y-118843812D01*
X81395430Y-118843814D01*
X81407097Y-118853389D01*
X81449869Y-118888491D01*
X81532735Y-118932784D01*
X81622650Y-118960059D01*
X81692735Y-118966962D01*
X81692742Y-118966962D01*
X81716157Y-118969268D01*
X81739572Y-118966962D01*
X87132385Y-118966962D01*
X88314768Y-120149346D01*
X88329698Y-120167538D01*
X88347889Y-120182467D01*
X88347891Y-120182469D01*
X88359667Y-120192133D01*
X88402330Y-120227146D01*
X88485196Y-120271439D01*
X88575111Y-120298714D01*
X88645196Y-120305617D01*
X88645203Y-120305617D01*
X88668618Y-120307923D01*
X88692033Y-120305617D01*
X89519380Y-120305617D01*
X88871813Y-120953184D01*
X88837198Y-120995363D01*
X88811476Y-121043484D01*
X88795637Y-121095699D01*
X88790289Y-121150000D01*
X88795637Y-121204301D01*
X88811476Y-121256516D01*
X88837198Y-121304637D01*
X88871813Y-121346816D01*
X90003184Y-122478187D01*
X90045363Y-122512802D01*
X90093484Y-122538524D01*
X90145699Y-122554363D01*
X90200000Y-122559711D01*
X90254301Y-122554363D01*
X90306516Y-122538524D01*
X90354637Y-122512802D01*
X90396816Y-122478187D01*
X91441872Y-121433131D01*
X91904032Y-121895292D01*
X91918959Y-121913481D01*
X91937148Y-121928408D01*
X91937152Y-121928412D01*
X91991591Y-121973088D01*
X92074457Y-122017382D01*
X92144767Y-122038710D01*
X92144767Y-122740767D01*
X92929860Y-122740767D01*
X92948268Y-122583265D01*
X92864170Y-122398406D01*
X92745624Y-122233506D01*
X92597185Y-122094902D01*
X92457837Y-122008544D01*
X92516847Y-121977001D01*
X94473774Y-121977001D01*
X94513667Y-122073312D01*
X94576813Y-122167816D01*
X94657182Y-122248185D01*
X94751686Y-122311331D01*
X94856693Y-122354826D01*
X94968168Y-122377000D01*
X95081828Y-122377000D01*
X95193303Y-122354826D01*
X95298310Y-122311331D01*
X95392814Y-122248185D01*
X95473183Y-122167816D01*
X95536329Y-122073312D01*
X95579824Y-121968305D01*
X95601998Y-121856830D01*
X95601998Y-121743170D01*
X95579824Y-121631695D01*
X95536329Y-121526688D01*
X95473183Y-121432184D01*
X95392814Y-121351815D01*
X95298310Y-121288669D01*
X95193303Y-121245174D01*
X95132695Y-121233118D01*
X95103084Y-121203507D01*
X96123532Y-121203507D01*
X96126506Y-121257990D01*
X96140053Y-121310846D01*
X96824094Y-123190231D01*
X96847692Y-123239428D01*
X96880434Y-123283077D01*
X96921063Y-123319499D01*
X96968017Y-123347295D01*
X97019491Y-123365396D01*
X97073507Y-123373108D01*
X97127990Y-123370134D01*
X97180846Y-123356587D01*
X99060231Y-122672546D01*
X99109428Y-122648948D01*
X99153077Y-122616206D01*
X99189499Y-122575577D01*
X99217295Y-122528623D01*
X99235396Y-122477149D01*
X99243108Y-122423133D01*
X99240134Y-122368650D01*
X99226587Y-122315794D01*
X98643444Y-120713623D01*
X98773000Y-120713623D01*
X98773000Y-120886377D01*
X98806703Y-121055811D01*
X98872813Y-121215415D01*
X98968790Y-121359055D01*
X99090945Y-121481210D01*
X99234585Y-121577187D01*
X99394189Y-121643297D01*
X99563623Y-121677000D01*
X99736377Y-121677000D01*
X99905811Y-121643297D01*
X100065415Y-121577187D01*
X100209055Y-121481210D01*
X100331210Y-121359055D01*
X100427187Y-121215415D01*
X100493297Y-121055811D01*
X100527000Y-120886377D01*
X100527000Y-120713623D01*
X101273000Y-120713623D01*
X101273000Y-120886377D01*
X101306703Y-121055811D01*
X101372813Y-121215415D01*
X101468790Y-121359055D01*
X101590945Y-121481210D01*
X101734585Y-121577187D01*
X101894189Y-121643297D01*
X102063623Y-121677000D01*
X102236377Y-121677000D01*
X102405811Y-121643297D01*
X102565415Y-121577187D01*
X102709055Y-121481210D01*
X102831210Y-121359055D01*
X102927187Y-121215415D01*
X102993297Y-121055811D01*
X103027000Y-120886377D01*
X103027000Y-120713623D01*
X102993297Y-120544189D01*
X102927187Y-120384585D01*
X102831210Y-120240945D01*
X102709055Y-120118790D01*
X102565415Y-120022813D01*
X102405811Y-119956703D01*
X102236377Y-119923000D01*
X102063623Y-119923000D01*
X101894189Y-119956703D01*
X101734585Y-120022813D01*
X101590945Y-120118790D01*
X101468790Y-120240945D01*
X101372813Y-120384585D01*
X101306703Y-120544189D01*
X101273000Y-120713623D01*
X100527000Y-120713623D01*
X100493297Y-120544189D01*
X100427187Y-120384585D01*
X100331210Y-120240945D01*
X100209055Y-120118790D01*
X100065415Y-120022813D01*
X99905811Y-119956703D01*
X99736377Y-119923000D01*
X99563623Y-119923000D01*
X99394189Y-119956703D01*
X99234585Y-120022813D01*
X99090945Y-120118790D01*
X98968790Y-120240945D01*
X98872813Y-120384585D01*
X98806703Y-120544189D01*
X98773000Y-120713623D01*
X98643444Y-120713623D01*
X98589717Y-120566011D01*
X99577949Y-119577780D01*
X99946170Y-119577780D01*
X100043147Y-119568229D01*
X100136398Y-119539941D01*
X100222338Y-119494005D01*
X100297666Y-119432186D01*
X100359485Y-119356858D01*
X100405421Y-119270918D01*
X100433709Y-119177667D01*
X100443260Y-119080690D01*
X100443260Y-118643190D01*
X100433709Y-118546213D01*
X100405421Y-118452962D01*
X100359485Y-118367022D01*
X100297666Y-118291694D01*
X100222338Y-118229875D01*
X100136398Y-118183939D01*
X100071913Y-118164377D01*
X103273000Y-118164377D01*
X103273000Y-118435623D01*
X103325917Y-118701656D01*
X103429718Y-118952254D01*
X103580414Y-119177787D01*
X103772213Y-119369586D01*
X103997746Y-119520282D01*
X104248344Y-119624083D01*
X104514377Y-119677000D01*
X104785623Y-119677000D01*
X105051656Y-119624083D01*
X105302254Y-119520282D01*
X105527787Y-119369586D01*
X105719586Y-119177787D01*
X105870282Y-118952254D01*
X105974083Y-118701656D01*
X106027000Y-118435623D01*
X106027000Y-118164377D01*
X105974083Y-117898344D01*
X105870282Y-117647746D01*
X105719586Y-117422213D01*
X105527787Y-117230414D01*
X105302254Y-117079718D01*
X105051656Y-116975917D01*
X104785623Y-116923000D01*
X104514377Y-116923000D01*
X104248344Y-116975917D01*
X103997746Y-117079718D01*
X103772213Y-117230414D01*
X103580414Y-117422213D01*
X103429718Y-117647746D01*
X103325917Y-117898344D01*
X103273000Y-118164377D01*
X100071913Y-118164377D01*
X100043147Y-118155651D01*
X99946170Y-118146100D01*
X99433670Y-118146100D01*
X99336693Y-118155651D01*
X99243442Y-118183939D01*
X99157502Y-118229875D01*
X99082174Y-118291694D01*
X99020355Y-118367022D01*
X98974419Y-118452962D01*
X98946131Y-118546213D01*
X98936580Y-118643190D01*
X98936580Y-119011411D01*
X97792460Y-120155532D01*
X97776165Y-120168905D01*
X97762793Y-120185199D01*
X97762792Y-120185200D01*
X97722805Y-120233924D01*
X97708203Y-120261244D01*
X97683155Y-120308105D01*
X97658738Y-120388594D01*
X97652560Y-120451323D01*
X97652560Y-120451333D01*
X97651252Y-120464610D01*
X96306409Y-120954094D01*
X96257212Y-120977692D01*
X96213563Y-121010434D01*
X96177141Y-121051063D01*
X96149345Y-121098017D01*
X96131244Y-121149491D01*
X96123532Y-121203507D01*
X95103084Y-121203507D01*
X95078854Y-121179277D01*
X95063920Y-121161080D01*
X94991288Y-121101472D01*
X94908422Y-121057179D01*
X94818507Y-121029904D01*
X94748422Y-121023001D01*
X94748414Y-121023001D01*
X94724999Y-121020695D01*
X94701584Y-121023001D01*
X92380901Y-121023001D01*
X92180916Y-120823017D01*
X92174203Y-120800886D01*
X92129910Y-120718020D01*
X92070302Y-120645388D01*
X92052110Y-120630458D01*
X90719546Y-119297895D01*
X90704612Y-119279698D01*
X90701422Y-119277080D01*
X93773000Y-119277080D01*
X93773000Y-119464517D01*
X93745174Y-119531695D01*
X93723000Y-119643170D01*
X93723000Y-119756830D01*
X93745174Y-119868305D01*
X93788669Y-119973312D01*
X93851815Y-120067816D01*
X93932184Y-120148185D01*
X94026688Y-120211331D01*
X94131695Y-120254826D01*
X94243170Y-120277000D01*
X94356830Y-120277000D01*
X94468305Y-120254826D01*
X94573312Y-120211331D01*
X94667816Y-120148185D01*
X94748185Y-120067816D01*
X94811331Y-119973312D01*
X94854826Y-119868305D01*
X94877000Y-119756830D01*
X94877000Y-119643170D01*
X94854826Y-119531695D01*
X94827000Y-119464517D01*
X94827000Y-119321338D01*
X96378978Y-119321338D01*
X96513983Y-119476532D01*
X96755734Y-119578006D01*
X97012637Y-119630367D01*
X97274818Y-119631603D01*
X97532202Y-119581666D01*
X97774899Y-119482475D01*
X97786017Y-119476532D01*
X97921022Y-119321338D01*
X97150000Y-118550316D01*
X96378978Y-119321338D01*
X94827000Y-119321338D01*
X94827000Y-118983649D01*
X95863566Y-117947084D01*
X95819633Y-118162637D01*
X95818397Y-118424818D01*
X95868334Y-118682202D01*
X95967525Y-118924899D01*
X95973468Y-118936017D01*
X96128662Y-119071022D01*
X96899684Y-118300000D01*
X96885542Y-118285858D01*
X97135858Y-118035542D01*
X97150000Y-118049684D01*
X97164142Y-118035542D01*
X97414458Y-118285858D01*
X97400316Y-118300000D01*
X98171338Y-119071022D01*
X98326532Y-118936017D01*
X98428006Y-118694266D01*
X98480367Y-118437363D01*
X98481603Y-118175182D01*
X98431666Y-117917798D01*
X98332475Y-117675101D01*
X98326532Y-117663983D01*
X98171339Y-117528979D01*
X98192159Y-117508160D01*
X98232184Y-117548185D01*
X98326688Y-117611331D01*
X98431695Y-117654826D01*
X98543170Y-117677000D01*
X98656830Y-117677000D01*
X98768305Y-117654826D01*
X98873312Y-117611331D01*
X98942435Y-117565144D01*
X98946131Y-117602667D01*
X98974419Y-117695918D01*
X99020355Y-117781858D01*
X99082174Y-117857186D01*
X99157502Y-117919005D01*
X99243442Y-117964941D01*
X99336693Y-117993229D01*
X99433670Y-118002780D01*
X99946170Y-118002780D01*
X100043147Y-117993229D01*
X100136398Y-117964941D01*
X100222338Y-117919005D01*
X100297666Y-117857186D01*
X100359485Y-117781858D01*
X100405421Y-117695918D01*
X100433709Y-117602667D01*
X100443260Y-117505690D01*
X100443260Y-117068190D01*
X100433709Y-116971213D01*
X100405421Y-116877962D01*
X100359485Y-116792022D01*
X100297666Y-116716694D01*
X100222338Y-116654875D01*
X100136398Y-116608939D01*
X100043147Y-116580651D01*
X99946170Y-116571100D01*
X99521731Y-116571100D01*
X99266834Y-116316204D01*
X99266834Y-115995231D01*
X99280650Y-115985999D01*
X99361019Y-115905630D01*
X99424165Y-115811126D01*
X99467660Y-115706119D01*
X99489834Y-115594644D01*
X99489834Y-115519529D01*
X99525337Y-115555032D01*
X99619841Y-115618178D01*
X99724848Y-115661673D01*
X99836323Y-115683847D01*
X99866285Y-115683847D01*
X100934436Y-116752000D01*
X100957467Y-116786468D01*
X101037836Y-116866837D01*
X101071210Y-116889137D01*
X101082911Y-116903395D01*
X101099195Y-116916759D01*
X101099204Y-116916768D01*
X101147929Y-116956755D01*
X101179774Y-116973776D01*
X101222110Y-116996405D01*
X101302599Y-117020822D01*
X101386306Y-117029066D01*
X101407283Y-117027000D01*
X102626015Y-117027000D01*
X102647200Y-117048185D01*
X102741704Y-117111331D01*
X102846711Y-117154826D01*
X102958186Y-117177000D01*
X103071846Y-117177000D01*
X103183321Y-117154826D01*
X103288328Y-117111331D01*
X103382832Y-117048185D01*
X103463201Y-116967816D01*
X103526347Y-116873312D01*
X103569842Y-116768305D01*
X103592016Y-116656830D01*
X103592016Y-116543170D01*
X103569842Y-116431695D01*
X103526347Y-116326688D01*
X103467771Y-116239023D01*
X106477603Y-116239023D01*
X106494977Y-116240734D01*
X106512351Y-116239023D01*
X106512359Y-116239023D01*
X106564373Y-116233900D01*
X106631102Y-116213658D01*
X106692600Y-116180787D01*
X106746503Y-116136549D01*
X106757589Y-116123041D01*
X107703631Y-115177000D01*
X107758166Y-115177000D01*
X107872319Y-115165757D01*
X108018784Y-115121327D01*
X108153766Y-115049177D01*
X108272080Y-114952080D01*
X108369177Y-114833766D01*
X108383420Y-114807119D01*
X108385839Y-114811548D01*
X108477737Y-114921506D01*
X108589321Y-115011423D01*
X108704228Y-115072826D01*
X108813000Y-115049566D01*
X108813000Y-114577000D01*
X109167000Y-114577000D01*
X109167000Y-115049566D01*
X109275772Y-115072826D01*
X109390679Y-115011423D01*
X109502263Y-114921506D01*
X109594161Y-114811548D01*
X109662841Y-114685774D01*
X109641512Y-114577000D01*
X109167000Y-114577000D01*
X108813000Y-114577000D01*
X108793000Y-114577000D01*
X108793000Y-114223000D01*
X108813000Y-114223000D01*
X108813000Y-113750434D01*
X109167000Y-113750434D01*
X109167000Y-114223000D01*
X109641512Y-114223000D01*
X109662841Y-114114226D01*
X109594161Y-113988452D01*
X109502263Y-113878494D01*
X109390679Y-113788577D01*
X109275772Y-113727174D01*
X109167000Y-113750434D01*
X108813000Y-113750434D01*
X108704228Y-113727174D01*
X108589321Y-113788577D01*
X108477737Y-113878494D01*
X108385839Y-113988452D01*
X108383420Y-113992881D01*
X108369177Y-113966234D01*
X108272080Y-113847920D01*
X108153766Y-113750823D01*
X108018784Y-113678673D01*
X107872319Y-113634243D01*
X107758166Y-113623000D01*
X107681834Y-113623000D01*
X107567681Y-113634243D01*
X107421216Y-113678673D01*
X107286234Y-113750823D01*
X107167920Y-113847920D01*
X107085000Y-113948959D01*
X107002080Y-113847920D01*
X106883766Y-113750823D01*
X106748784Y-113678673D01*
X106602319Y-113634243D01*
X106488166Y-113623000D01*
X106411834Y-113623000D01*
X106297681Y-113634243D01*
X106151216Y-113678673D01*
X106016234Y-113750823D01*
X105897920Y-113847920D01*
X105815000Y-113948959D01*
X105732080Y-113847920D01*
X105613766Y-113750823D01*
X105478784Y-113678673D01*
X105332319Y-113634243D01*
X105218166Y-113623000D01*
X105141834Y-113623000D01*
X105027681Y-113634243D01*
X104881216Y-113678673D01*
X104746234Y-113750823D01*
X104627920Y-113847920D01*
X104545000Y-113948959D01*
X104462080Y-113847920D01*
X104343766Y-113750823D01*
X104208784Y-113678673D01*
X104062319Y-113634243D01*
X103948166Y-113623000D01*
X103893630Y-113623000D01*
X103636622Y-113365992D01*
X103625536Y-113352484D01*
X103571633Y-113308246D01*
X103510135Y-113275375D01*
X103443406Y-113255133D01*
X103391392Y-113250010D01*
X103391384Y-113250010D01*
X103374010Y-113248299D01*
X103356636Y-113250010D01*
X103305569Y-113250010D01*
X103373977Y-113193418D01*
X103512869Y-113023119D01*
X103616039Y-112829085D01*
X103679556Y-112618708D01*
X103701000Y-112400000D01*
X103700561Y-112368560D01*
X103693866Y-112315562D01*
X103794540Y-112416236D01*
X103805621Y-112429738D01*
X103859524Y-112473976D01*
X103887625Y-112488996D01*
X103921021Y-112506847D01*
X103987750Y-112527089D01*
X103993970Y-112527702D01*
X104039765Y-112532212D01*
X104039772Y-112532212D01*
X104057147Y-112533923D01*
X104074521Y-112532212D01*
X104443056Y-112532212D01*
X104414207Y-112601859D01*
X104392033Y-112713334D01*
X104392033Y-112826994D01*
X104414207Y-112938469D01*
X104457702Y-113043476D01*
X104520848Y-113137980D01*
X104601217Y-113218349D01*
X104695721Y-113281495D01*
X104800728Y-113324990D01*
X104912203Y-113347164D01*
X105025863Y-113347164D01*
X105137338Y-113324990D01*
X105242345Y-113281495D01*
X105336849Y-113218349D01*
X105417218Y-113137980D01*
X105480364Y-113043476D01*
X105523859Y-112938469D01*
X105546033Y-112826994D01*
X105546033Y-112713334D01*
X105523859Y-112601859D01*
X105495010Y-112532212D01*
X105585293Y-112532212D01*
X105596815Y-112549456D01*
X105677184Y-112629825D01*
X105771688Y-112692971D01*
X105876695Y-112736466D01*
X105988170Y-112758640D01*
X106101830Y-112758640D01*
X106213305Y-112736466D01*
X106318312Y-112692971D01*
X106412816Y-112629825D01*
X106493185Y-112549456D01*
X106556331Y-112454952D01*
X106597314Y-112356010D01*
X107619496Y-112356010D01*
X107636870Y-112357721D01*
X107654244Y-112356010D01*
X107654252Y-112356010D01*
X107706266Y-112350887D01*
X107772995Y-112330645D01*
X107834493Y-112297774D01*
X107888396Y-112253536D01*
X107899482Y-112240028D01*
X109961171Y-110178340D01*
X111450000Y-110178340D01*
X111504301Y-110172992D01*
X111556516Y-110157153D01*
X111604637Y-110131431D01*
X111646816Y-110096816D01*
X111681431Y-110054637D01*
X111707153Y-110006516D01*
X111722992Y-109954301D01*
X111728340Y-109900000D01*
X111728340Y-108900000D01*
X111722992Y-108845699D01*
X111707153Y-108793484D01*
X111681431Y-108745363D01*
X111646816Y-108703184D01*
X111604637Y-108668569D01*
X111556516Y-108642847D01*
X111504301Y-108627008D01*
X111450000Y-108621660D01*
X109950000Y-108621660D01*
X109895699Y-108627008D01*
X109843484Y-108642847D01*
X109795363Y-108668569D01*
X109753184Y-108703184D01*
X109718569Y-108745363D01*
X109692847Y-108793484D01*
X109677008Y-108845699D01*
X109671660Y-108900000D01*
X109671660Y-109466589D01*
X107490240Y-111648010D01*
X107297720Y-111648010D01*
X107302123Y-111637380D01*
X107311000Y-111592751D01*
X107311000Y-111467750D01*
X107253250Y-111410000D01*
X106932500Y-111410000D01*
X106932500Y-111447000D01*
X106637500Y-111447000D01*
X106637500Y-111410000D01*
X106588000Y-111410000D01*
X106588000Y-111090000D01*
X106637500Y-111090000D01*
X106637500Y-110756750D01*
X106932500Y-110756750D01*
X106932500Y-111090000D01*
X107253250Y-111090000D01*
X107311000Y-111032250D01*
X107311000Y-110907249D01*
X107302123Y-110862620D01*
X107284710Y-110820581D01*
X107259430Y-110782746D01*
X107227254Y-110750571D01*
X107189420Y-110725291D01*
X107147381Y-110707877D01*
X107102752Y-110699000D01*
X106990250Y-110699000D01*
X106932500Y-110756750D01*
X106637500Y-110756750D01*
X106579750Y-110699000D01*
X106467248Y-110699000D01*
X106422619Y-110707877D01*
X106380580Y-110725291D01*
X106342746Y-110750571D01*
X106310570Y-110782746D01*
X106292000Y-110810539D01*
X106292000Y-110178340D01*
X106550000Y-110178340D01*
X106604301Y-110172992D01*
X106656516Y-110157153D01*
X106704637Y-110131431D01*
X106746816Y-110096816D01*
X106781431Y-110054637D01*
X106807153Y-110006516D01*
X106822992Y-109954301D01*
X106828340Y-109900000D01*
X106828340Y-108996239D01*
X107607698Y-108216882D01*
X107668305Y-108204826D01*
X107773312Y-108161331D01*
X107867816Y-108098185D01*
X107948185Y-108017816D01*
X108011331Y-107923312D01*
X108054826Y-107818305D01*
X108077000Y-107706830D01*
X108077000Y-107593170D01*
X108054826Y-107481695D01*
X108011331Y-107376688D01*
X107948185Y-107282184D01*
X107867816Y-107201815D01*
X107773312Y-107138669D01*
X107668305Y-107095174D01*
X107556830Y-107073000D01*
X107443170Y-107073000D01*
X107331695Y-107095174D01*
X107226688Y-107138669D01*
X107132184Y-107201815D01*
X107051815Y-107282184D01*
X106988669Y-107376688D01*
X106945174Y-107481695D01*
X106933118Y-107542302D01*
X105853761Y-108621660D01*
X105050000Y-108621660D01*
X104995699Y-108627008D01*
X104943484Y-108642847D01*
X104895363Y-108668569D01*
X104853184Y-108703184D01*
X104818569Y-108745363D01*
X104792847Y-108793484D01*
X104777008Y-108845699D01*
X104771660Y-108900000D01*
X104771660Y-109900000D01*
X104777008Y-109954301D01*
X104792847Y-110006516D01*
X104818569Y-110054637D01*
X104853184Y-110096816D01*
X104895363Y-110131431D01*
X104943484Y-110157153D01*
X104995699Y-110172992D01*
X105050000Y-110178340D01*
X105338001Y-110178340D01*
X105338000Y-110810974D01*
X105313427Y-110840916D01*
X105274075Y-110914538D01*
X105249842Y-110994423D01*
X105241660Y-111077500D01*
X105241660Y-111422500D01*
X105249842Y-111505577D01*
X105274075Y-111585462D01*
X105313427Y-111659084D01*
X105366386Y-111723614D01*
X105430916Y-111776573D01*
X105504538Y-111815925D01*
X105531856Y-111824212D01*
X104203778Y-111824212D01*
X103777034Y-111397469D01*
X103833770Y-111386183D01*
X103938777Y-111342688D01*
X104033281Y-111279542D01*
X104113650Y-111199173D01*
X104176796Y-111104669D01*
X104220291Y-110999662D01*
X104242465Y-110888187D01*
X104242465Y-110788100D01*
X104249474Y-110779560D01*
X104280444Y-110741822D01*
X104289281Y-110725291D01*
X104315452Y-110676328D01*
X104319479Y-110663052D01*
X104337009Y-110605264D01*
X104344288Y-110531358D01*
X104342464Y-110512839D01*
X104342464Y-110430532D01*
X104561270Y-110211726D01*
X104575653Y-110199923D01*
X104590426Y-110181923D01*
X104622765Y-110142517D01*
X104657772Y-110077024D01*
X104679329Y-110005960D01*
X104686608Y-109932054D01*
X104684784Y-109913535D01*
X104684784Y-109183807D01*
X104686607Y-109165298D01*
X104684784Y-109146789D01*
X104684784Y-109146780D01*
X104679329Y-109091394D01*
X104657772Y-109020329D01*
X104622765Y-108954836D01*
X104575653Y-108897430D01*
X104561266Y-108885623D01*
X102878624Y-107202981D01*
X102866816Y-107188593D01*
X102809410Y-107141481D01*
X102743917Y-107106474D01*
X102672852Y-107084917D01*
X102617466Y-107079462D01*
X102617459Y-107079462D01*
X102613272Y-107079050D01*
X102542499Y-107008277D01*
X102447995Y-106945131D01*
X102342988Y-106901636D01*
X102231513Y-106879462D01*
X102117853Y-106879462D01*
X102006378Y-106901636D01*
X101901371Y-106945131D01*
X101806867Y-107008277D01*
X101726498Y-107088646D01*
X101663352Y-107183150D01*
X101619857Y-107288157D01*
X101597683Y-107399632D01*
X101597683Y-107500303D01*
X101449977Y-107648010D01*
X100746351Y-107648010D01*
X103213830Y-105700000D01*
X104771660Y-105700000D01*
X104771660Y-106700000D01*
X104777008Y-106754301D01*
X104792847Y-106806516D01*
X104818569Y-106854637D01*
X104853184Y-106896816D01*
X104895363Y-106931431D01*
X104943484Y-106957153D01*
X104995699Y-106972992D01*
X105050000Y-106978340D01*
X106550000Y-106978340D01*
X106604301Y-106972992D01*
X106656516Y-106957153D01*
X106704637Y-106931431D01*
X106746816Y-106896816D01*
X106781431Y-106854637D01*
X106807153Y-106806516D01*
X106822992Y-106754301D01*
X106828340Y-106700000D01*
X106828340Y-106577000D01*
X107910983Y-106577000D01*
X107982168Y-106648185D01*
X108076672Y-106711331D01*
X108181679Y-106754826D01*
X108293154Y-106777000D01*
X108406814Y-106777000D01*
X108518289Y-106754826D01*
X108623296Y-106711331D01*
X108717800Y-106648185D01*
X108798169Y-106567816D01*
X108861315Y-106473312D01*
X108877287Y-106434750D01*
X109719000Y-106434750D01*
X109719000Y-106722751D01*
X109727877Y-106767380D01*
X109745290Y-106809419D01*
X109770570Y-106847254D01*
X109802746Y-106879429D01*
X109840580Y-106904709D01*
X109882619Y-106922123D01*
X109927248Y-106931000D01*
X110465250Y-106931000D01*
X110523000Y-106873250D01*
X110523000Y-106377000D01*
X110877000Y-106377000D01*
X110877000Y-106873250D01*
X110934750Y-106931000D01*
X111472752Y-106931000D01*
X111517381Y-106922123D01*
X111559420Y-106904709D01*
X111597254Y-106879429D01*
X111629430Y-106847254D01*
X111654710Y-106809419D01*
X111672123Y-106767380D01*
X111681000Y-106722751D01*
X111681000Y-106434750D01*
X111623250Y-106377000D01*
X110877000Y-106377000D01*
X110523000Y-106377000D01*
X109776750Y-106377000D01*
X109719000Y-106434750D01*
X108877287Y-106434750D01*
X108904810Y-106368305D01*
X108926984Y-106256830D01*
X108926984Y-106143170D01*
X108904810Y-106031695D01*
X108861315Y-105926688D01*
X108798169Y-105832184D01*
X108717800Y-105751815D01*
X108623296Y-105688669D01*
X108595726Y-105677249D01*
X109719000Y-105677249D01*
X109719000Y-105965250D01*
X109776750Y-106023000D01*
X110523000Y-106023000D01*
X110523000Y-105526750D01*
X110877000Y-105526750D01*
X110877000Y-106023000D01*
X111623250Y-106023000D01*
X111681000Y-105965250D01*
X111681000Y-105677249D01*
X111672123Y-105632620D01*
X111654710Y-105590581D01*
X111629430Y-105552746D01*
X111597254Y-105520571D01*
X111559420Y-105495291D01*
X111517381Y-105477877D01*
X111472752Y-105469000D01*
X110934750Y-105469000D01*
X110877000Y-105526750D01*
X110523000Y-105526750D01*
X110465250Y-105469000D01*
X109927248Y-105469000D01*
X109882619Y-105477877D01*
X109840580Y-105495291D01*
X109802746Y-105520571D01*
X109770570Y-105552746D01*
X109745290Y-105590581D01*
X109727877Y-105632620D01*
X109719000Y-105677249D01*
X108595726Y-105677249D01*
X108518289Y-105645174D01*
X108406814Y-105623000D01*
X108293154Y-105623000D01*
X108181679Y-105645174D01*
X108076672Y-105688669D01*
X107982168Y-105751815D01*
X107910983Y-105823000D01*
X106828340Y-105823000D01*
X106828340Y-105700000D01*
X106822992Y-105645699D01*
X106807153Y-105593484D01*
X106781431Y-105545363D01*
X106746816Y-105503184D01*
X106704637Y-105468569D01*
X106656516Y-105442847D01*
X106604301Y-105427008D01*
X106550000Y-105421660D01*
X105050000Y-105421660D01*
X104995699Y-105427008D01*
X104943484Y-105442847D01*
X104895363Y-105468569D01*
X104853184Y-105503184D01*
X104818569Y-105545363D01*
X104792847Y-105593484D01*
X104777008Y-105645699D01*
X104771660Y-105700000D01*
X103213830Y-105700000D01*
X104156231Y-104956000D01*
X112368334Y-104956000D01*
X112357168Y-110084976D01*
X112357168Y-110084976D01*
G37*
X112357168Y-110084976D02*
X111630569Y-111789481D01*
X110743938Y-113464907D01*
X109720213Y-115060277D01*
X108566596Y-116564370D01*
X107291157Y-117966667D01*
X105902847Y-119257322D01*
X104411408Y-120427277D01*
X102827303Y-121468327D01*
X101161634Y-122373175D01*
X99426115Y-123135461D01*
X97632873Y-123749856D01*
X95794510Y-124212041D01*
X93923937Y-124518773D01*
X92034230Y-124667906D01*
X90138690Y-124658388D01*
X88250601Y-124490291D01*
X86383186Y-124164789D01*
X84549554Y-123684166D01*
X82762588Y-123051801D01*
X82508069Y-122936947D01*
X84165454Y-122936947D01*
X84199970Y-123010966D01*
X84756736Y-123213612D01*
X84799495Y-123229175D01*
X84844469Y-123236098D01*
X84889928Y-123234113D01*
X84934127Y-123223298D01*
X84975367Y-123204067D01*
X85012062Y-123177161D01*
X85042804Y-123143613D01*
X85066410Y-123104711D01*
X85183284Y-122783600D01*
X85603467Y-122783600D01*
X85625227Y-123004531D01*
X85689670Y-123216971D01*
X85794320Y-123412757D01*
X85935155Y-123584365D01*
X86106763Y-123725200D01*
X86302549Y-123829850D01*
X86514989Y-123894293D01*
X86680555Y-123910600D01*
X86791285Y-123910600D01*
X86956851Y-123894293D01*
X87169291Y-123829850D01*
X87365077Y-123725200D01*
X87536685Y-123584365D01*
X87677520Y-123412757D01*
X87763302Y-123252269D01*
X90987266Y-123252269D01*
X91071364Y-123437128D01*
X91189910Y-123602028D01*
X91338349Y-123740632D01*
X91510976Y-123847614D01*
X91633265Y-123898268D01*
X91790767Y-123879860D01*
X91790767Y-123094767D01*
X92144767Y-123094767D01*
X92144767Y-123879860D01*
X92302269Y-123898268D01*
X92487128Y-123814170D01*
X92652028Y-123695624D01*
X92790632Y-123547185D01*
X92897614Y-123374558D01*
X92948268Y-123252269D01*
X92929860Y-123094767D01*
X92144767Y-123094767D01*
X91790767Y-123094767D01*
X91005674Y-123094767D01*
X90987266Y-123252269D01*
X87763302Y-123252269D01*
X87782170Y-123216971D01*
X87846613Y-123004531D01*
X87868373Y-122783600D01*
X87848642Y-122583265D01*
X90987266Y-122583265D01*
X91005674Y-122740767D01*
X91790767Y-122740767D01*
X91790767Y-121955674D01*
X91633265Y-121937266D01*
X91448406Y-122021364D01*
X91283506Y-122139910D01*
X91144902Y-122288349D01*
X91037920Y-122460976D01*
X90987266Y-122583265D01*
X87848642Y-122583265D01*
X87846613Y-122562669D01*
X87782170Y-122350229D01*
X87677520Y-122154443D01*
X87536685Y-121982835D01*
X87365077Y-121842000D01*
X87169291Y-121737350D01*
X86956851Y-121672907D01*
X86791285Y-121656600D01*
X86680555Y-121656600D01*
X86514989Y-121672907D01*
X86302549Y-121737350D01*
X86106763Y-121842000D01*
X85935155Y-121982835D01*
X85794320Y-122154443D01*
X85689670Y-122350229D01*
X85625227Y-122562669D01*
X85603467Y-122783600D01*
X85183284Y-122783600D01*
X85284619Y-122505186D01*
X85250104Y-122431167D01*
X84454889Y-122141732D01*
X84165454Y-122936947D01*
X82508069Y-122936947D01*
X81340865Y-122410237D01*
X83027872Y-122410237D01*
X83029858Y-122455697D01*
X83040673Y-122499896D01*
X83059903Y-122541136D01*
X83086810Y-122577832D01*
X83120358Y-122608573D01*
X83159260Y-122632178D01*
X83202018Y-122647741D01*
X83758784Y-122850387D01*
X83832803Y-122815872D01*
X84122238Y-122020657D01*
X83540939Y-121809081D01*
X84575964Y-121809081D01*
X85371179Y-122098516D01*
X85445198Y-122064000D01*
X85663407Y-121464474D01*
X85670330Y-121419501D01*
X85668344Y-121374041D01*
X85657529Y-121329842D01*
X85638299Y-121288602D01*
X85611392Y-121251906D01*
X85577844Y-121221165D01*
X85538942Y-121197560D01*
X85496184Y-121181997D01*
X84939418Y-120979351D01*
X84865399Y-121013866D01*
X84575964Y-121809081D01*
X83540939Y-121809081D01*
X83327023Y-121731222D01*
X83253004Y-121765738D01*
X83034795Y-122365264D01*
X83027872Y-122410237D01*
X81340865Y-122410237D01*
X81034782Y-122272115D01*
X79378301Y-121350597D01*
X79339524Y-121324552D01*
X83413583Y-121324552D01*
X83448098Y-121398571D01*
X84243313Y-121688006D01*
X84532748Y-120892791D01*
X84498232Y-120818772D01*
X83941466Y-120616126D01*
X83898707Y-120600563D01*
X83853733Y-120593640D01*
X83808274Y-120595625D01*
X83764075Y-120606440D01*
X83722835Y-120625671D01*
X83686140Y-120652577D01*
X83655398Y-120686125D01*
X83631792Y-120725027D01*
X83413583Y-121324552D01*
X79339524Y-121324552D01*
X77804724Y-120293689D01*
X76325112Y-119108818D01*
X74947868Y-117802425D01*
X74281000Y-117080319D01*
X74281000Y-113565027D01*
X74282480Y-113550000D01*
X74276572Y-113490014D01*
X74259074Y-113432332D01*
X74230660Y-113379173D01*
X74192421Y-113332579D01*
X74145827Y-113294340D01*
X74092668Y-113265926D01*
X74034986Y-113248428D01*
X73990027Y-113244000D01*
X73975000Y-113242520D01*
X73959973Y-113244000D01*
X71027579Y-113244000D01*
X70356000Y-112068739D01*
X70356000Y-111327500D01*
X71026660Y-111327500D01*
X71026660Y-111672500D01*
X71034842Y-111755577D01*
X71059075Y-111835462D01*
X71098427Y-111909084D01*
X71151386Y-111973614D01*
X71215916Y-112026573D01*
X71289538Y-112065925D01*
X71369423Y-112090158D01*
X71452500Y-112098340D01*
X71747500Y-112098340D01*
X71830577Y-112090158D01*
X71910462Y-112065925D01*
X71984084Y-112026573D01*
X72048614Y-111973614D01*
X72076840Y-111939221D01*
X72095570Y-111967254D01*
X72127746Y-111999429D01*
X72165580Y-112024709D01*
X72207619Y-112042123D01*
X72252248Y-112051000D01*
X72364750Y-112051000D01*
X72422500Y-111993250D01*
X72422500Y-111660000D01*
X72717500Y-111660000D01*
X72717500Y-111993250D01*
X72775250Y-112051000D01*
X72887752Y-112051000D01*
X72932381Y-112042123D01*
X72974420Y-112024709D01*
X73012254Y-111999429D01*
X73044430Y-111967254D01*
X73069710Y-111929419D01*
X73087123Y-111887380D01*
X73096000Y-111842751D01*
X73096000Y-111717750D01*
X73038250Y-111660000D01*
X72717500Y-111660000D01*
X72422500Y-111660000D01*
X72373000Y-111660000D01*
X72373000Y-111340000D01*
X72422500Y-111340000D01*
X72422500Y-111006750D01*
X72717500Y-111006750D01*
X72717500Y-111340000D01*
X73038250Y-111340000D01*
X73096000Y-111282250D01*
X73096000Y-111157249D01*
X73087123Y-111112620D01*
X73069710Y-111070581D01*
X73044430Y-111032746D01*
X73012254Y-111000571D01*
X72974420Y-110975291D01*
X72932381Y-110957877D01*
X72887752Y-110949000D01*
X72775250Y-110949000D01*
X72717500Y-111006750D01*
X72422500Y-111006750D01*
X72364750Y-110949000D01*
X72252248Y-110949000D01*
X72207619Y-110957877D01*
X72165580Y-110975291D01*
X72127746Y-111000571D01*
X72127000Y-111001317D01*
X72127000Y-110528270D01*
X72900000Y-110528270D01*
X72954301Y-110522922D01*
X73006516Y-110507083D01*
X73054637Y-110481361D01*
X73096816Y-110446746D01*
X73131431Y-110404567D01*
X73157153Y-110356446D01*
X73172992Y-110304231D01*
X73178340Y-110249930D01*
X73178340Y-109249930D01*
X73172992Y-109195629D01*
X73157153Y-109143414D01*
X73131431Y-109095293D01*
X73096816Y-109053114D01*
X73054637Y-109018499D01*
X73006516Y-108992777D01*
X72954301Y-108976938D01*
X72932702Y-108974811D01*
X73127304Y-108780209D01*
X73190708Y-108702951D01*
X73253572Y-108585340D01*
X73292284Y-108457725D01*
X73305355Y-108325010D01*
X73292284Y-108192295D01*
X73253572Y-108064680D01*
X73190708Y-107947069D01*
X73106107Y-107843983D01*
X73003021Y-107759382D01*
X72885410Y-107696518D01*
X72757795Y-107657806D01*
X72625080Y-107644735D01*
X72492365Y-107657806D01*
X72364750Y-107696518D01*
X72247139Y-107759382D01*
X72169881Y-107822786D01*
X71694799Y-108297869D01*
X71668974Y-108319063D01*
X71647779Y-108344889D01*
X71647776Y-108344892D01*
X71584372Y-108422150D01*
X71521508Y-108539761D01*
X71482796Y-108667376D01*
X71469726Y-108800090D01*
X71473001Y-108833344D01*
X71473001Y-108971590D01*
X71400000Y-108971590D01*
X71345699Y-108976938D01*
X71293484Y-108992777D01*
X71245363Y-109018499D01*
X71203184Y-109053114D01*
X71168569Y-109095293D01*
X71142847Y-109143414D01*
X71127008Y-109195629D01*
X71121660Y-109249930D01*
X71121660Y-110076890D01*
X71110761Y-110097281D01*
X71080626Y-110196621D01*
X71070451Y-110299930D01*
X71073001Y-110325820D01*
X71073000Y-111138486D01*
X71059075Y-111164538D01*
X71034842Y-111244423D01*
X71026660Y-111327500D01*
X70356000Y-111327500D01*
X70356000Y-106049930D01*
X71121660Y-106049930D01*
X71121660Y-107049930D01*
X71127008Y-107104231D01*
X71142847Y-107156446D01*
X71168569Y-107204567D01*
X71203184Y-107246746D01*
X71245363Y-107281361D01*
X71293484Y-107307083D01*
X71345699Y-107322922D01*
X71400000Y-107328270D01*
X72900000Y-107328270D01*
X72954301Y-107322922D01*
X73006516Y-107307083D01*
X73054637Y-107281361D01*
X73096816Y-107246746D01*
X73131431Y-107204567D01*
X73157153Y-107156446D01*
X73172992Y-107104231D01*
X73178340Y-107049930D01*
X73178340Y-106926930D01*
X74060929Y-106926930D01*
X74132184Y-106998185D01*
X74226688Y-107061331D01*
X74331695Y-107104826D01*
X74443170Y-107127000D01*
X74556830Y-107127000D01*
X74668305Y-107104826D01*
X74773312Y-107061331D01*
X74867816Y-106998185D01*
X74948185Y-106917816D01*
X75011331Y-106823312D01*
X75027332Y-106784680D01*
X76069000Y-106784680D01*
X76069000Y-107072681D01*
X76077877Y-107117310D01*
X76095290Y-107159349D01*
X76120570Y-107197184D01*
X76152746Y-107229359D01*
X76190580Y-107254639D01*
X76232619Y-107272053D01*
X76277248Y-107280930D01*
X76815250Y-107280930D01*
X76873000Y-107223180D01*
X76873000Y-106726930D01*
X77227000Y-106726930D01*
X77227000Y-107223180D01*
X77284750Y-107280930D01*
X77822752Y-107280930D01*
X77867381Y-107272053D01*
X77909420Y-107254639D01*
X77947254Y-107229359D01*
X77979430Y-107197184D01*
X78004710Y-107159349D01*
X78022123Y-107117310D01*
X78031000Y-107072681D01*
X78031000Y-106784680D01*
X77973250Y-106726930D01*
X77227000Y-106726930D01*
X76873000Y-106726930D01*
X76126750Y-106726930D01*
X76069000Y-106784680D01*
X75027332Y-106784680D01*
X75054826Y-106718305D01*
X75077000Y-106606830D01*
X75077000Y-106493170D01*
X75054826Y-106381695D01*
X75011331Y-106276688D01*
X74948185Y-106182184D01*
X74867816Y-106101815D01*
X74773312Y-106038669D01*
X74745573Y-106027179D01*
X76069000Y-106027179D01*
X76069000Y-106315180D01*
X76126750Y-106372930D01*
X76873000Y-106372930D01*
X76873000Y-105876680D01*
X77227000Y-105876680D01*
X77227000Y-106372930D01*
X77973250Y-106372930D01*
X78031000Y-106315180D01*
X78031000Y-106027179D01*
X78022123Y-105982550D01*
X78004710Y-105940511D01*
X77979430Y-105902676D01*
X77947254Y-105870501D01*
X77909420Y-105845221D01*
X77867381Y-105827807D01*
X77822752Y-105818930D01*
X77284750Y-105818930D01*
X77227000Y-105876680D01*
X76873000Y-105876680D01*
X76815250Y-105818930D01*
X76277248Y-105818930D01*
X76232619Y-105827807D01*
X76190580Y-105845221D01*
X76152746Y-105870501D01*
X76120570Y-105902676D01*
X76095290Y-105940511D01*
X76077877Y-105982550D01*
X76069000Y-106027179D01*
X74745573Y-106027179D01*
X74668305Y-105995174D01*
X74556830Y-105973000D01*
X74443170Y-105973000D01*
X74331695Y-105995174D01*
X74226688Y-106038669D01*
X74132184Y-106101815D01*
X74061069Y-106172930D01*
X73178340Y-106172930D01*
X73178340Y-106049930D01*
X73172992Y-105995629D01*
X73157153Y-105943414D01*
X73131431Y-105895293D01*
X73096816Y-105853114D01*
X73054637Y-105818499D01*
X73006516Y-105792777D01*
X72954301Y-105776938D01*
X72900000Y-105771590D01*
X71400000Y-105771590D01*
X71345699Y-105776938D01*
X71293484Y-105792777D01*
X71245363Y-105818499D01*
X71203184Y-105853114D01*
X71168569Y-105895293D01*
X71142847Y-105943414D01*
X71127008Y-105995629D01*
X71121660Y-106049930D01*
X70356000Y-106049930D01*
X70356000Y-105306000D01*
X79994000Y-105306000D01*
X79994001Y-107634963D01*
X79992520Y-107650000D01*
X79998428Y-107709986D01*
X80015926Y-107767668D01*
X80044340Y-107820827D01*
X80082579Y-107867421D01*
X80129173Y-107905660D01*
X80182332Y-107934074D01*
X80240014Y-107951572D01*
X80284973Y-107956000D01*
X80300000Y-107957480D01*
X80315027Y-107956000D01*
X84633185Y-107956000D01*
X84625647Y-107960029D01*
X84568241Y-108007141D01*
X84556438Y-108021523D01*
X83954962Y-108623000D01*
X78768438Y-108623000D01*
X78749929Y-108621177D01*
X78731420Y-108623000D01*
X78731411Y-108623000D01*
X78676025Y-108628455D01*
X78604960Y-108650012D01*
X78539467Y-108685019D01*
X78529954Y-108692826D01*
X78499325Y-108717963D01*
X78482061Y-108732131D01*
X78470258Y-108746513D01*
X78060924Y-109155847D01*
X78057153Y-109143414D01*
X78031431Y-109095293D01*
X77996816Y-109053114D01*
X77954637Y-109018499D01*
X77906516Y-108992777D01*
X77854301Y-108976938D01*
X77800000Y-108971590D01*
X76300000Y-108971590D01*
X76245699Y-108976938D01*
X76193484Y-108992777D01*
X76145363Y-109018499D01*
X76103184Y-109053114D01*
X76068569Y-109095293D01*
X76042847Y-109143414D01*
X76027008Y-109195629D01*
X76021660Y-109249930D01*
X76021660Y-110249930D01*
X76027008Y-110304231D01*
X76042847Y-110356446D01*
X76068569Y-110404567D01*
X76103184Y-110446746D01*
X76145363Y-110481361D01*
X76193484Y-110507083D01*
X76245699Y-110522922D01*
X76300000Y-110528270D01*
X77800000Y-110528270D01*
X77854301Y-110522922D01*
X77906516Y-110507083D01*
X77954637Y-110481361D01*
X77996816Y-110446746D01*
X78031431Y-110404567D01*
X78057153Y-110356446D01*
X78072992Y-110304231D01*
X78078340Y-110249930D01*
X78078340Y-110120130D01*
X78144970Y-110099918D01*
X78210463Y-110064911D01*
X78267869Y-110017799D01*
X78279677Y-110003411D01*
X78906089Y-109377000D01*
X79199439Y-109377000D01*
X79099235Y-109459235D01*
X78958400Y-109630843D01*
X78853750Y-109826629D01*
X78789307Y-110039069D01*
X78767547Y-110260000D01*
X78789307Y-110480931D01*
X78853750Y-110693371D01*
X78958400Y-110889157D01*
X79099235Y-111060765D01*
X79270843Y-111201600D01*
X79353911Y-111246001D01*
X76667373Y-111246001D01*
X76649999Y-111244290D01*
X76632625Y-111246001D01*
X76632617Y-111246001D01*
X76580603Y-111251124D01*
X76513874Y-111271366D01*
X76452376Y-111304237D01*
X76425088Y-111326632D01*
X76406830Y-111323000D01*
X76293170Y-111323000D01*
X76181695Y-111345174D01*
X76076688Y-111388669D01*
X75982184Y-111451815D01*
X75901815Y-111532184D01*
X75838669Y-111626688D01*
X75795174Y-111731695D01*
X75773000Y-111843170D01*
X75773000Y-111956830D01*
X75795174Y-112068305D01*
X75838669Y-112173312D01*
X75901815Y-112267816D01*
X75982184Y-112348185D01*
X76076688Y-112411331D01*
X76181695Y-112454826D01*
X76293170Y-112477000D01*
X76406830Y-112477000D01*
X76518305Y-112454826D01*
X76623312Y-112411331D01*
X76717816Y-112348185D01*
X76798185Y-112267816D01*
X76861331Y-112173312D01*
X76904826Y-112068305D01*
X76927000Y-111956830D01*
X76927000Y-111954001D01*
X78771660Y-111954001D01*
X78771660Y-113650000D01*
X78777008Y-113704301D01*
X78792847Y-113756516D01*
X78818569Y-113804637D01*
X78853184Y-113846816D01*
X78895363Y-113881431D01*
X78943484Y-113907153D01*
X78995699Y-113922992D01*
X79050000Y-113928340D01*
X79423000Y-113928340D01*
X79423001Y-116650379D01*
X79420694Y-116673804D01*
X79429903Y-116767311D01*
X79457178Y-116857226D01*
X79465864Y-116873476D01*
X79501472Y-116940093D01*
X79516014Y-116957812D01*
X79545237Y-116993420D01*
X79561080Y-117012725D01*
X79579271Y-117027654D01*
X81362305Y-118810689D01*
X81377237Y-118828883D01*
X81395428Y-118843812D01*
X81395430Y-118843814D01*
X81407097Y-118853389D01*
X81449869Y-118888491D01*
X81532735Y-118932784D01*
X81622650Y-118960059D01*
X81692735Y-118966962D01*
X81692742Y-118966962D01*
X81716157Y-118969268D01*
X81739572Y-118966962D01*
X87132385Y-118966962D01*
X88314768Y-120149346D01*
X88329698Y-120167538D01*
X88347889Y-120182467D01*
X88347891Y-120182469D01*
X88359667Y-120192133D01*
X88402330Y-120227146D01*
X88485196Y-120271439D01*
X88575111Y-120298714D01*
X88645196Y-120305617D01*
X88645203Y-120305617D01*
X88668618Y-120307923D01*
X88692033Y-120305617D01*
X89519380Y-120305617D01*
X88871813Y-120953184D01*
X88837198Y-120995363D01*
X88811476Y-121043484D01*
X88795637Y-121095699D01*
X88790289Y-121150000D01*
X88795637Y-121204301D01*
X88811476Y-121256516D01*
X88837198Y-121304637D01*
X88871813Y-121346816D01*
X90003184Y-122478187D01*
X90045363Y-122512802D01*
X90093484Y-122538524D01*
X90145699Y-122554363D01*
X90200000Y-122559711D01*
X90254301Y-122554363D01*
X90306516Y-122538524D01*
X90354637Y-122512802D01*
X90396816Y-122478187D01*
X91441872Y-121433131D01*
X91904032Y-121895292D01*
X91918959Y-121913481D01*
X91937148Y-121928408D01*
X91937152Y-121928412D01*
X91991591Y-121973088D01*
X92074457Y-122017382D01*
X92144767Y-122038710D01*
X92144767Y-122740767D01*
X92929860Y-122740767D01*
X92948268Y-122583265D01*
X92864170Y-122398406D01*
X92745624Y-122233506D01*
X92597185Y-122094902D01*
X92457837Y-122008544D01*
X92516847Y-121977001D01*
X94473774Y-121977001D01*
X94513667Y-122073312D01*
X94576813Y-122167816D01*
X94657182Y-122248185D01*
X94751686Y-122311331D01*
X94856693Y-122354826D01*
X94968168Y-122377000D01*
X95081828Y-122377000D01*
X95193303Y-122354826D01*
X95298310Y-122311331D01*
X95392814Y-122248185D01*
X95473183Y-122167816D01*
X95536329Y-122073312D01*
X95579824Y-121968305D01*
X95601998Y-121856830D01*
X95601998Y-121743170D01*
X95579824Y-121631695D01*
X95536329Y-121526688D01*
X95473183Y-121432184D01*
X95392814Y-121351815D01*
X95298310Y-121288669D01*
X95193303Y-121245174D01*
X95132695Y-121233118D01*
X95103084Y-121203507D01*
X96123532Y-121203507D01*
X96126506Y-121257990D01*
X96140053Y-121310846D01*
X96824094Y-123190231D01*
X96847692Y-123239428D01*
X96880434Y-123283077D01*
X96921063Y-123319499D01*
X96968017Y-123347295D01*
X97019491Y-123365396D01*
X97073507Y-123373108D01*
X97127990Y-123370134D01*
X97180846Y-123356587D01*
X99060231Y-122672546D01*
X99109428Y-122648948D01*
X99153077Y-122616206D01*
X99189499Y-122575577D01*
X99217295Y-122528623D01*
X99235396Y-122477149D01*
X99243108Y-122423133D01*
X99240134Y-122368650D01*
X99226587Y-122315794D01*
X98643444Y-120713623D01*
X98773000Y-120713623D01*
X98773000Y-120886377D01*
X98806703Y-121055811D01*
X98872813Y-121215415D01*
X98968790Y-121359055D01*
X99090945Y-121481210D01*
X99234585Y-121577187D01*
X99394189Y-121643297D01*
X99563623Y-121677000D01*
X99736377Y-121677000D01*
X99905811Y-121643297D01*
X100065415Y-121577187D01*
X100209055Y-121481210D01*
X100331210Y-121359055D01*
X100427187Y-121215415D01*
X100493297Y-121055811D01*
X100527000Y-120886377D01*
X100527000Y-120713623D01*
X101273000Y-120713623D01*
X101273000Y-120886377D01*
X101306703Y-121055811D01*
X101372813Y-121215415D01*
X101468790Y-121359055D01*
X101590945Y-121481210D01*
X101734585Y-121577187D01*
X101894189Y-121643297D01*
X102063623Y-121677000D01*
X102236377Y-121677000D01*
X102405811Y-121643297D01*
X102565415Y-121577187D01*
X102709055Y-121481210D01*
X102831210Y-121359055D01*
X102927187Y-121215415D01*
X102993297Y-121055811D01*
X103027000Y-120886377D01*
X103027000Y-120713623D01*
X102993297Y-120544189D01*
X102927187Y-120384585D01*
X102831210Y-120240945D01*
X102709055Y-120118790D01*
X102565415Y-120022813D01*
X102405811Y-119956703D01*
X102236377Y-119923000D01*
X102063623Y-119923000D01*
X101894189Y-119956703D01*
X101734585Y-120022813D01*
X101590945Y-120118790D01*
X101468790Y-120240945D01*
X101372813Y-120384585D01*
X101306703Y-120544189D01*
X101273000Y-120713623D01*
X100527000Y-120713623D01*
X100493297Y-120544189D01*
X100427187Y-120384585D01*
X100331210Y-120240945D01*
X100209055Y-120118790D01*
X100065415Y-120022813D01*
X99905811Y-119956703D01*
X99736377Y-119923000D01*
X99563623Y-119923000D01*
X99394189Y-119956703D01*
X99234585Y-120022813D01*
X99090945Y-120118790D01*
X98968790Y-120240945D01*
X98872813Y-120384585D01*
X98806703Y-120544189D01*
X98773000Y-120713623D01*
X98643444Y-120713623D01*
X98589717Y-120566011D01*
X99577949Y-119577780D01*
X99946170Y-119577780D01*
X100043147Y-119568229D01*
X100136398Y-119539941D01*
X100222338Y-119494005D01*
X100297666Y-119432186D01*
X100359485Y-119356858D01*
X100405421Y-119270918D01*
X100433709Y-119177667D01*
X100443260Y-119080690D01*
X100443260Y-118643190D01*
X100433709Y-118546213D01*
X100405421Y-118452962D01*
X100359485Y-118367022D01*
X100297666Y-118291694D01*
X100222338Y-118229875D01*
X100136398Y-118183939D01*
X100071913Y-118164377D01*
X103273000Y-118164377D01*
X103273000Y-118435623D01*
X103325917Y-118701656D01*
X103429718Y-118952254D01*
X103580414Y-119177787D01*
X103772213Y-119369586D01*
X103997746Y-119520282D01*
X104248344Y-119624083D01*
X104514377Y-119677000D01*
X104785623Y-119677000D01*
X105051656Y-119624083D01*
X105302254Y-119520282D01*
X105527787Y-119369586D01*
X105719586Y-119177787D01*
X105870282Y-118952254D01*
X105974083Y-118701656D01*
X106027000Y-118435623D01*
X106027000Y-118164377D01*
X105974083Y-117898344D01*
X105870282Y-117647746D01*
X105719586Y-117422213D01*
X105527787Y-117230414D01*
X105302254Y-117079718D01*
X105051656Y-116975917D01*
X104785623Y-116923000D01*
X104514377Y-116923000D01*
X104248344Y-116975917D01*
X103997746Y-117079718D01*
X103772213Y-117230414D01*
X103580414Y-117422213D01*
X103429718Y-117647746D01*
X103325917Y-117898344D01*
X103273000Y-118164377D01*
X100071913Y-118164377D01*
X100043147Y-118155651D01*
X99946170Y-118146100D01*
X99433670Y-118146100D01*
X99336693Y-118155651D01*
X99243442Y-118183939D01*
X99157502Y-118229875D01*
X99082174Y-118291694D01*
X99020355Y-118367022D01*
X98974419Y-118452962D01*
X98946131Y-118546213D01*
X98936580Y-118643190D01*
X98936580Y-119011411D01*
X97792460Y-120155532D01*
X97776165Y-120168905D01*
X97762793Y-120185199D01*
X97762792Y-120185200D01*
X97722805Y-120233924D01*
X97708203Y-120261244D01*
X97683155Y-120308105D01*
X97658738Y-120388594D01*
X97652560Y-120451323D01*
X97652560Y-120451333D01*
X97651252Y-120464610D01*
X96306409Y-120954094D01*
X96257212Y-120977692D01*
X96213563Y-121010434D01*
X96177141Y-121051063D01*
X96149345Y-121098017D01*
X96131244Y-121149491D01*
X96123532Y-121203507D01*
X95103084Y-121203507D01*
X95078854Y-121179277D01*
X95063920Y-121161080D01*
X94991288Y-121101472D01*
X94908422Y-121057179D01*
X94818507Y-121029904D01*
X94748422Y-121023001D01*
X94748414Y-121023001D01*
X94724999Y-121020695D01*
X94701584Y-121023001D01*
X92380901Y-121023001D01*
X92180916Y-120823017D01*
X92174203Y-120800886D01*
X92129910Y-120718020D01*
X92070302Y-120645388D01*
X92052110Y-120630458D01*
X90719546Y-119297895D01*
X90704612Y-119279698D01*
X90701422Y-119277080D01*
X93773000Y-119277080D01*
X93773000Y-119464517D01*
X93745174Y-119531695D01*
X93723000Y-119643170D01*
X93723000Y-119756830D01*
X93745174Y-119868305D01*
X93788669Y-119973312D01*
X93851815Y-120067816D01*
X93932184Y-120148185D01*
X94026688Y-120211331D01*
X94131695Y-120254826D01*
X94243170Y-120277000D01*
X94356830Y-120277000D01*
X94468305Y-120254826D01*
X94573312Y-120211331D01*
X94667816Y-120148185D01*
X94748185Y-120067816D01*
X94811331Y-119973312D01*
X94854826Y-119868305D01*
X94877000Y-119756830D01*
X94877000Y-119643170D01*
X94854826Y-119531695D01*
X94827000Y-119464517D01*
X94827000Y-119321338D01*
X96378978Y-119321338D01*
X96513983Y-119476532D01*
X96755734Y-119578006D01*
X97012637Y-119630367D01*
X97274818Y-119631603D01*
X97532202Y-119581666D01*
X97774899Y-119482475D01*
X97786017Y-119476532D01*
X97921022Y-119321338D01*
X97150000Y-118550316D01*
X96378978Y-119321338D01*
X94827000Y-119321338D01*
X94827000Y-118983649D01*
X95863566Y-117947084D01*
X95819633Y-118162637D01*
X95818397Y-118424818D01*
X95868334Y-118682202D01*
X95967525Y-118924899D01*
X95973468Y-118936017D01*
X96128662Y-119071022D01*
X96899684Y-118300000D01*
X96885542Y-118285858D01*
X97135858Y-118035542D01*
X97150000Y-118049684D01*
X97164142Y-118035542D01*
X97414458Y-118285858D01*
X97400316Y-118300000D01*
X98171338Y-119071022D01*
X98326532Y-118936017D01*
X98428006Y-118694266D01*
X98480367Y-118437363D01*
X98481603Y-118175182D01*
X98431666Y-117917798D01*
X98332475Y-117675101D01*
X98326532Y-117663983D01*
X98171339Y-117528979D01*
X98192159Y-117508160D01*
X98232184Y-117548185D01*
X98326688Y-117611331D01*
X98431695Y-117654826D01*
X98543170Y-117677000D01*
X98656830Y-117677000D01*
X98768305Y-117654826D01*
X98873312Y-117611331D01*
X98942435Y-117565144D01*
X98946131Y-117602667D01*
X98974419Y-117695918D01*
X99020355Y-117781858D01*
X99082174Y-117857186D01*
X99157502Y-117919005D01*
X99243442Y-117964941D01*
X99336693Y-117993229D01*
X99433670Y-118002780D01*
X99946170Y-118002780D01*
X100043147Y-117993229D01*
X100136398Y-117964941D01*
X100222338Y-117919005D01*
X100297666Y-117857186D01*
X100359485Y-117781858D01*
X100405421Y-117695918D01*
X100433709Y-117602667D01*
X100443260Y-117505690D01*
X100443260Y-117068190D01*
X100433709Y-116971213D01*
X100405421Y-116877962D01*
X100359485Y-116792022D01*
X100297666Y-116716694D01*
X100222338Y-116654875D01*
X100136398Y-116608939D01*
X100043147Y-116580651D01*
X99946170Y-116571100D01*
X99521731Y-116571100D01*
X99266834Y-116316204D01*
X99266834Y-115995231D01*
X99280650Y-115985999D01*
X99361019Y-115905630D01*
X99424165Y-115811126D01*
X99467660Y-115706119D01*
X99489834Y-115594644D01*
X99489834Y-115519529D01*
X99525337Y-115555032D01*
X99619841Y-115618178D01*
X99724848Y-115661673D01*
X99836323Y-115683847D01*
X99866285Y-115683847D01*
X100934436Y-116752000D01*
X100957467Y-116786468D01*
X101037836Y-116866837D01*
X101071210Y-116889137D01*
X101082911Y-116903395D01*
X101099195Y-116916759D01*
X101099204Y-116916768D01*
X101147929Y-116956755D01*
X101179774Y-116973776D01*
X101222110Y-116996405D01*
X101302599Y-117020822D01*
X101386306Y-117029066D01*
X101407283Y-117027000D01*
X102626015Y-117027000D01*
X102647200Y-117048185D01*
X102741704Y-117111331D01*
X102846711Y-117154826D01*
X102958186Y-117177000D01*
X103071846Y-117177000D01*
X103183321Y-117154826D01*
X103288328Y-117111331D01*
X103382832Y-117048185D01*
X103463201Y-116967816D01*
X103526347Y-116873312D01*
X103569842Y-116768305D01*
X103592016Y-116656830D01*
X103592016Y-116543170D01*
X103569842Y-116431695D01*
X103526347Y-116326688D01*
X103467771Y-116239023D01*
X106477603Y-116239023D01*
X106494977Y-116240734D01*
X106512351Y-116239023D01*
X106512359Y-116239023D01*
X106564373Y-116233900D01*
X106631102Y-116213658D01*
X106692600Y-116180787D01*
X106746503Y-116136549D01*
X106757589Y-116123041D01*
X107703631Y-115177000D01*
X107758166Y-115177000D01*
X107872319Y-115165757D01*
X108018784Y-115121327D01*
X108153766Y-115049177D01*
X108272080Y-114952080D01*
X108369177Y-114833766D01*
X108383420Y-114807119D01*
X108385839Y-114811548D01*
X108477737Y-114921506D01*
X108589321Y-115011423D01*
X108704228Y-115072826D01*
X108813000Y-115049566D01*
X108813000Y-114577000D01*
X109167000Y-114577000D01*
X109167000Y-115049566D01*
X109275772Y-115072826D01*
X109390679Y-115011423D01*
X109502263Y-114921506D01*
X109594161Y-114811548D01*
X109662841Y-114685774D01*
X109641512Y-114577000D01*
X109167000Y-114577000D01*
X108813000Y-114577000D01*
X108793000Y-114577000D01*
X108793000Y-114223000D01*
X108813000Y-114223000D01*
X108813000Y-113750434D01*
X109167000Y-113750434D01*
X109167000Y-114223000D01*
X109641512Y-114223000D01*
X109662841Y-114114226D01*
X109594161Y-113988452D01*
X109502263Y-113878494D01*
X109390679Y-113788577D01*
X109275772Y-113727174D01*
X109167000Y-113750434D01*
X108813000Y-113750434D01*
X108704228Y-113727174D01*
X108589321Y-113788577D01*
X108477737Y-113878494D01*
X108385839Y-113988452D01*
X108383420Y-113992881D01*
X108369177Y-113966234D01*
X108272080Y-113847920D01*
X108153766Y-113750823D01*
X108018784Y-113678673D01*
X107872319Y-113634243D01*
X107758166Y-113623000D01*
X107681834Y-113623000D01*
X107567681Y-113634243D01*
X107421216Y-113678673D01*
X107286234Y-113750823D01*
X107167920Y-113847920D01*
X107085000Y-113948959D01*
X107002080Y-113847920D01*
X106883766Y-113750823D01*
X106748784Y-113678673D01*
X106602319Y-113634243D01*
X106488166Y-113623000D01*
X106411834Y-113623000D01*
X106297681Y-113634243D01*
X106151216Y-113678673D01*
X106016234Y-113750823D01*
X105897920Y-113847920D01*
X105815000Y-113948959D01*
X105732080Y-113847920D01*
X105613766Y-113750823D01*
X105478784Y-113678673D01*
X105332319Y-113634243D01*
X105218166Y-113623000D01*
X105141834Y-113623000D01*
X105027681Y-113634243D01*
X104881216Y-113678673D01*
X104746234Y-113750823D01*
X104627920Y-113847920D01*
X104545000Y-113948959D01*
X104462080Y-113847920D01*
X104343766Y-113750823D01*
X104208784Y-113678673D01*
X104062319Y-113634243D01*
X103948166Y-113623000D01*
X103893630Y-113623000D01*
X103636622Y-113365992D01*
X103625536Y-113352484D01*
X103571633Y-113308246D01*
X103510135Y-113275375D01*
X103443406Y-113255133D01*
X103391392Y-113250010D01*
X103391384Y-113250010D01*
X103374010Y-113248299D01*
X103356636Y-113250010D01*
X103305569Y-113250010D01*
X103373977Y-113193418D01*
X103512869Y-113023119D01*
X103616039Y-112829085D01*
X103679556Y-112618708D01*
X103701000Y-112400000D01*
X103700561Y-112368560D01*
X103693866Y-112315562D01*
X103794540Y-112416236D01*
X103805621Y-112429738D01*
X103859524Y-112473976D01*
X103887625Y-112488996D01*
X103921021Y-112506847D01*
X103987750Y-112527089D01*
X103993970Y-112527702D01*
X104039765Y-112532212D01*
X104039772Y-112532212D01*
X104057147Y-112533923D01*
X104074521Y-112532212D01*
X104443056Y-112532212D01*
X104414207Y-112601859D01*
X104392033Y-112713334D01*
X104392033Y-112826994D01*
X104414207Y-112938469D01*
X104457702Y-113043476D01*
X104520848Y-113137980D01*
X104601217Y-113218349D01*
X104695721Y-113281495D01*
X104800728Y-113324990D01*
X104912203Y-113347164D01*
X105025863Y-113347164D01*
X105137338Y-113324990D01*
X105242345Y-113281495D01*
X105336849Y-113218349D01*
X105417218Y-113137980D01*
X105480364Y-113043476D01*
X105523859Y-112938469D01*
X105546033Y-112826994D01*
X105546033Y-112713334D01*
X105523859Y-112601859D01*
X105495010Y-112532212D01*
X105585293Y-112532212D01*
X105596815Y-112549456D01*
X105677184Y-112629825D01*
X105771688Y-112692971D01*
X105876695Y-112736466D01*
X105988170Y-112758640D01*
X106101830Y-112758640D01*
X106213305Y-112736466D01*
X106318312Y-112692971D01*
X106412816Y-112629825D01*
X106493185Y-112549456D01*
X106556331Y-112454952D01*
X106597314Y-112356010D01*
X107619496Y-112356010D01*
X107636870Y-112357721D01*
X107654244Y-112356010D01*
X107654252Y-112356010D01*
X107706266Y-112350887D01*
X107772995Y-112330645D01*
X107834493Y-112297774D01*
X107888396Y-112253536D01*
X107899482Y-112240028D01*
X109961171Y-110178340D01*
X111450000Y-110178340D01*
X111504301Y-110172992D01*
X111556516Y-110157153D01*
X111604637Y-110131431D01*
X111646816Y-110096816D01*
X111681431Y-110054637D01*
X111707153Y-110006516D01*
X111722992Y-109954301D01*
X111728340Y-109900000D01*
X111728340Y-108900000D01*
X111722992Y-108845699D01*
X111707153Y-108793484D01*
X111681431Y-108745363D01*
X111646816Y-108703184D01*
X111604637Y-108668569D01*
X111556516Y-108642847D01*
X111504301Y-108627008D01*
X111450000Y-108621660D01*
X109950000Y-108621660D01*
X109895699Y-108627008D01*
X109843484Y-108642847D01*
X109795363Y-108668569D01*
X109753184Y-108703184D01*
X109718569Y-108745363D01*
X109692847Y-108793484D01*
X109677008Y-108845699D01*
X109671660Y-108900000D01*
X109671660Y-109466589D01*
X107490240Y-111648010D01*
X107297720Y-111648010D01*
X107302123Y-111637380D01*
X107311000Y-111592751D01*
X107311000Y-111467750D01*
X107253250Y-111410000D01*
X106932500Y-111410000D01*
X106932500Y-111447000D01*
X106637500Y-111447000D01*
X106637500Y-111410000D01*
X106588000Y-111410000D01*
X106588000Y-111090000D01*
X106637500Y-111090000D01*
X106637500Y-110756750D01*
X106932500Y-110756750D01*
X106932500Y-111090000D01*
X107253250Y-111090000D01*
X107311000Y-111032250D01*
X107311000Y-110907249D01*
X107302123Y-110862620D01*
X107284710Y-110820581D01*
X107259430Y-110782746D01*
X107227254Y-110750571D01*
X107189420Y-110725291D01*
X107147381Y-110707877D01*
X107102752Y-110699000D01*
X106990250Y-110699000D01*
X106932500Y-110756750D01*
X106637500Y-110756750D01*
X106579750Y-110699000D01*
X106467248Y-110699000D01*
X106422619Y-110707877D01*
X106380580Y-110725291D01*
X106342746Y-110750571D01*
X106310570Y-110782746D01*
X106292000Y-110810539D01*
X106292000Y-110178340D01*
X106550000Y-110178340D01*
X106604301Y-110172992D01*
X106656516Y-110157153D01*
X106704637Y-110131431D01*
X106746816Y-110096816D01*
X106781431Y-110054637D01*
X106807153Y-110006516D01*
X106822992Y-109954301D01*
X106828340Y-109900000D01*
X106828340Y-108996239D01*
X107607698Y-108216882D01*
X107668305Y-108204826D01*
X107773312Y-108161331D01*
X107867816Y-108098185D01*
X107948185Y-108017816D01*
X108011331Y-107923312D01*
X108054826Y-107818305D01*
X108077000Y-107706830D01*
X108077000Y-107593170D01*
X108054826Y-107481695D01*
X108011331Y-107376688D01*
X107948185Y-107282184D01*
X107867816Y-107201815D01*
X107773312Y-107138669D01*
X107668305Y-107095174D01*
X107556830Y-107073000D01*
X107443170Y-107073000D01*
X107331695Y-107095174D01*
X107226688Y-107138669D01*
X107132184Y-107201815D01*
X107051815Y-107282184D01*
X106988669Y-107376688D01*
X106945174Y-107481695D01*
X106933118Y-107542302D01*
X105853761Y-108621660D01*
X105050000Y-108621660D01*
X104995699Y-108627008D01*
X104943484Y-108642847D01*
X104895363Y-108668569D01*
X104853184Y-108703184D01*
X104818569Y-108745363D01*
X104792847Y-108793484D01*
X104777008Y-108845699D01*
X104771660Y-108900000D01*
X104771660Y-109900000D01*
X104777008Y-109954301D01*
X104792847Y-110006516D01*
X104818569Y-110054637D01*
X104853184Y-110096816D01*
X104895363Y-110131431D01*
X104943484Y-110157153D01*
X104995699Y-110172992D01*
X105050000Y-110178340D01*
X105338001Y-110178340D01*
X105338000Y-110810974D01*
X105313427Y-110840916D01*
X105274075Y-110914538D01*
X105249842Y-110994423D01*
X105241660Y-111077500D01*
X105241660Y-111422500D01*
X105249842Y-111505577D01*
X105274075Y-111585462D01*
X105313427Y-111659084D01*
X105366386Y-111723614D01*
X105430916Y-111776573D01*
X105504538Y-111815925D01*
X105531856Y-111824212D01*
X104203778Y-111824212D01*
X103777034Y-111397469D01*
X103833770Y-111386183D01*
X103938777Y-111342688D01*
X104033281Y-111279542D01*
X104113650Y-111199173D01*
X104176796Y-111104669D01*
X104220291Y-110999662D01*
X104242465Y-110888187D01*
X104242465Y-110788100D01*
X104249474Y-110779560D01*
X104280444Y-110741822D01*
X104289281Y-110725291D01*
X104315452Y-110676328D01*
X104319479Y-110663052D01*
X104337009Y-110605264D01*
X104344288Y-110531358D01*
X104342464Y-110512839D01*
X104342464Y-110430532D01*
X104561270Y-110211726D01*
X104575653Y-110199923D01*
X104590426Y-110181923D01*
X104622765Y-110142517D01*
X104657772Y-110077024D01*
X104679329Y-110005960D01*
X104686608Y-109932054D01*
X104684784Y-109913535D01*
X104684784Y-109183807D01*
X104686607Y-109165298D01*
X104684784Y-109146789D01*
X104684784Y-109146780D01*
X104679329Y-109091394D01*
X104657772Y-109020329D01*
X104622765Y-108954836D01*
X104575653Y-108897430D01*
X104561266Y-108885623D01*
X102878624Y-107202981D01*
X102866816Y-107188593D01*
X102809410Y-107141481D01*
X102743917Y-107106474D01*
X102672852Y-107084917D01*
X102617466Y-107079462D01*
X102617459Y-107079462D01*
X102613272Y-107079050D01*
X102542499Y-107008277D01*
X102447995Y-106945131D01*
X102342988Y-106901636D01*
X102231513Y-106879462D01*
X102117853Y-106879462D01*
X102006378Y-106901636D01*
X101901371Y-106945131D01*
X101806867Y-107008277D01*
X101726498Y-107088646D01*
X101663352Y-107183150D01*
X101619857Y-107288157D01*
X101597683Y-107399632D01*
X101597683Y-107500303D01*
X101449977Y-107648010D01*
X100746351Y-107648010D01*
X103213830Y-105700000D01*
X104771660Y-105700000D01*
X104771660Y-106700000D01*
X104777008Y-106754301D01*
X104792847Y-106806516D01*
X104818569Y-106854637D01*
X104853184Y-106896816D01*
X104895363Y-106931431D01*
X104943484Y-106957153D01*
X104995699Y-106972992D01*
X105050000Y-106978340D01*
X106550000Y-106978340D01*
X106604301Y-106972992D01*
X106656516Y-106957153D01*
X106704637Y-106931431D01*
X106746816Y-106896816D01*
X106781431Y-106854637D01*
X106807153Y-106806516D01*
X106822992Y-106754301D01*
X106828340Y-106700000D01*
X106828340Y-106577000D01*
X107910983Y-106577000D01*
X107982168Y-106648185D01*
X108076672Y-106711331D01*
X108181679Y-106754826D01*
X108293154Y-106777000D01*
X108406814Y-106777000D01*
X108518289Y-106754826D01*
X108623296Y-106711331D01*
X108717800Y-106648185D01*
X108798169Y-106567816D01*
X108861315Y-106473312D01*
X108877287Y-106434750D01*
X109719000Y-106434750D01*
X109719000Y-106722751D01*
X109727877Y-106767380D01*
X109745290Y-106809419D01*
X109770570Y-106847254D01*
X109802746Y-106879429D01*
X109840580Y-106904709D01*
X109882619Y-106922123D01*
X109927248Y-106931000D01*
X110465250Y-106931000D01*
X110523000Y-106873250D01*
X110523000Y-106377000D01*
X110877000Y-106377000D01*
X110877000Y-106873250D01*
X110934750Y-106931000D01*
X111472752Y-106931000D01*
X111517381Y-106922123D01*
X111559420Y-106904709D01*
X111597254Y-106879429D01*
X111629430Y-106847254D01*
X111654710Y-106809419D01*
X111672123Y-106767380D01*
X111681000Y-106722751D01*
X111681000Y-106434750D01*
X111623250Y-106377000D01*
X110877000Y-106377000D01*
X110523000Y-106377000D01*
X109776750Y-106377000D01*
X109719000Y-106434750D01*
X108877287Y-106434750D01*
X108904810Y-106368305D01*
X108926984Y-106256830D01*
X108926984Y-106143170D01*
X108904810Y-106031695D01*
X108861315Y-105926688D01*
X108798169Y-105832184D01*
X108717800Y-105751815D01*
X108623296Y-105688669D01*
X108595726Y-105677249D01*
X109719000Y-105677249D01*
X109719000Y-105965250D01*
X109776750Y-106023000D01*
X110523000Y-106023000D01*
X110523000Y-105526750D01*
X110877000Y-105526750D01*
X110877000Y-106023000D01*
X111623250Y-106023000D01*
X111681000Y-105965250D01*
X111681000Y-105677249D01*
X111672123Y-105632620D01*
X111654710Y-105590581D01*
X111629430Y-105552746D01*
X111597254Y-105520571D01*
X111559420Y-105495291D01*
X111517381Y-105477877D01*
X111472752Y-105469000D01*
X110934750Y-105469000D01*
X110877000Y-105526750D01*
X110523000Y-105526750D01*
X110465250Y-105469000D01*
X109927248Y-105469000D01*
X109882619Y-105477877D01*
X109840580Y-105495291D01*
X109802746Y-105520571D01*
X109770570Y-105552746D01*
X109745290Y-105590581D01*
X109727877Y-105632620D01*
X109719000Y-105677249D01*
X108595726Y-105677249D01*
X108518289Y-105645174D01*
X108406814Y-105623000D01*
X108293154Y-105623000D01*
X108181679Y-105645174D01*
X108076672Y-105688669D01*
X107982168Y-105751815D01*
X107910983Y-105823000D01*
X106828340Y-105823000D01*
X106828340Y-105700000D01*
X106822992Y-105645699D01*
X106807153Y-105593484D01*
X106781431Y-105545363D01*
X106746816Y-105503184D01*
X106704637Y-105468569D01*
X106656516Y-105442847D01*
X106604301Y-105427008D01*
X106550000Y-105421660D01*
X105050000Y-105421660D01*
X104995699Y-105427008D01*
X104943484Y-105442847D01*
X104895363Y-105468569D01*
X104853184Y-105503184D01*
X104818569Y-105545363D01*
X104792847Y-105593484D01*
X104777008Y-105645699D01*
X104771660Y-105700000D01*
X103213830Y-105700000D01*
X104156231Y-104956000D01*
X112368334Y-104956000D01*
X112357168Y-110084976D01*
G36*
X97477899Y-108456715D02*
X97455725Y-108568190D01*
X97455725Y-108681850D01*
X97477899Y-108793325D01*
X97521394Y-108898332D01*
X97584540Y-108992836D01*
X97664909Y-109073205D01*
X97759413Y-109136351D01*
X97864420Y-109179846D01*
X97975895Y-109202020D01*
X98089555Y-109202020D01*
X98147148Y-109190564D01*
X98153393Y-109221958D01*
X98196888Y-109326965D01*
X98260034Y-109421469D01*
X98340403Y-109501838D01*
X98354220Y-109511070D01*
X98354219Y-110941490D01*
X98352508Y-110958865D01*
X98354219Y-110976239D01*
X98354219Y-110976246D01*
X98357573Y-111010296D01*
X98359342Y-111028261D01*
X98360199Y-111031086D01*
X98379584Y-111094989D01*
X98412455Y-111156487D01*
X98456693Y-111210390D01*
X98470197Y-111221473D01*
X101090757Y-113842034D01*
X101101838Y-113855536D01*
X101155741Y-113899774D01*
X101217239Y-113932645D01*
X101263725Y-113946746D01*
X101283967Y-113952887D01*
X101290187Y-113953500D01*
X101335982Y-113958010D01*
X101335989Y-113958010D01*
X101353364Y-113959721D01*
X101370738Y-113958010D01*
X101861660Y-113958010D01*
X101861660Y-114619631D01*
X100176529Y-112934501D01*
X100165443Y-112920993D01*
X100111540Y-112876755D01*
X100050042Y-112843884D01*
X99983313Y-112823642D01*
X99931299Y-112818519D01*
X99931291Y-112818519D01*
X99913917Y-112816808D01*
X99896543Y-112818519D01*
X94761910Y-112818519D01*
X94655358Y-112711968D01*
X94658600Y-112695670D01*
X94658600Y-112582010D01*
X94636426Y-112470535D01*
X94592931Y-112365528D01*
X94529785Y-112271024D01*
X94449416Y-112190655D01*
X94354912Y-112127509D01*
X94249905Y-112084014D01*
X94138430Y-112061840D01*
X94024770Y-112061840D01*
X93913295Y-112084014D01*
X93808288Y-112127509D01*
X93713784Y-112190655D01*
X93633415Y-112271024D01*
X93570269Y-112365528D01*
X93526774Y-112470535D01*
X93504600Y-112582010D01*
X93504600Y-112695670D01*
X93526774Y-112807145D01*
X93570269Y-112912152D01*
X93633415Y-113006656D01*
X93713784Y-113087025D01*
X93805860Y-113148549D01*
X93734104Y-113196495D01*
X93653735Y-113276864D01*
X93590589Y-113371368D01*
X93547094Y-113476375D01*
X93524920Y-113587850D01*
X93524920Y-113701510D01*
X93547094Y-113812985D01*
X93590589Y-113917992D01*
X93653735Y-114012496D01*
X93734104Y-114092865D01*
X93828608Y-114156011D01*
X93933615Y-114199506D01*
X94045090Y-114221680D01*
X94158750Y-114221680D01*
X94270225Y-114199506D01*
X94375232Y-114156011D01*
X94469736Y-114092865D01*
X94550105Y-114012496D01*
X94559337Y-113998680D01*
X95398050Y-113998680D01*
X95577715Y-114178346D01*
X95487824Y-114178346D01*
X95376349Y-114200520D01*
X95271342Y-114244015D01*
X95176838Y-114307161D01*
X95096469Y-114387530D01*
X95033323Y-114482034D01*
X94989828Y-114587041D01*
X94967654Y-114698516D01*
X94967654Y-114812176D01*
X94989828Y-114923651D01*
X95017655Y-114990831D01*
X95017654Y-115868773D01*
X95015105Y-115894654D01*
X95017654Y-115920534D01*
X95025280Y-115997963D01*
X95055415Y-116097303D01*
X95104350Y-116188856D01*
X95170206Y-116269102D01*
X95190320Y-116285609D01*
X95612390Y-116707680D01*
X94099481Y-118220590D01*
X94074199Y-118223080D01*
X90626164Y-118223080D01*
X90749123Y-118100121D01*
X90718542Y-118069540D01*
X90779704Y-118069540D01*
X90869861Y-117979383D01*
X90895141Y-117941549D01*
X90912554Y-117899510D01*
X90921432Y-117854881D01*
X90921431Y-117809378D01*
X90912554Y-117764750D01*
X90895142Y-117722710D01*
X90869861Y-117684875D01*
X90418726Y-117233740D01*
X90337055Y-117233740D01*
X90099644Y-117471151D01*
X90113786Y-117485293D01*
X89883976Y-117715103D01*
X89869834Y-117700961D01*
X89632423Y-117938372D01*
X89632423Y-118020043D01*
X89875927Y-118263547D01*
X89789438Y-118309776D01*
X89726201Y-118361673D01*
X89714903Y-118362786D01*
X89615563Y-118392921D01*
X89524011Y-118441856D01*
X89443765Y-118507712D01*
X89427262Y-118527822D01*
X89355132Y-118599952D01*
X89283006Y-118527826D01*
X89266499Y-118507712D01*
X89186253Y-118441856D01*
X89094701Y-118392921D01*
X89087890Y-118390855D01*
X88097100Y-117400066D01*
X88080593Y-117379952D01*
X88000347Y-117314096D01*
X87908795Y-117265161D01*
X87809455Y-117235026D01*
X87732026Y-117227400D01*
X87706145Y-117224851D01*
X87680264Y-117227400D01*
X85137190Y-117227400D01*
X85297675Y-117066915D01*
X88797730Y-117066915D01*
X88797731Y-117112418D01*
X88806608Y-117157046D01*
X88824020Y-117199086D01*
X88849301Y-117236921D01*
X89300436Y-117688056D01*
X89382107Y-117688056D01*
X89619518Y-117450645D01*
X89021129Y-116852256D01*
X88939458Y-116852256D01*
X88849301Y-116942413D01*
X88824021Y-116980247D01*
X88806608Y-117022286D01*
X88797730Y-117066915D01*
X85297675Y-117066915D01*
X85719231Y-116645360D01*
X88163183Y-116645360D01*
X88172415Y-116659176D01*
X88252784Y-116739545D01*
X88347288Y-116802691D01*
X88452295Y-116846186D01*
X88563770Y-116868360D01*
X88677430Y-116868360D01*
X88788905Y-116846186D01*
X88893912Y-116802691D01*
X88988416Y-116739545D01*
X89068785Y-116659176D01*
X89131931Y-116564672D01*
X89141829Y-116540775D01*
X89250939Y-116540775D01*
X89250939Y-116622446D01*
X89849328Y-117220835D01*
X90086739Y-116983424D01*
X90086739Y-116901753D01*
X89635604Y-116450618D01*
X89597769Y-116425337D01*
X89555729Y-116407925D01*
X89511101Y-116399048D01*
X89465598Y-116399047D01*
X89420969Y-116407925D01*
X89378930Y-116425338D01*
X89341096Y-116450618D01*
X89250939Y-116540775D01*
X89141829Y-116540775D01*
X89175426Y-116459665D01*
X89197600Y-116348190D01*
X89197600Y-116234530D01*
X89175426Y-116123055D01*
X89131931Y-116018048D01*
X89068785Y-115923544D01*
X88988416Y-115843175D01*
X88893912Y-115780029D01*
X88788905Y-115736534D01*
X88677430Y-115714360D01*
X88563770Y-115714360D01*
X88452295Y-115736534D01*
X88347288Y-115780029D01*
X88252784Y-115843175D01*
X88172415Y-115923544D01*
X88163183Y-115937360D01*
X85589974Y-115937360D01*
X85572600Y-115935649D01*
X85555225Y-115937360D01*
X85555218Y-115937360D01*
X85509423Y-115941870D01*
X85503203Y-115942483D01*
X85436474Y-115962725D01*
X85421360Y-115970804D01*
X85374977Y-115995596D01*
X85321074Y-116039834D01*
X85309993Y-116053336D01*
X85282465Y-116080864D01*
X85370033Y-115790825D01*
X85401000Y-115475000D01*
X85400366Y-115429599D01*
X85360593Y-115114762D01*
X85260425Y-114813646D01*
X85103678Y-114537721D01*
X84896321Y-114297497D01*
X84646254Y-114102123D01*
X84363002Y-113959041D01*
X84057352Y-113873703D01*
X83740948Y-113849357D01*
X83425840Y-113886931D01*
X83124032Y-113984994D01*
X82847020Y-114139811D01*
X82605353Y-114345485D01*
X82408239Y-114594182D01*
X82263183Y-114876429D01*
X82175713Y-115181476D01*
X82149158Y-115497703D01*
X82184532Y-115813064D01*
X82280486Y-116115550D01*
X82433365Y-116393636D01*
X82637347Y-116636733D01*
X82804344Y-116771002D01*
X82123112Y-116771002D01*
X82112838Y-116760728D01*
X82116080Y-116744430D01*
X82116080Y-116630770D01*
X82093906Y-116519295D01*
X82050411Y-116414288D01*
X81987265Y-116319784D01*
X81906896Y-116239415D01*
X81812392Y-116176269D01*
X81707385Y-116132774D01*
X81595910Y-116110600D01*
X81482250Y-116110600D01*
X81370775Y-116132774D01*
X81265768Y-116176269D01*
X81171264Y-116239415D01*
X81090895Y-116319784D01*
X81027749Y-116414288D01*
X80984254Y-116519295D01*
X80962080Y-116630770D01*
X80962080Y-116744430D01*
X80984254Y-116855905D01*
X81027749Y-116960912D01*
X81090895Y-117055416D01*
X81171264Y-117135785D01*
X81265768Y-117198931D01*
X81370775Y-117242426D01*
X81482250Y-117264600D01*
X81595910Y-117264600D01*
X81612208Y-117261358D01*
X81713874Y-117363025D01*
X81724956Y-117376528D01*
X81778859Y-117420766D01*
X81840357Y-117453637D01*
X81886843Y-117467738D01*
X81907085Y-117473879D01*
X81912853Y-117474447D01*
X81959100Y-117479002D01*
X81959107Y-117479002D01*
X81976481Y-117480713D01*
X81993856Y-117479002D01*
X82776663Y-117479002D01*
X82775269Y-117481088D01*
X82731774Y-117586095D01*
X82709600Y-117697570D01*
X82709600Y-117811230D01*
X82731774Y-117922705D01*
X82769159Y-118012962D01*
X81913738Y-118012962D01*
X80377000Y-116476225D01*
X80377000Y-113928340D01*
X80750000Y-113928340D01*
X80804301Y-113922992D01*
X80856516Y-113907153D01*
X80904637Y-113881431D01*
X80946816Y-113846816D01*
X80981431Y-113804637D01*
X81007153Y-113756516D01*
X81022992Y-113704301D01*
X81028340Y-113650000D01*
X81028340Y-111954001D01*
X81453371Y-111954001D01*
X83107753Y-113608384D01*
X83118834Y-113621886D01*
X83172737Y-113666124D01*
X83234235Y-113698995D01*
X83300964Y-113719237D01*
X83352978Y-113724360D01*
X83352986Y-113724360D01*
X83370360Y-113726071D01*
X83387734Y-113724360D01*
X84797197Y-113724360D01*
X84818065Y-113735514D01*
X84884794Y-113755756D01*
X84936808Y-113760879D01*
X84936816Y-113760879D01*
X84954190Y-113762590D01*
X84971564Y-113760879D01*
X85166302Y-113760879D01*
X85183676Y-113762590D01*
X85201050Y-113760879D01*
X85201058Y-113760879D01*
X85253072Y-113755756D01*
X85319801Y-113735514D01*
X85340669Y-113724360D01*
X88073592Y-113724360D01*
X88090966Y-113726071D01*
X88108340Y-113724360D01*
X88108348Y-113724360D01*
X88160362Y-113719237D01*
X88227091Y-113698995D01*
X88288589Y-113666124D01*
X88342492Y-113621886D01*
X88353578Y-113608378D01*
X89839669Y-112122289D01*
X91163145Y-112122289D01*
X91049577Y-112235857D01*
X91036075Y-112246938D01*
X90991837Y-112300841D01*
X90965591Y-112349945D01*
X90958966Y-112362339D01*
X90938723Y-112429068D01*
X90931889Y-112498464D01*
X90933601Y-112515848D01*
X90933600Y-114791167D01*
X90627967Y-115096800D01*
X90593352Y-115138979D01*
X90567630Y-115187100D01*
X90551791Y-115239315D01*
X90546443Y-115293616D01*
X90551791Y-115347917D01*
X90567630Y-115400132D01*
X90593352Y-115448253D01*
X90627967Y-115490432D01*
X91643855Y-116506320D01*
X91554305Y-116506320D01*
X90583192Y-115535207D01*
X90541013Y-115500592D01*
X90492892Y-115474870D01*
X90440677Y-115459031D01*
X90386376Y-115453683D01*
X90332075Y-115459031D01*
X90279860Y-115474870D01*
X90231739Y-115500592D01*
X90189560Y-115535207D01*
X89729941Y-115994826D01*
X89695326Y-116037005D01*
X89669604Y-116085126D01*
X89653765Y-116137341D01*
X89648417Y-116191642D01*
X89653765Y-116245943D01*
X89669604Y-116298158D01*
X89695326Y-116346279D01*
X89729941Y-116388458D01*
X90932022Y-117590539D01*
X90974201Y-117625154D01*
X91022322Y-117650876D01*
X91074537Y-117666715D01*
X91128838Y-117672063D01*
X91183139Y-117666715D01*
X91235354Y-117650876D01*
X91283475Y-117625154D01*
X91325654Y-117590539D01*
X91701873Y-117214320D01*
X92179546Y-117214320D01*
X92196920Y-117216031D01*
X92214294Y-117214320D01*
X92214302Y-117214320D01*
X92266316Y-117209197D01*
X92333045Y-117188955D01*
X92394543Y-117156084D01*
X92448446Y-117111846D01*
X92459532Y-117098338D01*
X93899547Y-115658325D01*
X93913044Y-115647248D01*
X93924121Y-115633751D01*
X93924124Y-115633748D01*
X93957281Y-115593346D01*
X93957282Y-115593345D01*
X93990153Y-115531847D01*
X94009837Y-115466957D01*
X94010395Y-115465119D01*
X94012056Y-115448253D01*
X94015518Y-115413104D01*
X94015518Y-115413097D01*
X94017229Y-115395723D01*
X94015518Y-115378349D01*
X94015518Y-115040292D01*
X94017229Y-115022918D01*
X94015518Y-115005543D01*
X94015518Y-115005536D01*
X94010395Y-114953522D01*
X94007098Y-114942651D01*
X93990153Y-114886793D01*
X93987183Y-114881237D01*
X93957282Y-114825295D01*
X93928380Y-114790079D01*
X93924124Y-114784893D01*
X93924121Y-114784890D01*
X93913043Y-114771392D01*
X93899546Y-114760315D01*
X92911600Y-113772370D01*
X92911600Y-112485750D01*
X95694353Y-109702998D01*
X95707855Y-109691917D01*
X95752093Y-109638014D01*
X95776269Y-109592783D01*
X95784964Y-109576517D01*
X95789819Y-109560513D01*
X95824145Y-109537577D01*
X95904514Y-109457208D01*
X95967660Y-109362704D01*
X96011155Y-109257697D01*
X96033329Y-109146222D01*
X96033329Y-109032562D01*
X96011155Y-108921087D01*
X95967660Y-108816080D01*
X95904514Y-108721576D01*
X95824145Y-108641207D01*
X95729641Y-108578061D01*
X95624634Y-108534566D01*
X95513159Y-108512392D01*
X95399499Y-108512392D01*
X95288024Y-108534566D01*
X95183017Y-108578061D01*
X95088513Y-108641207D01*
X95008144Y-108721576D01*
X94944998Y-108816080D01*
X94901503Y-108921087D01*
X94890527Y-108976264D01*
X94877944Y-108967856D01*
X94912371Y-108884742D01*
X94934545Y-108773267D01*
X94934545Y-108659607D01*
X94912371Y-108548132D01*
X94868876Y-108443125D01*
X94862336Y-108433337D01*
X95957687Y-108433337D01*
X96126242Y-108601892D01*
X96123000Y-108618190D01*
X96123000Y-108731850D01*
X96145174Y-108843325D01*
X96188669Y-108948332D01*
X96251815Y-109042836D01*
X96332184Y-109123205D01*
X96426688Y-109186351D01*
X96531695Y-109229846D01*
X96643170Y-109252020D01*
X96756830Y-109252020D01*
X96868305Y-109229846D01*
X96973312Y-109186351D01*
X97067816Y-109123205D01*
X97148185Y-109042836D01*
X97211331Y-108948332D01*
X97254826Y-108843325D01*
X97277000Y-108731850D01*
X97277000Y-108631178D01*
X97496591Y-108411588D01*
X97477899Y-108456715D01*
X97477899Y-108456715D01*
G37*
X97477899Y-108456715D02*
X97455725Y-108568190D01*
X97455725Y-108681850D01*
X97477899Y-108793325D01*
X97521394Y-108898332D01*
X97584540Y-108992836D01*
X97664909Y-109073205D01*
X97759413Y-109136351D01*
X97864420Y-109179846D01*
X97975895Y-109202020D01*
X98089555Y-109202020D01*
X98147148Y-109190564D01*
X98153393Y-109221958D01*
X98196888Y-109326965D01*
X98260034Y-109421469D01*
X98340403Y-109501838D01*
X98354220Y-109511070D01*
X98354219Y-110941490D01*
X98352508Y-110958865D01*
X98354219Y-110976239D01*
X98354219Y-110976246D01*
X98357573Y-111010296D01*
X98359342Y-111028261D01*
X98360199Y-111031086D01*
X98379584Y-111094989D01*
X98412455Y-111156487D01*
X98456693Y-111210390D01*
X98470197Y-111221473D01*
X101090757Y-113842034D01*
X101101838Y-113855536D01*
X101155741Y-113899774D01*
X101217239Y-113932645D01*
X101263725Y-113946746D01*
X101283967Y-113952887D01*
X101290187Y-113953500D01*
X101335982Y-113958010D01*
X101335989Y-113958010D01*
X101353364Y-113959721D01*
X101370738Y-113958010D01*
X101861660Y-113958010D01*
X101861660Y-114619631D01*
X100176529Y-112934501D01*
X100165443Y-112920993D01*
X100111540Y-112876755D01*
X100050042Y-112843884D01*
X99983313Y-112823642D01*
X99931299Y-112818519D01*
X99931291Y-112818519D01*
X99913917Y-112816808D01*
X99896543Y-112818519D01*
X94761910Y-112818519D01*
X94655358Y-112711968D01*
X94658600Y-112695670D01*
X94658600Y-112582010D01*
X94636426Y-112470535D01*
X94592931Y-112365528D01*
X94529785Y-112271024D01*
X94449416Y-112190655D01*
X94354912Y-112127509D01*
X94249905Y-112084014D01*
X94138430Y-112061840D01*
X94024770Y-112061840D01*
X93913295Y-112084014D01*
X93808288Y-112127509D01*
X93713784Y-112190655D01*
X93633415Y-112271024D01*
X93570269Y-112365528D01*
X93526774Y-112470535D01*
X93504600Y-112582010D01*
X93504600Y-112695670D01*
X93526774Y-112807145D01*
X93570269Y-112912152D01*
X93633415Y-113006656D01*
X93713784Y-113087025D01*
X93805860Y-113148549D01*
X93734104Y-113196495D01*
X93653735Y-113276864D01*
X93590589Y-113371368D01*
X93547094Y-113476375D01*
X93524920Y-113587850D01*
X93524920Y-113701510D01*
X93547094Y-113812985D01*
X93590589Y-113917992D01*
X93653735Y-114012496D01*
X93734104Y-114092865D01*
X93828608Y-114156011D01*
X93933615Y-114199506D01*
X94045090Y-114221680D01*
X94158750Y-114221680D01*
X94270225Y-114199506D01*
X94375232Y-114156011D01*
X94469736Y-114092865D01*
X94550105Y-114012496D01*
X94559337Y-113998680D01*
X95398050Y-113998680D01*
X95577715Y-114178346D01*
X95487824Y-114178346D01*
X95376349Y-114200520D01*
X95271342Y-114244015D01*
X95176838Y-114307161D01*
X95096469Y-114387530D01*
X95033323Y-114482034D01*
X94989828Y-114587041D01*
X94967654Y-114698516D01*
X94967654Y-114812176D01*
X94989828Y-114923651D01*
X95017655Y-114990831D01*
X95017654Y-115868773D01*
X95015105Y-115894654D01*
X95017654Y-115920534D01*
X95025280Y-115997963D01*
X95055415Y-116097303D01*
X95104350Y-116188856D01*
X95170206Y-116269102D01*
X95190320Y-116285609D01*
X95612390Y-116707680D01*
X94099481Y-118220590D01*
X94074199Y-118223080D01*
X90626164Y-118223080D01*
X90749123Y-118100121D01*
X90718542Y-118069540D01*
X90779704Y-118069540D01*
X90869861Y-117979383D01*
X90895141Y-117941549D01*
X90912554Y-117899510D01*
X90921432Y-117854881D01*
X90921431Y-117809378D01*
X90912554Y-117764750D01*
X90895142Y-117722710D01*
X90869861Y-117684875D01*
X90418726Y-117233740D01*
X90337055Y-117233740D01*
X90099644Y-117471151D01*
X90113786Y-117485293D01*
X89883976Y-117715103D01*
X89869834Y-117700961D01*
X89632423Y-117938372D01*
X89632423Y-118020043D01*
X89875927Y-118263547D01*
X89789438Y-118309776D01*
X89726201Y-118361673D01*
X89714903Y-118362786D01*
X89615563Y-118392921D01*
X89524011Y-118441856D01*
X89443765Y-118507712D01*
X89427262Y-118527822D01*
X89355132Y-118599952D01*
X89283006Y-118527826D01*
X89266499Y-118507712D01*
X89186253Y-118441856D01*
X89094701Y-118392921D01*
X89087890Y-118390855D01*
X88097100Y-117400066D01*
X88080593Y-117379952D01*
X88000347Y-117314096D01*
X87908795Y-117265161D01*
X87809455Y-117235026D01*
X87732026Y-117227400D01*
X87706145Y-117224851D01*
X87680264Y-117227400D01*
X85137190Y-117227400D01*
X85297675Y-117066915D01*
X88797730Y-117066915D01*
X88797731Y-117112418D01*
X88806608Y-117157046D01*
X88824020Y-117199086D01*
X88849301Y-117236921D01*
X89300436Y-117688056D01*
X89382107Y-117688056D01*
X89619518Y-117450645D01*
X89021129Y-116852256D01*
X88939458Y-116852256D01*
X88849301Y-116942413D01*
X88824021Y-116980247D01*
X88806608Y-117022286D01*
X88797730Y-117066915D01*
X85297675Y-117066915D01*
X85719231Y-116645360D01*
X88163183Y-116645360D01*
X88172415Y-116659176D01*
X88252784Y-116739545D01*
X88347288Y-116802691D01*
X88452295Y-116846186D01*
X88563770Y-116868360D01*
X88677430Y-116868360D01*
X88788905Y-116846186D01*
X88893912Y-116802691D01*
X88988416Y-116739545D01*
X89068785Y-116659176D01*
X89131931Y-116564672D01*
X89141829Y-116540775D01*
X89250939Y-116540775D01*
X89250939Y-116622446D01*
X89849328Y-117220835D01*
X90086739Y-116983424D01*
X90086739Y-116901753D01*
X89635604Y-116450618D01*
X89597769Y-116425337D01*
X89555729Y-116407925D01*
X89511101Y-116399048D01*
X89465598Y-116399047D01*
X89420969Y-116407925D01*
X89378930Y-116425338D01*
X89341096Y-116450618D01*
X89250939Y-116540775D01*
X89141829Y-116540775D01*
X89175426Y-116459665D01*
X89197600Y-116348190D01*
X89197600Y-116234530D01*
X89175426Y-116123055D01*
X89131931Y-116018048D01*
X89068785Y-115923544D01*
X88988416Y-115843175D01*
X88893912Y-115780029D01*
X88788905Y-115736534D01*
X88677430Y-115714360D01*
X88563770Y-115714360D01*
X88452295Y-115736534D01*
X88347288Y-115780029D01*
X88252784Y-115843175D01*
X88172415Y-115923544D01*
X88163183Y-115937360D01*
X85589974Y-115937360D01*
X85572600Y-115935649D01*
X85555225Y-115937360D01*
X85555218Y-115937360D01*
X85509423Y-115941870D01*
X85503203Y-115942483D01*
X85436474Y-115962725D01*
X85421360Y-115970804D01*
X85374977Y-115995596D01*
X85321074Y-116039834D01*
X85309993Y-116053336D01*
X85282465Y-116080864D01*
X85370033Y-115790825D01*
X85401000Y-115475000D01*
X85400366Y-115429599D01*
X85360593Y-115114762D01*
X85260425Y-114813646D01*
X85103678Y-114537721D01*
X84896321Y-114297497D01*
X84646254Y-114102123D01*
X84363002Y-113959041D01*
X84057352Y-113873703D01*
X83740948Y-113849357D01*
X83425840Y-113886931D01*
X83124032Y-113984994D01*
X82847020Y-114139811D01*
X82605353Y-114345485D01*
X82408239Y-114594182D01*
X82263183Y-114876429D01*
X82175713Y-115181476D01*
X82149158Y-115497703D01*
X82184532Y-115813064D01*
X82280486Y-116115550D01*
X82433365Y-116393636D01*
X82637347Y-116636733D01*
X82804344Y-116771002D01*
X82123112Y-116771002D01*
X82112838Y-116760728D01*
X82116080Y-116744430D01*
X82116080Y-116630770D01*
X82093906Y-116519295D01*
X82050411Y-116414288D01*
X81987265Y-116319784D01*
X81906896Y-116239415D01*
X81812392Y-116176269D01*
X81707385Y-116132774D01*
X81595910Y-116110600D01*
X81482250Y-116110600D01*
X81370775Y-116132774D01*
X81265768Y-116176269D01*
X81171264Y-116239415D01*
X81090895Y-116319784D01*
X81027749Y-116414288D01*
X80984254Y-116519295D01*
X80962080Y-116630770D01*
X80962080Y-116744430D01*
X80984254Y-116855905D01*
X81027749Y-116960912D01*
X81090895Y-117055416D01*
X81171264Y-117135785D01*
X81265768Y-117198931D01*
X81370775Y-117242426D01*
X81482250Y-117264600D01*
X81595910Y-117264600D01*
X81612208Y-117261358D01*
X81713874Y-117363025D01*
X81724956Y-117376528D01*
X81778859Y-117420766D01*
X81840357Y-117453637D01*
X81886843Y-117467738D01*
X81907085Y-117473879D01*
X81912853Y-117474447D01*
X81959100Y-117479002D01*
X81959107Y-117479002D01*
X81976481Y-117480713D01*
X81993856Y-117479002D01*
X82776663Y-117479002D01*
X82775269Y-117481088D01*
X82731774Y-117586095D01*
X82709600Y-117697570D01*
X82709600Y-117811230D01*
X82731774Y-117922705D01*
X82769159Y-118012962D01*
X81913738Y-118012962D01*
X80377000Y-116476225D01*
X80377000Y-113928340D01*
X80750000Y-113928340D01*
X80804301Y-113922992D01*
X80856516Y-113907153D01*
X80904637Y-113881431D01*
X80946816Y-113846816D01*
X80981431Y-113804637D01*
X81007153Y-113756516D01*
X81022992Y-113704301D01*
X81028340Y-113650000D01*
X81028340Y-111954001D01*
X81453371Y-111954001D01*
X83107753Y-113608384D01*
X83118834Y-113621886D01*
X83172737Y-113666124D01*
X83234235Y-113698995D01*
X83300964Y-113719237D01*
X83352978Y-113724360D01*
X83352986Y-113724360D01*
X83370360Y-113726071D01*
X83387734Y-113724360D01*
X84797197Y-113724360D01*
X84818065Y-113735514D01*
X84884794Y-113755756D01*
X84936808Y-113760879D01*
X84936816Y-113760879D01*
X84954190Y-113762590D01*
X84971564Y-113760879D01*
X85166302Y-113760879D01*
X85183676Y-113762590D01*
X85201050Y-113760879D01*
X85201058Y-113760879D01*
X85253072Y-113755756D01*
X85319801Y-113735514D01*
X85340669Y-113724360D01*
X88073592Y-113724360D01*
X88090966Y-113726071D01*
X88108340Y-113724360D01*
X88108348Y-113724360D01*
X88160362Y-113719237D01*
X88227091Y-113698995D01*
X88288589Y-113666124D01*
X88342492Y-113621886D01*
X88353578Y-113608378D01*
X89839669Y-112122289D01*
X91163145Y-112122289D01*
X91049577Y-112235857D01*
X91036075Y-112246938D01*
X90991837Y-112300841D01*
X90965591Y-112349945D01*
X90958966Y-112362339D01*
X90938723Y-112429068D01*
X90931889Y-112498464D01*
X90933601Y-112515848D01*
X90933600Y-114791167D01*
X90627967Y-115096800D01*
X90593352Y-115138979D01*
X90567630Y-115187100D01*
X90551791Y-115239315D01*
X90546443Y-115293616D01*
X90551791Y-115347917D01*
X90567630Y-115400132D01*
X90593352Y-115448253D01*
X90627967Y-115490432D01*
X91643855Y-116506320D01*
X91554305Y-116506320D01*
X90583192Y-115535207D01*
X90541013Y-115500592D01*
X90492892Y-115474870D01*
X90440677Y-115459031D01*
X90386376Y-115453683D01*
X90332075Y-115459031D01*
X90279860Y-115474870D01*
X90231739Y-115500592D01*
X90189560Y-115535207D01*
X89729941Y-115994826D01*
X89695326Y-116037005D01*
X89669604Y-116085126D01*
X89653765Y-116137341D01*
X89648417Y-116191642D01*
X89653765Y-116245943D01*
X89669604Y-116298158D01*
X89695326Y-116346279D01*
X89729941Y-116388458D01*
X90932022Y-117590539D01*
X90974201Y-117625154D01*
X91022322Y-117650876D01*
X91074537Y-117666715D01*
X91128838Y-117672063D01*
X91183139Y-117666715D01*
X91235354Y-117650876D01*
X91283475Y-117625154D01*
X91325654Y-117590539D01*
X91701873Y-117214320D01*
X92179546Y-117214320D01*
X92196920Y-117216031D01*
X92214294Y-117214320D01*
X92214302Y-117214320D01*
X92266316Y-117209197D01*
X92333045Y-117188955D01*
X92394543Y-117156084D01*
X92448446Y-117111846D01*
X92459532Y-117098338D01*
X93899547Y-115658325D01*
X93913044Y-115647248D01*
X93924121Y-115633751D01*
X93924124Y-115633748D01*
X93957281Y-115593346D01*
X93957282Y-115593345D01*
X93990153Y-115531847D01*
X94009837Y-115466957D01*
X94010395Y-115465119D01*
X94012056Y-115448253D01*
X94015518Y-115413104D01*
X94015518Y-115413097D01*
X94017229Y-115395723D01*
X94015518Y-115378349D01*
X94015518Y-115040292D01*
X94017229Y-115022918D01*
X94015518Y-115005543D01*
X94015518Y-115005536D01*
X94010395Y-114953522D01*
X94007098Y-114942651D01*
X93990153Y-114886793D01*
X93987183Y-114881237D01*
X93957282Y-114825295D01*
X93928380Y-114790079D01*
X93924124Y-114784893D01*
X93924121Y-114784890D01*
X93913043Y-114771392D01*
X93899546Y-114760315D01*
X92911600Y-113772370D01*
X92911600Y-112485750D01*
X95694353Y-109702998D01*
X95707855Y-109691917D01*
X95752093Y-109638014D01*
X95776269Y-109592783D01*
X95784964Y-109576517D01*
X95789819Y-109560513D01*
X95824145Y-109537577D01*
X95904514Y-109457208D01*
X95967660Y-109362704D01*
X96011155Y-109257697D01*
X96033329Y-109146222D01*
X96033329Y-109032562D01*
X96011155Y-108921087D01*
X95967660Y-108816080D01*
X95904514Y-108721576D01*
X95824145Y-108641207D01*
X95729641Y-108578061D01*
X95624634Y-108534566D01*
X95513159Y-108512392D01*
X95399499Y-108512392D01*
X95288024Y-108534566D01*
X95183017Y-108578061D01*
X95088513Y-108641207D01*
X95008144Y-108721576D01*
X94944998Y-108816080D01*
X94901503Y-108921087D01*
X94890527Y-108976264D01*
X94877944Y-108967856D01*
X94912371Y-108884742D01*
X94934545Y-108773267D01*
X94934545Y-108659607D01*
X94912371Y-108548132D01*
X94868876Y-108443125D01*
X94862336Y-108433337D01*
X95957687Y-108433337D01*
X96126242Y-108601892D01*
X96123000Y-108618190D01*
X96123000Y-108731850D01*
X96145174Y-108843325D01*
X96188669Y-108948332D01*
X96251815Y-109042836D01*
X96332184Y-109123205D01*
X96426688Y-109186351D01*
X96531695Y-109229846D01*
X96643170Y-109252020D01*
X96756830Y-109252020D01*
X96868305Y-109229846D01*
X96973312Y-109186351D01*
X97067816Y-109123205D01*
X97148185Y-109042836D01*
X97211331Y-108948332D01*
X97254826Y-108843325D01*
X97277000Y-108731850D01*
X97277000Y-108631178D01*
X97496591Y-108411588D01*
X97477899Y-108456715D01*
G36*
X99911768Y-113671000D02*
X97917374Y-113671000D01*
X97900000Y-113669289D01*
X97882626Y-113671000D01*
X97882618Y-113671000D01*
X97830604Y-113676123D01*
X97763875Y-113696365D01*
X97702377Y-113729236D01*
X97648474Y-113773474D01*
X97637393Y-113786976D01*
X96940565Y-114483805D01*
X96927062Y-114494887D01*
X96882824Y-114548790D01*
X96855671Y-114599591D01*
X96854000Y-114582626D01*
X96854000Y-114582618D01*
X96848877Y-114530604D01*
X96828635Y-114463875D01*
X96795764Y-114402377D01*
X96783579Y-114387530D01*
X96762607Y-114361975D01*
X96762603Y-114361971D01*
X96751526Y-114348474D01*
X96738029Y-114337397D01*
X95927149Y-113526519D01*
X99767287Y-113526519D01*
X99911768Y-113671000D01*
X99911768Y-113671000D01*
G37*
X99911768Y-113671000D02*
X97917374Y-113671000D01*
X97900000Y-113669289D01*
X97882626Y-113671000D01*
X97882618Y-113671000D01*
X97830604Y-113676123D01*
X97763875Y-113696365D01*
X97702377Y-113729236D01*
X97648474Y-113773474D01*
X97637393Y-113786976D01*
X96940565Y-114483805D01*
X96927062Y-114494887D01*
X96882824Y-114548790D01*
X96855671Y-114599591D01*
X96854000Y-114582626D01*
X96854000Y-114582618D01*
X96848877Y-114530604D01*
X96828635Y-114463875D01*
X96795764Y-114402377D01*
X96783579Y-114387530D01*
X96762607Y-114361975D01*
X96762603Y-114361971D01*
X96751526Y-114348474D01*
X96738029Y-114337397D01*
X95927149Y-113526519D01*
X99767287Y-113526519D01*
X99911768Y-113671000D01*
G36*
X103116591Y-109093461D02*
X103112020Y-109099031D01*
X103079149Y-109160528D01*
X103058906Y-109227257D01*
X103052072Y-109296653D01*
X103058906Y-109366049D01*
X103079149Y-109432778D01*
X103112020Y-109494275D01*
X103134414Y-109521562D01*
X103130782Y-109539822D01*
X103130782Y-109611545D01*
X103112732Y-109611545D01*
X103096435Y-109614787D01*
X102940289Y-109458642D01*
X102929204Y-109445135D01*
X102875301Y-109400897D01*
X102813803Y-109368026D01*
X102747074Y-109347784D01*
X102695060Y-109342661D01*
X102695052Y-109342661D01*
X102677678Y-109340950D01*
X102660304Y-109342661D01*
X101120166Y-109342661D01*
X101110934Y-109328845D01*
X101030565Y-109248476D01*
X100936061Y-109185330D01*
X100857411Y-109152753D01*
X100859655Y-109147336D01*
X100881829Y-109035861D01*
X100881829Y-108922201D01*
X100859655Y-108810726D01*
X100836996Y-108756021D01*
X101846885Y-108756021D01*
X101864259Y-108757732D01*
X101881633Y-108756021D01*
X101881641Y-108756021D01*
X101933655Y-108750898D01*
X102000384Y-108730656D01*
X102061882Y-108697785D01*
X102115785Y-108653547D01*
X102126871Y-108640039D01*
X102188590Y-108578320D01*
X102601450Y-108578320D01*
X103116591Y-109093461D01*
X103116591Y-109093461D01*
G37*
X103116591Y-109093461D02*
X103112020Y-109099031D01*
X103079149Y-109160528D01*
X103058906Y-109227257D01*
X103052072Y-109296653D01*
X103058906Y-109366049D01*
X103079149Y-109432778D01*
X103112020Y-109494275D01*
X103134414Y-109521562D01*
X103130782Y-109539822D01*
X103130782Y-109611545D01*
X103112732Y-109611545D01*
X103096435Y-109614787D01*
X102940289Y-109458642D01*
X102929204Y-109445135D01*
X102875301Y-109400897D01*
X102813803Y-109368026D01*
X102747074Y-109347784D01*
X102695060Y-109342661D01*
X102695052Y-109342661D01*
X102677678Y-109340950D01*
X102660304Y-109342661D01*
X101120166Y-109342661D01*
X101110934Y-109328845D01*
X101030565Y-109248476D01*
X100936061Y-109185330D01*
X100857411Y-109152753D01*
X100859655Y-109147336D01*
X100881829Y-109035861D01*
X100881829Y-108922201D01*
X100859655Y-108810726D01*
X100836996Y-108756021D01*
X101846885Y-108756021D01*
X101864259Y-108757732D01*
X101881633Y-108756021D01*
X101881641Y-108756021D01*
X101933655Y-108750898D01*
X102000384Y-108730656D01*
X102061882Y-108697785D01*
X102115785Y-108653547D01*
X102126871Y-108640039D01*
X102188590Y-108578320D01*
X102601450Y-108578320D01*
X103116591Y-109093461D01*
G36*
X90780334Y-107976954D02*
X90780331Y-107976957D01*
X90766834Y-107988034D01*
X90755757Y-108001531D01*
X89478110Y-109279180D01*
X89436690Y-109237760D01*
X89115940Y-109237760D01*
X89115940Y-109274760D01*
X88820940Y-109274760D01*
X88820940Y-109237760D01*
X88771440Y-109237760D01*
X88771440Y-108917760D01*
X88820940Y-108917760D01*
X88820940Y-108880760D01*
X89115940Y-108880760D01*
X89115940Y-108917760D01*
X89436690Y-108917760D01*
X89494440Y-108860010D01*
X89494440Y-108837049D01*
X89530703Y-108829836D01*
X89635710Y-108786341D01*
X89730214Y-108723195D01*
X89810583Y-108642826D01*
X89873729Y-108548322D01*
X89917224Y-108443315D01*
X89939398Y-108331840D01*
X89939398Y-108218180D01*
X89917224Y-108106705D01*
X89873729Y-108001698D01*
X89843194Y-107956000D01*
X90805867Y-107956000D01*
X90780334Y-107976954D01*
X90780334Y-107976954D01*
G37*
X90780334Y-107976954D02*
X90780331Y-107976957D01*
X90766834Y-107988034D01*
X90755757Y-108001531D01*
X89478110Y-109279180D01*
X89436690Y-109237760D01*
X89115940Y-109237760D01*
X89115940Y-109274760D01*
X88820940Y-109274760D01*
X88820940Y-109237760D01*
X88771440Y-109237760D01*
X88771440Y-108917760D01*
X88820940Y-108917760D01*
X88820940Y-108880760D01*
X89115940Y-108880760D01*
X89115940Y-108917760D01*
X89436690Y-108917760D01*
X89494440Y-108860010D01*
X89494440Y-108837049D01*
X89530703Y-108829836D01*
X89635710Y-108786341D01*
X89730214Y-108723195D01*
X89810583Y-108642826D01*
X89873729Y-108548322D01*
X89917224Y-108443315D01*
X89939398Y-108331840D01*
X89939398Y-108218180D01*
X89917224Y-108106705D01*
X89873729Y-108001698D01*
X89843194Y-107956000D01*
X90805867Y-107956000D01*
X90780334Y-107976954D01*
M02*
