M48
;DRILL file {KiCad 5.0.1} date So 18 Nov 2018 21:12:47 CET
;FORMAT={-:-/ absolute / inch / decimal}
FMAT,2
INCH,TZ
T1C0.0118
T2C0.0276
T3C0.0315
T4C0.0394
T5C0.0630
%
G90
G05
M72
T1
X2.8543Y-4.439
X2.8593Y-4.2648
X2.9331Y-4.1949
X2.9626Y-4.3209
X3.0059Y-4.4055
X3.0217Y-4.5374
X3.1102Y-4.1929
X3.2Y-4.75
X3.2037Y-4.5846
X3.2047Y-4.6211
X3.2165Y-4.2618
X3.4528Y-4.565
X3.4537Y-4.3268
X3.4622Y-4.6018
X3.4882Y-4.2913
X3.5089Y-4.5281
X3.5182Y-4.2628
X3.5571Y-4.6752
X3.5763Y-4.3631
X3.6024Y-4.3878
X3.6064Y-4.6541
X3.687Y-4.6024
X3.6881Y-4.4954
X3.6881Y-4.4639
X3.6886Y-4.3452
X3.689Y-4.3012
X3.7126Y-4.7126
X3.7162Y-4.2785
X3.7275Y-4.3127
X3.7411Y-4.7953
X3.7539Y-4.7382
X3.7569Y-4.4173
X3.7581Y-4.2949
X3.7616Y-4.5179
X3.8071Y-4.2785
X3.8259Y-4.553
X3.8317Y-4.3435
X3.8317Y-4.8376
X3.8596Y-4.2766
X3.8819Y-4.6102
X3.8862Y-4.2935
X3.8942Y-4.5487
X3.9006Y-4.4213
X3.9175Y-4.2905
X3.9328Y-4.5318
X3.949Y-4.2905
X3.9577Y-4.7008
X3.9587Y-4.5965
X3.9631Y-4.3188
X3.9776Y-4.4044
X3.9859Y-4.295
X3.9931Y-4.627
X3.9949Y-4.3523
X4.0226Y-4.2306
X4.0295Y-4.2874
X4.0531Y-4.6368
X4.0557Y-4.5906
X4.0618Y-4.3381
X4.083Y-4.3148
X4.0837Y-4.3631
X4.1273Y-4.3747
X4.1457Y-4.4321
X4.1555Y-4.2441
X4.1752Y-4.6181
X4.1959Y-4.6486
X4.2136Y-4.4646
X4.2323Y-4.2382
X4.2431Y-4.2057
X4.2608Y-4.4646
X4.2657Y-4.1811
X4.2825Y-4.3976
X4.3583Y-4.2618
X4.3612Y-4.3514
T2
X4.0409Y-4.5039
X4.0909Y-4.5039
X4.1409Y-4.5039
X4.1909Y-4.5039
X4.2409Y-4.5039
X4.2909Y-4.5039
T3
X3.5512Y-4.7697
X3.6208Y-4.8393
X3.9232Y-4.7559
X4.0217Y-4.7559
T4
X3.6339Y-4.3169
X3.1457Y-4.3409
X3.1457Y-4.4409
X3.3878Y-4.6874
X3.3878Y-4.7874
T5
X3.8248Y-4.6575
X4.1201Y-4.6575
T0
M30
