%TF.GenerationSoftware,KiCad,Pcbnew,5.0.1*%
%TF.CreationDate,2018-11-18T21:12:45+01:00*%
%TF.ProjectId,lightball,6C6967687462616C6C2E6B696361645F,rev?*%
%TF.SameCoordinates,Original*%
%TF.FileFunction,Soldermask,Bot*%
%TF.FilePolarity,Negative*%
%FSLAX46Y46*%
G04 Gerber Fmt 4.6, Leading zero omitted, Abs format (unit mm)*
G04 Created by KiCad (PCBNEW 5.0.1) date So 18 Nov 2018 21:12:45 CET*
%MOMM*%
%LPD*%
G01*
G04 APERTURE LIST*
%ADD10C,0.150000*%
%ADD11C,0.100000*%
G04 APERTURE END LIST*
D10*
X73975000Y-113550000D02*
X72575000Y-113550000D01*
X73975000Y-117200000D02*
X73975000Y-113550000D01*
X112660414Y-110153935D02*
G75*
G02X73975000Y-117200000I-21460414J8103935D01*
G01*
X112675000Y-104650000D02*
X112663015Y-110154914D01*
X104050000Y-104650000D02*
X112675000Y-104650000D01*
X100250000Y-107650000D02*
X104050000Y-104650000D01*
X80300000Y-107650000D02*
X100250000Y-107650000D01*
X80300000Y-105000000D02*
X80300000Y-107650000D01*
X70050000Y-105000000D02*
X80300000Y-105000000D01*
X70050000Y-112150000D02*
X70050000Y-105000000D01*
X70850000Y-113550000D02*
X70050000Y-112150000D01*
X72575000Y-113550000D02*
X70850000Y-113550000D01*
X103275000Y-112400000D02*
G75*
G03X103275000Y-112400000I-700000J0D01*
G01*
X85075000Y-115475000D02*
G75*
G03X85075000Y-115475000I-1300000J0D01*
G01*
D11*
G36*
X92215995Y-122099470D02*
X92370867Y-122163620D01*
X92510248Y-122256752D01*
X92628782Y-122375286D01*
X92721914Y-122514667D01*
X92786064Y-122669539D01*
X92818767Y-122833951D01*
X92818767Y-123001583D01*
X92786064Y-123165995D01*
X92721914Y-123320867D01*
X92628782Y-123460248D01*
X92510248Y-123578782D01*
X92370867Y-123671914D01*
X92215995Y-123736064D01*
X92051583Y-123768767D01*
X91883951Y-123768767D01*
X91719539Y-123736064D01*
X91564667Y-123671914D01*
X91425286Y-123578782D01*
X91306752Y-123460248D01*
X91213620Y-123320867D01*
X91149470Y-123165995D01*
X91116767Y-123001583D01*
X91116767Y-122833951D01*
X91149470Y-122669539D01*
X91213620Y-122514667D01*
X91306752Y-122375286D01*
X91425286Y-122256752D01*
X91564667Y-122163620D01*
X91719539Y-122099470D01*
X91883951Y-122066767D01*
X92051583Y-122066767D01*
X92215995Y-122099470D01*
X92215995Y-122099470D01*
G37*
G36*
X86951000Y-122501000D02*
X85149000Y-122501000D01*
X85149000Y-120699000D01*
X86951000Y-120699000D01*
X86951000Y-122501000D01*
X86951000Y-122501000D01*
G37*
G36*
X91403496Y-121150000D02*
X90200000Y-122353496D01*
X88996504Y-121150000D01*
X90200000Y-119946504D01*
X91403496Y-121150000D01*
X91403496Y-121150000D01*
G37*
G36*
X99839890Y-120174017D02*
X99958361Y-120223089D01*
X100064992Y-120294338D01*
X100155662Y-120385008D01*
X100226911Y-120491639D01*
X100275983Y-120610110D01*
X100301000Y-120735881D01*
X100301000Y-120864119D01*
X100275983Y-120989890D01*
X100226911Y-121108361D01*
X100155662Y-121214992D01*
X100064992Y-121305662D01*
X99958361Y-121376911D01*
X99839890Y-121425983D01*
X99714119Y-121451000D01*
X99585881Y-121451000D01*
X99460110Y-121425983D01*
X99341639Y-121376911D01*
X99235008Y-121305662D01*
X99144338Y-121214992D01*
X99073089Y-121108361D01*
X99024017Y-120989890D01*
X98999000Y-120864119D01*
X98999000Y-120735881D01*
X99024017Y-120610110D01*
X99073089Y-120491639D01*
X99144338Y-120385008D01*
X99235008Y-120294338D01*
X99341639Y-120223089D01*
X99460110Y-120174017D01*
X99585881Y-120149000D01*
X99714119Y-120149000D01*
X99839890Y-120174017D01*
X99839890Y-120174017D01*
G37*
G36*
X102339890Y-120174017D02*
X102458361Y-120223089D01*
X102564992Y-120294338D01*
X102655662Y-120385008D01*
X102726911Y-120491639D01*
X102775983Y-120610110D01*
X102801000Y-120735881D01*
X102801000Y-120864119D01*
X102775983Y-120989890D01*
X102726911Y-121108361D01*
X102655662Y-121214992D01*
X102564992Y-121305662D01*
X102458361Y-121376911D01*
X102339890Y-121425983D01*
X102214119Y-121451000D01*
X102085881Y-121451000D01*
X101960110Y-121425983D01*
X101841639Y-121376911D01*
X101735008Y-121305662D01*
X101644338Y-121214992D01*
X101573089Y-121108361D01*
X101524017Y-120989890D01*
X101499000Y-120864119D01*
X101499000Y-120735881D01*
X101524017Y-120610110D01*
X101573089Y-120491639D01*
X101644338Y-120385008D01*
X101735008Y-120294338D01*
X101841639Y-120223089D01*
X101960110Y-120174017D01*
X102085881Y-120149000D01*
X102214119Y-120149000D01*
X102339890Y-120174017D01*
X102339890Y-120174017D01*
G37*
G36*
X103906152Y-119443914D02*
X103913265Y-119467363D01*
X103926356Y-119491224D01*
X104517393Y-120335312D01*
X103614688Y-120967393D01*
X102982607Y-120064688D01*
X103222886Y-119896443D01*
X103885312Y-119432607D01*
X103903766Y-119419686D01*
X103906152Y-119443914D01*
X103906152Y-119443914D01*
G37*
G36*
X86160443Y-118165519D02*
X86226627Y-118172037D01*
X86314009Y-118198544D01*
X86396467Y-118223557D01*
X86487820Y-118272387D01*
X86552991Y-118307222D01*
X86554281Y-118308281D01*
X86690186Y-118419814D01*
X86753131Y-118496514D01*
X86802778Y-118557009D01*
X86802779Y-118557011D01*
X86886443Y-118713533D01*
X86894755Y-118740935D01*
X86937963Y-118883373D01*
X86955359Y-119060000D01*
X86937963Y-119236627D01*
X86918870Y-119299569D01*
X86886443Y-119406467D01*
X86853893Y-119467363D01*
X86802778Y-119562991D01*
X86773448Y-119598729D01*
X86690186Y-119700186D01*
X86599072Y-119774960D01*
X86552991Y-119812778D01*
X86552989Y-119812779D01*
X86396467Y-119896443D01*
X86339853Y-119913616D01*
X86226627Y-119947963D01*
X86160443Y-119954481D01*
X86094260Y-119961000D01*
X86005740Y-119961000D01*
X85939557Y-119954481D01*
X85873373Y-119947963D01*
X85760147Y-119913616D01*
X85703533Y-119896443D01*
X85547011Y-119812779D01*
X85547009Y-119812778D01*
X85500928Y-119774960D01*
X85409814Y-119700186D01*
X85326552Y-119598729D01*
X85297222Y-119562991D01*
X85246107Y-119467363D01*
X85213557Y-119406467D01*
X85181130Y-119299569D01*
X85162037Y-119236627D01*
X85144641Y-119060000D01*
X85162037Y-118883373D01*
X85205245Y-118740935D01*
X85213557Y-118713533D01*
X85297221Y-118557011D01*
X85297222Y-118557009D01*
X85346869Y-118496514D01*
X85409814Y-118419814D01*
X85545719Y-118308281D01*
X85547009Y-118307222D01*
X85612180Y-118272387D01*
X85703533Y-118223557D01*
X85785991Y-118198544D01*
X85873373Y-118172037D01*
X85939557Y-118165519D01*
X86005740Y-118159000D01*
X86094260Y-118159000D01*
X86160443Y-118165519D01*
X86160443Y-118165519D01*
G37*
G36*
X101157063Y-118234438D02*
X101177681Y-118240692D01*
X101196681Y-118250848D01*
X101218106Y-118268431D01*
X101542463Y-118592788D01*
X101560046Y-118614213D01*
X101570202Y-118633213D01*
X101576456Y-118653831D01*
X101578567Y-118675269D01*
X101576456Y-118696710D01*
X101567285Y-118726941D01*
X101562504Y-118750974D01*
X101562504Y-118775479D01*
X101567284Y-118799512D01*
X101576662Y-118822151D01*
X101590275Y-118842526D01*
X101607602Y-118859853D01*
X101627977Y-118873467D01*
X101650616Y-118882844D01*
X101674649Y-118887625D01*
X101699154Y-118887625D01*
X101712471Y-118884976D01*
X101739375Y-118882327D01*
X101760813Y-118884438D01*
X101781431Y-118890692D01*
X101800431Y-118900848D01*
X101821856Y-118918431D01*
X102181569Y-119278144D01*
X102199152Y-119299569D01*
X102209308Y-119318569D01*
X102215562Y-119339187D01*
X102217673Y-119360625D01*
X102215562Y-119382063D01*
X102209308Y-119402681D01*
X102199152Y-119421681D01*
X102181569Y-119443106D01*
X101857212Y-119767463D01*
X101835787Y-119785046D01*
X101816787Y-119795202D01*
X101796169Y-119801456D01*
X101774731Y-119803567D01*
X101753293Y-119801456D01*
X101732675Y-119795202D01*
X101713675Y-119785046D01*
X101692250Y-119767463D01*
X101332537Y-119407750D01*
X101314954Y-119386325D01*
X101304798Y-119367325D01*
X101298544Y-119346707D01*
X101296433Y-119325269D01*
X101298544Y-119303828D01*
X101299486Y-119300724D01*
X101304267Y-119276691D01*
X101304267Y-119252186D01*
X101299487Y-119228153D01*
X101290109Y-119205514D01*
X101276496Y-119185139D01*
X101259169Y-119167812D01*
X101238794Y-119154198D01*
X101216155Y-119144821D01*
X101192122Y-119140040D01*
X101167617Y-119140040D01*
X101143585Y-119144820D01*
X101121709Y-119151456D01*
X101100269Y-119153567D01*
X101078831Y-119151456D01*
X101058213Y-119145202D01*
X101039213Y-119135046D01*
X101017788Y-119117463D01*
X100693431Y-118793106D01*
X100675848Y-118771681D01*
X100665692Y-118752681D01*
X100659438Y-118732063D01*
X100657327Y-118710625D01*
X100659438Y-118689187D01*
X100665692Y-118668569D01*
X100675848Y-118649569D01*
X100693431Y-118628144D01*
X101053144Y-118268431D01*
X101074569Y-118250848D01*
X101093569Y-118240692D01*
X101114187Y-118234438D01*
X101135625Y-118232327D01*
X101157063Y-118234438D01*
X101157063Y-118234438D01*
G37*
G36*
X97485734Y-117193232D02*
X97695202Y-117279996D01*
X97883723Y-117405962D01*
X98044038Y-117566277D01*
X98170004Y-117754798D01*
X98256768Y-117964266D01*
X98301000Y-118186635D01*
X98301000Y-118413365D01*
X98256768Y-118635734D01*
X98170004Y-118845202D01*
X98044038Y-119033723D01*
X97883723Y-119194038D01*
X97695202Y-119320004D01*
X97485734Y-119406768D01*
X97263365Y-119451000D01*
X97036635Y-119451000D01*
X96814266Y-119406768D01*
X96604798Y-119320004D01*
X96416277Y-119194038D01*
X96255962Y-119033723D01*
X96129996Y-118845202D01*
X96043232Y-118635734D01*
X95999000Y-118413365D01*
X95999000Y-118186635D01*
X96043232Y-117964266D01*
X96129996Y-117754798D01*
X96255962Y-117566277D01*
X96416277Y-117405962D01*
X96604798Y-117279996D01*
X96814266Y-117193232D01*
X97036635Y-117149000D01*
X97263365Y-117149000D01*
X97485734Y-117193232D01*
X97485734Y-117193232D01*
G37*
G36*
X104985734Y-117193232D02*
X105195202Y-117279996D01*
X105383723Y-117405962D01*
X105544038Y-117566277D01*
X105670004Y-117754798D01*
X105756768Y-117964266D01*
X105801000Y-118186635D01*
X105801000Y-118413365D01*
X105756768Y-118635734D01*
X105670004Y-118845202D01*
X105544038Y-119033723D01*
X105383723Y-119194038D01*
X105195202Y-119320004D01*
X104985734Y-119406768D01*
X104763365Y-119451000D01*
X104536635Y-119451000D01*
X104314266Y-119406768D01*
X104104797Y-119320004D01*
X104098196Y-119315593D01*
X104076585Y-119304042D01*
X104053136Y-119296929D01*
X104028749Y-119294527D01*
X104004363Y-119296929D01*
X103980914Y-119304042D01*
X103977906Y-119305650D01*
X103978366Y-119299631D01*
X103975433Y-119275303D01*
X103967810Y-119252015D01*
X103955790Y-119230661D01*
X103939835Y-119212062D01*
X103922843Y-119198425D01*
X103916280Y-119194040D01*
X103916279Y-119194039D01*
X103916276Y-119194037D01*
X103755962Y-119033723D01*
X103629996Y-118845202D01*
X103543232Y-118635734D01*
X103499000Y-118413365D01*
X103499000Y-118186635D01*
X103543232Y-117964266D01*
X103629996Y-117754798D01*
X103755962Y-117566277D01*
X103916277Y-117405962D01*
X104104798Y-117279996D01*
X104314266Y-117193232D01*
X104536635Y-117149000D01*
X104763365Y-117149000D01*
X104985734Y-117193232D01*
X104985734Y-117193232D01*
G37*
G36*
X102446707Y-118198544D02*
X102467325Y-118204798D01*
X102486325Y-118214954D01*
X102507750Y-118232537D01*
X102867463Y-118592250D01*
X102885046Y-118613675D01*
X102895202Y-118632675D01*
X102901456Y-118653293D01*
X102903567Y-118674731D01*
X102901456Y-118696169D01*
X102895202Y-118716787D01*
X102885046Y-118735787D01*
X102867463Y-118757212D01*
X102543106Y-119081569D01*
X102521681Y-119099152D01*
X102502681Y-119109308D01*
X102482063Y-119115562D01*
X102460625Y-119117673D01*
X102439187Y-119115562D01*
X102418569Y-119109308D01*
X102399569Y-119099152D01*
X102378144Y-119081569D01*
X102018431Y-118721856D01*
X102000848Y-118700431D01*
X101990692Y-118681431D01*
X101984438Y-118660813D01*
X101982327Y-118639375D01*
X101984438Y-118617937D01*
X101990692Y-118597319D01*
X102000848Y-118578319D01*
X102018431Y-118556894D01*
X102342788Y-118232537D01*
X102364213Y-118214954D01*
X102383213Y-118204798D01*
X102403831Y-118198544D01*
X102425269Y-118196433D01*
X102446707Y-118198544D01*
X102446707Y-118198544D01*
G37*
G36*
X89886877Y-118249209D02*
X89355132Y-118780954D01*
X88080925Y-117506747D01*
X88612670Y-116975002D01*
X89886877Y-118249209D01*
X89886877Y-118249209D01*
G37*
G36*
X99117866Y-117577385D02*
X99138484Y-117583639D01*
X99157484Y-117593795D01*
X99178909Y-117611378D01*
X99538622Y-117971091D01*
X99556205Y-117992516D01*
X99566361Y-118011516D01*
X99572615Y-118032134D01*
X99574726Y-118053572D01*
X99572615Y-118075010D01*
X99566361Y-118095628D01*
X99556205Y-118114628D01*
X99538622Y-118136053D01*
X99214265Y-118460410D01*
X99192840Y-118477993D01*
X99173840Y-118488149D01*
X99153222Y-118494403D01*
X99131784Y-118496514D01*
X99110346Y-118494403D01*
X99089728Y-118488149D01*
X99070728Y-118477993D01*
X99049303Y-118460410D01*
X98689590Y-118100697D01*
X98672007Y-118079272D01*
X98661851Y-118060272D01*
X98655597Y-118039654D01*
X98653486Y-118018216D01*
X98655597Y-117996778D01*
X98661851Y-117976160D01*
X98672007Y-117957160D01*
X98689590Y-117935735D01*
X99013947Y-117611378D01*
X99035372Y-117593795D01*
X99054372Y-117583639D01*
X99074990Y-117577385D01*
X99096428Y-117575274D01*
X99117866Y-117577385D01*
X99117866Y-117577385D01*
G37*
G36*
X99803760Y-116891491D02*
X99824378Y-116897745D01*
X99843378Y-116907901D01*
X99864803Y-116925484D01*
X100224516Y-117285197D01*
X100242099Y-117306622D01*
X100252255Y-117325622D01*
X100258509Y-117346240D01*
X100260620Y-117367678D01*
X100258509Y-117389117D01*
X100255924Y-117397639D01*
X100251145Y-117421672D01*
X100251145Y-117446177D01*
X100255926Y-117470210D01*
X100265305Y-117492849D01*
X100278919Y-117513223D01*
X100296247Y-117530550D01*
X100316622Y-117544163D01*
X100339261Y-117553540D01*
X100363294Y-117558319D01*
X100387799Y-117558319D01*
X100411830Y-117553538D01*
X100428292Y-117548544D01*
X100449731Y-117546433D01*
X100471169Y-117548544D01*
X100491787Y-117554798D01*
X100510787Y-117564954D01*
X100532212Y-117582537D01*
X100856569Y-117906894D01*
X100874152Y-117928319D01*
X100884308Y-117947319D01*
X100890562Y-117967937D01*
X100892673Y-117989375D01*
X100890562Y-118010813D01*
X100884308Y-118031431D01*
X100874152Y-118050431D01*
X100856569Y-118071856D01*
X100496856Y-118431569D01*
X100475431Y-118449152D01*
X100456431Y-118459308D01*
X100435813Y-118465562D01*
X100414375Y-118467673D01*
X100392937Y-118465562D01*
X100372319Y-118459308D01*
X100353319Y-118449152D01*
X100331894Y-118431569D01*
X100007537Y-118107212D01*
X99989954Y-118085787D01*
X99979798Y-118066787D01*
X99973544Y-118046169D01*
X99971433Y-118024731D01*
X99973544Y-118003293D01*
X99982218Y-117974699D01*
X99985256Y-117967362D01*
X99990034Y-117943328D01*
X99990032Y-117918824D01*
X99985249Y-117894791D01*
X99975869Y-117872153D01*
X99962253Y-117851780D01*
X99944924Y-117834454D01*
X99924548Y-117820843D01*
X99901908Y-117811468D01*
X99877874Y-117806690D01*
X99853370Y-117806692D01*
X99849263Y-117807510D01*
X99817678Y-117810620D01*
X99796240Y-117808509D01*
X99775622Y-117802255D01*
X99756622Y-117792099D01*
X99735197Y-117774516D01*
X99375484Y-117414803D01*
X99357901Y-117393378D01*
X99347745Y-117374378D01*
X99341491Y-117353760D01*
X99339380Y-117332322D01*
X99341491Y-117310884D01*
X99347745Y-117290266D01*
X99357901Y-117271266D01*
X99375484Y-117249841D01*
X99699841Y-116925484D01*
X99721266Y-116907901D01*
X99740266Y-116897745D01*
X99760884Y-116891491D01*
X99782322Y-116889380D01*
X99803760Y-116891491D01*
X99803760Y-116891491D01*
G37*
G36*
X90784903Y-117351184D02*
X90253158Y-117882929D01*
X88978951Y-116608722D01*
X89510696Y-116076977D01*
X90784903Y-117351184D01*
X90784903Y-117351184D01*
G37*
G36*
X91682929Y-116453158D02*
X91151184Y-116984903D01*
X89876977Y-115710696D01*
X90408722Y-115178951D01*
X91682929Y-116453158D01*
X91682929Y-116453158D01*
G37*
G36*
X92580954Y-115555132D02*
X92049209Y-116086877D01*
X90775002Y-114812670D01*
X91306747Y-114280925D01*
X92580954Y-115555132D01*
X92580954Y-115555132D01*
G37*
G36*
X103191000Y-114077262D02*
X103193402Y-114101648D01*
X103200515Y-114125097D01*
X103212066Y-114146708D01*
X103227612Y-114165650D01*
X103246554Y-114181196D01*
X103268165Y-114192747D01*
X103291614Y-114199860D01*
X103316000Y-114202262D01*
X103340386Y-114199860D01*
X103363835Y-114192747D01*
X103385446Y-114181196D01*
X103404388Y-114165650D01*
X103426236Y-114136192D01*
X103449644Y-114092400D01*
X103518499Y-114008499D01*
X103602400Y-113939644D01*
X103698121Y-113888479D01*
X103801985Y-113856973D01*
X103882933Y-113849000D01*
X103937067Y-113849000D01*
X104018015Y-113856973D01*
X104121879Y-113888479D01*
X104217600Y-113939644D01*
X104301501Y-114008499D01*
X104370356Y-114092400D01*
X104421521Y-114188121D01*
X104425383Y-114200854D01*
X104434760Y-114223493D01*
X104448374Y-114243867D01*
X104465701Y-114261194D01*
X104486076Y-114274808D01*
X104508715Y-114284186D01*
X104532748Y-114288966D01*
X104557252Y-114288966D01*
X104581286Y-114284185D01*
X104603925Y-114274808D01*
X104624299Y-114261194D01*
X104641626Y-114243867D01*
X104655240Y-114223492D01*
X104664617Y-114200854D01*
X104668479Y-114188121D01*
X104719644Y-114092400D01*
X104788499Y-114008499D01*
X104872400Y-113939644D01*
X104968121Y-113888479D01*
X105071985Y-113856973D01*
X105152933Y-113849000D01*
X105207067Y-113849000D01*
X105288015Y-113856973D01*
X105391879Y-113888479D01*
X105487600Y-113939644D01*
X105571501Y-114008499D01*
X105640356Y-114092400D01*
X105691521Y-114188121D01*
X105695383Y-114200854D01*
X105704760Y-114223493D01*
X105718374Y-114243867D01*
X105735701Y-114261194D01*
X105756076Y-114274808D01*
X105778715Y-114284186D01*
X105802748Y-114288966D01*
X105827252Y-114288966D01*
X105851286Y-114284185D01*
X105873925Y-114274808D01*
X105894299Y-114261194D01*
X105911626Y-114243867D01*
X105925240Y-114223492D01*
X105934617Y-114200854D01*
X105938479Y-114188121D01*
X105989644Y-114092400D01*
X106058499Y-114008499D01*
X106142400Y-113939644D01*
X106238121Y-113888479D01*
X106341985Y-113856973D01*
X106422933Y-113849000D01*
X106477067Y-113849000D01*
X106558015Y-113856973D01*
X106661879Y-113888479D01*
X106757600Y-113939644D01*
X106841501Y-114008499D01*
X106910356Y-114092400D01*
X106961521Y-114188121D01*
X106965383Y-114200854D01*
X106974760Y-114223493D01*
X106988374Y-114243867D01*
X107005701Y-114261194D01*
X107026076Y-114274808D01*
X107048715Y-114284186D01*
X107072748Y-114288966D01*
X107097252Y-114288966D01*
X107121286Y-114284185D01*
X107143925Y-114274808D01*
X107164299Y-114261194D01*
X107181626Y-114243867D01*
X107195240Y-114223492D01*
X107204617Y-114200854D01*
X107208479Y-114188121D01*
X107259644Y-114092400D01*
X107328499Y-114008499D01*
X107412400Y-113939644D01*
X107508121Y-113888479D01*
X107611985Y-113856973D01*
X107692933Y-113849000D01*
X107747067Y-113849000D01*
X107828015Y-113856973D01*
X107931879Y-113888479D01*
X108027600Y-113939644D01*
X108111501Y-114008499D01*
X108180356Y-114092400D01*
X108231521Y-114188121D01*
X108235383Y-114200854D01*
X108244760Y-114223493D01*
X108258374Y-114243867D01*
X108275701Y-114261194D01*
X108296076Y-114274808D01*
X108318715Y-114284186D01*
X108342748Y-114288966D01*
X108367252Y-114288966D01*
X108391286Y-114284185D01*
X108413925Y-114274808D01*
X108434299Y-114261194D01*
X108451626Y-114243867D01*
X108465240Y-114223492D01*
X108474617Y-114200854D01*
X108478479Y-114188121D01*
X108529644Y-114092400D01*
X108598499Y-114008499D01*
X108682400Y-113939644D01*
X108778121Y-113888479D01*
X108881985Y-113856973D01*
X108962933Y-113849000D01*
X109017067Y-113849000D01*
X109098015Y-113856973D01*
X109201879Y-113888479D01*
X109297600Y-113939644D01*
X109381501Y-114008499D01*
X109450356Y-114092400D01*
X109501521Y-114188121D01*
X109533027Y-114291985D01*
X109543666Y-114400000D01*
X109533027Y-114508015D01*
X109501521Y-114611879D01*
X109450356Y-114707600D01*
X109381501Y-114791501D01*
X109297600Y-114860356D01*
X109201879Y-114911521D01*
X109098015Y-114943027D01*
X109017067Y-114951000D01*
X108962933Y-114951000D01*
X108881985Y-114943027D01*
X108778121Y-114911521D01*
X108682400Y-114860356D01*
X108598499Y-114791501D01*
X108529644Y-114707600D01*
X108478479Y-114611879D01*
X108474615Y-114599142D01*
X108465240Y-114576507D01*
X108451626Y-114556133D01*
X108434299Y-114538806D01*
X108413924Y-114525192D01*
X108391285Y-114515814D01*
X108367252Y-114511034D01*
X108342748Y-114511034D01*
X108318714Y-114515815D01*
X108296075Y-114525192D01*
X108275701Y-114538806D01*
X108258374Y-114556133D01*
X108244760Y-114576508D01*
X108235385Y-114599142D01*
X108231521Y-114611879D01*
X108180356Y-114707600D01*
X108111501Y-114791501D01*
X108027600Y-114860356D01*
X107931879Y-114911521D01*
X107828015Y-114943027D01*
X107747067Y-114951000D01*
X107692933Y-114951000D01*
X107611985Y-114943027D01*
X107508121Y-114911521D01*
X107412400Y-114860356D01*
X107328499Y-114791501D01*
X107259644Y-114707600D01*
X107208479Y-114611879D01*
X107204615Y-114599142D01*
X107195240Y-114576507D01*
X107181626Y-114556133D01*
X107164299Y-114538806D01*
X107143924Y-114525192D01*
X107121285Y-114515814D01*
X107097252Y-114511034D01*
X107072748Y-114511034D01*
X107048714Y-114515815D01*
X107026075Y-114525192D01*
X107005701Y-114538806D01*
X106988374Y-114556133D01*
X106974760Y-114576508D01*
X106965385Y-114599142D01*
X106961521Y-114611879D01*
X106910356Y-114707600D01*
X106841501Y-114791501D01*
X106757600Y-114860356D01*
X106661879Y-114911521D01*
X106558015Y-114943027D01*
X106477067Y-114951000D01*
X106422933Y-114951000D01*
X106341985Y-114943027D01*
X106238121Y-114911521D01*
X106142400Y-114860356D01*
X106058499Y-114791501D01*
X105989644Y-114707600D01*
X105938479Y-114611879D01*
X105934615Y-114599142D01*
X105925240Y-114576507D01*
X105911626Y-114556133D01*
X105894299Y-114538806D01*
X105873924Y-114525192D01*
X105851285Y-114515814D01*
X105827252Y-114511034D01*
X105802748Y-114511034D01*
X105778714Y-114515815D01*
X105756075Y-114525192D01*
X105735701Y-114538806D01*
X105718374Y-114556133D01*
X105704760Y-114576508D01*
X105695385Y-114599142D01*
X105691521Y-114611879D01*
X105640356Y-114707600D01*
X105571501Y-114791501D01*
X105487600Y-114860356D01*
X105391879Y-114911521D01*
X105288015Y-114943027D01*
X105207067Y-114951000D01*
X105152933Y-114951000D01*
X105071985Y-114943027D01*
X104968121Y-114911521D01*
X104872400Y-114860356D01*
X104788499Y-114791501D01*
X104719644Y-114707600D01*
X104668479Y-114611879D01*
X104664615Y-114599142D01*
X104655240Y-114576507D01*
X104641626Y-114556133D01*
X104624299Y-114538806D01*
X104603924Y-114525192D01*
X104581285Y-114515814D01*
X104557252Y-114511034D01*
X104532748Y-114511034D01*
X104508714Y-114515815D01*
X104486075Y-114525192D01*
X104465701Y-114538806D01*
X104448374Y-114556133D01*
X104434760Y-114576508D01*
X104425385Y-114599142D01*
X104421521Y-114611879D01*
X104370356Y-114707600D01*
X104301501Y-114791501D01*
X104217600Y-114860356D01*
X104121879Y-114911521D01*
X104018015Y-114943027D01*
X103937067Y-114951000D01*
X103882933Y-114951000D01*
X103801985Y-114943027D01*
X103698121Y-114911521D01*
X103602400Y-114860356D01*
X103518499Y-114791501D01*
X103449644Y-114707600D01*
X103426234Y-114663805D01*
X103412626Y-114643439D01*
X103395299Y-114626111D01*
X103374924Y-114612498D01*
X103352285Y-114603120D01*
X103328252Y-114598340D01*
X103303748Y-114598340D01*
X103279714Y-114603121D01*
X103257075Y-114612498D01*
X103236701Y-114626112D01*
X103219373Y-114643439D01*
X103205760Y-114663814D01*
X103196382Y-114686453D01*
X103191000Y-114722738D01*
X103191000Y-114951000D01*
X102089000Y-114951000D01*
X102089000Y-113849000D01*
X103191000Y-113849000D01*
X103191000Y-114077262D01*
X103191000Y-114077262D01*
G37*
G36*
X80801000Y-113701000D02*
X78999000Y-113701000D01*
X78999000Y-111899000D01*
X80801000Y-111899000D01*
X80801000Y-113701000D01*
X80801000Y-113701000D01*
G37*
G36*
X84724998Y-113087330D02*
X84193253Y-113619075D01*
X82919046Y-112344868D01*
X83450791Y-111813123D01*
X84724998Y-113087330D01*
X84724998Y-113087330D01*
G37*
G36*
X108081938Y-112141716D02*
X108102556Y-112147970D01*
X108121556Y-112158126D01*
X108138208Y-112171792D01*
X108151874Y-112188444D01*
X108162030Y-112207444D01*
X108168284Y-112228062D01*
X108171000Y-112255640D01*
X108171000Y-112714360D01*
X108168284Y-112741938D01*
X108162030Y-112762556D01*
X108151874Y-112781556D01*
X108138208Y-112798208D01*
X108121556Y-112811874D01*
X108102556Y-112822030D01*
X108081938Y-112828284D01*
X108054360Y-112831000D01*
X107545640Y-112831000D01*
X107518062Y-112828284D01*
X107497444Y-112822030D01*
X107478444Y-112811874D01*
X107461792Y-112798208D01*
X107448126Y-112781556D01*
X107437970Y-112762556D01*
X107431716Y-112741938D01*
X107429000Y-112714360D01*
X107429000Y-112255640D01*
X107431716Y-112228062D01*
X107437970Y-112207444D01*
X107448126Y-112188444D01*
X107461792Y-112171792D01*
X107478444Y-112158126D01*
X107497444Y-112147970D01*
X107518062Y-112141716D01*
X107545640Y-112139000D01*
X108054360Y-112139000D01*
X108081938Y-112141716D01*
X108081938Y-112141716D01*
G37*
G36*
X85623023Y-112189304D02*
X85091278Y-112721049D01*
X83817071Y-111446842D01*
X84348816Y-110915097D01*
X85623023Y-112189304D01*
X85623023Y-112189304D01*
G37*
G36*
X72826938Y-111131716D02*
X72847556Y-111137970D01*
X72866556Y-111148126D01*
X72883208Y-111161792D01*
X72896874Y-111178444D01*
X72907030Y-111197444D01*
X72913284Y-111218062D01*
X72916000Y-111245640D01*
X72916000Y-111754360D01*
X72913284Y-111781938D01*
X72907030Y-111802556D01*
X72896874Y-111821556D01*
X72883208Y-111838208D01*
X72866556Y-111851874D01*
X72847556Y-111862030D01*
X72826938Y-111868284D01*
X72799360Y-111871000D01*
X72340640Y-111871000D01*
X72313062Y-111868284D01*
X72292444Y-111862030D01*
X72273444Y-111851874D01*
X72256792Y-111838208D01*
X72243126Y-111821556D01*
X72232970Y-111802556D01*
X72226716Y-111781938D01*
X72224000Y-111754360D01*
X72224000Y-111245640D01*
X72226716Y-111218062D01*
X72232970Y-111197444D01*
X72243126Y-111178444D01*
X72256792Y-111161792D01*
X72273444Y-111148126D01*
X72292444Y-111137970D01*
X72313062Y-111131716D01*
X72340640Y-111129000D01*
X72799360Y-111129000D01*
X72826938Y-111131716D01*
X72826938Y-111131716D01*
G37*
G36*
X71856938Y-111131716D02*
X71877556Y-111137970D01*
X71896556Y-111148126D01*
X71913208Y-111161792D01*
X71926874Y-111178444D01*
X71937030Y-111197444D01*
X71943284Y-111218062D01*
X71946000Y-111245640D01*
X71946000Y-111754360D01*
X71943284Y-111781938D01*
X71937030Y-111802556D01*
X71926874Y-111821556D01*
X71913208Y-111838208D01*
X71896556Y-111851874D01*
X71877556Y-111862030D01*
X71856938Y-111868284D01*
X71829360Y-111871000D01*
X71370640Y-111871000D01*
X71343062Y-111868284D01*
X71322444Y-111862030D01*
X71303444Y-111851874D01*
X71286792Y-111838208D01*
X71273126Y-111821556D01*
X71262970Y-111802556D01*
X71256716Y-111781938D01*
X71254000Y-111754360D01*
X71254000Y-111245640D01*
X71256716Y-111218062D01*
X71262970Y-111197444D01*
X71273126Y-111178444D01*
X71286792Y-111161792D01*
X71303444Y-111148126D01*
X71322444Y-111137970D01*
X71343062Y-111131716D01*
X71370640Y-111129000D01*
X71829360Y-111129000D01*
X71856938Y-111131716D01*
X71856938Y-111131716D01*
G37*
G36*
X108081938Y-111171716D02*
X108102556Y-111177970D01*
X108121556Y-111188126D01*
X108138208Y-111201792D01*
X108151874Y-111218444D01*
X108162030Y-111237444D01*
X108168284Y-111258062D01*
X108171000Y-111285640D01*
X108171000Y-111744360D01*
X108168284Y-111771938D01*
X108162030Y-111792556D01*
X108151874Y-111811556D01*
X108138208Y-111828208D01*
X108121556Y-111841874D01*
X108102556Y-111852030D01*
X108081938Y-111858284D01*
X108054360Y-111861000D01*
X107545640Y-111861000D01*
X107518062Y-111858284D01*
X107497444Y-111852030D01*
X107478444Y-111841874D01*
X107461792Y-111828208D01*
X107448126Y-111811556D01*
X107437970Y-111792556D01*
X107431716Y-111771938D01*
X107429000Y-111744360D01*
X107429000Y-111285640D01*
X107431716Y-111258062D01*
X107437970Y-111237444D01*
X107448126Y-111218444D01*
X107461792Y-111201792D01*
X107478444Y-111188126D01*
X107497444Y-111177970D01*
X107518062Y-111171716D01*
X107545640Y-111169000D01*
X108054360Y-111169000D01*
X108081938Y-111171716D01*
X108081938Y-111171716D01*
G37*
G36*
X86521049Y-111291278D02*
X85989304Y-111823023D01*
X84715097Y-110548816D01*
X85246842Y-110017071D01*
X86521049Y-111291278D01*
X86521049Y-111291278D01*
G37*
G36*
X107041938Y-110881716D02*
X107062556Y-110887970D01*
X107081556Y-110898126D01*
X107098208Y-110911792D01*
X107111874Y-110928444D01*
X107122030Y-110947444D01*
X107128284Y-110968062D01*
X107131000Y-110995640D01*
X107131000Y-111504360D01*
X107128284Y-111531938D01*
X107122030Y-111552556D01*
X107111874Y-111571556D01*
X107098208Y-111588208D01*
X107081556Y-111601874D01*
X107062556Y-111612030D01*
X107041938Y-111618284D01*
X107014360Y-111621000D01*
X106555640Y-111621000D01*
X106528062Y-111618284D01*
X106507444Y-111612030D01*
X106488444Y-111601874D01*
X106471792Y-111588208D01*
X106458126Y-111571556D01*
X106447970Y-111552556D01*
X106441716Y-111531938D01*
X106439000Y-111504360D01*
X106439000Y-110995640D01*
X106441716Y-110968062D01*
X106447970Y-110947444D01*
X106458126Y-110928444D01*
X106471792Y-110911792D01*
X106488444Y-110898126D01*
X106507444Y-110887970D01*
X106528062Y-110881716D01*
X106555640Y-110879000D01*
X107014360Y-110879000D01*
X107041938Y-110881716D01*
X107041938Y-110881716D01*
G37*
G36*
X106071938Y-110881716D02*
X106092556Y-110887970D01*
X106111556Y-110898126D01*
X106128208Y-110911792D01*
X106141874Y-110928444D01*
X106152030Y-110947444D01*
X106158284Y-110968062D01*
X106161000Y-110995640D01*
X106161000Y-111504360D01*
X106158284Y-111531938D01*
X106152030Y-111552556D01*
X106141874Y-111571556D01*
X106128208Y-111588208D01*
X106111556Y-111601874D01*
X106092556Y-111612030D01*
X106071938Y-111618284D01*
X106044360Y-111621000D01*
X105585640Y-111621000D01*
X105558062Y-111618284D01*
X105537444Y-111612030D01*
X105518444Y-111601874D01*
X105501792Y-111588208D01*
X105488126Y-111571556D01*
X105477970Y-111552556D01*
X105471716Y-111531938D01*
X105469000Y-111504360D01*
X105469000Y-110995640D01*
X105471716Y-110968062D01*
X105477970Y-110947444D01*
X105488126Y-110928444D01*
X105501792Y-110911792D01*
X105518444Y-110898126D01*
X105537444Y-110887970D01*
X105558062Y-110881716D01*
X105585640Y-110879000D01*
X106044360Y-110879000D01*
X106071938Y-110881716D01*
X106071938Y-110881716D01*
G37*
G36*
X80010442Y-109365518D02*
X80076627Y-109372037D01*
X80189853Y-109406384D01*
X80246467Y-109423557D01*
X80385087Y-109497652D01*
X80402991Y-109507222D01*
X80438729Y-109536552D01*
X80540186Y-109619814D01*
X80623448Y-109721271D01*
X80652778Y-109757009D01*
X80652779Y-109757011D01*
X80736443Y-109913533D01*
X80736443Y-109913534D01*
X80787963Y-110083373D01*
X80805359Y-110260000D01*
X80787963Y-110436627D01*
X80753931Y-110548816D01*
X80736443Y-110606467D01*
X80662348Y-110745087D01*
X80652778Y-110762991D01*
X80623448Y-110798729D01*
X80540186Y-110900186D01*
X80438729Y-110983448D01*
X80402991Y-111012778D01*
X80402989Y-111012779D01*
X80246467Y-111096443D01*
X80189853Y-111113616D01*
X80076627Y-111147963D01*
X80010443Y-111154481D01*
X79944260Y-111161000D01*
X79855740Y-111161000D01*
X79789557Y-111154481D01*
X79723373Y-111147963D01*
X79610147Y-111113616D01*
X79553533Y-111096443D01*
X79397011Y-111012779D01*
X79397009Y-111012778D01*
X79361271Y-110983448D01*
X79259814Y-110900186D01*
X79176552Y-110798729D01*
X79147222Y-110762991D01*
X79137652Y-110745087D01*
X79063557Y-110606467D01*
X79046069Y-110548816D01*
X79012037Y-110436627D01*
X78994641Y-110260000D01*
X79012037Y-110083373D01*
X79063557Y-109913534D01*
X79063557Y-109913533D01*
X79147221Y-109757011D01*
X79147222Y-109757009D01*
X79176552Y-109721271D01*
X79259814Y-109619814D01*
X79361271Y-109536552D01*
X79397009Y-109507222D01*
X79414913Y-109497652D01*
X79553533Y-109423557D01*
X79610147Y-109406384D01*
X79723373Y-109372037D01*
X79789558Y-109365518D01*
X79855740Y-109359000D01*
X79944260Y-109359000D01*
X80010442Y-109365518D01*
X80010442Y-109365518D01*
G37*
G36*
X87419075Y-110393253D02*
X86887330Y-110924998D01*
X85613123Y-109650791D01*
X86144868Y-109119046D01*
X87419075Y-110393253D01*
X87419075Y-110393253D01*
G37*
G36*
X93201000Y-110551000D02*
X91399000Y-110551000D01*
X91399000Y-108749000D01*
X93201000Y-108749000D01*
X93201000Y-110551000D01*
X93201000Y-110551000D01*
G37*
G36*
X72951000Y-110300930D02*
X71349000Y-110300930D01*
X71349000Y-109198930D01*
X72951000Y-109198930D01*
X72951000Y-110300930D01*
X72951000Y-110300930D01*
G37*
G36*
X77851000Y-110300930D02*
X76249000Y-110300930D01*
X76249000Y-109198930D01*
X77851000Y-109198930D01*
X77851000Y-110300930D01*
X77851000Y-110300930D01*
G37*
G36*
X111501000Y-109951000D02*
X109899000Y-109951000D01*
X109899000Y-108849000D01*
X111501000Y-108849000D01*
X111501000Y-109951000D01*
X111501000Y-109951000D01*
G37*
G36*
X106601000Y-109951000D02*
X104999000Y-109951000D01*
X104999000Y-108849000D01*
X106601000Y-108849000D01*
X106601000Y-109951000D01*
X106601000Y-109951000D01*
G37*
G36*
X77851000Y-107100930D02*
X76249000Y-107100930D01*
X76249000Y-105998930D01*
X77851000Y-105998930D01*
X77851000Y-107100930D01*
X77851000Y-107100930D01*
G37*
G36*
X72951000Y-107100930D02*
X71349000Y-107100930D01*
X71349000Y-105998930D01*
X72951000Y-105998930D01*
X72951000Y-107100930D01*
X72951000Y-107100930D01*
G37*
G36*
X111501000Y-106751000D02*
X109899000Y-106751000D01*
X109899000Y-105649000D01*
X111501000Y-105649000D01*
X111501000Y-106751000D01*
X111501000Y-106751000D01*
G37*
G36*
X106601000Y-106751000D02*
X104999000Y-106751000D01*
X104999000Y-105649000D01*
X106601000Y-105649000D01*
X106601000Y-106751000D01*
X106601000Y-106751000D01*
G37*
M02*
