%TF.GenerationSoftware,KiCad,Pcbnew,5.0.1-33cea8e~68~ubuntu18.04.1*%
%TF.CreationDate,2018-12-04T22:20:36+01:00*%
%TF.ProjectId,lightball,6C6967687462616C6C2E6B696361645F,rev?*%
%TF.SameCoordinates,Original*%
%TF.FileFunction,Legend,Bot*%
%TF.FilePolarity,Positive*%
%FSLAX46Y46*%
G04 Gerber Fmt 4.6, Leading zero omitted, Abs format (unit mm)*
G04 Created by KiCad (PCBNEW 5.0.1-33cea8e~68~ubuntu18.04.1) date Di 04 Dez 2018 22:20:36 CET*
%MOMM*%
%LPD*%
G01*
G04 APERTURE LIST*
%ADD10C,0.150000*%
%ADD11C,0.120000*%
%ADD12C,0.075000*%
G04 APERTURE END LIST*
D10*
X73975000Y-113550000D02*
X72575000Y-113550000D01*
X73975000Y-117200000D02*
X73975000Y-113550000D01*
X112660414Y-110153935D02*
G75*
G02X73975000Y-117200000I-21460414J8103935D01*
G01*
X112675000Y-104650000D02*
X112663015Y-110154914D01*
X104050000Y-104650000D02*
X112675000Y-104650000D01*
X100250000Y-107650000D02*
X104050000Y-104650000D01*
X80300000Y-107650000D02*
X100250000Y-107650000D01*
X80300000Y-105000000D02*
X80300000Y-107650000D01*
X70050000Y-105000000D02*
X80300000Y-105000000D01*
X70050000Y-112150000D02*
X70050000Y-105000000D01*
X70850000Y-113550000D02*
X70050000Y-112150000D01*
X72575000Y-113550000D02*
X70850000Y-113550000D01*
X103375000Y-112400000D02*
G75*
G03X103375000Y-112400000I-800000J0D01*
G01*
X85075000Y-115475000D02*
G75*
G03X85075000Y-115475000I-1300000J0D01*
G01*
D11*
X100199920Y-118237219D02*
X100199920Y-117911661D01*
X99179920Y-118237219D02*
X99179920Y-117911661D01*
X97264949Y-122710519D02*
X98580519Y-122231691D01*
X98580519Y-122231691D02*
X98101691Y-120916121D01*
X98101691Y-120916121D02*
X96786121Y-121394949D01*
X96786121Y-121394949D02*
X97264949Y-122710519D01*
X93703883Y-122033883D02*
G75*
G03X93703883Y-122033883I-2620000J0D01*
G01*
X89259548Y-123858219D02*
X92908219Y-120209548D01*
X89287832Y-123886503D02*
X92936503Y-120237832D01*
X89316824Y-123914080D02*
X92964080Y-120266824D01*
X89345815Y-123941658D02*
X92991658Y-120295815D01*
X89375513Y-123968528D02*
X93018528Y-120325513D01*
X89405919Y-123994691D02*
X93044691Y-120355919D01*
X89437032Y-124020146D02*
X90518198Y-122938980D01*
X91988980Y-121468198D02*
X93070146Y-120387032D01*
X89468144Y-124045602D02*
X90546482Y-122967264D01*
X92017264Y-121496482D02*
X93095602Y-120418144D01*
X89499257Y-124071058D02*
X90574767Y-122995549D01*
X92045549Y-121524767D02*
X93121058Y-120449257D01*
X89531077Y-124095807D02*
X90603051Y-123023833D01*
X92073833Y-121553051D02*
X93145807Y-120481077D01*
X89563604Y-124119848D02*
X90631335Y-123052117D01*
X92102117Y-121581335D02*
X93169848Y-120513604D01*
X89596838Y-124143183D02*
X90659619Y-123080402D01*
X92130402Y-121609619D02*
X93193183Y-120546838D01*
X89630072Y-124166518D02*
X90687904Y-123108686D01*
X92158686Y-121637904D02*
X93216518Y-120580072D01*
X89664013Y-124189145D02*
X90716188Y-123136970D01*
X92186970Y-121666188D02*
X93239145Y-120614013D01*
X89697954Y-124211772D02*
X90744472Y-123165254D01*
X92215254Y-121694472D02*
X93261772Y-120647954D01*
X89732602Y-124233693D02*
X90772756Y-123193539D01*
X92243539Y-121722756D02*
X93283693Y-120682602D01*
X89767958Y-124254906D02*
X90801041Y-123221823D01*
X92271823Y-121751041D02*
X93304906Y-120717958D01*
X89803313Y-124276119D02*
X90829325Y-123250107D01*
X92300107Y-121779325D02*
X93326119Y-120753313D01*
X89840083Y-124297332D02*
X90858316Y-123279099D01*
X92329099Y-121808316D02*
X93347332Y-120790083D01*
X89876852Y-124317131D02*
X90886601Y-123307383D01*
X92357383Y-121836601D02*
X93367131Y-120826852D01*
X89914329Y-124336223D02*
X90914885Y-123335667D01*
X92385667Y-121864885D02*
X93386223Y-120864329D01*
X89951806Y-124355315D02*
X90943169Y-123363951D01*
X92413951Y-121893169D02*
X93405315Y-120901806D01*
X89989989Y-124373700D02*
X90971453Y-123392236D01*
X92442236Y-121921453D02*
X93423700Y-120939989D01*
X90028173Y-124392085D02*
X90999738Y-123420520D01*
X92470520Y-121949738D02*
X93442085Y-120978173D01*
X90067771Y-124409055D02*
X91028022Y-123448804D01*
X92498804Y-121978022D02*
X93459055Y-121017771D01*
X90107369Y-124426026D02*
X91056306Y-123477088D01*
X92527088Y-122006306D02*
X93476026Y-121057369D01*
X90147674Y-124442289D02*
X91084591Y-123505373D01*
X92555373Y-122034591D02*
X93492289Y-121097674D01*
X90187979Y-124458553D02*
X91112875Y-123533657D01*
X92583657Y-122062875D02*
X93508553Y-121137979D01*
X90229698Y-124473402D02*
X91141159Y-123561941D01*
X92611941Y-122091159D02*
X93523402Y-121179698D01*
X90271418Y-124488251D02*
X91169443Y-123590226D01*
X92640226Y-122119443D02*
X93538251Y-121221418D01*
X90313844Y-124502393D02*
X91197728Y-123618510D01*
X92668510Y-122147728D02*
X93552393Y-121263844D01*
X90357685Y-124515121D02*
X91226012Y-123646794D01*
X92696794Y-122176012D02*
X93565121Y-121307685D01*
X90400818Y-124528556D02*
X91254296Y-123675078D01*
X92725078Y-122204296D02*
X93578556Y-121350818D01*
X90445366Y-124540577D02*
X91282580Y-123703363D01*
X92753363Y-122232580D02*
X93590577Y-121395366D01*
X90490621Y-124551891D02*
X91310865Y-123731647D01*
X92781647Y-122260865D02*
X93601891Y-121440621D01*
X90536583Y-124562497D02*
X91339149Y-123759931D01*
X92809931Y-122289149D02*
X93612497Y-121486583D01*
X90583252Y-124572397D02*
X91367433Y-123788215D01*
X92838215Y-122317433D02*
X93622397Y-121533252D01*
X90630628Y-124581589D02*
X91395718Y-123816500D01*
X92866500Y-122345718D02*
X93631589Y-121580628D01*
X90678004Y-124590782D02*
X91424002Y-123844784D01*
X92894784Y-122374002D02*
X93640782Y-121628004D01*
X90727502Y-124597853D02*
X91452286Y-123873068D01*
X92923068Y-122402286D02*
X93647853Y-121677502D01*
X90776999Y-124604924D02*
X91480570Y-123901352D01*
X92951352Y-122430570D02*
X93654924Y-121726999D01*
X90827204Y-124611288D02*
X91508855Y-123929637D01*
X92979637Y-122458855D02*
X93661288Y-121777204D01*
X90878823Y-124616237D02*
X91537139Y-123957921D01*
X93007921Y-122487139D02*
X93666237Y-121828823D01*
X90931148Y-124620480D02*
X91565423Y-123986205D01*
X93036205Y-122515423D02*
X93670480Y-121881148D01*
X90984889Y-124623309D02*
X91593707Y-124014490D01*
X93064490Y-122543707D02*
X93673309Y-121934889D01*
X91039336Y-124625430D02*
X91621992Y-124042774D01*
X93092774Y-122571992D02*
X93675430Y-121989336D01*
X91094490Y-124626844D02*
X91650276Y-124071058D01*
X93121058Y-122600276D02*
X93676844Y-122044490D01*
X91151766Y-124626137D02*
X91678560Y-124099342D01*
X93149342Y-122628560D02*
X93676137Y-122101766D01*
X91209748Y-124624723D02*
X91706845Y-124127627D01*
X93177627Y-122656845D02*
X93674723Y-122159748D01*
X91269145Y-124621894D02*
X91735129Y-124155911D01*
X93205911Y-122685129D02*
X93671894Y-122219145D01*
X91329957Y-124617652D02*
X91763413Y-124184195D01*
X93234195Y-122713413D02*
X93667652Y-122279957D01*
X91392182Y-124611995D02*
X91791697Y-124212479D01*
X93262479Y-122741697D02*
X93661995Y-122342182D01*
X91456529Y-124604217D02*
X91819982Y-124240764D01*
X93290764Y-122769982D02*
X93654217Y-122406529D01*
X91522997Y-124594317D02*
X91848266Y-124269048D01*
X93319048Y-122798266D02*
X93644317Y-122472997D01*
X91591586Y-124582296D02*
X91876550Y-124297332D01*
X93347332Y-122826550D02*
X93632296Y-122541586D01*
X91662297Y-124568154D02*
X91904834Y-124325617D01*
X93375617Y-122854834D02*
X93618154Y-122612297D01*
X91735836Y-124551184D02*
X91933119Y-124353901D01*
X93403901Y-122883119D02*
X93601184Y-122685836D01*
X91812203Y-124531385D02*
X91961403Y-124382185D01*
X93432185Y-122911403D02*
X93581385Y-122762203D01*
X91892107Y-124508050D02*
X93558050Y-122842107D01*
X91976959Y-124479766D02*
X93529766Y-122926959D01*
X92066762Y-124446532D02*
X93496532Y-123016762D01*
X92162928Y-124406934D02*
X93456934Y-123112928D01*
X92268994Y-124357436D02*
X93407436Y-123218994D01*
X92387788Y-124295211D02*
X93345211Y-123337788D01*
X92528503Y-124211065D02*
X93261065Y-123478503D01*
X92722250Y-124073887D02*
X93123887Y-123672250D01*
X88057626Y-121093591D02*
X88411179Y-121447144D01*
X88057626Y-121447144D02*
X88411179Y-121093591D01*
X78250000Y-105399930D02*
X78250000Y-106549930D01*
X70950000Y-105399930D02*
X78250000Y-105399930D01*
X70950000Y-110899930D02*
X78250000Y-110899930D01*
X111900000Y-105050000D02*
X111900000Y-106200000D01*
X104600000Y-105050000D02*
X111900000Y-105050000D01*
X104600000Y-110550000D02*
X111900000Y-110550000D01*
D10*
X92518303Y-113529384D02*
X92373346Y-113674341D01*
X88629216Y-109640297D02*
X88417083Y-109852429D01*
X84733057Y-113536456D02*
X84945189Y-113324323D01*
X88622144Y-117425543D02*
X88834277Y-117213411D01*
X92518303Y-113529384D02*
X88629216Y-109640297D01*
X88622144Y-117425543D02*
X84733057Y-113536456D01*
X92373346Y-113674341D02*
X93610783Y-114911778D01*
X106942857Y-112777142D02*
X106990476Y-112824761D01*
X107133333Y-112872380D01*
X107228571Y-112872380D01*
X107371428Y-112824761D01*
X107466666Y-112729523D01*
X107514285Y-112634285D01*
X107561904Y-112443809D01*
X107561904Y-112300952D01*
X107514285Y-112110476D01*
X107466666Y-112015238D01*
X107371428Y-111920000D01*
X107228571Y-111872380D01*
X107133333Y-111872380D01*
X106990476Y-111920000D01*
X106942857Y-111967619D01*
X105990476Y-112872380D02*
X106561904Y-112872380D01*
X106276190Y-112872380D02*
X106276190Y-111872380D01*
X106371428Y-112015238D01*
X106466666Y-112110476D01*
X106561904Y-112158095D01*
X105085714Y-111872380D02*
X105561904Y-111872380D01*
X105609523Y-112348571D01*
X105561904Y-112300952D01*
X105466666Y-112253333D01*
X105228571Y-112253333D01*
X105133333Y-112300952D01*
X105085714Y-112348571D01*
X105038095Y-112443809D01*
X105038095Y-112681904D01*
X105085714Y-112777142D01*
X105133333Y-112824761D01*
X105228571Y-112872380D01*
X105466666Y-112872380D01*
X105561904Y-112824761D01*
X105609523Y-112777142D01*
D12*
X101255634Y-118024440D02*
X101255634Y-117881582D01*
X100955634Y-117881582D01*
X100984205Y-118110154D02*
X100969920Y-118124440D01*
X100955634Y-118153011D01*
X100955634Y-118224440D01*
X100969920Y-118253011D01*
X100984205Y-118267297D01*
X101012777Y-118281582D01*
X101041348Y-118281582D01*
X101084205Y-118267297D01*
X101255634Y-118095868D01*
X101255634Y-118281582D01*
X88676297Y-110354902D02*
X88690582Y-110369188D01*
X88733440Y-110383474D01*
X88762011Y-110383474D01*
X88804868Y-110369188D01*
X88833440Y-110340617D01*
X88847725Y-110312045D01*
X88862011Y-110254902D01*
X88862011Y-110212045D01*
X88847725Y-110154902D01*
X88833440Y-110126331D01*
X88804868Y-110097760D01*
X88762011Y-110083474D01*
X88733440Y-110083474D01*
X88690582Y-110097760D01*
X88676297Y-110112045D01*
X88390582Y-110383474D02*
X88562011Y-110383474D01*
X88476297Y-110383474D02*
X88476297Y-110083474D01*
X88504868Y-110126331D01*
X88533440Y-110154902D01*
X88562011Y-110169188D01*
X88247725Y-110383474D02*
X88190582Y-110383474D01*
X88162011Y-110369188D01*
X88147725Y-110354902D01*
X88119154Y-110312045D01*
X88104868Y-110254902D01*
X88104868Y-110140617D01*
X88119154Y-110112045D01*
X88133440Y-110097760D01*
X88162011Y-110083474D01*
X88219154Y-110083474D01*
X88247725Y-110097760D01*
X88262011Y-110112045D01*
X88276297Y-110140617D01*
X88276297Y-110212045D01*
X88262011Y-110240617D01*
X88247725Y-110254902D01*
X88219154Y-110269188D01*
X88162011Y-110269188D01*
X88133440Y-110254902D01*
X88119154Y-110240617D01*
X88104868Y-110212045D01*
X96815229Y-122520554D02*
X96766369Y-122386312D01*
X96744456Y-122576718D02*
X96992162Y-122380143D01*
X96676052Y-122388780D01*
X96789516Y-122241064D02*
X96755314Y-122147095D01*
X96592990Y-122160569D02*
X96641850Y-122294811D01*
X96923758Y-122192204D01*
X96874898Y-122057963D01*
X96495270Y-121892085D02*
X96553902Y-122053175D01*
X96524586Y-121972630D02*
X96806494Y-121870024D01*
X96775993Y-121911531D01*
X96758917Y-121948151D01*
X96755264Y-121979885D01*
X88525000Y-123832142D02*
X88539285Y-123846428D01*
X88582142Y-123860714D01*
X88610714Y-123860714D01*
X88653571Y-123846428D01*
X88682142Y-123817857D01*
X88696428Y-123789285D01*
X88710714Y-123732142D01*
X88710714Y-123689285D01*
X88696428Y-123632142D01*
X88682142Y-123603571D01*
X88653571Y-123575000D01*
X88610714Y-123560714D01*
X88582142Y-123560714D01*
X88539285Y-123575000D01*
X88525000Y-123589285D01*
X88410714Y-123589285D02*
X88396428Y-123575000D01*
X88367857Y-123560714D01*
X88296428Y-123560714D01*
X88267857Y-123575000D01*
X88253571Y-123589285D01*
X88239285Y-123617857D01*
X88239285Y-123646428D01*
X88253571Y-123689285D01*
X88425000Y-123860714D01*
X88239285Y-123860714D01*
X72277857Y-112357142D02*
X72292142Y-112371428D01*
X72335000Y-112385714D01*
X72363571Y-112385714D01*
X72406428Y-112371428D01*
X72435000Y-112342857D01*
X72449285Y-112314285D01*
X72463571Y-112257142D01*
X72463571Y-112214285D01*
X72449285Y-112157142D01*
X72435000Y-112128571D01*
X72406428Y-112100000D01*
X72363571Y-112085714D01*
X72335000Y-112085714D01*
X72292142Y-112100000D01*
X72277857Y-112114285D01*
X71992142Y-112385714D02*
X72163571Y-112385714D01*
X72077857Y-112385714D02*
X72077857Y-112085714D01*
X72106428Y-112128571D01*
X72135000Y-112157142D01*
X72163571Y-112171428D01*
X71877857Y-112114285D02*
X71863571Y-112100000D01*
X71835000Y-112085714D01*
X71763571Y-112085714D01*
X71735000Y-112100000D01*
X71720714Y-112114285D01*
X71706428Y-112142857D01*
X71706428Y-112171428D01*
X71720714Y-112214285D01*
X71892142Y-112385714D01*
X71706428Y-112385714D01*
X70921428Y-110685714D02*
X70921428Y-110385714D01*
X70850000Y-110385714D01*
X70807142Y-110400000D01*
X70778571Y-110428571D01*
X70764285Y-110457142D01*
X70750000Y-110514285D01*
X70750000Y-110557142D01*
X70764285Y-110614285D01*
X70778571Y-110642857D01*
X70807142Y-110671428D01*
X70850000Y-110685714D01*
X70921428Y-110685714D01*
X70478571Y-110385714D02*
X70621428Y-110385714D01*
X70635714Y-110528571D01*
X70621428Y-110514285D01*
X70592857Y-110500000D01*
X70521428Y-110500000D01*
X70492857Y-110514285D01*
X70478571Y-110528571D01*
X70464285Y-110557142D01*
X70464285Y-110628571D01*
X70478571Y-110657142D01*
X70492857Y-110671428D01*
X70521428Y-110685714D01*
X70592857Y-110685714D01*
X70621428Y-110671428D01*
X70635714Y-110657142D01*
D10*
X73139285Y-110252380D02*
X73710714Y-110252380D01*
X73425000Y-110252380D02*
X73425000Y-109252380D01*
X73520238Y-109395238D01*
X73615476Y-109490476D01*
X73710714Y-109538095D01*
D12*
X104571428Y-110260714D02*
X104571428Y-109960714D01*
X104500000Y-109960714D01*
X104457142Y-109975000D01*
X104428571Y-110003571D01*
X104414285Y-110032142D01*
X104400000Y-110089285D01*
X104400000Y-110132142D01*
X104414285Y-110189285D01*
X104428571Y-110217857D01*
X104457142Y-110246428D01*
X104500000Y-110260714D01*
X104571428Y-110260714D01*
X104300000Y-109960714D02*
X104114285Y-109960714D01*
X104214285Y-110075000D01*
X104171428Y-110075000D01*
X104142857Y-110089285D01*
X104128571Y-110103571D01*
X104114285Y-110132142D01*
X104114285Y-110203571D01*
X104128571Y-110232142D01*
X104142857Y-110246428D01*
X104171428Y-110260714D01*
X104257142Y-110260714D01*
X104285714Y-110246428D01*
X104300000Y-110232142D01*
D10*
X106764285Y-109902380D02*
X107335714Y-109902380D01*
X107050000Y-109902380D02*
X107050000Y-108902380D01*
X107145238Y-109045238D01*
X107240476Y-109140476D01*
X107335714Y-109188095D01*
D12*
X89454251Y-118643634D02*
X89454251Y-118886491D01*
X89439965Y-118915062D01*
X89425680Y-118929348D01*
X89397108Y-118943634D01*
X89339965Y-118943634D01*
X89311394Y-118929348D01*
X89297108Y-118915062D01*
X89282822Y-118886491D01*
X89282822Y-118643634D01*
X88997108Y-118643634D02*
X89139965Y-118643634D01*
X89154251Y-118786491D01*
X89139965Y-118772205D01*
X89111394Y-118757920D01*
X89039965Y-118757920D01*
X89011394Y-118772205D01*
X88997108Y-118786491D01*
X88982822Y-118815062D01*
X88982822Y-118886491D01*
X88997108Y-118915062D01*
X89011394Y-118929348D01*
X89039965Y-118943634D01*
X89111394Y-118943634D01*
X89139965Y-118929348D01*
X89154251Y-118915062D01*
M02*
