%TF.GenerationSoftware,KiCad,Pcbnew,5.0.1*%
%TF.CreationDate,2018-11-18T21:12:45+01:00*%
%TF.ProjectId,lightball,6C6967687462616C6C2E6B696361645F,rev?*%
%TF.SameCoordinates,Original*%
%TF.FileFunction,Paste,Bot*%
%TF.FilePolarity,Positive*%
%FSLAX46Y46*%
G04 Gerber Fmt 4.6, Leading zero omitted, Abs format (unit mm)*
G04 Created by KiCad (PCBNEW 5.0.1) date So 18 Nov 2018 21:12:45 CET*
%MOMM*%
%LPD*%
G01*
G04 APERTURE LIST*
%ADD10C,0.150000*%
%ADD11C,0.100000*%
%ADD12C,0.590000*%
%ADD13R,1.500000X1.000000*%
%ADD14C,0.650000*%
G04 APERTURE END LIST*
D10*
X73975000Y-113550000D02*
X72575000Y-113550000D01*
X73975000Y-117200000D02*
X73975000Y-113550000D01*
X112660414Y-110153935D02*
G75*
G02X73975000Y-117200000I-21460414J8103935D01*
G01*
X112675000Y-104650000D02*
X112663015Y-110154914D01*
X104050000Y-104650000D02*
X112675000Y-104650000D01*
X100250000Y-107650000D02*
X104050000Y-104650000D01*
X80300000Y-107650000D02*
X100250000Y-107650000D01*
X80300000Y-105000000D02*
X80300000Y-107650000D01*
X70050000Y-105000000D02*
X80300000Y-105000000D01*
X70050000Y-112150000D02*
X70050000Y-105000000D01*
X70850000Y-113550000D02*
X70050000Y-112150000D01*
X72575000Y-113550000D02*
X70850000Y-113550000D01*
X103275000Y-112400000D02*
G75*
G03X103275000Y-112400000I-700000J0D01*
G01*
X85075000Y-115475000D02*
G75*
G03X85075000Y-115475000I-1300000J0D01*
G01*
D11*
G36*
X101150083Y-118319883D02*
X101164401Y-118322007D01*
X101178442Y-118325524D01*
X101192071Y-118330401D01*
X101205156Y-118336590D01*
X101217572Y-118344031D01*
X101229198Y-118352654D01*
X101239923Y-118362375D01*
X101448519Y-118570971D01*
X101458240Y-118581696D01*
X101466863Y-118593322D01*
X101474304Y-118605738D01*
X101480493Y-118618823D01*
X101485370Y-118632452D01*
X101488887Y-118646493D01*
X101491011Y-118660811D01*
X101491721Y-118675269D01*
X101491011Y-118689727D01*
X101488887Y-118704045D01*
X101485370Y-118718086D01*
X101480493Y-118731715D01*
X101474304Y-118744800D01*
X101466863Y-118757216D01*
X101458240Y-118768842D01*
X101448519Y-118779567D01*
X101204567Y-119023519D01*
X101193842Y-119033240D01*
X101182216Y-119041863D01*
X101169800Y-119049304D01*
X101156715Y-119055493D01*
X101143086Y-119060370D01*
X101129045Y-119063887D01*
X101114727Y-119066011D01*
X101100269Y-119066721D01*
X101085811Y-119066011D01*
X101071493Y-119063887D01*
X101057452Y-119060370D01*
X101043823Y-119055493D01*
X101030738Y-119049304D01*
X101018322Y-119041863D01*
X101006696Y-119033240D01*
X100995971Y-119023519D01*
X100787375Y-118814923D01*
X100777654Y-118804198D01*
X100769031Y-118792572D01*
X100761590Y-118780156D01*
X100755401Y-118767071D01*
X100750524Y-118753442D01*
X100747007Y-118739401D01*
X100744883Y-118725083D01*
X100744173Y-118710625D01*
X100744883Y-118696167D01*
X100747007Y-118681849D01*
X100750524Y-118667808D01*
X100755401Y-118654179D01*
X100761590Y-118641094D01*
X100769031Y-118628678D01*
X100777654Y-118617052D01*
X100787375Y-118606327D01*
X101031327Y-118362375D01*
X101042052Y-118352654D01*
X101053678Y-118344031D01*
X101066094Y-118336590D01*
X101079179Y-118330401D01*
X101092808Y-118325524D01*
X101106849Y-118322007D01*
X101121167Y-118319883D01*
X101135625Y-118319173D01*
X101150083Y-118319883D01*
X101150083Y-118319883D01*
G37*
D12*
X101117947Y-118692947D03*
D11*
G36*
X100464189Y-117633989D02*
X100478507Y-117636113D01*
X100492548Y-117639630D01*
X100506177Y-117644507D01*
X100519262Y-117650696D01*
X100531678Y-117658137D01*
X100543304Y-117666760D01*
X100554029Y-117676481D01*
X100762625Y-117885077D01*
X100772346Y-117895802D01*
X100780969Y-117907428D01*
X100788410Y-117919844D01*
X100794599Y-117932929D01*
X100799476Y-117946558D01*
X100802993Y-117960599D01*
X100805117Y-117974917D01*
X100805827Y-117989375D01*
X100805117Y-118003833D01*
X100802993Y-118018151D01*
X100799476Y-118032192D01*
X100794599Y-118045821D01*
X100788410Y-118058906D01*
X100780969Y-118071322D01*
X100772346Y-118082948D01*
X100762625Y-118093673D01*
X100518673Y-118337625D01*
X100507948Y-118347346D01*
X100496322Y-118355969D01*
X100483906Y-118363410D01*
X100470821Y-118369599D01*
X100457192Y-118374476D01*
X100443151Y-118377993D01*
X100428833Y-118380117D01*
X100414375Y-118380827D01*
X100399917Y-118380117D01*
X100385599Y-118377993D01*
X100371558Y-118374476D01*
X100357929Y-118369599D01*
X100344844Y-118363410D01*
X100332428Y-118355969D01*
X100320802Y-118347346D01*
X100310077Y-118337625D01*
X100101481Y-118129029D01*
X100091760Y-118118304D01*
X100083137Y-118106678D01*
X100075696Y-118094262D01*
X100069507Y-118081177D01*
X100064630Y-118067548D01*
X100061113Y-118053507D01*
X100058989Y-118039189D01*
X100058279Y-118024731D01*
X100058989Y-118010273D01*
X100061113Y-117995955D01*
X100064630Y-117981914D01*
X100069507Y-117968285D01*
X100075696Y-117955200D01*
X100083137Y-117942784D01*
X100091760Y-117931158D01*
X100101481Y-117920433D01*
X100345433Y-117676481D01*
X100356158Y-117666760D01*
X100367784Y-117658137D01*
X100380200Y-117650696D01*
X100393285Y-117644507D01*
X100406914Y-117639630D01*
X100420955Y-117636113D01*
X100435273Y-117633989D01*
X100449731Y-117633279D01*
X100464189Y-117633989D01*
X100464189Y-117633989D01*
G37*
D12*
X100432053Y-118007053D03*
D11*
G36*
X102439727Y-118283989D02*
X102454045Y-118286113D01*
X102468086Y-118289630D01*
X102481715Y-118294507D01*
X102494800Y-118300696D01*
X102507216Y-118308137D01*
X102518842Y-118316760D01*
X102529567Y-118326481D01*
X102773519Y-118570433D01*
X102783240Y-118581158D01*
X102791863Y-118592784D01*
X102799304Y-118605200D01*
X102805493Y-118618285D01*
X102810370Y-118631914D01*
X102813887Y-118645955D01*
X102816011Y-118660273D01*
X102816721Y-118674731D01*
X102816011Y-118689189D01*
X102813887Y-118703507D01*
X102810370Y-118717548D01*
X102805493Y-118731177D01*
X102799304Y-118744262D01*
X102791863Y-118756678D01*
X102783240Y-118768304D01*
X102773519Y-118779029D01*
X102564923Y-118987625D01*
X102554198Y-118997346D01*
X102542572Y-119005969D01*
X102530156Y-119013410D01*
X102517071Y-119019599D01*
X102503442Y-119024476D01*
X102489401Y-119027993D01*
X102475083Y-119030117D01*
X102460625Y-119030827D01*
X102446167Y-119030117D01*
X102431849Y-119027993D01*
X102417808Y-119024476D01*
X102404179Y-119019599D01*
X102391094Y-119013410D01*
X102378678Y-119005969D01*
X102367052Y-118997346D01*
X102356327Y-118987625D01*
X102112375Y-118743673D01*
X102102654Y-118732948D01*
X102094031Y-118721322D01*
X102086590Y-118708906D01*
X102080401Y-118695821D01*
X102075524Y-118682192D01*
X102072007Y-118668151D01*
X102069883Y-118653833D01*
X102069173Y-118639375D01*
X102069883Y-118624917D01*
X102072007Y-118610599D01*
X102075524Y-118596558D01*
X102080401Y-118582929D01*
X102086590Y-118569844D01*
X102094031Y-118557428D01*
X102102654Y-118545802D01*
X102112375Y-118535077D01*
X102320971Y-118326481D01*
X102331696Y-118316760D01*
X102343322Y-118308137D01*
X102355738Y-118300696D01*
X102368823Y-118294507D01*
X102382452Y-118289630D01*
X102396493Y-118286113D01*
X102410811Y-118283989D01*
X102425269Y-118283279D01*
X102439727Y-118283989D01*
X102439727Y-118283989D01*
G37*
D12*
X102442947Y-118657053D03*
D11*
G36*
X101753833Y-118969883D02*
X101768151Y-118972007D01*
X101782192Y-118975524D01*
X101795821Y-118980401D01*
X101808906Y-118986590D01*
X101821322Y-118994031D01*
X101832948Y-119002654D01*
X101843673Y-119012375D01*
X102087625Y-119256327D01*
X102097346Y-119267052D01*
X102105969Y-119278678D01*
X102113410Y-119291094D01*
X102119599Y-119304179D01*
X102124476Y-119317808D01*
X102127993Y-119331849D01*
X102130117Y-119346167D01*
X102130827Y-119360625D01*
X102130117Y-119375083D01*
X102127993Y-119389401D01*
X102124476Y-119403442D01*
X102119599Y-119417071D01*
X102113410Y-119430156D01*
X102105969Y-119442572D01*
X102097346Y-119454198D01*
X102087625Y-119464923D01*
X101879029Y-119673519D01*
X101868304Y-119683240D01*
X101856678Y-119691863D01*
X101844262Y-119699304D01*
X101831177Y-119705493D01*
X101817548Y-119710370D01*
X101803507Y-119713887D01*
X101789189Y-119716011D01*
X101774731Y-119716721D01*
X101760273Y-119716011D01*
X101745955Y-119713887D01*
X101731914Y-119710370D01*
X101718285Y-119705493D01*
X101705200Y-119699304D01*
X101692784Y-119691863D01*
X101681158Y-119683240D01*
X101670433Y-119673519D01*
X101426481Y-119429567D01*
X101416760Y-119418842D01*
X101408137Y-119407216D01*
X101400696Y-119394800D01*
X101394507Y-119381715D01*
X101389630Y-119368086D01*
X101386113Y-119354045D01*
X101383989Y-119339727D01*
X101383279Y-119325269D01*
X101383989Y-119310811D01*
X101386113Y-119296493D01*
X101389630Y-119282452D01*
X101394507Y-119268823D01*
X101400696Y-119255738D01*
X101408137Y-119243322D01*
X101416760Y-119231696D01*
X101426481Y-119220971D01*
X101635077Y-119012375D01*
X101645802Y-119002654D01*
X101657428Y-118994031D01*
X101669844Y-118986590D01*
X101682929Y-118980401D01*
X101696558Y-118975524D01*
X101710599Y-118972007D01*
X101724917Y-118969883D01*
X101739375Y-118969173D01*
X101753833Y-118969883D01*
X101753833Y-118969883D01*
G37*
D12*
X101757053Y-119342947D03*
D11*
G36*
X99110886Y-117662830D02*
X99125204Y-117664954D01*
X99139245Y-117668471D01*
X99152874Y-117673348D01*
X99165959Y-117679537D01*
X99178375Y-117686978D01*
X99190001Y-117695601D01*
X99200726Y-117705322D01*
X99444678Y-117949274D01*
X99454399Y-117959999D01*
X99463022Y-117971625D01*
X99470463Y-117984041D01*
X99476652Y-117997126D01*
X99481529Y-118010755D01*
X99485046Y-118024796D01*
X99487170Y-118039114D01*
X99487880Y-118053572D01*
X99487170Y-118068030D01*
X99485046Y-118082348D01*
X99481529Y-118096389D01*
X99476652Y-118110018D01*
X99470463Y-118123103D01*
X99463022Y-118135519D01*
X99454399Y-118147145D01*
X99444678Y-118157870D01*
X99236082Y-118366466D01*
X99225357Y-118376187D01*
X99213731Y-118384810D01*
X99201315Y-118392251D01*
X99188230Y-118398440D01*
X99174601Y-118403317D01*
X99160560Y-118406834D01*
X99146242Y-118408958D01*
X99131784Y-118409668D01*
X99117326Y-118408958D01*
X99103008Y-118406834D01*
X99088967Y-118403317D01*
X99075338Y-118398440D01*
X99062253Y-118392251D01*
X99049837Y-118384810D01*
X99038211Y-118376187D01*
X99027486Y-118366466D01*
X98783534Y-118122514D01*
X98773813Y-118111789D01*
X98765190Y-118100163D01*
X98757749Y-118087747D01*
X98751560Y-118074662D01*
X98746683Y-118061033D01*
X98743166Y-118046992D01*
X98741042Y-118032674D01*
X98740332Y-118018216D01*
X98741042Y-118003758D01*
X98743166Y-117989440D01*
X98746683Y-117975399D01*
X98751560Y-117961770D01*
X98757749Y-117948685D01*
X98765190Y-117936269D01*
X98773813Y-117924643D01*
X98783534Y-117913918D01*
X98992130Y-117705322D01*
X99002855Y-117695601D01*
X99014481Y-117686978D01*
X99026897Y-117679537D01*
X99039982Y-117673348D01*
X99053611Y-117668471D01*
X99067652Y-117664954D01*
X99081970Y-117662830D01*
X99096428Y-117662120D01*
X99110886Y-117662830D01*
X99110886Y-117662830D01*
G37*
D12*
X99114106Y-118035894D03*
D11*
G36*
X99796780Y-116976936D02*
X99811098Y-116979060D01*
X99825139Y-116982577D01*
X99838768Y-116987454D01*
X99851853Y-116993643D01*
X99864269Y-117001084D01*
X99875895Y-117009707D01*
X99886620Y-117019428D01*
X100130572Y-117263380D01*
X100140293Y-117274105D01*
X100148916Y-117285731D01*
X100156357Y-117298147D01*
X100162546Y-117311232D01*
X100167423Y-117324861D01*
X100170940Y-117338902D01*
X100173064Y-117353220D01*
X100173774Y-117367678D01*
X100173064Y-117382136D01*
X100170940Y-117396454D01*
X100167423Y-117410495D01*
X100162546Y-117424124D01*
X100156357Y-117437209D01*
X100148916Y-117449625D01*
X100140293Y-117461251D01*
X100130572Y-117471976D01*
X99921976Y-117680572D01*
X99911251Y-117690293D01*
X99899625Y-117698916D01*
X99887209Y-117706357D01*
X99874124Y-117712546D01*
X99860495Y-117717423D01*
X99846454Y-117720940D01*
X99832136Y-117723064D01*
X99817678Y-117723774D01*
X99803220Y-117723064D01*
X99788902Y-117720940D01*
X99774861Y-117717423D01*
X99761232Y-117712546D01*
X99748147Y-117706357D01*
X99735731Y-117698916D01*
X99724105Y-117690293D01*
X99713380Y-117680572D01*
X99469428Y-117436620D01*
X99459707Y-117425895D01*
X99451084Y-117414269D01*
X99443643Y-117401853D01*
X99437454Y-117388768D01*
X99432577Y-117375139D01*
X99429060Y-117361098D01*
X99426936Y-117346780D01*
X99426226Y-117332322D01*
X99426936Y-117317864D01*
X99429060Y-117303546D01*
X99432577Y-117289505D01*
X99437454Y-117275876D01*
X99443643Y-117262791D01*
X99451084Y-117250375D01*
X99459707Y-117238749D01*
X99469428Y-117228024D01*
X99678024Y-117019428D01*
X99688749Y-117009707D01*
X99700375Y-117001084D01*
X99712791Y-116993643D01*
X99725876Y-116987454D01*
X99739505Y-116982577D01*
X99753546Y-116979060D01*
X99767864Y-116976936D01*
X99782322Y-116976226D01*
X99796780Y-116976936D01*
X99796780Y-116976936D01*
G37*
D12*
X99800000Y-117350000D03*
D11*
G36*
X106946958Y-110930710D02*
X106961276Y-110932834D01*
X106975317Y-110936351D01*
X106988946Y-110941228D01*
X107002031Y-110947417D01*
X107014447Y-110954858D01*
X107026073Y-110963481D01*
X107036798Y-110973202D01*
X107046519Y-110983927D01*
X107055142Y-110995553D01*
X107062583Y-111007969D01*
X107068772Y-111021054D01*
X107073649Y-111034683D01*
X107077166Y-111048724D01*
X107079290Y-111063042D01*
X107080000Y-111077500D01*
X107080000Y-111422500D01*
X107079290Y-111436958D01*
X107077166Y-111451276D01*
X107073649Y-111465317D01*
X107068772Y-111478946D01*
X107062583Y-111492031D01*
X107055142Y-111504447D01*
X107046519Y-111516073D01*
X107036798Y-111526798D01*
X107026073Y-111536519D01*
X107014447Y-111545142D01*
X107002031Y-111552583D01*
X106988946Y-111558772D01*
X106975317Y-111563649D01*
X106961276Y-111567166D01*
X106946958Y-111569290D01*
X106932500Y-111570000D01*
X106637500Y-111570000D01*
X106623042Y-111569290D01*
X106608724Y-111567166D01*
X106594683Y-111563649D01*
X106581054Y-111558772D01*
X106567969Y-111552583D01*
X106555553Y-111545142D01*
X106543927Y-111536519D01*
X106533202Y-111526798D01*
X106523481Y-111516073D01*
X106514858Y-111504447D01*
X106507417Y-111492031D01*
X106501228Y-111478946D01*
X106496351Y-111465317D01*
X106492834Y-111451276D01*
X106490710Y-111436958D01*
X106490000Y-111422500D01*
X106490000Y-111077500D01*
X106490710Y-111063042D01*
X106492834Y-111048724D01*
X106496351Y-111034683D01*
X106501228Y-111021054D01*
X106507417Y-111007969D01*
X106514858Y-110995553D01*
X106523481Y-110983927D01*
X106533202Y-110973202D01*
X106543927Y-110963481D01*
X106555553Y-110954858D01*
X106567969Y-110947417D01*
X106581054Y-110941228D01*
X106594683Y-110936351D01*
X106608724Y-110932834D01*
X106623042Y-110930710D01*
X106637500Y-110930000D01*
X106932500Y-110930000D01*
X106946958Y-110930710D01*
X106946958Y-110930710D01*
G37*
D12*
X106785000Y-111250000D03*
D11*
G36*
X105976958Y-110930710D02*
X105991276Y-110932834D01*
X106005317Y-110936351D01*
X106018946Y-110941228D01*
X106032031Y-110947417D01*
X106044447Y-110954858D01*
X106056073Y-110963481D01*
X106066798Y-110973202D01*
X106076519Y-110983927D01*
X106085142Y-110995553D01*
X106092583Y-111007969D01*
X106098772Y-111021054D01*
X106103649Y-111034683D01*
X106107166Y-111048724D01*
X106109290Y-111063042D01*
X106110000Y-111077500D01*
X106110000Y-111422500D01*
X106109290Y-111436958D01*
X106107166Y-111451276D01*
X106103649Y-111465317D01*
X106098772Y-111478946D01*
X106092583Y-111492031D01*
X106085142Y-111504447D01*
X106076519Y-111516073D01*
X106066798Y-111526798D01*
X106056073Y-111536519D01*
X106044447Y-111545142D01*
X106032031Y-111552583D01*
X106018946Y-111558772D01*
X106005317Y-111563649D01*
X105991276Y-111567166D01*
X105976958Y-111569290D01*
X105962500Y-111570000D01*
X105667500Y-111570000D01*
X105653042Y-111569290D01*
X105638724Y-111567166D01*
X105624683Y-111563649D01*
X105611054Y-111558772D01*
X105597969Y-111552583D01*
X105585553Y-111545142D01*
X105573927Y-111536519D01*
X105563202Y-111526798D01*
X105553481Y-111516073D01*
X105544858Y-111504447D01*
X105537417Y-111492031D01*
X105531228Y-111478946D01*
X105526351Y-111465317D01*
X105522834Y-111451276D01*
X105520710Y-111436958D01*
X105520000Y-111422500D01*
X105520000Y-111077500D01*
X105520710Y-111063042D01*
X105522834Y-111048724D01*
X105526351Y-111034683D01*
X105531228Y-111021054D01*
X105537417Y-111007969D01*
X105544858Y-110995553D01*
X105553481Y-110983927D01*
X105563202Y-110973202D01*
X105573927Y-110963481D01*
X105585553Y-110954858D01*
X105597969Y-110947417D01*
X105611054Y-110941228D01*
X105624683Y-110936351D01*
X105638724Y-110932834D01*
X105653042Y-110930710D01*
X105667500Y-110930000D01*
X105962500Y-110930000D01*
X105976958Y-110930710D01*
X105976958Y-110930710D01*
G37*
D12*
X105815000Y-111250000D03*
D11*
G36*
X72731958Y-111180710D02*
X72746276Y-111182834D01*
X72760317Y-111186351D01*
X72773946Y-111191228D01*
X72787031Y-111197417D01*
X72799447Y-111204858D01*
X72811073Y-111213481D01*
X72821798Y-111223202D01*
X72831519Y-111233927D01*
X72840142Y-111245553D01*
X72847583Y-111257969D01*
X72853772Y-111271054D01*
X72858649Y-111284683D01*
X72862166Y-111298724D01*
X72864290Y-111313042D01*
X72865000Y-111327500D01*
X72865000Y-111672500D01*
X72864290Y-111686958D01*
X72862166Y-111701276D01*
X72858649Y-111715317D01*
X72853772Y-111728946D01*
X72847583Y-111742031D01*
X72840142Y-111754447D01*
X72831519Y-111766073D01*
X72821798Y-111776798D01*
X72811073Y-111786519D01*
X72799447Y-111795142D01*
X72787031Y-111802583D01*
X72773946Y-111808772D01*
X72760317Y-111813649D01*
X72746276Y-111817166D01*
X72731958Y-111819290D01*
X72717500Y-111820000D01*
X72422500Y-111820000D01*
X72408042Y-111819290D01*
X72393724Y-111817166D01*
X72379683Y-111813649D01*
X72366054Y-111808772D01*
X72352969Y-111802583D01*
X72340553Y-111795142D01*
X72328927Y-111786519D01*
X72318202Y-111776798D01*
X72308481Y-111766073D01*
X72299858Y-111754447D01*
X72292417Y-111742031D01*
X72286228Y-111728946D01*
X72281351Y-111715317D01*
X72277834Y-111701276D01*
X72275710Y-111686958D01*
X72275000Y-111672500D01*
X72275000Y-111327500D01*
X72275710Y-111313042D01*
X72277834Y-111298724D01*
X72281351Y-111284683D01*
X72286228Y-111271054D01*
X72292417Y-111257969D01*
X72299858Y-111245553D01*
X72308481Y-111233927D01*
X72318202Y-111223202D01*
X72328927Y-111213481D01*
X72340553Y-111204858D01*
X72352969Y-111197417D01*
X72366054Y-111191228D01*
X72379683Y-111186351D01*
X72393724Y-111182834D01*
X72408042Y-111180710D01*
X72422500Y-111180000D01*
X72717500Y-111180000D01*
X72731958Y-111180710D01*
X72731958Y-111180710D01*
G37*
D12*
X72570000Y-111500000D03*
D11*
G36*
X71761958Y-111180710D02*
X71776276Y-111182834D01*
X71790317Y-111186351D01*
X71803946Y-111191228D01*
X71817031Y-111197417D01*
X71829447Y-111204858D01*
X71841073Y-111213481D01*
X71851798Y-111223202D01*
X71861519Y-111233927D01*
X71870142Y-111245553D01*
X71877583Y-111257969D01*
X71883772Y-111271054D01*
X71888649Y-111284683D01*
X71892166Y-111298724D01*
X71894290Y-111313042D01*
X71895000Y-111327500D01*
X71895000Y-111672500D01*
X71894290Y-111686958D01*
X71892166Y-111701276D01*
X71888649Y-111715317D01*
X71883772Y-111728946D01*
X71877583Y-111742031D01*
X71870142Y-111754447D01*
X71861519Y-111766073D01*
X71851798Y-111776798D01*
X71841073Y-111786519D01*
X71829447Y-111795142D01*
X71817031Y-111802583D01*
X71803946Y-111808772D01*
X71790317Y-111813649D01*
X71776276Y-111817166D01*
X71761958Y-111819290D01*
X71747500Y-111820000D01*
X71452500Y-111820000D01*
X71438042Y-111819290D01*
X71423724Y-111817166D01*
X71409683Y-111813649D01*
X71396054Y-111808772D01*
X71382969Y-111802583D01*
X71370553Y-111795142D01*
X71358927Y-111786519D01*
X71348202Y-111776798D01*
X71338481Y-111766073D01*
X71329858Y-111754447D01*
X71322417Y-111742031D01*
X71316228Y-111728946D01*
X71311351Y-111715317D01*
X71307834Y-111701276D01*
X71305710Y-111686958D01*
X71305000Y-111672500D01*
X71305000Y-111327500D01*
X71305710Y-111313042D01*
X71307834Y-111298724D01*
X71311351Y-111284683D01*
X71316228Y-111271054D01*
X71322417Y-111257969D01*
X71329858Y-111245553D01*
X71338481Y-111233927D01*
X71348202Y-111223202D01*
X71358927Y-111213481D01*
X71370553Y-111204858D01*
X71382969Y-111197417D01*
X71396054Y-111191228D01*
X71409683Y-111186351D01*
X71423724Y-111182834D01*
X71438042Y-111180710D01*
X71452500Y-111180000D01*
X71747500Y-111180000D01*
X71761958Y-111180710D01*
X71761958Y-111180710D01*
G37*
D12*
X71600000Y-111500000D03*
D13*
X72150000Y-109749930D03*
X72150000Y-106549930D03*
X77050000Y-109749930D03*
X77050000Y-106549930D03*
X105800000Y-109400000D03*
X105800000Y-106200000D03*
X110700000Y-109400000D03*
X110700000Y-106200000D03*
D14*
X91677978Y-115183901D03*
D11*
G36*
X92508828Y-115555132D02*
X92049209Y-116014751D01*
X90847128Y-114812670D01*
X91306747Y-114353051D01*
X92508828Y-115555132D01*
X92508828Y-115555132D01*
G37*
D14*
X90779953Y-116081927D03*
D11*
G36*
X91610803Y-116453158D02*
X91151184Y-116912777D01*
X89949103Y-115710696D01*
X90408722Y-115251077D01*
X91610803Y-116453158D01*
X91610803Y-116453158D01*
G37*
D14*
X89881927Y-116979953D03*
D11*
G36*
X90712777Y-117351184D02*
X90253158Y-117810803D01*
X89051077Y-116608722D01*
X89510696Y-116149103D01*
X90712777Y-117351184D01*
X90712777Y-117351184D01*
G37*
D14*
X88983901Y-117877978D03*
D11*
G36*
X89814751Y-118249209D02*
X89355132Y-118708828D01*
X88153051Y-117506747D01*
X88612670Y-117047128D01*
X89814751Y-118249209D01*
X89814751Y-118249209D01*
G37*
D14*
X83822022Y-112716099D03*
D11*
G36*
X84652872Y-113087330D02*
X84193253Y-113546949D01*
X82991172Y-112344868D01*
X83450791Y-111885249D01*
X84652872Y-113087330D01*
X84652872Y-113087330D01*
G37*
D14*
X84720047Y-111818073D03*
D11*
G36*
X85550897Y-112189304D02*
X85091278Y-112648923D01*
X83889197Y-111446842D01*
X84348816Y-110987223D01*
X85550897Y-112189304D01*
X85550897Y-112189304D01*
G37*
D14*
X85618073Y-110920047D03*
D11*
G36*
X86448923Y-111291278D02*
X85989304Y-111750897D01*
X84787223Y-110548816D01*
X85246842Y-110089197D01*
X86448923Y-111291278D01*
X86448923Y-111291278D01*
G37*
D14*
X86516099Y-110022022D03*
D11*
G36*
X87346949Y-110393253D02*
X86887330Y-110852872D01*
X85685249Y-109650791D01*
X86144868Y-109191172D01*
X87346949Y-110393253D01*
X87346949Y-110393253D01*
G37*
G36*
X107986958Y-111220710D02*
X108001276Y-111222834D01*
X108015317Y-111226351D01*
X108028946Y-111231228D01*
X108042031Y-111237417D01*
X108054447Y-111244858D01*
X108066073Y-111253481D01*
X108076798Y-111263202D01*
X108086519Y-111273927D01*
X108095142Y-111285553D01*
X108102583Y-111297969D01*
X108108772Y-111311054D01*
X108113649Y-111324683D01*
X108117166Y-111338724D01*
X108119290Y-111353042D01*
X108120000Y-111367500D01*
X108120000Y-111662500D01*
X108119290Y-111676958D01*
X108117166Y-111691276D01*
X108113649Y-111705317D01*
X108108772Y-111718946D01*
X108102583Y-111732031D01*
X108095142Y-111744447D01*
X108086519Y-111756073D01*
X108076798Y-111766798D01*
X108066073Y-111776519D01*
X108054447Y-111785142D01*
X108042031Y-111792583D01*
X108028946Y-111798772D01*
X108015317Y-111803649D01*
X108001276Y-111807166D01*
X107986958Y-111809290D01*
X107972500Y-111810000D01*
X107627500Y-111810000D01*
X107613042Y-111809290D01*
X107598724Y-111807166D01*
X107584683Y-111803649D01*
X107571054Y-111798772D01*
X107557969Y-111792583D01*
X107545553Y-111785142D01*
X107533927Y-111776519D01*
X107523202Y-111766798D01*
X107513481Y-111756073D01*
X107504858Y-111744447D01*
X107497417Y-111732031D01*
X107491228Y-111718946D01*
X107486351Y-111705317D01*
X107482834Y-111691276D01*
X107480710Y-111676958D01*
X107480000Y-111662500D01*
X107480000Y-111367500D01*
X107480710Y-111353042D01*
X107482834Y-111338724D01*
X107486351Y-111324683D01*
X107491228Y-111311054D01*
X107497417Y-111297969D01*
X107504858Y-111285553D01*
X107513481Y-111273927D01*
X107523202Y-111263202D01*
X107533927Y-111253481D01*
X107545553Y-111244858D01*
X107557969Y-111237417D01*
X107571054Y-111231228D01*
X107584683Y-111226351D01*
X107598724Y-111222834D01*
X107613042Y-111220710D01*
X107627500Y-111220000D01*
X107972500Y-111220000D01*
X107986958Y-111220710D01*
X107986958Y-111220710D01*
G37*
D12*
X107800000Y-111515000D03*
D11*
G36*
X107986958Y-112190710D02*
X108001276Y-112192834D01*
X108015317Y-112196351D01*
X108028946Y-112201228D01*
X108042031Y-112207417D01*
X108054447Y-112214858D01*
X108066073Y-112223481D01*
X108076798Y-112233202D01*
X108086519Y-112243927D01*
X108095142Y-112255553D01*
X108102583Y-112267969D01*
X108108772Y-112281054D01*
X108113649Y-112294683D01*
X108117166Y-112308724D01*
X108119290Y-112323042D01*
X108120000Y-112337500D01*
X108120000Y-112632500D01*
X108119290Y-112646958D01*
X108117166Y-112661276D01*
X108113649Y-112675317D01*
X108108772Y-112688946D01*
X108102583Y-112702031D01*
X108095142Y-112714447D01*
X108086519Y-112726073D01*
X108076798Y-112736798D01*
X108066073Y-112746519D01*
X108054447Y-112755142D01*
X108042031Y-112762583D01*
X108028946Y-112768772D01*
X108015317Y-112773649D01*
X108001276Y-112777166D01*
X107986958Y-112779290D01*
X107972500Y-112780000D01*
X107627500Y-112780000D01*
X107613042Y-112779290D01*
X107598724Y-112777166D01*
X107584683Y-112773649D01*
X107571054Y-112768772D01*
X107557969Y-112762583D01*
X107545553Y-112755142D01*
X107533927Y-112746519D01*
X107523202Y-112736798D01*
X107513481Y-112726073D01*
X107504858Y-112714447D01*
X107497417Y-112702031D01*
X107491228Y-112688946D01*
X107486351Y-112675317D01*
X107482834Y-112661276D01*
X107480710Y-112646958D01*
X107480000Y-112632500D01*
X107480000Y-112337500D01*
X107480710Y-112323042D01*
X107482834Y-112308724D01*
X107486351Y-112294683D01*
X107491228Y-112281054D01*
X107497417Y-112267969D01*
X107504858Y-112255553D01*
X107513481Y-112243927D01*
X107523202Y-112233202D01*
X107533927Y-112223481D01*
X107545553Y-112214858D01*
X107557969Y-112207417D01*
X107571054Y-112201228D01*
X107584683Y-112196351D01*
X107598724Y-112192834D01*
X107613042Y-112190710D01*
X107627500Y-112190000D01*
X107972500Y-112190000D01*
X107986958Y-112190710D01*
X107986958Y-112190710D01*
G37*
D12*
X107800000Y-112485000D03*
M02*
