%TF.GenerationSoftware,KiCad,Pcbnew,5.0.1-33cea8e~68~ubuntu18.04.1*%
%TF.CreationDate,2018-12-05T11:41:32+01:00*%
%TF.ProjectId,lightball,6C6967687462616C6C2E6B696361645F,rev?*%
%TF.SameCoordinates,Original*%
%TF.FileFunction,Soldermask,Bot*%
%TF.FilePolarity,Negative*%
%FSLAX46Y46*%
G04 Gerber Fmt 4.6, Leading zero omitted, Abs format (unit mm)*
G04 Created by KiCad (PCBNEW 5.0.1-33cea8e~68~ubuntu18.04.1) date Mi 05 Dez 2018 11:41:32 CET*
%MOMM*%
%LPD*%
G01*
G04 APERTURE LIST*
%ADD10C,0.150000*%
%ADD11C,0.100000*%
G04 APERTURE END LIST*
D10*
X73975000Y-113550000D02*
X72575000Y-113550000D01*
X73975000Y-117200000D02*
X73975000Y-113550000D01*
X112660414Y-110153935D02*
G75*
G02X73975000Y-117200000I-21460414J8103935D01*
G01*
X112675000Y-104650000D02*
X112663015Y-110154914D01*
X104050000Y-104650000D02*
X112675000Y-104650000D01*
X100250000Y-107650000D02*
X104050000Y-104650000D01*
X80300000Y-107650000D02*
X100250000Y-107650000D01*
X80300000Y-105000000D02*
X80300000Y-107650000D01*
X70050000Y-105000000D02*
X80300000Y-105000000D01*
X70050000Y-112150000D02*
X70050000Y-105000000D01*
X70850000Y-113550000D02*
X70050000Y-112150000D01*
X72575000Y-113550000D02*
X70850000Y-113550000D01*
X103375000Y-112400000D02*
G75*
G03X103375000Y-112400000I-800000J0D01*
G01*
X85075000Y-115475000D02*
G75*
G03X85075000Y-115475000I-1300000J0D01*
G01*
D11*
G36*
X92215995Y-122099470D02*
X92370867Y-122163620D01*
X92510248Y-122256752D01*
X92628782Y-122375286D01*
X92721914Y-122514667D01*
X92786064Y-122669539D01*
X92818767Y-122833951D01*
X92818767Y-123001583D01*
X92786064Y-123165995D01*
X92721914Y-123320867D01*
X92628782Y-123460248D01*
X92510248Y-123578782D01*
X92370867Y-123671914D01*
X92215995Y-123736064D01*
X92051583Y-123768767D01*
X91883951Y-123768767D01*
X91719539Y-123736064D01*
X91564667Y-123671914D01*
X91425286Y-123578782D01*
X91306752Y-123460248D01*
X91213620Y-123320867D01*
X91149470Y-123165995D01*
X91116767Y-123001583D01*
X91116767Y-122833951D01*
X91149470Y-122669539D01*
X91213620Y-122514667D01*
X91306752Y-122375286D01*
X91425286Y-122256752D01*
X91564667Y-122163620D01*
X91719539Y-122099470D01*
X91883951Y-122066767D01*
X92051583Y-122066767D01*
X92215995Y-122099470D01*
X92215995Y-122099470D01*
G37*
G36*
X86846363Y-121889119D02*
X86912547Y-121895637D01*
X87025773Y-121929984D01*
X87082387Y-121947157D01*
X87221007Y-122021252D01*
X87238911Y-122030822D01*
X87274649Y-122060152D01*
X87376106Y-122143414D01*
X87459368Y-122244871D01*
X87488698Y-122280609D01*
X87488699Y-122280611D01*
X87572363Y-122437133D01*
X87572363Y-122437134D01*
X87623883Y-122606973D01*
X87641279Y-122783600D01*
X87623883Y-122960227D01*
X87590678Y-123069691D01*
X87572363Y-123130067D01*
X87498268Y-123268687D01*
X87488698Y-123286591D01*
X87460568Y-123320867D01*
X87376106Y-123423786D01*
X87274649Y-123507048D01*
X87238911Y-123536378D01*
X87238909Y-123536379D01*
X87082387Y-123620043D01*
X87025773Y-123637216D01*
X86912547Y-123671563D01*
X86846362Y-123678082D01*
X86780180Y-123684600D01*
X86691660Y-123684600D01*
X86625478Y-123678082D01*
X86559293Y-123671563D01*
X86446067Y-123637216D01*
X86389453Y-123620043D01*
X86232931Y-123536379D01*
X86232929Y-123536378D01*
X86197191Y-123507048D01*
X86095734Y-123423786D01*
X86011272Y-123320867D01*
X85983142Y-123286591D01*
X85973572Y-123268687D01*
X85899477Y-123130067D01*
X85881162Y-123069691D01*
X85847957Y-122960227D01*
X85830561Y-122783600D01*
X85847957Y-122606973D01*
X85899477Y-122437134D01*
X85899477Y-122437133D01*
X85983141Y-122280611D01*
X85983142Y-122280609D01*
X86012472Y-122244871D01*
X86095734Y-122143414D01*
X86197191Y-122060152D01*
X86232929Y-122030822D01*
X86250833Y-122021252D01*
X86389453Y-121947157D01*
X86446067Y-121929984D01*
X86559293Y-121895637D01*
X86625477Y-121889119D01*
X86691660Y-121882600D01*
X86780180Y-121882600D01*
X86846363Y-121889119D01*
X86846363Y-121889119D01*
G37*
G36*
X99030400Y-122441474D02*
X97055166Y-123160400D01*
X96336240Y-121185166D01*
X98311474Y-120466240D01*
X99030400Y-122441474D01*
X99030400Y-122441474D01*
G37*
G36*
X85503924Y-121376366D02*
X84887604Y-123069692D01*
X83194278Y-122453372D01*
X83810598Y-120760046D01*
X85503924Y-121376366D01*
X85503924Y-121376366D01*
G37*
G36*
X91403496Y-121150000D02*
X90200000Y-122353496D01*
X88996504Y-121150000D01*
X90200000Y-119946504D01*
X91403496Y-121150000D01*
X91403496Y-121150000D01*
G37*
G36*
X102339890Y-120174017D02*
X102458361Y-120223089D01*
X102564992Y-120294338D01*
X102655662Y-120385008D01*
X102655664Y-120385011D01*
X102655665Y-120385012D01*
X102726909Y-120491636D01*
X102726911Y-120491639D01*
X102775983Y-120610110D01*
X102801000Y-120735881D01*
X102801000Y-120864119D01*
X102775983Y-120989890D01*
X102726911Y-121108361D01*
X102655662Y-121214992D01*
X102564992Y-121305662D01*
X102458361Y-121376911D01*
X102339890Y-121425983D01*
X102214119Y-121451000D01*
X102085881Y-121451000D01*
X101960110Y-121425983D01*
X101841639Y-121376911D01*
X101735008Y-121305662D01*
X101644338Y-121214992D01*
X101573089Y-121108361D01*
X101524017Y-120989890D01*
X101499000Y-120864119D01*
X101499000Y-120735881D01*
X101524017Y-120610110D01*
X101573089Y-120491639D01*
X101573091Y-120491636D01*
X101644335Y-120385012D01*
X101644336Y-120385011D01*
X101644338Y-120385008D01*
X101735008Y-120294338D01*
X101841639Y-120223089D01*
X101960110Y-120174017D01*
X102085881Y-120149000D01*
X102214119Y-120149000D01*
X102339890Y-120174017D01*
X102339890Y-120174017D01*
G37*
G36*
X99839890Y-120174017D02*
X99958361Y-120223089D01*
X100064992Y-120294338D01*
X100155662Y-120385008D01*
X100155664Y-120385011D01*
X100155665Y-120385012D01*
X100226909Y-120491636D01*
X100226911Y-120491639D01*
X100275983Y-120610110D01*
X100301000Y-120735881D01*
X100301000Y-120864119D01*
X100275983Y-120989890D01*
X100226911Y-121108361D01*
X100155662Y-121214992D01*
X100064992Y-121305662D01*
X99958361Y-121376911D01*
X99839890Y-121425983D01*
X99714119Y-121451000D01*
X99585881Y-121451000D01*
X99460110Y-121425983D01*
X99341639Y-121376911D01*
X99235008Y-121305662D01*
X99144338Y-121214992D01*
X99073089Y-121108361D01*
X99024017Y-120989890D01*
X98999000Y-120864119D01*
X98999000Y-120735881D01*
X99024017Y-120610110D01*
X99073089Y-120491639D01*
X99073091Y-120491636D01*
X99144335Y-120385012D01*
X99144336Y-120385011D01*
X99144338Y-120385008D01*
X99235008Y-120294338D01*
X99341639Y-120223089D01*
X99460110Y-120174017D01*
X99585881Y-120149000D01*
X99714119Y-120149000D01*
X99839890Y-120174017D01*
X99839890Y-120174017D01*
G37*
G36*
X104985734Y-117193232D02*
X105195202Y-117279996D01*
X105383723Y-117405962D01*
X105544038Y-117566277D01*
X105670004Y-117754798D01*
X105756768Y-117964266D01*
X105801000Y-118186635D01*
X105801000Y-118413365D01*
X105756768Y-118635734D01*
X105670004Y-118845202D01*
X105544038Y-119033723D01*
X105383723Y-119194038D01*
X105195202Y-119320004D01*
X104985734Y-119406768D01*
X104763365Y-119451000D01*
X104536635Y-119451000D01*
X104314266Y-119406768D01*
X104104798Y-119320004D01*
X103916277Y-119194038D01*
X103755962Y-119033723D01*
X103629996Y-118845202D01*
X103543232Y-118635734D01*
X103499000Y-118413365D01*
X103499000Y-118186635D01*
X103543232Y-117964266D01*
X103629996Y-117754798D01*
X103755962Y-117566277D01*
X103916277Y-117405962D01*
X104104798Y-117279996D01*
X104314266Y-117193232D01*
X104536635Y-117149000D01*
X104763365Y-117149000D01*
X104985734Y-117193232D01*
X104985734Y-117193232D01*
G37*
G36*
X97485734Y-117193232D02*
X97695202Y-117279996D01*
X97883723Y-117405962D01*
X98044038Y-117566277D01*
X98170004Y-117754798D01*
X98256768Y-117964266D01*
X98301000Y-118186635D01*
X98301000Y-118413365D01*
X98256768Y-118635734D01*
X98170004Y-118845202D01*
X98044038Y-119033723D01*
X97883723Y-119194038D01*
X97695202Y-119320004D01*
X97485734Y-119406768D01*
X97263365Y-119451000D01*
X97036635Y-119451000D01*
X96814266Y-119406768D01*
X96604798Y-119320004D01*
X96416277Y-119194038D01*
X96255962Y-119033723D01*
X96129996Y-118845202D01*
X96043232Y-118635734D01*
X95999000Y-118413365D01*
X95999000Y-118186635D01*
X96043232Y-117964266D01*
X96129996Y-117754798D01*
X96255962Y-117566277D01*
X96416277Y-117405962D01*
X96604798Y-117279996D01*
X96814266Y-117193232D01*
X97036635Y-117149000D01*
X97263365Y-117149000D01*
X97485734Y-117193232D01*
X97485734Y-117193232D01*
G37*
G36*
X100069511Y-118377525D02*
X100103489Y-118387833D01*
X100134807Y-118404573D01*
X100162259Y-118427101D01*
X100184787Y-118454553D01*
X100201527Y-118485871D01*
X100211835Y-118519849D01*
X100215920Y-118561330D01*
X100215920Y-119162550D01*
X100211835Y-119204031D01*
X100201527Y-119238009D01*
X100184787Y-119269327D01*
X100162259Y-119296779D01*
X100134807Y-119319307D01*
X100103489Y-119336047D01*
X100069511Y-119346355D01*
X100028030Y-119350440D01*
X99351810Y-119350440D01*
X99310329Y-119346355D01*
X99276351Y-119336047D01*
X99245033Y-119319307D01*
X99217581Y-119296779D01*
X99195053Y-119269327D01*
X99178313Y-119238009D01*
X99168005Y-119204031D01*
X99163920Y-119162550D01*
X99163920Y-118561330D01*
X99168005Y-118519849D01*
X99178313Y-118485871D01*
X99195053Y-118454553D01*
X99217581Y-118427101D01*
X99245033Y-118404573D01*
X99276351Y-118387833D01*
X99310329Y-118377525D01*
X99351810Y-118373440D01*
X100028030Y-118373440D01*
X100069511Y-118377525D01*
X100069511Y-118377525D01*
G37*
G36*
X90762557Y-117832129D02*
X90230812Y-118363874D01*
X88956605Y-117089667D01*
X89488350Y-116557922D01*
X90762557Y-117832129D01*
X90762557Y-117832129D01*
G37*
G36*
X100069511Y-116802525D02*
X100103489Y-116812833D01*
X100134807Y-116829573D01*
X100162259Y-116852101D01*
X100184787Y-116879553D01*
X100201527Y-116910871D01*
X100211835Y-116944849D01*
X100215920Y-116986330D01*
X100215920Y-117587550D01*
X100211835Y-117629031D01*
X100201527Y-117663009D01*
X100184787Y-117694327D01*
X100162259Y-117721779D01*
X100134807Y-117744307D01*
X100103489Y-117761047D01*
X100069511Y-117771355D01*
X100028030Y-117775440D01*
X99351810Y-117775440D01*
X99310329Y-117771355D01*
X99276351Y-117761047D01*
X99245033Y-117744307D01*
X99217581Y-117721779D01*
X99195053Y-117694327D01*
X99178313Y-117663009D01*
X99168005Y-117629031D01*
X99163920Y-117587550D01*
X99163920Y-116986330D01*
X99168005Y-116944849D01*
X99178313Y-116910871D01*
X99195053Y-116879553D01*
X99217581Y-116852101D01*
X99245033Y-116829573D01*
X99276351Y-116812833D01*
X99310329Y-116802525D01*
X99351810Y-116798440D01*
X100028030Y-116798440D01*
X100069511Y-116802525D01*
X100069511Y-116802525D01*
G37*
G36*
X91660583Y-116934104D02*
X91128838Y-117465849D01*
X89854631Y-116191642D01*
X90386376Y-115659897D01*
X91660583Y-116934104D01*
X91660583Y-116934104D01*
G37*
G36*
X92558609Y-116036078D02*
X92026864Y-116567823D01*
X90752657Y-115293616D01*
X91284402Y-114761871D01*
X92558609Y-116036078D01*
X92558609Y-116036078D01*
G37*
G36*
X93456634Y-115138052D02*
X92924889Y-115669797D01*
X91650682Y-114395590D01*
X92182427Y-113863845D01*
X93456634Y-115138052D01*
X93456634Y-115138052D01*
G37*
G36*
X103191000Y-114077262D02*
X103193402Y-114101648D01*
X103200515Y-114125097D01*
X103212066Y-114146708D01*
X103227612Y-114165650D01*
X103246554Y-114181196D01*
X103268165Y-114192747D01*
X103291614Y-114199860D01*
X103316000Y-114202262D01*
X103340386Y-114199860D01*
X103363835Y-114192747D01*
X103385446Y-114181196D01*
X103404388Y-114165650D01*
X103426236Y-114136192D01*
X103449644Y-114092400D01*
X103518499Y-114008499D01*
X103602400Y-113939644D01*
X103698121Y-113888479D01*
X103801985Y-113856973D01*
X103882933Y-113849000D01*
X103937067Y-113849000D01*
X104018015Y-113856973D01*
X104121879Y-113888479D01*
X104217600Y-113939644D01*
X104301501Y-114008499D01*
X104370356Y-114092400D01*
X104421521Y-114188121D01*
X104425383Y-114200854D01*
X104434760Y-114223493D01*
X104448374Y-114243867D01*
X104465701Y-114261194D01*
X104486076Y-114274808D01*
X104508715Y-114284186D01*
X104532748Y-114288966D01*
X104557252Y-114288966D01*
X104581286Y-114284185D01*
X104603925Y-114274808D01*
X104624299Y-114261194D01*
X104641626Y-114243867D01*
X104655240Y-114223492D01*
X104664617Y-114200854D01*
X104668479Y-114188121D01*
X104719644Y-114092400D01*
X104788499Y-114008499D01*
X104872400Y-113939644D01*
X104968121Y-113888479D01*
X105071985Y-113856973D01*
X105152933Y-113849000D01*
X105207067Y-113849000D01*
X105288015Y-113856973D01*
X105391879Y-113888479D01*
X105487600Y-113939644D01*
X105571501Y-114008499D01*
X105640356Y-114092400D01*
X105691521Y-114188121D01*
X105695383Y-114200854D01*
X105704760Y-114223493D01*
X105718374Y-114243867D01*
X105735701Y-114261194D01*
X105756076Y-114274808D01*
X105778715Y-114284186D01*
X105802748Y-114288966D01*
X105827252Y-114288966D01*
X105851286Y-114284185D01*
X105873925Y-114274808D01*
X105894299Y-114261194D01*
X105911626Y-114243867D01*
X105925240Y-114223492D01*
X105934617Y-114200854D01*
X105938479Y-114188121D01*
X105989644Y-114092400D01*
X106058499Y-114008499D01*
X106142400Y-113939644D01*
X106238121Y-113888479D01*
X106341985Y-113856973D01*
X106422933Y-113849000D01*
X106477067Y-113849000D01*
X106558015Y-113856973D01*
X106661879Y-113888479D01*
X106757600Y-113939644D01*
X106841501Y-114008499D01*
X106910356Y-114092400D01*
X106961521Y-114188121D01*
X106965383Y-114200854D01*
X106974760Y-114223493D01*
X106988374Y-114243867D01*
X107005701Y-114261194D01*
X107026076Y-114274808D01*
X107048715Y-114284186D01*
X107072748Y-114288966D01*
X107097252Y-114288966D01*
X107121286Y-114284185D01*
X107143925Y-114274808D01*
X107164299Y-114261194D01*
X107181626Y-114243867D01*
X107195240Y-114223492D01*
X107204617Y-114200854D01*
X107208479Y-114188121D01*
X107259644Y-114092400D01*
X107328499Y-114008499D01*
X107412400Y-113939644D01*
X107508121Y-113888479D01*
X107611985Y-113856973D01*
X107692933Y-113849000D01*
X107747067Y-113849000D01*
X107828015Y-113856973D01*
X107931879Y-113888479D01*
X108027600Y-113939644D01*
X108111501Y-114008499D01*
X108180356Y-114092400D01*
X108231521Y-114188121D01*
X108235383Y-114200854D01*
X108244760Y-114223493D01*
X108258374Y-114243867D01*
X108275701Y-114261194D01*
X108296076Y-114274808D01*
X108318715Y-114284186D01*
X108342748Y-114288966D01*
X108367252Y-114288966D01*
X108391286Y-114284185D01*
X108413925Y-114274808D01*
X108434299Y-114261194D01*
X108451626Y-114243867D01*
X108465240Y-114223492D01*
X108474617Y-114200854D01*
X108478479Y-114188121D01*
X108529644Y-114092400D01*
X108598499Y-114008499D01*
X108682400Y-113939644D01*
X108778121Y-113888479D01*
X108881985Y-113856973D01*
X108962933Y-113849000D01*
X109017067Y-113849000D01*
X109098015Y-113856973D01*
X109201879Y-113888479D01*
X109297600Y-113939644D01*
X109381501Y-114008499D01*
X109450356Y-114092400D01*
X109501521Y-114188121D01*
X109533027Y-114291985D01*
X109543666Y-114400000D01*
X109533027Y-114508015D01*
X109501521Y-114611879D01*
X109450356Y-114707600D01*
X109381501Y-114791501D01*
X109297600Y-114860356D01*
X109201879Y-114911521D01*
X109098015Y-114943027D01*
X109017067Y-114951000D01*
X108962933Y-114951000D01*
X108881985Y-114943027D01*
X108778121Y-114911521D01*
X108682400Y-114860356D01*
X108598499Y-114791501D01*
X108529644Y-114707600D01*
X108478479Y-114611879D01*
X108474615Y-114599142D01*
X108465240Y-114576507D01*
X108451626Y-114556133D01*
X108434299Y-114538806D01*
X108413924Y-114525192D01*
X108391285Y-114515814D01*
X108367252Y-114511034D01*
X108342748Y-114511034D01*
X108318714Y-114515815D01*
X108296075Y-114525192D01*
X108275701Y-114538806D01*
X108258374Y-114556133D01*
X108244760Y-114576508D01*
X108235385Y-114599142D01*
X108231521Y-114611879D01*
X108180356Y-114707600D01*
X108111501Y-114791501D01*
X108027600Y-114860356D01*
X107931879Y-114911521D01*
X107828015Y-114943027D01*
X107747067Y-114951000D01*
X107692933Y-114951000D01*
X107611985Y-114943027D01*
X107508121Y-114911521D01*
X107412400Y-114860356D01*
X107328499Y-114791501D01*
X107259644Y-114707600D01*
X107208479Y-114611879D01*
X107204615Y-114599142D01*
X107195240Y-114576507D01*
X107181626Y-114556133D01*
X107164299Y-114538806D01*
X107143924Y-114525192D01*
X107121285Y-114515814D01*
X107097252Y-114511034D01*
X107072748Y-114511034D01*
X107048714Y-114515815D01*
X107026075Y-114525192D01*
X107005701Y-114538806D01*
X106988374Y-114556133D01*
X106974760Y-114576508D01*
X106965385Y-114599142D01*
X106961521Y-114611879D01*
X106910356Y-114707600D01*
X106841501Y-114791501D01*
X106757600Y-114860356D01*
X106661879Y-114911521D01*
X106558015Y-114943027D01*
X106477067Y-114951000D01*
X106422933Y-114951000D01*
X106341985Y-114943027D01*
X106238121Y-114911521D01*
X106142400Y-114860356D01*
X106058499Y-114791501D01*
X105989644Y-114707600D01*
X105938479Y-114611879D01*
X105934615Y-114599142D01*
X105925240Y-114576507D01*
X105911626Y-114556133D01*
X105894299Y-114538806D01*
X105873924Y-114525192D01*
X105851285Y-114515814D01*
X105827252Y-114511034D01*
X105802748Y-114511034D01*
X105778714Y-114515815D01*
X105756075Y-114525192D01*
X105735701Y-114538806D01*
X105718374Y-114556133D01*
X105704760Y-114576508D01*
X105695385Y-114599142D01*
X105691521Y-114611879D01*
X105640356Y-114707600D01*
X105571501Y-114791501D01*
X105487600Y-114860356D01*
X105391879Y-114911521D01*
X105288015Y-114943027D01*
X105207067Y-114951000D01*
X105152933Y-114951000D01*
X105071985Y-114943027D01*
X104968121Y-114911521D01*
X104872400Y-114860356D01*
X104788499Y-114791501D01*
X104719644Y-114707600D01*
X104668479Y-114611879D01*
X104664615Y-114599142D01*
X104655240Y-114576507D01*
X104641626Y-114556133D01*
X104624299Y-114538806D01*
X104603924Y-114525192D01*
X104581285Y-114515814D01*
X104557252Y-114511034D01*
X104532748Y-114511034D01*
X104508714Y-114515815D01*
X104486075Y-114525192D01*
X104465701Y-114538806D01*
X104448374Y-114556133D01*
X104434760Y-114576508D01*
X104425385Y-114599142D01*
X104421521Y-114611879D01*
X104370356Y-114707600D01*
X104301501Y-114791501D01*
X104217600Y-114860356D01*
X104121879Y-114911521D01*
X104018015Y-114943027D01*
X103937067Y-114951000D01*
X103882933Y-114951000D01*
X103801985Y-114943027D01*
X103698121Y-114911521D01*
X103602400Y-114860356D01*
X103518499Y-114791501D01*
X103449644Y-114707600D01*
X103426234Y-114663805D01*
X103412626Y-114643439D01*
X103395299Y-114626111D01*
X103374924Y-114612498D01*
X103352285Y-114603120D01*
X103328252Y-114598340D01*
X103303748Y-114598340D01*
X103279714Y-114603121D01*
X103257075Y-114612498D01*
X103236701Y-114626112D01*
X103219373Y-114643439D01*
X103205760Y-114663814D01*
X103196382Y-114686453D01*
X103191000Y-114722738D01*
X103191000Y-114951000D01*
X102089000Y-114951000D01*
X102089000Y-113849000D01*
X103191000Y-113849000D01*
X103191000Y-114077262D01*
X103191000Y-114077262D01*
G37*
G36*
X80801000Y-113701000D02*
X78999000Y-113701000D01*
X78999000Y-111899000D01*
X80801000Y-111899000D01*
X80801000Y-113701000D01*
X80801000Y-113701000D01*
G37*
G36*
X85600678Y-112670250D02*
X85068933Y-113201995D01*
X83794726Y-111927788D01*
X84326471Y-111396043D01*
X85600678Y-112670250D01*
X85600678Y-112670250D01*
G37*
G36*
X86498703Y-111772224D02*
X85966958Y-112303969D01*
X84692751Y-111029762D01*
X85224496Y-110498017D01*
X86498703Y-111772224D01*
X86498703Y-111772224D01*
G37*
G36*
X72826938Y-111131716D02*
X72847556Y-111137970D01*
X72866556Y-111148126D01*
X72883208Y-111161792D01*
X72896874Y-111178444D01*
X72907030Y-111197444D01*
X72913284Y-111218062D01*
X72916000Y-111245640D01*
X72916000Y-111754360D01*
X72913284Y-111781938D01*
X72907030Y-111802556D01*
X72896874Y-111821556D01*
X72883208Y-111838208D01*
X72866556Y-111851874D01*
X72847556Y-111862030D01*
X72826938Y-111868284D01*
X72799360Y-111871000D01*
X72340640Y-111871000D01*
X72313062Y-111868284D01*
X72292444Y-111862030D01*
X72273444Y-111851874D01*
X72256792Y-111838208D01*
X72243126Y-111821556D01*
X72232970Y-111802556D01*
X72226716Y-111781938D01*
X72224000Y-111754360D01*
X72224000Y-111245640D01*
X72226716Y-111218062D01*
X72232970Y-111197444D01*
X72243126Y-111178444D01*
X72256792Y-111161792D01*
X72273444Y-111148126D01*
X72292444Y-111137970D01*
X72313062Y-111131716D01*
X72340640Y-111129000D01*
X72799360Y-111129000D01*
X72826938Y-111131716D01*
X72826938Y-111131716D01*
G37*
G36*
X71856938Y-111131716D02*
X71877556Y-111137970D01*
X71896556Y-111148126D01*
X71913208Y-111161792D01*
X71926874Y-111178444D01*
X71937030Y-111197444D01*
X71943284Y-111218062D01*
X71946000Y-111245640D01*
X71946000Y-111754360D01*
X71943284Y-111781938D01*
X71937030Y-111802556D01*
X71926874Y-111821556D01*
X71913208Y-111838208D01*
X71896556Y-111851874D01*
X71877556Y-111862030D01*
X71856938Y-111868284D01*
X71829360Y-111871000D01*
X71370640Y-111871000D01*
X71343062Y-111868284D01*
X71322444Y-111862030D01*
X71303444Y-111851874D01*
X71286792Y-111838208D01*
X71273126Y-111821556D01*
X71262970Y-111802556D01*
X71256716Y-111781938D01*
X71254000Y-111754360D01*
X71254000Y-111245640D01*
X71256716Y-111218062D01*
X71262970Y-111197444D01*
X71273126Y-111178444D01*
X71286792Y-111161792D01*
X71303444Y-111148126D01*
X71322444Y-111137970D01*
X71343062Y-111131716D01*
X71370640Y-111129000D01*
X71829360Y-111129000D01*
X71856938Y-111131716D01*
X71856938Y-111131716D01*
G37*
G36*
X106071938Y-110881716D02*
X106092556Y-110887970D01*
X106111556Y-110898126D01*
X106128208Y-110911792D01*
X106141874Y-110928444D01*
X106152030Y-110947444D01*
X106158284Y-110968062D01*
X106161000Y-110995640D01*
X106161000Y-111504360D01*
X106158284Y-111531938D01*
X106152030Y-111552556D01*
X106141874Y-111571556D01*
X106128208Y-111588208D01*
X106111556Y-111601874D01*
X106092556Y-111612030D01*
X106071938Y-111618284D01*
X106044360Y-111621000D01*
X105585640Y-111621000D01*
X105558062Y-111618284D01*
X105537444Y-111612030D01*
X105518444Y-111601874D01*
X105501792Y-111588208D01*
X105488126Y-111571556D01*
X105477970Y-111552556D01*
X105471716Y-111531938D01*
X105469000Y-111504360D01*
X105469000Y-110995640D01*
X105471716Y-110968062D01*
X105477970Y-110947444D01*
X105488126Y-110928444D01*
X105501792Y-110911792D01*
X105518444Y-110898126D01*
X105537444Y-110887970D01*
X105558062Y-110881716D01*
X105585640Y-110879000D01*
X106044360Y-110879000D01*
X106071938Y-110881716D01*
X106071938Y-110881716D01*
G37*
G36*
X107041938Y-110881716D02*
X107062556Y-110887970D01*
X107081556Y-110898126D01*
X107098208Y-110911792D01*
X107111874Y-110928444D01*
X107122030Y-110947444D01*
X107128284Y-110968062D01*
X107131000Y-110995640D01*
X107131000Y-111504360D01*
X107128284Y-111531938D01*
X107122030Y-111552556D01*
X107111874Y-111571556D01*
X107098208Y-111588208D01*
X107081556Y-111601874D01*
X107062556Y-111612030D01*
X107041938Y-111618284D01*
X107014360Y-111621000D01*
X106555640Y-111621000D01*
X106528062Y-111618284D01*
X106507444Y-111612030D01*
X106488444Y-111601874D01*
X106471792Y-111588208D01*
X106458126Y-111571556D01*
X106447970Y-111552556D01*
X106441716Y-111531938D01*
X106439000Y-111504360D01*
X106439000Y-110995640D01*
X106441716Y-110968062D01*
X106447970Y-110947444D01*
X106458126Y-110928444D01*
X106471792Y-110911792D01*
X106488444Y-110898126D01*
X106507444Y-110887970D01*
X106528062Y-110881716D01*
X106555640Y-110879000D01*
X107014360Y-110879000D01*
X107041938Y-110881716D01*
X107041938Y-110881716D01*
G37*
G36*
X87396729Y-110874198D02*
X86864984Y-111405943D01*
X85590777Y-110131736D01*
X86122522Y-109599991D01*
X87396729Y-110874198D01*
X87396729Y-110874198D01*
G37*
G36*
X80010442Y-109365518D02*
X80076627Y-109372037D01*
X80162509Y-109398089D01*
X80246467Y-109423557D01*
X80333029Y-109469826D01*
X80402991Y-109507222D01*
X80438729Y-109536552D01*
X80540186Y-109619814D01*
X80623448Y-109721271D01*
X80652778Y-109757009D01*
X80652779Y-109757011D01*
X80736443Y-109913533D01*
X80736443Y-109913534D01*
X80787963Y-110083373D01*
X80805359Y-110260000D01*
X80787963Y-110436627D01*
X80769340Y-110498018D01*
X80736443Y-110606467D01*
X80662348Y-110745087D01*
X80652778Y-110762991D01*
X80623448Y-110798729D01*
X80540186Y-110900186D01*
X80438729Y-110983448D01*
X80402991Y-111012778D01*
X80402989Y-111012779D01*
X80246467Y-111096443D01*
X80189853Y-111113616D01*
X80076627Y-111147963D01*
X80010443Y-111154481D01*
X79944260Y-111161000D01*
X79855740Y-111161000D01*
X79789557Y-111154481D01*
X79723373Y-111147963D01*
X79610147Y-111113616D01*
X79553533Y-111096443D01*
X79397011Y-111012779D01*
X79397009Y-111012778D01*
X79361271Y-110983448D01*
X79259814Y-110900186D01*
X79176552Y-110798729D01*
X79147222Y-110762991D01*
X79137652Y-110745087D01*
X79063557Y-110606467D01*
X79030660Y-110498018D01*
X79012037Y-110436627D01*
X78994641Y-110260000D01*
X79012037Y-110083373D01*
X79063557Y-109913534D01*
X79063557Y-109913533D01*
X79147221Y-109757011D01*
X79147222Y-109757009D01*
X79176552Y-109721271D01*
X79259814Y-109619814D01*
X79361271Y-109536552D01*
X79397009Y-109507222D01*
X79466971Y-109469826D01*
X79553533Y-109423557D01*
X79637491Y-109398089D01*
X79723373Y-109372037D01*
X79789558Y-109365518D01*
X79855740Y-109359000D01*
X79944260Y-109359000D01*
X80010442Y-109365518D01*
X80010442Y-109365518D01*
G37*
G36*
X92532163Y-109044141D02*
X92677935Y-109104522D01*
X92809131Y-109192184D01*
X92920696Y-109303749D01*
X93008358Y-109434945D01*
X93068739Y-109580717D01*
X93099520Y-109735467D01*
X93099520Y-109893253D01*
X93068739Y-110048003D01*
X93008358Y-110193775D01*
X92920696Y-110324971D01*
X92809131Y-110436536D01*
X92677935Y-110524198D01*
X92532163Y-110584579D01*
X92377413Y-110615360D01*
X92219627Y-110615360D01*
X92064877Y-110584579D01*
X91919105Y-110524198D01*
X91787909Y-110436536D01*
X91676344Y-110324971D01*
X91588682Y-110193775D01*
X91528301Y-110048003D01*
X91497520Y-109893253D01*
X91497520Y-109735467D01*
X91528301Y-109580717D01*
X91588682Y-109434945D01*
X91676344Y-109303749D01*
X91787909Y-109192184D01*
X91919105Y-109104522D01*
X92064877Y-109044141D01*
X92219627Y-109013360D01*
X92377413Y-109013360D01*
X92532163Y-109044141D01*
X92532163Y-109044141D01*
G37*
G36*
X87439052Y-109120470D02*
X87457994Y-109136016D01*
X87479605Y-109147567D01*
X87503054Y-109154680D01*
X87527440Y-109157082D01*
X87551826Y-109154680D01*
X87575275Y-109147567D01*
X87596886Y-109136016D01*
X87615828Y-109120470D01*
X87631374Y-109101528D01*
X87642925Y-109079917D01*
X87650038Y-109056468D01*
X87652440Y-109032082D01*
X87652440Y-108823400D01*
X87655156Y-108795822D01*
X87661410Y-108775204D01*
X87671566Y-108756204D01*
X87685232Y-108739552D01*
X87701884Y-108725886D01*
X87720884Y-108715730D01*
X87741502Y-108709476D01*
X87769080Y-108706760D01*
X88227800Y-108706760D01*
X88255378Y-108709476D01*
X88275996Y-108715730D01*
X88294996Y-108725886D01*
X88311648Y-108739552D01*
X88325314Y-108756204D01*
X88335470Y-108775204D01*
X88341724Y-108795822D01*
X88344440Y-108823400D01*
X88344440Y-109332120D01*
X88341724Y-109359698D01*
X88335470Y-109380316D01*
X88325314Y-109399316D01*
X88311648Y-109415968D01*
X88294996Y-109429634D01*
X88275996Y-109439790D01*
X88255378Y-109446044D01*
X88227800Y-109448760D01*
X88069118Y-109448760D01*
X88044732Y-109451162D01*
X88021283Y-109458275D01*
X87999672Y-109469826D01*
X87980730Y-109485372D01*
X87965184Y-109504314D01*
X87953633Y-109525925D01*
X87946520Y-109549374D01*
X87944118Y-109573760D01*
X87946520Y-109598146D01*
X87953633Y-109621595D01*
X87965184Y-109643206D01*
X87980730Y-109662148D01*
X88294755Y-109976173D01*
X87763010Y-110507918D01*
X86488803Y-109233711D01*
X87020548Y-108701966D01*
X87439052Y-109120470D01*
X87439052Y-109120470D01*
G37*
G36*
X77851000Y-110300930D02*
X76249000Y-110300930D01*
X76249000Y-109198930D01*
X77851000Y-109198930D01*
X77851000Y-110300930D01*
X77851000Y-110300930D01*
G37*
G36*
X72951000Y-110300930D02*
X71349000Y-110300930D01*
X71349000Y-109198930D01*
X72951000Y-109198930D01*
X72951000Y-110300930D01*
X72951000Y-110300930D01*
G37*
G36*
X111501000Y-109951000D02*
X109899000Y-109951000D01*
X109899000Y-108849000D01*
X111501000Y-108849000D01*
X111501000Y-109951000D01*
X111501000Y-109951000D01*
G37*
G36*
X106601000Y-109951000D02*
X104999000Y-109951000D01*
X104999000Y-108849000D01*
X106601000Y-108849000D01*
X106601000Y-109951000D01*
X106601000Y-109951000D01*
G37*
G36*
X89225378Y-108709476D02*
X89245996Y-108715730D01*
X89264996Y-108725886D01*
X89281648Y-108739552D01*
X89295314Y-108756204D01*
X89305470Y-108775204D01*
X89311724Y-108795822D01*
X89314440Y-108823400D01*
X89314440Y-109332120D01*
X89311724Y-109359698D01*
X89305470Y-109380316D01*
X89295314Y-109399316D01*
X89281648Y-109415968D01*
X89264996Y-109429634D01*
X89245996Y-109439790D01*
X89225378Y-109446044D01*
X89197800Y-109448760D01*
X88739080Y-109448760D01*
X88711502Y-109446044D01*
X88690884Y-109439790D01*
X88671884Y-109429634D01*
X88655232Y-109415968D01*
X88641566Y-109399316D01*
X88631410Y-109380316D01*
X88625156Y-109359698D01*
X88622440Y-109332120D01*
X88622440Y-108823400D01*
X88625156Y-108795822D01*
X88631410Y-108775204D01*
X88641566Y-108756204D01*
X88655232Y-108739552D01*
X88671884Y-108725886D01*
X88690884Y-108715730D01*
X88711502Y-108709476D01*
X88739080Y-108706760D01*
X89197800Y-108706760D01*
X89225378Y-108709476D01*
X89225378Y-108709476D01*
G37*
G36*
X72951000Y-107100930D02*
X71349000Y-107100930D01*
X71349000Y-105998930D01*
X72951000Y-105998930D01*
X72951000Y-107100930D01*
X72951000Y-107100930D01*
G37*
G36*
X77851000Y-107100930D02*
X76249000Y-107100930D01*
X76249000Y-105998930D01*
X77851000Y-105998930D01*
X77851000Y-107100930D01*
X77851000Y-107100930D01*
G37*
G36*
X106601000Y-106751000D02*
X104999000Y-106751000D01*
X104999000Y-105649000D01*
X106601000Y-105649000D01*
X106601000Y-106751000D01*
X106601000Y-106751000D01*
G37*
G36*
X111501000Y-106751000D02*
X109899000Y-106751000D01*
X109899000Y-105649000D01*
X111501000Y-105649000D01*
X111501000Y-106751000D01*
X111501000Y-106751000D01*
G37*
M02*
