%TF.GenerationSoftware,KiCad,Pcbnew,5.0.1-33cea8e~68~ubuntu18.04.1*%
%TF.CreationDate,2018-12-05T12:07:43+01:00*%
%TF.ProjectId,lightball,6C6967687462616C6C2E6B696361645F,rev?*%
%TF.SameCoordinates,Original*%
%TF.FileFunction,Copper,L2,Bot,Signal*%
%TF.FilePolarity,Positive*%
%FSLAX46Y46*%
G04 Gerber Fmt 4.6, Leading zero omitted, Abs format (unit mm)*
G04 Created by KiCad (PCBNEW 5.0.1-33cea8e~68~ubuntu18.04.1) date Mi 05 Dez 2018 12:07:43 CET*
%MOMM*%
%LPD*%
G01*
G04 APERTURE LIST*
%ADD10C,0.150000*%
%ADD11C,0.100000*%
%ADD12C,0.590000*%
%ADD13C,0.875000*%
%ADD14C,2.000000*%
%ADD15C,1.600000*%
%ADD16C,1.500000*%
%ADD17C,2.200000*%
%ADD18C,1.200000*%
%ADD19O,1.700000X1.700000*%
%ADD20R,1.700000X1.700000*%
%ADD21C,1.700000*%
%ADD22C,1.700000*%
%ADD23R,1.000000X1.000000*%
%ADD24O,1.000000X1.000000*%
%ADD25R,1.500000X1.000000*%
%ADD26C,0.650000*%
%ADD27C,0.600000*%
%ADD28C,0.300000*%
%ADD29C,0.154000*%
%ADD30C,0.800000*%
%ADD31C,0.400000*%
%ADD32C,0.500000*%
%ADD33C,0.200000*%
G04 APERTURE END LIST*
D10*
X73975000Y-113550000D02*
X72575000Y-113550000D01*
X73975000Y-117200000D02*
X73975000Y-113550000D01*
X112660414Y-110153935D02*
G75*
G02X73975000Y-117200000I-21460414J8103935D01*
G01*
X112675000Y-104650000D02*
X112663015Y-110154914D01*
X104050000Y-104650000D02*
X112675000Y-104650000D01*
X100250000Y-107650000D02*
X104050000Y-104650000D01*
X80300000Y-107650000D02*
X100250000Y-107650000D01*
X80300000Y-105000000D02*
X80300000Y-107650000D01*
X70050000Y-105000000D02*
X80300000Y-105000000D01*
X70050000Y-112150000D02*
X70050000Y-105000000D01*
X70850000Y-113550000D02*
X70050000Y-112150000D01*
X72575000Y-113550000D02*
X70850000Y-113550000D01*
X103375000Y-112400000D02*
G75*
G03X103375000Y-112400000I-800000J0D01*
G01*
X85075000Y-115475000D02*
G75*
G03X85075000Y-115475000I-1300000J0D01*
G01*
D11*
G36*
X105976958Y-110930710D02*
X105991276Y-110932834D01*
X106005317Y-110936351D01*
X106018946Y-110941228D01*
X106032031Y-110947417D01*
X106044447Y-110954858D01*
X106056073Y-110963481D01*
X106066798Y-110973202D01*
X106076519Y-110983927D01*
X106085142Y-110995553D01*
X106092583Y-111007969D01*
X106098772Y-111021054D01*
X106103649Y-111034683D01*
X106107166Y-111048724D01*
X106109290Y-111063042D01*
X106110000Y-111077500D01*
X106110000Y-111422500D01*
X106109290Y-111436958D01*
X106107166Y-111451276D01*
X106103649Y-111465317D01*
X106098772Y-111478946D01*
X106092583Y-111492031D01*
X106085142Y-111504447D01*
X106076519Y-111516073D01*
X106066798Y-111526798D01*
X106056073Y-111536519D01*
X106044447Y-111545142D01*
X106032031Y-111552583D01*
X106018946Y-111558772D01*
X106005317Y-111563649D01*
X105991276Y-111567166D01*
X105976958Y-111569290D01*
X105962500Y-111570000D01*
X105667500Y-111570000D01*
X105653042Y-111569290D01*
X105638724Y-111567166D01*
X105624683Y-111563649D01*
X105611054Y-111558772D01*
X105597969Y-111552583D01*
X105585553Y-111545142D01*
X105573927Y-111536519D01*
X105563202Y-111526798D01*
X105553481Y-111516073D01*
X105544858Y-111504447D01*
X105537417Y-111492031D01*
X105531228Y-111478946D01*
X105526351Y-111465317D01*
X105522834Y-111451276D01*
X105520710Y-111436958D01*
X105520000Y-111422500D01*
X105520000Y-111077500D01*
X105520710Y-111063042D01*
X105522834Y-111048724D01*
X105526351Y-111034683D01*
X105531228Y-111021054D01*
X105537417Y-111007969D01*
X105544858Y-110995553D01*
X105553481Y-110983927D01*
X105563202Y-110973202D01*
X105573927Y-110963481D01*
X105585553Y-110954858D01*
X105597969Y-110947417D01*
X105611054Y-110941228D01*
X105624683Y-110936351D01*
X105638724Y-110932834D01*
X105653042Y-110930710D01*
X105667500Y-110930000D01*
X105962500Y-110930000D01*
X105976958Y-110930710D01*
X105976958Y-110930710D01*
G37*
D12*
X105815000Y-111250000D03*
D11*
G36*
X106946958Y-110930710D02*
X106961276Y-110932834D01*
X106975317Y-110936351D01*
X106988946Y-110941228D01*
X107002031Y-110947417D01*
X107014447Y-110954858D01*
X107026073Y-110963481D01*
X107036798Y-110973202D01*
X107046519Y-110983927D01*
X107055142Y-110995553D01*
X107062583Y-111007969D01*
X107068772Y-111021054D01*
X107073649Y-111034683D01*
X107077166Y-111048724D01*
X107079290Y-111063042D01*
X107080000Y-111077500D01*
X107080000Y-111422500D01*
X107079290Y-111436958D01*
X107077166Y-111451276D01*
X107073649Y-111465317D01*
X107068772Y-111478946D01*
X107062583Y-111492031D01*
X107055142Y-111504447D01*
X107046519Y-111516073D01*
X107036798Y-111526798D01*
X107026073Y-111536519D01*
X107014447Y-111545142D01*
X107002031Y-111552583D01*
X106988946Y-111558772D01*
X106975317Y-111563649D01*
X106961276Y-111567166D01*
X106946958Y-111569290D01*
X106932500Y-111570000D01*
X106637500Y-111570000D01*
X106623042Y-111569290D01*
X106608724Y-111567166D01*
X106594683Y-111563649D01*
X106581054Y-111558772D01*
X106567969Y-111552583D01*
X106555553Y-111545142D01*
X106543927Y-111536519D01*
X106533202Y-111526798D01*
X106523481Y-111516073D01*
X106514858Y-111504447D01*
X106507417Y-111492031D01*
X106501228Y-111478946D01*
X106496351Y-111465317D01*
X106492834Y-111451276D01*
X106490710Y-111436958D01*
X106490000Y-111422500D01*
X106490000Y-111077500D01*
X106490710Y-111063042D01*
X106492834Y-111048724D01*
X106496351Y-111034683D01*
X106501228Y-111021054D01*
X106507417Y-111007969D01*
X106514858Y-110995553D01*
X106523481Y-110983927D01*
X106533202Y-110973202D01*
X106543927Y-110963481D01*
X106555553Y-110954858D01*
X106567969Y-110947417D01*
X106581054Y-110941228D01*
X106594683Y-110936351D01*
X106608724Y-110932834D01*
X106623042Y-110930710D01*
X106637500Y-110930000D01*
X106932500Y-110930000D01*
X106946958Y-110930710D01*
X106946958Y-110930710D01*
G37*
D12*
X106785000Y-111250000D03*
D11*
G36*
X99967611Y-118425493D02*
X99988846Y-118428643D01*
X100009670Y-118433859D01*
X100029882Y-118441091D01*
X100049288Y-118450270D01*
X100067701Y-118461306D01*
X100084944Y-118474094D01*
X100100850Y-118488510D01*
X100115266Y-118504416D01*
X100128054Y-118521659D01*
X100139090Y-118540072D01*
X100148269Y-118559478D01*
X100155501Y-118579690D01*
X100160717Y-118600514D01*
X100163867Y-118621749D01*
X100164920Y-118643190D01*
X100164920Y-119080690D01*
X100163867Y-119102131D01*
X100160717Y-119123366D01*
X100155501Y-119144190D01*
X100148269Y-119164402D01*
X100139090Y-119183808D01*
X100128054Y-119202221D01*
X100115266Y-119219464D01*
X100100850Y-119235370D01*
X100084944Y-119249786D01*
X100067701Y-119262574D01*
X100049288Y-119273610D01*
X100029882Y-119282789D01*
X100009670Y-119290021D01*
X99988846Y-119295237D01*
X99967611Y-119298387D01*
X99946170Y-119299440D01*
X99433670Y-119299440D01*
X99412229Y-119298387D01*
X99390994Y-119295237D01*
X99370170Y-119290021D01*
X99349958Y-119282789D01*
X99330552Y-119273610D01*
X99312139Y-119262574D01*
X99294896Y-119249786D01*
X99278990Y-119235370D01*
X99264574Y-119219464D01*
X99251786Y-119202221D01*
X99240750Y-119183808D01*
X99231571Y-119164402D01*
X99224339Y-119144190D01*
X99219123Y-119123366D01*
X99215973Y-119102131D01*
X99214920Y-119080690D01*
X99214920Y-118643190D01*
X99215973Y-118621749D01*
X99219123Y-118600514D01*
X99224339Y-118579690D01*
X99231571Y-118559478D01*
X99240750Y-118540072D01*
X99251786Y-118521659D01*
X99264574Y-118504416D01*
X99278990Y-118488510D01*
X99294896Y-118474094D01*
X99312139Y-118461306D01*
X99330552Y-118450270D01*
X99349958Y-118441091D01*
X99370170Y-118433859D01*
X99390994Y-118428643D01*
X99412229Y-118425493D01*
X99433670Y-118424440D01*
X99946170Y-118424440D01*
X99967611Y-118425493D01*
X99967611Y-118425493D01*
G37*
D13*
X99689920Y-118861940D03*
D11*
G36*
X99967611Y-116850493D02*
X99988846Y-116853643D01*
X100009670Y-116858859D01*
X100029882Y-116866091D01*
X100049288Y-116875270D01*
X100067701Y-116886306D01*
X100084944Y-116899094D01*
X100100850Y-116913510D01*
X100115266Y-116929416D01*
X100128054Y-116946659D01*
X100139090Y-116965072D01*
X100148269Y-116984478D01*
X100155501Y-117004690D01*
X100160717Y-117025514D01*
X100163867Y-117046749D01*
X100164920Y-117068190D01*
X100164920Y-117505690D01*
X100163867Y-117527131D01*
X100160717Y-117548366D01*
X100155501Y-117569190D01*
X100148269Y-117589402D01*
X100139090Y-117608808D01*
X100128054Y-117627221D01*
X100115266Y-117644464D01*
X100100850Y-117660370D01*
X100084944Y-117674786D01*
X100067701Y-117687574D01*
X100049288Y-117698610D01*
X100029882Y-117707789D01*
X100009670Y-117715021D01*
X99988846Y-117720237D01*
X99967611Y-117723387D01*
X99946170Y-117724440D01*
X99433670Y-117724440D01*
X99412229Y-117723387D01*
X99390994Y-117720237D01*
X99370170Y-117715021D01*
X99349958Y-117707789D01*
X99330552Y-117698610D01*
X99312139Y-117687574D01*
X99294896Y-117674786D01*
X99278990Y-117660370D01*
X99264574Y-117644464D01*
X99251786Y-117627221D01*
X99240750Y-117608808D01*
X99231571Y-117589402D01*
X99224339Y-117569190D01*
X99219123Y-117548366D01*
X99215973Y-117527131D01*
X99214920Y-117505690D01*
X99214920Y-117068190D01*
X99215973Y-117046749D01*
X99219123Y-117025514D01*
X99224339Y-117004690D01*
X99231571Y-116984478D01*
X99240750Y-116965072D01*
X99251786Y-116946659D01*
X99264574Y-116929416D01*
X99278990Y-116913510D01*
X99294896Y-116899094D01*
X99312139Y-116886306D01*
X99330552Y-116875270D01*
X99349958Y-116866091D01*
X99370170Y-116858859D01*
X99390994Y-116853643D01*
X99412229Y-116850493D01*
X99433670Y-116849440D01*
X99946170Y-116849440D01*
X99967611Y-116850493D01*
X99967611Y-116850493D01*
G37*
D13*
X99689920Y-117286940D03*
D11*
G36*
X88160398Y-108758470D02*
X88174716Y-108760594D01*
X88188757Y-108764111D01*
X88202386Y-108768988D01*
X88215471Y-108775177D01*
X88227887Y-108782618D01*
X88239513Y-108791241D01*
X88250238Y-108800962D01*
X88259959Y-108811687D01*
X88268582Y-108823313D01*
X88276023Y-108835729D01*
X88282212Y-108848814D01*
X88287089Y-108862443D01*
X88290606Y-108876484D01*
X88292730Y-108890802D01*
X88293440Y-108905260D01*
X88293440Y-109250260D01*
X88292730Y-109264718D01*
X88290606Y-109279036D01*
X88287089Y-109293077D01*
X88282212Y-109306706D01*
X88276023Y-109319791D01*
X88268582Y-109332207D01*
X88259959Y-109343833D01*
X88250238Y-109354558D01*
X88239513Y-109364279D01*
X88227887Y-109372902D01*
X88215471Y-109380343D01*
X88202386Y-109386532D01*
X88188757Y-109391409D01*
X88174716Y-109394926D01*
X88160398Y-109397050D01*
X88145940Y-109397760D01*
X87850940Y-109397760D01*
X87836482Y-109397050D01*
X87822164Y-109394926D01*
X87808123Y-109391409D01*
X87794494Y-109386532D01*
X87781409Y-109380343D01*
X87768993Y-109372902D01*
X87757367Y-109364279D01*
X87746642Y-109354558D01*
X87736921Y-109343833D01*
X87728298Y-109332207D01*
X87720857Y-109319791D01*
X87714668Y-109306706D01*
X87709791Y-109293077D01*
X87706274Y-109279036D01*
X87704150Y-109264718D01*
X87703440Y-109250260D01*
X87703440Y-108905260D01*
X87704150Y-108890802D01*
X87706274Y-108876484D01*
X87709791Y-108862443D01*
X87714668Y-108848814D01*
X87720857Y-108835729D01*
X87728298Y-108823313D01*
X87736921Y-108811687D01*
X87746642Y-108800962D01*
X87757367Y-108791241D01*
X87768993Y-108782618D01*
X87781409Y-108775177D01*
X87794494Y-108768988D01*
X87808123Y-108764111D01*
X87822164Y-108760594D01*
X87836482Y-108758470D01*
X87850940Y-108757760D01*
X88145940Y-108757760D01*
X88160398Y-108758470D01*
X88160398Y-108758470D01*
G37*
D12*
X87998440Y-109077760D03*
D11*
G36*
X89130398Y-108758470D02*
X89144716Y-108760594D01*
X89158757Y-108764111D01*
X89172386Y-108768988D01*
X89185471Y-108775177D01*
X89197887Y-108782618D01*
X89209513Y-108791241D01*
X89220238Y-108800962D01*
X89229959Y-108811687D01*
X89238582Y-108823313D01*
X89246023Y-108835729D01*
X89252212Y-108848814D01*
X89257089Y-108862443D01*
X89260606Y-108876484D01*
X89262730Y-108890802D01*
X89263440Y-108905260D01*
X89263440Y-109250260D01*
X89262730Y-109264718D01*
X89260606Y-109279036D01*
X89257089Y-109293077D01*
X89252212Y-109306706D01*
X89246023Y-109319791D01*
X89238582Y-109332207D01*
X89229959Y-109343833D01*
X89220238Y-109354558D01*
X89209513Y-109364279D01*
X89197887Y-109372902D01*
X89185471Y-109380343D01*
X89172386Y-109386532D01*
X89158757Y-109391409D01*
X89144716Y-109394926D01*
X89130398Y-109397050D01*
X89115940Y-109397760D01*
X88820940Y-109397760D01*
X88806482Y-109397050D01*
X88792164Y-109394926D01*
X88778123Y-109391409D01*
X88764494Y-109386532D01*
X88751409Y-109380343D01*
X88738993Y-109372902D01*
X88727367Y-109364279D01*
X88716642Y-109354558D01*
X88706921Y-109343833D01*
X88698298Y-109332207D01*
X88690857Y-109319791D01*
X88684668Y-109306706D01*
X88679791Y-109293077D01*
X88676274Y-109279036D01*
X88674150Y-109264718D01*
X88673440Y-109250260D01*
X88673440Y-108905260D01*
X88674150Y-108890802D01*
X88676274Y-108876484D01*
X88679791Y-108862443D01*
X88684668Y-108848814D01*
X88690857Y-108835729D01*
X88698298Y-108823313D01*
X88706921Y-108811687D01*
X88716642Y-108800962D01*
X88727367Y-108791241D01*
X88738993Y-108782618D01*
X88751409Y-108775177D01*
X88764494Y-108768988D01*
X88778123Y-108764111D01*
X88792164Y-108760594D01*
X88806482Y-108758470D01*
X88820940Y-108757760D01*
X89115940Y-108757760D01*
X89130398Y-108758470D01*
X89130398Y-108758470D01*
G37*
D12*
X88968440Y-109077760D03*
D14*
X97683320Y-121813320D03*
D11*
G36*
X97085648Y-123095033D02*
X96401607Y-121215648D01*
X98280992Y-120531607D01*
X98965033Y-122410992D01*
X97085648Y-123095033D01*
X97085648Y-123095033D01*
G37*
D15*
X90200000Y-121150000D03*
D11*
G36*
X89068629Y-121150000D02*
X90200000Y-120018629D01*
X91331371Y-121150000D01*
X90200000Y-122281371D01*
X89068629Y-121150000D01*
X89068629Y-121150000D01*
G37*
D15*
X91967767Y-122917767D03*
D16*
X92298520Y-109814360D03*
D17*
X97150000Y-118300000D03*
D18*
X99650000Y-120800000D03*
X102150000Y-120800000D03*
D17*
X104650000Y-118300000D03*
D19*
X79900000Y-110260000D03*
D20*
X79900000Y-112800000D03*
D21*
X84349101Y-121914869D03*
D11*
G36*
X84857123Y-123004325D02*
X83259645Y-122422891D01*
X83841079Y-120825413D01*
X85438557Y-121406847D01*
X84857123Y-123004325D01*
X84857123Y-123004325D01*
G37*
D21*
X86735920Y-122783600D03*
D22*
X86735920Y-122783600D02*
X86735920Y-122783600D01*
D11*
G36*
X72731958Y-111180710D02*
X72746276Y-111182834D01*
X72760317Y-111186351D01*
X72773946Y-111191228D01*
X72787031Y-111197417D01*
X72799447Y-111204858D01*
X72811073Y-111213481D01*
X72821798Y-111223202D01*
X72831519Y-111233927D01*
X72840142Y-111245553D01*
X72847583Y-111257969D01*
X72853772Y-111271054D01*
X72858649Y-111284683D01*
X72862166Y-111298724D01*
X72864290Y-111313042D01*
X72865000Y-111327500D01*
X72865000Y-111672500D01*
X72864290Y-111686958D01*
X72862166Y-111701276D01*
X72858649Y-111715317D01*
X72853772Y-111728946D01*
X72847583Y-111742031D01*
X72840142Y-111754447D01*
X72831519Y-111766073D01*
X72821798Y-111776798D01*
X72811073Y-111786519D01*
X72799447Y-111795142D01*
X72787031Y-111802583D01*
X72773946Y-111808772D01*
X72760317Y-111813649D01*
X72746276Y-111817166D01*
X72731958Y-111819290D01*
X72717500Y-111820000D01*
X72422500Y-111820000D01*
X72408042Y-111819290D01*
X72393724Y-111817166D01*
X72379683Y-111813649D01*
X72366054Y-111808772D01*
X72352969Y-111802583D01*
X72340553Y-111795142D01*
X72328927Y-111786519D01*
X72318202Y-111776798D01*
X72308481Y-111766073D01*
X72299858Y-111754447D01*
X72292417Y-111742031D01*
X72286228Y-111728946D01*
X72281351Y-111715317D01*
X72277834Y-111701276D01*
X72275710Y-111686958D01*
X72275000Y-111672500D01*
X72275000Y-111327500D01*
X72275710Y-111313042D01*
X72277834Y-111298724D01*
X72281351Y-111284683D01*
X72286228Y-111271054D01*
X72292417Y-111257969D01*
X72299858Y-111245553D01*
X72308481Y-111233927D01*
X72318202Y-111223202D01*
X72328927Y-111213481D01*
X72340553Y-111204858D01*
X72352969Y-111197417D01*
X72366054Y-111191228D01*
X72379683Y-111186351D01*
X72393724Y-111182834D01*
X72408042Y-111180710D01*
X72422500Y-111180000D01*
X72717500Y-111180000D01*
X72731958Y-111180710D01*
X72731958Y-111180710D01*
G37*
D12*
X72570000Y-111500000D03*
D11*
G36*
X71761958Y-111180710D02*
X71776276Y-111182834D01*
X71790317Y-111186351D01*
X71803946Y-111191228D01*
X71817031Y-111197417D01*
X71829447Y-111204858D01*
X71841073Y-111213481D01*
X71851798Y-111223202D01*
X71861519Y-111233927D01*
X71870142Y-111245553D01*
X71877583Y-111257969D01*
X71883772Y-111271054D01*
X71888649Y-111284683D01*
X71892166Y-111298724D01*
X71894290Y-111313042D01*
X71895000Y-111327500D01*
X71895000Y-111672500D01*
X71894290Y-111686958D01*
X71892166Y-111701276D01*
X71888649Y-111715317D01*
X71883772Y-111728946D01*
X71877583Y-111742031D01*
X71870142Y-111754447D01*
X71861519Y-111766073D01*
X71851798Y-111776798D01*
X71841073Y-111786519D01*
X71829447Y-111795142D01*
X71817031Y-111802583D01*
X71803946Y-111808772D01*
X71790317Y-111813649D01*
X71776276Y-111817166D01*
X71761958Y-111819290D01*
X71747500Y-111820000D01*
X71452500Y-111820000D01*
X71438042Y-111819290D01*
X71423724Y-111817166D01*
X71409683Y-111813649D01*
X71396054Y-111808772D01*
X71382969Y-111802583D01*
X71370553Y-111795142D01*
X71358927Y-111786519D01*
X71348202Y-111776798D01*
X71338481Y-111766073D01*
X71329858Y-111754447D01*
X71322417Y-111742031D01*
X71316228Y-111728946D01*
X71311351Y-111715317D01*
X71307834Y-111701276D01*
X71305710Y-111686958D01*
X71305000Y-111672500D01*
X71305000Y-111327500D01*
X71305710Y-111313042D01*
X71307834Y-111298724D01*
X71311351Y-111284683D01*
X71316228Y-111271054D01*
X71322417Y-111257969D01*
X71329858Y-111245553D01*
X71338481Y-111233927D01*
X71348202Y-111223202D01*
X71358927Y-111213481D01*
X71370553Y-111204858D01*
X71382969Y-111197417D01*
X71396054Y-111191228D01*
X71409683Y-111186351D01*
X71423724Y-111182834D01*
X71438042Y-111180710D01*
X71452500Y-111180000D01*
X71747500Y-111180000D01*
X71761958Y-111180710D01*
X71761958Y-111180710D01*
G37*
D12*
X71600000Y-111500000D03*
D23*
X102640000Y-114400000D03*
D24*
X103910000Y-114400000D03*
X105180000Y-114400000D03*
X106450000Y-114400000D03*
X107720000Y-114400000D03*
X108990000Y-114400000D03*
D25*
X72150000Y-109749930D03*
X72150000Y-106549930D03*
X77050000Y-109749930D03*
X77050000Y-106549930D03*
X105800000Y-109400000D03*
X105800000Y-106200000D03*
X110700000Y-109400000D03*
X110700000Y-106200000D03*
D26*
X92553658Y-114766821D03*
D11*
G36*
X93384508Y-115138052D02*
X92924889Y-115597671D01*
X91722808Y-114395590D01*
X92182427Y-113935971D01*
X93384508Y-115138052D01*
X93384508Y-115138052D01*
G37*
D26*
X91655633Y-115664847D03*
D11*
G36*
X92486483Y-116036078D02*
X92026864Y-116495697D01*
X90824783Y-115293616D01*
X91284402Y-114833997D01*
X92486483Y-116036078D01*
X92486483Y-116036078D01*
G37*
D26*
X90757607Y-116562873D03*
D11*
G36*
X91588457Y-116934104D02*
X91128838Y-117393723D01*
X89926757Y-116191642D01*
X90386376Y-115732023D01*
X91588457Y-116934104D01*
X91588457Y-116934104D01*
G37*
D26*
X89859581Y-117460898D03*
D11*
G36*
X90690431Y-117832129D02*
X90230812Y-118291748D01*
X89028731Y-117089667D01*
X89488350Y-116630048D01*
X90690431Y-117832129D01*
X90690431Y-117832129D01*
G37*
D26*
X84697702Y-112299019D03*
D11*
G36*
X85528552Y-112670250D02*
X85068933Y-113129869D01*
X83866852Y-111927788D01*
X84326471Y-111468169D01*
X85528552Y-112670250D01*
X85528552Y-112670250D01*
G37*
D26*
X85595727Y-111400993D03*
D11*
G36*
X86426577Y-111772224D02*
X85966958Y-112231843D01*
X84764877Y-111029762D01*
X85224496Y-110570143D01*
X86426577Y-111772224D01*
X86426577Y-111772224D01*
G37*
D26*
X86493753Y-110502967D03*
D11*
G36*
X87324603Y-110874198D02*
X86864984Y-111333817D01*
X85662903Y-110131736D01*
X86122522Y-109672117D01*
X87324603Y-110874198D01*
X87324603Y-110874198D01*
G37*
D26*
X87391779Y-109604942D03*
D11*
G36*
X88222629Y-109976173D02*
X87763010Y-110435792D01*
X86560929Y-109233711D01*
X87020548Y-108774092D01*
X88222629Y-109976173D01*
X88222629Y-109976173D01*
G37*
D27*
X89961720Y-118003320D03*
X97221040Y-113786920D03*
X98033840Y-111434880D03*
X97840800Y-112440720D03*
X96951800Y-111307880D03*
X96438720Y-112425480D03*
X99075000Y-112300000D03*
X95425000Y-112200000D03*
X97325000Y-110325000D03*
X72500000Y-112750000D03*
X75250000Y-109750000D03*
X79000000Y-106500000D03*
X81700000Y-108250000D03*
X105550000Y-107800000D03*
X95350000Y-120350000D03*
X108225000Y-113400000D03*
X102350000Y-108900000D03*
X107775000Y-106825000D03*
X110775000Y-110525000D03*
X110700000Y-108250000D03*
X108775000Y-111700000D03*
X106049999Y-117299999D03*
X106575000Y-118075000D03*
X89895680Y-114711480D03*
X89250520Y-109128560D03*
X94630240Y-123657360D03*
X74594720Y-117058440D03*
X76098400Y-118562120D03*
X77952600Y-120136920D03*
X96276160Y-123159520D03*
X98826320Y-118099840D03*
X100771960Y-118099840D03*
X99888040Y-122666760D03*
X101193600Y-122062240D03*
X103408480Y-120787160D03*
X110596680Y-113096040D03*
X111516160Y-111521240D03*
X112120680Y-109433360D03*
X112156240Y-107772200D03*
X112085120Y-105613200D03*
X83657440Y-108249720D03*
X79588360Y-107294680D03*
X79710280Y-105613200D03*
X78511400Y-105597960D03*
X70779640Y-107045760D03*
X71379080Y-112725200D03*
X73751440Y-110037880D03*
X76174600Y-113096040D03*
X76672440Y-114493040D03*
X78226920Y-114315240D03*
X81518760Y-115021360D03*
X82047080Y-113680240D03*
X79730600Y-118668800D03*
X86106000Y-119461280D03*
X87081360Y-119481600D03*
X83474560Y-120329960D03*
X89804240Y-113517680D03*
X87594440Y-114386360D03*
X87574120Y-115341400D03*
X89270840Y-113024920D03*
X75539600Y-105577640D03*
X73756520Y-105623360D03*
X70739000Y-105694480D03*
X70703440Y-111917480D03*
X79684880Y-121244360D03*
X81823560Y-122356880D03*
X84353400Y-123393200D03*
X85714840Y-123708160D03*
X88341200Y-124266960D03*
X90815160Y-124460000D03*
X93238320Y-124343160D03*
X96012000Y-123901200D03*
X104556560Y-120015000D03*
X107726480Y-117119400D03*
X110749080Y-105181400D03*
X109087920Y-105181400D03*
X107284520Y-105150920D03*
X93212920Y-113243360D03*
X96860360Y-120467120D03*
X104815640Y-110373160D03*
X94620080Y-116194840D03*
X93863160Y-116931440D03*
X100690680Y-116900960D03*
X100639880Y-119364760D03*
X95956120Y-122570240D03*
X97434400Y-120091200D03*
X103174800Y-106121200D03*
X83403440Y-119237760D03*
X87436960Y-116900960D03*
X101061520Y-108996480D03*
X102996533Y-117934655D03*
X101252101Y-117543029D03*
X88620600Y-116291360D03*
X81539080Y-116687600D03*
X72625080Y-108325010D03*
X107500000Y-107650000D03*
X95024998Y-121800000D03*
X99504818Y-108979331D03*
X106045000Y-112181640D03*
X95544654Y-114755346D03*
X94300000Y-119700000D03*
X102174683Y-107456462D03*
X96700000Y-108675020D03*
X98600000Y-117100000D03*
X83286600Y-117754400D03*
X101737160Y-110276640D03*
X103665465Y-110831357D03*
X104969033Y-112770164D03*
X99872800Y-115575080D03*
X102509320Y-116972080D03*
X101282752Y-116342093D03*
X76350000Y-111900000D03*
X91509703Y-111458481D03*
X98708219Y-109053653D03*
X94602764Y-109477939D03*
X93526920Y-110045798D03*
X95456329Y-109089392D03*
X90925543Y-110911877D03*
X93700002Y-109250000D03*
X94357545Y-108716437D03*
X100304829Y-108979031D03*
X100781747Y-111464987D03*
X103169562Y-110188545D03*
X100655895Y-109705847D03*
X98032725Y-108625020D03*
X103707782Y-109596652D03*
X94081600Y-112638840D03*
X94101920Y-113644680D03*
X108349984Y-106200000D03*
X89362398Y-108275010D03*
X74500000Y-106550000D03*
X97178588Y-115522619D03*
X98912834Y-115537814D03*
D28*
X90419200Y-117460898D02*
X90556080Y-117597778D01*
X89859581Y-117460898D02*
X90419200Y-117460898D01*
X90556080Y-117597778D02*
X90556080Y-117754400D01*
X90556080Y-117754400D02*
X90510360Y-117800120D01*
X90510360Y-117800120D02*
X90510360Y-117922040D01*
X90510360Y-117922040D02*
X90357960Y-118074440D01*
X90357960Y-118074440D02*
X90388440Y-118104920D01*
X90388440Y-118104920D02*
X90998040Y-118104920D01*
X90998040Y-118104920D02*
X90754200Y-117861080D01*
X90754200Y-117861080D02*
X90749120Y-117861080D01*
X90749120Y-117861080D02*
X90749120Y-117835680D01*
D29*
X101158000Y-108900000D02*
X101061520Y-108996480D01*
X102350000Y-108900000D02*
X101158000Y-108900000D01*
X81839079Y-116987599D02*
X81539080Y-116687600D01*
X84738958Y-117125002D02*
X81976482Y-117125002D01*
X81976482Y-117125002D02*
X81839079Y-116987599D01*
X88620600Y-116291360D02*
X85572600Y-116291360D01*
X85572600Y-116291360D02*
X84738958Y-117125002D01*
D30*
X72150000Y-109749930D02*
X72150000Y-108800090D01*
X72150000Y-108800090D02*
X72625080Y-108325010D01*
D31*
X105800000Y-109400000D02*
X105800000Y-109350000D01*
X105800000Y-109350000D02*
X107500000Y-107650000D01*
X105815000Y-109415000D02*
X105800000Y-109400000D01*
X105815000Y-111250000D02*
X105815000Y-109415000D01*
D32*
X71600000Y-110299930D02*
X72150000Y-109749930D01*
X71600000Y-111500000D02*
X71600000Y-110299930D01*
D31*
X92257880Y-121574560D02*
X92332439Y-121500001D01*
X94724999Y-121500001D02*
X95024998Y-121800000D01*
X90034309Y-119618619D02*
X90365691Y-119618619D01*
X81716158Y-118489962D02*
X87329964Y-118489962D01*
X92332439Y-121500001D02*
X94724999Y-121500001D01*
X91731381Y-121048061D02*
X92257880Y-121574560D01*
X88668619Y-119828617D02*
X89824311Y-119828617D01*
X79900000Y-112800000D02*
X79900000Y-116673804D01*
X79900000Y-116673804D02*
X81716158Y-118489962D01*
X87329964Y-118489962D02*
X88668619Y-119828617D01*
X89824311Y-119828617D02*
X90034309Y-119618619D01*
X90365691Y-119618619D02*
X91731381Y-120984309D01*
X91731381Y-120984309D02*
X91731381Y-121048061D01*
D29*
X107636870Y-112002010D02*
X110238880Y-109400000D01*
X106250030Y-112002010D02*
X107636870Y-112002010D01*
X106073828Y-112178212D02*
X106250030Y-112002010D01*
X110238880Y-109400000D02*
X110700000Y-109400000D01*
X104057147Y-112178212D02*
X106073828Y-112178212D01*
X100893880Y-112130840D02*
X101891150Y-111133570D01*
X101891150Y-111133570D02*
X103012505Y-111133570D01*
X103012505Y-111133570D02*
X104057147Y-112178212D01*
X99504818Y-108979331D02*
X99504818Y-111173578D01*
D33*
X100771960Y-112130840D02*
X100760753Y-112119633D01*
X100893880Y-112130840D02*
X100771960Y-112130840D01*
X100760753Y-112119633D02*
X100405153Y-112119633D01*
X100405153Y-112119633D02*
X99496880Y-111211360D01*
X99496880Y-111211360D02*
X99496880Y-111064040D01*
D32*
X94300000Y-119700000D02*
X94300000Y-118950000D01*
X95544654Y-115894654D02*
X95544654Y-114755346D01*
X96450000Y-116800000D02*
X95544654Y-115894654D01*
D33*
X97350010Y-108025010D02*
X101606135Y-108025010D01*
X101606135Y-108025010D02*
X101874684Y-107756461D01*
X96700000Y-108675020D02*
X97350010Y-108025010D01*
X101874684Y-107756461D02*
X102174683Y-107456462D01*
D32*
X98375000Y-116875000D02*
X98600000Y-117100000D01*
X89168729Y-119158838D02*
X88892051Y-118882160D01*
X89541535Y-119158838D02*
X89168729Y-119158838D01*
X88892051Y-118882160D02*
X88833905Y-118882160D01*
X94300000Y-118950000D02*
X94100080Y-118750080D01*
X89818213Y-118882160D02*
X89541535Y-119158838D01*
X89951560Y-118882160D02*
X89818213Y-118882160D01*
X90083640Y-118750080D02*
X89951560Y-118882160D01*
X94100080Y-118750080D02*
X90083640Y-118750080D01*
X88833905Y-118882160D02*
X87706145Y-117754400D01*
X87706145Y-117754400D02*
X83710864Y-117754400D01*
X83710864Y-117754400D02*
X83286600Y-117754400D01*
D29*
X87664272Y-109411928D02*
X87651432Y-109411928D01*
X87998440Y-109077760D02*
X87664272Y-109411928D01*
X87651432Y-109411928D02*
X87518240Y-109545120D01*
X89347040Y-109910880D02*
X87680800Y-109910880D01*
X91352064Y-108239560D02*
X91018360Y-108239560D01*
X91512287Y-108079337D02*
X91352064Y-108239560D01*
X96104317Y-108079337D02*
X91512287Y-108079337D01*
X96700000Y-108675020D02*
X96104317Y-108079337D01*
X91018360Y-108239560D02*
X89347040Y-109910880D01*
X103565960Y-110779560D02*
X102240080Y-110779560D01*
X102037159Y-110576639D02*
X101737160Y-110276640D01*
X102240080Y-110779560D02*
X102037159Y-110576639D01*
D33*
X103965464Y-110274374D02*
X103965464Y-110531358D01*
X102174683Y-107456462D02*
X102598947Y-107456462D01*
X102598947Y-107456462D02*
X104307784Y-109165299D01*
X104307784Y-109932054D02*
X103965464Y-110274374D01*
X104307784Y-109165299D02*
X104307784Y-109932054D01*
X103965464Y-110531358D02*
X103665465Y-110831357D01*
D32*
X98201640Y-116626640D02*
X98375000Y-116800000D01*
X96623360Y-116626640D02*
X98201640Y-116626640D01*
X96450000Y-116800000D02*
X96623360Y-116626640D01*
X94300000Y-118765360D02*
X94300000Y-118950000D01*
X96450000Y-116800000D02*
X96265360Y-116800000D01*
X96265360Y-116800000D02*
X94300000Y-118765360D01*
D28*
X100361386Y-115575080D02*
X100297064Y-115575080D01*
X100297064Y-115575080D02*
X99872800Y-115575080D01*
X101386306Y-116600000D02*
X100361386Y-115575080D01*
X102209321Y-116672081D02*
X102509320Y-116972080D01*
X101386306Y-116600000D02*
X102137240Y-116600000D01*
X102137240Y-116600000D02*
X102209321Y-116672081D01*
X101386306Y-116445647D02*
X101282752Y-116342093D01*
X101386306Y-116600000D02*
X101386306Y-116445647D01*
D29*
X85183676Y-113406879D02*
X85220195Y-113370360D01*
X89693037Y-111768289D02*
X91199895Y-111768289D01*
X88090966Y-113370360D02*
X89693037Y-111768289D01*
X84954190Y-113406879D02*
X85183676Y-113406879D01*
X91209704Y-111758480D02*
X91509703Y-111458481D01*
X84917671Y-113370360D02*
X84954190Y-113406879D01*
X85220195Y-113370360D02*
X88090966Y-113370360D01*
X81600001Y-111600001D02*
X83370360Y-113370360D01*
X83370360Y-113370360D02*
X84917671Y-113370360D01*
X76649999Y-111600001D02*
X81600001Y-111600001D01*
X91199895Y-111768289D02*
X91209704Y-111758480D01*
X76350000Y-111900000D02*
X76649999Y-111600001D01*
X104170000Y-114400000D02*
X104170000Y-114170000D01*
X103955000Y-114615000D02*
X104170000Y-114400000D01*
X104170000Y-114400000D02*
X103374010Y-113604010D01*
X103374010Y-113604010D02*
X101353364Y-113604010D01*
X101353364Y-113604010D02*
X98708219Y-110958865D01*
X98708219Y-109477917D02*
X98708219Y-109053653D01*
X98708219Y-110958865D02*
X98708219Y-109477917D01*
X92808838Y-115430861D02*
X92800000Y-115422023D01*
X92161360Y-112227360D02*
X94302765Y-110085955D01*
X94302765Y-110085955D02*
X94302765Y-109777938D01*
X94302765Y-109777938D02*
X94602764Y-109477939D01*
X92161360Y-114345720D02*
X92161360Y-112227360D01*
X91287600Y-115255040D02*
X91287600Y-112498464D01*
X93226921Y-110559143D02*
X93226921Y-110345797D01*
X91287600Y-112498464D02*
X93226921Y-110559143D01*
X93226921Y-110345797D02*
X93526920Y-110045798D01*
X92196920Y-116860320D02*
X91196160Y-116860320D01*
X95456329Y-109440391D02*
X92557600Y-112339120D01*
X95456329Y-109089392D02*
X95456329Y-109440391D01*
X93661518Y-115022918D02*
X93661518Y-115395722D01*
X92557600Y-113919000D02*
X93661518Y-115022918D01*
X92557600Y-112339120D02*
X92557600Y-113919000D01*
X93661518Y-115395722D02*
X92196920Y-116860320D01*
X85135720Y-112628680D02*
X88331999Y-112628680D01*
X88331999Y-112628680D02*
X90048802Y-110911877D01*
X90048802Y-110911877D02*
X90501279Y-110911877D01*
X90501279Y-110911877D02*
X90925543Y-110911877D01*
X93254122Y-109250000D02*
X93275738Y-109250000D01*
X92791481Y-108787359D02*
X93254122Y-109250000D01*
X85918040Y-111795560D02*
X88664472Y-111795560D01*
X91805559Y-108787359D02*
X92791481Y-108787359D01*
X88664472Y-111795560D02*
X91512450Y-108947582D01*
X91645336Y-108947582D02*
X91805559Y-108787359D01*
X91512450Y-108947582D02*
X91645336Y-108947582D01*
X93275738Y-109250000D02*
X93700002Y-109250000D01*
X91498700Y-108593571D02*
X91658923Y-108433348D01*
X86771480Y-110891320D02*
X89068066Y-110891320D01*
X89068066Y-110891320D02*
X91365814Y-108593571D01*
X91365814Y-108593571D02*
X91498700Y-108593571D01*
X93933281Y-108716437D02*
X94357545Y-108716437D01*
X93650192Y-108433348D02*
X93933281Y-108716437D01*
X91658923Y-108433348D02*
X93650192Y-108433348D01*
X100304829Y-108979031D02*
X100004830Y-109279030D01*
X100004830Y-109279030D02*
X100004830Y-110881110D01*
X100004830Y-110881110D02*
X100512601Y-111388881D01*
X100512601Y-111388881D02*
X100705641Y-111388881D01*
X100705641Y-111388881D02*
X100781747Y-111464987D01*
X101080159Y-109705847D02*
X100655895Y-109705847D01*
X103169562Y-110188545D02*
X102686864Y-109705847D01*
X102686864Y-109705847D02*
X101080159Y-109705847D01*
X98070201Y-108675049D02*
X98070201Y-108662496D01*
X98070201Y-108662496D02*
X98032725Y-108625020D01*
X101864259Y-108402021D02*
X102041960Y-108224320D01*
X98032725Y-108625020D02*
X98255724Y-108402021D01*
X98255724Y-108402021D02*
X101864259Y-108402021D01*
X102041960Y-108224320D02*
X102748080Y-108224320D01*
X102748080Y-108224320D02*
X103718360Y-109194600D01*
X103718360Y-109194600D02*
X103718360Y-109499400D01*
X99913917Y-113172519D02*
X94615279Y-113172519D01*
X104708999Y-115131001D02*
X101872399Y-115131001D01*
X94381599Y-112938839D02*
X94081600Y-112638840D01*
X101872399Y-115131001D02*
X99913917Y-113172519D01*
X94615279Y-113172519D02*
X94381599Y-112938839D01*
X105440000Y-114400000D02*
X104708999Y-115131001D01*
X106632977Y-115747023D02*
X101487127Y-115747023D01*
X97775000Y-114775000D02*
X97775000Y-116075000D01*
X98125000Y-114425000D02*
X97775000Y-114775000D01*
X97750371Y-116099629D02*
X96699629Y-116099629D01*
X97775000Y-116075000D02*
X97750371Y-116099629D01*
X96500000Y-115900000D02*
X96500000Y-114600000D01*
X95544680Y-113644680D02*
X94526184Y-113644680D01*
X107980000Y-114400000D02*
X106632977Y-115747023D01*
X101487127Y-115747023D02*
X100165104Y-114425000D01*
X94526184Y-113644680D02*
X94101920Y-113644680D01*
X100165104Y-114425000D02*
X98125000Y-114425000D01*
X96699629Y-116099629D02*
X96500000Y-115900000D01*
X96500000Y-114600000D02*
X95544680Y-113644680D01*
D33*
X105800000Y-106200000D02*
X108349984Y-106200000D01*
X84836110Y-108275010D02*
X89362398Y-108275010D01*
X78749930Y-109000000D02*
X84111120Y-109000000D01*
X77050000Y-109749930D02*
X78000000Y-109749930D01*
X84111120Y-109000000D02*
X84836110Y-108275010D01*
X78000000Y-109749930D02*
X78749930Y-109000000D01*
X72150000Y-106549930D02*
X74499930Y-106549930D01*
X74499930Y-106549930D02*
X74500000Y-106550000D01*
D29*
X106710000Y-114400000D02*
X105670988Y-115439012D01*
X105670988Y-115439012D02*
X101679763Y-115439012D01*
X101679763Y-115439012D02*
X100265751Y-114025000D01*
X97178588Y-115098355D02*
X97178588Y-115522619D01*
X97900000Y-114025000D02*
X97178588Y-114746412D01*
X97178588Y-114746412D02*
X97178588Y-115098355D01*
X100265751Y-114025000D02*
X97900000Y-114025000D01*
D28*
X99689920Y-118861940D02*
X98079560Y-120472300D01*
X98079560Y-120472300D02*
X98079560Y-121793000D01*
D29*
X99800000Y-117350000D02*
X99800000Y-117375000D01*
X99600000Y-117150000D02*
X99800000Y-117350000D01*
X98912834Y-115537814D02*
X98912834Y-116462834D01*
X98912834Y-116462834D02*
X99600000Y-117150000D01*
G36*
X112357168Y-110084976D02*
X111630569Y-111789481D01*
X110743938Y-113464907D01*
X109720213Y-115060277D01*
X108566596Y-116564370D01*
X107291157Y-117966667D01*
X105902847Y-119257322D01*
X104411408Y-120427277D01*
X102827303Y-121468327D01*
X101161634Y-122373175D01*
X99426115Y-123135461D01*
X97632873Y-123749856D01*
X95794510Y-124212041D01*
X93923937Y-124518773D01*
X92034230Y-124667906D01*
X90138690Y-124658388D01*
X88250601Y-124490291D01*
X86383186Y-124164789D01*
X84549554Y-123684166D01*
X82762588Y-123051801D01*
X82508069Y-122936947D01*
X84165454Y-122936947D01*
X84199970Y-123010966D01*
X84756736Y-123213612D01*
X84799495Y-123229175D01*
X84844469Y-123236098D01*
X84889928Y-123234113D01*
X84934127Y-123223298D01*
X84975367Y-123204067D01*
X85012062Y-123177161D01*
X85042804Y-123143613D01*
X85066410Y-123104711D01*
X85183284Y-122783600D01*
X85649690Y-122783600D01*
X85670562Y-122995513D01*
X85732374Y-123199282D01*
X85832753Y-123387077D01*
X85967839Y-123551681D01*
X86132443Y-123686767D01*
X86320238Y-123787146D01*
X86524007Y-123848958D01*
X86682820Y-123864600D01*
X86789020Y-123864600D01*
X86947833Y-123848958D01*
X87151602Y-123787146D01*
X87339397Y-123686767D01*
X87504001Y-123551681D01*
X87639087Y-123387077D01*
X87711143Y-123252269D01*
X90987266Y-123252269D01*
X91071364Y-123437128D01*
X91189910Y-123602028D01*
X91338349Y-123740632D01*
X91510976Y-123847614D01*
X91633265Y-123898268D01*
X91790767Y-123879860D01*
X91790767Y-123094767D01*
X92144767Y-123094767D01*
X92144767Y-123879860D01*
X92302269Y-123898268D01*
X92487128Y-123814170D01*
X92652028Y-123695624D01*
X92790632Y-123547185D01*
X92897614Y-123374558D01*
X92948268Y-123252269D01*
X92929860Y-123094767D01*
X92144767Y-123094767D01*
X91790767Y-123094767D01*
X91005674Y-123094767D01*
X90987266Y-123252269D01*
X87711143Y-123252269D01*
X87739466Y-123199282D01*
X87801278Y-122995513D01*
X87822150Y-122783600D01*
X87802419Y-122583265D01*
X90987266Y-122583265D01*
X91005674Y-122740767D01*
X91790767Y-122740767D01*
X91790767Y-121955674D01*
X91633265Y-121937266D01*
X91448406Y-122021364D01*
X91283506Y-122139910D01*
X91144902Y-122288349D01*
X91037920Y-122460976D01*
X90987266Y-122583265D01*
X87802419Y-122583265D01*
X87801278Y-122571687D01*
X87739466Y-122367918D01*
X87639087Y-122180123D01*
X87504001Y-122015519D01*
X87339397Y-121880433D01*
X87151602Y-121780054D01*
X86947833Y-121718242D01*
X86789020Y-121702600D01*
X86682820Y-121702600D01*
X86524007Y-121718242D01*
X86320238Y-121780054D01*
X86132443Y-121880433D01*
X85967839Y-122015519D01*
X85832753Y-122180123D01*
X85732374Y-122367918D01*
X85670562Y-122571687D01*
X85649690Y-122783600D01*
X85183284Y-122783600D01*
X85284619Y-122505186D01*
X85250104Y-122431167D01*
X84454889Y-122141732D01*
X84165454Y-122936947D01*
X82508069Y-122936947D01*
X81340865Y-122410237D01*
X83027872Y-122410237D01*
X83029858Y-122455697D01*
X83040673Y-122499896D01*
X83059903Y-122541136D01*
X83086810Y-122577832D01*
X83120358Y-122608573D01*
X83159260Y-122632178D01*
X83202018Y-122647741D01*
X83758784Y-122850387D01*
X83832803Y-122815872D01*
X84122238Y-122020657D01*
X83540939Y-121809081D01*
X84575964Y-121809081D01*
X85371179Y-122098516D01*
X85445198Y-122064000D01*
X85663407Y-121464474D01*
X85670330Y-121419501D01*
X85668344Y-121374041D01*
X85657529Y-121329842D01*
X85638299Y-121288602D01*
X85611392Y-121251906D01*
X85577844Y-121221165D01*
X85538942Y-121197560D01*
X85496184Y-121181997D01*
X84939418Y-120979351D01*
X84865399Y-121013866D01*
X84575964Y-121809081D01*
X83540939Y-121809081D01*
X83327023Y-121731222D01*
X83253004Y-121765738D01*
X83034795Y-122365264D01*
X83027872Y-122410237D01*
X81340865Y-122410237D01*
X81034782Y-122272115D01*
X79378301Y-121350597D01*
X79339524Y-121324552D01*
X83413583Y-121324552D01*
X83448098Y-121398571D01*
X84243313Y-121688006D01*
X84532748Y-120892791D01*
X84498232Y-120818772D01*
X83941466Y-120616126D01*
X83898707Y-120600563D01*
X83853733Y-120593640D01*
X83808274Y-120595625D01*
X83764075Y-120606440D01*
X83722835Y-120625671D01*
X83686140Y-120652577D01*
X83655398Y-120686125D01*
X83631792Y-120725027D01*
X83413583Y-121324552D01*
X79339524Y-121324552D01*
X77804724Y-120293689D01*
X76325112Y-119108818D01*
X74947868Y-117802425D01*
X74281000Y-117080319D01*
X74281000Y-113565027D01*
X74282480Y-113550000D01*
X74276572Y-113490014D01*
X74259074Y-113432332D01*
X74230660Y-113379173D01*
X74192421Y-113332579D01*
X74145827Y-113294340D01*
X74092668Y-113265926D01*
X74034986Y-113248428D01*
X73990027Y-113244000D01*
X73975000Y-113242520D01*
X73959973Y-113244000D01*
X71027579Y-113244000D01*
X70356000Y-112068739D01*
X70356000Y-111327500D01*
X71072883Y-111327500D01*
X71072883Y-111672500D01*
X71080177Y-111746560D01*
X71101780Y-111817773D01*
X71136860Y-111883404D01*
X71184070Y-111940930D01*
X71241596Y-111988140D01*
X71307227Y-112023220D01*
X71378440Y-112044823D01*
X71452500Y-112052117D01*
X71747500Y-112052117D01*
X71821560Y-112044823D01*
X71892773Y-112023220D01*
X71958404Y-111988140D01*
X72015930Y-111940930D01*
X72055225Y-111893049D01*
X72070290Y-111929419D01*
X72095570Y-111967254D01*
X72127746Y-111999429D01*
X72165580Y-112024709D01*
X72207619Y-112042123D01*
X72252248Y-112051000D01*
X72364750Y-112051000D01*
X72422500Y-111993250D01*
X72422500Y-111660000D01*
X72717500Y-111660000D01*
X72717500Y-111993250D01*
X72775250Y-112051000D01*
X72887752Y-112051000D01*
X72932381Y-112042123D01*
X72974420Y-112024709D01*
X73012254Y-111999429D01*
X73044430Y-111967254D01*
X73069710Y-111929419D01*
X73087123Y-111887380D01*
X73096000Y-111842751D01*
X73096000Y-111717750D01*
X73038250Y-111660000D01*
X72717500Y-111660000D01*
X72422500Y-111660000D01*
X72373000Y-111660000D01*
X72373000Y-111340000D01*
X72422500Y-111340000D01*
X72422500Y-111006750D01*
X72717500Y-111006750D01*
X72717500Y-111340000D01*
X73038250Y-111340000D01*
X73096000Y-111282250D01*
X73096000Y-111157249D01*
X73087123Y-111112620D01*
X73069710Y-111070581D01*
X73044430Y-111032746D01*
X73012254Y-111000571D01*
X72974420Y-110975291D01*
X72932381Y-110957877D01*
X72887752Y-110949000D01*
X72775250Y-110949000D01*
X72717500Y-111006750D01*
X72422500Y-111006750D01*
X72364750Y-110949000D01*
X72252248Y-110949000D01*
X72207619Y-110957877D01*
X72165580Y-110975291D01*
X72127746Y-111000571D01*
X72095570Y-111032746D01*
X72081000Y-111054552D01*
X72081000Y-110499166D01*
X72098119Y-110482047D01*
X72900000Y-110482047D01*
X72945284Y-110477587D01*
X72988827Y-110464378D01*
X73028957Y-110442928D01*
X73064132Y-110414062D01*
X73092998Y-110378887D01*
X73114448Y-110338757D01*
X73127657Y-110295214D01*
X73132117Y-110249930D01*
X73132117Y-109249930D01*
X73127657Y-109204646D01*
X73114448Y-109161103D01*
X73092998Y-109120973D01*
X73064132Y-109085798D01*
X73028957Y-109056932D01*
X72988827Y-109035482D01*
X72945284Y-109022273D01*
X72900000Y-109017813D01*
X72824645Y-109017813D01*
X73093183Y-108749276D01*
X73152276Y-108677271D01*
X73210869Y-108567652D01*
X73246950Y-108448708D01*
X73259133Y-108325010D01*
X73246950Y-108201312D01*
X73210869Y-108082369D01*
X73152276Y-107972749D01*
X73073423Y-107876667D01*
X72977341Y-107797814D01*
X72867721Y-107739221D01*
X72748778Y-107703140D01*
X72625080Y-107690957D01*
X72501382Y-107703140D01*
X72382438Y-107739221D01*
X72272819Y-107797814D01*
X72200814Y-107856907D01*
X71725732Y-108331990D01*
X71701658Y-108351747D01*
X71681900Y-108375822D01*
X71681897Y-108375825D01*
X71622804Y-108447830D01*
X71564211Y-108557449D01*
X71528130Y-108676393D01*
X71515948Y-108800090D01*
X71519001Y-108831090D01*
X71519001Y-109017813D01*
X71400000Y-109017813D01*
X71354716Y-109022273D01*
X71311173Y-109035482D01*
X71271043Y-109056932D01*
X71235868Y-109085798D01*
X71207002Y-109120973D01*
X71185552Y-109161103D01*
X71172343Y-109204646D01*
X71167883Y-109249930D01*
X71167883Y-110087995D01*
X71153465Y-110114969D01*
X71125960Y-110205638D01*
X71116673Y-110299930D01*
X71119001Y-110323566D01*
X71119000Y-111150010D01*
X71101780Y-111182227D01*
X71080177Y-111253440D01*
X71072883Y-111327500D01*
X70356000Y-111327500D01*
X70356000Y-106049930D01*
X71167883Y-106049930D01*
X71167883Y-107049930D01*
X71172343Y-107095214D01*
X71185552Y-107138757D01*
X71207002Y-107178887D01*
X71235868Y-107214062D01*
X71271043Y-107242928D01*
X71311173Y-107264378D01*
X71354716Y-107277587D01*
X71400000Y-107282047D01*
X72900000Y-107282047D01*
X72945284Y-107277587D01*
X72988827Y-107264378D01*
X73028957Y-107242928D01*
X73064132Y-107214062D01*
X73092998Y-107178887D01*
X73114448Y-107138757D01*
X73127657Y-107095214D01*
X73132117Y-107049930D01*
X73132117Y-106880930D01*
X74082493Y-106880930D01*
X74087546Y-106888493D01*
X74161507Y-106962454D01*
X74248477Y-107020566D01*
X74345113Y-107060594D01*
X74447701Y-107081000D01*
X74552299Y-107081000D01*
X74654887Y-107060594D01*
X74751523Y-107020566D01*
X74838493Y-106962454D01*
X74912454Y-106888493D01*
X74970566Y-106801523D01*
X74977542Y-106784680D01*
X76069000Y-106784680D01*
X76069000Y-107072681D01*
X76077877Y-107117310D01*
X76095290Y-107159349D01*
X76120570Y-107197184D01*
X76152746Y-107229359D01*
X76190580Y-107254639D01*
X76232619Y-107272053D01*
X76277248Y-107280930D01*
X76815250Y-107280930D01*
X76873000Y-107223180D01*
X76873000Y-106726930D01*
X77227000Y-106726930D01*
X77227000Y-107223180D01*
X77284750Y-107280930D01*
X77822752Y-107280930D01*
X77867381Y-107272053D01*
X77909420Y-107254639D01*
X77947254Y-107229359D01*
X77979430Y-107197184D01*
X78004710Y-107159349D01*
X78022123Y-107117310D01*
X78031000Y-107072681D01*
X78031000Y-106784680D01*
X77973250Y-106726930D01*
X77227000Y-106726930D01*
X76873000Y-106726930D01*
X76126750Y-106726930D01*
X76069000Y-106784680D01*
X74977542Y-106784680D01*
X75010594Y-106704887D01*
X75031000Y-106602299D01*
X75031000Y-106497701D01*
X75010594Y-106395113D01*
X74970566Y-106298477D01*
X74912454Y-106211507D01*
X74838493Y-106137546D01*
X74751523Y-106079434D01*
X74654887Y-106039406D01*
X74593418Y-106027179D01*
X76069000Y-106027179D01*
X76069000Y-106315180D01*
X76126750Y-106372930D01*
X76873000Y-106372930D01*
X76873000Y-105876680D01*
X77227000Y-105876680D01*
X77227000Y-106372930D01*
X77973250Y-106372930D01*
X78031000Y-106315180D01*
X78031000Y-106027179D01*
X78022123Y-105982550D01*
X78004710Y-105940511D01*
X77979430Y-105902676D01*
X77947254Y-105870501D01*
X77909420Y-105845221D01*
X77867381Y-105827807D01*
X77822752Y-105818930D01*
X77284750Y-105818930D01*
X77227000Y-105876680D01*
X76873000Y-105876680D01*
X76815250Y-105818930D01*
X76277248Y-105818930D01*
X76232619Y-105827807D01*
X76190580Y-105845221D01*
X76152746Y-105870501D01*
X76120570Y-105902676D01*
X76095290Y-105940511D01*
X76077877Y-105982550D01*
X76069000Y-106027179D01*
X74593418Y-106027179D01*
X74552299Y-106019000D01*
X74447701Y-106019000D01*
X74345113Y-106039406D01*
X74248477Y-106079434D01*
X74161507Y-106137546D01*
X74087546Y-106211507D01*
X74082586Y-106218930D01*
X73132117Y-106218930D01*
X73132117Y-106049930D01*
X73127657Y-106004646D01*
X73114448Y-105961103D01*
X73092998Y-105920973D01*
X73064132Y-105885798D01*
X73028957Y-105856932D01*
X72988827Y-105835482D01*
X72945284Y-105822273D01*
X72900000Y-105817813D01*
X71400000Y-105817813D01*
X71354716Y-105822273D01*
X71311173Y-105835482D01*
X71271043Y-105856932D01*
X71235868Y-105885798D01*
X71207002Y-105920973D01*
X71185552Y-105961103D01*
X71172343Y-106004646D01*
X71167883Y-106049930D01*
X70356000Y-106049930D01*
X70356000Y-105306000D01*
X79994000Y-105306000D01*
X79994001Y-107634963D01*
X79992520Y-107650000D01*
X79998428Y-107709986D01*
X80015926Y-107767668D01*
X80044340Y-107820827D01*
X80082579Y-107867421D01*
X80129173Y-107905660D01*
X80182332Y-107934074D01*
X80240014Y-107951572D01*
X80284973Y-107956000D01*
X80300000Y-107957480D01*
X80315027Y-107956000D01*
X84747487Y-107956000D01*
X84731331Y-107960901D01*
X84708829Y-107967727D01*
X84651327Y-107998462D01*
X84651325Y-107998463D01*
X84651326Y-107998463D01*
X84613551Y-108029464D01*
X84613547Y-108029468D01*
X84600926Y-108039826D01*
X84590568Y-108052447D01*
X83974016Y-108669000D01*
X78766176Y-108669000D01*
X78749929Y-108667400D01*
X78733682Y-108669000D01*
X78733675Y-108669000D01*
X78691227Y-108673181D01*
X78685042Y-108673790D01*
X78630778Y-108690251D01*
X78622649Y-108692717D01*
X78565147Y-108723452D01*
X78565145Y-108723453D01*
X78565146Y-108723453D01*
X78527371Y-108754454D01*
X78527367Y-108754458D01*
X78514746Y-108764816D01*
X78504388Y-108777437D01*
X78032097Y-109249728D01*
X78027657Y-109204646D01*
X78014448Y-109161103D01*
X77992998Y-109120973D01*
X77964132Y-109085798D01*
X77928957Y-109056932D01*
X77888827Y-109035482D01*
X77845284Y-109022273D01*
X77800000Y-109017813D01*
X76300000Y-109017813D01*
X76254716Y-109022273D01*
X76211173Y-109035482D01*
X76171043Y-109056932D01*
X76135868Y-109085798D01*
X76107002Y-109120973D01*
X76085552Y-109161103D01*
X76072343Y-109204646D01*
X76067883Y-109249930D01*
X76067883Y-110249930D01*
X76072343Y-110295214D01*
X76085552Y-110338757D01*
X76107002Y-110378887D01*
X76135868Y-110414062D01*
X76171043Y-110442928D01*
X76211173Y-110464378D01*
X76254716Y-110477587D01*
X76300000Y-110482047D01*
X77800000Y-110482047D01*
X77845284Y-110477587D01*
X77888827Y-110464378D01*
X77928957Y-110442928D01*
X77964132Y-110414062D01*
X77992998Y-110378887D01*
X78014448Y-110338757D01*
X78027657Y-110295214D01*
X78032117Y-110249930D01*
X78032117Y-110079368D01*
X78064887Y-110076140D01*
X78127281Y-110057213D01*
X78184783Y-110026478D01*
X78235184Y-109985114D01*
X78245547Y-109972487D01*
X78887035Y-109331000D01*
X79344853Y-109331000D01*
X79296523Y-109356833D01*
X79131919Y-109491919D01*
X78996833Y-109656523D01*
X78896454Y-109844318D01*
X78834642Y-110048087D01*
X78813770Y-110260000D01*
X78834642Y-110471913D01*
X78896454Y-110675682D01*
X78996833Y-110863477D01*
X79131919Y-111028081D01*
X79296523Y-111163167D01*
X79484318Y-111263546D01*
X79578123Y-111292001D01*
X76665119Y-111292001D01*
X76649999Y-111290512D01*
X76634879Y-111292001D01*
X76634871Y-111292001D01*
X76589620Y-111296458D01*
X76531562Y-111314070D01*
X76478056Y-111342669D01*
X76458280Y-111358899D01*
X76442907Y-111371515D01*
X76442903Y-111371519D01*
X76437452Y-111375992D01*
X76402299Y-111369000D01*
X76297701Y-111369000D01*
X76195113Y-111389406D01*
X76098477Y-111429434D01*
X76011507Y-111487546D01*
X75937546Y-111561507D01*
X75879434Y-111648477D01*
X75839406Y-111745113D01*
X75819000Y-111847701D01*
X75819000Y-111952299D01*
X75839406Y-112054887D01*
X75879434Y-112151523D01*
X75937546Y-112238493D01*
X76011507Y-112312454D01*
X76098477Y-112370566D01*
X76195113Y-112410594D01*
X76297701Y-112431000D01*
X76402299Y-112431000D01*
X76504887Y-112410594D01*
X76601523Y-112370566D01*
X76688493Y-112312454D01*
X76762454Y-112238493D01*
X76820566Y-112151523D01*
X76860594Y-112054887D01*
X76881000Y-111952299D01*
X76881000Y-111908001D01*
X78822019Y-111908001D01*
X78817883Y-111950000D01*
X78817883Y-113650000D01*
X78822343Y-113695284D01*
X78835552Y-113738827D01*
X78857002Y-113778957D01*
X78885868Y-113814132D01*
X78921043Y-113842998D01*
X78961173Y-113864448D01*
X79004716Y-113877657D01*
X79050000Y-113882117D01*
X79469000Y-113882117D01*
X79469001Y-116652633D01*
X79466916Y-116673804D01*
X79475237Y-116758294D01*
X79498682Y-116835579D01*
X79499883Y-116839538D01*
X79539904Y-116914413D01*
X79593764Y-116980041D01*
X79610204Y-116993533D01*
X81396426Y-118779756D01*
X81409921Y-118796199D01*
X81475549Y-118850059D01*
X81550424Y-118890080D01*
X81631667Y-118914725D01*
X81694990Y-118920962D01*
X81694996Y-118920962D01*
X81716157Y-118923046D01*
X81737318Y-118920962D01*
X87151439Y-118920962D01*
X88348894Y-120118419D01*
X88362382Y-120134854D01*
X88378817Y-120148342D01*
X88378823Y-120148348D01*
X88404550Y-120169461D01*
X88428010Y-120188714D01*
X88502885Y-120228735D01*
X88584128Y-120253380D01*
X88647451Y-120259617D01*
X88647457Y-120259617D01*
X88668618Y-120261701D01*
X88689779Y-120259617D01*
X89630748Y-120259617D01*
X88904497Y-120985868D01*
X88875631Y-121021043D01*
X88854181Y-121061173D01*
X88840972Y-121104716D01*
X88836512Y-121150000D01*
X88840972Y-121195284D01*
X88854181Y-121238827D01*
X88875631Y-121278957D01*
X88904497Y-121314132D01*
X90035868Y-122445503D01*
X90071043Y-122474369D01*
X90111173Y-122495819D01*
X90154716Y-122509028D01*
X90200000Y-122513488D01*
X90245284Y-122509028D01*
X90288827Y-122495819D01*
X90328957Y-122474369D01*
X90364132Y-122445503D01*
X91441715Y-121367920D01*
X91938157Y-121864364D01*
X91951643Y-121880797D01*
X91968075Y-121894282D01*
X91968084Y-121894291D01*
X92017271Y-121934656D01*
X92092145Y-121974677D01*
X92144767Y-121990640D01*
X92144767Y-122740767D01*
X92929860Y-122740767D01*
X92948268Y-122583265D01*
X92864170Y-122398406D01*
X92745624Y-122233506D01*
X92597185Y-122094902D01*
X92424558Y-121987920D01*
X92405704Y-121980110D01*
X92423614Y-121974677D01*
X92498488Y-121934656D01*
X92502942Y-121931001D01*
X94509653Y-121931001D01*
X94514404Y-121954887D01*
X94554432Y-122051523D01*
X94612544Y-122138493D01*
X94686505Y-122212454D01*
X94773475Y-122270566D01*
X94870111Y-122310594D01*
X94972699Y-122331000D01*
X95077297Y-122331000D01*
X95179885Y-122310594D01*
X95276521Y-122270566D01*
X95363491Y-122212454D01*
X95437452Y-122138493D01*
X95495564Y-122051523D01*
X95535592Y-121954887D01*
X95555998Y-121852299D01*
X95555998Y-121747701D01*
X95535592Y-121645113D01*
X95495564Y-121548477D01*
X95437452Y-121461507D01*
X95363491Y-121387546D01*
X95276521Y-121329434D01*
X95179885Y-121289406D01*
X95110035Y-121275512D01*
X95044733Y-121210210D01*
X95040887Y-121205523D01*
X96169711Y-121205523D01*
X96172192Y-121250959D01*
X96183488Y-121295037D01*
X96867529Y-123174422D01*
X96887208Y-123215449D01*
X96914513Y-123251849D01*
X96948395Y-123282223D01*
X96987551Y-123305402D01*
X97030477Y-123320498D01*
X97075523Y-123326929D01*
X97120959Y-123324448D01*
X97165037Y-123313152D01*
X99044422Y-122629111D01*
X99085449Y-122609432D01*
X99121849Y-122582127D01*
X99152223Y-122548245D01*
X99175402Y-122509089D01*
X99190498Y-122466163D01*
X99196929Y-122421117D01*
X99194448Y-122375681D01*
X99183152Y-122331603D01*
X98595905Y-120718154D01*
X98819000Y-120718154D01*
X98819000Y-120881846D01*
X98850935Y-121042394D01*
X98913577Y-121193626D01*
X99004520Y-121329732D01*
X99120268Y-121445480D01*
X99256374Y-121536423D01*
X99407606Y-121599065D01*
X99568154Y-121631000D01*
X99731846Y-121631000D01*
X99892394Y-121599065D01*
X100043626Y-121536423D01*
X100179732Y-121445480D01*
X100295480Y-121329732D01*
X100386423Y-121193626D01*
X100449065Y-121042394D01*
X100481000Y-120881846D01*
X100481000Y-120718154D01*
X101319000Y-120718154D01*
X101319000Y-120881846D01*
X101350935Y-121042394D01*
X101413577Y-121193626D01*
X101504520Y-121329732D01*
X101620268Y-121445480D01*
X101756374Y-121536423D01*
X101907606Y-121599065D01*
X102068154Y-121631000D01*
X102231846Y-121631000D01*
X102392394Y-121599065D01*
X102543626Y-121536423D01*
X102679732Y-121445480D01*
X102795480Y-121329732D01*
X102886423Y-121193626D01*
X102949065Y-121042394D01*
X102981000Y-120881846D01*
X102981000Y-120718154D01*
X102949065Y-120557606D01*
X102886423Y-120406374D01*
X102795480Y-120270268D01*
X102679732Y-120154520D01*
X102543626Y-120063577D01*
X102392394Y-120000935D01*
X102231846Y-119969000D01*
X102068154Y-119969000D01*
X101907606Y-120000935D01*
X101756374Y-120063577D01*
X101620268Y-120154520D01*
X101504520Y-120270268D01*
X101413577Y-120406374D01*
X101350935Y-120557606D01*
X101319000Y-120718154D01*
X100481000Y-120718154D01*
X100449065Y-120557606D01*
X100386423Y-120406374D01*
X100295480Y-120270268D01*
X100179732Y-120154520D01*
X100043626Y-120063577D01*
X99892394Y-120000935D01*
X99731846Y-119969000D01*
X99568154Y-119969000D01*
X99407606Y-120000935D01*
X99256374Y-120063577D01*
X99120268Y-120154520D01*
X99004520Y-120270268D01*
X98913577Y-120406374D01*
X98850935Y-120557606D01*
X98819000Y-120718154D01*
X98595905Y-120718154D01*
X98536295Y-120554379D01*
X99559118Y-119531557D01*
X99946170Y-119531557D01*
X100034130Y-119522894D01*
X100118709Y-119497237D01*
X100196658Y-119455572D01*
X100264981Y-119399501D01*
X100321052Y-119331178D01*
X100362717Y-119253229D01*
X100388374Y-119168650D01*
X100397037Y-119080690D01*
X100397037Y-118643190D01*
X100388374Y-118555230D01*
X100362717Y-118470651D01*
X100321052Y-118392702D01*
X100264981Y-118324379D01*
X100196658Y-118268308D01*
X100118709Y-118226643D01*
X100034130Y-118200986D01*
X99946170Y-118192323D01*
X99433670Y-118192323D01*
X99345710Y-118200986D01*
X99261131Y-118226643D01*
X99183182Y-118268308D01*
X99114859Y-118324379D01*
X99058788Y-118392702D01*
X99017123Y-118470651D01*
X98991466Y-118555230D01*
X98982803Y-118643190D01*
X98982803Y-119030242D01*
X97823392Y-120189654D01*
X97808849Y-120201589D01*
X97786572Y-120228735D01*
X97761238Y-120259604D01*
X97739800Y-120299711D01*
X97725859Y-120325793D01*
X97704073Y-120397612D01*
X97698695Y-120452218D01*
X97696717Y-120472300D01*
X97698560Y-120491010D01*
X97698560Y-120496581D01*
X96322218Y-120997529D01*
X96281191Y-121017208D01*
X96244791Y-121044513D01*
X96214417Y-121078395D01*
X96191238Y-121117551D01*
X96176142Y-121160477D01*
X96169711Y-121205523D01*
X95040887Y-121205523D01*
X95031236Y-121193764D01*
X94965608Y-121139904D01*
X94890733Y-121099883D01*
X94809490Y-121075238D01*
X94746167Y-121069001D01*
X94746160Y-121069001D01*
X94724999Y-121066917D01*
X94703838Y-121069001D01*
X92361847Y-121069001D01*
X92140242Y-120847397D01*
X92131499Y-120818575D01*
X92091478Y-120743700D01*
X92037618Y-120678072D01*
X92021179Y-120664581D01*
X90685425Y-119328828D01*
X90671928Y-119312382D01*
X90606300Y-119258522D01*
X90554959Y-119231080D01*
X93819001Y-119231080D01*
X93819000Y-119473666D01*
X93789406Y-119545113D01*
X93769000Y-119647701D01*
X93769000Y-119752299D01*
X93789406Y-119854887D01*
X93829434Y-119951523D01*
X93887546Y-120038493D01*
X93961507Y-120112454D01*
X94048477Y-120170566D01*
X94145113Y-120210594D01*
X94247701Y-120231000D01*
X94352299Y-120231000D01*
X94454887Y-120210594D01*
X94551523Y-120170566D01*
X94638493Y-120112454D01*
X94712454Y-120038493D01*
X94770566Y-119951523D01*
X94810594Y-119854887D01*
X94831000Y-119752299D01*
X94831000Y-119647701D01*
X94810594Y-119545113D01*
X94781000Y-119473667D01*
X94781000Y-119321338D01*
X96378978Y-119321338D01*
X96513983Y-119476532D01*
X96755734Y-119578006D01*
X97012637Y-119630367D01*
X97274818Y-119631603D01*
X97532202Y-119581666D01*
X97774899Y-119482475D01*
X97786017Y-119476532D01*
X97921022Y-119321338D01*
X97150000Y-118550316D01*
X96378978Y-119321338D01*
X94781000Y-119321338D01*
X94781000Y-118973625D01*
X94781987Y-118963610D01*
X95895237Y-117850359D01*
X95871994Y-117905734D01*
X95819633Y-118162637D01*
X95818397Y-118424818D01*
X95868334Y-118682202D01*
X95967525Y-118924899D01*
X95973468Y-118936017D01*
X96128662Y-119071022D01*
X96899684Y-118300000D01*
X97400316Y-118300000D01*
X98171338Y-119071022D01*
X98326532Y-118936017D01*
X98428006Y-118694266D01*
X98480367Y-118437363D01*
X98481603Y-118175182D01*
X98480386Y-118168908D01*
X103319000Y-118168908D01*
X103319000Y-118431092D01*
X103370150Y-118688238D01*
X103470483Y-118930465D01*
X103616145Y-119148463D01*
X103801537Y-119333855D01*
X104019535Y-119479517D01*
X104261762Y-119579850D01*
X104518908Y-119631000D01*
X104781092Y-119631000D01*
X105038238Y-119579850D01*
X105280465Y-119479517D01*
X105498463Y-119333855D01*
X105683855Y-119148463D01*
X105829517Y-118930465D01*
X105929850Y-118688238D01*
X105981000Y-118431092D01*
X105981000Y-118168908D01*
X105929850Y-117911762D01*
X105829517Y-117669535D01*
X105683855Y-117451537D01*
X105498463Y-117266145D01*
X105280465Y-117120483D01*
X105038238Y-117020150D01*
X104781092Y-116969000D01*
X104518908Y-116969000D01*
X104261762Y-117020150D01*
X104019535Y-117120483D01*
X103801537Y-117266145D01*
X103616145Y-117451537D01*
X103470483Y-117669535D01*
X103370150Y-117911762D01*
X103319000Y-118168908D01*
X98480386Y-118168908D01*
X98431666Y-117917798D01*
X98332475Y-117675101D01*
X98326532Y-117663983D01*
X98171338Y-117528978D01*
X97400316Y-118300000D01*
X96899684Y-118300000D01*
X96885542Y-118285858D01*
X97135858Y-118035542D01*
X97150000Y-118049684D01*
X97921022Y-117278662D01*
X97786017Y-117123468D01*
X97748308Y-117107640D01*
X97953950Y-117107640D01*
X97973129Y-117143522D01*
X98018176Y-117198412D01*
X98099839Y-117280075D01*
X98129434Y-117351523D01*
X98187546Y-117438493D01*
X98261507Y-117512454D01*
X98348477Y-117570566D01*
X98445113Y-117610594D01*
X98547701Y-117631000D01*
X98652299Y-117631000D01*
X98754887Y-117610594D01*
X98851523Y-117570566D01*
X98938493Y-117512454D01*
X98982803Y-117468144D01*
X98982803Y-117505690D01*
X98991466Y-117593650D01*
X99017123Y-117678229D01*
X99058788Y-117756178D01*
X99114859Y-117824501D01*
X99183182Y-117880572D01*
X99261131Y-117922237D01*
X99345710Y-117947894D01*
X99433670Y-117956557D01*
X99946170Y-117956557D01*
X100034130Y-117947894D01*
X100118709Y-117922237D01*
X100196658Y-117880572D01*
X100264981Y-117824501D01*
X100321052Y-117756178D01*
X100362717Y-117678229D01*
X100388374Y-117593650D01*
X100397037Y-117505690D01*
X100397037Y-117068190D01*
X100388374Y-116980230D01*
X100362717Y-116895651D01*
X100321052Y-116817702D01*
X100264981Y-116749379D01*
X100196658Y-116693308D01*
X100118709Y-116651643D01*
X100034130Y-116625986D01*
X99946170Y-116617323D01*
X99502900Y-116617323D01*
X99220834Y-116335258D01*
X99220834Y-115970643D01*
X99251327Y-115950268D01*
X99325288Y-115876307D01*
X99383400Y-115789337D01*
X99385099Y-115785235D01*
X99402234Y-115826603D01*
X99460346Y-115913573D01*
X99534307Y-115987534D01*
X99621277Y-116045646D01*
X99717913Y-116085674D01*
X99820501Y-116106080D01*
X99925099Y-116106080D01*
X100027687Y-116085674D01*
X100124323Y-116045646D01*
X100211293Y-115987534D01*
X100223159Y-115975668D01*
X100791735Y-116544244D01*
X100812186Y-116593616D01*
X100870298Y-116680586D01*
X100944259Y-116754547D01*
X101031229Y-116812659D01*
X101080600Y-116833109D01*
X101103665Y-116856174D01*
X101115595Y-116870711D01*
X101130130Y-116882639D01*
X101173609Y-116918322D01*
X101227789Y-116947282D01*
X101239798Y-116953701D01*
X101311617Y-116975487D01*
X101359948Y-116980247D01*
X101386306Y-116982843D01*
X101405019Y-116981000D01*
X101978320Y-116981000D01*
X101978320Y-117024379D01*
X101998726Y-117126967D01*
X102038754Y-117223603D01*
X102096866Y-117310573D01*
X102170827Y-117384534D01*
X102257797Y-117442646D01*
X102354433Y-117482674D01*
X102457021Y-117503080D01*
X102561619Y-117503080D01*
X102664207Y-117482674D01*
X102760843Y-117442646D01*
X102847813Y-117384534D01*
X102921774Y-117310573D01*
X102979886Y-117223603D01*
X103019914Y-117126967D01*
X103040320Y-117024379D01*
X103040320Y-116919781D01*
X103019914Y-116817193D01*
X102979886Y-116720557D01*
X102921774Y-116633587D01*
X102847813Y-116559626D01*
X102760843Y-116501514D01*
X102664207Y-116461486D01*
X102561619Y-116441080D01*
X102517134Y-116441080D01*
X102419886Y-116343832D01*
X102407951Y-116329289D01*
X102349936Y-116281678D01*
X102283748Y-116246299D01*
X102211929Y-116224513D01*
X102155953Y-116219000D01*
X102155950Y-116219000D01*
X102137240Y-116217157D01*
X102118530Y-116219000D01*
X101799670Y-116219000D01*
X101793346Y-116187206D01*
X101753318Y-116090570D01*
X101729566Y-116055023D01*
X106617857Y-116055023D01*
X106632977Y-116056512D01*
X106648097Y-116055023D01*
X106648105Y-116055023D01*
X106693356Y-116050566D01*
X106751414Y-116032954D01*
X106804920Y-116004355D01*
X106851819Y-115965865D01*
X106861468Y-115954108D01*
X107684577Y-115131000D01*
X107755901Y-115131000D01*
X107863301Y-115120422D01*
X108001095Y-115078623D01*
X108128086Y-115010744D01*
X108239395Y-114919395D01*
X108330744Y-114808086D01*
X108357062Y-114758849D01*
X108385839Y-114811548D01*
X108477737Y-114921506D01*
X108589321Y-115011423D01*
X108704228Y-115072826D01*
X108813000Y-115049566D01*
X108813000Y-114577000D01*
X109167000Y-114577000D01*
X109167000Y-115049566D01*
X109275772Y-115072826D01*
X109390679Y-115011423D01*
X109502263Y-114921506D01*
X109594161Y-114811548D01*
X109662841Y-114685774D01*
X109641512Y-114577000D01*
X109167000Y-114577000D01*
X108813000Y-114577000D01*
X108793000Y-114577000D01*
X108793000Y-114223000D01*
X108813000Y-114223000D01*
X108813000Y-113750434D01*
X109167000Y-113750434D01*
X109167000Y-114223000D01*
X109641512Y-114223000D01*
X109662841Y-114114226D01*
X109594161Y-113988452D01*
X109502263Y-113878494D01*
X109390679Y-113788577D01*
X109275772Y-113727174D01*
X109167000Y-113750434D01*
X108813000Y-113750434D01*
X108704228Y-113727174D01*
X108589321Y-113788577D01*
X108477737Y-113878494D01*
X108385839Y-113988452D01*
X108357062Y-114041151D01*
X108330744Y-113991914D01*
X108239395Y-113880605D01*
X108128086Y-113789256D01*
X108001095Y-113721377D01*
X107863301Y-113679578D01*
X107755901Y-113669000D01*
X107684099Y-113669000D01*
X107576699Y-113679578D01*
X107438905Y-113721377D01*
X107311914Y-113789256D01*
X107200605Y-113880605D01*
X107109256Y-113991914D01*
X107085000Y-114037293D01*
X107060744Y-113991914D01*
X106969395Y-113880605D01*
X106858086Y-113789256D01*
X106731095Y-113721377D01*
X106593301Y-113679578D01*
X106485901Y-113669000D01*
X106414099Y-113669000D01*
X106306699Y-113679578D01*
X106168905Y-113721377D01*
X106041914Y-113789256D01*
X105930605Y-113880605D01*
X105839256Y-113991914D01*
X105815000Y-114037293D01*
X105790744Y-113991914D01*
X105699395Y-113880605D01*
X105588086Y-113789256D01*
X105461095Y-113721377D01*
X105323301Y-113679578D01*
X105215901Y-113669000D01*
X105144099Y-113669000D01*
X105036699Y-113679578D01*
X104898905Y-113721377D01*
X104771914Y-113789256D01*
X104660605Y-113880605D01*
X104569256Y-113991914D01*
X104545000Y-114037293D01*
X104520744Y-113991914D01*
X104429395Y-113880605D01*
X104318086Y-113789256D01*
X104191095Y-113721377D01*
X104053301Y-113679578D01*
X103945901Y-113669000D01*
X103874577Y-113669000D01*
X103602501Y-113396925D01*
X103592852Y-113385168D01*
X103545953Y-113346678D01*
X103492447Y-113318079D01*
X103434389Y-113300467D01*
X103389138Y-113296010D01*
X103389130Y-113296010D01*
X103374010Y-113294521D01*
X103358890Y-113296010D01*
X103249964Y-113296010D01*
X103373977Y-113193418D01*
X103512869Y-113023119D01*
X103616039Y-112829085D01*
X103679556Y-112618708D01*
X103701000Y-112400000D01*
X103700561Y-112368560D01*
X103684459Y-112241102D01*
X103828665Y-112385308D01*
X103838305Y-112397054D01*
X103850051Y-112406694D01*
X103850055Y-112406698D01*
X103865428Y-112419314D01*
X103885204Y-112435544D01*
X103934401Y-112461840D01*
X103938710Y-112464143D01*
X103996767Y-112481755D01*
X104002022Y-112482272D01*
X104042019Y-112486212D01*
X104042027Y-112486212D01*
X104057147Y-112487701D01*
X104072267Y-112486212D01*
X104520136Y-112486212D01*
X104498467Y-112518641D01*
X104458439Y-112615277D01*
X104438033Y-112717865D01*
X104438033Y-112822463D01*
X104458439Y-112925051D01*
X104498467Y-113021687D01*
X104556579Y-113108657D01*
X104630540Y-113182618D01*
X104717510Y-113240730D01*
X104814146Y-113280758D01*
X104916734Y-113301164D01*
X105021332Y-113301164D01*
X105123920Y-113280758D01*
X105220556Y-113240730D01*
X105307526Y-113182618D01*
X105381487Y-113108657D01*
X105439599Y-113021687D01*
X105479627Y-112925051D01*
X105500033Y-112822463D01*
X105500033Y-112717865D01*
X105479627Y-112615277D01*
X105439599Y-112518641D01*
X105417930Y-112486212D01*
X105609881Y-112486212D01*
X105632546Y-112520133D01*
X105706507Y-112594094D01*
X105793477Y-112652206D01*
X105890113Y-112692234D01*
X105992701Y-112712640D01*
X106097299Y-112712640D01*
X106199887Y-112692234D01*
X106296523Y-112652206D01*
X106383493Y-112594094D01*
X106457454Y-112520133D01*
X106515566Y-112433163D01*
X106555594Y-112336527D01*
X106560869Y-112310010D01*
X107621750Y-112310010D01*
X107636870Y-112311499D01*
X107651990Y-112310010D01*
X107651998Y-112310010D01*
X107697249Y-112305553D01*
X107755307Y-112287941D01*
X107808813Y-112259342D01*
X107855712Y-112220852D01*
X107865361Y-112209095D01*
X109943027Y-110131430D01*
X109950000Y-110132117D01*
X111450000Y-110132117D01*
X111495284Y-110127657D01*
X111538827Y-110114448D01*
X111578957Y-110092998D01*
X111614132Y-110064132D01*
X111642998Y-110028957D01*
X111664448Y-109988827D01*
X111677657Y-109945284D01*
X111682117Y-109900000D01*
X111682117Y-108900000D01*
X111677657Y-108854716D01*
X111664448Y-108811173D01*
X111642998Y-108771043D01*
X111614132Y-108735868D01*
X111578957Y-108707002D01*
X111538827Y-108685552D01*
X111495284Y-108672343D01*
X111450000Y-108667883D01*
X109950000Y-108667883D01*
X109904716Y-108672343D01*
X109861173Y-108685552D01*
X109821043Y-108707002D01*
X109785868Y-108735868D01*
X109757002Y-108771043D01*
X109735552Y-108811173D01*
X109722343Y-108854716D01*
X109717883Y-108900000D01*
X109717883Y-109485419D01*
X107509294Y-111694010D01*
X107274961Y-111694010D01*
X107284710Y-111679419D01*
X107302123Y-111637380D01*
X107311000Y-111592751D01*
X107311000Y-111467750D01*
X107253250Y-111410000D01*
X106932500Y-111410000D01*
X106932500Y-111447000D01*
X106637500Y-111447000D01*
X106637500Y-111410000D01*
X106588000Y-111410000D01*
X106588000Y-111090000D01*
X106637500Y-111090000D01*
X106637500Y-110756750D01*
X106932500Y-110756750D01*
X106932500Y-111090000D01*
X107253250Y-111090000D01*
X107311000Y-111032250D01*
X107311000Y-110907249D01*
X107302123Y-110862620D01*
X107284710Y-110820581D01*
X107259430Y-110782746D01*
X107227254Y-110750571D01*
X107189420Y-110725291D01*
X107147381Y-110707877D01*
X107102752Y-110699000D01*
X106990250Y-110699000D01*
X106932500Y-110756750D01*
X106637500Y-110756750D01*
X106579750Y-110699000D01*
X106467248Y-110699000D01*
X106422619Y-110707877D01*
X106380580Y-110725291D01*
X106342746Y-110750571D01*
X106310570Y-110782746D01*
X106285290Y-110820581D01*
X106270225Y-110856951D01*
X106246000Y-110827433D01*
X106246000Y-110132117D01*
X106550000Y-110132117D01*
X106595284Y-110127657D01*
X106638827Y-110114448D01*
X106678957Y-110092998D01*
X106714132Y-110064132D01*
X106742998Y-110028957D01*
X106764448Y-109988827D01*
X106777657Y-109945284D01*
X106782117Y-109900000D01*
X106782117Y-108977409D01*
X107585039Y-108174488D01*
X107654887Y-108160594D01*
X107751523Y-108120566D01*
X107838493Y-108062454D01*
X107912454Y-107988493D01*
X107970566Y-107901523D01*
X108010594Y-107804887D01*
X108031000Y-107702299D01*
X108031000Y-107597701D01*
X108010594Y-107495113D01*
X107970566Y-107398477D01*
X107912454Y-107311507D01*
X107838493Y-107237546D01*
X107751523Y-107179434D01*
X107654887Y-107139406D01*
X107552299Y-107119000D01*
X107447701Y-107119000D01*
X107345113Y-107139406D01*
X107248477Y-107179434D01*
X107161507Y-107237546D01*
X107087546Y-107311507D01*
X107029434Y-107398477D01*
X106989406Y-107495113D01*
X106975512Y-107564961D01*
X105872592Y-108667883D01*
X105050000Y-108667883D01*
X105004716Y-108672343D01*
X104961173Y-108685552D01*
X104921043Y-108707002D01*
X104885868Y-108735868D01*
X104857002Y-108771043D01*
X104835552Y-108811173D01*
X104822343Y-108854716D01*
X104817883Y-108900000D01*
X104817883Y-109900000D01*
X104822343Y-109945284D01*
X104835552Y-109988827D01*
X104857002Y-110028957D01*
X104885868Y-110064132D01*
X104921043Y-110092998D01*
X104961173Y-110114448D01*
X105004716Y-110127657D01*
X105050000Y-110132117D01*
X105384001Y-110132117D01*
X105384000Y-110827433D01*
X105351860Y-110866596D01*
X105316780Y-110932227D01*
X105295177Y-111003440D01*
X105287883Y-111077500D01*
X105287883Y-111422500D01*
X105295177Y-111496560D01*
X105316780Y-111567773D01*
X105351860Y-111633404D01*
X105399070Y-111690930D01*
X105456596Y-111738140D01*
X105522227Y-111773220D01*
X105593440Y-111794823D01*
X105667500Y-111802117D01*
X105673576Y-111802117D01*
X105632546Y-111843147D01*
X105614462Y-111870212D01*
X104184725Y-111870212D01*
X103676869Y-111362357D01*
X103717764Y-111362357D01*
X103820352Y-111341951D01*
X103916988Y-111301923D01*
X104003958Y-111243811D01*
X104077919Y-111169850D01*
X104136031Y-111082880D01*
X104176059Y-110986244D01*
X104196465Y-110883656D01*
X104196465Y-110779058D01*
X104194912Y-110771250D01*
X104200648Y-110766542D01*
X104211006Y-110753921D01*
X104211010Y-110753917D01*
X104242011Y-110716142D01*
X104249677Y-110701801D01*
X104272747Y-110658639D01*
X104284613Y-110619521D01*
X104291674Y-110596246D01*
X104293290Y-110579834D01*
X104296464Y-110547613D01*
X104296464Y-110547605D01*
X104298064Y-110531358D01*
X104296464Y-110515111D01*
X104296464Y-110411478D01*
X104530346Y-110177596D01*
X104542968Y-110167238D01*
X104553326Y-110154617D01*
X104553330Y-110154613D01*
X104568403Y-110136246D01*
X104584332Y-110116837D01*
X104615067Y-110059335D01*
X104620050Y-110042909D01*
X104633994Y-109996942D01*
X104635856Y-109978037D01*
X104638784Y-109948309D01*
X104638784Y-109948301D01*
X104640384Y-109932054D01*
X104638784Y-109915807D01*
X104638784Y-109181543D01*
X104640384Y-109165298D01*
X104638784Y-109149053D01*
X104638784Y-109149044D01*
X104633994Y-109100412D01*
X104615067Y-109038018D01*
X104584332Y-108980516D01*
X104557997Y-108948427D01*
X104553330Y-108942740D01*
X104553326Y-108942736D01*
X104542968Y-108930115D01*
X104530348Y-108919758D01*
X102844494Y-107233905D01*
X102834131Y-107221278D01*
X102783730Y-107179914D01*
X102726228Y-107149179D01*
X102663834Y-107130252D01*
X102615202Y-107125462D01*
X102615194Y-107125462D01*
X102598947Y-107123862D01*
X102591561Y-107124589D01*
X102587137Y-107117969D01*
X102513176Y-107044008D01*
X102426206Y-106985896D01*
X102329570Y-106945868D01*
X102226982Y-106925462D01*
X102122384Y-106925462D01*
X102019796Y-106945868D01*
X101923160Y-106985896D01*
X101836190Y-107044008D01*
X101762229Y-107117969D01*
X101704117Y-107204939D01*
X101664089Y-107301575D01*
X101643683Y-107404163D01*
X101643683Y-107508761D01*
X101645441Y-107517599D01*
X101469031Y-107694010D01*
X100688084Y-107694010D01*
X103213830Y-105700000D01*
X104817883Y-105700000D01*
X104817883Y-106700000D01*
X104822343Y-106745284D01*
X104835552Y-106788827D01*
X104857002Y-106828957D01*
X104885868Y-106864132D01*
X104921043Y-106892998D01*
X104961173Y-106914448D01*
X105004716Y-106927657D01*
X105050000Y-106932117D01*
X106550000Y-106932117D01*
X106595284Y-106927657D01*
X106638827Y-106914448D01*
X106678957Y-106892998D01*
X106714132Y-106864132D01*
X106742998Y-106828957D01*
X106764448Y-106788827D01*
X106777657Y-106745284D01*
X106782117Y-106700000D01*
X106782117Y-106531000D01*
X107932523Y-106531000D01*
X107937530Y-106538493D01*
X108011491Y-106612454D01*
X108098461Y-106670566D01*
X108195097Y-106710594D01*
X108297685Y-106731000D01*
X108402283Y-106731000D01*
X108504871Y-106710594D01*
X108601507Y-106670566D01*
X108688477Y-106612454D01*
X108762438Y-106538493D01*
X108820550Y-106451523D01*
X108827497Y-106434750D01*
X109719000Y-106434750D01*
X109719000Y-106722751D01*
X109727877Y-106767380D01*
X109745290Y-106809419D01*
X109770570Y-106847254D01*
X109802746Y-106879429D01*
X109840580Y-106904709D01*
X109882619Y-106922123D01*
X109927248Y-106931000D01*
X110465250Y-106931000D01*
X110523000Y-106873250D01*
X110523000Y-106377000D01*
X110877000Y-106377000D01*
X110877000Y-106873250D01*
X110934750Y-106931000D01*
X111472752Y-106931000D01*
X111517381Y-106922123D01*
X111559420Y-106904709D01*
X111597254Y-106879429D01*
X111629430Y-106847254D01*
X111654710Y-106809419D01*
X111672123Y-106767380D01*
X111681000Y-106722751D01*
X111681000Y-106434750D01*
X111623250Y-106377000D01*
X110877000Y-106377000D01*
X110523000Y-106377000D01*
X109776750Y-106377000D01*
X109719000Y-106434750D01*
X108827497Y-106434750D01*
X108860578Y-106354887D01*
X108880984Y-106252299D01*
X108880984Y-106147701D01*
X108860578Y-106045113D01*
X108820550Y-105948477D01*
X108762438Y-105861507D01*
X108688477Y-105787546D01*
X108601507Y-105729434D01*
X108504871Y-105689406D01*
X108443754Y-105677249D01*
X109719000Y-105677249D01*
X109719000Y-105965250D01*
X109776750Y-106023000D01*
X110523000Y-106023000D01*
X110523000Y-105526750D01*
X110877000Y-105526750D01*
X110877000Y-106023000D01*
X111623250Y-106023000D01*
X111681000Y-105965250D01*
X111681000Y-105677249D01*
X111672123Y-105632620D01*
X111654710Y-105590581D01*
X111629430Y-105552746D01*
X111597254Y-105520571D01*
X111559420Y-105495291D01*
X111517381Y-105477877D01*
X111472752Y-105469000D01*
X110934750Y-105469000D01*
X110877000Y-105526750D01*
X110523000Y-105526750D01*
X110465250Y-105469000D01*
X109927248Y-105469000D01*
X109882619Y-105477877D01*
X109840580Y-105495291D01*
X109802746Y-105520571D01*
X109770570Y-105552746D01*
X109745290Y-105590581D01*
X109727877Y-105632620D01*
X109719000Y-105677249D01*
X108443754Y-105677249D01*
X108402283Y-105669000D01*
X108297685Y-105669000D01*
X108195097Y-105689406D01*
X108098461Y-105729434D01*
X108011491Y-105787546D01*
X107937530Y-105861507D01*
X107932523Y-105869000D01*
X106782117Y-105869000D01*
X106782117Y-105700000D01*
X106777657Y-105654716D01*
X106764448Y-105611173D01*
X106742998Y-105571043D01*
X106714132Y-105535868D01*
X106678957Y-105507002D01*
X106638827Y-105485552D01*
X106595284Y-105472343D01*
X106550000Y-105467883D01*
X105050000Y-105467883D01*
X105004716Y-105472343D01*
X104961173Y-105485552D01*
X104921043Y-105507002D01*
X104885868Y-105535868D01*
X104857002Y-105571043D01*
X104835552Y-105611173D01*
X104822343Y-105654716D01*
X104817883Y-105700000D01*
X103213830Y-105700000D01*
X104156231Y-104956000D01*
X112368334Y-104956000D01*
X112357168Y-110084976D01*
X112357168Y-110084976D01*
G37*
X112357168Y-110084976D02*
X111630569Y-111789481D01*
X110743938Y-113464907D01*
X109720213Y-115060277D01*
X108566596Y-116564370D01*
X107291157Y-117966667D01*
X105902847Y-119257322D01*
X104411408Y-120427277D01*
X102827303Y-121468327D01*
X101161634Y-122373175D01*
X99426115Y-123135461D01*
X97632873Y-123749856D01*
X95794510Y-124212041D01*
X93923937Y-124518773D01*
X92034230Y-124667906D01*
X90138690Y-124658388D01*
X88250601Y-124490291D01*
X86383186Y-124164789D01*
X84549554Y-123684166D01*
X82762588Y-123051801D01*
X82508069Y-122936947D01*
X84165454Y-122936947D01*
X84199970Y-123010966D01*
X84756736Y-123213612D01*
X84799495Y-123229175D01*
X84844469Y-123236098D01*
X84889928Y-123234113D01*
X84934127Y-123223298D01*
X84975367Y-123204067D01*
X85012062Y-123177161D01*
X85042804Y-123143613D01*
X85066410Y-123104711D01*
X85183284Y-122783600D01*
X85649690Y-122783600D01*
X85670562Y-122995513D01*
X85732374Y-123199282D01*
X85832753Y-123387077D01*
X85967839Y-123551681D01*
X86132443Y-123686767D01*
X86320238Y-123787146D01*
X86524007Y-123848958D01*
X86682820Y-123864600D01*
X86789020Y-123864600D01*
X86947833Y-123848958D01*
X87151602Y-123787146D01*
X87339397Y-123686767D01*
X87504001Y-123551681D01*
X87639087Y-123387077D01*
X87711143Y-123252269D01*
X90987266Y-123252269D01*
X91071364Y-123437128D01*
X91189910Y-123602028D01*
X91338349Y-123740632D01*
X91510976Y-123847614D01*
X91633265Y-123898268D01*
X91790767Y-123879860D01*
X91790767Y-123094767D01*
X92144767Y-123094767D01*
X92144767Y-123879860D01*
X92302269Y-123898268D01*
X92487128Y-123814170D01*
X92652028Y-123695624D01*
X92790632Y-123547185D01*
X92897614Y-123374558D01*
X92948268Y-123252269D01*
X92929860Y-123094767D01*
X92144767Y-123094767D01*
X91790767Y-123094767D01*
X91005674Y-123094767D01*
X90987266Y-123252269D01*
X87711143Y-123252269D01*
X87739466Y-123199282D01*
X87801278Y-122995513D01*
X87822150Y-122783600D01*
X87802419Y-122583265D01*
X90987266Y-122583265D01*
X91005674Y-122740767D01*
X91790767Y-122740767D01*
X91790767Y-121955674D01*
X91633265Y-121937266D01*
X91448406Y-122021364D01*
X91283506Y-122139910D01*
X91144902Y-122288349D01*
X91037920Y-122460976D01*
X90987266Y-122583265D01*
X87802419Y-122583265D01*
X87801278Y-122571687D01*
X87739466Y-122367918D01*
X87639087Y-122180123D01*
X87504001Y-122015519D01*
X87339397Y-121880433D01*
X87151602Y-121780054D01*
X86947833Y-121718242D01*
X86789020Y-121702600D01*
X86682820Y-121702600D01*
X86524007Y-121718242D01*
X86320238Y-121780054D01*
X86132443Y-121880433D01*
X85967839Y-122015519D01*
X85832753Y-122180123D01*
X85732374Y-122367918D01*
X85670562Y-122571687D01*
X85649690Y-122783600D01*
X85183284Y-122783600D01*
X85284619Y-122505186D01*
X85250104Y-122431167D01*
X84454889Y-122141732D01*
X84165454Y-122936947D01*
X82508069Y-122936947D01*
X81340865Y-122410237D01*
X83027872Y-122410237D01*
X83029858Y-122455697D01*
X83040673Y-122499896D01*
X83059903Y-122541136D01*
X83086810Y-122577832D01*
X83120358Y-122608573D01*
X83159260Y-122632178D01*
X83202018Y-122647741D01*
X83758784Y-122850387D01*
X83832803Y-122815872D01*
X84122238Y-122020657D01*
X83540939Y-121809081D01*
X84575964Y-121809081D01*
X85371179Y-122098516D01*
X85445198Y-122064000D01*
X85663407Y-121464474D01*
X85670330Y-121419501D01*
X85668344Y-121374041D01*
X85657529Y-121329842D01*
X85638299Y-121288602D01*
X85611392Y-121251906D01*
X85577844Y-121221165D01*
X85538942Y-121197560D01*
X85496184Y-121181997D01*
X84939418Y-120979351D01*
X84865399Y-121013866D01*
X84575964Y-121809081D01*
X83540939Y-121809081D01*
X83327023Y-121731222D01*
X83253004Y-121765738D01*
X83034795Y-122365264D01*
X83027872Y-122410237D01*
X81340865Y-122410237D01*
X81034782Y-122272115D01*
X79378301Y-121350597D01*
X79339524Y-121324552D01*
X83413583Y-121324552D01*
X83448098Y-121398571D01*
X84243313Y-121688006D01*
X84532748Y-120892791D01*
X84498232Y-120818772D01*
X83941466Y-120616126D01*
X83898707Y-120600563D01*
X83853733Y-120593640D01*
X83808274Y-120595625D01*
X83764075Y-120606440D01*
X83722835Y-120625671D01*
X83686140Y-120652577D01*
X83655398Y-120686125D01*
X83631792Y-120725027D01*
X83413583Y-121324552D01*
X79339524Y-121324552D01*
X77804724Y-120293689D01*
X76325112Y-119108818D01*
X74947868Y-117802425D01*
X74281000Y-117080319D01*
X74281000Y-113565027D01*
X74282480Y-113550000D01*
X74276572Y-113490014D01*
X74259074Y-113432332D01*
X74230660Y-113379173D01*
X74192421Y-113332579D01*
X74145827Y-113294340D01*
X74092668Y-113265926D01*
X74034986Y-113248428D01*
X73990027Y-113244000D01*
X73975000Y-113242520D01*
X73959973Y-113244000D01*
X71027579Y-113244000D01*
X70356000Y-112068739D01*
X70356000Y-111327500D01*
X71072883Y-111327500D01*
X71072883Y-111672500D01*
X71080177Y-111746560D01*
X71101780Y-111817773D01*
X71136860Y-111883404D01*
X71184070Y-111940930D01*
X71241596Y-111988140D01*
X71307227Y-112023220D01*
X71378440Y-112044823D01*
X71452500Y-112052117D01*
X71747500Y-112052117D01*
X71821560Y-112044823D01*
X71892773Y-112023220D01*
X71958404Y-111988140D01*
X72015930Y-111940930D01*
X72055225Y-111893049D01*
X72070290Y-111929419D01*
X72095570Y-111967254D01*
X72127746Y-111999429D01*
X72165580Y-112024709D01*
X72207619Y-112042123D01*
X72252248Y-112051000D01*
X72364750Y-112051000D01*
X72422500Y-111993250D01*
X72422500Y-111660000D01*
X72717500Y-111660000D01*
X72717500Y-111993250D01*
X72775250Y-112051000D01*
X72887752Y-112051000D01*
X72932381Y-112042123D01*
X72974420Y-112024709D01*
X73012254Y-111999429D01*
X73044430Y-111967254D01*
X73069710Y-111929419D01*
X73087123Y-111887380D01*
X73096000Y-111842751D01*
X73096000Y-111717750D01*
X73038250Y-111660000D01*
X72717500Y-111660000D01*
X72422500Y-111660000D01*
X72373000Y-111660000D01*
X72373000Y-111340000D01*
X72422500Y-111340000D01*
X72422500Y-111006750D01*
X72717500Y-111006750D01*
X72717500Y-111340000D01*
X73038250Y-111340000D01*
X73096000Y-111282250D01*
X73096000Y-111157249D01*
X73087123Y-111112620D01*
X73069710Y-111070581D01*
X73044430Y-111032746D01*
X73012254Y-111000571D01*
X72974420Y-110975291D01*
X72932381Y-110957877D01*
X72887752Y-110949000D01*
X72775250Y-110949000D01*
X72717500Y-111006750D01*
X72422500Y-111006750D01*
X72364750Y-110949000D01*
X72252248Y-110949000D01*
X72207619Y-110957877D01*
X72165580Y-110975291D01*
X72127746Y-111000571D01*
X72095570Y-111032746D01*
X72081000Y-111054552D01*
X72081000Y-110499166D01*
X72098119Y-110482047D01*
X72900000Y-110482047D01*
X72945284Y-110477587D01*
X72988827Y-110464378D01*
X73028957Y-110442928D01*
X73064132Y-110414062D01*
X73092998Y-110378887D01*
X73114448Y-110338757D01*
X73127657Y-110295214D01*
X73132117Y-110249930D01*
X73132117Y-109249930D01*
X73127657Y-109204646D01*
X73114448Y-109161103D01*
X73092998Y-109120973D01*
X73064132Y-109085798D01*
X73028957Y-109056932D01*
X72988827Y-109035482D01*
X72945284Y-109022273D01*
X72900000Y-109017813D01*
X72824645Y-109017813D01*
X73093183Y-108749276D01*
X73152276Y-108677271D01*
X73210869Y-108567652D01*
X73246950Y-108448708D01*
X73259133Y-108325010D01*
X73246950Y-108201312D01*
X73210869Y-108082369D01*
X73152276Y-107972749D01*
X73073423Y-107876667D01*
X72977341Y-107797814D01*
X72867721Y-107739221D01*
X72748778Y-107703140D01*
X72625080Y-107690957D01*
X72501382Y-107703140D01*
X72382438Y-107739221D01*
X72272819Y-107797814D01*
X72200814Y-107856907D01*
X71725732Y-108331990D01*
X71701658Y-108351747D01*
X71681900Y-108375822D01*
X71681897Y-108375825D01*
X71622804Y-108447830D01*
X71564211Y-108557449D01*
X71528130Y-108676393D01*
X71515948Y-108800090D01*
X71519001Y-108831090D01*
X71519001Y-109017813D01*
X71400000Y-109017813D01*
X71354716Y-109022273D01*
X71311173Y-109035482D01*
X71271043Y-109056932D01*
X71235868Y-109085798D01*
X71207002Y-109120973D01*
X71185552Y-109161103D01*
X71172343Y-109204646D01*
X71167883Y-109249930D01*
X71167883Y-110087995D01*
X71153465Y-110114969D01*
X71125960Y-110205638D01*
X71116673Y-110299930D01*
X71119001Y-110323566D01*
X71119000Y-111150010D01*
X71101780Y-111182227D01*
X71080177Y-111253440D01*
X71072883Y-111327500D01*
X70356000Y-111327500D01*
X70356000Y-106049930D01*
X71167883Y-106049930D01*
X71167883Y-107049930D01*
X71172343Y-107095214D01*
X71185552Y-107138757D01*
X71207002Y-107178887D01*
X71235868Y-107214062D01*
X71271043Y-107242928D01*
X71311173Y-107264378D01*
X71354716Y-107277587D01*
X71400000Y-107282047D01*
X72900000Y-107282047D01*
X72945284Y-107277587D01*
X72988827Y-107264378D01*
X73028957Y-107242928D01*
X73064132Y-107214062D01*
X73092998Y-107178887D01*
X73114448Y-107138757D01*
X73127657Y-107095214D01*
X73132117Y-107049930D01*
X73132117Y-106880930D01*
X74082493Y-106880930D01*
X74087546Y-106888493D01*
X74161507Y-106962454D01*
X74248477Y-107020566D01*
X74345113Y-107060594D01*
X74447701Y-107081000D01*
X74552299Y-107081000D01*
X74654887Y-107060594D01*
X74751523Y-107020566D01*
X74838493Y-106962454D01*
X74912454Y-106888493D01*
X74970566Y-106801523D01*
X74977542Y-106784680D01*
X76069000Y-106784680D01*
X76069000Y-107072681D01*
X76077877Y-107117310D01*
X76095290Y-107159349D01*
X76120570Y-107197184D01*
X76152746Y-107229359D01*
X76190580Y-107254639D01*
X76232619Y-107272053D01*
X76277248Y-107280930D01*
X76815250Y-107280930D01*
X76873000Y-107223180D01*
X76873000Y-106726930D01*
X77227000Y-106726930D01*
X77227000Y-107223180D01*
X77284750Y-107280930D01*
X77822752Y-107280930D01*
X77867381Y-107272053D01*
X77909420Y-107254639D01*
X77947254Y-107229359D01*
X77979430Y-107197184D01*
X78004710Y-107159349D01*
X78022123Y-107117310D01*
X78031000Y-107072681D01*
X78031000Y-106784680D01*
X77973250Y-106726930D01*
X77227000Y-106726930D01*
X76873000Y-106726930D01*
X76126750Y-106726930D01*
X76069000Y-106784680D01*
X74977542Y-106784680D01*
X75010594Y-106704887D01*
X75031000Y-106602299D01*
X75031000Y-106497701D01*
X75010594Y-106395113D01*
X74970566Y-106298477D01*
X74912454Y-106211507D01*
X74838493Y-106137546D01*
X74751523Y-106079434D01*
X74654887Y-106039406D01*
X74593418Y-106027179D01*
X76069000Y-106027179D01*
X76069000Y-106315180D01*
X76126750Y-106372930D01*
X76873000Y-106372930D01*
X76873000Y-105876680D01*
X77227000Y-105876680D01*
X77227000Y-106372930D01*
X77973250Y-106372930D01*
X78031000Y-106315180D01*
X78031000Y-106027179D01*
X78022123Y-105982550D01*
X78004710Y-105940511D01*
X77979430Y-105902676D01*
X77947254Y-105870501D01*
X77909420Y-105845221D01*
X77867381Y-105827807D01*
X77822752Y-105818930D01*
X77284750Y-105818930D01*
X77227000Y-105876680D01*
X76873000Y-105876680D01*
X76815250Y-105818930D01*
X76277248Y-105818930D01*
X76232619Y-105827807D01*
X76190580Y-105845221D01*
X76152746Y-105870501D01*
X76120570Y-105902676D01*
X76095290Y-105940511D01*
X76077877Y-105982550D01*
X76069000Y-106027179D01*
X74593418Y-106027179D01*
X74552299Y-106019000D01*
X74447701Y-106019000D01*
X74345113Y-106039406D01*
X74248477Y-106079434D01*
X74161507Y-106137546D01*
X74087546Y-106211507D01*
X74082586Y-106218930D01*
X73132117Y-106218930D01*
X73132117Y-106049930D01*
X73127657Y-106004646D01*
X73114448Y-105961103D01*
X73092998Y-105920973D01*
X73064132Y-105885798D01*
X73028957Y-105856932D01*
X72988827Y-105835482D01*
X72945284Y-105822273D01*
X72900000Y-105817813D01*
X71400000Y-105817813D01*
X71354716Y-105822273D01*
X71311173Y-105835482D01*
X71271043Y-105856932D01*
X71235868Y-105885798D01*
X71207002Y-105920973D01*
X71185552Y-105961103D01*
X71172343Y-106004646D01*
X71167883Y-106049930D01*
X70356000Y-106049930D01*
X70356000Y-105306000D01*
X79994000Y-105306000D01*
X79994001Y-107634963D01*
X79992520Y-107650000D01*
X79998428Y-107709986D01*
X80015926Y-107767668D01*
X80044340Y-107820827D01*
X80082579Y-107867421D01*
X80129173Y-107905660D01*
X80182332Y-107934074D01*
X80240014Y-107951572D01*
X80284973Y-107956000D01*
X80300000Y-107957480D01*
X80315027Y-107956000D01*
X84747487Y-107956000D01*
X84731331Y-107960901D01*
X84708829Y-107967727D01*
X84651327Y-107998462D01*
X84651325Y-107998463D01*
X84651326Y-107998463D01*
X84613551Y-108029464D01*
X84613547Y-108029468D01*
X84600926Y-108039826D01*
X84590568Y-108052447D01*
X83974016Y-108669000D01*
X78766176Y-108669000D01*
X78749929Y-108667400D01*
X78733682Y-108669000D01*
X78733675Y-108669000D01*
X78691227Y-108673181D01*
X78685042Y-108673790D01*
X78630778Y-108690251D01*
X78622649Y-108692717D01*
X78565147Y-108723452D01*
X78565145Y-108723453D01*
X78565146Y-108723453D01*
X78527371Y-108754454D01*
X78527367Y-108754458D01*
X78514746Y-108764816D01*
X78504388Y-108777437D01*
X78032097Y-109249728D01*
X78027657Y-109204646D01*
X78014448Y-109161103D01*
X77992998Y-109120973D01*
X77964132Y-109085798D01*
X77928957Y-109056932D01*
X77888827Y-109035482D01*
X77845284Y-109022273D01*
X77800000Y-109017813D01*
X76300000Y-109017813D01*
X76254716Y-109022273D01*
X76211173Y-109035482D01*
X76171043Y-109056932D01*
X76135868Y-109085798D01*
X76107002Y-109120973D01*
X76085552Y-109161103D01*
X76072343Y-109204646D01*
X76067883Y-109249930D01*
X76067883Y-110249930D01*
X76072343Y-110295214D01*
X76085552Y-110338757D01*
X76107002Y-110378887D01*
X76135868Y-110414062D01*
X76171043Y-110442928D01*
X76211173Y-110464378D01*
X76254716Y-110477587D01*
X76300000Y-110482047D01*
X77800000Y-110482047D01*
X77845284Y-110477587D01*
X77888827Y-110464378D01*
X77928957Y-110442928D01*
X77964132Y-110414062D01*
X77992998Y-110378887D01*
X78014448Y-110338757D01*
X78027657Y-110295214D01*
X78032117Y-110249930D01*
X78032117Y-110079368D01*
X78064887Y-110076140D01*
X78127281Y-110057213D01*
X78184783Y-110026478D01*
X78235184Y-109985114D01*
X78245547Y-109972487D01*
X78887035Y-109331000D01*
X79344853Y-109331000D01*
X79296523Y-109356833D01*
X79131919Y-109491919D01*
X78996833Y-109656523D01*
X78896454Y-109844318D01*
X78834642Y-110048087D01*
X78813770Y-110260000D01*
X78834642Y-110471913D01*
X78896454Y-110675682D01*
X78996833Y-110863477D01*
X79131919Y-111028081D01*
X79296523Y-111163167D01*
X79484318Y-111263546D01*
X79578123Y-111292001D01*
X76665119Y-111292001D01*
X76649999Y-111290512D01*
X76634879Y-111292001D01*
X76634871Y-111292001D01*
X76589620Y-111296458D01*
X76531562Y-111314070D01*
X76478056Y-111342669D01*
X76458280Y-111358899D01*
X76442907Y-111371515D01*
X76442903Y-111371519D01*
X76437452Y-111375992D01*
X76402299Y-111369000D01*
X76297701Y-111369000D01*
X76195113Y-111389406D01*
X76098477Y-111429434D01*
X76011507Y-111487546D01*
X75937546Y-111561507D01*
X75879434Y-111648477D01*
X75839406Y-111745113D01*
X75819000Y-111847701D01*
X75819000Y-111952299D01*
X75839406Y-112054887D01*
X75879434Y-112151523D01*
X75937546Y-112238493D01*
X76011507Y-112312454D01*
X76098477Y-112370566D01*
X76195113Y-112410594D01*
X76297701Y-112431000D01*
X76402299Y-112431000D01*
X76504887Y-112410594D01*
X76601523Y-112370566D01*
X76688493Y-112312454D01*
X76762454Y-112238493D01*
X76820566Y-112151523D01*
X76860594Y-112054887D01*
X76881000Y-111952299D01*
X76881000Y-111908001D01*
X78822019Y-111908001D01*
X78817883Y-111950000D01*
X78817883Y-113650000D01*
X78822343Y-113695284D01*
X78835552Y-113738827D01*
X78857002Y-113778957D01*
X78885868Y-113814132D01*
X78921043Y-113842998D01*
X78961173Y-113864448D01*
X79004716Y-113877657D01*
X79050000Y-113882117D01*
X79469000Y-113882117D01*
X79469001Y-116652633D01*
X79466916Y-116673804D01*
X79475237Y-116758294D01*
X79498682Y-116835579D01*
X79499883Y-116839538D01*
X79539904Y-116914413D01*
X79593764Y-116980041D01*
X79610204Y-116993533D01*
X81396426Y-118779756D01*
X81409921Y-118796199D01*
X81475549Y-118850059D01*
X81550424Y-118890080D01*
X81631667Y-118914725D01*
X81694990Y-118920962D01*
X81694996Y-118920962D01*
X81716157Y-118923046D01*
X81737318Y-118920962D01*
X87151439Y-118920962D01*
X88348894Y-120118419D01*
X88362382Y-120134854D01*
X88378817Y-120148342D01*
X88378823Y-120148348D01*
X88404550Y-120169461D01*
X88428010Y-120188714D01*
X88502885Y-120228735D01*
X88584128Y-120253380D01*
X88647451Y-120259617D01*
X88647457Y-120259617D01*
X88668618Y-120261701D01*
X88689779Y-120259617D01*
X89630748Y-120259617D01*
X88904497Y-120985868D01*
X88875631Y-121021043D01*
X88854181Y-121061173D01*
X88840972Y-121104716D01*
X88836512Y-121150000D01*
X88840972Y-121195284D01*
X88854181Y-121238827D01*
X88875631Y-121278957D01*
X88904497Y-121314132D01*
X90035868Y-122445503D01*
X90071043Y-122474369D01*
X90111173Y-122495819D01*
X90154716Y-122509028D01*
X90200000Y-122513488D01*
X90245284Y-122509028D01*
X90288827Y-122495819D01*
X90328957Y-122474369D01*
X90364132Y-122445503D01*
X91441715Y-121367920D01*
X91938157Y-121864364D01*
X91951643Y-121880797D01*
X91968075Y-121894282D01*
X91968084Y-121894291D01*
X92017271Y-121934656D01*
X92092145Y-121974677D01*
X92144767Y-121990640D01*
X92144767Y-122740767D01*
X92929860Y-122740767D01*
X92948268Y-122583265D01*
X92864170Y-122398406D01*
X92745624Y-122233506D01*
X92597185Y-122094902D01*
X92424558Y-121987920D01*
X92405704Y-121980110D01*
X92423614Y-121974677D01*
X92498488Y-121934656D01*
X92502942Y-121931001D01*
X94509653Y-121931001D01*
X94514404Y-121954887D01*
X94554432Y-122051523D01*
X94612544Y-122138493D01*
X94686505Y-122212454D01*
X94773475Y-122270566D01*
X94870111Y-122310594D01*
X94972699Y-122331000D01*
X95077297Y-122331000D01*
X95179885Y-122310594D01*
X95276521Y-122270566D01*
X95363491Y-122212454D01*
X95437452Y-122138493D01*
X95495564Y-122051523D01*
X95535592Y-121954887D01*
X95555998Y-121852299D01*
X95555998Y-121747701D01*
X95535592Y-121645113D01*
X95495564Y-121548477D01*
X95437452Y-121461507D01*
X95363491Y-121387546D01*
X95276521Y-121329434D01*
X95179885Y-121289406D01*
X95110035Y-121275512D01*
X95044733Y-121210210D01*
X95040887Y-121205523D01*
X96169711Y-121205523D01*
X96172192Y-121250959D01*
X96183488Y-121295037D01*
X96867529Y-123174422D01*
X96887208Y-123215449D01*
X96914513Y-123251849D01*
X96948395Y-123282223D01*
X96987551Y-123305402D01*
X97030477Y-123320498D01*
X97075523Y-123326929D01*
X97120959Y-123324448D01*
X97165037Y-123313152D01*
X99044422Y-122629111D01*
X99085449Y-122609432D01*
X99121849Y-122582127D01*
X99152223Y-122548245D01*
X99175402Y-122509089D01*
X99190498Y-122466163D01*
X99196929Y-122421117D01*
X99194448Y-122375681D01*
X99183152Y-122331603D01*
X98595905Y-120718154D01*
X98819000Y-120718154D01*
X98819000Y-120881846D01*
X98850935Y-121042394D01*
X98913577Y-121193626D01*
X99004520Y-121329732D01*
X99120268Y-121445480D01*
X99256374Y-121536423D01*
X99407606Y-121599065D01*
X99568154Y-121631000D01*
X99731846Y-121631000D01*
X99892394Y-121599065D01*
X100043626Y-121536423D01*
X100179732Y-121445480D01*
X100295480Y-121329732D01*
X100386423Y-121193626D01*
X100449065Y-121042394D01*
X100481000Y-120881846D01*
X100481000Y-120718154D01*
X101319000Y-120718154D01*
X101319000Y-120881846D01*
X101350935Y-121042394D01*
X101413577Y-121193626D01*
X101504520Y-121329732D01*
X101620268Y-121445480D01*
X101756374Y-121536423D01*
X101907606Y-121599065D01*
X102068154Y-121631000D01*
X102231846Y-121631000D01*
X102392394Y-121599065D01*
X102543626Y-121536423D01*
X102679732Y-121445480D01*
X102795480Y-121329732D01*
X102886423Y-121193626D01*
X102949065Y-121042394D01*
X102981000Y-120881846D01*
X102981000Y-120718154D01*
X102949065Y-120557606D01*
X102886423Y-120406374D01*
X102795480Y-120270268D01*
X102679732Y-120154520D01*
X102543626Y-120063577D01*
X102392394Y-120000935D01*
X102231846Y-119969000D01*
X102068154Y-119969000D01*
X101907606Y-120000935D01*
X101756374Y-120063577D01*
X101620268Y-120154520D01*
X101504520Y-120270268D01*
X101413577Y-120406374D01*
X101350935Y-120557606D01*
X101319000Y-120718154D01*
X100481000Y-120718154D01*
X100449065Y-120557606D01*
X100386423Y-120406374D01*
X100295480Y-120270268D01*
X100179732Y-120154520D01*
X100043626Y-120063577D01*
X99892394Y-120000935D01*
X99731846Y-119969000D01*
X99568154Y-119969000D01*
X99407606Y-120000935D01*
X99256374Y-120063577D01*
X99120268Y-120154520D01*
X99004520Y-120270268D01*
X98913577Y-120406374D01*
X98850935Y-120557606D01*
X98819000Y-120718154D01*
X98595905Y-120718154D01*
X98536295Y-120554379D01*
X99559118Y-119531557D01*
X99946170Y-119531557D01*
X100034130Y-119522894D01*
X100118709Y-119497237D01*
X100196658Y-119455572D01*
X100264981Y-119399501D01*
X100321052Y-119331178D01*
X100362717Y-119253229D01*
X100388374Y-119168650D01*
X100397037Y-119080690D01*
X100397037Y-118643190D01*
X100388374Y-118555230D01*
X100362717Y-118470651D01*
X100321052Y-118392702D01*
X100264981Y-118324379D01*
X100196658Y-118268308D01*
X100118709Y-118226643D01*
X100034130Y-118200986D01*
X99946170Y-118192323D01*
X99433670Y-118192323D01*
X99345710Y-118200986D01*
X99261131Y-118226643D01*
X99183182Y-118268308D01*
X99114859Y-118324379D01*
X99058788Y-118392702D01*
X99017123Y-118470651D01*
X98991466Y-118555230D01*
X98982803Y-118643190D01*
X98982803Y-119030242D01*
X97823392Y-120189654D01*
X97808849Y-120201589D01*
X97786572Y-120228735D01*
X97761238Y-120259604D01*
X97739800Y-120299711D01*
X97725859Y-120325793D01*
X97704073Y-120397612D01*
X97698695Y-120452218D01*
X97696717Y-120472300D01*
X97698560Y-120491010D01*
X97698560Y-120496581D01*
X96322218Y-120997529D01*
X96281191Y-121017208D01*
X96244791Y-121044513D01*
X96214417Y-121078395D01*
X96191238Y-121117551D01*
X96176142Y-121160477D01*
X96169711Y-121205523D01*
X95040887Y-121205523D01*
X95031236Y-121193764D01*
X94965608Y-121139904D01*
X94890733Y-121099883D01*
X94809490Y-121075238D01*
X94746167Y-121069001D01*
X94746160Y-121069001D01*
X94724999Y-121066917D01*
X94703838Y-121069001D01*
X92361847Y-121069001D01*
X92140242Y-120847397D01*
X92131499Y-120818575D01*
X92091478Y-120743700D01*
X92037618Y-120678072D01*
X92021179Y-120664581D01*
X90685425Y-119328828D01*
X90671928Y-119312382D01*
X90606300Y-119258522D01*
X90554959Y-119231080D01*
X93819001Y-119231080D01*
X93819000Y-119473666D01*
X93789406Y-119545113D01*
X93769000Y-119647701D01*
X93769000Y-119752299D01*
X93789406Y-119854887D01*
X93829434Y-119951523D01*
X93887546Y-120038493D01*
X93961507Y-120112454D01*
X94048477Y-120170566D01*
X94145113Y-120210594D01*
X94247701Y-120231000D01*
X94352299Y-120231000D01*
X94454887Y-120210594D01*
X94551523Y-120170566D01*
X94638493Y-120112454D01*
X94712454Y-120038493D01*
X94770566Y-119951523D01*
X94810594Y-119854887D01*
X94831000Y-119752299D01*
X94831000Y-119647701D01*
X94810594Y-119545113D01*
X94781000Y-119473667D01*
X94781000Y-119321338D01*
X96378978Y-119321338D01*
X96513983Y-119476532D01*
X96755734Y-119578006D01*
X97012637Y-119630367D01*
X97274818Y-119631603D01*
X97532202Y-119581666D01*
X97774899Y-119482475D01*
X97786017Y-119476532D01*
X97921022Y-119321338D01*
X97150000Y-118550316D01*
X96378978Y-119321338D01*
X94781000Y-119321338D01*
X94781000Y-118973625D01*
X94781987Y-118963610D01*
X95895237Y-117850359D01*
X95871994Y-117905734D01*
X95819633Y-118162637D01*
X95818397Y-118424818D01*
X95868334Y-118682202D01*
X95967525Y-118924899D01*
X95973468Y-118936017D01*
X96128662Y-119071022D01*
X96899684Y-118300000D01*
X97400316Y-118300000D01*
X98171338Y-119071022D01*
X98326532Y-118936017D01*
X98428006Y-118694266D01*
X98480367Y-118437363D01*
X98481603Y-118175182D01*
X98480386Y-118168908D01*
X103319000Y-118168908D01*
X103319000Y-118431092D01*
X103370150Y-118688238D01*
X103470483Y-118930465D01*
X103616145Y-119148463D01*
X103801537Y-119333855D01*
X104019535Y-119479517D01*
X104261762Y-119579850D01*
X104518908Y-119631000D01*
X104781092Y-119631000D01*
X105038238Y-119579850D01*
X105280465Y-119479517D01*
X105498463Y-119333855D01*
X105683855Y-119148463D01*
X105829517Y-118930465D01*
X105929850Y-118688238D01*
X105981000Y-118431092D01*
X105981000Y-118168908D01*
X105929850Y-117911762D01*
X105829517Y-117669535D01*
X105683855Y-117451537D01*
X105498463Y-117266145D01*
X105280465Y-117120483D01*
X105038238Y-117020150D01*
X104781092Y-116969000D01*
X104518908Y-116969000D01*
X104261762Y-117020150D01*
X104019535Y-117120483D01*
X103801537Y-117266145D01*
X103616145Y-117451537D01*
X103470483Y-117669535D01*
X103370150Y-117911762D01*
X103319000Y-118168908D01*
X98480386Y-118168908D01*
X98431666Y-117917798D01*
X98332475Y-117675101D01*
X98326532Y-117663983D01*
X98171338Y-117528978D01*
X97400316Y-118300000D01*
X96899684Y-118300000D01*
X96885542Y-118285858D01*
X97135858Y-118035542D01*
X97150000Y-118049684D01*
X97921022Y-117278662D01*
X97786017Y-117123468D01*
X97748308Y-117107640D01*
X97953950Y-117107640D01*
X97973129Y-117143522D01*
X98018176Y-117198412D01*
X98099839Y-117280075D01*
X98129434Y-117351523D01*
X98187546Y-117438493D01*
X98261507Y-117512454D01*
X98348477Y-117570566D01*
X98445113Y-117610594D01*
X98547701Y-117631000D01*
X98652299Y-117631000D01*
X98754887Y-117610594D01*
X98851523Y-117570566D01*
X98938493Y-117512454D01*
X98982803Y-117468144D01*
X98982803Y-117505690D01*
X98991466Y-117593650D01*
X99017123Y-117678229D01*
X99058788Y-117756178D01*
X99114859Y-117824501D01*
X99183182Y-117880572D01*
X99261131Y-117922237D01*
X99345710Y-117947894D01*
X99433670Y-117956557D01*
X99946170Y-117956557D01*
X100034130Y-117947894D01*
X100118709Y-117922237D01*
X100196658Y-117880572D01*
X100264981Y-117824501D01*
X100321052Y-117756178D01*
X100362717Y-117678229D01*
X100388374Y-117593650D01*
X100397037Y-117505690D01*
X100397037Y-117068190D01*
X100388374Y-116980230D01*
X100362717Y-116895651D01*
X100321052Y-116817702D01*
X100264981Y-116749379D01*
X100196658Y-116693308D01*
X100118709Y-116651643D01*
X100034130Y-116625986D01*
X99946170Y-116617323D01*
X99502900Y-116617323D01*
X99220834Y-116335258D01*
X99220834Y-115970643D01*
X99251327Y-115950268D01*
X99325288Y-115876307D01*
X99383400Y-115789337D01*
X99385099Y-115785235D01*
X99402234Y-115826603D01*
X99460346Y-115913573D01*
X99534307Y-115987534D01*
X99621277Y-116045646D01*
X99717913Y-116085674D01*
X99820501Y-116106080D01*
X99925099Y-116106080D01*
X100027687Y-116085674D01*
X100124323Y-116045646D01*
X100211293Y-115987534D01*
X100223159Y-115975668D01*
X100791735Y-116544244D01*
X100812186Y-116593616D01*
X100870298Y-116680586D01*
X100944259Y-116754547D01*
X101031229Y-116812659D01*
X101080600Y-116833109D01*
X101103665Y-116856174D01*
X101115595Y-116870711D01*
X101130130Y-116882639D01*
X101173609Y-116918322D01*
X101227789Y-116947282D01*
X101239798Y-116953701D01*
X101311617Y-116975487D01*
X101359948Y-116980247D01*
X101386306Y-116982843D01*
X101405019Y-116981000D01*
X101978320Y-116981000D01*
X101978320Y-117024379D01*
X101998726Y-117126967D01*
X102038754Y-117223603D01*
X102096866Y-117310573D01*
X102170827Y-117384534D01*
X102257797Y-117442646D01*
X102354433Y-117482674D01*
X102457021Y-117503080D01*
X102561619Y-117503080D01*
X102664207Y-117482674D01*
X102760843Y-117442646D01*
X102847813Y-117384534D01*
X102921774Y-117310573D01*
X102979886Y-117223603D01*
X103019914Y-117126967D01*
X103040320Y-117024379D01*
X103040320Y-116919781D01*
X103019914Y-116817193D01*
X102979886Y-116720557D01*
X102921774Y-116633587D01*
X102847813Y-116559626D01*
X102760843Y-116501514D01*
X102664207Y-116461486D01*
X102561619Y-116441080D01*
X102517134Y-116441080D01*
X102419886Y-116343832D01*
X102407951Y-116329289D01*
X102349936Y-116281678D01*
X102283748Y-116246299D01*
X102211929Y-116224513D01*
X102155953Y-116219000D01*
X102155950Y-116219000D01*
X102137240Y-116217157D01*
X102118530Y-116219000D01*
X101799670Y-116219000D01*
X101793346Y-116187206D01*
X101753318Y-116090570D01*
X101729566Y-116055023D01*
X106617857Y-116055023D01*
X106632977Y-116056512D01*
X106648097Y-116055023D01*
X106648105Y-116055023D01*
X106693356Y-116050566D01*
X106751414Y-116032954D01*
X106804920Y-116004355D01*
X106851819Y-115965865D01*
X106861468Y-115954108D01*
X107684577Y-115131000D01*
X107755901Y-115131000D01*
X107863301Y-115120422D01*
X108001095Y-115078623D01*
X108128086Y-115010744D01*
X108239395Y-114919395D01*
X108330744Y-114808086D01*
X108357062Y-114758849D01*
X108385839Y-114811548D01*
X108477737Y-114921506D01*
X108589321Y-115011423D01*
X108704228Y-115072826D01*
X108813000Y-115049566D01*
X108813000Y-114577000D01*
X109167000Y-114577000D01*
X109167000Y-115049566D01*
X109275772Y-115072826D01*
X109390679Y-115011423D01*
X109502263Y-114921506D01*
X109594161Y-114811548D01*
X109662841Y-114685774D01*
X109641512Y-114577000D01*
X109167000Y-114577000D01*
X108813000Y-114577000D01*
X108793000Y-114577000D01*
X108793000Y-114223000D01*
X108813000Y-114223000D01*
X108813000Y-113750434D01*
X109167000Y-113750434D01*
X109167000Y-114223000D01*
X109641512Y-114223000D01*
X109662841Y-114114226D01*
X109594161Y-113988452D01*
X109502263Y-113878494D01*
X109390679Y-113788577D01*
X109275772Y-113727174D01*
X109167000Y-113750434D01*
X108813000Y-113750434D01*
X108704228Y-113727174D01*
X108589321Y-113788577D01*
X108477737Y-113878494D01*
X108385839Y-113988452D01*
X108357062Y-114041151D01*
X108330744Y-113991914D01*
X108239395Y-113880605D01*
X108128086Y-113789256D01*
X108001095Y-113721377D01*
X107863301Y-113679578D01*
X107755901Y-113669000D01*
X107684099Y-113669000D01*
X107576699Y-113679578D01*
X107438905Y-113721377D01*
X107311914Y-113789256D01*
X107200605Y-113880605D01*
X107109256Y-113991914D01*
X107085000Y-114037293D01*
X107060744Y-113991914D01*
X106969395Y-113880605D01*
X106858086Y-113789256D01*
X106731095Y-113721377D01*
X106593301Y-113679578D01*
X106485901Y-113669000D01*
X106414099Y-113669000D01*
X106306699Y-113679578D01*
X106168905Y-113721377D01*
X106041914Y-113789256D01*
X105930605Y-113880605D01*
X105839256Y-113991914D01*
X105815000Y-114037293D01*
X105790744Y-113991914D01*
X105699395Y-113880605D01*
X105588086Y-113789256D01*
X105461095Y-113721377D01*
X105323301Y-113679578D01*
X105215901Y-113669000D01*
X105144099Y-113669000D01*
X105036699Y-113679578D01*
X104898905Y-113721377D01*
X104771914Y-113789256D01*
X104660605Y-113880605D01*
X104569256Y-113991914D01*
X104545000Y-114037293D01*
X104520744Y-113991914D01*
X104429395Y-113880605D01*
X104318086Y-113789256D01*
X104191095Y-113721377D01*
X104053301Y-113679578D01*
X103945901Y-113669000D01*
X103874577Y-113669000D01*
X103602501Y-113396925D01*
X103592852Y-113385168D01*
X103545953Y-113346678D01*
X103492447Y-113318079D01*
X103434389Y-113300467D01*
X103389138Y-113296010D01*
X103389130Y-113296010D01*
X103374010Y-113294521D01*
X103358890Y-113296010D01*
X103249964Y-113296010D01*
X103373977Y-113193418D01*
X103512869Y-113023119D01*
X103616039Y-112829085D01*
X103679556Y-112618708D01*
X103701000Y-112400000D01*
X103700561Y-112368560D01*
X103684459Y-112241102D01*
X103828665Y-112385308D01*
X103838305Y-112397054D01*
X103850051Y-112406694D01*
X103850055Y-112406698D01*
X103865428Y-112419314D01*
X103885204Y-112435544D01*
X103934401Y-112461840D01*
X103938710Y-112464143D01*
X103996767Y-112481755D01*
X104002022Y-112482272D01*
X104042019Y-112486212D01*
X104042027Y-112486212D01*
X104057147Y-112487701D01*
X104072267Y-112486212D01*
X104520136Y-112486212D01*
X104498467Y-112518641D01*
X104458439Y-112615277D01*
X104438033Y-112717865D01*
X104438033Y-112822463D01*
X104458439Y-112925051D01*
X104498467Y-113021687D01*
X104556579Y-113108657D01*
X104630540Y-113182618D01*
X104717510Y-113240730D01*
X104814146Y-113280758D01*
X104916734Y-113301164D01*
X105021332Y-113301164D01*
X105123920Y-113280758D01*
X105220556Y-113240730D01*
X105307526Y-113182618D01*
X105381487Y-113108657D01*
X105439599Y-113021687D01*
X105479627Y-112925051D01*
X105500033Y-112822463D01*
X105500033Y-112717865D01*
X105479627Y-112615277D01*
X105439599Y-112518641D01*
X105417930Y-112486212D01*
X105609881Y-112486212D01*
X105632546Y-112520133D01*
X105706507Y-112594094D01*
X105793477Y-112652206D01*
X105890113Y-112692234D01*
X105992701Y-112712640D01*
X106097299Y-112712640D01*
X106199887Y-112692234D01*
X106296523Y-112652206D01*
X106383493Y-112594094D01*
X106457454Y-112520133D01*
X106515566Y-112433163D01*
X106555594Y-112336527D01*
X106560869Y-112310010D01*
X107621750Y-112310010D01*
X107636870Y-112311499D01*
X107651990Y-112310010D01*
X107651998Y-112310010D01*
X107697249Y-112305553D01*
X107755307Y-112287941D01*
X107808813Y-112259342D01*
X107855712Y-112220852D01*
X107865361Y-112209095D01*
X109943027Y-110131430D01*
X109950000Y-110132117D01*
X111450000Y-110132117D01*
X111495284Y-110127657D01*
X111538827Y-110114448D01*
X111578957Y-110092998D01*
X111614132Y-110064132D01*
X111642998Y-110028957D01*
X111664448Y-109988827D01*
X111677657Y-109945284D01*
X111682117Y-109900000D01*
X111682117Y-108900000D01*
X111677657Y-108854716D01*
X111664448Y-108811173D01*
X111642998Y-108771043D01*
X111614132Y-108735868D01*
X111578957Y-108707002D01*
X111538827Y-108685552D01*
X111495284Y-108672343D01*
X111450000Y-108667883D01*
X109950000Y-108667883D01*
X109904716Y-108672343D01*
X109861173Y-108685552D01*
X109821043Y-108707002D01*
X109785868Y-108735868D01*
X109757002Y-108771043D01*
X109735552Y-108811173D01*
X109722343Y-108854716D01*
X109717883Y-108900000D01*
X109717883Y-109485419D01*
X107509294Y-111694010D01*
X107274961Y-111694010D01*
X107284710Y-111679419D01*
X107302123Y-111637380D01*
X107311000Y-111592751D01*
X107311000Y-111467750D01*
X107253250Y-111410000D01*
X106932500Y-111410000D01*
X106932500Y-111447000D01*
X106637500Y-111447000D01*
X106637500Y-111410000D01*
X106588000Y-111410000D01*
X106588000Y-111090000D01*
X106637500Y-111090000D01*
X106637500Y-110756750D01*
X106932500Y-110756750D01*
X106932500Y-111090000D01*
X107253250Y-111090000D01*
X107311000Y-111032250D01*
X107311000Y-110907249D01*
X107302123Y-110862620D01*
X107284710Y-110820581D01*
X107259430Y-110782746D01*
X107227254Y-110750571D01*
X107189420Y-110725291D01*
X107147381Y-110707877D01*
X107102752Y-110699000D01*
X106990250Y-110699000D01*
X106932500Y-110756750D01*
X106637500Y-110756750D01*
X106579750Y-110699000D01*
X106467248Y-110699000D01*
X106422619Y-110707877D01*
X106380580Y-110725291D01*
X106342746Y-110750571D01*
X106310570Y-110782746D01*
X106285290Y-110820581D01*
X106270225Y-110856951D01*
X106246000Y-110827433D01*
X106246000Y-110132117D01*
X106550000Y-110132117D01*
X106595284Y-110127657D01*
X106638827Y-110114448D01*
X106678957Y-110092998D01*
X106714132Y-110064132D01*
X106742998Y-110028957D01*
X106764448Y-109988827D01*
X106777657Y-109945284D01*
X106782117Y-109900000D01*
X106782117Y-108977409D01*
X107585039Y-108174488D01*
X107654887Y-108160594D01*
X107751523Y-108120566D01*
X107838493Y-108062454D01*
X107912454Y-107988493D01*
X107970566Y-107901523D01*
X108010594Y-107804887D01*
X108031000Y-107702299D01*
X108031000Y-107597701D01*
X108010594Y-107495113D01*
X107970566Y-107398477D01*
X107912454Y-107311507D01*
X107838493Y-107237546D01*
X107751523Y-107179434D01*
X107654887Y-107139406D01*
X107552299Y-107119000D01*
X107447701Y-107119000D01*
X107345113Y-107139406D01*
X107248477Y-107179434D01*
X107161507Y-107237546D01*
X107087546Y-107311507D01*
X107029434Y-107398477D01*
X106989406Y-107495113D01*
X106975512Y-107564961D01*
X105872592Y-108667883D01*
X105050000Y-108667883D01*
X105004716Y-108672343D01*
X104961173Y-108685552D01*
X104921043Y-108707002D01*
X104885868Y-108735868D01*
X104857002Y-108771043D01*
X104835552Y-108811173D01*
X104822343Y-108854716D01*
X104817883Y-108900000D01*
X104817883Y-109900000D01*
X104822343Y-109945284D01*
X104835552Y-109988827D01*
X104857002Y-110028957D01*
X104885868Y-110064132D01*
X104921043Y-110092998D01*
X104961173Y-110114448D01*
X105004716Y-110127657D01*
X105050000Y-110132117D01*
X105384001Y-110132117D01*
X105384000Y-110827433D01*
X105351860Y-110866596D01*
X105316780Y-110932227D01*
X105295177Y-111003440D01*
X105287883Y-111077500D01*
X105287883Y-111422500D01*
X105295177Y-111496560D01*
X105316780Y-111567773D01*
X105351860Y-111633404D01*
X105399070Y-111690930D01*
X105456596Y-111738140D01*
X105522227Y-111773220D01*
X105593440Y-111794823D01*
X105667500Y-111802117D01*
X105673576Y-111802117D01*
X105632546Y-111843147D01*
X105614462Y-111870212D01*
X104184725Y-111870212D01*
X103676869Y-111362357D01*
X103717764Y-111362357D01*
X103820352Y-111341951D01*
X103916988Y-111301923D01*
X104003958Y-111243811D01*
X104077919Y-111169850D01*
X104136031Y-111082880D01*
X104176059Y-110986244D01*
X104196465Y-110883656D01*
X104196465Y-110779058D01*
X104194912Y-110771250D01*
X104200648Y-110766542D01*
X104211006Y-110753921D01*
X104211010Y-110753917D01*
X104242011Y-110716142D01*
X104249677Y-110701801D01*
X104272747Y-110658639D01*
X104284613Y-110619521D01*
X104291674Y-110596246D01*
X104293290Y-110579834D01*
X104296464Y-110547613D01*
X104296464Y-110547605D01*
X104298064Y-110531358D01*
X104296464Y-110515111D01*
X104296464Y-110411478D01*
X104530346Y-110177596D01*
X104542968Y-110167238D01*
X104553326Y-110154617D01*
X104553330Y-110154613D01*
X104568403Y-110136246D01*
X104584332Y-110116837D01*
X104615067Y-110059335D01*
X104620050Y-110042909D01*
X104633994Y-109996942D01*
X104635856Y-109978037D01*
X104638784Y-109948309D01*
X104638784Y-109948301D01*
X104640384Y-109932054D01*
X104638784Y-109915807D01*
X104638784Y-109181543D01*
X104640384Y-109165298D01*
X104638784Y-109149053D01*
X104638784Y-109149044D01*
X104633994Y-109100412D01*
X104615067Y-109038018D01*
X104584332Y-108980516D01*
X104557997Y-108948427D01*
X104553330Y-108942740D01*
X104553326Y-108942736D01*
X104542968Y-108930115D01*
X104530348Y-108919758D01*
X102844494Y-107233905D01*
X102834131Y-107221278D01*
X102783730Y-107179914D01*
X102726228Y-107149179D01*
X102663834Y-107130252D01*
X102615202Y-107125462D01*
X102615194Y-107125462D01*
X102598947Y-107123862D01*
X102591561Y-107124589D01*
X102587137Y-107117969D01*
X102513176Y-107044008D01*
X102426206Y-106985896D01*
X102329570Y-106945868D01*
X102226982Y-106925462D01*
X102122384Y-106925462D01*
X102019796Y-106945868D01*
X101923160Y-106985896D01*
X101836190Y-107044008D01*
X101762229Y-107117969D01*
X101704117Y-107204939D01*
X101664089Y-107301575D01*
X101643683Y-107404163D01*
X101643683Y-107508761D01*
X101645441Y-107517599D01*
X101469031Y-107694010D01*
X100688084Y-107694010D01*
X103213830Y-105700000D01*
X104817883Y-105700000D01*
X104817883Y-106700000D01*
X104822343Y-106745284D01*
X104835552Y-106788827D01*
X104857002Y-106828957D01*
X104885868Y-106864132D01*
X104921043Y-106892998D01*
X104961173Y-106914448D01*
X105004716Y-106927657D01*
X105050000Y-106932117D01*
X106550000Y-106932117D01*
X106595284Y-106927657D01*
X106638827Y-106914448D01*
X106678957Y-106892998D01*
X106714132Y-106864132D01*
X106742998Y-106828957D01*
X106764448Y-106788827D01*
X106777657Y-106745284D01*
X106782117Y-106700000D01*
X106782117Y-106531000D01*
X107932523Y-106531000D01*
X107937530Y-106538493D01*
X108011491Y-106612454D01*
X108098461Y-106670566D01*
X108195097Y-106710594D01*
X108297685Y-106731000D01*
X108402283Y-106731000D01*
X108504871Y-106710594D01*
X108601507Y-106670566D01*
X108688477Y-106612454D01*
X108762438Y-106538493D01*
X108820550Y-106451523D01*
X108827497Y-106434750D01*
X109719000Y-106434750D01*
X109719000Y-106722751D01*
X109727877Y-106767380D01*
X109745290Y-106809419D01*
X109770570Y-106847254D01*
X109802746Y-106879429D01*
X109840580Y-106904709D01*
X109882619Y-106922123D01*
X109927248Y-106931000D01*
X110465250Y-106931000D01*
X110523000Y-106873250D01*
X110523000Y-106377000D01*
X110877000Y-106377000D01*
X110877000Y-106873250D01*
X110934750Y-106931000D01*
X111472752Y-106931000D01*
X111517381Y-106922123D01*
X111559420Y-106904709D01*
X111597254Y-106879429D01*
X111629430Y-106847254D01*
X111654710Y-106809419D01*
X111672123Y-106767380D01*
X111681000Y-106722751D01*
X111681000Y-106434750D01*
X111623250Y-106377000D01*
X110877000Y-106377000D01*
X110523000Y-106377000D01*
X109776750Y-106377000D01*
X109719000Y-106434750D01*
X108827497Y-106434750D01*
X108860578Y-106354887D01*
X108880984Y-106252299D01*
X108880984Y-106147701D01*
X108860578Y-106045113D01*
X108820550Y-105948477D01*
X108762438Y-105861507D01*
X108688477Y-105787546D01*
X108601507Y-105729434D01*
X108504871Y-105689406D01*
X108443754Y-105677249D01*
X109719000Y-105677249D01*
X109719000Y-105965250D01*
X109776750Y-106023000D01*
X110523000Y-106023000D01*
X110523000Y-105526750D01*
X110877000Y-105526750D01*
X110877000Y-106023000D01*
X111623250Y-106023000D01*
X111681000Y-105965250D01*
X111681000Y-105677249D01*
X111672123Y-105632620D01*
X111654710Y-105590581D01*
X111629430Y-105552746D01*
X111597254Y-105520571D01*
X111559420Y-105495291D01*
X111517381Y-105477877D01*
X111472752Y-105469000D01*
X110934750Y-105469000D01*
X110877000Y-105526750D01*
X110523000Y-105526750D01*
X110465250Y-105469000D01*
X109927248Y-105469000D01*
X109882619Y-105477877D01*
X109840580Y-105495291D01*
X109802746Y-105520571D01*
X109770570Y-105552746D01*
X109745290Y-105590581D01*
X109727877Y-105632620D01*
X109719000Y-105677249D01*
X108443754Y-105677249D01*
X108402283Y-105669000D01*
X108297685Y-105669000D01*
X108195097Y-105689406D01*
X108098461Y-105729434D01*
X108011491Y-105787546D01*
X107937530Y-105861507D01*
X107932523Y-105869000D01*
X106782117Y-105869000D01*
X106782117Y-105700000D01*
X106777657Y-105654716D01*
X106764448Y-105611173D01*
X106742998Y-105571043D01*
X106714132Y-105535868D01*
X106678957Y-105507002D01*
X106638827Y-105485552D01*
X106595284Y-105472343D01*
X106550000Y-105467883D01*
X105050000Y-105467883D01*
X105004716Y-105472343D01*
X104961173Y-105485552D01*
X104921043Y-105507002D01*
X104885868Y-105535868D01*
X104857002Y-105571043D01*
X104835552Y-105611173D01*
X104822343Y-105654716D01*
X104817883Y-105700000D01*
X103213830Y-105700000D01*
X104156231Y-104956000D01*
X112368334Y-104956000D01*
X112357168Y-110084976D01*
G36*
X97562159Y-108373497D02*
X97522131Y-108470133D01*
X97501725Y-108572721D01*
X97501725Y-108677319D01*
X97522131Y-108779907D01*
X97562159Y-108876543D01*
X97620271Y-108963513D01*
X97694232Y-109037474D01*
X97781202Y-109095586D01*
X97877838Y-109135614D01*
X97980426Y-109156020D01*
X98085024Y-109156020D01*
X98183290Y-109136474D01*
X98197625Y-109208540D01*
X98237653Y-109305176D01*
X98295765Y-109392146D01*
X98369726Y-109466107D01*
X98400219Y-109486482D01*
X98400219Y-109493044D01*
X98400220Y-109493054D01*
X98400219Y-110943745D01*
X98398730Y-110958865D01*
X98400219Y-110973985D01*
X98400219Y-110973992D01*
X98403446Y-111006750D01*
X98404676Y-111019244D01*
X98418705Y-111065491D01*
X98422288Y-111077301D01*
X98450887Y-111130807D01*
X98489377Y-111177707D01*
X98501134Y-111187356D01*
X101124882Y-113811106D01*
X101134522Y-113822852D01*
X101146268Y-113832492D01*
X101146272Y-113832496D01*
X101159069Y-113842998D01*
X101181421Y-113861342D01*
X101223941Y-113884069D01*
X101234927Y-113889941D01*
X101292984Y-113907553D01*
X101298239Y-113908070D01*
X101338236Y-113912010D01*
X101338244Y-113912010D01*
X101353364Y-113913499D01*
X101368484Y-113912010D01*
X101907883Y-113912010D01*
X101907883Y-114730907D01*
X100142408Y-112965434D01*
X100132759Y-112953677D01*
X100085860Y-112915187D01*
X100032354Y-112886588D01*
X99974296Y-112868976D01*
X99929045Y-112864519D01*
X99929037Y-112864519D01*
X99913917Y-112863030D01*
X99898797Y-112864519D01*
X94742856Y-112864519D01*
X94610093Y-112731757D01*
X94610085Y-112731747D01*
X94605445Y-112727107D01*
X94612600Y-112691139D01*
X94612600Y-112586541D01*
X94592194Y-112483953D01*
X94552166Y-112387317D01*
X94494054Y-112300347D01*
X94420093Y-112226386D01*
X94333123Y-112168274D01*
X94236487Y-112128246D01*
X94133899Y-112107840D01*
X94029301Y-112107840D01*
X93926713Y-112128246D01*
X93830077Y-112168274D01*
X93743107Y-112226386D01*
X93669146Y-112300347D01*
X93611034Y-112387317D01*
X93571006Y-112483953D01*
X93550600Y-112586541D01*
X93550600Y-112691139D01*
X93571006Y-112793727D01*
X93611034Y-112890363D01*
X93669146Y-112977333D01*
X93743107Y-113051294D01*
X93830077Y-113109406D01*
X93918346Y-113145968D01*
X93850397Y-113174114D01*
X93763427Y-113232226D01*
X93689466Y-113306187D01*
X93631354Y-113393157D01*
X93591326Y-113489793D01*
X93570920Y-113592381D01*
X93570920Y-113696979D01*
X93591326Y-113799567D01*
X93631354Y-113896203D01*
X93689466Y-113983173D01*
X93763427Y-114057134D01*
X93850397Y-114115246D01*
X93947033Y-114155274D01*
X94049621Y-114175680D01*
X94154219Y-114175680D01*
X94256807Y-114155274D01*
X94353443Y-114115246D01*
X94440413Y-114057134D01*
X94514374Y-113983173D01*
X94534749Y-113952680D01*
X95417104Y-113952680D01*
X95715988Y-114251564D01*
X95699541Y-114244752D01*
X95596953Y-114224346D01*
X95492355Y-114224346D01*
X95389767Y-114244752D01*
X95293131Y-114284780D01*
X95206161Y-114342892D01*
X95132200Y-114416853D01*
X95074088Y-114503823D01*
X95034060Y-114600459D01*
X95013654Y-114703047D01*
X95013654Y-114807645D01*
X95034060Y-114910233D01*
X95063655Y-114981681D01*
X95063654Y-115871027D01*
X95061327Y-115894654D01*
X95070614Y-115988946D01*
X95078050Y-116013458D01*
X95098118Y-116079614D01*
X95142782Y-116163176D01*
X95202890Y-116236418D01*
X95221248Y-116251484D01*
X95677444Y-116707680D01*
X94116731Y-118268393D01*
X94100080Y-118266753D01*
X94076454Y-118269080D01*
X90437953Y-118269080D01*
X89869834Y-117700961D01*
X89632423Y-117938372D01*
X89632423Y-118020043D01*
X89911910Y-118299530D01*
X89898679Y-118303544D01*
X89815118Y-118348208D01*
X89744596Y-118406084D01*
X89723920Y-118408120D01*
X89708875Y-118412684D01*
X89633252Y-118435624D01*
X89549691Y-118480288D01*
X89476449Y-118540396D01*
X89461383Y-118558754D01*
X89355132Y-118665005D01*
X89248881Y-118558754D01*
X89233815Y-118540396D01*
X89160573Y-118480288D01*
X89077012Y-118435624D01*
X89063510Y-118431528D01*
X88062975Y-117430994D01*
X88047909Y-117412636D01*
X87974667Y-117352528D01*
X87891106Y-117307864D01*
X87800437Y-117280360D01*
X87729771Y-117273400D01*
X87706145Y-117271073D01*
X87682519Y-117273400D01*
X85026136Y-117273400D01*
X85232621Y-117066915D01*
X88797730Y-117066915D01*
X88797731Y-117112418D01*
X88806608Y-117157046D01*
X88824020Y-117199086D01*
X88849301Y-117236921D01*
X89300436Y-117688056D01*
X89382107Y-117688056D01*
X89599012Y-117471151D01*
X90099644Y-117471151D01*
X90698033Y-118069540D01*
X90779704Y-118069540D01*
X90869861Y-117979383D01*
X90895141Y-117941549D01*
X90912554Y-117899510D01*
X90921432Y-117854881D01*
X90921431Y-117809378D01*
X90912554Y-117764750D01*
X90895142Y-117722710D01*
X90869861Y-117684875D01*
X90418726Y-117233740D01*
X90337055Y-117233740D01*
X90099644Y-117471151D01*
X89599012Y-117471151D01*
X89619518Y-117450645D01*
X89021129Y-116852256D01*
X88939458Y-116852256D01*
X88849301Y-116942413D01*
X88824021Y-116980247D01*
X88806608Y-117022286D01*
X88797730Y-117066915D01*
X85232621Y-117066915D01*
X85700178Y-116599360D01*
X88187771Y-116599360D01*
X88208146Y-116629853D01*
X88282107Y-116703814D01*
X88369077Y-116761926D01*
X88465713Y-116801954D01*
X88568301Y-116822360D01*
X88672899Y-116822360D01*
X88775487Y-116801954D01*
X88872123Y-116761926D01*
X88959093Y-116703814D01*
X89033054Y-116629853D01*
X89091166Y-116542883D01*
X89092039Y-116540775D01*
X89250939Y-116540775D01*
X89250939Y-116622446D01*
X89849328Y-117220835D01*
X90086739Y-116983424D01*
X90086739Y-116901753D01*
X89635604Y-116450618D01*
X89597769Y-116425337D01*
X89555729Y-116407925D01*
X89511101Y-116399048D01*
X89465598Y-116399047D01*
X89420969Y-116407925D01*
X89378930Y-116425338D01*
X89341096Y-116450618D01*
X89250939Y-116540775D01*
X89092039Y-116540775D01*
X89131194Y-116446247D01*
X89151600Y-116343659D01*
X89151600Y-116239061D01*
X89131194Y-116136473D01*
X89091166Y-116039837D01*
X89033054Y-115952867D01*
X88959093Y-115878906D01*
X88872123Y-115820794D01*
X88775487Y-115780766D01*
X88672899Y-115760360D01*
X88568301Y-115760360D01*
X88465713Y-115780766D01*
X88369077Y-115820794D01*
X88282107Y-115878906D01*
X88208146Y-115952867D01*
X88187771Y-115983360D01*
X85587720Y-115983360D01*
X85572600Y-115981871D01*
X85557480Y-115983360D01*
X85557472Y-115983360D01*
X85517475Y-115987300D01*
X85512220Y-115987817D01*
X85494525Y-115993185D01*
X85454163Y-116005429D01*
X85400657Y-116034028D01*
X85380881Y-116050258D01*
X85365508Y-116062874D01*
X85365504Y-116062878D01*
X85353758Y-116072518D01*
X85344118Y-116084264D01*
X85215353Y-116213030D01*
X85278312Y-116094620D01*
X85370033Y-115790825D01*
X85401000Y-115475000D01*
X85400366Y-115429599D01*
X85360593Y-115114762D01*
X85260425Y-114813646D01*
X85103678Y-114537721D01*
X84896321Y-114297497D01*
X84646254Y-114102123D01*
X84363002Y-113959041D01*
X84057352Y-113873703D01*
X83740948Y-113849357D01*
X83425840Y-113886931D01*
X83124032Y-113984994D01*
X82847020Y-114139811D01*
X82605353Y-114345485D01*
X82408239Y-114594182D01*
X82263183Y-114876429D01*
X82175713Y-115181476D01*
X82149158Y-115497703D01*
X82184532Y-115813064D01*
X82280486Y-116115550D01*
X82433365Y-116393636D01*
X82637347Y-116636733D01*
X82861557Y-116817002D01*
X82104058Y-116817002D01*
X82067574Y-116780518D01*
X82067565Y-116780507D01*
X82062925Y-116775867D01*
X82070080Y-116739899D01*
X82070080Y-116635301D01*
X82049674Y-116532713D01*
X82009646Y-116436077D01*
X81951534Y-116349107D01*
X81877573Y-116275146D01*
X81790603Y-116217034D01*
X81693967Y-116177006D01*
X81591379Y-116156600D01*
X81486781Y-116156600D01*
X81384193Y-116177006D01*
X81287557Y-116217034D01*
X81200587Y-116275146D01*
X81126626Y-116349107D01*
X81068514Y-116436077D01*
X81028486Y-116532713D01*
X81008080Y-116635301D01*
X81008080Y-116739899D01*
X81028486Y-116842487D01*
X81068514Y-116939123D01*
X81126626Y-117026093D01*
X81200587Y-117100054D01*
X81287557Y-117158166D01*
X81384193Y-117198194D01*
X81486781Y-117218600D01*
X81591379Y-117218600D01*
X81627347Y-117211445D01*
X81631987Y-117216085D01*
X81631998Y-117216094D01*
X81747991Y-117332087D01*
X81757640Y-117343844D01*
X81804539Y-117382334D01*
X81851306Y-117407331D01*
X81858045Y-117410933D01*
X81916102Y-117428545D01*
X81921857Y-117429112D01*
X81961354Y-117433002D01*
X81961361Y-117433002D01*
X81976481Y-117434491D01*
X81991601Y-117433002D01*
X82862723Y-117433002D01*
X82816034Y-117502877D01*
X82776006Y-117599513D01*
X82755600Y-117702101D01*
X82755600Y-117806699D01*
X82776006Y-117909287D01*
X82816034Y-118005923D01*
X82851474Y-118058962D01*
X81894684Y-118058962D01*
X80331000Y-116495279D01*
X80331000Y-113882117D01*
X80750000Y-113882117D01*
X80795284Y-113877657D01*
X80838827Y-113864448D01*
X80878957Y-113842998D01*
X80914132Y-113814132D01*
X80942998Y-113778957D01*
X80964448Y-113738827D01*
X80977657Y-113695284D01*
X80982117Y-113650000D01*
X80982117Y-111950000D01*
X80977981Y-111908001D01*
X81472425Y-111908001D01*
X83141878Y-113577456D01*
X83151518Y-113589202D01*
X83163264Y-113598842D01*
X83163268Y-113598846D01*
X83169561Y-113604010D01*
X83198417Y-113627692D01*
X83251923Y-113656291D01*
X83309981Y-113673903D01*
X83355232Y-113678360D01*
X83355240Y-113678360D01*
X83370360Y-113679849D01*
X83385480Y-113678360D01*
X84808718Y-113678360D01*
X84835753Y-113692810D01*
X84893811Y-113710422D01*
X84939062Y-113714879D01*
X84939070Y-113714879D01*
X84954190Y-113716368D01*
X84969310Y-113714879D01*
X85168556Y-113714879D01*
X85183676Y-113716368D01*
X85198796Y-113714879D01*
X85198804Y-113714879D01*
X85244055Y-113710422D01*
X85302113Y-113692810D01*
X85329148Y-113678360D01*
X88075846Y-113678360D01*
X88090966Y-113679849D01*
X88106086Y-113678360D01*
X88106094Y-113678360D01*
X88151345Y-113673903D01*
X88209403Y-113656291D01*
X88262909Y-113627692D01*
X88309808Y-113589202D01*
X88319457Y-113577445D01*
X89820615Y-112076289D01*
X91184775Y-112076289D01*
X91199895Y-112077778D01*
X91215015Y-112076289D01*
X91215023Y-112076289D01*
X91260274Y-112071832D01*
X91286660Y-112063828D01*
X91080510Y-112269978D01*
X91068759Y-112279622D01*
X91030269Y-112326521D01*
X91017637Y-112350154D01*
X91001669Y-112380028D01*
X90984057Y-112438085D01*
X90978111Y-112498464D01*
X90979601Y-112513594D01*
X90979600Y-114810535D01*
X90660651Y-115129484D01*
X90631785Y-115164659D01*
X90610335Y-115204789D01*
X90597126Y-115248332D01*
X90592666Y-115293616D01*
X90597126Y-115338900D01*
X90610335Y-115382443D01*
X90631785Y-115422573D01*
X90660651Y-115457748D01*
X91755223Y-116552320D01*
X91534937Y-116552320D01*
X90550508Y-115567891D01*
X90515333Y-115539025D01*
X90475203Y-115517575D01*
X90431660Y-115504366D01*
X90386376Y-115499906D01*
X90341092Y-115504366D01*
X90297549Y-115517575D01*
X90257419Y-115539025D01*
X90222244Y-115567891D01*
X89762625Y-116027510D01*
X89733759Y-116062685D01*
X89712309Y-116102815D01*
X89699100Y-116146358D01*
X89694640Y-116191642D01*
X89699100Y-116236926D01*
X89712309Y-116280469D01*
X89733759Y-116320599D01*
X89762625Y-116355774D01*
X90964706Y-117557855D01*
X90999881Y-117586721D01*
X91040011Y-117608171D01*
X91083554Y-117621380D01*
X91128838Y-117625840D01*
X91174122Y-117621380D01*
X91217665Y-117608171D01*
X91257795Y-117586721D01*
X91292970Y-117557855D01*
X91682505Y-117168320D01*
X92181800Y-117168320D01*
X92196920Y-117169809D01*
X92212040Y-117168320D01*
X92212048Y-117168320D01*
X92257299Y-117163863D01*
X92315357Y-117146251D01*
X92368863Y-117117652D01*
X92415762Y-117079162D01*
X92425411Y-117067405D01*
X93868614Y-115624204D01*
X93880360Y-115614564D01*
X93890000Y-115602818D01*
X93890003Y-115602815D01*
X93912764Y-115575081D01*
X93918850Y-115567665D01*
X93947449Y-115514159D01*
X93952574Y-115497265D01*
X93965061Y-115456102D01*
X93966304Y-115443480D01*
X93969518Y-115410850D01*
X93969518Y-115410843D01*
X93971007Y-115395723D01*
X93969518Y-115380603D01*
X93969518Y-115038038D01*
X93971007Y-115022918D01*
X93969518Y-115007798D01*
X93969518Y-115007790D01*
X93965061Y-114962539D01*
X93964006Y-114959059D01*
X93947449Y-114904481D01*
X93946948Y-114903543D01*
X93918850Y-114850975D01*
X93895892Y-114823001D01*
X93890004Y-114815826D01*
X93890000Y-114815822D01*
X93880360Y-114804076D01*
X93868615Y-114794437D01*
X92865600Y-113791424D01*
X92865600Y-112466696D01*
X95663425Y-109668873D01*
X95675171Y-109659233D01*
X95684811Y-109647487D01*
X95684815Y-109647483D01*
X95703454Y-109624771D01*
X95713661Y-109612334D01*
X95742260Y-109558828D01*
X95748482Y-109538318D01*
X95750578Y-109531409D01*
X95794822Y-109501846D01*
X95868783Y-109427885D01*
X95926895Y-109340915D01*
X95966923Y-109244279D01*
X95987329Y-109141691D01*
X95987329Y-109037093D01*
X95966923Y-108934505D01*
X95926895Y-108837869D01*
X95868783Y-108750899D01*
X95794822Y-108676938D01*
X95707852Y-108618826D01*
X95611216Y-108578798D01*
X95508628Y-108558392D01*
X95404030Y-108558392D01*
X95301442Y-108578798D01*
X95204806Y-108618826D01*
X95117836Y-108676938D01*
X95043875Y-108750899D01*
X94985763Y-108837869D01*
X94945735Y-108934505D01*
X94925329Y-109037093D01*
X94925329Y-109054842D01*
X94854287Y-109007373D01*
X94813159Y-108990337D01*
X94828111Y-108967960D01*
X94868139Y-108871324D01*
X94888545Y-108768736D01*
X94888545Y-108664138D01*
X94868139Y-108561550D01*
X94828111Y-108464914D01*
X94776275Y-108387337D01*
X95976741Y-108387337D01*
X96176155Y-108586752D01*
X96169000Y-108622721D01*
X96169000Y-108727319D01*
X96189406Y-108829907D01*
X96229434Y-108926543D01*
X96287546Y-109013513D01*
X96361507Y-109087474D01*
X96448477Y-109145586D01*
X96545113Y-109185614D01*
X96647701Y-109206020D01*
X96752299Y-109206020D01*
X96854887Y-109185614D01*
X96951523Y-109145586D01*
X97038493Y-109087474D01*
X97112454Y-109013513D01*
X97170566Y-108926543D01*
X97210594Y-108829907D01*
X97231000Y-108727319D01*
X97231000Y-108622721D01*
X97229242Y-108613883D01*
X97487115Y-108356010D01*
X97573844Y-108356010D01*
X97562159Y-108373497D01*
X97562159Y-108373497D01*
G37*
X97562159Y-108373497D02*
X97522131Y-108470133D01*
X97501725Y-108572721D01*
X97501725Y-108677319D01*
X97522131Y-108779907D01*
X97562159Y-108876543D01*
X97620271Y-108963513D01*
X97694232Y-109037474D01*
X97781202Y-109095586D01*
X97877838Y-109135614D01*
X97980426Y-109156020D01*
X98085024Y-109156020D01*
X98183290Y-109136474D01*
X98197625Y-109208540D01*
X98237653Y-109305176D01*
X98295765Y-109392146D01*
X98369726Y-109466107D01*
X98400219Y-109486482D01*
X98400219Y-109493044D01*
X98400220Y-109493054D01*
X98400219Y-110943745D01*
X98398730Y-110958865D01*
X98400219Y-110973985D01*
X98400219Y-110973992D01*
X98403446Y-111006750D01*
X98404676Y-111019244D01*
X98418705Y-111065491D01*
X98422288Y-111077301D01*
X98450887Y-111130807D01*
X98489377Y-111177707D01*
X98501134Y-111187356D01*
X101124882Y-113811106D01*
X101134522Y-113822852D01*
X101146268Y-113832492D01*
X101146272Y-113832496D01*
X101159069Y-113842998D01*
X101181421Y-113861342D01*
X101223941Y-113884069D01*
X101234927Y-113889941D01*
X101292984Y-113907553D01*
X101298239Y-113908070D01*
X101338236Y-113912010D01*
X101338244Y-113912010D01*
X101353364Y-113913499D01*
X101368484Y-113912010D01*
X101907883Y-113912010D01*
X101907883Y-114730907D01*
X100142408Y-112965434D01*
X100132759Y-112953677D01*
X100085860Y-112915187D01*
X100032354Y-112886588D01*
X99974296Y-112868976D01*
X99929045Y-112864519D01*
X99929037Y-112864519D01*
X99913917Y-112863030D01*
X99898797Y-112864519D01*
X94742856Y-112864519D01*
X94610093Y-112731757D01*
X94610085Y-112731747D01*
X94605445Y-112727107D01*
X94612600Y-112691139D01*
X94612600Y-112586541D01*
X94592194Y-112483953D01*
X94552166Y-112387317D01*
X94494054Y-112300347D01*
X94420093Y-112226386D01*
X94333123Y-112168274D01*
X94236487Y-112128246D01*
X94133899Y-112107840D01*
X94029301Y-112107840D01*
X93926713Y-112128246D01*
X93830077Y-112168274D01*
X93743107Y-112226386D01*
X93669146Y-112300347D01*
X93611034Y-112387317D01*
X93571006Y-112483953D01*
X93550600Y-112586541D01*
X93550600Y-112691139D01*
X93571006Y-112793727D01*
X93611034Y-112890363D01*
X93669146Y-112977333D01*
X93743107Y-113051294D01*
X93830077Y-113109406D01*
X93918346Y-113145968D01*
X93850397Y-113174114D01*
X93763427Y-113232226D01*
X93689466Y-113306187D01*
X93631354Y-113393157D01*
X93591326Y-113489793D01*
X93570920Y-113592381D01*
X93570920Y-113696979D01*
X93591326Y-113799567D01*
X93631354Y-113896203D01*
X93689466Y-113983173D01*
X93763427Y-114057134D01*
X93850397Y-114115246D01*
X93947033Y-114155274D01*
X94049621Y-114175680D01*
X94154219Y-114175680D01*
X94256807Y-114155274D01*
X94353443Y-114115246D01*
X94440413Y-114057134D01*
X94514374Y-113983173D01*
X94534749Y-113952680D01*
X95417104Y-113952680D01*
X95715988Y-114251564D01*
X95699541Y-114244752D01*
X95596953Y-114224346D01*
X95492355Y-114224346D01*
X95389767Y-114244752D01*
X95293131Y-114284780D01*
X95206161Y-114342892D01*
X95132200Y-114416853D01*
X95074088Y-114503823D01*
X95034060Y-114600459D01*
X95013654Y-114703047D01*
X95013654Y-114807645D01*
X95034060Y-114910233D01*
X95063655Y-114981681D01*
X95063654Y-115871027D01*
X95061327Y-115894654D01*
X95070614Y-115988946D01*
X95078050Y-116013458D01*
X95098118Y-116079614D01*
X95142782Y-116163176D01*
X95202890Y-116236418D01*
X95221248Y-116251484D01*
X95677444Y-116707680D01*
X94116731Y-118268393D01*
X94100080Y-118266753D01*
X94076454Y-118269080D01*
X90437953Y-118269080D01*
X89869834Y-117700961D01*
X89632423Y-117938372D01*
X89632423Y-118020043D01*
X89911910Y-118299530D01*
X89898679Y-118303544D01*
X89815118Y-118348208D01*
X89744596Y-118406084D01*
X89723920Y-118408120D01*
X89708875Y-118412684D01*
X89633252Y-118435624D01*
X89549691Y-118480288D01*
X89476449Y-118540396D01*
X89461383Y-118558754D01*
X89355132Y-118665005D01*
X89248881Y-118558754D01*
X89233815Y-118540396D01*
X89160573Y-118480288D01*
X89077012Y-118435624D01*
X89063510Y-118431528D01*
X88062975Y-117430994D01*
X88047909Y-117412636D01*
X87974667Y-117352528D01*
X87891106Y-117307864D01*
X87800437Y-117280360D01*
X87729771Y-117273400D01*
X87706145Y-117271073D01*
X87682519Y-117273400D01*
X85026136Y-117273400D01*
X85232621Y-117066915D01*
X88797730Y-117066915D01*
X88797731Y-117112418D01*
X88806608Y-117157046D01*
X88824020Y-117199086D01*
X88849301Y-117236921D01*
X89300436Y-117688056D01*
X89382107Y-117688056D01*
X89599012Y-117471151D01*
X90099644Y-117471151D01*
X90698033Y-118069540D01*
X90779704Y-118069540D01*
X90869861Y-117979383D01*
X90895141Y-117941549D01*
X90912554Y-117899510D01*
X90921432Y-117854881D01*
X90921431Y-117809378D01*
X90912554Y-117764750D01*
X90895142Y-117722710D01*
X90869861Y-117684875D01*
X90418726Y-117233740D01*
X90337055Y-117233740D01*
X90099644Y-117471151D01*
X89599012Y-117471151D01*
X89619518Y-117450645D01*
X89021129Y-116852256D01*
X88939458Y-116852256D01*
X88849301Y-116942413D01*
X88824021Y-116980247D01*
X88806608Y-117022286D01*
X88797730Y-117066915D01*
X85232621Y-117066915D01*
X85700178Y-116599360D01*
X88187771Y-116599360D01*
X88208146Y-116629853D01*
X88282107Y-116703814D01*
X88369077Y-116761926D01*
X88465713Y-116801954D01*
X88568301Y-116822360D01*
X88672899Y-116822360D01*
X88775487Y-116801954D01*
X88872123Y-116761926D01*
X88959093Y-116703814D01*
X89033054Y-116629853D01*
X89091166Y-116542883D01*
X89092039Y-116540775D01*
X89250939Y-116540775D01*
X89250939Y-116622446D01*
X89849328Y-117220835D01*
X90086739Y-116983424D01*
X90086739Y-116901753D01*
X89635604Y-116450618D01*
X89597769Y-116425337D01*
X89555729Y-116407925D01*
X89511101Y-116399048D01*
X89465598Y-116399047D01*
X89420969Y-116407925D01*
X89378930Y-116425338D01*
X89341096Y-116450618D01*
X89250939Y-116540775D01*
X89092039Y-116540775D01*
X89131194Y-116446247D01*
X89151600Y-116343659D01*
X89151600Y-116239061D01*
X89131194Y-116136473D01*
X89091166Y-116039837D01*
X89033054Y-115952867D01*
X88959093Y-115878906D01*
X88872123Y-115820794D01*
X88775487Y-115780766D01*
X88672899Y-115760360D01*
X88568301Y-115760360D01*
X88465713Y-115780766D01*
X88369077Y-115820794D01*
X88282107Y-115878906D01*
X88208146Y-115952867D01*
X88187771Y-115983360D01*
X85587720Y-115983360D01*
X85572600Y-115981871D01*
X85557480Y-115983360D01*
X85557472Y-115983360D01*
X85517475Y-115987300D01*
X85512220Y-115987817D01*
X85494525Y-115993185D01*
X85454163Y-116005429D01*
X85400657Y-116034028D01*
X85380881Y-116050258D01*
X85365508Y-116062874D01*
X85365504Y-116062878D01*
X85353758Y-116072518D01*
X85344118Y-116084264D01*
X85215353Y-116213030D01*
X85278312Y-116094620D01*
X85370033Y-115790825D01*
X85401000Y-115475000D01*
X85400366Y-115429599D01*
X85360593Y-115114762D01*
X85260425Y-114813646D01*
X85103678Y-114537721D01*
X84896321Y-114297497D01*
X84646254Y-114102123D01*
X84363002Y-113959041D01*
X84057352Y-113873703D01*
X83740948Y-113849357D01*
X83425840Y-113886931D01*
X83124032Y-113984994D01*
X82847020Y-114139811D01*
X82605353Y-114345485D01*
X82408239Y-114594182D01*
X82263183Y-114876429D01*
X82175713Y-115181476D01*
X82149158Y-115497703D01*
X82184532Y-115813064D01*
X82280486Y-116115550D01*
X82433365Y-116393636D01*
X82637347Y-116636733D01*
X82861557Y-116817002D01*
X82104058Y-116817002D01*
X82067574Y-116780518D01*
X82067565Y-116780507D01*
X82062925Y-116775867D01*
X82070080Y-116739899D01*
X82070080Y-116635301D01*
X82049674Y-116532713D01*
X82009646Y-116436077D01*
X81951534Y-116349107D01*
X81877573Y-116275146D01*
X81790603Y-116217034D01*
X81693967Y-116177006D01*
X81591379Y-116156600D01*
X81486781Y-116156600D01*
X81384193Y-116177006D01*
X81287557Y-116217034D01*
X81200587Y-116275146D01*
X81126626Y-116349107D01*
X81068514Y-116436077D01*
X81028486Y-116532713D01*
X81008080Y-116635301D01*
X81008080Y-116739899D01*
X81028486Y-116842487D01*
X81068514Y-116939123D01*
X81126626Y-117026093D01*
X81200587Y-117100054D01*
X81287557Y-117158166D01*
X81384193Y-117198194D01*
X81486781Y-117218600D01*
X81591379Y-117218600D01*
X81627347Y-117211445D01*
X81631987Y-117216085D01*
X81631998Y-117216094D01*
X81747991Y-117332087D01*
X81757640Y-117343844D01*
X81804539Y-117382334D01*
X81851306Y-117407331D01*
X81858045Y-117410933D01*
X81916102Y-117428545D01*
X81921857Y-117429112D01*
X81961354Y-117433002D01*
X81961361Y-117433002D01*
X81976481Y-117434491D01*
X81991601Y-117433002D01*
X82862723Y-117433002D01*
X82816034Y-117502877D01*
X82776006Y-117599513D01*
X82755600Y-117702101D01*
X82755600Y-117806699D01*
X82776006Y-117909287D01*
X82816034Y-118005923D01*
X82851474Y-118058962D01*
X81894684Y-118058962D01*
X80331000Y-116495279D01*
X80331000Y-113882117D01*
X80750000Y-113882117D01*
X80795284Y-113877657D01*
X80838827Y-113864448D01*
X80878957Y-113842998D01*
X80914132Y-113814132D01*
X80942998Y-113778957D01*
X80964448Y-113738827D01*
X80977657Y-113695284D01*
X80982117Y-113650000D01*
X80982117Y-111950000D01*
X80977981Y-111908001D01*
X81472425Y-111908001D01*
X83141878Y-113577456D01*
X83151518Y-113589202D01*
X83163264Y-113598842D01*
X83163268Y-113598846D01*
X83169561Y-113604010D01*
X83198417Y-113627692D01*
X83251923Y-113656291D01*
X83309981Y-113673903D01*
X83355232Y-113678360D01*
X83355240Y-113678360D01*
X83370360Y-113679849D01*
X83385480Y-113678360D01*
X84808718Y-113678360D01*
X84835753Y-113692810D01*
X84893811Y-113710422D01*
X84939062Y-113714879D01*
X84939070Y-113714879D01*
X84954190Y-113716368D01*
X84969310Y-113714879D01*
X85168556Y-113714879D01*
X85183676Y-113716368D01*
X85198796Y-113714879D01*
X85198804Y-113714879D01*
X85244055Y-113710422D01*
X85302113Y-113692810D01*
X85329148Y-113678360D01*
X88075846Y-113678360D01*
X88090966Y-113679849D01*
X88106086Y-113678360D01*
X88106094Y-113678360D01*
X88151345Y-113673903D01*
X88209403Y-113656291D01*
X88262909Y-113627692D01*
X88309808Y-113589202D01*
X88319457Y-113577445D01*
X89820615Y-112076289D01*
X91184775Y-112076289D01*
X91199895Y-112077778D01*
X91215015Y-112076289D01*
X91215023Y-112076289D01*
X91260274Y-112071832D01*
X91286660Y-112063828D01*
X91080510Y-112269978D01*
X91068759Y-112279622D01*
X91030269Y-112326521D01*
X91017637Y-112350154D01*
X91001669Y-112380028D01*
X90984057Y-112438085D01*
X90978111Y-112498464D01*
X90979601Y-112513594D01*
X90979600Y-114810535D01*
X90660651Y-115129484D01*
X90631785Y-115164659D01*
X90610335Y-115204789D01*
X90597126Y-115248332D01*
X90592666Y-115293616D01*
X90597126Y-115338900D01*
X90610335Y-115382443D01*
X90631785Y-115422573D01*
X90660651Y-115457748D01*
X91755223Y-116552320D01*
X91534937Y-116552320D01*
X90550508Y-115567891D01*
X90515333Y-115539025D01*
X90475203Y-115517575D01*
X90431660Y-115504366D01*
X90386376Y-115499906D01*
X90341092Y-115504366D01*
X90297549Y-115517575D01*
X90257419Y-115539025D01*
X90222244Y-115567891D01*
X89762625Y-116027510D01*
X89733759Y-116062685D01*
X89712309Y-116102815D01*
X89699100Y-116146358D01*
X89694640Y-116191642D01*
X89699100Y-116236926D01*
X89712309Y-116280469D01*
X89733759Y-116320599D01*
X89762625Y-116355774D01*
X90964706Y-117557855D01*
X90999881Y-117586721D01*
X91040011Y-117608171D01*
X91083554Y-117621380D01*
X91128838Y-117625840D01*
X91174122Y-117621380D01*
X91217665Y-117608171D01*
X91257795Y-117586721D01*
X91292970Y-117557855D01*
X91682505Y-117168320D01*
X92181800Y-117168320D01*
X92196920Y-117169809D01*
X92212040Y-117168320D01*
X92212048Y-117168320D01*
X92257299Y-117163863D01*
X92315357Y-117146251D01*
X92368863Y-117117652D01*
X92415762Y-117079162D01*
X92425411Y-117067405D01*
X93868614Y-115624204D01*
X93880360Y-115614564D01*
X93890000Y-115602818D01*
X93890003Y-115602815D01*
X93912764Y-115575081D01*
X93918850Y-115567665D01*
X93947449Y-115514159D01*
X93952574Y-115497265D01*
X93965061Y-115456102D01*
X93966304Y-115443480D01*
X93969518Y-115410850D01*
X93969518Y-115410843D01*
X93971007Y-115395723D01*
X93969518Y-115380603D01*
X93969518Y-115038038D01*
X93971007Y-115022918D01*
X93969518Y-115007798D01*
X93969518Y-115007790D01*
X93965061Y-114962539D01*
X93964006Y-114959059D01*
X93947449Y-114904481D01*
X93946948Y-114903543D01*
X93918850Y-114850975D01*
X93895892Y-114823001D01*
X93890004Y-114815826D01*
X93890000Y-114815822D01*
X93880360Y-114804076D01*
X93868615Y-114794437D01*
X92865600Y-113791424D01*
X92865600Y-112466696D01*
X95663425Y-109668873D01*
X95675171Y-109659233D01*
X95684811Y-109647487D01*
X95684815Y-109647483D01*
X95703454Y-109624771D01*
X95713661Y-109612334D01*
X95742260Y-109558828D01*
X95748482Y-109538318D01*
X95750578Y-109531409D01*
X95794822Y-109501846D01*
X95868783Y-109427885D01*
X95926895Y-109340915D01*
X95966923Y-109244279D01*
X95987329Y-109141691D01*
X95987329Y-109037093D01*
X95966923Y-108934505D01*
X95926895Y-108837869D01*
X95868783Y-108750899D01*
X95794822Y-108676938D01*
X95707852Y-108618826D01*
X95611216Y-108578798D01*
X95508628Y-108558392D01*
X95404030Y-108558392D01*
X95301442Y-108578798D01*
X95204806Y-108618826D01*
X95117836Y-108676938D01*
X95043875Y-108750899D01*
X94985763Y-108837869D01*
X94945735Y-108934505D01*
X94925329Y-109037093D01*
X94925329Y-109054842D01*
X94854287Y-109007373D01*
X94813159Y-108990337D01*
X94828111Y-108967960D01*
X94868139Y-108871324D01*
X94888545Y-108768736D01*
X94888545Y-108664138D01*
X94868139Y-108561550D01*
X94828111Y-108464914D01*
X94776275Y-108387337D01*
X95976741Y-108387337D01*
X96176155Y-108586752D01*
X96169000Y-108622721D01*
X96169000Y-108727319D01*
X96189406Y-108829907D01*
X96229434Y-108926543D01*
X96287546Y-109013513D01*
X96361507Y-109087474D01*
X96448477Y-109145586D01*
X96545113Y-109185614D01*
X96647701Y-109206020D01*
X96752299Y-109206020D01*
X96854887Y-109185614D01*
X96951523Y-109145586D01*
X97038493Y-109087474D01*
X97112454Y-109013513D01*
X97170566Y-108926543D01*
X97210594Y-108829907D01*
X97231000Y-108727319D01*
X97231000Y-108622721D01*
X97229242Y-108613883D01*
X97487115Y-108356010D01*
X97573844Y-108356010D01*
X97562159Y-108373497D01*
G36*
X100022822Y-113717000D02*
X97915120Y-113717000D01*
X97900000Y-113715511D01*
X97884880Y-113717000D01*
X97884872Y-113717000D01*
X97839621Y-113721457D01*
X97781563Y-113739069D01*
X97728057Y-113767668D01*
X97714302Y-113778957D01*
X97692908Y-113796514D01*
X97692904Y-113796518D01*
X97681158Y-113806158D01*
X97671518Y-113817904D01*
X96971502Y-114517921D01*
X96959746Y-114527570D01*
X96921256Y-114574470D01*
X96903820Y-114607092D01*
X96892657Y-114627976D01*
X96884396Y-114655210D01*
X96875045Y-114686034D01*
X96870588Y-114731285D01*
X96870588Y-114731292D01*
X96869099Y-114746412D01*
X96870588Y-114761532D01*
X96870588Y-115089790D01*
X96840095Y-115110165D01*
X96808000Y-115142260D01*
X96808000Y-114615120D01*
X96809489Y-114600000D01*
X96808000Y-114584880D01*
X96808000Y-114584872D01*
X96803543Y-114539621D01*
X96785931Y-114481563D01*
X96757332Y-114428057D01*
X96746721Y-114415128D01*
X96728486Y-114392908D01*
X96728482Y-114392904D01*
X96718842Y-114381158D01*
X96707096Y-114371518D01*
X95816095Y-113480519D01*
X99786341Y-113480519D01*
X100022822Y-113717000D01*
X100022822Y-113717000D01*
G37*
X100022822Y-113717000D02*
X97915120Y-113717000D01*
X97900000Y-113715511D01*
X97884880Y-113717000D01*
X97884872Y-113717000D01*
X97839621Y-113721457D01*
X97781563Y-113739069D01*
X97728057Y-113767668D01*
X97714302Y-113778957D01*
X97692908Y-113796514D01*
X97692904Y-113796518D01*
X97681158Y-113806158D01*
X97671518Y-113817904D01*
X96971502Y-114517921D01*
X96959746Y-114527570D01*
X96921256Y-114574470D01*
X96903820Y-114607092D01*
X96892657Y-114627976D01*
X96884396Y-114655210D01*
X96875045Y-114686034D01*
X96870588Y-114731285D01*
X96870588Y-114731292D01*
X96869099Y-114746412D01*
X96870588Y-114761532D01*
X96870588Y-115089790D01*
X96840095Y-115110165D01*
X96808000Y-115142260D01*
X96808000Y-114615120D01*
X96809489Y-114600000D01*
X96808000Y-114584880D01*
X96808000Y-114584872D01*
X96803543Y-114539621D01*
X96785931Y-114481563D01*
X96757332Y-114428057D01*
X96746721Y-114415128D01*
X96728486Y-114392908D01*
X96728482Y-114392904D01*
X96718842Y-114381158D01*
X96707096Y-114371518D01*
X95816095Y-113480519D01*
X99786341Y-113480519D01*
X100022822Y-113717000D01*
G36*
X103320835Y-109232652D02*
X103295328Y-109258159D01*
X103237216Y-109345129D01*
X103197188Y-109441765D01*
X103176782Y-109544353D01*
X103176782Y-109648951D01*
X103178491Y-109657545D01*
X103117263Y-109657545D01*
X103081293Y-109664700D01*
X102915355Y-109498762D01*
X102905706Y-109487005D01*
X102858807Y-109448515D01*
X102805301Y-109419916D01*
X102747243Y-109402304D01*
X102701992Y-109397847D01*
X102701984Y-109397847D01*
X102686864Y-109396358D01*
X102671744Y-109397847D01*
X101088724Y-109397847D01*
X101068349Y-109367354D01*
X100994388Y-109293393D01*
X100907418Y-109235281D01*
X100810782Y-109195253D01*
X100791598Y-109191437D01*
X100815423Y-109133918D01*
X100835829Y-109031330D01*
X100835829Y-108926732D01*
X100815423Y-108824144D01*
X100775395Y-108727508D01*
X100763710Y-108710021D01*
X101849139Y-108710021D01*
X101864259Y-108711510D01*
X101879379Y-108710021D01*
X101879387Y-108710021D01*
X101924638Y-108705564D01*
X101982696Y-108687952D01*
X102036202Y-108659353D01*
X102083101Y-108620863D01*
X102092750Y-108609106D01*
X102169536Y-108532320D01*
X102620504Y-108532320D01*
X103320835Y-109232652D01*
X103320835Y-109232652D01*
G37*
X103320835Y-109232652D02*
X103295328Y-109258159D01*
X103237216Y-109345129D01*
X103197188Y-109441765D01*
X103176782Y-109544353D01*
X103176782Y-109648951D01*
X103178491Y-109657545D01*
X103117263Y-109657545D01*
X103081293Y-109664700D01*
X102915355Y-109498762D01*
X102905706Y-109487005D01*
X102858807Y-109448515D01*
X102805301Y-109419916D01*
X102747243Y-109402304D01*
X102701992Y-109397847D01*
X102701984Y-109397847D01*
X102686864Y-109396358D01*
X102671744Y-109397847D01*
X101088724Y-109397847D01*
X101068349Y-109367354D01*
X100994388Y-109293393D01*
X100907418Y-109235281D01*
X100810782Y-109195253D01*
X100791598Y-109191437D01*
X100815423Y-109133918D01*
X100835829Y-109031330D01*
X100835829Y-108926732D01*
X100815423Y-108824144D01*
X100775395Y-108727508D01*
X100763710Y-108710021D01*
X101849139Y-108710021D01*
X101864259Y-108711510D01*
X101879379Y-108710021D01*
X101879387Y-108710021D01*
X101924638Y-108705564D01*
X101982696Y-108687952D01*
X102036202Y-108659353D01*
X102083101Y-108620863D01*
X102092750Y-108609106D01*
X102169536Y-108532320D01*
X102620504Y-108532320D01*
X103320835Y-109232652D01*
G36*
X90846417Y-107982228D02*
X90846415Y-107982229D01*
X90846416Y-107982229D01*
X90811267Y-108011075D01*
X90811264Y-108011078D01*
X90799518Y-108020718D01*
X90789878Y-108032464D01*
X89494440Y-109327904D01*
X89494440Y-109295510D01*
X89436690Y-109237760D01*
X89115940Y-109237760D01*
X89115940Y-109274760D01*
X88820940Y-109274760D01*
X88820940Y-109237760D01*
X88771440Y-109237760D01*
X88771440Y-108917760D01*
X88820940Y-108917760D01*
X88820940Y-108880760D01*
X89115940Y-108880760D01*
X89115940Y-108917760D01*
X89436690Y-108917760D01*
X89494440Y-108860010D01*
X89494440Y-108790148D01*
X89517285Y-108785604D01*
X89613921Y-108745576D01*
X89700891Y-108687464D01*
X89774852Y-108613503D01*
X89832964Y-108526533D01*
X89872992Y-108429897D01*
X89893398Y-108327309D01*
X89893398Y-108222711D01*
X89872992Y-108120123D01*
X89832964Y-108023487D01*
X89787870Y-107956000D01*
X90895487Y-107956000D01*
X90846417Y-107982228D01*
X90846417Y-107982228D01*
G37*
X90846417Y-107982228D02*
X90846415Y-107982229D01*
X90846416Y-107982229D01*
X90811267Y-108011075D01*
X90811264Y-108011078D01*
X90799518Y-108020718D01*
X90789878Y-108032464D01*
X89494440Y-109327904D01*
X89494440Y-109295510D01*
X89436690Y-109237760D01*
X89115940Y-109237760D01*
X89115940Y-109274760D01*
X88820940Y-109274760D01*
X88820940Y-109237760D01*
X88771440Y-109237760D01*
X88771440Y-108917760D01*
X88820940Y-108917760D01*
X88820940Y-108880760D01*
X89115940Y-108880760D01*
X89115940Y-108917760D01*
X89436690Y-108917760D01*
X89494440Y-108860010D01*
X89494440Y-108790148D01*
X89517285Y-108785604D01*
X89613921Y-108745576D01*
X89700891Y-108687464D01*
X89774852Y-108613503D01*
X89832964Y-108526533D01*
X89872992Y-108429897D01*
X89893398Y-108327309D01*
X89893398Y-108222711D01*
X89872992Y-108120123D01*
X89832964Y-108023487D01*
X89787870Y-107956000D01*
X90895487Y-107956000D01*
X90846417Y-107982228D01*
M02*
