M48
;DRILL file {KiCad 5.0.1-33cea8e~68~ubuntu18.04.1} date Mi 05 Dez 2018 11:41:35 CET
;FORMAT={-:-/ absolute / inch / decimal}
FMAT,2
INCH,TZ
T1C0.0118
T2C0.0276
T3C0.0315
T4C0.0394
T5C0.0630
%
G90
G05
M72
T1
X2.7836Y-4.4062
X2.785Y-4.1612
X2.7866Y-4.2144
X2.8102Y-4.438
X2.8543Y-4.439
X2.8593Y-4.2648
X2.9036Y-4.3322
X2.9038Y-4.1584
X2.9331Y-4.1949
X2.9368Y-4.6086
X2.9626Y-4.3209
X2.974Y-4.1566
X2.996Y-4.6678
X2.999Y-4.4526
X3.0059Y-4.4055
X3.0186Y-4.5076
X3.069Y-4.7298
X3.0798Y-4.5006
X3.091Y-4.1574
X3.1102Y-4.1929
X3.1334Y-4.2242
X3.1372Y-4.7734
X3.1382Y-4.158
X3.139Y-4.672
X3.2094Y-4.5284
X3.2102Y-4.594
X3.2165Y-4.2618
X3.2214Y-4.8172
X3.2302Y-4.4756
X3.279Y-4.636
X3.2836Y-4.6944
X3.2864Y-4.7374
X3.2936Y-4.2618
X3.321Y-4.858
X3.3746Y-4.8704
X3.39Y-4.7032
X3.4284Y-4.704
X3.4424Y-4.6024
X3.4478Y-4.541
X3.4486Y-4.5034
X3.478Y-4.8924
X3.489Y-4.5784
X3.5138Y-4.2964
X3.5146Y-4.4498
X3.5182Y-4.2628
X3.5356Y-4.4692
X3.5392Y-4.5162
X3.5418Y-4.6458
X3.5754Y-4.9
X3.5797Y-4.3666
X3.6027Y-4.3881
X3.6698Y-4.4584
X3.6708Y-4.8954
X3.6822Y-4.3325
X3.689Y-4.3012
X3.6954Y-4.6036
X3.704Y-4.4346
X3.7048Y-4.4742
X3.7126Y-4.7126
X3.7149Y-4.2802
X3.7245Y-4.3102
X3.7252Y-4.5746
X3.7256Y-4.8684
X3.7411Y-4.7953
X3.7539Y-4.7382
X3.7569Y-4.4173
X3.7581Y-4.2949
X3.7616Y-4.5179
X3.7778Y-4.8256
X3.78Y-4.878
X3.7904Y-4.8488
X3.7968Y-4.4262
X3.8071Y-4.2785
X3.8134Y-4.7428
X3.817Y-4.3822
X3.8259Y-4.5481
X3.8276Y-4.4798
X3.8317Y-4.3435
X3.836Y-4.728
X3.852Y-4.4268
X3.8596Y-4.2766
X3.8596Y-4.3872
X3.8819Y-4.6102
X3.8862Y-4.2935
X3.8908Y-4.6496
X3.8942Y-4.5487
X3.9006Y-4.4213
X3.9175Y-4.2905
X3.932Y-4.5502
X3.9326Y-4.8294
X3.949Y-4.2905
X3.9622Y-4.6994
X3.9628Y-4.3191
X3.9642Y-4.6024
X3.9674Y-4.6496
X3.9678Y-4.3884
X3.9788Y-4.2912
X3.984Y-4.8056
X3.9923Y-4.5834
X3.9931Y-4.627
X4.0054Y-4.3416
X4.0226Y-4.2306
X4.0295Y-4.2874
X4.0531Y-4.6368
X4.0557Y-4.5906
X4.0618Y-4.3381
X4.062Y-4.178
X4.0712Y-4.7554
X4.0813Y-4.3634
X4.083Y-4.3148
X4.1164Y-4.725
X4.1266Y-4.3454
X4.1326Y-4.4398
X4.1555Y-4.2441
X4.175Y-4.4166
X4.1752Y-4.6181
X4.1959Y-4.6486
X4.2238Y-4.1398
X4.2323Y-4.2382
X4.2412Y-4.611
X4.2431Y-4.2057
X4.2608Y-4.4646
X4.2657Y-4.1811
X4.2825Y-4.3976
X4.2948Y-4.141
X4.3542Y-4.4526
X4.3583Y-4.2618
X4.3602Y-4.141
X4.3612Y-4.3514
X4.3904Y-4.3906
X4.4128Y-4.158
X4.4142Y-4.3084
X4.4156Y-4.243
T2
X4.0409Y-4.5039
X4.0909Y-4.5039
X4.1409Y-4.5039
X4.1909Y-4.5039
X4.2409Y-4.5039
X4.2909Y-4.5039
T3
X3.9232Y-4.7559
X4.0217Y-4.7559
X3.5512Y-4.7697
X3.6208Y-4.8393
T4
X3.1457Y-4.3409
X3.1457Y-4.4409
X3.6338Y-4.3234
X3.3208Y-4.7998
X3.4148Y-4.834
T5
X3.8248Y-4.6575
X4.1201Y-4.6575
T0
M30
