%MOIN*%
%OFA0B0*%
%FSLAX46Y46*%
%IPPOS*%
%LPD*%
%ADD10C,0.005905511811023622*%
%ADD11C,0.0039370078740157488*%
%ADD12C,0.023228346456692913*%
%ADD13C,0.034448818897637797*%
%ADD14R,0.059055118110236227X0.03937007874015748*%
%ADD15C,0.025590551181102365*%
%ADD26C,0.005905511811023622*%
%ADD27C,0.0039370078740157488*%
%ADD28C,0.023228346456692913*%
%ADD29C,0.034448818897637797*%
%ADD30R,0.059055118110236227X0.03937007874015748*%
%ADD31C,0.025590551181102365*%
%ADD32C,0.005905511811023622*%
%ADD33C,0.0039370078740157488*%
%ADD34C,0.023228346456692913*%
%ADD35C,0.034448818897637797*%
%ADD36R,0.059055118110236227X0.03937007874015748*%
%ADD37C,0.025590551181102365*%
%ADD38C,0.005905511811023622*%
%ADD39C,0.0039370078740157488*%
%ADD40C,0.023228346456692913*%
%ADD41C,0.034448818897637797*%
%ADD42R,0.059055118110236227X0.03937007874015748*%
%ADD43C,0.025590551181102365*%
%ADD44C,0.005905511811023622*%
%ADD45C,0.0039370078740157488*%
%ADD46C,0.023228346456692913*%
%ADD47C,0.034448818897637797*%
%ADD48R,0.059055118110236227X0.03937007874015748*%
%ADD49C,0.025590551181102365*%
%ADD50C,0.005905511811023622*%
%ADD51C,0.0039370078740157488*%
%ADD52C,0.023228346456692913*%
%ADD53C,0.034448818897637797*%
%ADD54R,0.059055118110236227X0.03937007874015748*%
%ADD55C,0.025590551181102365*%
%ADD56C,0.005905511811023622*%
%ADD57C,0.0039370078740157488*%
%ADD58C,0.023228346456692913*%
%ADD59C,0.034448818897637797*%
%ADD60R,0.059055118110236227X0.03937007874015748*%
%ADD61C,0.025590551181102365*%
%ADD62C,0.005905511811023622*%
%ADD63C,0.0039370078740157488*%
%ADD64C,0.023228346456692913*%
%ADD65C,0.034448818897637797*%
%ADD66R,0.059055118110236227X0.03937007874015748*%
%ADD67C,0.025590551181102365*%
G01*
D10*
X0000154527Y0000450369D02*
X0000099409Y0000450369D01*
X0000154527Y0000306669D02*
X0000154527Y0000450369D01*
X0001677575Y0000584073D02*
G75*
G02X0000154527Y0000306669I-0000844898J0000319052D01*
G01*
X0001678149Y0000800763D02*
X0001677677Y0000584034D01*
X0001338582Y0000800763D02*
X0001678149Y0000800763D01*
X0001188976Y0000682653D02*
X0001338582Y0000800763D01*
X0000403543Y0000682653D02*
X0001188976Y0000682653D01*
X0000403543Y0000786984D02*
X0000403543Y0000682653D01*
X0000000000Y0000786984D02*
X0000403543Y0000786984D01*
X0000000000Y0000505487D02*
X0000000000Y0000786984D01*
X0000031495Y0000450369D02*
X0000000000Y0000505487D01*
X0000099409Y0000450369D02*
X0000031495Y0000450369D01*
X0001312007Y0000495645D02*
G75*
G03X0001312007Y0000495645I-0000031496D01*
G01*
X0000591535Y0000374582D02*
G75*
G03X0000591535Y0000374582I-0000051181D01*
G01*
D11*
G36*
X0001414447Y0000553491D02*
X0001415010Y0000553407D01*
X0001415563Y0000553269D01*
X0001416100Y0000553077D01*
X0001416615Y0000552833D01*
X0001417104Y0000552540D01*
X0001417561Y0000552201D01*
X0001417984Y0000551818D01*
X0001418366Y0000551396D01*
X0001418706Y0000550938D01*
X0001418999Y0000550449D01*
X0001419242Y0000549934D01*
X0001419434Y0000549398D01*
X0001419573Y0000548845D01*
X0001419656Y0000548281D01*
X0001419684Y0000547712D01*
X0001419684Y0000534129D01*
X0001419656Y0000533560D01*
X0001419573Y0000532996D01*
X0001419434Y0000532444D01*
X0001419242Y0000531907D01*
X0001418999Y0000531392D01*
X0001418706Y0000530903D01*
X0001418366Y0000530445D01*
X0001417984Y0000530023D01*
X0001417561Y0000529640D01*
X0001417104Y0000529301D01*
X0001416615Y0000529008D01*
X0001416100Y0000528764D01*
X0001415563Y0000528572D01*
X0001415010Y0000528434D01*
X0001414447Y0000528350D01*
X0001413877Y0000528322D01*
X0001402263Y0000528322D01*
X0001401694Y0000528350D01*
X0001401130Y0000528434D01*
X0001400577Y0000528572D01*
X0001400041Y0000528764D01*
X0001399526Y0000529008D01*
X0001399037Y0000529301D01*
X0001398579Y0000529640D01*
X0001398157Y0000530023D01*
X0001397774Y0000530445D01*
X0001397435Y0000530903D01*
X0001397142Y0000531392D01*
X0001396898Y0000531907D01*
X0001396706Y0000532444D01*
X0001396568Y0000532996D01*
X0001396484Y0000533560D01*
X0001396456Y0000534129D01*
X0001396456Y0000547712D01*
X0001396484Y0000548281D01*
X0001396568Y0000548845D01*
X0001396706Y0000549398D01*
X0001396898Y0000549934D01*
X0001397142Y0000550449D01*
X0001397435Y0000550938D01*
X0001397774Y0000551396D01*
X0001398157Y0000551818D01*
X0001398579Y0000552201D01*
X0001399037Y0000552540D01*
X0001399526Y0000552833D01*
X0001400041Y0000553077D01*
X0001400577Y0000553269D01*
X0001401130Y0000553407D01*
X0001401694Y0000553491D01*
X0001402263Y0000553519D01*
X0001413877Y0000553519D01*
X0001414447Y0000553491D01*
X0001414447Y0000553491D01*
G37*
D12*
X0001408070Y0000540921D03*
D11*
G36*
X0001452635Y0000553491D02*
X0001453199Y0000553407D01*
X0001453752Y0000553269D01*
X0001454289Y0000553077D01*
X0001454804Y0000552833D01*
X0001455293Y0000552540D01*
X0001455750Y0000552201D01*
X0001456172Y0000551818D01*
X0001456555Y0000551396D01*
X0001456895Y0000550938D01*
X0001457188Y0000550449D01*
X0001457431Y0000549934D01*
X0001457623Y0000549398D01*
X0001457762Y0000548845D01*
X0001457845Y0000548281D01*
X0001457873Y0000547712D01*
X0001457873Y0000534129D01*
X0001457845Y0000533560D01*
X0001457762Y0000532996D01*
X0001457623Y0000532444D01*
X0001457431Y0000531907D01*
X0001457188Y0000531392D01*
X0001456895Y0000530903D01*
X0001456555Y0000530445D01*
X0001456172Y0000530023D01*
X0001455750Y0000529640D01*
X0001455293Y0000529301D01*
X0001454804Y0000529008D01*
X0001454289Y0000528764D01*
X0001453752Y0000528572D01*
X0001453199Y0000528434D01*
X0001452635Y0000528350D01*
X0001452066Y0000528322D01*
X0001440452Y0000528322D01*
X0001439883Y0000528350D01*
X0001439319Y0000528434D01*
X0001438766Y0000528572D01*
X0001438230Y0000528764D01*
X0001437715Y0000529008D01*
X0001437226Y0000529301D01*
X0001436768Y0000529640D01*
X0001436346Y0000530023D01*
X0001435963Y0000530445D01*
X0001435624Y0000530903D01*
X0001435331Y0000531392D01*
X0001435087Y0000531907D01*
X0001434895Y0000532444D01*
X0001434757Y0000532996D01*
X0001434673Y0000533560D01*
X0001434645Y0000534129D01*
X0001434645Y0000547712D01*
X0001434673Y0000548281D01*
X0001434757Y0000548845D01*
X0001434895Y0000549398D01*
X0001435087Y0000549934D01*
X0001435331Y0000550449D01*
X0001435624Y0000550938D01*
X0001435963Y0000551396D01*
X0001436346Y0000551818D01*
X0001436768Y0000552201D01*
X0001437226Y0000552540D01*
X0001437715Y0000552833D01*
X0001438230Y0000553077D01*
X0001438766Y0000553269D01*
X0001439319Y0000553407D01*
X0001439883Y0000553491D01*
X0001440452Y0000553519D01*
X0001452066Y0000553519D01*
X0001452635Y0000553491D01*
X0001452635Y0000553491D01*
G37*
D12*
X0001446259Y0000540921D03*
D11*
G36*
X0001177858Y0000258421D02*
X0001178694Y0000258297D01*
X0001179514Y0000258091D01*
X0001180310Y0000257807D01*
X0001181074Y0000257445D01*
X0001181799Y0000257011D01*
X0001182477Y0000256507D01*
X0001183104Y0000255940D01*
X0001183671Y0000255314D01*
X0001184175Y0000254635D01*
X0001184609Y0000253910D01*
X0001184971Y0000253146D01*
X0001185255Y0000252350D01*
X0001185461Y0000251530D01*
X0001185585Y0000250694D01*
X0001185626Y0000249850D01*
X0001185626Y0000232626D01*
X0001185585Y0000231782D01*
X0001185461Y0000230946D01*
X0001185255Y0000230126D01*
X0001184971Y0000229330D01*
X0001184609Y0000228566D01*
X0001184175Y0000227841D01*
X0001183671Y0000227162D01*
X0001183104Y0000226536D01*
X0001182477Y0000225968D01*
X0001181799Y0000225465D01*
X0001181074Y0000225030D01*
X0001180310Y0000224669D01*
X0001179514Y0000224384D01*
X0001178694Y0000224179D01*
X0001177858Y0000224055D01*
X0001177014Y0000224013D01*
X0001156837Y0000224013D01*
X0001155993Y0000224055D01*
X0001155157Y0000224179D01*
X0001154337Y0000224384D01*
X0001153541Y0000224669D01*
X0001152777Y0000225030D01*
X0001152052Y0000225465D01*
X0001151373Y0000225968D01*
X0001150747Y0000226536D01*
X0001150179Y0000227162D01*
X0001149676Y0000227841D01*
X0001149241Y0000228566D01*
X0001148880Y0000229330D01*
X0001148595Y0000230126D01*
X0001148390Y0000230946D01*
X0001148266Y0000231782D01*
X0001148225Y0000232626D01*
X0001148225Y0000249850D01*
X0001148266Y0000250694D01*
X0001148390Y0000251530D01*
X0001148595Y0000252350D01*
X0001148880Y0000253146D01*
X0001149241Y0000253910D01*
X0001149676Y0000254635D01*
X0001150179Y0000255314D01*
X0001150747Y0000255940D01*
X0001151373Y0000256507D01*
X0001152052Y0000257011D01*
X0001152777Y0000257445D01*
X0001153541Y0000257807D01*
X0001154337Y0000258091D01*
X0001155157Y0000258297D01*
X0001155993Y0000258421D01*
X0001156837Y0000258462D01*
X0001177014Y0000258462D01*
X0001177858Y0000258421D01*
X0001177858Y0000258421D01*
G37*
D13*
X0001166925Y0000241238D03*
D11*
G36*
X0001177858Y0000320429D02*
X0001178694Y0000320305D01*
X0001179514Y0000320099D01*
X0001180310Y0000319815D01*
X0001181074Y0000319453D01*
X0001181799Y0000319019D01*
X0001182477Y0000318515D01*
X0001183104Y0000317948D01*
X0001183671Y0000317322D01*
X0001184175Y0000316643D01*
X0001184609Y0000315918D01*
X0001184971Y0000315154D01*
X0001185255Y0000314358D01*
X0001185461Y0000313538D01*
X0001185585Y0000312702D01*
X0001185626Y0000311858D01*
X0001185626Y0000294634D01*
X0001185585Y0000293789D01*
X0001185461Y0000292953D01*
X0001185255Y0000292134D01*
X0001184971Y0000291338D01*
X0001184609Y0000290574D01*
X0001184175Y0000289849D01*
X0001183671Y0000289170D01*
X0001183104Y0000288544D01*
X0001182477Y0000287976D01*
X0001181799Y0000287473D01*
X0001181074Y0000287038D01*
X0001180310Y0000286677D01*
X0001179514Y0000286392D01*
X0001178694Y0000286187D01*
X0001177858Y0000286063D01*
X0001177014Y0000286021D01*
X0001156837Y0000286021D01*
X0001155993Y0000286063D01*
X0001155157Y0000286187D01*
X0001154337Y0000286392D01*
X0001153541Y0000286677D01*
X0001152777Y0000287038D01*
X0001152052Y0000287473D01*
X0001151373Y0000287976D01*
X0001150747Y0000288544D01*
X0001150179Y0000289170D01*
X0001149676Y0000289849D01*
X0001149241Y0000290574D01*
X0001148880Y0000291338D01*
X0001148595Y0000292134D01*
X0001148390Y0000292953D01*
X0001148266Y0000293789D01*
X0001148225Y0000294634D01*
X0001148225Y0000311858D01*
X0001148266Y0000312702D01*
X0001148390Y0000313538D01*
X0001148595Y0000314358D01*
X0001148880Y0000315154D01*
X0001149241Y0000315918D01*
X0001149676Y0000316643D01*
X0001150179Y0000317322D01*
X0001150747Y0000317948D01*
X0001151373Y0000318515D01*
X0001152052Y0000319019D01*
X0001152777Y0000319453D01*
X0001153541Y0000319815D01*
X0001154337Y0000320099D01*
X0001155157Y0000320305D01*
X0001155993Y0000320429D01*
X0001156837Y0000320470D01*
X0001177014Y0000320470D01*
X0001177858Y0000320429D01*
X0001177858Y0000320429D01*
G37*
D13*
X0001166925Y0000303246D03*
D11*
G36*
X0000713007Y0000639012D02*
X0000713571Y0000638929D01*
X0000714124Y0000638790D01*
X0000714660Y0000638598D01*
X0000715175Y0000638355D01*
X0000715664Y0000638062D01*
X0000716122Y0000637722D01*
X0000716544Y0000637339D01*
X0000716927Y0000636917D01*
X0000717266Y0000636459D01*
X0000717559Y0000635971D01*
X0000717803Y0000635455D01*
X0000717995Y0000634919D01*
X0000718133Y0000634366D01*
X0000718217Y0000633802D01*
X0000718245Y0000633233D01*
X0000718245Y0000619650D01*
X0000718217Y0000619081D01*
X0000718133Y0000618518D01*
X0000717995Y0000617965D01*
X0000717803Y0000617428D01*
X0000717559Y0000616913D01*
X0000717266Y0000616424D01*
X0000716927Y0000615967D01*
X0000716544Y0000615544D01*
X0000716122Y0000615162D01*
X0000715664Y0000614822D01*
X0000715175Y0000614529D01*
X0000714660Y0000614285D01*
X0000714124Y0000614093D01*
X0000713571Y0000613955D01*
X0000713007Y0000613871D01*
X0000712438Y0000613843D01*
X0000700824Y0000613843D01*
X0000700255Y0000613871D01*
X0000699691Y0000613955D01*
X0000699138Y0000614093D01*
X0000698601Y0000614285D01*
X0000698086Y0000614529D01*
X0000697597Y0000614822D01*
X0000697140Y0000615162D01*
X0000696718Y0000615544D01*
X0000696335Y0000615967D01*
X0000695995Y0000616424D01*
X0000695702Y0000616913D01*
X0000695459Y0000617428D01*
X0000695267Y0000617965D01*
X0000695128Y0000618518D01*
X0000695045Y0000619081D01*
X0000695017Y0000619650D01*
X0000695017Y0000633233D01*
X0000695045Y0000633802D01*
X0000695128Y0000634366D01*
X0000695267Y0000634919D01*
X0000695459Y0000635455D01*
X0000695702Y0000635971D01*
X0000695995Y0000636459D01*
X0000696335Y0000636917D01*
X0000696718Y0000637339D01*
X0000697140Y0000637722D01*
X0000697597Y0000638062D01*
X0000698086Y0000638355D01*
X0000698601Y0000638598D01*
X0000699138Y0000638790D01*
X0000699691Y0000638929D01*
X0000700255Y0000639012D01*
X0000700824Y0000639040D01*
X0000712438Y0000639040D01*
X0000713007Y0000639012D01*
X0000713007Y0000639012D01*
G37*
D12*
X0000706631Y0000626442D03*
D11*
G36*
X0000751196Y0000639012D02*
X0000751760Y0000638929D01*
X0000752313Y0000638790D01*
X0000752849Y0000638598D01*
X0000753364Y0000638355D01*
X0000753853Y0000638062D01*
X0000754311Y0000637722D01*
X0000754733Y0000637339D01*
X0000755116Y0000636917D01*
X0000755455Y0000636459D01*
X0000755748Y0000635971D01*
X0000755992Y0000635455D01*
X0000756184Y0000634919D01*
X0000756322Y0000634366D01*
X0000756406Y0000633802D01*
X0000756434Y0000633233D01*
X0000756434Y0000619650D01*
X0000756406Y0000619081D01*
X0000756322Y0000618518D01*
X0000756184Y0000617965D01*
X0000755992Y0000617428D01*
X0000755748Y0000616913D01*
X0000755455Y0000616424D01*
X0000755116Y0000615967D01*
X0000754733Y0000615544D01*
X0000754311Y0000615162D01*
X0000753853Y0000614822D01*
X0000753364Y0000614529D01*
X0000752849Y0000614285D01*
X0000752313Y0000614093D01*
X0000751760Y0000613955D01*
X0000751196Y0000613871D01*
X0000750627Y0000613843D01*
X0000739013Y0000613843D01*
X0000738444Y0000613871D01*
X0000737880Y0000613955D01*
X0000737327Y0000614093D01*
X0000736790Y0000614285D01*
X0000736275Y0000614529D01*
X0000735786Y0000614822D01*
X0000735329Y0000615162D01*
X0000734907Y0000615544D01*
X0000734524Y0000615967D01*
X0000734184Y0000616424D01*
X0000733891Y0000616913D01*
X0000733648Y0000617428D01*
X0000733456Y0000617965D01*
X0000733317Y0000618518D01*
X0000733234Y0000619081D01*
X0000733206Y0000619650D01*
X0000733206Y0000633233D01*
X0000733234Y0000633802D01*
X0000733317Y0000634366D01*
X0000733456Y0000634919D01*
X0000733648Y0000635455D01*
X0000733891Y0000635971D01*
X0000734184Y0000636459D01*
X0000734524Y0000636917D01*
X0000734907Y0000637339D01*
X0000735329Y0000637722D01*
X0000735786Y0000638062D01*
X0000736275Y0000638355D01*
X0000736790Y0000638598D01*
X0000737327Y0000638790D01*
X0000737880Y0000638929D01*
X0000738444Y0000639012D01*
X0000739013Y0000639040D01*
X0000750627Y0000639040D01*
X0000751196Y0000639012D01*
X0000751196Y0000639012D01*
G37*
D12*
X0000744820Y0000626442D03*
D11*
G36*
X0000105588Y0000543649D02*
X0000106152Y0000543565D01*
X0000106705Y0000543426D01*
X0000107241Y0000543234D01*
X0000107756Y0000542991D01*
X0000108245Y0000542698D01*
X0000108703Y0000542358D01*
X0000109125Y0000541976D01*
X0000109508Y0000541553D01*
X0000109847Y0000541096D01*
X0000110140Y0000540607D01*
X0000110384Y0000540092D01*
X0000110576Y0000539555D01*
X0000110715Y0000539002D01*
X0000110798Y0000538439D01*
X0000110826Y0000537869D01*
X0000110826Y0000524287D01*
X0000110798Y0000523717D01*
X0000110715Y0000523154D01*
X0000110576Y0000522601D01*
X0000110384Y0000522064D01*
X0000110140Y0000521549D01*
X0000109847Y0000521060D01*
X0000109508Y0000520603D01*
X0000109125Y0000520180D01*
X0000108703Y0000519798D01*
X0000108245Y0000519458D01*
X0000107756Y0000519165D01*
X0000107241Y0000518922D01*
X0000106705Y0000518730D01*
X0000106152Y0000518591D01*
X0000105588Y0000518508D01*
X0000105019Y0000518480D01*
X0000093405Y0000518480D01*
X0000092836Y0000518508D01*
X0000092272Y0000518591D01*
X0000091719Y0000518730D01*
X0000091183Y0000518922D01*
X0000090667Y0000519165D01*
X0000090179Y0000519458D01*
X0000089721Y0000519798D01*
X0000089299Y0000520180D01*
X0000088916Y0000520603D01*
X0000088576Y0000521060D01*
X0000088283Y0000521549D01*
X0000088040Y0000522064D01*
X0000087848Y0000522601D01*
X0000087709Y0000523154D01*
X0000087626Y0000523717D01*
X0000087598Y0000524287D01*
X0000087598Y0000537869D01*
X0000087626Y0000538439D01*
X0000087709Y0000539002D01*
X0000087848Y0000539555D01*
X0000088040Y0000540092D01*
X0000088283Y0000540607D01*
X0000088576Y0000541096D01*
X0000088916Y0000541553D01*
X0000089299Y0000541976D01*
X0000089721Y0000542358D01*
X0000090179Y0000542698D01*
X0000090667Y0000542991D01*
X0000091183Y0000543234D01*
X0000091719Y0000543426D01*
X0000092272Y0000543565D01*
X0000092836Y0000543649D01*
X0000093405Y0000543676D01*
X0000105019Y0000543676D01*
X0000105588Y0000543649D01*
X0000105588Y0000543649D01*
G37*
D12*
X0000099212Y0000531078D03*
D11*
G36*
X0000067399Y0000543649D02*
X0000067963Y0000543565D01*
X0000068516Y0000543426D01*
X0000069052Y0000543234D01*
X0000069567Y0000542991D01*
X0000070056Y0000542698D01*
X0000070514Y0000542358D01*
X0000070936Y0000541976D01*
X0000071319Y0000541553D01*
X0000071658Y0000541096D01*
X0000071951Y0000540607D01*
X0000072195Y0000540092D01*
X0000072387Y0000539555D01*
X0000072526Y0000539002D01*
X0000072609Y0000538439D01*
X0000072637Y0000537869D01*
X0000072637Y0000524287D01*
X0000072609Y0000523717D01*
X0000072526Y0000523154D01*
X0000072387Y0000522601D01*
X0000072195Y0000522064D01*
X0000071951Y0000521549D01*
X0000071658Y0000521060D01*
X0000071319Y0000520603D01*
X0000070936Y0000520180D01*
X0000070514Y0000519798D01*
X0000070056Y0000519458D01*
X0000069567Y0000519165D01*
X0000069052Y0000518922D01*
X0000068516Y0000518730D01*
X0000067963Y0000518591D01*
X0000067399Y0000518508D01*
X0000066830Y0000518480D01*
X0000055216Y0000518480D01*
X0000054647Y0000518508D01*
X0000054083Y0000518591D01*
X0000053530Y0000518730D01*
X0000052994Y0000518922D01*
X0000052478Y0000519165D01*
X0000051990Y0000519458D01*
X0000051532Y0000519798D01*
X0000051110Y0000520180D01*
X0000050727Y0000520603D01*
X0000050387Y0000521060D01*
X0000050095Y0000521549D01*
X0000049851Y0000522064D01*
X0000049659Y0000522601D01*
X0000049520Y0000523154D01*
X0000049437Y0000523717D01*
X0000049409Y0000524287D01*
X0000049409Y0000537869D01*
X0000049437Y0000538439D01*
X0000049520Y0000539002D01*
X0000049659Y0000539555D01*
X0000049851Y0000540092D01*
X0000050095Y0000540607D01*
X0000050387Y0000541096D01*
X0000050727Y0000541553D01*
X0000051110Y0000541976D01*
X0000051532Y0000542358D01*
X0000051990Y0000542698D01*
X0000052478Y0000542991D01*
X0000052994Y0000543234D01*
X0000053530Y0000543426D01*
X0000054083Y0000543565D01*
X0000054647Y0000543649D01*
X0000055216Y0000543676D01*
X0000066830Y0000543676D01*
X0000067399Y0000543649D01*
X0000067399Y0000543649D01*
G37*
D12*
X0000061023Y0000531078D03*
D14*
X0000082677Y0000599978D03*
X0000082677Y0000725963D03*
X0000275590Y0000599978D03*
X0000275590Y0000725963D03*
X0001407480Y0000613755D03*
X0001407480Y0000739739D03*
X0001600393Y0000613755D03*
X0001600393Y0000739739D03*
D15*
X0000885970Y0000402463D03*
D11*
G36*
X0000918681Y0000387848D02*
X0000900586Y0000369752D01*
X0000853260Y0000417078D01*
X0000871355Y0000435174D01*
X0000918681Y0000387848D01*
X0000918681Y0000387848D01*
G37*
D15*
X0000850615Y0000367108D03*
D11*
G36*
X0000883325Y0000352492D02*
X0000865230Y0000334397D01*
X0000817904Y0000381723D01*
X0000835999Y0000399818D01*
X0000883325Y0000352492D01*
X0000883325Y0000352492D01*
G37*
D15*
X0000815259Y0000331752D03*
D11*
G36*
X0000847970Y0000317137D02*
X0000829875Y0000299042D01*
X0000782549Y0000346368D01*
X0000800644Y0000364463D01*
X0000847970Y0000317137D01*
X0000847970Y0000317137D01*
G37*
D15*
X0000779904Y0000296397D03*
D11*
G36*
X0000812615Y0000281782D02*
X0000794520Y0000263686D01*
X0000747193Y0000311012D01*
X0000765289Y0000329108D01*
X0000812615Y0000281782D01*
X0000812615Y0000281782D01*
G37*
D15*
X0000576681Y0000499621D03*
D11*
G36*
X0000609391Y0000485005D02*
X0000591296Y0000466910D01*
X0000543970Y0000514236D01*
X0000562065Y0000532331D01*
X0000609391Y0000485005D01*
X0000609391Y0000485005D01*
G37*
D15*
X0000612036Y0000534976D03*
D11*
G36*
X0000644746Y0000520361D02*
X0000626651Y0000502265D01*
X0000579325Y0000549591D01*
X0000597420Y0000567687D01*
X0000644746Y0000520361D01*
X0000644746Y0000520361D01*
G37*
D15*
X0000647391Y0000570331D03*
D11*
G36*
X0000680102Y0000555716D02*
X0000662007Y0000537621D01*
X0000614681Y0000584947D01*
X0000632776Y0000603042D01*
X0000680102Y0000555716D01*
X0000680102Y0000555716D01*
G37*
D15*
X0000682747Y0000605687D03*
D11*
G36*
X0000715457Y0000591071D02*
X0000697362Y0000572976D01*
X0000650036Y0000620302D01*
X0000668131Y0000638397D01*
X0000715457Y0000591071D01*
X0000715457Y0000591071D01*
G37*
G04 next file*
G04 Gerber Fmt 4.6, Leading zero omitted, Abs format (unit mm)*
G04 Created by KiCad (PCBNEW 5.0.1-33cea8e~68~ubuntu18.04.1) date Di 04 Dez 2018 23:45:32 CET*
G01*
G04 APERTURE LIST*
G04 APERTURE END LIST*
D26*
X0001967519Y0000450787D02*
X0001912401Y0000450787D01*
X0001967519Y0000307086D02*
X0001967519Y0000450787D01*
X0003490567Y0000584490D02*
G75*
G02X0001967519Y0000307086I-0000844898J0000319052D01*
G01*
X0003491141Y0000801181D02*
X0003490669Y0000584452D01*
X0003151574Y0000801181D02*
X0003491141Y0000801181D01*
X0003001968Y0000683070D02*
X0003151574Y0000801181D01*
X0002216535Y0000683070D02*
X0003001968Y0000683070D01*
X0002216535Y0000787401D02*
X0002216535Y0000683070D01*
X0001812992Y0000787401D02*
X0002216535Y0000787401D01*
X0001812992Y0000505905D02*
X0001812992Y0000787401D01*
X0001844488Y0000450787D02*
X0001812992Y0000505905D01*
X0001912401Y0000450787D02*
X0001844488Y0000450787D01*
X0003125000Y0000496062D02*
G75*
G03X0003125000Y0000496062I-0000031496D01*
G01*
X0002404527Y0000375000D02*
G75*
G03X0002404527Y0000375000I-0000051181D01*
G01*
D27*
G36*
X0003227439Y0000553909D02*
X0003228002Y0000553825D01*
X0003228555Y0000553686D01*
X0003229092Y0000553494D01*
X0003229607Y0000553251D01*
X0003230096Y0000552958D01*
X0003230554Y0000552618D01*
X0003230976Y0000552236D01*
X0003231359Y0000551813D01*
X0003231698Y0000551356D01*
X0003231991Y0000550867D01*
X0003232235Y0000550352D01*
X0003232427Y0000549815D01*
X0003232565Y0000549262D01*
X0003232649Y0000548699D01*
X0003232677Y0000548129D01*
X0003232677Y0000534547D01*
X0003232649Y0000533977D01*
X0003232565Y0000533414D01*
X0003232427Y0000532861D01*
X0003232235Y0000532324D01*
X0003231991Y0000531809D01*
X0003231698Y0000531320D01*
X0003231359Y0000530863D01*
X0003230976Y0000530441D01*
X0003230554Y0000530058D01*
X0003230096Y0000529718D01*
X0003229607Y0000529425D01*
X0003229092Y0000529182D01*
X0003228555Y0000528990D01*
X0003228002Y0000528851D01*
X0003227439Y0000528768D01*
X0003226870Y0000528740D01*
X0003215255Y0000528740D01*
X0003214686Y0000528768D01*
X0003214122Y0000528851D01*
X0003213570Y0000528990D01*
X0003213033Y0000529182D01*
X0003212518Y0000529425D01*
X0003212029Y0000529718D01*
X0003211571Y0000530058D01*
X0003211149Y0000530441D01*
X0003210766Y0000530863D01*
X0003210427Y0000531320D01*
X0003210134Y0000531809D01*
X0003209890Y0000532324D01*
X0003209698Y0000532861D01*
X0003209560Y0000533414D01*
X0003209476Y0000533977D01*
X0003209448Y0000534547D01*
X0003209448Y0000548129D01*
X0003209476Y0000548699D01*
X0003209560Y0000549262D01*
X0003209698Y0000549815D01*
X0003209890Y0000550352D01*
X0003210134Y0000550867D01*
X0003210427Y0000551356D01*
X0003210766Y0000551813D01*
X0003211149Y0000552236D01*
X0003211571Y0000552618D01*
X0003212029Y0000552958D01*
X0003212518Y0000553251D01*
X0003213033Y0000553494D01*
X0003213570Y0000553686D01*
X0003214122Y0000553825D01*
X0003214686Y0000553909D01*
X0003215255Y0000553936D01*
X0003226870Y0000553936D01*
X0003227439Y0000553909D01*
X0003227439Y0000553909D01*
G37*
D28*
X0003221062Y0000541338D03*
D27*
G36*
X0003265628Y0000553909D02*
X0003266191Y0000553825D01*
X0003266744Y0000553686D01*
X0003267281Y0000553494D01*
X0003267796Y0000553251D01*
X0003268285Y0000552958D01*
X0003268743Y0000552618D01*
X0003269165Y0000552236D01*
X0003269547Y0000551813D01*
X0003269887Y0000551356D01*
X0003270180Y0000550867D01*
X0003270424Y0000550352D01*
X0003270616Y0000549815D01*
X0003270754Y0000549262D01*
X0003270838Y0000548699D01*
X0003270866Y0000548129D01*
X0003270866Y0000534547D01*
X0003270838Y0000533977D01*
X0003270754Y0000533414D01*
X0003270616Y0000532861D01*
X0003270424Y0000532324D01*
X0003270180Y0000531809D01*
X0003269887Y0000531320D01*
X0003269547Y0000530863D01*
X0003269165Y0000530441D01*
X0003268743Y0000530058D01*
X0003268285Y0000529718D01*
X0003267796Y0000529425D01*
X0003267281Y0000529182D01*
X0003266744Y0000528990D01*
X0003266191Y0000528851D01*
X0003265628Y0000528768D01*
X0003265059Y0000528740D01*
X0003253444Y0000528740D01*
X0003252875Y0000528768D01*
X0003252311Y0000528851D01*
X0003251759Y0000528990D01*
X0003251222Y0000529182D01*
X0003250707Y0000529425D01*
X0003250218Y0000529718D01*
X0003249760Y0000530058D01*
X0003249338Y0000530441D01*
X0003248955Y0000530863D01*
X0003248616Y0000531320D01*
X0003248323Y0000531809D01*
X0003248079Y0000532324D01*
X0003247887Y0000532861D01*
X0003247749Y0000533414D01*
X0003247665Y0000533977D01*
X0003247637Y0000534547D01*
X0003247637Y0000548129D01*
X0003247665Y0000548699D01*
X0003247749Y0000549262D01*
X0003247887Y0000549815D01*
X0003248079Y0000550352D01*
X0003248323Y0000550867D01*
X0003248616Y0000551356D01*
X0003248955Y0000551813D01*
X0003249338Y0000552236D01*
X0003249760Y0000552618D01*
X0003250218Y0000552958D01*
X0003250707Y0000553251D01*
X0003251222Y0000553494D01*
X0003251759Y0000553686D01*
X0003252311Y0000553825D01*
X0003252875Y0000553909D01*
X0003253444Y0000553936D01*
X0003265059Y0000553936D01*
X0003265628Y0000553909D01*
X0003265628Y0000553909D01*
G37*
D28*
X0003259251Y0000541338D03*
D27*
G36*
X0002990850Y0000258838D02*
X0002991686Y0000258714D01*
X0002992506Y0000258509D01*
X0002993302Y0000258224D01*
X0002994066Y0000257863D01*
X0002994791Y0000257428D01*
X0002995470Y0000256925D01*
X0002996096Y0000256357D01*
X0002996664Y0000255731D01*
X0002997167Y0000255052D01*
X0002997601Y0000254327D01*
X0002997963Y0000253563D01*
X0002998248Y0000252768D01*
X0002998453Y0000251948D01*
X0002998577Y0000251112D01*
X0002998618Y0000250268D01*
X0002998618Y0000233043D01*
X0002998577Y0000232199D01*
X0002998453Y0000231363D01*
X0002998248Y0000230543D01*
X0002997963Y0000229747D01*
X0002997601Y0000228983D01*
X0002997167Y0000228259D01*
X0002996664Y0000227580D01*
X0002996096Y0000226953D01*
X0002995470Y0000226386D01*
X0002994791Y0000225882D01*
X0002994066Y0000225448D01*
X0002993302Y0000225087D01*
X0002992506Y0000224802D01*
X0002991686Y0000224596D01*
X0002990850Y0000224472D01*
X0002990006Y0000224431D01*
X0002969829Y0000224431D01*
X0002968985Y0000224472D01*
X0002968149Y0000224596D01*
X0002967329Y0000224802D01*
X0002966533Y0000225087D01*
X0002965769Y0000225448D01*
X0002965044Y0000225882D01*
X0002964365Y0000226386D01*
X0002963739Y0000226953D01*
X0002963172Y0000227580D01*
X0002962668Y0000228259D01*
X0002962234Y0000228983D01*
X0002961872Y0000229747D01*
X0002961588Y0000230543D01*
X0002961382Y0000231363D01*
X0002961258Y0000232199D01*
X0002961217Y0000233043D01*
X0002961217Y0000250268D01*
X0002961258Y0000251112D01*
X0002961382Y0000251948D01*
X0002961588Y0000252768D01*
X0002961872Y0000253563D01*
X0002962234Y0000254327D01*
X0002962668Y0000255052D01*
X0002963172Y0000255731D01*
X0002963739Y0000256357D01*
X0002964365Y0000256925D01*
X0002965044Y0000257428D01*
X0002965769Y0000257863D01*
X0002966533Y0000258224D01*
X0002967329Y0000258509D01*
X0002968149Y0000258714D01*
X0002968985Y0000258838D01*
X0002969829Y0000258880D01*
X0002990006Y0000258880D01*
X0002990850Y0000258838D01*
X0002990850Y0000258838D01*
G37*
D29*
X0002979918Y0000241655D03*
D27*
G36*
X0002990850Y0000320846D02*
X0002991686Y0000320722D01*
X0002992506Y0000320517D01*
X0002993302Y0000320232D01*
X0002994066Y0000319871D01*
X0002994791Y0000319436D01*
X0002995470Y0000318933D01*
X0002996096Y0000318365D01*
X0002996664Y0000317739D01*
X0002997167Y0000317060D01*
X0002997601Y0000316335D01*
X0002997963Y0000315571D01*
X0002998248Y0000314775D01*
X0002998453Y0000313956D01*
X0002998577Y0000313120D01*
X0002998618Y0000312275D01*
X0002998618Y0000295051D01*
X0002998577Y0000294207D01*
X0002998453Y0000293371D01*
X0002998248Y0000292551D01*
X0002997963Y0000291755D01*
X0002997601Y0000290991D01*
X0002997167Y0000290266D01*
X0002996664Y0000289588D01*
X0002996096Y0000288961D01*
X0002995470Y0000288394D01*
X0002994791Y0000287890D01*
X0002994066Y0000287456D01*
X0002993302Y0000287094D01*
X0002992506Y0000286810D01*
X0002991686Y0000286604D01*
X0002990850Y0000286480D01*
X0002990006Y0000286439D01*
X0002969829Y0000286439D01*
X0002968985Y0000286480D01*
X0002968149Y0000286604D01*
X0002967329Y0000286810D01*
X0002966533Y0000287094D01*
X0002965769Y0000287456D01*
X0002965044Y0000287890D01*
X0002964365Y0000288394D01*
X0002963739Y0000288961D01*
X0002963172Y0000289588D01*
X0002962668Y0000290266D01*
X0002962234Y0000290991D01*
X0002961872Y0000291755D01*
X0002961588Y0000292551D01*
X0002961382Y0000293371D01*
X0002961258Y0000294207D01*
X0002961217Y0000295051D01*
X0002961217Y0000312275D01*
X0002961258Y0000313120D01*
X0002961382Y0000313956D01*
X0002961588Y0000314775D01*
X0002961872Y0000315571D01*
X0002962234Y0000316335D01*
X0002962668Y0000317060D01*
X0002963172Y0000317739D01*
X0002963739Y0000318365D01*
X0002964365Y0000318933D01*
X0002965044Y0000319436D01*
X0002965769Y0000319871D01*
X0002966533Y0000320232D01*
X0002967329Y0000320517D01*
X0002968149Y0000320722D01*
X0002968985Y0000320846D01*
X0002969829Y0000320888D01*
X0002990006Y0000320888D01*
X0002990850Y0000320846D01*
X0002990850Y0000320846D01*
G37*
D29*
X0002979918Y0000303663D03*
D27*
G36*
X0002525999Y0000639430D02*
X0002526563Y0000639346D01*
X0002527116Y0000639208D01*
X0002527652Y0000639016D01*
X0002528168Y0000638772D01*
X0002528656Y0000638479D01*
X0002529114Y0000638140D01*
X0002529536Y0000637757D01*
X0002529919Y0000637335D01*
X0002530259Y0000636877D01*
X0002530552Y0000636388D01*
X0002530795Y0000635873D01*
X0002530987Y0000635336D01*
X0002531126Y0000634784D01*
X0002531209Y0000634220D01*
X0002531237Y0000633651D01*
X0002531237Y0000620068D01*
X0002531209Y0000619499D01*
X0002531126Y0000618935D01*
X0002530987Y0000618382D01*
X0002530795Y0000617846D01*
X0002530552Y0000617331D01*
X0002530259Y0000616842D01*
X0002529919Y0000616384D01*
X0002529536Y0000615962D01*
X0002529114Y0000615579D01*
X0002528656Y0000615240D01*
X0002528168Y0000614947D01*
X0002527652Y0000614703D01*
X0002527116Y0000614511D01*
X0002526563Y0000614372D01*
X0002525999Y0000614289D01*
X0002525430Y0000614261D01*
X0002513816Y0000614261D01*
X0002513247Y0000614289D01*
X0002512683Y0000614372D01*
X0002512130Y0000614511D01*
X0002511594Y0000614703D01*
X0002511079Y0000614947D01*
X0002510590Y0000615240D01*
X0002510132Y0000615579D01*
X0002509710Y0000615962D01*
X0002509327Y0000616384D01*
X0002508988Y0000616842D01*
X0002508695Y0000617331D01*
X0002508451Y0000617846D01*
X0002508259Y0000618382D01*
X0002508120Y0000618935D01*
X0002508037Y0000619499D01*
X0002508009Y0000620068D01*
X0002508009Y0000633651D01*
X0002508037Y0000634220D01*
X0002508120Y0000634784D01*
X0002508259Y0000635336D01*
X0002508451Y0000635873D01*
X0002508695Y0000636388D01*
X0002508988Y0000636877D01*
X0002509327Y0000637335D01*
X0002509710Y0000637757D01*
X0002510132Y0000638140D01*
X0002510590Y0000638479D01*
X0002511079Y0000638772D01*
X0002511594Y0000639016D01*
X0002512130Y0000639208D01*
X0002512683Y0000639346D01*
X0002513247Y0000639430D01*
X0002513816Y0000639458D01*
X0002525430Y0000639458D01*
X0002525999Y0000639430D01*
X0002525999Y0000639430D01*
G37*
D28*
X0002519623Y0000626859D03*
D27*
G36*
X0002564188Y0000639430D02*
X0002564752Y0000639346D01*
X0002565305Y0000639208D01*
X0002565841Y0000639016D01*
X0002566357Y0000638772D01*
X0002566845Y0000638479D01*
X0002567303Y0000638140D01*
X0002567725Y0000637757D01*
X0002568108Y0000637335D01*
X0002568448Y0000636877D01*
X0002568741Y0000636388D01*
X0002568984Y0000635873D01*
X0002569176Y0000635336D01*
X0002569315Y0000634784D01*
X0002569398Y0000634220D01*
X0002569426Y0000633651D01*
X0002569426Y0000620068D01*
X0002569398Y0000619499D01*
X0002569315Y0000618935D01*
X0002569176Y0000618382D01*
X0002568984Y0000617846D01*
X0002568741Y0000617331D01*
X0002568448Y0000616842D01*
X0002568108Y0000616384D01*
X0002567725Y0000615962D01*
X0002567303Y0000615579D01*
X0002566845Y0000615240D01*
X0002566357Y0000614947D01*
X0002565841Y0000614703D01*
X0002565305Y0000614511D01*
X0002564752Y0000614372D01*
X0002564188Y0000614289D01*
X0002563619Y0000614261D01*
X0002552005Y0000614261D01*
X0002551436Y0000614289D01*
X0002550872Y0000614372D01*
X0002550319Y0000614511D01*
X0002549783Y0000614703D01*
X0002549268Y0000614947D01*
X0002548779Y0000615240D01*
X0002548321Y0000615579D01*
X0002547899Y0000615962D01*
X0002547516Y0000616384D01*
X0002547177Y0000616842D01*
X0002546884Y0000617331D01*
X0002546640Y0000617846D01*
X0002546448Y0000618382D01*
X0002546310Y0000618935D01*
X0002546226Y0000619499D01*
X0002546198Y0000620068D01*
X0002546198Y0000633651D01*
X0002546226Y0000634220D01*
X0002546310Y0000634784D01*
X0002546448Y0000635336D01*
X0002546640Y0000635873D01*
X0002546884Y0000636388D01*
X0002547177Y0000636877D01*
X0002547516Y0000637335D01*
X0002547899Y0000637757D01*
X0002548321Y0000638140D01*
X0002548779Y0000638479D01*
X0002549268Y0000638772D01*
X0002549783Y0000639016D01*
X0002550319Y0000639208D01*
X0002550872Y0000639346D01*
X0002551436Y0000639430D01*
X0002552005Y0000639458D01*
X0002563619Y0000639458D01*
X0002564188Y0000639430D01*
X0002564188Y0000639430D01*
G37*
D28*
X0002557812Y0000626859D03*
D27*
G36*
X0001918581Y0000544066D02*
X0001919144Y0000543982D01*
X0001919697Y0000543844D01*
X0001920234Y0000543652D01*
X0001920749Y0000543408D01*
X0001921238Y0000543115D01*
X0001921695Y0000542776D01*
X0001922118Y0000542393D01*
X0001922500Y0000541971D01*
X0001922840Y0000541513D01*
X0001923133Y0000541024D01*
X0001923376Y0000540509D01*
X0001923568Y0000539973D01*
X0001923707Y0000539420D01*
X0001923790Y0000538856D01*
X0001923818Y0000538287D01*
X0001923818Y0000524704D01*
X0001923790Y0000524135D01*
X0001923707Y0000523571D01*
X0001923568Y0000523019D01*
X0001923376Y0000522482D01*
X0001923133Y0000521967D01*
X0001922840Y0000521478D01*
X0001922500Y0000521020D01*
X0001922118Y0000520598D01*
X0001921695Y0000520215D01*
X0001921238Y0000519876D01*
X0001920749Y0000519583D01*
X0001920234Y0000519339D01*
X0001919697Y0000519147D01*
X0001919144Y0000519009D01*
X0001918581Y0000518925D01*
X0001918011Y0000518897D01*
X0001906397Y0000518897D01*
X0001905828Y0000518925D01*
X0001905264Y0000519009D01*
X0001904711Y0000519147D01*
X0001904175Y0000519339D01*
X0001903660Y0000519583D01*
X0001903171Y0000519876D01*
X0001902713Y0000520215D01*
X0001902291Y0000520598D01*
X0001901908Y0000521020D01*
X0001901569Y0000521478D01*
X0001901276Y0000521967D01*
X0001901032Y0000522482D01*
X0001900840Y0000523019D01*
X0001900702Y0000523571D01*
X0001900618Y0000524135D01*
X0001900590Y0000524704D01*
X0001900590Y0000538287D01*
X0001900618Y0000538856D01*
X0001900702Y0000539420D01*
X0001900840Y0000539973D01*
X0001901032Y0000540509D01*
X0001901276Y0000541024D01*
X0001901569Y0000541513D01*
X0001901908Y0000541971D01*
X0001902291Y0000542393D01*
X0001902713Y0000542776D01*
X0001903171Y0000543115D01*
X0001903660Y0000543408D01*
X0001904175Y0000543652D01*
X0001904711Y0000543844D01*
X0001905264Y0000543982D01*
X0001905828Y0000544066D01*
X0001906397Y0000544094D01*
X0001918011Y0000544094D01*
X0001918581Y0000544066D01*
X0001918581Y0000544066D01*
G37*
D28*
X0001912204Y0000531496D03*
D27*
G36*
X0001880392Y0000544066D02*
X0001880955Y0000543982D01*
X0001881508Y0000543844D01*
X0001882045Y0000543652D01*
X0001882560Y0000543408D01*
X0001883049Y0000543115D01*
X0001883506Y0000542776D01*
X0001883929Y0000542393D01*
X0001884311Y0000541971D01*
X0001884651Y0000541513D01*
X0001884944Y0000541024D01*
X0001885187Y0000540509D01*
X0001885379Y0000539973D01*
X0001885518Y0000539420D01*
X0001885601Y0000538856D01*
X0001885629Y0000538287D01*
X0001885629Y0000524704D01*
X0001885601Y0000524135D01*
X0001885518Y0000523571D01*
X0001885379Y0000523019D01*
X0001885187Y0000522482D01*
X0001884944Y0000521967D01*
X0001884651Y0000521478D01*
X0001884311Y0000521020D01*
X0001883929Y0000520598D01*
X0001883506Y0000520215D01*
X0001883049Y0000519876D01*
X0001882560Y0000519583D01*
X0001882045Y0000519339D01*
X0001881508Y0000519147D01*
X0001880955Y0000519009D01*
X0001880392Y0000518925D01*
X0001879822Y0000518897D01*
X0001868208Y0000518897D01*
X0001867639Y0000518925D01*
X0001867075Y0000519009D01*
X0001866522Y0000519147D01*
X0001865986Y0000519339D01*
X0001865471Y0000519583D01*
X0001864982Y0000519876D01*
X0001864524Y0000520215D01*
X0001864102Y0000520598D01*
X0001863719Y0000521020D01*
X0001863380Y0000521478D01*
X0001863087Y0000521967D01*
X0001862843Y0000522482D01*
X0001862651Y0000523019D01*
X0001862513Y0000523571D01*
X0001862429Y0000524135D01*
X0001862401Y0000524704D01*
X0001862401Y0000538287D01*
X0001862429Y0000538856D01*
X0001862513Y0000539420D01*
X0001862651Y0000539973D01*
X0001862843Y0000540509D01*
X0001863087Y0000541024D01*
X0001863380Y0000541513D01*
X0001863719Y0000541971D01*
X0001864102Y0000542393D01*
X0001864524Y0000542776D01*
X0001864982Y0000543115D01*
X0001865471Y0000543408D01*
X0001865986Y0000543652D01*
X0001866522Y0000543844D01*
X0001867075Y0000543982D01*
X0001867639Y0000544066D01*
X0001868208Y0000544094D01*
X0001879822Y0000544094D01*
X0001880392Y0000544066D01*
X0001880392Y0000544066D01*
G37*
D28*
X0001874015Y0000531496D03*
D30*
X0001895669Y0000600396D03*
X0001895669Y0000726380D03*
X0002088582Y0000600396D03*
X0002088582Y0000726380D03*
X0003220472Y0000614173D03*
X0003220472Y0000740157D03*
X0003413385Y0000614173D03*
X0003413385Y0000740157D03*
D31*
X0002698962Y0000402881D03*
D27*
G36*
X0002731673Y0000388265D02*
X0002713578Y0000370170D01*
X0002666252Y0000417496D01*
X0002684347Y0000435591D01*
X0002731673Y0000388265D01*
X0002731673Y0000388265D01*
G37*
D31*
X0002663607Y0000367525D03*
D27*
G36*
X0002696318Y0000352910D02*
X0002678222Y0000334815D01*
X0002630896Y0000382141D01*
X0002648992Y0000400236D01*
X0002696318Y0000352910D01*
X0002696318Y0000352910D01*
G37*
D31*
X0002628252Y0000332170D03*
D27*
G36*
X0002660962Y0000317554D02*
X0002642867Y0000299459D01*
X0002595541Y0000346785D01*
X0002613636Y0000364880D01*
X0002660962Y0000317554D01*
X0002660962Y0000317554D01*
G37*
D31*
X0002592896Y0000296815D03*
D27*
G36*
X0002625607Y0000282199D02*
X0002607512Y0000264104D01*
X0002560186Y0000311430D01*
X0002578281Y0000329525D01*
X0002625607Y0000282199D01*
X0002625607Y0000282199D01*
G37*
D31*
X0002389673Y0000500038D03*
D27*
G36*
X0002422383Y0000485423D02*
X0002404288Y0000467327D01*
X0002356962Y0000514653D01*
X0002375057Y0000532749D01*
X0002422383Y0000485423D01*
X0002422383Y0000485423D01*
G37*
D31*
X0002425028Y0000535393D03*
D27*
G36*
X0002457739Y0000520778D02*
X0002439644Y0000502683D01*
X0002392317Y0000550009D01*
X0002410413Y0000568104D01*
X0002457739Y0000520778D01*
X0002457739Y0000520778D01*
G37*
D31*
X0002460383Y0000570749D03*
D27*
G36*
X0002493094Y0000556133D02*
X0002474999Y0000538038D01*
X0002427673Y0000585364D01*
X0002445768Y0000603459D01*
X0002493094Y0000556133D01*
X0002493094Y0000556133D01*
G37*
D31*
X0002495739Y0000606104D03*
D27*
G36*
X0002528449Y0000591489D02*
X0002510354Y0000573393D01*
X0002463028Y0000620720D01*
X0002481123Y0000638815D01*
X0002528449Y0000591489D01*
X0002528449Y0000591489D01*
G37*
G04 next file*
G04 Gerber Fmt 4.6, Leading zero omitted, Abs format (unit mm)*
G04 Created by KiCad (PCBNEW 5.0.1-33cea8e~68~ubuntu18.04.1) date Di 04 Dez 2018 23:45:32 CET*
G01*
G04 APERTURE LIST*
G04 APERTURE END LIST*
D32*
X0000156496Y0001238188D02*
X0000101377Y0001238188D01*
X0000156496Y0001094488D02*
X0000156496Y0001238188D01*
X0001679543Y0001371892D02*
G75*
G02X0000156496Y0001094488I-0000844898J0000319052D01*
G01*
X0001680118Y0001588582D02*
X0001679646Y0001371853D01*
X0001340551Y0001588582D02*
X0001680118Y0001588582D01*
X0001190944Y0001470472D02*
X0001340551Y0001588582D01*
X0000405511Y0001470472D02*
X0001190944Y0001470472D01*
X0000405511Y0001574803D02*
X0000405511Y0001470472D01*
X0000001968Y0001574803D02*
X0000405511Y0001574803D01*
X0000001968Y0001293307D02*
X0000001968Y0001574803D01*
X0000033464Y0001238188D02*
X0000001968Y0001293307D01*
X0000101377Y0001238188D02*
X0000033464Y0001238188D01*
X0001313976Y0001283464D02*
G75*
G03X0001313976Y0001283464I-0000031496D01*
G01*
X0000593503Y0001162401D02*
G75*
G03X0000593503Y0001162401I-0000051181D01*
G01*
D33*
G36*
X0001416415Y0001341310D02*
X0001416979Y0001341227D01*
X0001417532Y0001341088D01*
X0001418068Y0001340896D01*
X0001418583Y0001340652D01*
X0001419072Y0001340359D01*
X0001419530Y0001340020D01*
X0001419952Y0001339637D01*
X0001420335Y0001339215D01*
X0001420674Y0001338757D01*
X0001420967Y0001338268D01*
X0001421211Y0001337753D01*
X0001421403Y0001337217D01*
X0001421541Y0001336664D01*
X0001421625Y0001336100D01*
X0001421653Y0001335531D01*
X0001421653Y0001321948D01*
X0001421625Y0001321379D01*
X0001421541Y0001320815D01*
X0001421403Y0001320263D01*
X0001421211Y0001319726D01*
X0001420967Y0001319211D01*
X0001420674Y0001318722D01*
X0001420335Y0001318264D01*
X0001419952Y0001317842D01*
X0001419530Y0001317459D01*
X0001419072Y0001317120D01*
X0001418583Y0001316827D01*
X0001418068Y0001316583D01*
X0001417532Y0001316391D01*
X0001416979Y0001316253D01*
X0001416415Y0001316169D01*
X0001415846Y0001316141D01*
X0001404232Y0001316141D01*
X0001403663Y0001316169D01*
X0001403099Y0001316253D01*
X0001402546Y0001316391D01*
X0001402009Y0001316583D01*
X0001401494Y0001316827D01*
X0001401006Y0001317120D01*
X0001400548Y0001317459D01*
X0001400126Y0001317842D01*
X0001399743Y0001318264D01*
X0001399403Y0001318722D01*
X0001399110Y0001319211D01*
X0001398867Y0001319726D01*
X0001398675Y0001320263D01*
X0001398536Y0001320815D01*
X0001398453Y0001321379D01*
X0001398425Y0001321948D01*
X0001398425Y0001335531D01*
X0001398453Y0001336100D01*
X0001398536Y0001336664D01*
X0001398675Y0001337217D01*
X0001398867Y0001337753D01*
X0001399110Y0001338268D01*
X0001399403Y0001338757D01*
X0001399743Y0001339215D01*
X0001400126Y0001339637D01*
X0001400548Y0001340020D01*
X0001401006Y0001340359D01*
X0001401494Y0001340652D01*
X0001402009Y0001340896D01*
X0001402546Y0001341088D01*
X0001403099Y0001341227D01*
X0001403663Y0001341310D01*
X0001404232Y0001341338D01*
X0001415846Y0001341338D01*
X0001416415Y0001341310D01*
X0001416415Y0001341310D01*
G37*
D34*
X0001410039Y0001328740D03*
D33*
G36*
X0001454604Y0001341310D02*
X0001455168Y0001341227D01*
X0001455721Y0001341088D01*
X0001456257Y0001340896D01*
X0001456772Y0001340652D01*
X0001457261Y0001340359D01*
X0001457719Y0001340020D01*
X0001458141Y0001339637D01*
X0001458524Y0001339215D01*
X0001458863Y0001338757D01*
X0001459156Y0001338268D01*
X0001459400Y0001337753D01*
X0001459592Y0001337217D01*
X0001459730Y0001336664D01*
X0001459814Y0001336100D01*
X0001459842Y0001335531D01*
X0001459842Y0001321948D01*
X0001459814Y0001321379D01*
X0001459730Y0001320815D01*
X0001459592Y0001320263D01*
X0001459400Y0001319726D01*
X0001459156Y0001319211D01*
X0001458863Y0001318722D01*
X0001458524Y0001318264D01*
X0001458141Y0001317842D01*
X0001457719Y0001317459D01*
X0001457261Y0001317120D01*
X0001456772Y0001316827D01*
X0001456257Y0001316583D01*
X0001455721Y0001316391D01*
X0001455168Y0001316253D01*
X0001454604Y0001316169D01*
X0001454035Y0001316141D01*
X0001442421Y0001316141D01*
X0001441852Y0001316169D01*
X0001441288Y0001316253D01*
X0001440735Y0001316391D01*
X0001440198Y0001316583D01*
X0001439683Y0001316827D01*
X0001439195Y0001317120D01*
X0001438737Y0001317459D01*
X0001438315Y0001317842D01*
X0001437932Y0001318264D01*
X0001437592Y0001318722D01*
X0001437299Y0001319211D01*
X0001437056Y0001319726D01*
X0001436864Y0001320263D01*
X0001436725Y0001320815D01*
X0001436642Y0001321379D01*
X0001436614Y0001321948D01*
X0001436614Y0001335531D01*
X0001436642Y0001336100D01*
X0001436725Y0001336664D01*
X0001436864Y0001337217D01*
X0001437056Y0001337753D01*
X0001437299Y0001338268D01*
X0001437592Y0001338757D01*
X0001437932Y0001339215D01*
X0001438315Y0001339637D01*
X0001438737Y0001340020D01*
X0001439195Y0001340359D01*
X0001439683Y0001340652D01*
X0001440198Y0001340896D01*
X0001440735Y0001341088D01*
X0001441288Y0001341227D01*
X0001441852Y0001341310D01*
X0001442421Y0001341338D01*
X0001454035Y0001341338D01*
X0001454604Y0001341310D01*
X0001454604Y0001341310D01*
G37*
D34*
X0001448228Y0001328740D03*
D33*
G36*
X0001179827Y0001046240D02*
X0001180663Y0001046116D01*
X0001181483Y0001045911D01*
X0001182278Y0001045626D01*
X0001183042Y0001045264D01*
X0001183767Y0001044830D01*
X0001184446Y0001044327D01*
X0001185072Y0001043759D01*
X0001185640Y0001043133D01*
X0001186143Y0001042454D01*
X0001186578Y0001041729D01*
X0001186939Y0001040965D01*
X0001187224Y0001040169D01*
X0001187429Y0001039349D01*
X0001187553Y0001038513D01*
X0001187595Y0001037669D01*
X0001187595Y0001020445D01*
X0001187553Y0001019601D01*
X0001187429Y0001018765D01*
X0001187224Y0001017945D01*
X0001186939Y0001017149D01*
X0001186578Y0001016385D01*
X0001186143Y0001015660D01*
X0001185640Y0001014981D01*
X0001185072Y0001014355D01*
X0001184446Y0001013787D01*
X0001183767Y0001013284D01*
X0001183042Y0001012849D01*
X0001182278Y0001012488D01*
X0001181483Y0001012203D01*
X0001180663Y0001011998D01*
X0001179827Y0001011874D01*
X0001178983Y0001011833D01*
X0001158805Y0001011833D01*
X0001157961Y0001011874D01*
X0001157125Y0001011998D01*
X0001156305Y0001012203D01*
X0001155510Y0001012488D01*
X0001154746Y0001012849D01*
X0001154021Y0001013284D01*
X0001153342Y0001013787D01*
X0001152716Y0001014355D01*
X0001152148Y0001014981D01*
X0001151645Y0001015660D01*
X0001151210Y0001016385D01*
X0001150849Y0001017149D01*
X0001150564Y0001017945D01*
X0001150359Y0001018765D01*
X0001150235Y0001019601D01*
X0001150193Y0001020445D01*
X0001150193Y0001037669D01*
X0001150235Y0001038513D01*
X0001150359Y0001039349D01*
X0001150564Y0001040169D01*
X0001150849Y0001040965D01*
X0001151210Y0001041729D01*
X0001151645Y0001042454D01*
X0001152148Y0001043133D01*
X0001152716Y0001043759D01*
X0001153342Y0001044327D01*
X0001154021Y0001044830D01*
X0001154746Y0001045264D01*
X0001155510Y0001045626D01*
X0001156305Y0001045911D01*
X0001157125Y0001046116D01*
X0001157961Y0001046240D01*
X0001158805Y0001046281D01*
X0001178983Y0001046281D01*
X0001179827Y0001046240D01*
X0001179827Y0001046240D01*
G37*
D35*
X0001168894Y0001029057D03*
D33*
G36*
X0001179827Y0001108248D02*
X0001180663Y0001108124D01*
X0001181483Y0001107918D01*
X0001182278Y0001107634D01*
X0001183042Y0001107272D01*
X0001183767Y0001106838D01*
X0001184446Y0001106334D01*
X0001185072Y0001105767D01*
X0001185640Y0001105141D01*
X0001186143Y0001104462D01*
X0001186578Y0001103737D01*
X0001186939Y0001102973D01*
X0001187224Y0001102177D01*
X0001187429Y0001101357D01*
X0001187553Y0001100521D01*
X0001187595Y0001099677D01*
X0001187595Y0001082453D01*
X0001187553Y0001081609D01*
X0001187429Y0001080772D01*
X0001187224Y0001079953D01*
X0001186939Y0001079157D01*
X0001186578Y0001078393D01*
X0001186143Y0001077668D01*
X0001185640Y0001076989D01*
X0001185072Y0001076363D01*
X0001184446Y0001075795D01*
X0001183767Y0001075292D01*
X0001183042Y0001074857D01*
X0001182278Y0001074496D01*
X0001181483Y0001074211D01*
X0001180663Y0001074006D01*
X0001179827Y0001073882D01*
X0001178983Y0001073840D01*
X0001158805Y0001073840D01*
X0001157961Y0001073882D01*
X0001157125Y0001074006D01*
X0001156305Y0001074211D01*
X0001155510Y0001074496D01*
X0001154746Y0001074857D01*
X0001154021Y0001075292D01*
X0001153342Y0001075795D01*
X0001152716Y0001076363D01*
X0001152148Y0001076989D01*
X0001151645Y0001077668D01*
X0001151210Y0001078393D01*
X0001150849Y0001079157D01*
X0001150564Y0001079953D01*
X0001150359Y0001080772D01*
X0001150235Y0001081609D01*
X0001150193Y0001082453D01*
X0001150193Y0001099677D01*
X0001150235Y0001100521D01*
X0001150359Y0001101357D01*
X0001150564Y0001102177D01*
X0001150849Y0001102973D01*
X0001151210Y0001103737D01*
X0001151645Y0001104462D01*
X0001152148Y0001105141D01*
X0001152716Y0001105767D01*
X0001153342Y0001106334D01*
X0001154021Y0001106838D01*
X0001154746Y0001107272D01*
X0001155510Y0001107634D01*
X0001156305Y0001107918D01*
X0001157125Y0001108124D01*
X0001157961Y0001108248D01*
X0001158805Y0001108289D01*
X0001178983Y0001108289D01*
X0001179827Y0001108248D01*
X0001179827Y0001108248D01*
G37*
D35*
X0001168894Y0001091065D03*
D33*
G36*
X0000714976Y0001426831D02*
X0000715540Y0001426748D01*
X0000716092Y0001426609D01*
X0000716629Y0001426417D01*
X0000717144Y0001426174D01*
X0000717633Y0001425881D01*
X0000718091Y0001425541D01*
X0000718513Y0001425158D01*
X0000718895Y0001424736D01*
X0000719235Y0001424279D01*
X0000719528Y0001423790D01*
X0000719772Y0001423275D01*
X0000719964Y0001422738D01*
X0000720102Y0001422185D01*
X0000720186Y0001421621D01*
X0000720214Y0001421052D01*
X0000720214Y0001407470D01*
X0000720186Y0001406900D01*
X0000720102Y0001406337D01*
X0000719964Y0001405784D01*
X0000719772Y0001405247D01*
X0000719528Y0001404732D01*
X0000719235Y0001404243D01*
X0000718895Y0001403786D01*
X0000718513Y0001403363D01*
X0000718091Y0001402981D01*
X0000717633Y0001402641D01*
X0000717144Y0001402348D01*
X0000716629Y0001402105D01*
X0000716092Y0001401913D01*
X0000715540Y0001401774D01*
X0000714976Y0001401690D01*
X0000714407Y0001401662D01*
X0000702792Y0001401662D01*
X0000702223Y0001401690D01*
X0000701660Y0001401774D01*
X0000701107Y0001401913D01*
X0000700570Y0001402105D01*
X0000700055Y0001402348D01*
X0000699566Y0001402641D01*
X0000699108Y0001402981D01*
X0000698686Y0001403363D01*
X0000698303Y0001403786D01*
X0000697964Y0001404243D01*
X0000697671Y0001404732D01*
X0000697427Y0001405247D01*
X0000697235Y0001405784D01*
X0000697097Y0001406337D01*
X0000697013Y0001406900D01*
X0000696985Y0001407470D01*
X0000696985Y0001421052D01*
X0000697013Y0001421621D01*
X0000697097Y0001422185D01*
X0000697235Y0001422738D01*
X0000697427Y0001423275D01*
X0000697671Y0001423790D01*
X0000697964Y0001424279D01*
X0000698303Y0001424736D01*
X0000698686Y0001425158D01*
X0000699108Y0001425541D01*
X0000699566Y0001425881D01*
X0000700055Y0001426174D01*
X0000700570Y0001426417D01*
X0000701107Y0001426609D01*
X0000701660Y0001426748D01*
X0000702223Y0001426831D01*
X0000702792Y0001426859D01*
X0000714407Y0001426859D01*
X0000714976Y0001426831D01*
X0000714976Y0001426831D01*
G37*
D34*
X0000708600Y0001414261D03*
D33*
G36*
X0000753165Y0001426831D02*
X0000753728Y0001426748D01*
X0000754281Y0001426609D01*
X0000754818Y0001426417D01*
X0000755333Y0001426174D01*
X0000755822Y0001425881D01*
X0000756280Y0001425541D01*
X0000756702Y0001425158D01*
X0000757084Y0001424736D01*
X0000757424Y0001424279D01*
X0000757717Y0001423790D01*
X0000757961Y0001423275D01*
X0000758153Y0001422738D01*
X0000758291Y0001422185D01*
X0000758375Y0001421621D01*
X0000758403Y0001421052D01*
X0000758403Y0001407470D01*
X0000758375Y0001406900D01*
X0000758291Y0001406337D01*
X0000758153Y0001405784D01*
X0000757961Y0001405247D01*
X0000757717Y0001404732D01*
X0000757424Y0001404243D01*
X0000757084Y0001403786D01*
X0000756702Y0001403363D01*
X0000756280Y0001402981D01*
X0000755822Y0001402641D01*
X0000755333Y0001402348D01*
X0000754818Y0001402105D01*
X0000754281Y0001401913D01*
X0000753728Y0001401774D01*
X0000753165Y0001401690D01*
X0000752596Y0001401662D01*
X0000740981Y0001401662D01*
X0000740412Y0001401690D01*
X0000739848Y0001401774D01*
X0000739296Y0001401913D01*
X0000738759Y0001402105D01*
X0000738244Y0001402348D01*
X0000737755Y0001402641D01*
X0000737297Y0001402981D01*
X0000736875Y0001403363D01*
X0000736492Y0001403786D01*
X0000736153Y0001404243D01*
X0000735860Y0001404732D01*
X0000735616Y0001405247D01*
X0000735424Y0001405784D01*
X0000735286Y0001406337D01*
X0000735202Y0001406900D01*
X0000735174Y0001407470D01*
X0000735174Y0001421052D01*
X0000735202Y0001421621D01*
X0000735286Y0001422185D01*
X0000735424Y0001422738D01*
X0000735616Y0001423275D01*
X0000735860Y0001423790D01*
X0000736153Y0001424279D01*
X0000736492Y0001424736D01*
X0000736875Y0001425158D01*
X0000737297Y0001425541D01*
X0000737755Y0001425881D01*
X0000738244Y0001426174D01*
X0000738759Y0001426417D01*
X0000739296Y0001426609D01*
X0000739848Y0001426748D01*
X0000740412Y0001426831D01*
X0000740981Y0001426859D01*
X0000752596Y0001426859D01*
X0000753165Y0001426831D01*
X0000753165Y0001426831D01*
G37*
D34*
X0000746788Y0001414261D03*
D33*
G36*
X0000107557Y0001331468D02*
X0000108121Y0001331384D01*
X0000108673Y0001331246D01*
X0000109210Y0001331054D01*
X0000109725Y0001330810D01*
X0000110214Y0001330517D01*
X0000110672Y0001330177D01*
X0000111094Y0001329795D01*
X0000111477Y0001329372D01*
X0000111816Y0001328915D01*
X0000112109Y0001328426D01*
X0000112353Y0001327911D01*
X0000112545Y0001327374D01*
X0000112683Y0001326821D01*
X0000112767Y0001326258D01*
X0000112795Y0001325688D01*
X0000112795Y0001312106D01*
X0000112767Y0001311537D01*
X0000112683Y0001310973D01*
X0000112545Y0001310420D01*
X0000112353Y0001309884D01*
X0000112109Y0001309368D01*
X0000111816Y0001308880D01*
X0000111477Y0001308422D01*
X0000111094Y0001308000D01*
X0000110672Y0001307617D01*
X0000110214Y0001307277D01*
X0000109725Y0001306984D01*
X0000109210Y0001306741D01*
X0000108673Y0001306549D01*
X0000108121Y0001306410D01*
X0000107557Y0001306327D01*
X0000106988Y0001306299D01*
X0000095373Y0001306299D01*
X0000094804Y0001306327D01*
X0000094241Y0001306410D01*
X0000093688Y0001306549D01*
X0000093151Y0001306741D01*
X0000092636Y0001306984D01*
X0000092147Y0001307277D01*
X0000091690Y0001307617D01*
X0000091267Y0001308000D01*
X0000090885Y0001308422D01*
X0000090545Y0001308880D01*
X0000090252Y0001309368D01*
X0000090008Y0001309884D01*
X0000089816Y0001310420D01*
X0000089678Y0001310973D01*
X0000089594Y0001311537D01*
X0000089566Y0001312106D01*
X0000089566Y0001325688D01*
X0000089594Y0001326258D01*
X0000089678Y0001326821D01*
X0000089816Y0001327374D01*
X0000090008Y0001327911D01*
X0000090252Y0001328426D01*
X0000090545Y0001328915D01*
X0000090885Y0001329372D01*
X0000091267Y0001329795D01*
X0000091690Y0001330177D01*
X0000092147Y0001330517D01*
X0000092636Y0001330810D01*
X0000093151Y0001331054D01*
X0000093688Y0001331246D01*
X0000094241Y0001331384D01*
X0000094804Y0001331468D01*
X0000095373Y0001331496D01*
X0000106988Y0001331496D01*
X0000107557Y0001331468D01*
X0000107557Y0001331468D01*
G37*
D34*
X0000101181Y0001318897D03*
D33*
G36*
X0000069368Y0001331468D02*
X0000069932Y0001331384D01*
X0000070484Y0001331246D01*
X0000071021Y0001331054D01*
X0000071536Y0001330810D01*
X0000072025Y0001330517D01*
X0000072483Y0001330177D01*
X0000072905Y0001329795D01*
X0000073288Y0001329372D01*
X0000073627Y0001328915D01*
X0000073920Y0001328426D01*
X0000074164Y0001327911D01*
X0000074356Y0001327374D01*
X0000074494Y0001326821D01*
X0000074578Y0001326258D01*
X0000074606Y0001325688D01*
X0000074606Y0001312106D01*
X0000074578Y0001311537D01*
X0000074494Y0001310973D01*
X0000074356Y0001310420D01*
X0000074164Y0001309884D01*
X0000073920Y0001309368D01*
X0000073627Y0001308880D01*
X0000073288Y0001308422D01*
X0000072905Y0001308000D01*
X0000072483Y0001307617D01*
X0000072025Y0001307277D01*
X0000071536Y0001306984D01*
X0000071021Y0001306741D01*
X0000070484Y0001306549D01*
X0000069932Y0001306410D01*
X0000069368Y0001306327D01*
X0000068799Y0001306299D01*
X0000057185Y0001306299D01*
X0000056615Y0001306327D01*
X0000056052Y0001306410D01*
X0000055499Y0001306549D01*
X0000054962Y0001306741D01*
X0000054447Y0001306984D01*
X0000053958Y0001307277D01*
X0000053501Y0001307617D01*
X0000053078Y0001308000D01*
X0000052696Y0001308422D01*
X0000052356Y0001308880D01*
X0000052063Y0001309368D01*
X0000051819Y0001309884D01*
X0000051627Y0001310420D01*
X0000051489Y0001310973D01*
X0000051405Y0001311537D01*
X0000051377Y0001312106D01*
X0000051377Y0001325688D01*
X0000051405Y0001326258D01*
X0000051489Y0001326821D01*
X0000051627Y0001327374D01*
X0000051819Y0001327911D01*
X0000052063Y0001328426D01*
X0000052356Y0001328915D01*
X0000052696Y0001329372D01*
X0000053078Y0001329795D01*
X0000053501Y0001330177D01*
X0000053958Y0001330517D01*
X0000054447Y0001330810D01*
X0000054962Y0001331054D01*
X0000055499Y0001331246D01*
X0000056052Y0001331384D01*
X0000056615Y0001331468D01*
X0000057185Y0001331496D01*
X0000068799Y0001331496D01*
X0000069368Y0001331468D01*
X0000069368Y0001331468D01*
G37*
D34*
X0000062992Y0001318897D03*
D36*
X0000084645Y0001387797D03*
X0000084645Y0001513782D03*
X0000277559Y0001387797D03*
X0000277559Y0001513782D03*
X0001409448Y0001401574D03*
X0001409448Y0001527559D03*
X0001602362Y0001401574D03*
X0001602362Y0001527559D03*
D37*
X0000887939Y0001190282D03*
D33*
G36*
X0000920649Y0001175667D02*
X0000902554Y0001157571D01*
X0000855228Y0001204898D01*
X0000873323Y0001222993D01*
X0000920649Y0001175667D01*
X0000920649Y0001175667D01*
G37*
D37*
X0000852583Y0001154927D03*
D33*
G36*
X0000885294Y0001140311D02*
X0000867199Y0001122216D01*
X0000819873Y0001169542D01*
X0000837968Y0001187637D01*
X0000885294Y0001140311D01*
X0000885294Y0001140311D01*
G37*
D37*
X0000817228Y0001119571D03*
D33*
G36*
X0000849939Y0001104956D02*
X0000831844Y0001086861D01*
X0000784517Y0001134187D01*
X0000802613Y0001152282D01*
X0000849939Y0001104956D01*
X0000849939Y0001104956D01*
G37*
D37*
X0000781873Y0001084216D03*
D33*
G36*
X0000814583Y0001069601D02*
X0000796488Y0001051505D01*
X0000749162Y0001098831D01*
X0000767257Y0001116927D01*
X0000814583Y0001069601D01*
X0000814583Y0001069601D01*
G37*
D37*
X0000578649Y0001287440D03*
D33*
G36*
X0000611360Y0001272824D02*
X0000593265Y0001254729D01*
X0000545939Y0001302055D01*
X0000564034Y0001320150D01*
X0000611360Y0001272824D01*
X0000611360Y0001272824D01*
G37*
D37*
X0000614004Y0001322795D03*
D33*
G36*
X0000646715Y0001308180D02*
X0000628620Y0001290084D01*
X0000581294Y0001337410D01*
X0000599389Y0001355506D01*
X0000646715Y0001308180D01*
X0000646715Y0001308180D01*
G37*
D37*
X0000649360Y0001358150D03*
D33*
G36*
X0000682070Y0001343535D02*
X0000663975Y0001325440D01*
X0000616649Y0001372766D01*
X0000634744Y0001390861D01*
X0000682070Y0001343535D01*
X0000682070Y0001343535D01*
G37*
D37*
X0000684715Y0001393506D03*
D33*
G36*
X0000717426Y0001378890D02*
X0000699331Y0001360795D01*
X0000652005Y0001408121D01*
X0000670100Y0001426216D01*
X0000717426Y0001378890D01*
X0000717426Y0001378890D01*
G37*
G04 next file*
G04 Gerber Fmt 4.6, Leading zero omitted, Abs format (unit mm)*
G04 Created by KiCad (PCBNEW 5.0.1-33cea8e~68~ubuntu18.04.1) date Di 04 Dez 2018 23:45:32 CET*
G01*
G04 APERTURE LIST*
G04 APERTURE END LIST*
D38*
X0000156496Y0002025590D02*
X0000101377Y0002025590D01*
X0000156496Y0001881889D02*
X0000156496Y0002025590D01*
X0001679543Y0002159293D02*
G75*
G02X0000156496Y0001881889I-0000844898J0000319052D01*
G01*
X0001680118Y0002375984D02*
X0001679646Y0002159255D01*
X0001340551Y0002375984D02*
X0001680118Y0002375984D01*
X0001190944Y0002257873D02*
X0001340551Y0002375984D01*
X0000405511Y0002257873D02*
X0001190944Y0002257873D01*
X0000405511Y0002362204D02*
X0000405511Y0002257873D01*
X0000001968Y0002362204D02*
X0000405511Y0002362204D01*
X0000001968Y0002080708D02*
X0000001968Y0002362204D01*
X0000033464Y0002025590D02*
X0000001968Y0002080708D01*
X0000101377Y0002025590D02*
X0000033464Y0002025590D01*
X0001313976Y0002070866D02*
G75*
G03X0001313976Y0002070866I-0000031496D01*
G01*
X0000593503Y0001949803D02*
G75*
G03X0000593503Y0001949803I-0000051181D01*
G01*
D39*
G36*
X0001416415Y0002128712D02*
X0001416979Y0002128628D01*
X0001417532Y0002128490D01*
X0001418068Y0002128298D01*
X0001418583Y0002128054D01*
X0001419072Y0002127761D01*
X0001419530Y0002127422D01*
X0001419952Y0002127039D01*
X0001420335Y0002126617D01*
X0001420674Y0002126159D01*
X0001420967Y0002125670D01*
X0001421211Y0002125155D01*
X0001421403Y0002124618D01*
X0001421541Y0002124065D01*
X0001421625Y0002123502D01*
X0001421653Y0002122933D01*
X0001421653Y0002109350D01*
X0001421625Y0002108781D01*
X0001421541Y0002108217D01*
X0001421403Y0002107664D01*
X0001421211Y0002107128D01*
X0001420967Y0002106612D01*
X0001420674Y0002106124D01*
X0001420335Y0002105666D01*
X0001419952Y0002105244D01*
X0001419530Y0002104861D01*
X0001419072Y0002104521D01*
X0001418583Y0002104229D01*
X0001418068Y0002103985D01*
X0001417532Y0002103793D01*
X0001416979Y0002103654D01*
X0001416415Y0002103571D01*
X0001415846Y0002103543D01*
X0001404232Y0002103543D01*
X0001403663Y0002103571D01*
X0001403099Y0002103654D01*
X0001402546Y0002103793D01*
X0001402009Y0002103985D01*
X0001401494Y0002104229D01*
X0001401006Y0002104521D01*
X0001400548Y0002104861D01*
X0001400126Y0002105244D01*
X0001399743Y0002105666D01*
X0001399403Y0002106124D01*
X0001399110Y0002106612D01*
X0001398867Y0002107128D01*
X0001398675Y0002107664D01*
X0001398536Y0002108217D01*
X0001398453Y0002108781D01*
X0001398425Y0002109350D01*
X0001398425Y0002122933D01*
X0001398453Y0002123502D01*
X0001398536Y0002124065D01*
X0001398675Y0002124618D01*
X0001398867Y0002125155D01*
X0001399110Y0002125670D01*
X0001399403Y0002126159D01*
X0001399743Y0002126617D01*
X0001400126Y0002127039D01*
X0001400548Y0002127422D01*
X0001401006Y0002127761D01*
X0001401494Y0002128054D01*
X0001402009Y0002128298D01*
X0001402546Y0002128490D01*
X0001403099Y0002128628D01*
X0001403663Y0002128712D01*
X0001404232Y0002128740D01*
X0001415846Y0002128740D01*
X0001416415Y0002128712D01*
X0001416415Y0002128712D01*
G37*
D40*
X0001410039Y0002116141D03*
D39*
G36*
X0001454604Y0002128712D02*
X0001455168Y0002128628D01*
X0001455721Y0002128490D01*
X0001456257Y0002128298D01*
X0001456772Y0002128054D01*
X0001457261Y0002127761D01*
X0001457719Y0002127422D01*
X0001458141Y0002127039D01*
X0001458524Y0002126617D01*
X0001458863Y0002126159D01*
X0001459156Y0002125670D01*
X0001459400Y0002125155D01*
X0001459592Y0002124618D01*
X0001459730Y0002124065D01*
X0001459814Y0002123502D01*
X0001459842Y0002122933D01*
X0001459842Y0002109350D01*
X0001459814Y0002108781D01*
X0001459730Y0002108217D01*
X0001459592Y0002107664D01*
X0001459400Y0002107128D01*
X0001459156Y0002106612D01*
X0001458863Y0002106124D01*
X0001458524Y0002105666D01*
X0001458141Y0002105244D01*
X0001457719Y0002104861D01*
X0001457261Y0002104521D01*
X0001456772Y0002104229D01*
X0001456257Y0002103985D01*
X0001455721Y0002103793D01*
X0001455168Y0002103654D01*
X0001454604Y0002103571D01*
X0001454035Y0002103543D01*
X0001442421Y0002103543D01*
X0001441852Y0002103571D01*
X0001441288Y0002103654D01*
X0001440735Y0002103793D01*
X0001440198Y0002103985D01*
X0001439683Y0002104229D01*
X0001439195Y0002104521D01*
X0001438737Y0002104861D01*
X0001438315Y0002105244D01*
X0001437932Y0002105666D01*
X0001437592Y0002106124D01*
X0001437299Y0002106612D01*
X0001437056Y0002107128D01*
X0001436864Y0002107664D01*
X0001436725Y0002108217D01*
X0001436642Y0002108781D01*
X0001436614Y0002109350D01*
X0001436614Y0002122933D01*
X0001436642Y0002123502D01*
X0001436725Y0002124065D01*
X0001436864Y0002124618D01*
X0001437056Y0002125155D01*
X0001437299Y0002125670D01*
X0001437592Y0002126159D01*
X0001437932Y0002126617D01*
X0001438315Y0002127039D01*
X0001438737Y0002127422D01*
X0001439195Y0002127761D01*
X0001439683Y0002128054D01*
X0001440198Y0002128298D01*
X0001440735Y0002128490D01*
X0001441288Y0002128628D01*
X0001441852Y0002128712D01*
X0001442421Y0002128740D01*
X0001454035Y0002128740D01*
X0001454604Y0002128712D01*
X0001454604Y0002128712D01*
G37*
D40*
X0001448228Y0002116141D03*
D39*
G36*
X0001179827Y0001833642D02*
X0001180663Y0001833517D01*
X0001181483Y0001833312D01*
X0001182278Y0001833027D01*
X0001183042Y0001832666D01*
X0001183767Y0001832232D01*
X0001184446Y0001831728D01*
X0001185072Y0001831160D01*
X0001185640Y0001830534D01*
X0001186143Y0001829855D01*
X0001186578Y0001829131D01*
X0001186939Y0001828367D01*
X0001187224Y0001827571D01*
X0001187429Y0001826751D01*
X0001187553Y0001825915D01*
X0001187595Y0001825071D01*
X0001187595Y0001807846D01*
X0001187553Y0001807002D01*
X0001187429Y0001806166D01*
X0001187224Y0001805346D01*
X0001186939Y0001804551D01*
X0001186578Y0001803787D01*
X0001186143Y0001803062D01*
X0001185640Y0001802383D01*
X0001185072Y0001801757D01*
X0001184446Y0001801189D01*
X0001183767Y0001800686D01*
X0001183042Y0001800251D01*
X0001182278Y0001799890D01*
X0001181483Y0001799605D01*
X0001180663Y0001799400D01*
X0001179827Y0001799276D01*
X0001178983Y0001799234D01*
X0001158805Y0001799234D01*
X0001157961Y0001799276D01*
X0001157125Y0001799400D01*
X0001156305Y0001799605D01*
X0001155510Y0001799890D01*
X0001154746Y0001800251D01*
X0001154021Y0001800686D01*
X0001153342Y0001801189D01*
X0001152716Y0001801757D01*
X0001152148Y0001802383D01*
X0001151645Y0001803062D01*
X0001151210Y0001803787D01*
X0001150849Y0001804551D01*
X0001150564Y0001805346D01*
X0001150359Y0001806166D01*
X0001150235Y0001807002D01*
X0001150193Y0001807846D01*
X0001150193Y0001825071D01*
X0001150235Y0001825915D01*
X0001150359Y0001826751D01*
X0001150564Y0001827571D01*
X0001150849Y0001828367D01*
X0001151210Y0001829131D01*
X0001151645Y0001829855D01*
X0001152148Y0001830534D01*
X0001152716Y0001831160D01*
X0001153342Y0001831728D01*
X0001154021Y0001832232D01*
X0001154746Y0001832666D01*
X0001155510Y0001833027D01*
X0001156305Y0001833312D01*
X0001157125Y0001833517D01*
X0001157961Y0001833642D01*
X0001158805Y0001833683D01*
X0001178983Y0001833683D01*
X0001179827Y0001833642D01*
X0001179827Y0001833642D01*
G37*
D41*
X0001168894Y0001816459D03*
D39*
G36*
X0001179827Y0001895649D02*
X0001180663Y0001895525D01*
X0001181483Y0001895320D01*
X0001182278Y0001895035D01*
X0001183042Y0001894674D01*
X0001183767Y0001894239D01*
X0001184446Y0001893736D01*
X0001185072Y0001893168D01*
X0001185640Y0001892542D01*
X0001186143Y0001891863D01*
X0001186578Y0001891138D01*
X0001186939Y0001890374D01*
X0001187224Y0001889579D01*
X0001187429Y0001888759D01*
X0001187553Y0001887923D01*
X0001187595Y0001887079D01*
X0001187595Y0001869854D01*
X0001187553Y0001869010D01*
X0001187429Y0001868174D01*
X0001187224Y0001867354D01*
X0001186939Y0001866558D01*
X0001186578Y0001865794D01*
X0001186143Y0001865070D01*
X0001185640Y0001864391D01*
X0001185072Y0001863764D01*
X0001184446Y0001863197D01*
X0001183767Y0001862693D01*
X0001183042Y0001862259D01*
X0001182278Y0001861898D01*
X0001181483Y0001861613D01*
X0001180663Y0001861407D01*
X0001179827Y0001861283D01*
X0001178983Y0001861242D01*
X0001158805Y0001861242D01*
X0001157961Y0001861283D01*
X0001157125Y0001861407D01*
X0001156305Y0001861613D01*
X0001155510Y0001861898D01*
X0001154746Y0001862259D01*
X0001154021Y0001862693D01*
X0001153342Y0001863197D01*
X0001152716Y0001863764D01*
X0001152148Y0001864391D01*
X0001151645Y0001865070D01*
X0001151210Y0001865794D01*
X0001150849Y0001866558D01*
X0001150564Y0001867354D01*
X0001150359Y0001868174D01*
X0001150235Y0001869010D01*
X0001150193Y0001869854D01*
X0001150193Y0001887079D01*
X0001150235Y0001887923D01*
X0001150359Y0001888759D01*
X0001150564Y0001889579D01*
X0001150849Y0001890374D01*
X0001151210Y0001891138D01*
X0001151645Y0001891863D01*
X0001152148Y0001892542D01*
X0001152716Y0001893168D01*
X0001153342Y0001893736D01*
X0001154021Y0001894239D01*
X0001154746Y0001894674D01*
X0001155510Y0001895035D01*
X0001156305Y0001895320D01*
X0001157125Y0001895525D01*
X0001157961Y0001895649D01*
X0001158805Y0001895691D01*
X0001178983Y0001895691D01*
X0001179827Y0001895649D01*
X0001179827Y0001895649D01*
G37*
D41*
X0001168894Y0001878466D03*
D39*
G36*
X0000714976Y0002214233D02*
X0000715540Y0002214149D01*
X0000716092Y0002214011D01*
X0000716629Y0002213819D01*
X0000717144Y0002213575D01*
X0000717633Y0002213282D01*
X0000718091Y0002212943D01*
X0000718513Y0002212560D01*
X0000718895Y0002212138D01*
X0000719235Y0002211680D01*
X0000719528Y0002211191D01*
X0000719772Y0002210676D01*
X0000719964Y0002210140D01*
X0000720102Y0002209587D01*
X0000720186Y0002209023D01*
X0000720214Y0002208454D01*
X0000720214Y0002194871D01*
X0000720186Y0002194302D01*
X0000720102Y0002193738D01*
X0000719964Y0002193185D01*
X0000719772Y0002192649D01*
X0000719528Y0002192134D01*
X0000719235Y0002191645D01*
X0000718895Y0002191187D01*
X0000718513Y0002190765D01*
X0000718091Y0002190382D01*
X0000717633Y0002190043D01*
X0000717144Y0002189750D01*
X0000716629Y0002189506D01*
X0000716092Y0002189314D01*
X0000715540Y0002189176D01*
X0000714976Y0002189092D01*
X0000714407Y0002189064D01*
X0000702792Y0002189064D01*
X0000702223Y0002189092D01*
X0000701660Y0002189176D01*
X0000701107Y0002189314D01*
X0000700570Y0002189506D01*
X0000700055Y0002189750D01*
X0000699566Y0002190043D01*
X0000699108Y0002190382D01*
X0000698686Y0002190765D01*
X0000698303Y0002191187D01*
X0000697964Y0002191645D01*
X0000697671Y0002192134D01*
X0000697427Y0002192649D01*
X0000697235Y0002193185D01*
X0000697097Y0002193738D01*
X0000697013Y0002194302D01*
X0000696985Y0002194871D01*
X0000696985Y0002208454D01*
X0000697013Y0002209023D01*
X0000697097Y0002209587D01*
X0000697235Y0002210140D01*
X0000697427Y0002210676D01*
X0000697671Y0002211191D01*
X0000697964Y0002211680D01*
X0000698303Y0002212138D01*
X0000698686Y0002212560D01*
X0000699108Y0002212943D01*
X0000699566Y0002213282D01*
X0000700055Y0002213575D01*
X0000700570Y0002213819D01*
X0000701107Y0002214011D01*
X0000701660Y0002214149D01*
X0000702223Y0002214233D01*
X0000702792Y0002214261D01*
X0000714407Y0002214261D01*
X0000714976Y0002214233D01*
X0000714976Y0002214233D01*
G37*
D40*
X0000708600Y0002201662D03*
D39*
G36*
X0000753165Y0002214233D02*
X0000753728Y0002214149D01*
X0000754281Y0002214011D01*
X0000754818Y0002213819D01*
X0000755333Y0002213575D01*
X0000755822Y0002213282D01*
X0000756280Y0002212943D01*
X0000756702Y0002212560D01*
X0000757084Y0002212138D01*
X0000757424Y0002211680D01*
X0000757717Y0002211191D01*
X0000757961Y0002210676D01*
X0000758153Y0002210140D01*
X0000758291Y0002209587D01*
X0000758375Y0002209023D01*
X0000758403Y0002208454D01*
X0000758403Y0002194871D01*
X0000758375Y0002194302D01*
X0000758291Y0002193738D01*
X0000758153Y0002193185D01*
X0000757961Y0002192649D01*
X0000757717Y0002192134D01*
X0000757424Y0002191645D01*
X0000757084Y0002191187D01*
X0000756702Y0002190765D01*
X0000756280Y0002190382D01*
X0000755822Y0002190043D01*
X0000755333Y0002189750D01*
X0000754818Y0002189506D01*
X0000754281Y0002189314D01*
X0000753728Y0002189176D01*
X0000753165Y0002189092D01*
X0000752596Y0002189064D01*
X0000740981Y0002189064D01*
X0000740412Y0002189092D01*
X0000739848Y0002189176D01*
X0000739296Y0002189314D01*
X0000738759Y0002189506D01*
X0000738244Y0002189750D01*
X0000737755Y0002190043D01*
X0000737297Y0002190382D01*
X0000736875Y0002190765D01*
X0000736492Y0002191187D01*
X0000736153Y0002191645D01*
X0000735860Y0002192134D01*
X0000735616Y0002192649D01*
X0000735424Y0002193185D01*
X0000735286Y0002193738D01*
X0000735202Y0002194302D01*
X0000735174Y0002194871D01*
X0000735174Y0002208454D01*
X0000735202Y0002209023D01*
X0000735286Y0002209587D01*
X0000735424Y0002210140D01*
X0000735616Y0002210676D01*
X0000735860Y0002211191D01*
X0000736153Y0002211680D01*
X0000736492Y0002212138D01*
X0000736875Y0002212560D01*
X0000737297Y0002212943D01*
X0000737755Y0002213282D01*
X0000738244Y0002213575D01*
X0000738759Y0002213819D01*
X0000739296Y0002214011D01*
X0000739848Y0002214149D01*
X0000740412Y0002214233D01*
X0000740981Y0002214261D01*
X0000752596Y0002214261D01*
X0000753165Y0002214233D01*
X0000753165Y0002214233D01*
G37*
D40*
X0000746788Y0002201662D03*
D39*
G36*
X0000107557Y0002118869D02*
X0000108121Y0002118786D01*
X0000108673Y0002118647D01*
X0000109210Y0002118455D01*
X0000109725Y0002118211D01*
X0000110214Y0002117918D01*
X0000110672Y0002117579D01*
X0000111094Y0002117196D01*
X0000111477Y0002116774D01*
X0000111816Y0002116316D01*
X0000112109Y0002115827D01*
X0000112353Y0002115312D01*
X0000112545Y0002114776D01*
X0000112683Y0002114223D01*
X0000112767Y0002113659D01*
X0000112795Y0002113090D01*
X0000112795Y0002099507D01*
X0000112767Y0002098938D01*
X0000112683Y0002098374D01*
X0000112545Y0002097822D01*
X0000112353Y0002097285D01*
X0000112109Y0002096770D01*
X0000111816Y0002096281D01*
X0000111477Y0002095823D01*
X0000111094Y0002095401D01*
X0000110672Y0002095018D01*
X0000110214Y0002094679D01*
X0000109725Y0002094386D01*
X0000109210Y0002094142D01*
X0000108673Y0002093950D01*
X0000108121Y0002093812D01*
X0000107557Y0002093728D01*
X0000106988Y0002093700D01*
X0000095373Y0002093700D01*
X0000094804Y0002093728D01*
X0000094241Y0002093812D01*
X0000093688Y0002093950D01*
X0000093151Y0002094142D01*
X0000092636Y0002094386D01*
X0000092147Y0002094679D01*
X0000091690Y0002095018D01*
X0000091267Y0002095401D01*
X0000090885Y0002095823D01*
X0000090545Y0002096281D01*
X0000090252Y0002096770D01*
X0000090008Y0002097285D01*
X0000089816Y0002097822D01*
X0000089678Y0002098374D01*
X0000089594Y0002098938D01*
X0000089566Y0002099507D01*
X0000089566Y0002113090D01*
X0000089594Y0002113659D01*
X0000089678Y0002114223D01*
X0000089816Y0002114776D01*
X0000090008Y0002115312D01*
X0000090252Y0002115827D01*
X0000090545Y0002116316D01*
X0000090885Y0002116774D01*
X0000091267Y0002117196D01*
X0000091690Y0002117579D01*
X0000092147Y0002117918D01*
X0000092636Y0002118211D01*
X0000093151Y0002118455D01*
X0000093688Y0002118647D01*
X0000094241Y0002118786D01*
X0000094804Y0002118869D01*
X0000095373Y0002118897D01*
X0000106988Y0002118897D01*
X0000107557Y0002118869D01*
X0000107557Y0002118869D01*
G37*
D40*
X0000101181Y0002106299D03*
D39*
G36*
X0000069368Y0002118869D02*
X0000069932Y0002118786D01*
X0000070484Y0002118647D01*
X0000071021Y0002118455D01*
X0000071536Y0002118211D01*
X0000072025Y0002117918D01*
X0000072483Y0002117579D01*
X0000072905Y0002117196D01*
X0000073288Y0002116774D01*
X0000073627Y0002116316D01*
X0000073920Y0002115827D01*
X0000074164Y0002115312D01*
X0000074356Y0002114776D01*
X0000074494Y0002114223D01*
X0000074578Y0002113659D01*
X0000074606Y0002113090D01*
X0000074606Y0002099507D01*
X0000074578Y0002098938D01*
X0000074494Y0002098374D01*
X0000074356Y0002097822D01*
X0000074164Y0002097285D01*
X0000073920Y0002096770D01*
X0000073627Y0002096281D01*
X0000073288Y0002095823D01*
X0000072905Y0002095401D01*
X0000072483Y0002095018D01*
X0000072025Y0002094679D01*
X0000071536Y0002094386D01*
X0000071021Y0002094142D01*
X0000070484Y0002093950D01*
X0000069932Y0002093812D01*
X0000069368Y0002093728D01*
X0000068799Y0002093700D01*
X0000057185Y0002093700D01*
X0000056615Y0002093728D01*
X0000056052Y0002093812D01*
X0000055499Y0002093950D01*
X0000054962Y0002094142D01*
X0000054447Y0002094386D01*
X0000053958Y0002094679D01*
X0000053501Y0002095018D01*
X0000053078Y0002095401D01*
X0000052696Y0002095823D01*
X0000052356Y0002096281D01*
X0000052063Y0002096770D01*
X0000051819Y0002097285D01*
X0000051627Y0002097822D01*
X0000051489Y0002098374D01*
X0000051405Y0002098938D01*
X0000051377Y0002099507D01*
X0000051377Y0002113090D01*
X0000051405Y0002113659D01*
X0000051489Y0002114223D01*
X0000051627Y0002114776D01*
X0000051819Y0002115312D01*
X0000052063Y0002115827D01*
X0000052356Y0002116316D01*
X0000052696Y0002116774D01*
X0000053078Y0002117196D01*
X0000053501Y0002117579D01*
X0000053958Y0002117918D01*
X0000054447Y0002118211D01*
X0000054962Y0002118455D01*
X0000055499Y0002118647D01*
X0000056052Y0002118786D01*
X0000056615Y0002118869D01*
X0000057185Y0002118897D01*
X0000068799Y0002118897D01*
X0000069368Y0002118869D01*
X0000069368Y0002118869D01*
G37*
D40*
X0000062992Y0002106299D03*
D42*
X0000084645Y0002175199D03*
X0000084645Y0002301183D03*
X0000277559Y0002175199D03*
X0000277559Y0002301183D03*
X0001409448Y0002188976D03*
X0001409448Y0002314960D03*
X0001602362Y0002188976D03*
X0001602362Y0002314960D03*
D43*
X0000887939Y0001977684D03*
D39*
G36*
X0000920649Y0001963068D02*
X0000902554Y0001944973D01*
X0000855228Y0001992299D01*
X0000873323Y0002010394D01*
X0000920649Y0001963068D01*
X0000920649Y0001963068D01*
G37*
D43*
X0000852583Y0001942328D03*
D39*
G36*
X0000885294Y0001927713D02*
X0000867199Y0001909618D01*
X0000819873Y0001956944D01*
X0000837968Y0001975039D01*
X0000885294Y0001927713D01*
X0000885294Y0001927713D01*
G37*
D43*
X0000817228Y0001906973D03*
D39*
G36*
X0000849939Y0001892358D02*
X0000831844Y0001874262D01*
X0000784517Y0001921588D01*
X0000802613Y0001939684D01*
X0000849939Y0001892358D01*
X0000849939Y0001892358D01*
G37*
D43*
X0000781873Y0001871618D03*
D39*
G36*
X0000814583Y0001857002D02*
X0000796488Y0001838907D01*
X0000749162Y0001886233D01*
X0000767257Y0001904328D01*
X0000814583Y0001857002D01*
X0000814583Y0001857002D01*
G37*
D43*
X0000578649Y0002074841D03*
D39*
G36*
X0000611360Y0002060226D02*
X0000593265Y0002042131D01*
X0000545939Y0002089457D01*
X0000564034Y0002107552D01*
X0000611360Y0002060226D01*
X0000611360Y0002060226D01*
G37*
D43*
X0000614004Y0002110197D03*
D39*
G36*
X0000646715Y0002095581D02*
X0000628620Y0002077486D01*
X0000581294Y0002124812D01*
X0000599389Y0002142907D01*
X0000646715Y0002095581D01*
X0000646715Y0002095581D01*
G37*
D43*
X0000649360Y0002145552D03*
D39*
G36*
X0000682070Y0002130937D02*
X0000663975Y0002112841D01*
X0000616649Y0002160167D01*
X0000634744Y0002178263D01*
X0000682070Y0002130937D01*
X0000682070Y0002130937D01*
G37*
D43*
X0000684715Y0002180907D03*
D39*
G36*
X0000717426Y0002166292D02*
X0000699331Y0002148197D01*
X0000652005Y0002195523D01*
X0000670100Y0002213618D01*
X0000717426Y0002166292D01*
X0000717426Y0002166292D01*
G37*
G04 next file*
G04 Gerber Fmt 4.6, Leading zero omitted, Abs format (unit mm)*
G04 Created by KiCad (PCBNEW 5.0.1-33cea8e~68~ubuntu18.04.1) date Di 04 Dez 2018 23:45:32 CET*
G01*
G04 APERTURE LIST*
G04 APERTURE END LIST*
D44*
X0000156496Y0002812992D02*
X0000101377Y0002812992D01*
X0000156496Y0002669291D02*
X0000156496Y0002812992D01*
X0001679543Y0002946695D02*
G75*
G02X0000156496Y0002669291I-0000844898J0000319052D01*
G01*
X0001680118Y0003163385D02*
X0001679646Y0002946656D01*
X0001340551Y0003163385D02*
X0001680118Y0003163385D01*
X0001190944Y0003045275D02*
X0001340551Y0003163385D01*
X0000405511Y0003045275D02*
X0001190944Y0003045275D01*
X0000405511Y0003149606D02*
X0000405511Y0003045275D01*
X0000001968Y0003149606D02*
X0000405511Y0003149606D01*
X0000001968Y0002868110D02*
X0000001968Y0003149606D01*
X0000033464Y0002812992D02*
X0000001968Y0002868110D01*
X0000101377Y0002812992D02*
X0000033464Y0002812992D01*
X0001313976Y0002858267D02*
G75*
G03X0001313976Y0002858267I-0000031496D01*
G01*
X0000593503Y0002737204D02*
G75*
G03X0000593503Y0002737204I-0000051181D01*
G01*
D45*
G36*
X0001416415Y0002916113D02*
X0001416979Y0002916030D01*
X0001417532Y0002915891D01*
X0001418068Y0002915699D01*
X0001418583Y0002915456D01*
X0001419072Y0002915163D01*
X0001419530Y0002914823D01*
X0001419952Y0002914440D01*
X0001420335Y0002914018D01*
X0001420674Y0002913560D01*
X0001420967Y0002913072D01*
X0001421211Y0002912556D01*
X0001421403Y0002912020D01*
X0001421541Y0002911467D01*
X0001421625Y0002910903D01*
X0001421653Y0002910334D01*
X0001421653Y0002896751D01*
X0001421625Y0002896182D01*
X0001421541Y0002895619D01*
X0001421403Y0002895066D01*
X0001421211Y0002894529D01*
X0001420967Y0002894014D01*
X0001420674Y0002893525D01*
X0001420335Y0002893067D01*
X0001419952Y0002892645D01*
X0001419530Y0002892263D01*
X0001419072Y0002891923D01*
X0001418583Y0002891630D01*
X0001418068Y0002891386D01*
X0001417532Y0002891194D01*
X0001416979Y0002891056D01*
X0001416415Y0002890972D01*
X0001415846Y0002890944D01*
X0001404232Y0002890944D01*
X0001403663Y0002890972D01*
X0001403099Y0002891056D01*
X0001402546Y0002891194D01*
X0001402009Y0002891386D01*
X0001401494Y0002891630D01*
X0001401006Y0002891923D01*
X0001400548Y0002892263D01*
X0001400126Y0002892645D01*
X0001399743Y0002893067D01*
X0001399403Y0002893525D01*
X0001399110Y0002894014D01*
X0001398867Y0002894529D01*
X0001398675Y0002895066D01*
X0001398536Y0002895619D01*
X0001398453Y0002896182D01*
X0001398425Y0002896751D01*
X0001398425Y0002910334D01*
X0001398453Y0002910903D01*
X0001398536Y0002911467D01*
X0001398675Y0002912020D01*
X0001398867Y0002912556D01*
X0001399110Y0002913072D01*
X0001399403Y0002913560D01*
X0001399743Y0002914018D01*
X0001400126Y0002914440D01*
X0001400548Y0002914823D01*
X0001401006Y0002915163D01*
X0001401494Y0002915456D01*
X0001402009Y0002915699D01*
X0001402546Y0002915891D01*
X0001403099Y0002916030D01*
X0001403663Y0002916113D01*
X0001404232Y0002916141D01*
X0001415846Y0002916141D01*
X0001416415Y0002916113D01*
X0001416415Y0002916113D01*
G37*
D46*
X0001410039Y0002903543D03*
D45*
G36*
X0001454604Y0002916113D02*
X0001455168Y0002916030D01*
X0001455721Y0002915891D01*
X0001456257Y0002915699D01*
X0001456772Y0002915456D01*
X0001457261Y0002915163D01*
X0001457719Y0002914823D01*
X0001458141Y0002914440D01*
X0001458524Y0002914018D01*
X0001458863Y0002913560D01*
X0001459156Y0002913072D01*
X0001459400Y0002912556D01*
X0001459592Y0002912020D01*
X0001459730Y0002911467D01*
X0001459814Y0002910903D01*
X0001459842Y0002910334D01*
X0001459842Y0002896751D01*
X0001459814Y0002896182D01*
X0001459730Y0002895619D01*
X0001459592Y0002895066D01*
X0001459400Y0002894529D01*
X0001459156Y0002894014D01*
X0001458863Y0002893525D01*
X0001458524Y0002893067D01*
X0001458141Y0002892645D01*
X0001457719Y0002892263D01*
X0001457261Y0002891923D01*
X0001456772Y0002891630D01*
X0001456257Y0002891386D01*
X0001455721Y0002891194D01*
X0001455168Y0002891056D01*
X0001454604Y0002890972D01*
X0001454035Y0002890944D01*
X0001442421Y0002890944D01*
X0001441852Y0002890972D01*
X0001441288Y0002891056D01*
X0001440735Y0002891194D01*
X0001440198Y0002891386D01*
X0001439683Y0002891630D01*
X0001439195Y0002891923D01*
X0001438737Y0002892263D01*
X0001438315Y0002892645D01*
X0001437932Y0002893067D01*
X0001437592Y0002893525D01*
X0001437299Y0002894014D01*
X0001437056Y0002894529D01*
X0001436864Y0002895066D01*
X0001436725Y0002895619D01*
X0001436642Y0002896182D01*
X0001436614Y0002896751D01*
X0001436614Y0002910334D01*
X0001436642Y0002910903D01*
X0001436725Y0002911467D01*
X0001436864Y0002912020D01*
X0001437056Y0002912556D01*
X0001437299Y0002913072D01*
X0001437592Y0002913560D01*
X0001437932Y0002914018D01*
X0001438315Y0002914440D01*
X0001438737Y0002914823D01*
X0001439195Y0002915163D01*
X0001439683Y0002915456D01*
X0001440198Y0002915699D01*
X0001440735Y0002915891D01*
X0001441288Y0002916030D01*
X0001441852Y0002916113D01*
X0001442421Y0002916141D01*
X0001454035Y0002916141D01*
X0001454604Y0002916113D01*
X0001454604Y0002916113D01*
G37*
D46*
X0001448228Y0002903543D03*
D45*
G36*
X0001179827Y0002621043D02*
X0001180663Y0002620919D01*
X0001181483Y0002620714D01*
X0001182278Y0002620429D01*
X0001183042Y0002620068D01*
X0001183767Y0002619633D01*
X0001184446Y0002619130D01*
X0001185072Y0002618562D01*
X0001185640Y0002617936D01*
X0001186143Y0002617257D01*
X0001186578Y0002616532D01*
X0001186939Y0002615768D01*
X0001187224Y0002614972D01*
X0001187429Y0002614152D01*
X0001187553Y0002613316D01*
X0001187595Y0002612472D01*
X0001187595Y0002595248D01*
X0001187553Y0002594404D01*
X0001187429Y0002593568D01*
X0001187224Y0002592748D01*
X0001186939Y0002591952D01*
X0001186578Y0002591188D01*
X0001186143Y0002590463D01*
X0001185640Y0002589784D01*
X0001185072Y0002589158D01*
X0001184446Y0002588591D01*
X0001183767Y0002588087D01*
X0001183042Y0002587653D01*
X0001182278Y0002587291D01*
X0001181483Y0002587007D01*
X0001180663Y0002586801D01*
X0001179827Y0002586677D01*
X0001178983Y0002586636D01*
X0001158805Y0002586636D01*
X0001157961Y0002586677D01*
X0001157125Y0002586801D01*
X0001156305Y0002587007D01*
X0001155510Y0002587291D01*
X0001154746Y0002587653D01*
X0001154021Y0002588087D01*
X0001153342Y0002588591D01*
X0001152716Y0002589158D01*
X0001152148Y0002589784D01*
X0001151645Y0002590463D01*
X0001151210Y0002591188D01*
X0001150849Y0002591952D01*
X0001150564Y0002592748D01*
X0001150359Y0002593568D01*
X0001150235Y0002594404D01*
X0001150193Y0002595248D01*
X0001150193Y0002612472D01*
X0001150235Y0002613316D01*
X0001150359Y0002614152D01*
X0001150564Y0002614972D01*
X0001150849Y0002615768D01*
X0001151210Y0002616532D01*
X0001151645Y0002617257D01*
X0001152148Y0002617936D01*
X0001152716Y0002618562D01*
X0001153342Y0002619130D01*
X0001154021Y0002619633D01*
X0001154746Y0002620068D01*
X0001155510Y0002620429D01*
X0001156305Y0002620714D01*
X0001157125Y0002620919D01*
X0001157961Y0002621043D01*
X0001158805Y0002621085D01*
X0001178983Y0002621085D01*
X0001179827Y0002621043D01*
X0001179827Y0002621043D01*
G37*
D47*
X0001168894Y0002603860D03*
D45*
G36*
X0001179827Y0002683051D02*
X0001180663Y0002682927D01*
X0001181483Y0002682722D01*
X0001182278Y0002682437D01*
X0001183042Y0002682075D01*
X0001183767Y0002681641D01*
X0001184446Y0002681138D01*
X0001185072Y0002680570D01*
X0001185640Y0002679944D01*
X0001186143Y0002679265D01*
X0001186578Y0002678540D01*
X0001186939Y0002677776D01*
X0001187224Y0002676980D01*
X0001187429Y0002676160D01*
X0001187553Y0002675324D01*
X0001187595Y0002674480D01*
X0001187595Y0002657256D01*
X0001187553Y0002656412D01*
X0001187429Y0002655576D01*
X0001187224Y0002654756D01*
X0001186939Y0002653960D01*
X0001186578Y0002653196D01*
X0001186143Y0002652471D01*
X0001185640Y0002651792D01*
X0001185072Y0002651166D01*
X0001184446Y0002650598D01*
X0001183767Y0002650095D01*
X0001183042Y0002649661D01*
X0001182278Y0002649299D01*
X0001181483Y0002649014D01*
X0001180663Y0002648809D01*
X0001179827Y0002648685D01*
X0001178983Y0002648644D01*
X0001158805Y0002648644D01*
X0001157961Y0002648685D01*
X0001157125Y0002648809D01*
X0001156305Y0002649014D01*
X0001155510Y0002649299D01*
X0001154746Y0002649661D01*
X0001154021Y0002650095D01*
X0001153342Y0002650598D01*
X0001152716Y0002651166D01*
X0001152148Y0002651792D01*
X0001151645Y0002652471D01*
X0001151210Y0002653196D01*
X0001150849Y0002653960D01*
X0001150564Y0002654756D01*
X0001150359Y0002655576D01*
X0001150235Y0002656412D01*
X0001150193Y0002657256D01*
X0001150193Y0002674480D01*
X0001150235Y0002675324D01*
X0001150359Y0002676160D01*
X0001150564Y0002676980D01*
X0001150849Y0002677776D01*
X0001151210Y0002678540D01*
X0001151645Y0002679265D01*
X0001152148Y0002679944D01*
X0001152716Y0002680570D01*
X0001153342Y0002681138D01*
X0001154021Y0002681641D01*
X0001154746Y0002682075D01*
X0001155510Y0002682437D01*
X0001156305Y0002682722D01*
X0001157125Y0002682927D01*
X0001157961Y0002683051D01*
X0001158805Y0002683092D01*
X0001178983Y0002683092D01*
X0001179827Y0002683051D01*
X0001179827Y0002683051D01*
G37*
D47*
X0001168894Y0002665868D03*
D45*
G36*
X0000714976Y0003001635D02*
X0000715540Y0003001551D01*
X0000716092Y0003001412D01*
X0000716629Y0003001220D01*
X0000717144Y0003000977D01*
X0000717633Y0003000684D01*
X0000718091Y0003000344D01*
X0000718513Y0002999962D01*
X0000718895Y0002999539D01*
X0000719235Y0002999082D01*
X0000719528Y0002998593D01*
X0000719772Y0002998078D01*
X0000719964Y0002997541D01*
X0000720102Y0002996988D01*
X0000720186Y0002996425D01*
X0000720214Y0002995855D01*
X0000720214Y0002982273D01*
X0000720186Y0002981704D01*
X0000720102Y0002981140D01*
X0000719964Y0002980587D01*
X0000719772Y0002980050D01*
X0000719528Y0002979535D01*
X0000719235Y0002979046D01*
X0000718895Y0002978589D01*
X0000718513Y0002978167D01*
X0000718091Y0002977784D01*
X0000717633Y0002977444D01*
X0000717144Y0002977151D01*
X0000716629Y0002976908D01*
X0000716092Y0002976716D01*
X0000715540Y0002976577D01*
X0000714976Y0002976494D01*
X0000714407Y0002976466D01*
X0000702792Y0002976466D01*
X0000702223Y0002976494D01*
X0000701660Y0002976577D01*
X0000701107Y0002976716D01*
X0000700570Y0002976908D01*
X0000700055Y0002977151D01*
X0000699566Y0002977444D01*
X0000699108Y0002977784D01*
X0000698686Y0002978167D01*
X0000698303Y0002978589D01*
X0000697964Y0002979046D01*
X0000697671Y0002979535D01*
X0000697427Y0002980050D01*
X0000697235Y0002980587D01*
X0000697097Y0002981140D01*
X0000697013Y0002981704D01*
X0000696985Y0002982273D01*
X0000696985Y0002995855D01*
X0000697013Y0002996425D01*
X0000697097Y0002996988D01*
X0000697235Y0002997541D01*
X0000697427Y0002998078D01*
X0000697671Y0002998593D01*
X0000697964Y0002999082D01*
X0000698303Y0002999539D01*
X0000698686Y0002999962D01*
X0000699108Y0003000344D01*
X0000699566Y0003000684D01*
X0000700055Y0003000977D01*
X0000700570Y0003001220D01*
X0000701107Y0003001412D01*
X0000701660Y0003001551D01*
X0000702223Y0003001635D01*
X0000702792Y0003001662D01*
X0000714407Y0003001662D01*
X0000714976Y0003001635D01*
X0000714976Y0003001635D01*
G37*
D46*
X0000708600Y0002989064D03*
D45*
G36*
X0000753165Y0003001635D02*
X0000753728Y0003001551D01*
X0000754281Y0003001412D01*
X0000754818Y0003001220D01*
X0000755333Y0003000977D01*
X0000755822Y0003000684D01*
X0000756280Y0003000344D01*
X0000756702Y0002999962D01*
X0000757084Y0002999539D01*
X0000757424Y0002999082D01*
X0000757717Y0002998593D01*
X0000757961Y0002998078D01*
X0000758153Y0002997541D01*
X0000758291Y0002996988D01*
X0000758375Y0002996425D01*
X0000758403Y0002995855D01*
X0000758403Y0002982273D01*
X0000758375Y0002981704D01*
X0000758291Y0002981140D01*
X0000758153Y0002980587D01*
X0000757961Y0002980050D01*
X0000757717Y0002979535D01*
X0000757424Y0002979046D01*
X0000757084Y0002978589D01*
X0000756702Y0002978167D01*
X0000756280Y0002977784D01*
X0000755822Y0002977444D01*
X0000755333Y0002977151D01*
X0000754818Y0002976908D01*
X0000754281Y0002976716D01*
X0000753728Y0002976577D01*
X0000753165Y0002976494D01*
X0000752596Y0002976466D01*
X0000740981Y0002976466D01*
X0000740412Y0002976494D01*
X0000739848Y0002976577D01*
X0000739296Y0002976716D01*
X0000738759Y0002976908D01*
X0000738244Y0002977151D01*
X0000737755Y0002977444D01*
X0000737297Y0002977784D01*
X0000736875Y0002978167D01*
X0000736492Y0002978589D01*
X0000736153Y0002979046D01*
X0000735860Y0002979535D01*
X0000735616Y0002980050D01*
X0000735424Y0002980587D01*
X0000735286Y0002981140D01*
X0000735202Y0002981704D01*
X0000735174Y0002982273D01*
X0000735174Y0002995855D01*
X0000735202Y0002996425D01*
X0000735286Y0002996988D01*
X0000735424Y0002997541D01*
X0000735616Y0002998078D01*
X0000735860Y0002998593D01*
X0000736153Y0002999082D01*
X0000736492Y0002999539D01*
X0000736875Y0002999962D01*
X0000737297Y0003000344D01*
X0000737755Y0003000684D01*
X0000738244Y0003000977D01*
X0000738759Y0003001220D01*
X0000739296Y0003001412D01*
X0000739848Y0003001551D01*
X0000740412Y0003001635D01*
X0000740981Y0003001662D01*
X0000752596Y0003001662D01*
X0000753165Y0003001635D01*
X0000753165Y0003001635D01*
G37*
D46*
X0000746788Y0002989064D03*
D45*
G36*
X0000107557Y0002906271D02*
X0000108121Y0002906187D01*
X0000108673Y0002906049D01*
X0000109210Y0002905857D01*
X0000109725Y0002905613D01*
X0000110214Y0002905320D01*
X0000110672Y0002904981D01*
X0000111094Y0002904598D01*
X0000111477Y0002904176D01*
X0000111816Y0002903718D01*
X0000112109Y0002903229D01*
X0000112353Y0002902714D01*
X0000112545Y0002902177D01*
X0000112683Y0002901625D01*
X0000112767Y0002901061D01*
X0000112795Y0002900492D01*
X0000112795Y0002886909D01*
X0000112767Y0002886340D01*
X0000112683Y0002885776D01*
X0000112545Y0002885223D01*
X0000112353Y0002884687D01*
X0000112109Y0002884172D01*
X0000111816Y0002883683D01*
X0000111477Y0002883225D01*
X0000111094Y0002882803D01*
X0000110672Y0002882420D01*
X0000110214Y0002882081D01*
X0000109725Y0002881788D01*
X0000109210Y0002881544D01*
X0000108673Y0002881352D01*
X0000108121Y0002881213D01*
X0000107557Y0002881130D01*
X0000106988Y0002881102D01*
X0000095373Y0002881102D01*
X0000094804Y0002881130D01*
X0000094241Y0002881213D01*
X0000093688Y0002881352D01*
X0000093151Y0002881544D01*
X0000092636Y0002881788D01*
X0000092147Y0002882081D01*
X0000091690Y0002882420D01*
X0000091267Y0002882803D01*
X0000090885Y0002883225D01*
X0000090545Y0002883683D01*
X0000090252Y0002884172D01*
X0000090008Y0002884687D01*
X0000089816Y0002885223D01*
X0000089678Y0002885776D01*
X0000089594Y0002886340D01*
X0000089566Y0002886909D01*
X0000089566Y0002900492D01*
X0000089594Y0002901061D01*
X0000089678Y0002901625D01*
X0000089816Y0002902177D01*
X0000090008Y0002902714D01*
X0000090252Y0002903229D01*
X0000090545Y0002903718D01*
X0000090885Y0002904176D01*
X0000091267Y0002904598D01*
X0000091690Y0002904981D01*
X0000092147Y0002905320D01*
X0000092636Y0002905613D01*
X0000093151Y0002905857D01*
X0000093688Y0002906049D01*
X0000094241Y0002906187D01*
X0000094804Y0002906271D01*
X0000095373Y0002906299D01*
X0000106988Y0002906299D01*
X0000107557Y0002906271D01*
X0000107557Y0002906271D01*
G37*
D46*
X0000101181Y0002893700D03*
D45*
G36*
X0000069368Y0002906271D02*
X0000069932Y0002906187D01*
X0000070484Y0002906049D01*
X0000071021Y0002905857D01*
X0000071536Y0002905613D01*
X0000072025Y0002905320D01*
X0000072483Y0002904981D01*
X0000072905Y0002904598D01*
X0000073288Y0002904176D01*
X0000073627Y0002903718D01*
X0000073920Y0002903229D01*
X0000074164Y0002902714D01*
X0000074356Y0002902177D01*
X0000074494Y0002901625D01*
X0000074578Y0002901061D01*
X0000074606Y0002900492D01*
X0000074606Y0002886909D01*
X0000074578Y0002886340D01*
X0000074494Y0002885776D01*
X0000074356Y0002885223D01*
X0000074164Y0002884687D01*
X0000073920Y0002884172D01*
X0000073627Y0002883683D01*
X0000073288Y0002883225D01*
X0000072905Y0002882803D01*
X0000072483Y0002882420D01*
X0000072025Y0002882081D01*
X0000071536Y0002881788D01*
X0000071021Y0002881544D01*
X0000070484Y0002881352D01*
X0000069932Y0002881213D01*
X0000069368Y0002881130D01*
X0000068799Y0002881102D01*
X0000057185Y0002881102D01*
X0000056615Y0002881130D01*
X0000056052Y0002881213D01*
X0000055499Y0002881352D01*
X0000054962Y0002881544D01*
X0000054447Y0002881788D01*
X0000053958Y0002882081D01*
X0000053501Y0002882420D01*
X0000053078Y0002882803D01*
X0000052696Y0002883225D01*
X0000052356Y0002883683D01*
X0000052063Y0002884172D01*
X0000051819Y0002884687D01*
X0000051627Y0002885223D01*
X0000051489Y0002885776D01*
X0000051405Y0002886340D01*
X0000051377Y0002886909D01*
X0000051377Y0002900492D01*
X0000051405Y0002901061D01*
X0000051489Y0002901625D01*
X0000051627Y0002902177D01*
X0000051819Y0002902714D01*
X0000052063Y0002903229D01*
X0000052356Y0002903718D01*
X0000052696Y0002904176D01*
X0000053078Y0002904598D01*
X0000053501Y0002904981D01*
X0000053958Y0002905320D01*
X0000054447Y0002905613D01*
X0000054962Y0002905857D01*
X0000055499Y0002906049D01*
X0000056052Y0002906187D01*
X0000056615Y0002906271D01*
X0000057185Y0002906299D01*
X0000068799Y0002906299D01*
X0000069368Y0002906271D01*
X0000069368Y0002906271D01*
G37*
D46*
X0000062992Y0002893700D03*
D48*
X0000084645Y0002962601D03*
X0000084645Y0003088585D03*
X0000277559Y0002962601D03*
X0000277559Y0003088585D03*
X0001409448Y0002976377D03*
X0001409448Y0003102362D03*
X0001602362Y0002976377D03*
X0001602362Y0003102362D03*
D49*
X0000887939Y0002765085D03*
D45*
G36*
X0000920649Y0002750470D02*
X0000902554Y0002732375D01*
X0000855228Y0002779701D01*
X0000873323Y0002797796D01*
X0000920649Y0002750470D01*
X0000920649Y0002750470D01*
G37*
D49*
X0000852583Y0002729730D03*
D45*
G36*
X0000885294Y0002715115D02*
X0000867199Y0002697019D01*
X0000819873Y0002744345D01*
X0000837968Y0002762441D01*
X0000885294Y0002715115D01*
X0000885294Y0002715115D01*
G37*
D49*
X0000817228Y0002694375D03*
D45*
G36*
X0000849939Y0002679759D02*
X0000831844Y0002661664D01*
X0000784517Y0002708990D01*
X0000802613Y0002727085D01*
X0000849939Y0002679759D01*
X0000849939Y0002679759D01*
G37*
D49*
X0000781873Y0002659019D03*
D45*
G36*
X0000814583Y0002644404D02*
X0000796488Y0002626309D01*
X0000749162Y0002673635D01*
X0000767257Y0002691730D01*
X0000814583Y0002644404D01*
X0000814583Y0002644404D01*
G37*
D49*
X0000578649Y0002862243D03*
D45*
G36*
X0000611360Y0002847627D02*
X0000593265Y0002829532D01*
X0000545939Y0002876858D01*
X0000564034Y0002894953D01*
X0000611360Y0002847627D01*
X0000611360Y0002847627D01*
G37*
D49*
X0000614004Y0002897598D03*
D45*
G36*
X0000646715Y0002882983D02*
X0000628620Y0002864888D01*
X0000581294Y0002912214D01*
X0000599389Y0002930309D01*
X0000646715Y0002882983D01*
X0000646715Y0002882983D01*
G37*
D49*
X0000649360Y0002932954D03*
D45*
G36*
X0000682070Y0002918338D02*
X0000663975Y0002900243D01*
X0000616649Y0002947569D01*
X0000634744Y0002965664D01*
X0000682070Y0002918338D01*
X0000682070Y0002918338D01*
G37*
D49*
X0000684715Y0002968309D03*
D45*
G36*
X0000717426Y0002953693D02*
X0000699331Y0002935598D01*
X0000652005Y0002982924D01*
X0000670100Y0003001020D01*
X0000717426Y0002953693D01*
X0000717426Y0002953693D01*
G37*
G04 next file*
G04 Gerber Fmt 4.6, Leading zero omitted, Abs format (unit mm)*
G04 Created by KiCad (PCBNEW 5.0.1-33cea8e~68~ubuntu18.04.1) date Di 04 Dez 2018 23:45:32 CET*
G01*
G04 APERTURE LIST*
G04 APERTURE END LIST*
D50*
X0001967519Y0001238188D02*
X0001912401Y0001238188D01*
X0001967519Y0001094488D02*
X0001967519Y0001238188D01*
X0003490567Y0001371892D02*
G75*
G02X0001967519Y0001094488I-0000844898J0000319052D01*
G01*
X0003491141Y0001588582D02*
X0003490669Y0001371853D01*
X0003151574Y0001588582D02*
X0003491141Y0001588582D01*
X0003001968Y0001470472D02*
X0003151574Y0001588582D01*
X0002216535Y0001470472D02*
X0003001968Y0001470472D01*
X0002216535Y0001574803D02*
X0002216535Y0001470472D01*
X0001812992Y0001574803D02*
X0002216535Y0001574803D01*
X0001812992Y0001293307D02*
X0001812992Y0001574803D01*
X0001844488Y0001238188D02*
X0001812992Y0001293307D01*
X0001912401Y0001238188D02*
X0001844488Y0001238188D01*
X0003125000Y0001283464D02*
G75*
G03X0003125000Y0001283464I-0000031496D01*
G01*
X0002404527Y0001162401D02*
G75*
G03X0002404527Y0001162401I-0000051181D01*
G01*
D51*
G36*
X0003227439Y0001341310D02*
X0003228002Y0001341227D01*
X0003228555Y0001341088D01*
X0003229092Y0001340896D01*
X0003229607Y0001340652D01*
X0003230096Y0001340359D01*
X0003230554Y0001340020D01*
X0003230976Y0001339637D01*
X0003231359Y0001339215D01*
X0003231698Y0001338757D01*
X0003231991Y0001338268D01*
X0003232235Y0001337753D01*
X0003232427Y0001337217D01*
X0003232565Y0001336664D01*
X0003232649Y0001336100D01*
X0003232677Y0001335531D01*
X0003232677Y0001321948D01*
X0003232649Y0001321379D01*
X0003232565Y0001320815D01*
X0003232427Y0001320263D01*
X0003232235Y0001319726D01*
X0003231991Y0001319211D01*
X0003231698Y0001318722D01*
X0003231359Y0001318264D01*
X0003230976Y0001317842D01*
X0003230554Y0001317459D01*
X0003230096Y0001317120D01*
X0003229607Y0001316827D01*
X0003229092Y0001316583D01*
X0003228555Y0001316391D01*
X0003228002Y0001316253D01*
X0003227439Y0001316169D01*
X0003226870Y0001316141D01*
X0003215255Y0001316141D01*
X0003214686Y0001316169D01*
X0003214122Y0001316253D01*
X0003213570Y0001316391D01*
X0003213033Y0001316583D01*
X0003212518Y0001316827D01*
X0003212029Y0001317120D01*
X0003211571Y0001317459D01*
X0003211149Y0001317842D01*
X0003210766Y0001318264D01*
X0003210427Y0001318722D01*
X0003210134Y0001319211D01*
X0003209890Y0001319726D01*
X0003209698Y0001320263D01*
X0003209560Y0001320815D01*
X0003209476Y0001321379D01*
X0003209448Y0001321948D01*
X0003209448Y0001335531D01*
X0003209476Y0001336100D01*
X0003209560Y0001336664D01*
X0003209698Y0001337217D01*
X0003209890Y0001337753D01*
X0003210134Y0001338268D01*
X0003210427Y0001338757D01*
X0003210766Y0001339215D01*
X0003211149Y0001339637D01*
X0003211571Y0001340020D01*
X0003212029Y0001340359D01*
X0003212518Y0001340652D01*
X0003213033Y0001340896D01*
X0003213570Y0001341088D01*
X0003214122Y0001341227D01*
X0003214686Y0001341310D01*
X0003215255Y0001341338D01*
X0003226870Y0001341338D01*
X0003227439Y0001341310D01*
X0003227439Y0001341310D01*
G37*
D52*
X0003221062Y0001328740D03*
D51*
G36*
X0003265628Y0001341310D02*
X0003266191Y0001341227D01*
X0003266744Y0001341088D01*
X0003267281Y0001340896D01*
X0003267796Y0001340652D01*
X0003268285Y0001340359D01*
X0003268743Y0001340020D01*
X0003269165Y0001339637D01*
X0003269547Y0001339215D01*
X0003269887Y0001338757D01*
X0003270180Y0001338268D01*
X0003270424Y0001337753D01*
X0003270616Y0001337217D01*
X0003270754Y0001336664D01*
X0003270838Y0001336100D01*
X0003270866Y0001335531D01*
X0003270866Y0001321948D01*
X0003270838Y0001321379D01*
X0003270754Y0001320815D01*
X0003270616Y0001320263D01*
X0003270424Y0001319726D01*
X0003270180Y0001319211D01*
X0003269887Y0001318722D01*
X0003269547Y0001318264D01*
X0003269165Y0001317842D01*
X0003268743Y0001317459D01*
X0003268285Y0001317120D01*
X0003267796Y0001316827D01*
X0003267281Y0001316583D01*
X0003266744Y0001316391D01*
X0003266191Y0001316253D01*
X0003265628Y0001316169D01*
X0003265059Y0001316141D01*
X0003253444Y0001316141D01*
X0003252875Y0001316169D01*
X0003252311Y0001316253D01*
X0003251759Y0001316391D01*
X0003251222Y0001316583D01*
X0003250707Y0001316827D01*
X0003250218Y0001317120D01*
X0003249760Y0001317459D01*
X0003249338Y0001317842D01*
X0003248955Y0001318264D01*
X0003248616Y0001318722D01*
X0003248323Y0001319211D01*
X0003248079Y0001319726D01*
X0003247887Y0001320263D01*
X0003247749Y0001320815D01*
X0003247665Y0001321379D01*
X0003247637Y0001321948D01*
X0003247637Y0001335531D01*
X0003247665Y0001336100D01*
X0003247749Y0001336664D01*
X0003247887Y0001337217D01*
X0003248079Y0001337753D01*
X0003248323Y0001338268D01*
X0003248616Y0001338757D01*
X0003248955Y0001339215D01*
X0003249338Y0001339637D01*
X0003249760Y0001340020D01*
X0003250218Y0001340359D01*
X0003250707Y0001340652D01*
X0003251222Y0001340896D01*
X0003251759Y0001341088D01*
X0003252311Y0001341227D01*
X0003252875Y0001341310D01*
X0003253444Y0001341338D01*
X0003265059Y0001341338D01*
X0003265628Y0001341310D01*
X0003265628Y0001341310D01*
G37*
D52*
X0003259251Y0001328740D03*
D51*
G36*
X0002990850Y0001046240D02*
X0002991686Y0001046116D01*
X0002992506Y0001045911D01*
X0002993302Y0001045626D01*
X0002994066Y0001045264D01*
X0002994791Y0001044830D01*
X0002995470Y0001044327D01*
X0002996096Y0001043759D01*
X0002996664Y0001043133D01*
X0002997167Y0001042454D01*
X0002997601Y0001041729D01*
X0002997963Y0001040965D01*
X0002998248Y0001040169D01*
X0002998453Y0001039349D01*
X0002998577Y0001038513D01*
X0002998618Y0001037669D01*
X0002998618Y0001020445D01*
X0002998577Y0001019601D01*
X0002998453Y0001018765D01*
X0002998248Y0001017945D01*
X0002997963Y0001017149D01*
X0002997601Y0001016385D01*
X0002997167Y0001015660D01*
X0002996664Y0001014981D01*
X0002996096Y0001014355D01*
X0002995470Y0001013787D01*
X0002994791Y0001013284D01*
X0002994066Y0001012849D01*
X0002993302Y0001012488D01*
X0002992506Y0001012203D01*
X0002991686Y0001011998D01*
X0002990850Y0001011874D01*
X0002990006Y0001011833D01*
X0002969829Y0001011833D01*
X0002968985Y0001011874D01*
X0002968149Y0001011998D01*
X0002967329Y0001012203D01*
X0002966533Y0001012488D01*
X0002965769Y0001012849D01*
X0002965044Y0001013284D01*
X0002964365Y0001013787D01*
X0002963739Y0001014355D01*
X0002963172Y0001014981D01*
X0002962668Y0001015660D01*
X0002962234Y0001016385D01*
X0002961872Y0001017149D01*
X0002961588Y0001017945D01*
X0002961382Y0001018765D01*
X0002961258Y0001019601D01*
X0002961217Y0001020445D01*
X0002961217Y0001037669D01*
X0002961258Y0001038513D01*
X0002961382Y0001039349D01*
X0002961588Y0001040169D01*
X0002961872Y0001040965D01*
X0002962234Y0001041729D01*
X0002962668Y0001042454D01*
X0002963172Y0001043133D01*
X0002963739Y0001043759D01*
X0002964365Y0001044327D01*
X0002965044Y0001044830D01*
X0002965769Y0001045264D01*
X0002966533Y0001045626D01*
X0002967329Y0001045911D01*
X0002968149Y0001046116D01*
X0002968985Y0001046240D01*
X0002969829Y0001046281D01*
X0002990006Y0001046281D01*
X0002990850Y0001046240D01*
X0002990850Y0001046240D01*
G37*
D53*
X0002979918Y0001029057D03*
D51*
G36*
X0002990850Y0001108248D02*
X0002991686Y0001108124D01*
X0002992506Y0001107918D01*
X0002993302Y0001107634D01*
X0002994066Y0001107272D01*
X0002994791Y0001106838D01*
X0002995470Y0001106334D01*
X0002996096Y0001105767D01*
X0002996664Y0001105141D01*
X0002997167Y0001104462D01*
X0002997601Y0001103737D01*
X0002997963Y0001102973D01*
X0002998248Y0001102177D01*
X0002998453Y0001101357D01*
X0002998577Y0001100521D01*
X0002998618Y0001099677D01*
X0002998618Y0001082453D01*
X0002998577Y0001081609D01*
X0002998453Y0001080772D01*
X0002998248Y0001079953D01*
X0002997963Y0001079157D01*
X0002997601Y0001078393D01*
X0002997167Y0001077668D01*
X0002996664Y0001076989D01*
X0002996096Y0001076363D01*
X0002995470Y0001075795D01*
X0002994791Y0001075292D01*
X0002994066Y0001074857D01*
X0002993302Y0001074496D01*
X0002992506Y0001074211D01*
X0002991686Y0001074006D01*
X0002990850Y0001073882D01*
X0002990006Y0001073840D01*
X0002969829Y0001073840D01*
X0002968985Y0001073882D01*
X0002968149Y0001074006D01*
X0002967329Y0001074211D01*
X0002966533Y0001074496D01*
X0002965769Y0001074857D01*
X0002965044Y0001075292D01*
X0002964365Y0001075795D01*
X0002963739Y0001076363D01*
X0002963172Y0001076989D01*
X0002962668Y0001077668D01*
X0002962234Y0001078393D01*
X0002961872Y0001079157D01*
X0002961588Y0001079953D01*
X0002961382Y0001080772D01*
X0002961258Y0001081609D01*
X0002961217Y0001082453D01*
X0002961217Y0001099677D01*
X0002961258Y0001100521D01*
X0002961382Y0001101357D01*
X0002961588Y0001102177D01*
X0002961872Y0001102973D01*
X0002962234Y0001103737D01*
X0002962668Y0001104462D01*
X0002963172Y0001105141D01*
X0002963739Y0001105767D01*
X0002964365Y0001106334D01*
X0002965044Y0001106838D01*
X0002965769Y0001107272D01*
X0002966533Y0001107634D01*
X0002967329Y0001107918D01*
X0002968149Y0001108124D01*
X0002968985Y0001108248D01*
X0002969829Y0001108289D01*
X0002990006Y0001108289D01*
X0002990850Y0001108248D01*
X0002990850Y0001108248D01*
G37*
D53*
X0002979918Y0001091065D03*
D51*
G36*
X0002525999Y0001426831D02*
X0002526563Y0001426748D01*
X0002527116Y0001426609D01*
X0002527652Y0001426417D01*
X0002528168Y0001426174D01*
X0002528656Y0001425881D01*
X0002529114Y0001425541D01*
X0002529536Y0001425158D01*
X0002529919Y0001424736D01*
X0002530259Y0001424279D01*
X0002530552Y0001423790D01*
X0002530795Y0001423275D01*
X0002530987Y0001422738D01*
X0002531126Y0001422185D01*
X0002531209Y0001421621D01*
X0002531237Y0001421052D01*
X0002531237Y0001407470D01*
X0002531209Y0001406900D01*
X0002531126Y0001406337D01*
X0002530987Y0001405784D01*
X0002530795Y0001405247D01*
X0002530552Y0001404732D01*
X0002530259Y0001404243D01*
X0002529919Y0001403786D01*
X0002529536Y0001403363D01*
X0002529114Y0001402981D01*
X0002528656Y0001402641D01*
X0002528168Y0001402348D01*
X0002527652Y0001402105D01*
X0002527116Y0001401913D01*
X0002526563Y0001401774D01*
X0002525999Y0001401690D01*
X0002525430Y0001401662D01*
X0002513816Y0001401662D01*
X0002513247Y0001401690D01*
X0002512683Y0001401774D01*
X0002512130Y0001401913D01*
X0002511594Y0001402105D01*
X0002511079Y0001402348D01*
X0002510590Y0001402641D01*
X0002510132Y0001402981D01*
X0002509710Y0001403363D01*
X0002509327Y0001403786D01*
X0002508988Y0001404243D01*
X0002508695Y0001404732D01*
X0002508451Y0001405247D01*
X0002508259Y0001405784D01*
X0002508120Y0001406337D01*
X0002508037Y0001406900D01*
X0002508009Y0001407470D01*
X0002508009Y0001421052D01*
X0002508037Y0001421621D01*
X0002508120Y0001422185D01*
X0002508259Y0001422738D01*
X0002508451Y0001423275D01*
X0002508695Y0001423790D01*
X0002508988Y0001424279D01*
X0002509327Y0001424736D01*
X0002509710Y0001425158D01*
X0002510132Y0001425541D01*
X0002510590Y0001425881D01*
X0002511079Y0001426174D01*
X0002511594Y0001426417D01*
X0002512130Y0001426609D01*
X0002512683Y0001426748D01*
X0002513247Y0001426831D01*
X0002513816Y0001426859D01*
X0002525430Y0001426859D01*
X0002525999Y0001426831D01*
X0002525999Y0001426831D01*
G37*
D52*
X0002519623Y0001414261D03*
D51*
G36*
X0002564188Y0001426831D02*
X0002564752Y0001426748D01*
X0002565305Y0001426609D01*
X0002565841Y0001426417D01*
X0002566357Y0001426174D01*
X0002566845Y0001425881D01*
X0002567303Y0001425541D01*
X0002567725Y0001425158D01*
X0002568108Y0001424736D01*
X0002568448Y0001424279D01*
X0002568741Y0001423790D01*
X0002568984Y0001423275D01*
X0002569176Y0001422738D01*
X0002569315Y0001422185D01*
X0002569398Y0001421621D01*
X0002569426Y0001421052D01*
X0002569426Y0001407470D01*
X0002569398Y0001406900D01*
X0002569315Y0001406337D01*
X0002569176Y0001405784D01*
X0002568984Y0001405247D01*
X0002568741Y0001404732D01*
X0002568448Y0001404243D01*
X0002568108Y0001403786D01*
X0002567725Y0001403363D01*
X0002567303Y0001402981D01*
X0002566845Y0001402641D01*
X0002566357Y0001402348D01*
X0002565841Y0001402105D01*
X0002565305Y0001401913D01*
X0002564752Y0001401774D01*
X0002564188Y0001401690D01*
X0002563619Y0001401662D01*
X0002552005Y0001401662D01*
X0002551436Y0001401690D01*
X0002550872Y0001401774D01*
X0002550319Y0001401913D01*
X0002549783Y0001402105D01*
X0002549268Y0001402348D01*
X0002548779Y0001402641D01*
X0002548321Y0001402981D01*
X0002547899Y0001403363D01*
X0002547516Y0001403786D01*
X0002547177Y0001404243D01*
X0002546884Y0001404732D01*
X0002546640Y0001405247D01*
X0002546448Y0001405784D01*
X0002546310Y0001406337D01*
X0002546226Y0001406900D01*
X0002546198Y0001407470D01*
X0002546198Y0001421052D01*
X0002546226Y0001421621D01*
X0002546310Y0001422185D01*
X0002546448Y0001422738D01*
X0002546640Y0001423275D01*
X0002546884Y0001423790D01*
X0002547177Y0001424279D01*
X0002547516Y0001424736D01*
X0002547899Y0001425158D01*
X0002548321Y0001425541D01*
X0002548779Y0001425881D01*
X0002549268Y0001426174D01*
X0002549783Y0001426417D01*
X0002550319Y0001426609D01*
X0002550872Y0001426748D01*
X0002551436Y0001426831D01*
X0002552005Y0001426859D01*
X0002563619Y0001426859D01*
X0002564188Y0001426831D01*
X0002564188Y0001426831D01*
G37*
D52*
X0002557812Y0001414261D03*
D51*
G36*
X0001918581Y0001331468D02*
X0001919144Y0001331384D01*
X0001919697Y0001331246D01*
X0001920234Y0001331054D01*
X0001920749Y0001330810D01*
X0001921238Y0001330517D01*
X0001921695Y0001330177D01*
X0001922118Y0001329795D01*
X0001922500Y0001329372D01*
X0001922840Y0001328915D01*
X0001923133Y0001328426D01*
X0001923376Y0001327911D01*
X0001923568Y0001327374D01*
X0001923707Y0001326821D01*
X0001923790Y0001326258D01*
X0001923818Y0001325688D01*
X0001923818Y0001312106D01*
X0001923790Y0001311537D01*
X0001923707Y0001310973D01*
X0001923568Y0001310420D01*
X0001923376Y0001309884D01*
X0001923133Y0001309368D01*
X0001922840Y0001308880D01*
X0001922500Y0001308422D01*
X0001922118Y0001308000D01*
X0001921695Y0001307617D01*
X0001921238Y0001307277D01*
X0001920749Y0001306984D01*
X0001920234Y0001306741D01*
X0001919697Y0001306549D01*
X0001919144Y0001306410D01*
X0001918581Y0001306327D01*
X0001918011Y0001306299D01*
X0001906397Y0001306299D01*
X0001905828Y0001306327D01*
X0001905264Y0001306410D01*
X0001904711Y0001306549D01*
X0001904175Y0001306741D01*
X0001903660Y0001306984D01*
X0001903171Y0001307277D01*
X0001902713Y0001307617D01*
X0001902291Y0001308000D01*
X0001901908Y0001308422D01*
X0001901569Y0001308880D01*
X0001901276Y0001309368D01*
X0001901032Y0001309884D01*
X0001900840Y0001310420D01*
X0001900702Y0001310973D01*
X0001900618Y0001311537D01*
X0001900590Y0001312106D01*
X0001900590Y0001325688D01*
X0001900618Y0001326258D01*
X0001900702Y0001326821D01*
X0001900840Y0001327374D01*
X0001901032Y0001327911D01*
X0001901276Y0001328426D01*
X0001901569Y0001328915D01*
X0001901908Y0001329372D01*
X0001902291Y0001329795D01*
X0001902713Y0001330177D01*
X0001903171Y0001330517D01*
X0001903660Y0001330810D01*
X0001904175Y0001331054D01*
X0001904711Y0001331246D01*
X0001905264Y0001331384D01*
X0001905828Y0001331468D01*
X0001906397Y0001331496D01*
X0001918011Y0001331496D01*
X0001918581Y0001331468D01*
X0001918581Y0001331468D01*
G37*
D52*
X0001912204Y0001318897D03*
D51*
G36*
X0001880392Y0001331468D02*
X0001880955Y0001331384D01*
X0001881508Y0001331246D01*
X0001882045Y0001331054D01*
X0001882560Y0001330810D01*
X0001883049Y0001330517D01*
X0001883506Y0001330177D01*
X0001883929Y0001329795D01*
X0001884311Y0001329372D01*
X0001884651Y0001328915D01*
X0001884944Y0001328426D01*
X0001885187Y0001327911D01*
X0001885379Y0001327374D01*
X0001885518Y0001326821D01*
X0001885601Y0001326258D01*
X0001885629Y0001325688D01*
X0001885629Y0001312106D01*
X0001885601Y0001311537D01*
X0001885518Y0001310973D01*
X0001885379Y0001310420D01*
X0001885187Y0001309884D01*
X0001884944Y0001309368D01*
X0001884651Y0001308880D01*
X0001884311Y0001308422D01*
X0001883929Y0001308000D01*
X0001883506Y0001307617D01*
X0001883049Y0001307277D01*
X0001882560Y0001306984D01*
X0001882045Y0001306741D01*
X0001881508Y0001306549D01*
X0001880955Y0001306410D01*
X0001880392Y0001306327D01*
X0001879822Y0001306299D01*
X0001868208Y0001306299D01*
X0001867639Y0001306327D01*
X0001867075Y0001306410D01*
X0001866522Y0001306549D01*
X0001865986Y0001306741D01*
X0001865471Y0001306984D01*
X0001864982Y0001307277D01*
X0001864524Y0001307617D01*
X0001864102Y0001308000D01*
X0001863719Y0001308422D01*
X0001863380Y0001308880D01*
X0001863087Y0001309368D01*
X0001862843Y0001309884D01*
X0001862651Y0001310420D01*
X0001862513Y0001310973D01*
X0001862429Y0001311537D01*
X0001862401Y0001312106D01*
X0001862401Y0001325688D01*
X0001862429Y0001326258D01*
X0001862513Y0001326821D01*
X0001862651Y0001327374D01*
X0001862843Y0001327911D01*
X0001863087Y0001328426D01*
X0001863380Y0001328915D01*
X0001863719Y0001329372D01*
X0001864102Y0001329795D01*
X0001864524Y0001330177D01*
X0001864982Y0001330517D01*
X0001865471Y0001330810D01*
X0001865986Y0001331054D01*
X0001866522Y0001331246D01*
X0001867075Y0001331384D01*
X0001867639Y0001331468D01*
X0001868208Y0001331496D01*
X0001879822Y0001331496D01*
X0001880392Y0001331468D01*
X0001880392Y0001331468D01*
G37*
D52*
X0001874015Y0001318897D03*
D54*
X0001895669Y0001387797D03*
X0001895669Y0001513782D03*
X0002088582Y0001387797D03*
X0002088582Y0001513782D03*
X0003220472Y0001401574D03*
X0003220472Y0001527559D03*
X0003413385Y0001401574D03*
X0003413385Y0001527559D03*
D55*
X0002698962Y0001190282D03*
D51*
G36*
X0002731673Y0001175667D02*
X0002713578Y0001157571D01*
X0002666252Y0001204898D01*
X0002684347Y0001222993D01*
X0002731673Y0001175667D01*
X0002731673Y0001175667D01*
G37*
D55*
X0002663607Y0001154927D03*
D51*
G36*
X0002696318Y0001140311D02*
X0002678222Y0001122216D01*
X0002630896Y0001169542D01*
X0002648992Y0001187637D01*
X0002696318Y0001140311D01*
X0002696318Y0001140311D01*
G37*
D55*
X0002628252Y0001119571D03*
D51*
G36*
X0002660962Y0001104956D02*
X0002642867Y0001086861D01*
X0002595541Y0001134187D01*
X0002613636Y0001152282D01*
X0002660962Y0001104956D01*
X0002660962Y0001104956D01*
G37*
D55*
X0002592896Y0001084216D03*
D51*
G36*
X0002625607Y0001069601D02*
X0002607512Y0001051505D01*
X0002560186Y0001098831D01*
X0002578281Y0001116927D01*
X0002625607Y0001069601D01*
X0002625607Y0001069601D01*
G37*
D55*
X0002389673Y0001287440D03*
D51*
G36*
X0002422383Y0001272824D02*
X0002404288Y0001254729D01*
X0002356962Y0001302055D01*
X0002375057Y0001320150D01*
X0002422383Y0001272824D01*
X0002422383Y0001272824D01*
G37*
D55*
X0002425028Y0001322795D03*
D51*
G36*
X0002457739Y0001308180D02*
X0002439644Y0001290084D01*
X0002392317Y0001337410D01*
X0002410413Y0001355506D01*
X0002457739Y0001308180D01*
X0002457739Y0001308180D01*
G37*
D55*
X0002460383Y0001358150D03*
D51*
G36*
X0002493094Y0001343535D02*
X0002474999Y0001325440D01*
X0002427673Y0001372766D01*
X0002445768Y0001390861D01*
X0002493094Y0001343535D01*
X0002493094Y0001343535D01*
G37*
D55*
X0002495739Y0001393506D03*
D51*
G36*
X0002528449Y0001378890D02*
X0002510354Y0001360795D01*
X0002463028Y0001408121D01*
X0002481123Y0001426216D01*
X0002528449Y0001378890D01*
X0002528449Y0001378890D01*
G37*
G04 next file*
G04 Gerber Fmt 4.6, Leading zero omitted, Abs format (unit mm)*
G04 Created by KiCad (PCBNEW 5.0.1-33cea8e~68~ubuntu18.04.1) date Di 04 Dez 2018 23:45:32 CET*
G01*
G04 APERTURE LIST*
G04 APERTURE END LIST*
D56*
X0001967519Y0002025590D02*
X0001912401Y0002025590D01*
X0001967519Y0001881889D02*
X0001967519Y0002025590D01*
X0003490567Y0002159293D02*
G75*
G02X0001967519Y0001881889I-0000844898J0000319052D01*
G01*
X0003491141Y0002375984D02*
X0003490669Y0002159255D01*
X0003151574Y0002375984D02*
X0003491141Y0002375984D01*
X0003001968Y0002257873D02*
X0003151574Y0002375984D01*
X0002216535Y0002257873D02*
X0003001968Y0002257873D01*
X0002216535Y0002362204D02*
X0002216535Y0002257873D01*
X0001812992Y0002362204D02*
X0002216535Y0002362204D01*
X0001812992Y0002080708D02*
X0001812992Y0002362204D01*
X0001844488Y0002025590D02*
X0001812992Y0002080708D01*
X0001912401Y0002025590D02*
X0001844488Y0002025590D01*
X0003125000Y0002070866D02*
G75*
G03X0003125000Y0002070866I-0000031496D01*
G01*
X0002404527Y0001949803D02*
G75*
G03X0002404527Y0001949803I-0000051181D01*
G01*
D57*
G36*
X0003227439Y0002128712D02*
X0003228002Y0002128628D01*
X0003228555Y0002128490D01*
X0003229092Y0002128298D01*
X0003229607Y0002128054D01*
X0003230096Y0002127761D01*
X0003230554Y0002127422D01*
X0003230976Y0002127039D01*
X0003231359Y0002126617D01*
X0003231698Y0002126159D01*
X0003231991Y0002125670D01*
X0003232235Y0002125155D01*
X0003232427Y0002124618D01*
X0003232565Y0002124065D01*
X0003232649Y0002123502D01*
X0003232677Y0002122933D01*
X0003232677Y0002109350D01*
X0003232649Y0002108781D01*
X0003232565Y0002108217D01*
X0003232427Y0002107664D01*
X0003232235Y0002107128D01*
X0003231991Y0002106612D01*
X0003231698Y0002106124D01*
X0003231359Y0002105666D01*
X0003230976Y0002105244D01*
X0003230554Y0002104861D01*
X0003230096Y0002104521D01*
X0003229607Y0002104229D01*
X0003229092Y0002103985D01*
X0003228555Y0002103793D01*
X0003228002Y0002103654D01*
X0003227439Y0002103571D01*
X0003226870Y0002103543D01*
X0003215255Y0002103543D01*
X0003214686Y0002103571D01*
X0003214122Y0002103654D01*
X0003213570Y0002103793D01*
X0003213033Y0002103985D01*
X0003212518Y0002104229D01*
X0003212029Y0002104521D01*
X0003211571Y0002104861D01*
X0003211149Y0002105244D01*
X0003210766Y0002105666D01*
X0003210427Y0002106124D01*
X0003210134Y0002106612D01*
X0003209890Y0002107128D01*
X0003209698Y0002107664D01*
X0003209560Y0002108217D01*
X0003209476Y0002108781D01*
X0003209448Y0002109350D01*
X0003209448Y0002122933D01*
X0003209476Y0002123502D01*
X0003209560Y0002124065D01*
X0003209698Y0002124618D01*
X0003209890Y0002125155D01*
X0003210134Y0002125670D01*
X0003210427Y0002126159D01*
X0003210766Y0002126617D01*
X0003211149Y0002127039D01*
X0003211571Y0002127422D01*
X0003212029Y0002127761D01*
X0003212518Y0002128054D01*
X0003213033Y0002128298D01*
X0003213570Y0002128490D01*
X0003214122Y0002128628D01*
X0003214686Y0002128712D01*
X0003215255Y0002128740D01*
X0003226870Y0002128740D01*
X0003227439Y0002128712D01*
X0003227439Y0002128712D01*
G37*
D58*
X0003221062Y0002116141D03*
D57*
G36*
X0003265628Y0002128712D02*
X0003266191Y0002128628D01*
X0003266744Y0002128490D01*
X0003267281Y0002128298D01*
X0003267796Y0002128054D01*
X0003268285Y0002127761D01*
X0003268743Y0002127422D01*
X0003269165Y0002127039D01*
X0003269547Y0002126617D01*
X0003269887Y0002126159D01*
X0003270180Y0002125670D01*
X0003270424Y0002125155D01*
X0003270616Y0002124618D01*
X0003270754Y0002124065D01*
X0003270838Y0002123502D01*
X0003270866Y0002122933D01*
X0003270866Y0002109350D01*
X0003270838Y0002108781D01*
X0003270754Y0002108217D01*
X0003270616Y0002107664D01*
X0003270424Y0002107128D01*
X0003270180Y0002106612D01*
X0003269887Y0002106124D01*
X0003269547Y0002105666D01*
X0003269165Y0002105244D01*
X0003268743Y0002104861D01*
X0003268285Y0002104521D01*
X0003267796Y0002104229D01*
X0003267281Y0002103985D01*
X0003266744Y0002103793D01*
X0003266191Y0002103654D01*
X0003265628Y0002103571D01*
X0003265059Y0002103543D01*
X0003253444Y0002103543D01*
X0003252875Y0002103571D01*
X0003252311Y0002103654D01*
X0003251759Y0002103793D01*
X0003251222Y0002103985D01*
X0003250707Y0002104229D01*
X0003250218Y0002104521D01*
X0003249760Y0002104861D01*
X0003249338Y0002105244D01*
X0003248955Y0002105666D01*
X0003248616Y0002106124D01*
X0003248323Y0002106612D01*
X0003248079Y0002107128D01*
X0003247887Y0002107664D01*
X0003247749Y0002108217D01*
X0003247665Y0002108781D01*
X0003247637Y0002109350D01*
X0003247637Y0002122933D01*
X0003247665Y0002123502D01*
X0003247749Y0002124065D01*
X0003247887Y0002124618D01*
X0003248079Y0002125155D01*
X0003248323Y0002125670D01*
X0003248616Y0002126159D01*
X0003248955Y0002126617D01*
X0003249338Y0002127039D01*
X0003249760Y0002127422D01*
X0003250218Y0002127761D01*
X0003250707Y0002128054D01*
X0003251222Y0002128298D01*
X0003251759Y0002128490D01*
X0003252311Y0002128628D01*
X0003252875Y0002128712D01*
X0003253444Y0002128740D01*
X0003265059Y0002128740D01*
X0003265628Y0002128712D01*
X0003265628Y0002128712D01*
G37*
D58*
X0003259251Y0002116141D03*
D57*
G36*
X0002990850Y0001833642D02*
X0002991686Y0001833517D01*
X0002992506Y0001833312D01*
X0002993302Y0001833027D01*
X0002994066Y0001832666D01*
X0002994791Y0001832232D01*
X0002995470Y0001831728D01*
X0002996096Y0001831160D01*
X0002996664Y0001830534D01*
X0002997167Y0001829855D01*
X0002997601Y0001829131D01*
X0002997963Y0001828367D01*
X0002998248Y0001827571D01*
X0002998453Y0001826751D01*
X0002998577Y0001825915D01*
X0002998618Y0001825071D01*
X0002998618Y0001807846D01*
X0002998577Y0001807002D01*
X0002998453Y0001806166D01*
X0002998248Y0001805346D01*
X0002997963Y0001804551D01*
X0002997601Y0001803787D01*
X0002997167Y0001803062D01*
X0002996664Y0001802383D01*
X0002996096Y0001801757D01*
X0002995470Y0001801189D01*
X0002994791Y0001800686D01*
X0002994066Y0001800251D01*
X0002993302Y0001799890D01*
X0002992506Y0001799605D01*
X0002991686Y0001799400D01*
X0002990850Y0001799276D01*
X0002990006Y0001799234D01*
X0002969829Y0001799234D01*
X0002968985Y0001799276D01*
X0002968149Y0001799400D01*
X0002967329Y0001799605D01*
X0002966533Y0001799890D01*
X0002965769Y0001800251D01*
X0002965044Y0001800686D01*
X0002964365Y0001801189D01*
X0002963739Y0001801757D01*
X0002963172Y0001802383D01*
X0002962668Y0001803062D01*
X0002962234Y0001803787D01*
X0002961872Y0001804551D01*
X0002961588Y0001805346D01*
X0002961382Y0001806166D01*
X0002961258Y0001807002D01*
X0002961217Y0001807846D01*
X0002961217Y0001825071D01*
X0002961258Y0001825915D01*
X0002961382Y0001826751D01*
X0002961588Y0001827571D01*
X0002961872Y0001828367D01*
X0002962234Y0001829131D01*
X0002962668Y0001829855D01*
X0002963172Y0001830534D01*
X0002963739Y0001831160D01*
X0002964365Y0001831728D01*
X0002965044Y0001832232D01*
X0002965769Y0001832666D01*
X0002966533Y0001833027D01*
X0002967329Y0001833312D01*
X0002968149Y0001833517D01*
X0002968985Y0001833642D01*
X0002969829Y0001833683D01*
X0002990006Y0001833683D01*
X0002990850Y0001833642D01*
X0002990850Y0001833642D01*
G37*
D59*
X0002979918Y0001816459D03*
D57*
G36*
X0002990850Y0001895649D02*
X0002991686Y0001895525D01*
X0002992506Y0001895320D01*
X0002993302Y0001895035D01*
X0002994066Y0001894674D01*
X0002994791Y0001894239D01*
X0002995470Y0001893736D01*
X0002996096Y0001893168D01*
X0002996664Y0001892542D01*
X0002997167Y0001891863D01*
X0002997601Y0001891138D01*
X0002997963Y0001890374D01*
X0002998248Y0001889579D01*
X0002998453Y0001888759D01*
X0002998577Y0001887923D01*
X0002998618Y0001887079D01*
X0002998618Y0001869854D01*
X0002998577Y0001869010D01*
X0002998453Y0001868174D01*
X0002998248Y0001867354D01*
X0002997963Y0001866558D01*
X0002997601Y0001865794D01*
X0002997167Y0001865070D01*
X0002996664Y0001864391D01*
X0002996096Y0001863764D01*
X0002995470Y0001863197D01*
X0002994791Y0001862693D01*
X0002994066Y0001862259D01*
X0002993302Y0001861898D01*
X0002992506Y0001861613D01*
X0002991686Y0001861407D01*
X0002990850Y0001861283D01*
X0002990006Y0001861242D01*
X0002969829Y0001861242D01*
X0002968985Y0001861283D01*
X0002968149Y0001861407D01*
X0002967329Y0001861613D01*
X0002966533Y0001861898D01*
X0002965769Y0001862259D01*
X0002965044Y0001862693D01*
X0002964365Y0001863197D01*
X0002963739Y0001863764D01*
X0002963172Y0001864391D01*
X0002962668Y0001865070D01*
X0002962234Y0001865794D01*
X0002961872Y0001866558D01*
X0002961588Y0001867354D01*
X0002961382Y0001868174D01*
X0002961258Y0001869010D01*
X0002961217Y0001869854D01*
X0002961217Y0001887079D01*
X0002961258Y0001887923D01*
X0002961382Y0001888759D01*
X0002961588Y0001889579D01*
X0002961872Y0001890374D01*
X0002962234Y0001891138D01*
X0002962668Y0001891863D01*
X0002963172Y0001892542D01*
X0002963739Y0001893168D01*
X0002964365Y0001893736D01*
X0002965044Y0001894239D01*
X0002965769Y0001894674D01*
X0002966533Y0001895035D01*
X0002967329Y0001895320D01*
X0002968149Y0001895525D01*
X0002968985Y0001895649D01*
X0002969829Y0001895691D01*
X0002990006Y0001895691D01*
X0002990850Y0001895649D01*
X0002990850Y0001895649D01*
G37*
D59*
X0002979918Y0001878466D03*
D57*
G36*
X0002525999Y0002214233D02*
X0002526563Y0002214149D01*
X0002527116Y0002214011D01*
X0002527652Y0002213819D01*
X0002528168Y0002213575D01*
X0002528656Y0002213282D01*
X0002529114Y0002212943D01*
X0002529536Y0002212560D01*
X0002529919Y0002212138D01*
X0002530259Y0002211680D01*
X0002530552Y0002211191D01*
X0002530795Y0002210676D01*
X0002530987Y0002210140D01*
X0002531126Y0002209587D01*
X0002531209Y0002209023D01*
X0002531237Y0002208454D01*
X0002531237Y0002194871D01*
X0002531209Y0002194302D01*
X0002531126Y0002193738D01*
X0002530987Y0002193185D01*
X0002530795Y0002192649D01*
X0002530552Y0002192134D01*
X0002530259Y0002191645D01*
X0002529919Y0002191187D01*
X0002529536Y0002190765D01*
X0002529114Y0002190382D01*
X0002528656Y0002190043D01*
X0002528168Y0002189750D01*
X0002527652Y0002189506D01*
X0002527116Y0002189314D01*
X0002526563Y0002189176D01*
X0002525999Y0002189092D01*
X0002525430Y0002189064D01*
X0002513816Y0002189064D01*
X0002513247Y0002189092D01*
X0002512683Y0002189176D01*
X0002512130Y0002189314D01*
X0002511594Y0002189506D01*
X0002511079Y0002189750D01*
X0002510590Y0002190043D01*
X0002510132Y0002190382D01*
X0002509710Y0002190765D01*
X0002509327Y0002191187D01*
X0002508988Y0002191645D01*
X0002508695Y0002192134D01*
X0002508451Y0002192649D01*
X0002508259Y0002193185D01*
X0002508120Y0002193738D01*
X0002508037Y0002194302D01*
X0002508009Y0002194871D01*
X0002508009Y0002208454D01*
X0002508037Y0002209023D01*
X0002508120Y0002209587D01*
X0002508259Y0002210140D01*
X0002508451Y0002210676D01*
X0002508695Y0002211191D01*
X0002508988Y0002211680D01*
X0002509327Y0002212138D01*
X0002509710Y0002212560D01*
X0002510132Y0002212943D01*
X0002510590Y0002213282D01*
X0002511079Y0002213575D01*
X0002511594Y0002213819D01*
X0002512130Y0002214011D01*
X0002512683Y0002214149D01*
X0002513247Y0002214233D01*
X0002513816Y0002214261D01*
X0002525430Y0002214261D01*
X0002525999Y0002214233D01*
X0002525999Y0002214233D01*
G37*
D58*
X0002519623Y0002201662D03*
D57*
G36*
X0002564188Y0002214233D02*
X0002564752Y0002214149D01*
X0002565305Y0002214011D01*
X0002565841Y0002213819D01*
X0002566357Y0002213575D01*
X0002566845Y0002213282D01*
X0002567303Y0002212943D01*
X0002567725Y0002212560D01*
X0002568108Y0002212138D01*
X0002568448Y0002211680D01*
X0002568741Y0002211191D01*
X0002568984Y0002210676D01*
X0002569176Y0002210140D01*
X0002569315Y0002209587D01*
X0002569398Y0002209023D01*
X0002569426Y0002208454D01*
X0002569426Y0002194871D01*
X0002569398Y0002194302D01*
X0002569315Y0002193738D01*
X0002569176Y0002193185D01*
X0002568984Y0002192649D01*
X0002568741Y0002192134D01*
X0002568448Y0002191645D01*
X0002568108Y0002191187D01*
X0002567725Y0002190765D01*
X0002567303Y0002190382D01*
X0002566845Y0002190043D01*
X0002566357Y0002189750D01*
X0002565841Y0002189506D01*
X0002565305Y0002189314D01*
X0002564752Y0002189176D01*
X0002564188Y0002189092D01*
X0002563619Y0002189064D01*
X0002552005Y0002189064D01*
X0002551436Y0002189092D01*
X0002550872Y0002189176D01*
X0002550319Y0002189314D01*
X0002549783Y0002189506D01*
X0002549268Y0002189750D01*
X0002548779Y0002190043D01*
X0002548321Y0002190382D01*
X0002547899Y0002190765D01*
X0002547516Y0002191187D01*
X0002547177Y0002191645D01*
X0002546884Y0002192134D01*
X0002546640Y0002192649D01*
X0002546448Y0002193185D01*
X0002546310Y0002193738D01*
X0002546226Y0002194302D01*
X0002546198Y0002194871D01*
X0002546198Y0002208454D01*
X0002546226Y0002209023D01*
X0002546310Y0002209587D01*
X0002546448Y0002210140D01*
X0002546640Y0002210676D01*
X0002546884Y0002211191D01*
X0002547177Y0002211680D01*
X0002547516Y0002212138D01*
X0002547899Y0002212560D01*
X0002548321Y0002212943D01*
X0002548779Y0002213282D01*
X0002549268Y0002213575D01*
X0002549783Y0002213819D01*
X0002550319Y0002214011D01*
X0002550872Y0002214149D01*
X0002551436Y0002214233D01*
X0002552005Y0002214261D01*
X0002563619Y0002214261D01*
X0002564188Y0002214233D01*
X0002564188Y0002214233D01*
G37*
D58*
X0002557812Y0002201662D03*
D57*
G36*
X0001918581Y0002118869D02*
X0001919144Y0002118786D01*
X0001919697Y0002118647D01*
X0001920234Y0002118455D01*
X0001920749Y0002118211D01*
X0001921238Y0002117918D01*
X0001921695Y0002117579D01*
X0001922118Y0002117196D01*
X0001922500Y0002116774D01*
X0001922840Y0002116316D01*
X0001923133Y0002115827D01*
X0001923376Y0002115312D01*
X0001923568Y0002114776D01*
X0001923707Y0002114223D01*
X0001923790Y0002113659D01*
X0001923818Y0002113090D01*
X0001923818Y0002099507D01*
X0001923790Y0002098938D01*
X0001923707Y0002098374D01*
X0001923568Y0002097822D01*
X0001923376Y0002097285D01*
X0001923133Y0002096770D01*
X0001922840Y0002096281D01*
X0001922500Y0002095823D01*
X0001922118Y0002095401D01*
X0001921695Y0002095018D01*
X0001921238Y0002094679D01*
X0001920749Y0002094386D01*
X0001920234Y0002094142D01*
X0001919697Y0002093950D01*
X0001919144Y0002093812D01*
X0001918581Y0002093728D01*
X0001918011Y0002093700D01*
X0001906397Y0002093700D01*
X0001905828Y0002093728D01*
X0001905264Y0002093812D01*
X0001904711Y0002093950D01*
X0001904175Y0002094142D01*
X0001903660Y0002094386D01*
X0001903171Y0002094679D01*
X0001902713Y0002095018D01*
X0001902291Y0002095401D01*
X0001901908Y0002095823D01*
X0001901569Y0002096281D01*
X0001901276Y0002096770D01*
X0001901032Y0002097285D01*
X0001900840Y0002097822D01*
X0001900702Y0002098374D01*
X0001900618Y0002098938D01*
X0001900590Y0002099507D01*
X0001900590Y0002113090D01*
X0001900618Y0002113659D01*
X0001900702Y0002114223D01*
X0001900840Y0002114776D01*
X0001901032Y0002115312D01*
X0001901276Y0002115827D01*
X0001901569Y0002116316D01*
X0001901908Y0002116774D01*
X0001902291Y0002117196D01*
X0001902713Y0002117579D01*
X0001903171Y0002117918D01*
X0001903660Y0002118211D01*
X0001904175Y0002118455D01*
X0001904711Y0002118647D01*
X0001905264Y0002118786D01*
X0001905828Y0002118869D01*
X0001906397Y0002118897D01*
X0001918011Y0002118897D01*
X0001918581Y0002118869D01*
X0001918581Y0002118869D01*
G37*
D58*
X0001912204Y0002106299D03*
D57*
G36*
X0001880392Y0002118869D02*
X0001880955Y0002118786D01*
X0001881508Y0002118647D01*
X0001882045Y0002118455D01*
X0001882560Y0002118211D01*
X0001883049Y0002117918D01*
X0001883506Y0002117579D01*
X0001883929Y0002117196D01*
X0001884311Y0002116774D01*
X0001884651Y0002116316D01*
X0001884944Y0002115827D01*
X0001885187Y0002115312D01*
X0001885379Y0002114776D01*
X0001885518Y0002114223D01*
X0001885601Y0002113659D01*
X0001885629Y0002113090D01*
X0001885629Y0002099507D01*
X0001885601Y0002098938D01*
X0001885518Y0002098374D01*
X0001885379Y0002097822D01*
X0001885187Y0002097285D01*
X0001884944Y0002096770D01*
X0001884651Y0002096281D01*
X0001884311Y0002095823D01*
X0001883929Y0002095401D01*
X0001883506Y0002095018D01*
X0001883049Y0002094679D01*
X0001882560Y0002094386D01*
X0001882045Y0002094142D01*
X0001881508Y0002093950D01*
X0001880955Y0002093812D01*
X0001880392Y0002093728D01*
X0001879822Y0002093700D01*
X0001868208Y0002093700D01*
X0001867639Y0002093728D01*
X0001867075Y0002093812D01*
X0001866522Y0002093950D01*
X0001865986Y0002094142D01*
X0001865471Y0002094386D01*
X0001864982Y0002094679D01*
X0001864524Y0002095018D01*
X0001864102Y0002095401D01*
X0001863719Y0002095823D01*
X0001863380Y0002096281D01*
X0001863087Y0002096770D01*
X0001862843Y0002097285D01*
X0001862651Y0002097822D01*
X0001862513Y0002098374D01*
X0001862429Y0002098938D01*
X0001862401Y0002099507D01*
X0001862401Y0002113090D01*
X0001862429Y0002113659D01*
X0001862513Y0002114223D01*
X0001862651Y0002114776D01*
X0001862843Y0002115312D01*
X0001863087Y0002115827D01*
X0001863380Y0002116316D01*
X0001863719Y0002116774D01*
X0001864102Y0002117196D01*
X0001864524Y0002117579D01*
X0001864982Y0002117918D01*
X0001865471Y0002118211D01*
X0001865986Y0002118455D01*
X0001866522Y0002118647D01*
X0001867075Y0002118786D01*
X0001867639Y0002118869D01*
X0001868208Y0002118897D01*
X0001879822Y0002118897D01*
X0001880392Y0002118869D01*
X0001880392Y0002118869D01*
G37*
D58*
X0001874015Y0002106299D03*
D60*
X0001895669Y0002175199D03*
X0001895669Y0002301183D03*
X0002088582Y0002175199D03*
X0002088582Y0002301183D03*
X0003220472Y0002188976D03*
X0003220472Y0002314960D03*
X0003413385Y0002188976D03*
X0003413385Y0002314960D03*
D61*
X0002698962Y0001977684D03*
D57*
G36*
X0002731673Y0001963068D02*
X0002713578Y0001944973D01*
X0002666252Y0001992299D01*
X0002684347Y0002010394D01*
X0002731673Y0001963068D01*
X0002731673Y0001963068D01*
G37*
D61*
X0002663607Y0001942328D03*
D57*
G36*
X0002696318Y0001927713D02*
X0002678222Y0001909618D01*
X0002630896Y0001956944D01*
X0002648992Y0001975039D01*
X0002696318Y0001927713D01*
X0002696318Y0001927713D01*
G37*
D61*
X0002628252Y0001906973D03*
D57*
G36*
X0002660962Y0001892358D02*
X0002642867Y0001874262D01*
X0002595541Y0001921588D01*
X0002613636Y0001939684D01*
X0002660962Y0001892358D01*
X0002660962Y0001892358D01*
G37*
D61*
X0002592896Y0001871618D03*
D57*
G36*
X0002625607Y0001857002D02*
X0002607512Y0001838907D01*
X0002560186Y0001886233D01*
X0002578281Y0001904328D01*
X0002625607Y0001857002D01*
X0002625607Y0001857002D01*
G37*
D61*
X0002389673Y0002074841D03*
D57*
G36*
X0002422383Y0002060226D02*
X0002404288Y0002042131D01*
X0002356962Y0002089457D01*
X0002375057Y0002107552D01*
X0002422383Y0002060226D01*
X0002422383Y0002060226D01*
G37*
D61*
X0002425028Y0002110197D03*
D57*
G36*
X0002457739Y0002095581D02*
X0002439644Y0002077486D01*
X0002392317Y0002124812D01*
X0002410413Y0002142907D01*
X0002457739Y0002095581D01*
X0002457739Y0002095581D01*
G37*
D61*
X0002460383Y0002145552D03*
D57*
G36*
X0002493094Y0002130937D02*
X0002474999Y0002112841D01*
X0002427673Y0002160167D01*
X0002445768Y0002178263D01*
X0002493094Y0002130937D01*
X0002493094Y0002130937D01*
G37*
D61*
X0002495739Y0002180907D03*
D57*
G36*
X0002528449Y0002166292D02*
X0002510354Y0002148197D01*
X0002463028Y0002195523D01*
X0002481123Y0002213618D01*
X0002528449Y0002166292D01*
X0002528449Y0002166292D01*
G37*
G04 next file*
G04 Gerber Fmt 4.6, Leading zero omitted, Abs format (unit mm)*
G04 Created by KiCad (PCBNEW 5.0.1-33cea8e~68~ubuntu18.04.1) date Di 04 Dez 2018 23:45:32 CET*
G01*
G04 APERTURE LIST*
G04 APERTURE END LIST*
D62*
X0001967519Y0002812992D02*
X0001912401Y0002812992D01*
X0001967519Y0002669291D02*
X0001967519Y0002812992D01*
X0003490567Y0002946695D02*
G75*
G02X0001967519Y0002669291I-0000844898J0000319052D01*
G01*
X0003491141Y0003163385D02*
X0003490669Y0002946656D01*
X0003151574Y0003163385D02*
X0003491141Y0003163385D01*
X0003001968Y0003045275D02*
X0003151574Y0003163385D01*
X0002216535Y0003045275D02*
X0003001968Y0003045275D01*
X0002216535Y0003149606D02*
X0002216535Y0003045275D01*
X0001812992Y0003149606D02*
X0002216535Y0003149606D01*
X0001812992Y0002868110D02*
X0001812992Y0003149606D01*
X0001844488Y0002812992D02*
X0001812992Y0002868110D01*
X0001912401Y0002812992D02*
X0001844488Y0002812992D01*
X0003125000Y0002858267D02*
G75*
G03X0003125000Y0002858267I-0000031496D01*
G01*
X0002404527Y0002737204D02*
G75*
G03X0002404527Y0002737204I-0000051181D01*
G01*
D63*
G36*
X0003227439Y0002916113D02*
X0003228002Y0002916030D01*
X0003228555Y0002915891D01*
X0003229092Y0002915699D01*
X0003229607Y0002915456D01*
X0003230096Y0002915163D01*
X0003230554Y0002914823D01*
X0003230976Y0002914440D01*
X0003231359Y0002914018D01*
X0003231698Y0002913560D01*
X0003231991Y0002913072D01*
X0003232235Y0002912556D01*
X0003232427Y0002912020D01*
X0003232565Y0002911467D01*
X0003232649Y0002910903D01*
X0003232677Y0002910334D01*
X0003232677Y0002896751D01*
X0003232649Y0002896182D01*
X0003232565Y0002895619D01*
X0003232427Y0002895066D01*
X0003232235Y0002894529D01*
X0003231991Y0002894014D01*
X0003231698Y0002893525D01*
X0003231359Y0002893067D01*
X0003230976Y0002892645D01*
X0003230554Y0002892263D01*
X0003230096Y0002891923D01*
X0003229607Y0002891630D01*
X0003229092Y0002891386D01*
X0003228555Y0002891194D01*
X0003228002Y0002891056D01*
X0003227439Y0002890972D01*
X0003226870Y0002890944D01*
X0003215255Y0002890944D01*
X0003214686Y0002890972D01*
X0003214122Y0002891056D01*
X0003213570Y0002891194D01*
X0003213033Y0002891386D01*
X0003212518Y0002891630D01*
X0003212029Y0002891923D01*
X0003211571Y0002892263D01*
X0003211149Y0002892645D01*
X0003210766Y0002893067D01*
X0003210427Y0002893525D01*
X0003210134Y0002894014D01*
X0003209890Y0002894529D01*
X0003209698Y0002895066D01*
X0003209560Y0002895619D01*
X0003209476Y0002896182D01*
X0003209448Y0002896751D01*
X0003209448Y0002910334D01*
X0003209476Y0002910903D01*
X0003209560Y0002911467D01*
X0003209698Y0002912020D01*
X0003209890Y0002912556D01*
X0003210134Y0002913072D01*
X0003210427Y0002913560D01*
X0003210766Y0002914018D01*
X0003211149Y0002914440D01*
X0003211571Y0002914823D01*
X0003212029Y0002915163D01*
X0003212518Y0002915456D01*
X0003213033Y0002915699D01*
X0003213570Y0002915891D01*
X0003214122Y0002916030D01*
X0003214686Y0002916113D01*
X0003215255Y0002916141D01*
X0003226870Y0002916141D01*
X0003227439Y0002916113D01*
X0003227439Y0002916113D01*
G37*
D64*
X0003221062Y0002903543D03*
D63*
G36*
X0003265628Y0002916113D02*
X0003266191Y0002916030D01*
X0003266744Y0002915891D01*
X0003267281Y0002915699D01*
X0003267796Y0002915456D01*
X0003268285Y0002915163D01*
X0003268743Y0002914823D01*
X0003269165Y0002914440D01*
X0003269547Y0002914018D01*
X0003269887Y0002913560D01*
X0003270180Y0002913072D01*
X0003270424Y0002912556D01*
X0003270616Y0002912020D01*
X0003270754Y0002911467D01*
X0003270838Y0002910903D01*
X0003270866Y0002910334D01*
X0003270866Y0002896751D01*
X0003270838Y0002896182D01*
X0003270754Y0002895619D01*
X0003270616Y0002895066D01*
X0003270424Y0002894529D01*
X0003270180Y0002894014D01*
X0003269887Y0002893525D01*
X0003269547Y0002893067D01*
X0003269165Y0002892645D01*
X0003268743Y0002892263D01*
X0003268285Y0002891923D01*
X0003267796Y0002891630D01*
X0003267281Y0002891386D01*
X0003266744Y0002891194D01*
X0003266191Y0002891056D01*
X0003265628Y0002890972D01*
X0003265059Y0002890944D01*
X0003253444Y0002890944D01*
X0003252875Y0002890972D01*
X0003252311Y0002891056D01*
X0003251759Y0002891194D01*
X0003251222Y0002891386D01*
X0003250707Y0002891630D01*
X0003250218Y0002891923D01*
X0003249760Y0002892263D01*
X0003249338Y0002892645D01*
X0003248955Y0002893067D01*
X0003248616Y0002893525D01*
X0003248323Y0002894014D01*
X0003248079Y0002894529D01*
X0003247887Y0002895066D01*
X0003247749Y0002895619D01*
X0003247665Y0002896182D01*
X0003247637Y0002896751D01*
X0003247637Y0002910334D01*
X0003247665Y0002910903D01*
X0003247749Y0002911467D01*
X0003247887Y0002912020D01*
X0003248079Y0002912556D01*
X0003248323Y0002913072D01*
X0003248616Y0002913560D01*
X0003248955Y0002914018D01*
X0003249338Y0002914440D01*
X0003249760Y0002914823D01*
X0003250218Y0002915163D01*
X0003250707Y0002915456D01*
X0003251222Y0002915699D01*
X0003251759Y0002915891D01*
X0003252311Y0002916030D01*
X0003252875Y0002916113D01*
X0003253444Y0002916141D01*
X0003265059Y0002916141D01*
X0003265628Y0002916113D01*
X0003265628Y0002916113D01*
G37*
D64*
X0003259251Y0002903543D03*
D63*
G36*
X0002990850Y0002621043D02*
X0002991686Y0002620919D01*
X0002992506Y0002620714D01*
X0002993302Y0002620429D01*
X0002994066Y0002620068D01*
X0002994791Y0002619633D01*
X0002995470Y0002619130D01*
X0002996096Y0002618562D01*
X0002996664Y0002617936D01*
X0002997167Y0002617257D01*
X0002997601Y0002616532D01*
X0002997963Y0002615768D01*
X0002998248Y0002614972D01*
X0002998453Y0002614152D01*
X0002998577Y0002613316D01*
X0002998618Y0002612472D01*
X0002998618Y0002595248D01*
X0002998577Y0002594404D01*
X0002998453Y0002593568D01*
X0002998248Y0002592748D01*
X0002997963Y0002591952D01*
X0002997601Y0002591188D01*
X0002997167Y0002590463D01*
X0002996664Y0002589784D01*
X0002996096Y0002589158D01*
X0002995470Y0002588591D01*
X0002994791Y0002588087D01*
X0002994066Y0002587653D01*
X0002993302Y0002587291D01*
X0002992506Y0002587007D01*
X0002991686Y0002586801D01*
X0002990850Y0002586677D01*
X0002990006Y0002586636D01*
X0002969829Y0002586636D01*
X0002968985Y0002586677D01*
X0002968149Y0002586801D01*
X0002967329Y0002587007D01*
X0002966533Y0002587291D01*
X0002965769Y0002587653D01*
X0002965044Y0002588087D01*
X0002964365Y0002588591D01*
X0002963739Y0002589158D01*
X0002963172Y0002589784D01*
X0002962668Y0002590463D01*
X0002962234Y0002591188D01*
X0002961872Y0002591952D01*
X0002961588Y0002592748D01*
X0002961382Y0002593568D01*
X0002961258Y0002594404D01*
X0002961217Y0002595248D01*
X0002961217Y0002612472D01*
X0002961258Y0002613316D01*
X0002961382Y0002614152D01*
X0002961588Y0002614972D01*
X0002961872Y0002615768D01*
X0002962234Y0002616532D01*
X0002962668Y0002617257D01*
X0002963172Y0002617936D01*
X0002963739Y0002618562D01*
X0002964365Y0002619130D01*
X0002965044Y0002619633D01*
X0002965769Y0002620068D01*
X0002966533Y0002620429D01*
X0002967329Y0002620714D01*
X0002968149Y0002620919D01*
X0002968985Y0002621043D01*
X0002969829Y0002621085D01*
X0002990006Y0002621085D01*
X0002990850Y0002621043D01*
X0002990850Y0002621043D01*
G37*
D65*
X0002979918Y0002603860D03*
D63*
G36*
X0002990850Y0002683051D02*
X0002991686Y0002682927D01*
X0002992506Y0002682722D01*
X0002993302Y0002682437D01*
X0002994066Y0002682075D01*
X0002994791Y0002681641D01*
X0002995470Y0002681138D01*
X0002996096Y0002680570D01*
X0002996664Y0002679944D01*
X0002997167Y0002679265D01*
X0002997601Y0002678540D01*
X0002997963Y0002677776D01*
X0002998248Y0002676980D01*
X0002998453Y0002676160D01*
X0002998577Y0002675324D01*
X0002998618Y0002674480D01*
X0002998618Y0002657256D01*
X0002998577Y0002656412D01*
X0002998453Y0002655576D01*
X0002998248Y0002654756D01*
X0002997963Y0002653960D01*
X0002997601Y0002653196D01*
X0002997167Y0002652471D01*
X0002996664Y0002651792D01*
X0002996096Y0002651166D01*
X0002995470Y0002650598D01*
X0002994791Y0002650095D01*
X0002994066Y0002649661D01*
X0002993302Y0002649299D01*
X0002992506Y0002649014D01*
X0002991686Y0002648809D01*
X0002990850Y0002648685D01*
X0002990006Y0002648644D01*
X0002969829Y0002648644D01*
X0002968985Y0002648685D01*
X0002968149Y0002648809D01*
X0002967329Y0002649014D01*
X0002966533Y0002649299D01*
X0002965769Y0002649661D01*
X0002965044Y0002650095D01*
X0002964365Y0002650598D01*
X0002963739Y0002651166D01*
X0002963172Y0002651792D01*
X0002962668Y0002652471D01*
X0002962234Y0002653196D01*
X0002961872Y0002653960D01*
X0002961588Y0002654756D01*
X0002961382Y0002655576D01*
X0002961258Y0002656412D01*
X0002961217Y0002657256D01*
X0002961217Y0002674480D01*
X0002961258Y0002675324D01*
X0002961382Y0002676160D01*
X0002961588Y0002676980D01*
X0002961872Y0002677776D01*
X0002962234Y0002678540D01*
X0002962668Y0002679265D01*
X0002963172Y0002679944D01*
X0002963739Y0002680570D01*
X0002964365Y0002681138D01*
X0002965044Y0002681641D01*
X0002965769Y0002682075D01*
X0002966533Y0002682437D01*
X0002967329Y0002682722D01*
X0002968149Y0002682927D01*
X0002968985Y0002683051D01*
X0002969829Y0002683092D01*
X0002990006Y0002683092D01*
X0002990850Y0002683051D01*
X0002990850Y0002683051D01*
G37*
D65*
X0002979918Y0002665868D03*
D63*
G36*
X0002525999Y0003001635D02*
X0002526563Y0003001551D01*
X0002527116Y0003001412D01*
X0002527652Y0003001220D01*
X0002528168Y0003000977D01*
X0002528656Y0003000684D01*
X0002529114Y0003000344D01*
X0002529536Y0002999962D01*
X0002529919Y0002999539D01*
X0002530259Y0002999082D01*
X0002530552Y0002998593D01*
X0002530795Y0002998078D01*
X0002530987Y0002997541D01*
X0002531126Y0002996988D01*
X0002531209Y0002996425D01*
X0002531237Y0002995855D01*
X0002531237Y0002982273D01*
X0002531209Y0002981704D01*
X0002531126Y0002981140D01*
X0002530987Y0002980587D01*
X0002530795Y0002980050D01*
X0002530552Y0002979535D01*
X0002530259Y0002979046D01*
X0002529919Y0002978589D01*
X0002529536Y0002978167D01*
X0002529114Y0002977784D01*
X0002528656Y0002977444D01*
X0002528168Y0002977151D01*
X0002527652Y0002976908D01*
X0002527116Y0002976716D01*
X0002526563Y0002976577D01*
X0002525999Y0002976494D01*
X0002525430Y0002976466D01*
X0002513816Y0002976466D01*
X0002513247Y0002976494D01*
X0002512683Y0002976577D01*
X0002512130Y0002976716D01*
X0002511594Y0002976908D01*
X0002511079Y0002977151D01*
X0002510590Y0002977444D01*
X0002510132Y0002977784D01*
X0002509710Y0002978167D01*
X0002509327Y0002978589D01*
X0002508988Y0002979046D01*
X0002508695Y0002979535D01*
X0002508451Y0002980050D01*
X0002508259Y0002980587D01*
X0002508120Y0002981140D01*
X0002508037Y0002981704D01*
X0002508009Y0002982273D01*
X0002508009Y0002995855D01*
X0002508037Y0002996425D01*
X0002508120Y0002996988D01*
X0002508259Y0002997541D01*
X0002508451Y0002998078D01*
X0002508695Y0002998593D01*
X0002508988Y0002999082D01*
X0002509327Y0002999539D01*
X0002509710Y0002999962D01*
X0002510132Y0003000344D01*
X0002510590Y0003000684D01*
X0002511079Y0003000977D01*
X0002511594Y0003001220D01*
X0002512130Y0003001412D01*
X0002512683Y0003001551D01*
X0002513247Y0003001635D01*
X0002513816Y0003001662D01*
X0002525430Y0003001662D01*
X0002525999Y0003001635D01*
X0002525999Y0003001635D01*
G37*
D64*
X0002519623Y0002989064D03*
D63*
G36*
X0002564188Y0003001635D02*
X0002564752Y0003001551D01*
X0002565305Y0003001412D01*
X0002565841Y0003001220D01*
X0002566357Y0003000977D01*
X0002566845Y0003000684D01*
X0002567303Y0003000344D01*
X0002567725Y0002999962D01*
X0002568108Y0002999539D01*
X0002568448Y0002999082D01*
X0002568741Y0002998593D01*
X0002568984Y0002998078D01*
X0002569176Y0002997541D01*
X0002569315Y0002996988D01*
X0002569398Y0002996425D01*
X0002569426Y0002995855D01*
X0002569426Y0002982273D01*
X0002569398Y0002981704D01*
X0002569315Y0002981140D01*
X0002569176Y0002980587D01*
X0002568984Y0002980050D01*
X0002568741Y0002979535D01*
X0002568448Y0002979046D01*
X0002568108Y0002978589D01*
X0002567725Y0002978167D01*
X0002567303Y0002977784D01*
X0002566845Y0002977444D01*
X0002566357Y0002977151D01*
X0002565841Y0002976908D01*
X0002565305Y0002976716D01*
X0002564752Y0002976577D01*
X0002564188Y0002976494D01*
X0002563619Y0002976466D01*
X0002552005Y0002976466D01*
X0002551436Y0002976494D01*
X0002550872Y0002976577D01*
X0002550319Y0002976716D01*
X0002549783Y0002976908D01*
X0002549268Y0002977151D01*
X0002548779Y0002977444D01*
X0002548321Y0002977784D01*
X0002547899Y0002978167D01*
X0002547516Y0002978589D01*
X0002547177Y0002979046D01*
X0002546884Y0002979535D01*
X0002546640Y0002980050D01*
X0002546448Y0002980587D01*
X0002546310Y0002981140D01*
X0002546226Y0002981704D01*
X0002546198Y0002982273D01*
X0002546198Y0002995855D01*
X0002546226Y0002996425D01*
X0002546310Y0002996988D01*
X0002546448Y0002997541D01*
X0002546640Y0002998078D01*
X0002546884Y0002998593D01*
X0002547177Y0002999082D01*
X0002547516Y0002999539D01*
X0002547899Y0002999962D01*
X0002548321Y0003000344D01*
X0002548779Y0003000684D01*
X0002549268Y0003000977D01*
X0002549783Y0003001220D01*
X0002550319Y0003001412D01*
X0002550872Y0003001551D01*
X0002551436Y0003001635D01*
X0002552005Y0003001662D01*
X0002563619Y0003001662D01*
X0002564188Y0003001635D01*
X0002564188Y0003001635D01*
G37*
D64*
X0002557812Y0002989064D03*
D63*
G36*
X0001918581Y0002906271D02*
X0001919144Y0002906187D01*
X0001919697Y0002906049D01*
X0001920234Y0002905857D01*
X0001920749Y0002905613D01*
X0001921238Y0002905320D01*
X0001921695Y0002904981D01*
X0001922118Y0002904598D01*
X0001922500Y0002904176D01*
X0001922840Y0002903718D01*
X0001923133Y0002903229D01*
X0001923376Y0002902714D01*
X0001923568Y0002902177D01*
X0001923707Y0002901625D01*
X0001923790Y0002901061D01*
X0001923818Y0002900492D01*
X0001923818Y0002886909D01*
X0001923790Y0002886340D01*
X0001923707Y0002885776D01*
X0001923568Y0002885223D01*
X0001923376Y0002884687D01*
X0001923133Y0002884172D01*
X0001922840Y0002883683D01*
X0001922500Y0002883225D01*
X0001922118Y0002882803D01*
X0001921695Y0002882420D01*
X0001921238Y0002882081D01*
X0001920749Y0002881788D01*
X0001920234Y0002881544D01*
X0001919697Y0002881352D01*
X0001919144Y0002881213D01*
X0001918581Y0002881130D01*
X0001918011Y0002881102D01*
X0001906397Y0002881102D01*
X0001905828Y0002881130D01*
X0001905264Y0002881213D01*
X0001904711Y0002881352D01*
X0001904175Y0002881544D01*
X0001903660Y0002881788D01*
X0001903171Y0002882081D01*
X0001902713Y0002882420D01*
X0001902291Y0002882803D01*
X0001901908Y0002883225D01*
X0001901569Y0002883683D01*
X0001901276Y0002884172D01*
X0001901032Y0002884687D01*
X0001900840Y0002885223D01*
X0001900702Y0002885776D01*
X0001900618Y0002886340D01*
X0001900590Y0002886909D01*
X0001900590Y0002900492D01*
X0001900618Y0002901061D01*
X0001900702Y0002901625D01*
X0001900840Y0002902177D01*
X0001901032Y0002902714D01*
X0001901276Y0002903229D01*
X0001901569Y0002903718D01*
X0001901908Y0002904176D01*
X0001902291Y0002904598D01*
X0001902713Y0002904981D01*
X0001903171Y0002905320D01*
X0001903660Y0002905613D01*
X0001904175Y0002905857D01*
X0001904711Y0002906049D01*
X0001905264Y0002906187D01*
X0001905828Y0002906271D01*
X0001906397Y0002906299D01*
X0001918011Y0002906299D01*
X0001918581Y0002906271D01*
X0001918581Y0002906271D01*
G37*
D64*
X0001912204Y0002893700D03*
D63*
G36*
X0001880392Y0002906271D02*
X0001880955Y0002906187D01*
X0001881508Y0002906049D01*
X0001882045Y0002905857D01*
X0001882560Y0002905613D01*
X0001883049Y0002905320D01*
X0001883506Y0002904981D01*
X0001883929Y0002904598D01*
X0001884311Y0002904176D01*
X0001884651Y0002903718D01*
X0001884944Y0002903229D01*
X0001885187Y0002902714D01*
X0001885379Y0002902177D01*
X0001885518Y0002901625D01*
X0001885601Y0002901061D01*
X0001885629Y0002900492D01*
X0001885629Y0002886909D01*
X0001885601Y0002886340D01*
X0001885518Y0002885776D01*
X0001885379Y0002885223D01*
X0001885187Y0002884687D01*
X0001884944Y0002884172D01*
X0001884651Y0002883683D01*
X0001884311Y0002883225D01*
X0001883929Y0002882803D01*
X0001883506Y0002882420D01*
X0001883049Y0002882081D01*
X0001882560Y0002881788D01*
X0001882045Y0002881544D01*
X0001881508Y0002881352D01*
X0001880955Y0002881213D01*
X0001880392Y0002881130D01*
X0001879822Y0002881102D01*
X0001868208Y0002881102D01*
X0001867639Y0002881130D01*
X0001867075Y0002881213D01*
X0001866522Y0002881352D01*
X0001865986Y0002881544D01*
X0001865471Y0002881788D01*
X0001864982Y0002882081D01*
X0001864524Y0002882420D01*
X0001864102Y0002882803D01*
X0001863719Y0002883225D01*
X0001863380Y0002883683D01*
X0001863087Y0002884172D01*
X0001862843Y0002884687D01*
X0001862651Y0002885223D01*
X0001862513Y0002885776D01*
X0001862429Y0002886340D01*
X0001862401Y0002886909D01*
X0001862401Y0002900492D01*
X0001862429Y0002901061D01*
X0001862513Y0002901625D01*
X0001862651Y0002902177D01*
X0001862843Y0002902714D01*
X0001863087Y0002903229D01*
X0001863380Y0002903718D01*
X0001863719Y0002904176D01*
X0001864102Y0002904598D01*
X0001864524Y0002904981D01*
X0001864982Y0002905320D01*
X0001865471Y0002905613D01*
X0001865986Y0002905857D01*
X0001866522Y0002906049D01*
X0001867075Y0002906187D01*
X0001867639Y0002906271D01*
X0001868208Y0002906299D01*
X0001879822Y0002906299D01*
X0001880392Y0002906271D01*
X0001880392Y0002906271D01*
G37*
D64*
X0001874015Y0002893700D03*
D66*
X0001895669Y0002962601D03*
X0001895669Y0003088585D03*
X0002088582Y0002962601D03*
X0002088582Y0003088585D03*
X0003220472Y0002976377D03*
X0003220472Y0003102362D03*
X0003413385Y0002976377D03*
X0003413385Y0003102362D03*
D67*
X0002698962Y0002765085D03*
D63*
G36*
X0002731673Y0002750470D02*
X0002713578Y0002732375D01*
X0002666252Y0002779701D01*
X0002684347Y0002797796D01*
X0002731673Y0002750470D01*
X0002731673Y0002750470D01*
G37*
D67*
X0002663607Y0002729730D03*
D63*
G36*
X0002696318Y0002715115D02*
X0002678222Y0002697019D01*
X0002630896Y0002744345D01*
X0002648992Y0002762441D01*
X0002696318Y0002715115D01*
X0002696318Y0002715115D01*
G37*
D67*
X0002628252Y0002694375D03*
D63*
G36*
X0002660962Y0002679759D02*
X0002642867Y0002661664D01*
X0002595541Y0002708990D01*
X0002613636Y0002727085D01*
X0002660962Y0002679759D01*
X0002660962Y0002679759D01*
G37*
D67*
X0002592896Y0002659019D03*
D63*
G36*
X0002625607Y0002644404D02*
X0002607512Y0002626309D01*
X0002560186Y0002673635D01*
X0002578281Y0002691730D01*
X0002625607Y0002644404D01*
X0002625607Y0002644404D01*
G37*
D67*
X0002389673Y0002862243D03*
D63*
G36*
X0002422383Y0002847627D02*
X0002404288Y0002829532D01*
X0002356962Y0002876858D01*
X0002375057Y0002894953D01*
X0002422383Y0002847627D01*
X0002422383Y0002847627D01*
G37*
D67*
X0002425028Y0002897598D03*
D63*
G36*
X0002457739Y0002882983D02*
X0002439644Y0002864888D01*
X0002392317Y0002912214D01*
X0002410413Y0002930309D01*
X0002457739Y0002882983D01*
X0002457739Y0002882983D01*
G37*
D67*
X0002460383Y0002932954D03*
D63*
G36*
X0002493094Y0002918338D02*
X0002474999Y0002900243D01*
X0002427673Y0002947569D01*
X0002445768Y0002965664D01*
X0002493094Y0002918338D01*
X0002493094Y0002918338D01*
G37*
D67*
X0002495739Y0002968309D03*
D63*
G36*
X0002528449Y0002953693D02*
X0002510354Y0002935598D01*
X0002463028Y0002982924D01*
X0002481123Y0003001020D01*
X0002528449Y0002953693D01*
X0002528449Y0002953693D01*
G37*
M02*