%
M48
METRIC,000.000
T01C0.50
%
T01
X042845Y074631
X042912Y075619
X042915Y076619
X042917Y077619
X045799Y077718
X045799Y076718
X045799Y075718
X045799Y074718
X045799Y073718
X042845Y054631
X042912Y055619
X042915Y056619
X042917Y057619
X045799Y057718
X045799Y056718
X045799Y055718
X045799Y054718
X045799Y053718
X042845Y034631
X042912Y035619
X042915Y036619
X042917Y037619
X045799Y037718
X045799Y036718
X045799Y035718
X045799Y034718
X045799Y033718
X042416Y013695
X042795Y014620
X042862Y015609
X042865Y016609
X042867Y017609
X042870Y018609
X045799Y017718
X045799Y016718
X045799Y015718
X045799Y014718
X045799Y013718
X021832Y057599
X020832Y057599
X019832Y057599
X018832Y057599
X017832Y057599
X022116Y059779
X018182Y059957
X019176Y059849
X020174Y059783
X021832Y037599
X020832Y037599
X019832Y037599
X018832Y037599
X017832Y037599
X022116Y039779
X018182Y039957
X019176Y039849
X020174Y039783
X021782Y017589
X020782Y017589
X019782Y017589
X018782Y017589
X017782Y017589
X022116Y019779
X018182Y019957
X019176Y019849
X020174Y019783
X069832Y057599
X068832Y057599
X067832Y057599
X066832Y057599
X065832Y057599
X068116Y059779
X069114Y059840
X070109Y059943
X065176Y059849
X066174Y059783
X069832Y037599
X068832Y037599
X067832Y037599
X066832Y037599
X065832Y037599
X068116Y039779
X069114Y039840
X070109Y039943
X065176Y039849
X066174Y039783
X069832Y017599
X068832Y017599
X067832Y017599
X066832Y017599
X065832Y017599
X068116Y019779
X069114Y019840
X070109Y019943
X065176Y019849
X066174Y019783
M30