%MOIN*%
%OFA0B0*%
%FSLAX44Y44*%
%IPPOS*%
%LPD*%
%ADD10C,0*%
D10*
X00023561Y00026860D02*
X00023561Y00026860D01*
X00023450Y00026866D01*
X00023344Y00026896D01*
X00023246Y00026948D01*
X00023161Y00027020D01*
X00023094Y00027108D01*
X00023048Y00027208D01*
X00023024Y00027316D01*
X00023024Y00027427D01*
X00023048Y00027535D01*
X00023094Y00027635D01*
X00023161Y00027724D01*
X00023246Y00027795D01*
X00023344Y00027847D01*
X00023450Y00027877D01*
X00023561Y00027883D01*
X00023670Y00027865D01*
X00023773Y00027824D01*
X00023864Y00027762D01*
X00023940Y00027681D01*
X00023997Y00027586D01*
X00024033Y00027482D01*
X00024045Y00027372D01*
X00024033Y00027262D01*
X00023997Y00027157D01*
X00023940Y00027062D01*
X00023864Y00026981D01*
X00023773Y00026919D01*
X00023670Y00026878D01*
X00023561Y00026860D01*
X00030952Y00028268D02*
X00030952Y00028268D01*
X00030884Y00028271D01*
X00030818Y00028290D01*
X00030758Y00028321D01*
X00030706Y00028366D01*
X00030665Y00028420D01*
X00030636Y00028482D01*
X00030621Y00028548D01*
X00030621Y00028616D01*
X00030636Y00028683D01*
X00030665Y00028745D01*
X00030706Y00028799D01*
X00030758Y00028843D01*
X00030818Y00028875D01*
X00030884Y00028893D01*
X00030952Y00028897D01*
X00031019Y00028886D01*
X00031082Y00028860D01*
X00031138Y00028822D01*
X00031185Y00028773D01*
X00031220Y00028714D01*
X00031242Y00028650D01*
X00031250Y00028582D01*
X00031242Y00028514D01*
X00031220Y00028450D01*
X00031185Y00028392D01*
X00031138Y00028342D01*
X00031082Y00028304D01*
X00031019Y00028279D01*
X00030952Y00028268D01*
X00023561Y00018986D02*
X00023561Y00018986D01*
X00023450Y00018992D01*
X00023344Y00019022D01*
X00023246Y00019074D01*
X00023161Y00019146D01*
X00023094Y00019234D01*
X00023048Y00019334D01*
X00023024Y00019442D01*
X00023024Y00019553D01*
X00023048Y00019661D01*
X00023094Y00019761D01*
X00023161Y00019850D01*
X00023246Y00019921D01*
X00023344Y00019973D01*
X00023450Y00020003D01*
X00023561Y00020009D01*
X00023670Y00019991D01*
X00023773Y00019950D01*
X00023864Y00019888D01*
X00023940Y00019807D01*
X00023997Y00019712D01*
X00024033Y00019608D01*
X00024045Y00019498D01*
X00024033Y00019388D01*
X00023997Y00019283D01*
X00023940Y00019188D01*
X00023864Y00019107D01*
X00023773Y00019045D01*
X00023670Y00019004D01*
X00023561Y00018986D01*
X00030952Y00020394D02*
X00030952Y00020394D01*
X00030884Y00020397D01*
X00030818Y00020416D01*
X00030758Y00020447D01*
X00030706Y00020492D01*
X00030665Y00020546D01*
X00030636Y00020608D01*
X00030621Y00020674D01*
X00030621Y00020742D01*
X00030636Y00020809D01*
X00030665Y00020871D01*
X00030706Y00020925D01*
X00030758Y00020969D01*
X00030818Y00021001D01*
X00030884Y00021019D01*
X00030952Y00021023D01*
X00031019Y00021012D01*
X00031082Y00020986D01*
X00031138Y00020948D01*
X00031185Y00020899D01*
X00031220Y00020840D01*
X00031242Y00020776D01*
X00031250Y00020708D01*
X00031242Y00020640D01*
X00031220Y00020576D01*
X00031185Y00020518D01*
X00031138Y00020468D01*
X00031082Y00020430D01*
X00031019Y00020405D01*
X00030952Y00020394D01*
X00023561Y00011112D02*
X00023561Y00011112D01*
X00023450Y00011118D01*
X00023344Y00011148D01*
X00023246Y00011200D01*
X00023161Y00011272D01*
X00023094Y00011360D01*
X00023048Y00011460D01*
X00023024Y00011568D01*
X00023024Y00011679D01*
X00023048Y00011787D01*
X00023094Y00011887D01*
X00023161Y00011975D01*
X00023246Y00012047D01*
X00023344Y00012099D01*
X00023450Y00012129D01*
X00023561Y00012135D01*
X00023670Y00012117D01*
X00023773Y00012076D01*
X00023864Y00012014D01*
X00023940Y00011933D01*
X00023997Y00011838D01*
X00024033Y00011734D01*
X00024045Y00011624D01*
X00024033Y00011513D01*
X00023997Y00011409D01*
X00023940Y00011314D01*
X00023864Y00011233D01*
X00023773Y00011171D01*
X00023670Y00011130D01*
X00023561Y00011112D01*
X00030952Y00012520D02*
X00030952Y00012520D01*
X00030884Y00012523D01*
X00030818Y00012542D01*
X00030758Y00012573D01*
X00030706Y00012618D01*
X00030665Y00012672D01*
X00030636Y00012734D01*
X00030621Y00012800D01*
X00030621Y00012868D01*
X00030636Y00012935D01*
X00030665Y00012997D01*
X00030706Y00013051D01*
X00030758Y00013095D01*
X00030818Y00013127D01*
X00030884Y00013145D01*
X00030952Y00013149D01*
X00031019Y00013138D01*
X00031082Y00013112D01*
X00031138Y00013074D01*
X00031185Y00013025D01*
X00031220Y00012966D01*
X00031242Y00012902D01*
X00031250Y00012834D01*
X00031242Y00012766D01*
X00031220Y00012702D01*
X00031185Y00012644D01*
X00031138Y00012594D01*
X00031082Y00012556D01*
X00031019Y00012531D01*
X00030952Y00012520D01*
X00005450Y00026860D02*
X00005450Y00026860D01*
X00005340Y00026866D01*
X00005233Y00026896D01*
X00005136Y00026948D01*
X00005051Y00027020D01*
X00004984Y00027108D01*
X00004938Y00027208D01*
X00004914Y00027316D01*
X00004914Y00027427D01*
X00004938Y00027535D01*
X00004984Y00027635D01*
X00005051Y00027724D01*
X00005136Y00027795D01*
X00005233Y00027847D01*
X00005340Y00027877D01*
X00005450Y00027883D01*
X00005560Y00027865D01*
X00005662Y00027824D01*
X00005754Y00027762D01*
X00005830Y00027681D01*
X00005887Y00027586D01*
X00005923Y00027482D01*
X00005935Y00027372D01*
X00005923Y00027262D01*
X00005887Y00027157D01*
X00005830Y00027062D01*
X00005754Y00026981D01*
X00005662Y00026919D01*
X00005560Y00026878D01*
X00005450Y00026860D01*
X00012841Y00028268D02*
X00012841Y00028268D01*
X00012773Y00028271D01*
X00012708Y00028290D01*
X00012648Y00028321D01*
X00012596Y00028366D01*
X00012554Y00028420D01*
X00012526Y00028482D01*
X00012511Y00028548D01*
X00012511Y00028616D01*
X00012526Y00028683D01*
X00012554Y00028745D01*
X00012596Y00028799D01*
X00012648Y00028843D01*
X00012708Y00028875D01*
X00012773Y00028893D01*
X00012841Y00028897D01*
X00012909Y00028886D01*
X00012972Y00028860D01*
X00013028Y00028822D01*
X00013075Y00028773D01*
X00013110Y00028714D01*
X00013132Y00028650D01*
X00013139Y00028582D01*
X00013132Y00028514D01*
X00013110Y00028450D01*
X00013075Y00028392D01*
X00013028Y00028342D01*
X00012972Y00028304D01*
X00012909Y00028279D01*
X00012841Y00028268D01*
X00005450Y00018986D02*
X00005450Y00018986D01*
X00005340Y00018992D01*
X00005233Y00019022D01*
X00005136Y00019074D01*
X00005051Y00019146D01*
X00004984Y00019234D01*
X00004938Y00019334D01*
X00004914Y00019442D01*
X00004914Y00019553D01*
X00004938Y00019661D01*
X00004984Y00019761D01*
X00005051Y00019850D01*
X00005136Y00019921D01*
X00005233Y00019973D01*
X00005340Y00020003D01*
X00005450Y00020009D01*
X00005560Y00019991D01*
X00005662Y00019950D01*
X00005754Y00019888D01*
X00005830Y00019807D01*
X00005887Y00019712D01*
X00005923Y00019608D01*
X00005935Y00019498D01*
X00005923Y00019388D01*
X00005887Y00019283D01*
X00005830Y00019188D01*
X00005754Y00019107D01*
X00005662Y00019045D01*
X00005560Y00019004D01*
X00005450Y00018986D01*
X00012841Y00020394D02*
X00012841Y00020394D01*
X00012773Y00020397D01*
X00012708Y00020416D01*
X00012648Y00020447D01*
X00012596Y00020492D01*
X00012554Y00020546D01*
X00012526Y00020608D01*
X00012511Y00020674D01*
X00012511Y00020742D01*
X00012526Y00020809D01*
X00012554Y00020871D01*
X00012596Y00020925D01*
X00012648Y00020969D01*
X00012708Y00021001D01*
X00012773Y00021019D01*
X00012841Y00021023D01*
X00012909Y00021012D01*
X00012972Y00020986D01*
X00013028Y00020948D01*
X00013075Y00020899D01*
X00013110Y00020840D01*
X00013132Y00020776D01*
X00013139Y00020708D01*
X00013132Y00020640D01*
X00013110Y00020576D01*
X00013075Y00020518D01*
X00013028Y00020468D01*
X00012972Y00020430D01*
X00012909Y00020405D01*
X00012841Y00020394D01*
X00005450Y00011112D02*
X00005450Y00011112D01*
X00005340Y00011118D01*
X00005233Y00011148D01*
X00005136Y00011200D01*
X00005051Y00011272D01*
X00004984Y00011360D01*
X00004938Y00011460D01*
X00004914Y00011568D01*
X00004914Y00011679D01*
X00004938Y00011787D01*
X00004984Y00011887D01*
X00005051Y00011975D01*
X00005136Y00012047D01*
X00005233Y00012099D01*
X00005340Y00012129D01*
X00005450Y00012135D01*
X00005560Y00012117D01*
X00005662Y00012076D01*
X00005754Y00012014D01*
X00005830Y00011933D01*
X00005887Y00011838D01*
X00005923Y00011734D01*
X00005935Y00011624D01*
X00005923Y00011513D01*
X00005887Y00011409D01*
X00005830Y00011314D01*
X00005754Y00011233D01*
X00005662Y00011171D01*
X00005560Y00011130D01*
X00005450Y00011112D01*
X00012841Y00012520D02*
X00012841Y00012520D01*
X00012773Y00012523D01*
X00012708Y00012542D01*
X00012648Y00012573D01*
X00012596Y00012618D01*
X00012554Y00012672D01*
X00012526Y00012734D01*
X00012511Y00012800D01*
X00012511Y00012868D01*
X00012526Y00012935D01*
X00012554Y00012997D01*
X00012596Y00013051D01*
X00012648Y00013095D01*
X00012708Y00013127D01*
X00012773Y00013145D01*
X00012841Y00013149D01*
X00012909Y00013138D01*
X00012972Y00013112D01*
X00013028Y00013074D01*
X00013075Y00013025D01*
X00013110Y00012966D01*
X00013132Y00012902D01*
X00013139Y00012834D01*
X00013132Y00012766D01*
X00013110Y00012702D01*
X00013075Y00012644D01*
X00013028Y00012594D01*
X00012972Y00012556D01*
X00012909Y00012531D01*
X00012841Y00012520D01*
X00023561Y00003238D02*
X00023561Y00003238D01*
X00023450Y00003244D01*
X00023344Y00003274D01*
X00023246Y00003326D01*
X00023161Y00003398D01*
X00023094Y00003486D01*
X00023048Y00003586D01*
X00023024Y00003694D01*
X00023024Y00003805D01*
X00023048Y00003913D01*
X00023094Y00004013D01*
X00023161Y00004101D01*
X00023246Y00004173D01*
X00023344Y00004225D01*
X00023450Y00004255D01*
X00023561Y00004261D01*
X00023670Y00004243D01*
X00023773Y00004202D01*
X00023864Y00004140D01*
X00023940Y00004059D01*
X00023997Y00003964D01*
X00024033Y00003860D01*
X00024045Y00003750D01*
X00024033Y00003639D01*
X00023997Y00003535D01*
X00023940Y00003440D01*
X00023864Y00003359D01*
X00023773Y00003297D01*
X00023670Y00003256D01*
X00023561Y00003238D01*
X00030952Y00004646D02*
X00030952Y00004646D01*
X00030884Y00004649D01*
X00030818Y00004668D01*
X00030758Y00004699D01*
X00030706Y00004744D01*
X00030665Y00004798D01*
X00030636Y00004860D01*
X00030621Y00004926D01*
X00030621Y00004994D01*
X00030636Y00005061D01*
X00030665Y00005123D01*
X00030706Y00005177D01*
X00030758Y00005221D01*
X00030818Y00005253D01*
X00030884Y00005271D01*
X00030952Y00005275D01*
X00031019Y00005264D01*
X00031082Y00005238D01*
X00031138Y00005200D01*
X00031185Y00005151D01*
X00031220Y00005092D01*
X00031242Y00005028D01*
X00031250Y00004960D01*
X00031242Y00004892D01*
X00031220Y00004828D01*
X00031185Y00004770D01*
X00031138Y00004720D01*
X00031082Y00004682D01*
X00031019Y00004657D01*
X00030952Y00004646D01*
X00005431Y00003234D02*
X00005431Y00003234D01*
X00005320Y00003240D01*
X00005214Y00003270D01*
X00005116Y00003322D01*
X00005031Y00003393D01*
X00004964Y00003481D01*
X00004918Y00003582D01*
X00004894Y00003690D01*
X00004894Y00003801D01*
X00004918Y00003909D01*
X00004964Y00004009D01*
X00005031Y00004097D01*
X00005116Y00004169D01*
X00005214Y00004221D01*
X00005320Y00004250D01*
X00005431Y00004256D01*
X00005540Y00004238D01*
X00005643Y00004198D01*
X00005734Y00004135D01*
X00005810Y00004055D01*
X00005868Y00003960D01*
X00005903Y00003855D01*
X00005915Y00003745D01*
X00005903Y00003635D01*
X00005868Y00003530D01*
X00005810Y00003436D01*
X00005734Y00003355D01*
X00005643Y00003293D01*
X00005540Y00003252D01*
X00005431Y00003234D01*
X00012822Y00004641D02*
X00012822Y00004641D01*
X00012754Y00004645D01*
X00012688Y00004663D01*
X00012628Y00004695D01*
X00012576Y00004739D01*
X00012535Y00004794D01*
X00012506Y00004855D01*
X00012491Y00004922D01*
X00012491Y00004990D01*
X00012506Y00005057D01*
X00012535Y00005118D01*
X00012576Y00005173D01*
X00012628Y00005217D01*
X00012688Y00005249D01*
X00012754Y00005267D01*
X00012822Y00005270D01*
X00012889Y00005259D01*
X00012952Y00005234D01*
X00013009Y00005196D01*
X00013055Y00005147D01*
X00013090Y00005088D01*
X00013112Y00005024D01*
X00013120Y00004956D01*
X00013112Y00004888D01*
X00013090Y00004824D01*
X00013055Y00004765D01*
X00013009Y00004716D01*
X00012952Y00004678D01*
X00012889Y00004652D01*
X00012822Y00004641D01*
X00016618Y00005451D02*
X00016618Y00005451D01*
X00016627Y00005471D01*
X00016637Y00005490D01*
X00016648Y00005509D01*
X00016661Y00005527D01*
X00016674Y00005544D01*
X00016688Y00005561D01*
X00016703Y00005576D01*
X00016719Y00005591D01*
X00016736Y00005605D01*
X00016753Y00005618D01*
X00016771Y00005630D01*
X00016790Y00005641D01*
X00016810Y00005651D01*
X00016830Y00005660D01*
X00016850Y00005667D01*
X00016871Y00005674D01*
X00016892Y00005679D01*
X00016913Y00005684D01*
X00016935Y00005687D01*
X00016956Y00005689D01*
X00017713Y00005732D01*
X00017745Y00005733D01*
X00017777Y00005731D01*
X00017809Y00005726D01*
X00017840Y00005719D01*
X00017870Y00005709D01*
X00017900Y00005697D01*
X00017929Y00005683D01*
X00017956Y00005666D01*
X00017982Y00005647D01*
X00018006Y00005626D01*
X00018028Y00005603D01*
X00018049Y00005578D01*
X00018067Y00005552D01*
X00018083Y00005524D01*
X00018097Y00005495D01*
X00018109Y00005465D01*
X00018118Y00005435D01*
X00018124Y00005403D01*
X00018128Y00005371D01*
X00018129Y00005339D01*
X00018129Y00005059D01*
X00018444Y00004507D01*
X00019675Y00004507D01*
X00019675Y00003070D01*
X00019785Y00002947D01*
X00019899Y00002825D01*
X00020014Y00002706D01*
X00020131Y00002588D01*
X00020251Y00002473D01*
X00020373Y00002360D01*
X00020496Y00002249D01*
X00020622Y00002141D01*
X00020750Y00002035D01*
X00020879Y00001931D01*
X00021011Y00001830D01*
X00021144Y00001731D01*
X00021280Y00001634D01*
X00021416Y00001541D01*
X00021555Y00001449D01*
X00021695Y00001360D01*
X00021837Y00001274D01*
X00021981Y00001191D01*
X00022126Y00001110D01*
X00022272Y00001031D01*
X00022420Y00000956D01*
X00022569Y00000883D01*
X00022720Y00000813D01*
X00022871Y00000746D01*
X00023024Y00000681D01*
X00023179Y00000619D01*
X00023334Y00000561D01*
X00023490Y00000505D01*
X00023648Y00000451D01*
X00023806Y00000401D01*
X00023965Y00000354D01*
X00024125Y00000310D01*
X00024286Y00000268D01*
X00024447Y00000230D01*
X00024610Y00000194D01*
X00024772Y00000162D01*
X00024936Y00000133D01*
X00025100Y00000106D01*
X00025264Y00000083D01*
X00025429Y00000062D01*
X00025594Y00000045D01*
X00025759Y00000031D01*
X00025925Y00000019D01*
X00026091Y00000011D01*
X00026257Y00000006D01*
X00026423Y00000004D01*
X00026589Y00000005D01*
X00026755Y00000009D01*
X00026921Y00000016D01*
X00027087Y00000026D01*
X00027252Y00000039D01*
X00027417Y00000055D01*
X00027582Y00000074D01*
X00027747Y00000096D01*
X00027911Y00000122D01*
X00028075Y00000150D01*
X00028238Y00000181D01*
X00028400Y00000215D01*
X00028562Y00000253D01*
X00028723Y00000293D01*
X00028883Y00000336D01*
X00029043Y00000382D01*
X00029201Y00000431D01*
X00029359Y00000483D01*
X00029516Y00000538D01*
X00029672Y00000595D01*
X00029826Y00000656D01*
X00029980Y00000719D01*
X00030132Y00000785D01*
X00030283Y00000854D01*
X00030433Y00000926D01*
X00030581Y00001001D01*
X00030728Y00001078D01*
X00030874Y00001158D01*
X00031018Y00001240D01*
X00031160Y00001325D01*
X00031301Y00001413D01*
X00031441Y00001504D01*
X00031578Y00001597D01*
X00031714Y00001692D01*
X00031848Y00001790D01*
X00031980Y00001890D01*
X00032111Y00001993D01*
X00032239Y00002098D01*
X00032366Y00002206D01*
X00032490Y00002315D01*
X00032613Y00002427D01*
X00032733Y00002542D01*
X00032852Y00002658D01*
X00032968Y00002777D01*
X00033082Y00002898D01*
X00033194Y00003021D01*
X00033303Y00003145D01*
X00033410Y00003272D01*
X00033515Y00003401D01*
X00033617Y00003532D01*
X00033717Y00003664D01*
X00033815Y00003799D01*
X00033910Y00003935D01*
X00034002Y00004073D01*
X00034092Y00004212D01*
X00034179Y00004354D01*
X00034264Y00004496D01*
X00034346Y00004641D01*
X00034426Y00004786D01*
X00034503Y00004934D01*
X00034577Y00005082D01*
X00034648Y00005232D01*
X00034716Y00005383D01*
X00034782Y00005536D01*
X00034845Y00005690D01*
X00034905Y00005844D01*
X00034911Y00008011D01*
X00031515Y00008011D01*
X00030019Y00006830D01*
X00027758Y00006830D01*
X00027720Y00006832D01*
X00027682Y00006838D01*
X00027645Y00006847D01*
X00027609Y00006859D01*
X00027575Y00006875D01*
X00027542Y00006895D01*
X00027511Y00006917D01*
X00027482Y00006942D01*
X00027457Y00006970D01*
X00027433Y00007000D01*
X00027413Y00007033D01*
X00027397Y00007067D01*
X00027383Y00007102D01*
X00027373Y00007139D01*
X00027367Y00007177D01*
X00027364Y00007215D01*
X00027365Y00007253D01*
X00027370Y00007291D01*
X00027378Y00007328D01*
X00027390Y00007364D01*
X00027531Y00007735D01*
X00027539Y00007755D01*
X00027548Y00007773D01*
X00027557Y00007792D01*
X00027568Y00007809D01*
X00027580Y00007826D01*
X00027593Y00007843D01*
X00027606Y00007859D01*
X00027620Y00007874D01*
X00027635Y00007888D01*
X00027651Y00007902D01*
X00027668Y00007914D01*
X00027685Y00007926D01*
X00027703Y00007937D01*
X00027721Y00007947D01*
X00027740Y00007955D01*
X00027759Y00007963D01*
X00027778Y00007970D01*
X00027798Y00007976D01*
X00027819Y00007981D01*
X00027839Y00007985D01*
X00027911Y00007996D01*
X00028075Y00008024D01*
X00028238Y00008055D01*
X00028400Y00008089D01*
X00028562Y00008127D01*
X00028723Y00008167D01*
X00028883Y00008210D01*
X00029043Y00008256D01*
X00029201Y00008305D01*
X00029359Y00008357D01*
X00029516Y00008412D01*
X00029672Y00008469D01*
X00029826Y00008530D01*
X00029980Y00008593D01*
X00030132Y00008659D01*
X00030283Y00008728D01*
X00030433Y00008800D01*
X00030581Y00008875D01*
X00030728Y00008952D01*
X00030874Y00009032D01*
X00031018Y00009114D01*
X00031160Y00009199D01*
X00031301Y00009287D01*
X00031441Y00009378D01*
X00031578Y00009471D01*
X00031714Y00009566D01*
X00031848Y00009664D01*
X00031980Y00009764D01*
X00032111Y00009867D01*
X00032239Y00009972D01*
X00032366Y00010080D01*
X00032490Y00010189D01*
X00032613Y00010301D01*
X00032733Y00010416D01*
X00032852Y00010532D01*
X00032968Y00010651D01*
X00033082Y00010772D01*
X00033194Y00010895D01*
X00033303Y00011019D01*
X00033410Y00011146D01*
X00033515Y00011275D01*
X00033617Y00011406D01*
X00033717Y00011538D01*
X00033815Y00011673D01*
X00033910Y00011809D01*
X00034002Y00011947D01*
X00034092Y00012086D01*
X00034179Y00012228D01*
X00034264Y00012370D01*
X00034346Y00012515D01*
X00034426Y00012660D01*
X00034503Y00012808D01*
X00034577Y00012956D01*
X00034648Y00013106D01*
X00034716Y00013258D01*
X00034782Y00013410D01*
X00034845Y00013564D01*
X00034905Y00013718D01*
X00034911Y00015885D01*
X00031515Y00015885D01*
X00030019Y00014704D01*
X00027758Y00014704D01*
X00027720Y00014706D01*
X00027682Y00014712D01*
X00027645Y00014721D01*
X00027609Y00014733D01*
X00027575Y00014749D01*
X00027542Y00014769D01*
X00027511Y00014791D01*
X00027482Y00014816D01*
X00027457Y00014844D01*
X00027433Y00014874D01*
X00027413Y00014907D01*
X00027397Y00014941D01*
X00027383Y00014976D01*
X00027373Y00015013D01*
X00027367Y00015051D01*
X00027364Y00015089D01*
X00027365Y00015127D01*
X00027370Y00015165D01*
X00027378Y00015202D01*
X00027390Y00015238D01*
X00027531Y00015609D01*
X00027539Y00015629D01*
X00027548Y00015647D01*
X00027557Y00015666D01*
X00027568Y00015683D01*
X00027580Y00015700D01*
X00027593Y00015717D01*
X00027606Y00015733D01*
X00027620Y00015748D01*
X00027635Y00015762D01*
X00027651Y00015776D01*
X00027668Y00015788D01*
X00027685Y00015800D01*
X00027703Y00015811D01*
X00027721Y00015821D01*
X00027740Y00015829D01*
X00027759Y00015837D01*
X00027778Y00015844D01*
X00027798Y00015850D01*
X00027819Y00015855D01*
X00027839Y00015859D01*
X00027911Y00015870D01*
X00028075Y00015898D01*
X00028238Y00015929D01*
X00028400Y00015963D01*
X00028562Y00016001D01*
X00028723Y00016041D01*
X00028883Y00016084D01*
X00029043Y00016130D01*
X00029201Y00016179D01*
X00029359Y00016231D01*
X00029516Y00016286D01*
X00029672Y00016343D01*
X00029826Y00016404D01*
X00029980Y00016467D01*
X00030132Y00016534D01*
X00030283Y00016602D01*
X00030433Y00016674D01*
X00030581Y00016749D01*
X00030728Y00016826D01*
X00030874Y00016906D01*
X00031018Y00016988D01*
X00031160Y00017073D01*
X00031301Y00017161D01*
X00031441Y00017252D01*
X00031578Y00017345D01*
X00031714Y00017440D01*
X00031848Y00017538D01*
X00031980Y00017638D01*
X00032111Y00017741D01*
X00032239Y00017846D01*
X00032366Y00017954D01*
X00032490Y00018063D01*
X00032613Y00018175D01*
X00032733Y00018290D01*
X00032852Y00018406D01*
X00032968Y00018525D01*
X00033082Y00018646D01*
X00033194Y00018769D01*
X00033303Y00018893D01*
X00033410Y00019020D01*
X00033515Y00019149D01*
X00033617Y00019280D01*
X00033717Y00019412D01*
X00033815Y00019547D01*
X00033910Y00019683D01*
X00034002Y00019821D01*
X00034092Y00019960D01*
X00034179Y00020102D01*
X00034264Y00020244D01*
X00034346Y00020389D01*
X00034426Y00020534D01*
X00034503Y00020682D01*
X00034577Y00020830D01*
X00034648Y00020980D01*
X00034716Y00021132D01*
X00034782Y00021284D01*
X00034845Y00021438D01*
X00034905Y00021592D01*
X00034911Y00023759D01*
X00031515Y00023759D01*
X00030019Y00022578D01*
X00027758Y00022578D01*
X00027720Y00022580D01*
X00027682Y00022586D01*
X00027645Y00022595D01*
X00027609Y00022607D01*
X00027575Y00022623D01*
X00027542Y00022643D01*
X00027511Y00022665D01*
X00027482Y00022690D01*
X00027457Y00022718D01*
X00027433Y00022748D01*
X00027413Y00022781D01*
X00027397Y00022815D01*
X00027383Y00022851D01*
X00027373Y00022887D01*
X00027367Y00022925D01*
X00027364Y00022963D01*
X00027365Y00023001D01*
X00027370Y00023039D01*
X00027378Y00023076D01*
X00027390Y00023112D01*
X00027531Y00023483D01*
X00027539Y00023503D01*
X00027548Y00023521D01*
X00027557Y00023540D01*
X00027568Y00023557D01*
X00027580Y00023574D01*
X00027593Y00023591D01*
X00027606Y00023607D01*
X00027620Y00023622D01*
X00027635Y00023636D01*
X00027651Y00023650D01*
X00027668Y00023662D01*
X00027685Y00023674D01*
X00027703Y00023685D01*
X00027721Y00023695D01*
X00027740Y00023703D01*
X00027759Y00023711D01*
X00027778Y00023718D01*
X00027798Y00023724D01*
X00027819Y00023729D01*
X00027839Y00023733D01*
X00027911Y00023744D01*
X00028075Y00023772D01*
X00028238Y00023803D01*
X00028400Y00023837D01*
X00028562Y00023875D01*
X00028723Y00023915D01*
X00028883Y00023958D01*
X00029043Y00024004D01*
X00029201Y00024053D01*
X00029359Y00024105D01*
X00029516Y00024160D01*
X00029672Y00024217D01*
X00029826Y00024278D01*
X00029980Y00024341D01*
X00030132Y00024408D01*
X00030283Y00024476D01*
X00030433Y00024548D01*
X00030581Y00024623D01*
X00030728Y00024700D01*
X00030874Y00024780D01*
X00031018Y00024862D01*
X00031160Y00024947D01*
X00031301Y00025035D01*
X00031441Y00025126D01*
X00031578Y00025219D01*
X00031714Y00025314D01*
X00031848Y00025412D01*
X00031980Y00025512D01*
X00032111Y00025615D01*
X00032239Y00025720D01*
X00032366Y00025828D01*
X00032490Y00025937D01*
X00032613Y00026049D01*
X00032733Y00026164D01*
X00032852Y00026280D01*
X00032968Y00026399D01*
X00033082Y00026520D01*
X00033194Y00026643D01*
X00033303Y00026767D01*
X00033410Y00026894D01*
X00033515Y00027023D01*
X00033617Y00027154D01*
X00033717Y00027286D01*
X00033815Y00027421D01*
X00033910Y00027557D01*
X00034002Y00027695D01*
X00034092Y00027834D01*
X00034179Y00027976D01*
X00034264Y00028118D01*
X00034346Y00028263D01*
X00034426Y00028408D01*
X00034503Y00028556D01*
X00034577Y00028704D01*
X00034648Y00028854D01*
X00034716Y00029006D01*
X00034782Y00029158D01*
X00034845Y00029312D01*
X00034905Y00029466D01*
X00034911Y00031633D01*
X00031515Y00031633D01*
X00030019Y00030452D01*
X00022165Y00030452D01*
X00022165Y00031496D01*
X00018129Y00031496D01*
X00018129Y00030907D01*
X00018128Y00030877D01*
X00018125Y00030847D01*
X00018119Y00030818D01*
X00018111Y00030789D01*
X00018101Y00030760D01*
X00018089Y00030733D01*
X00018074Y00030706D01*
X00018058Y00030681D01*
X00018040Y00030657D01*
X00018020Y00030635D01*
X00017998Y00030614D01*
X00017975Y00030595D01*
X00017950Y00030577D01*
X00017925Y00030562D01*
X00017898Y00030548D01*
X00017870Y00030537D01*
X00017841Y00030528D01*
X00017812Y00030521D01*
X00017782Y00030516D01*
X00017752Y00030514D01*
X00017209Y00030491D01*
X00017177Y00030491D01*
X00017145Y00030494D01*
X00017114Y00030499D01*
X00017083Y00030506D01*
X00017053Y00030516D01*
X00017024Y00030529D01*
X00016995Y00030544D01*
X00016969Y00030561D01*
X00016943Y00030580D01*
X00016919Y00030601D01*
X00016897Y00030624D01*
X00016877Y00030648D01*
X00016859Y00030675D01*
X00016844Y00030702D01*
X00016830Y00030731D01*
X00016819Y00030761D01*
X00016810Y00030791D01*
X00016804Y00030822D01*
X00016800Y00030854D01*
X00016799Y00030886D01*
X00016801Y00031633D01*
X00013405Y00031633D01*
X00011909Y00030452D01*
X00004055Y00030452D01*
X00004055Y00031496D01*
X00000019Y00031496D01*
X00000019Y00028681D01*
X00000334Y00028129D01*
X00001564Y00028129D01*
X00001564Y00026692D01*
X00001675Y00026569D01*
X00001788Y00026447D01*
X00001904Y00026328D01*
X00002021Y00026210D01*
X00002141Y00026095D01*
X00002262Y00025982D01*
X00002386Y00025871D01*
X00002512Y00025763D01*
X00002640Y00025657D01*
X00002769Y00025553D01*
X00002901Y00025452D01*
X00003034Y00025353D01*
X00003169Y00025257D01*
X00003306Y00025163D01*
X00003445Y00025071D01*
X00003585Y00024982D01*
X00003727Y00024896D01*
X00003870Y00024813D01*
X00004015Y00024732D01*
X00004162Y00024653D01*
X00004310Y00024578D01*
X00004459Y00024505D01*
X00004609Y00024435D01*
X00004761Y00024368D01*
X00004914Y00024303D01*
X00005068Y00024241D01*
X00005224Y00024183D01*
X00005380Y00024127D01*
X00005537Y00024073D01*
X00005696Y00024023D01*
X00005855Y00023976D01*
X00006015Y00023932D01*
X00006176Y00023890D01*
X00006337Y00023852D01*
X00006499Y00023816D01*
X00006662Y00023784D01*
X00006817Y00023756D01*
X00006837Y00023752D01*
X00006857Y00023747D01*
X00006877Y00023740D01*
X00006897Y00023733D01*
X00006916Y00023725D01*
X00006934Y00023715D01*
X00006952Y00023705D01*
X00006970Y00023694D01*
X00006986Y00023681D01*
X00007002Y00023668D01*
X00007018Y00023655D01*
X00007033Y00023640D01*
X00007046Y00023625D01*
X00007060Y00023608D01*
X00007072Y00023592D01*
X00007083Y00023574D01*
X00007093Y00023556D01*
X00007103Y00023538D01*
X00007111Y00023519D01*
X00007119Y00023499D01*
X00007258Y00023103D01*
X00007269Y00023067D01*
X00007277Y00023030D01*
X00007280Y00022993D01*
X00007280Y00022955D01*
X00007277Y00022918D01*
X00007270Y00022881D01*
X00007260Y00022845D01*
X00007246Y00022810D01*
X00007229Y00022776D01*
X00007208Y00022744D01*
X00007185Y00022715D01*
X00007159Y00022688D01*
X00007131Y00022663D01*
X00007101Y00022641D01*
X00007068Y00022622D01*
X00007034Y00022607D01*
X00006998Y00022594D01*
X00006962Y00022585D01*
X00006925Y00022580D01*
X00006887Y00022578D01*
X00004055Y00022578D01*
X00004055Y00023622D01*
X00000019Y00023622D01*
X00000019Y00020807D01*
X00000334Y00020255D01*
X00001564Y00020255D01*
X00001564Y00018818D01*
X00001675Y00018695D01*
X00001788Y00018573D01*
X00001904Y00018454D01*
X00002021Y00018336D01*
X00002141Y00018221D01*
X00002262Y00018108D01*
X00002386Y00017997D01*
X00002512Y00017889D01*
X00002640Y00017783D01*
X00002769Y00017679D01*
X00002901Y00017578D01*
X00003034Y00017479D01*
X00003169Y00017383D01*
X00003306Y00017289D01*
X00003445Y00017197D01*
X00003585Y00017108D01*
X00003727Y00017022D01*
X00003870Y00016939D01*
X00004015Y00016858D01*
X00004162Y00016779D01*
X00004310Y00016704D01*
X00004459Y00016631D01*
X00004609Y00016561D01*
X00004761Y00016494D01*
X00004914Y00016429D01*
X00005068Y00016367D01*
X00005224Y00016309D01*
X00005380Y00016253D01*
X00005537Y00016199D01*
X00005696Y00016149D01*
X00005855Y00016102D01*
X00006015Y00016058D01*
X00006176Y00016016D01*
X00006337Y00015978D01*
X00006499Y00015942D01*
X00006662Y00015910D01*
X00006817Y00015882D01*
X00006837Y00015878D01*
X00006857Y00015873D01*
X00006877Y00015866D01*
X00006897Y00015859D01*
X00006916Y00015851D01*
X00006934Y00015841D01*
X00006952Y00015831D01*
X00006970Y00015820D01*
X00006986Y00015807D01*
X00007002Y00015794D01*
X00007018Y00015781D01*
X00007033Y00015766D01*
X00007046Y00015751D01*
X00007060Y00015734D01*
X00007072Y00015718D01*
X00007083Y00015700D01*
X00007093Y00015682D01*
X00007103Y00015664D01*
X00007111Y00015645D01*
X00007119Y00015625D01*
X00007258Y00015229D01*
X00007269Y00015193D01*
X00007277Y00015156D01*
X00007280Y00015119D01*
X00007280Y00015081D01*
X00007277Y00015044D01*
X00007270Y00015007D01*
X00007260Y00014971D01*
X00007246Y00014936D01*
X00007229Y00014902D01*
X00007208Y00014870D01*
X00007185Y00014841D01*
X00007159Y00014814D01*
X00007131Y00014789D01*
X00007101Y00014767D01*
X00007068Y00014748D01*
X00007034Y00014733D01*
X00006998Y00014720D01*
X00006962Y00014711D01*
X00006925Y00014706D01*
X00006887Y00014704D01*
X00004055Y00014704D01*
X00004055Y00015748D01*
X00000019Y00015748D01*
X00000019Y00012933D01*
X00000334Y00012381D01*
X00001564Y00012381D01*
X00001564Y00010944D01*
X00001675Y00010821D01*
X00001788Y00010699D01*
X00001904Y00010580D01*
X00002021Y00010462D01*
X00002141Y00010347D01*
X00002262Y00010234D01*
X00002386Y00010123D01*
X00002512Y00010015D01*
X00002640Y00009909D01*
X00002769Y00009805D01*
X00002901Y00009704D01*
X00003034Y00009605D01*
X00003169Y00009509D01*
X00003306Y00009415D01*
X00003445Y00009323D01*
X00003585Y00009234D01*
X00003727Y00009148D01*
X00003870Y00009065D01*
X00004015Y00008984D01*
X00004162Y00008905D01*
X00004310Y00008830D01*
X00004459Y00008757D01*
X00004609Y00008687D01*
X00004761Y00008620D01*
X00004914Y00008555D01*
X00005068Y00008493D01*
X00005224Y00008435D01*
X00005380Y00008379D01*
X00005537Y00008325D01*
X00005696Y00008275D01*
X00005855Y00008228D01*
X00006015Y00008184D01*
X00006176Y00008142D01*
X00006337Y00008104D01*
X00006499Y00008068D01*
X00006662Y00008036D01*
X00006817Y00008008D01*
X00006837Y00008004D01*
X00006857Y00007999D01*
X00006877Y00007992D01*
X00006896Y00007985D01*
X00006915Y00007977D01*
X00006934Y00007967D01*
X00006952Y00007957D01*
X00006969Y00007946D01*
X00006986Y00007934D01*
X00007002Y00007921D01*
X00007017Y00007907D01*
X00007032Y00007892D01*
X00007046Y00007877D01*
X00007059Y00007861D01*
X00007071Y00007844D01*
X00007083Y00007827D01*
X00007093Y00007809D01*
X00007102Y00007791D01*
X00007111Y00007772D01*
X00007118Y00007753D01*
X00007261Y00007352D01*
X00007272Y00007316D01*
X00007279Y00007279D01*
X00007283Y00007241D01*
X00007283Y00007204D01*
X00007280Y00007166D01*
X00007273Y00007129D01*
X00007263Y00007093D01*
X00007249Y00007058D01*
X00007232Y00007024D01*
X00007212Y00006993D01*
X00007188Y00006963D01*
X00007163Y00006936D01*
X00007134Y00006911D01*
X00007104Y00006889D01*
X00007071Y00006870D01*
X00007037Y00006854D01*
X00007001Y00006842D01*
X00006965Y00006833D01*
X00006927Y00006828D01*
X00006890Y00006826D01*
X00004035Y00006826D01*
X00004035Y00007869D01*
X00000000Y00007869D01*
X00000000Y00005054D01*
X00000314Y00004503D01*
X00001545Y00004503D01*
X00001545Y00003066D01*
X00001656Y00002943D01*
X00001769Y00002821D01*
X00001884Y00002701D01*
X00002001Y00002584D01*
X00002121Y00002469D01*
X00002243Y00002356D01*
X00002366Y00002245D01*
X00002492Y00002137D01*
X00002620Y00002031D01*
X00002749Y00001927D01*
X00002881Y00001826D01*
X00003014Y00001727D01*
X00003150Y00001630D01*
X00003287Y00001536D01*
X00003425Y00001445D01*
X00003565Y00001356D01*
X00003707Y00001270D01*
X00003851Y00001186D01*
X00003996Y00001105D01*
X00004142Y00001027D01*
X00004290Y00000952D01*
X00004439Y00000879D01*
X00004590Y00000809D01*
X00004742Y00000741D01*
X00004895Y00000677D01*
X00005049Y00000615D01*
X00005204Y00000556D01*
X00005360Y00000500D01*
X00005518Y00000447D01*
X00005676Y00000397D01*
X00005835Y00000350D01*
X00005995Y00000305D01*
X00006156Y00000264D01*
X00006317Y00000226D01*
X00006480Y00000190D01*
X00006642Y00000158D01*
X00006806Y00000128D01*
X00006970Y00000102D01*
X00007134Y00000078D01*
X00007299Y00000058D01*
X00007464Y00000041D01*
X00007629Y00000026D01*
X00007795Y00000015D01*
X00007961Y00000007D01*
X00008127Y00000002D01*
X00008293Y00000000D01*
X00008459Y00000000D01*
X00008625Y00000004D01*
X00008791Y00000011D01*
X00008957Y00000021D01*
X00009122Y00000035D01*
X00009287Y00000051D01*
X00009452Y00000070D01*
X00009617Y00000092D01*
X00009781Y00000117D01*
X00009945Y00000146D01*
X00010108Y00000177D01*
X00010270Y00000211D01*
X00010432Y00000248D01*
X00010593Y00000289D01*
X00010753Y00000332D01*
X00010913Y00000378D01*
X00011072Y00000427D01*
X00011229Y00000479D01*
X00011386Y00000534D01*
X00011542Y00000591D01*
X00011696Y00000652D01*
X00011850Y00000715D01*
X00012002Y00000781D01*
X00012153Y00000850D01*
X00012303Y00000922D01*
X00012451Y00000996D01*
X00012598Y00001074D01*
X00012744Y00001154D01*
X00012888Y00001236D01*
X00013030Y00001321D01*
X00013171Y00001409D01*
X00013311Y00001499D01*
X00013448Y00001592D01*
X00013584Y00001688D01*
X00013718Y00001786D01*
X00013850Y00001886D01*
X00013981Y00001989D01*
X00014109Y00002094D01*
X00014236Y00002201D01*
X00014361Y00002311D01*
X00014483Y00002423D01*
X00014603Y00002538D01*
X00014722Y00002654D01*
X00014838Y00002773D01*
X00014952Y00002893D01*
X00015064Y00003016D01*
X00015173Y00003141D01*
X00015280Y00003268D01*
X00015385Y00003397D01*
X00015487Y00003528D01*
X00015587Y00003660D01*
X00015685Y00003795D01*
X00015780Y00003931D01*
X00015872Y00004069D01*
X00015962Y00004208D01*
X00016050Y00004349D01*
X00016134Y00004492D01*
X00016216Y00004636D01*
X00016296Y00004782D01*
X00016373Y00004930D01*
X00016447Y00005078D01*
X00016518Y00005228D01*
X00016587Y00005379D01*
X00016618Y00005451D01*
X00016642Y00013340D02*
X00016642Y00013340D01*
X00016652Y00013361D01*
X00016662Y00013381D01*
X00016674Y00013401D01*
X00016687Y00013419D01*
X00016702Y00013437D01*
X00016717Y00013454D01*
X00016733Y00013471D01*
X00016750Y00013486D01*
X00016768Y00013500D01*
X00016787Y00013513D01*
X00016806Y00013525D01*
X00016826Y00013536D01*
X00016847Y00013546D01*
X00016868Y00013554D01*
X00016890Y00013561D01*
X00016912Y00013567D01*
X00016934Y00013572D01*
X00016957Y00013575D01*
X00016980Y00013577D01*
X00017002Y00013578D01*
X00017735Y00013580D01*
X00017766Y00013579D01*
X00017796Y00013575D01*
X00017827Y00013569D01*
X00017857Y00013561D01*
X00017886Y00013550D01*
X00017914Y00013537D01*
X00017941Y00013522D01*
X00017967Y00013505D01*
X00017991Y00013486D01*
X00018014Y00013465D01*
X00018035Y00013442D01*
X00018054Y00013418D01*
X00018071Y00013392D01*
X00018086Y00013365D01*
X00018099Y00013337D01*
X00018110Y00013308D01*
X00018119Y00013278D01*
X00018125Y00013248D01*
X00018128Y00013217D01*
X00018129Y00013186D01*
X00018129Y00012933D01*
X00018444Y00012381D01*
X00019675Y00012381D01*
X00019675Y00010944D01*
X00019785Y00010821D01*
X00019899Y00010699D01*
X00020014Y00010580D01*
X00020131Y00010462D01*
X00020251Y00010347D01*
X00020373Y00010234D01*
X00020496Y00010123D01*
X00020622Y00010015D01*
X00020750Y00009909D01*
X00020879Y00009805D01*
X00021011Y00009704D01*
X00021144Y00009605D01*
X00021280Y00009509D01*
X00021416Y00009415D01*
X00021555Y00009323D01*
X00021695Y00009234D01*
X00021837Y00009148D01*
X00021981Y00009065D01*
X00022126Y00008984D01*
X00022272Y00008905D01*
X00022420Y00008830D01*
X00022569Y00008757D01*
X00022720Y00008687D01*
X00022871Y00008620D01*
X00023024Y00008555D01*
X00023179Y00008493D01*
X00023334Y00008435D01*
X00023490Y00008379D01*
X00023648Y00008325D01*
X00023806Y00008275D01*
X00023965Y00008228D01*
X00024125Y00008184D01*
X00024286Y00008142D01*
X00024447Y00008104D01*
X00024610Y00008068D01*
X00024772Y00008036D01*
X00024936Y00008007D01*
X00025100Y00007980D01*
X00025264Y00007957D01*
X00025429Y00007936D01*
X00025594Y00007919D01*
X00025672Y00007912D01*
X00025692Y00007910D01*
X00025712Y00007907D01*
X00025732Y00007902D01*
X00025751Y00007897D01*
X00025770Y00007891D01*
X00025789Y00007883D01*
X00025807Y00007875D01*
X00025825Y00007866D01*
X00025843Y00007856D01*
X00025860Y00007845D01*
X00025876Y00007833D01*
X00025892Y00007821D01*
X00025907Y00007807D01*
X00025921Y00007793D01*
X00025935Y00007778D01*
X00025948Y00007763D01*
X00025960Y00007747D01*
X00025971Y00007730D01*
X00025981Y00007713D01*
X00025991Y00007695D01*
X00026137Y00007399D01*
X00026153Y00007362D01*
X00026166Y00007324D01*
X00026174Y00007285D01*
X00026178Y00007245D01*
X00026178Y00007205D01*
X00026174Y00007165D01*
X00026166Y00007126D01*
X00026154Y00007088D01*
X00026139Y00007051D01*
X00026119Y00007016D01*
X00026097Y00006984D01*
X00026071Y00006953D01*
X00026042Y00006926D01*
X00026010Y00006901D01*
X00025976Y00006880D01*
X00025940Y00006862D01*
X00025903Y00006848D01*
X00025864Y00006838D01*
X00025825Y00006832D01*
X00025785Y00006830D01*
X00022165Y00006830D01*
X00022165Y00007874D01*
X00018129Y00007874D01*
X00018129Y00007258D01*
X00018128Y00007227D01*
X00018124Y00007195D01*
X00018118Y00007164D01*
X00018109Y00007134D01*
X00018098Y00007104D01*
X00018085Y00007076D01*
X00018069Y00007049D01*
X00018051Y00007023D01*
X00018031Y00006998D01*
X00018010Y00006975D01*
X00017986Y00006954D01*
X00017961Y00006935D01*
X00017934Y00006918D01*
X00017906Y00006903D01*
X00017878Y00006891D01*
X00017848Y00006881D01*
X00017817Y00006873D01*
X00017786Y00006868D01*
X00017755Y00006865D01*
X00017723Y00006865D01*
X00017160Y00006883D01*
X00017130Y00006885D01*
X00017100Y00006889D01*
X00017070Y00006896D01*
X00017041Y00006905D01*
X00017013Y00006916D01*
X00016986Y00006930D01*
X00016960Y00006945D01*
X00016935Y00006963D01*
X00016911Y00006982D01*
X00016890Y00007003D01*
X00016869Y00007025D01*
X00016851Y00007049D01*
X00016834Y00007075D01*
X00016820Y00007102D01*
X00016808Y00007129D01*
X00016797Y00007158D01*
X00016789Y00007187D01*
X00016784Y00007217D01*
X00016780Y00007247D01*
X00016779Y00007277D01*
X00016781Y00008007D01*
X00013385Y00008007D01*
X00011889Y00006826D01*
X00008857Y00006826D01*
X00008817Y00006828D01*
X00008777Y00006834D01*
X00008738Y00006845D01*
X00008700Y00006859D01*
X00008664Y00006877D01*
X00008630Y00006899D01*
X00008598Y00006924D01*
X00008569Y00006952D01*
X00008543Y00006983D01*
X00008520Y00007016D01*
X00008501Y00007052D01*
X00008486Y00007089D01*
X00008474Y00007128D01*
X00008467Y00007168D01*
X00008464Y00007208D01*
X00008465Y00007249D01*
X00008470Y00007289D01*
X00008479Y00007328D01*
X00008492Y00007366D01*
X00008509Y00007403D01*
X00008660Y00007691D01*
X00008670Y00007708D01*
X00008680Y00007725D01*
X00008692Y00007741D01*
X00008704Y00007757D01*
X00008717Y00007772D01*
X00008731Y00007786D01*
X00008745Y00007800D01*
X00008760Y00007813D01*
X00008776Y00007825D01*
X00008792Y00007836D01*
X00008809Y00007847D01*
X00008826Y00007856D01*
X00008844Y00007865D01*
X00008862Y00007873D01*
X00008881Y00007880D01*
X00008900Y00007886D01*
X00008919Y00007891D01*
X00008938Y00007895D01*
X00008958Y00007898D01*
X00008977Y00007900D01*
X00009142Y00007913D01*
X00009307Y00007929D01*
X00009472Y00007948D01*
X00009637Y00007970D01*
X00009801Y00007996D01*
X00009964Y00008024D01*
X00010127Y00008055D01*
X00010290Y00008089D01*
X00010452Y00008127D01*
X00010613Y00008167D01*
X00010773Y00008210D01*
X00010933Y00008256D01*
X00011091Y00008305D01*
X00011249Y00008357D01*
X00011406Y00008412D01*
X00011561Y00008469D01*
X00011716Y00008530D01*
X00011869Y00008593D01*
X00012022Y00008659D01*
X00012173Y00008728D01*
X00012322Y00008800D01*
X00012471Y00008875D01*
X00012618Y00008952D01*
X00012763Y00009032D01*
X00012908Y00009114D01*
X00013050Y00009199D01*
X00013191Y00009287D01*
X00013330Y00009378D01*
X00013468Y00009471D01*
X00013604Y00009566D01*
X00013738Y00009664D01*
X00013870Y00009764D01*
X00014001Y00009867D01*
X00014129Y00009972D01*
X00014256Y00010080D01*
X00014380Y00010189D01*
X00014503Y00010301D01*
X00014623Y00010416D01*
X00014741Y00010532D01*
X00014858Y00010651D01*
X00014972Y00010772D01*
X00015083Y00010895D01*
X00015193Y00011019D01*
X00015300Y00011146D01*
X00015405Y00011275D01*
X00015507Y00011406D01*
X00015607Y00011538D01*
X00015704Y00011673D01*
X00015799Y00011809D01*
X00015892Y00011947D01*
X00015982Y00012086D01*
X00016069Y00012228D01*
X00016154Y00012370D01*
X00016236Y00012515D01*
X00016316Y00012660D01*
X00016392Y00012808D01*
X00016466Y00012956D01*
X00016538Y00013106D01*
X00016606Y00013258D01*
X00016642Y00013340D01*
X00016642Y00021214D02*
X00016642Y00021214D01*
X00016652Y00021235D01*
X00016662Y00021255D01*
X00016674Y00021275D01*
X00016687Y00021293D01*
X00016702Y00021311D01*
X00016717Y00021328D01*
X00016733Y00021345D01*
X00016750Y00021360D01*
X00016768Y00021374D01*
X00016787Y00021387D01*
X00016806Y00021399D01*
X00016826Y00021410D01*
X00016847Y00021420D01*
X00016868Y00021428D01*
X00016890Y00021435D01*
X00016912Y00021441D01*
X00016934Y00021446D01*
X00016957Y00021449D01*
X00016980Y00021451D01*
X00017002Y00021452D01*
X00017735Y00021454D01*
X00017766Y00021453D01*
X00017796Y00021449D01*
X00017827Y00021443D01*
X00017857Y00021435D01*
X00017886Y00021424D01*
X00017914Y00021411D01*
X00017941Y00021396D01*
X00017967Y00021379D01*
X00017991Y00021360D01*
X00018014Y00021339D01*
X00018035Y00021316D01*
X00018054Y00021292D01*
X00018071Y00021266D01*
X00018086Y00021239D01*
X00018099Y00021211D01*
X00018110Y00021182D01*
X00018119Y00021152D01*
X00018125Y00021122D01*
X00018128Y00021091D01*
X00018129Y00021060D01*
X00018129Y00020807D01*
X00018444Y00020255D01*
X00019675Y00020255D01*
X00019675Y00018818D01*
X00019785Y00018695D01*
X00019899Y00018573D01*
X00020014Y00018454D01*
X00020131Y00018336D01*
X00020251Y00018221D01*
X00020373Y00018108D01*
X00020496Y00017997D01*
X00020622Y00017889D01*
X00020750Y00017783D01*
X00020879Y00017679D01*
X00021011Y00017578D01*
X00021144Y00017479D01*
X00021280Y00017383D01*
X00021416Y00017289D01*
X00021555Y00017197D01*
X00021695Y00017108D01*
X00021837Y00017022D01*
X00021981Y00016939D01*
X00022126Y00016858D01*
X00022272Y00016779D01*
X00022420Y00016704D01*
X00022569Y00016631D01*
X00022720Y00016561D01*
X00022871Y00016494D01*
X00023024Y00016429D01*
X00023179Y00016367D01*
X00023334Y00016309D01*
X00023490Y00016253D01*
X00023648Y00016199D01*
X00023806Y00016149D01*
X00023965Y00016102D01*
X00024125Y00016058D01*
X00024286Y00016016D01*
X00024447Y00015978D01*
X00024610Y00015942D01*
X00024772Y00015910D01*
X00024936Y00015881D01*
X00025100Y00015854D01*
X00025264Y00015831D01*
X00025429Y00015810D01*
X00025594Y00015793D01*
X00025672Y00015786D01*
X00025692Y00015784D01*
X00025712Y00015781D01*
X00025732Y00015776D01*
X00025751Y00015771D01*
X00025770Y00015765D01*
X00025789Y00015757D01*
X00025807Y00015749D01*
X00025825Y00015740D01*
X00025843Y00015730D01*
X00025860Y00015719D01*
X00025876Y00015707D01*
X00025892Y00015695D01*
X00025907Y00015681D01*
X00025921Y00015667D01*
X00025935Y00015652D01*
X00025948Y00015637D01*
X00025960Y00015621D01*
X00025971Y00015604D01*
X00025981Y00015587D01*
X00025991Y00015569D01*
X00026137Y00015273D01*
X00026153Y00015236D01*
X00026166Y00015198D01*
X00026174Y00015159D01*
X00026178Y00015119D01*
X00026178Y00015079D01*
X00026174Y00015039D01*
X00026166Y00015000D01*
X00026154Y00014962D01*
X00026139Y00014925D01*
X00026119Y00014890D01*
X00026097Y00014858D01*
X00026071Y00014827D01*
X00026042Y00014800D01*
X00026010Y00014775D01*
X00025976Y00014754D01*
X00025940Y00014736D01*
X00025903Y00014722D01*
X00025864Y00014712D01*
X00025825Y00014706D01*
X00025785Y00014704D01*
X00022165Y00014704D01*
X00022165Y00015748D01*
X00018129Y00015748D01*
X00018129Y00015159D01*
X00018128Y00015129D01*
X00018125Y00015099D01*
X00018119Y00015070D01*
X00018111Y00015041D01*
X00018101Y00015012D01*
X00018089Y00014985D01*
X00018074Y00014958D01*
X00018058Y00014933D01*
X00018040Y00014909D01*
X00018020Y00014887D01*
X00017998Y00014866D01*
X00017975Y00014846D01*
X00017950Y00014829D01*
X00017925Y00014814D01*
X00017898Y00014800D01*
X00017870Y00014789D01*
X00017841Y00014780D01*
X00017812Y00014773D01*
X00017782Y00014768D01*
X00017752Y00014766D01*
X00017209Y00014743D01*
X00017177Y00014743D01*
X00017145Y00014746D01*
X00017114Y00014751D01*
X00017083Y00014758D01*
X00017053Y00014768D01*
X00017024Y00014781D01*
X00016995Y00014796D01*
X00016969Y00014813D01*
X00016943Y00014832D01*
X00016919Y00014853D01*
X00016897Y00014876D01*
X00016877Y00014900D01*
X00016859Y00014927D01*
X00016844Y00014954D01*
X00016830Y00014983D01*
X00016819Y00015013D01*
X00016810Y00015043D01*
X00016804Y00015074D01*
X00016800Y00015106D01*
X00016799Y00015138D01*
X00016801Y00015885D01*
X00013405Y00015885D01*
X00011909Y00014704D01*
X00008860Y00014704D01*
X00008820Y00014706D01*
X00008780Y00014712D01*
X00008741Y00014723D01*
X00008703Y00014737D01*
X00008667Y00014755D01*
X00008632Y00014777D01*
X00008601Y00014802D01*
X00008572Y00014830D01*
X00008546Y00014861D01*
X00008523Y00014894D01*
X00008504Y00014930D01*
X00008489Y00014967D01*
X00008477Y00015006D01*
X00008470Y00015046D01*
X00008466Y00015086D01*
X00008467Y00015126D01*
X00008472Y00015166D01*
X00008481Y00015206D01*
X00008494Y00015244D01*
X00008511Y00015281D01*
X00008660Y00015564D01*
X00008670Y00015581D01*
X00008680Y00015598D01*
X00008691Y00015615D01*
X00008704Y00015630D01*
X00008717Y00015645D01*
X00008730Y00015660D01*
X00008745Y00015673D01*
X00008760Y00015686D01*
X00008775Y00015699D01*
X00008792Y00015710D01*
X00008808Y00015720D01*
X00008826Y00015730D01*
X00008844Y00015739D01*
X00008862Y00015747D01*
X00008880Y00015754D01*
X00008899Y00015760D01*
X00008919Y00015765D01*
X00008938Y00015769D01*
X00008958Y00015772D01*
X00008977Y00015774D01*
X00009142Y00015787D01*
X00009307Y00015803D01*
X00009472Y00015822D01*
X00009637Y00015844D01*
X00009801Y00015870D01*
X00009964Y00015898D01*
X00010127Y00015929D01*
X00010290Y00015963D01*
X00010452Y00016001D01*
X00010613Y00016041D01*
X00010773Y00016084D01*
X00010933Y00016130D01*
X00011091Y00016179D01*
X00011249Y00016231D01*
X00011406Y00016286D01*
X00011561Y00016343D01*
X00011716Y00016404D01*
X00011869Y00016467D01*
X00012022Y00016534D01*
X00012173Y00016602D01*
X00012322Y00016674D01*
X00012471Y00016749D01*
X00012618Y00016826D01*
X00012763Y00016906D01*
X00012908Y00016988D01*
X00013050Y00017073D01*
X00013191Y00017161D01*
X00013330Y00017252D01*
X00013468Y00017345D01*
X00013604Y00017440D01*
X00013738Y00017538D01*
X00013870Y00017638D01*
X00014001Y00017741D01*
X00014129Y00017846D01*
X00014256Y00017954D01*
X00014380Y00018063D01*
X00014503Y00018175D01*
X00014623Y00018290D01*
X00014741Y00018406D01*
X00014858Y00018525D01*
X00014972Y00018646D01*
X00015083Y00018769D01*
X00015193Y00018893D01*
X00015300Y00019020D01*
X00015405Y00019149D01*
X00015507Y00019280D01*
X00015607Y00019412D01*
X00015704Y00019547D01*
X00015799Y00019683D01*
X00015892Y00019821D01*
X00015982Y00019960D01*
X00016069Y00020102D01*
X00016154Y00020244D01*
X00016236Y00020389D01*
X00016316Y00020534D01*
X00016392Y00020682D01*
X00016466Y00020830D01*
X00016538Y00020980D01*
X00016606Y00021132D01*
X00016642Y00021214D01*
X00016642Y00029088D02*
X00016642Y00029088D01*
X00016652Y00029109D01*
X00016662Y00029129D01*
X00016674Y00029149D01*
X00016687Y00029167D01*
X00016702Y00029185D01*
X00016717Y00029202D01*
X00016733Y00029219D01*
X00016750Y00029234D01*
X00016768Y00029248D01*
X00016787Y00029261D01*
X00016806Y00029273D01*
X00016826Y00029284D01*
X00016847Y00029294D01*
X00016868Y00029302D01*
X00016890Y00029309D01*
X00016912Y00029315D01*
X00016934Y00029320D01*
X00016957Y00029323D01*
X00016980Y00029325D01*
X00017002Y00029326D01*
X00017735Y00029328D01*
X00017766Y00029327D01*
X00017796Y00029323D01*
X00017827Y00029317D01*
X00017857Y00029309D01*
X00017886Y00029298D01*
X00017914Y00029285D01*
X00017941Y00029270D01*
X00017967Y00029253D01*
X00017991Y00029234D01*
X00018014Y00029213D01*
X00018035Y00029190D01*
X00018054Y00029166D01*
X00018071Y00029140D01*
X00018086Y00029113D01*
X00018099Y00029085D01*
X00018110Y00029056D01*
X00018119Y00029026D01*
X00018125Y00028996D01*
X00018128Y00028965D01*
X00018129Y00028934D01*
X00018129Y00028681D01*
X00018444Y00028129D01*
X00019675Y00028129D01*
X00019675Y00026692D01*
X00019785Y00026569D01*
X00019899Y00026447D01*
X00020014Y00026328D01*
X00020131Y00026210D01*
X00020251Y00026095D01*
X00020373Y00025982D01*
X00020496Y00025871D01*
X00020622Y00025763D01*
X00020750Y00025657D01*
X00020879Y00025553D01*
X00021011Y00025452D01*
X00021144Y00025353D01*
X00021280Y00025257D01*
X00021416Y00025163D01*
X00021555Y00025071D01*
X00021695Y00024982D01*
X00021837Y00024896D01*
X00021981Y00024813D01*
X00022126Y00024732D01*
X00022272Y00024653D01*
X00022420Y00024578D01*
X00022569Y00024505D01*
X00022720Y00024435D01*
X00022871Y00024368D01*
X00023024Y00024303D01*
X00023179Y00024241D01*
X00023334Y00024183D01*
X00023490Y00024127D01*
X00023648Y00024073D01*
X00023806Y00024023D01*
X00023965Y00023976D01*
X00024125Y00023932D01*
X00024286Y00023890D01*
X00024447Y00023852D01*
X00024610Y00023816D01*
X00024772Y00023784D01*
X00024936Y00023755D01*
X00025100Y00023728D01*
X00025264Y00023705D01*
X00025429Y00023684D01*
X00025594Y00023667D01*
X00025672Y00023660D01*
X00025692Y00023658D01*
X00025712Y00023655D01*
X00025732Y00023650D01*
X00025751Y00023645D01*
X00025770Y00023639D01*
X00025789Y00023632D01*
X00025807Y00023623D01*
X00025825Y00023614D01*
X00025843Y00023604D01*
X00025860Y00023593D01*
X00025876Y00023581D01*
X00025892Y00023569D01*
X00025907Y00023555D01*
X00025921Y00023541D01*
X00025935Y00023526D01*
X00025948Y00023511D01*
X00025960Y00023495D01*
X00025971Y00023478D01*
X00025981Y00023461D01*
X00025991Y00023443D01*
X00026137Y00023147D01*
X00026153Y00023110D01*
X00026166Y00023072D01*
X00026174Y00023033D01*
X00026178Y00022993D01*
X00026178Y00022953D01*
X00026174Y00022913D01*
X00026166Y00022874D01*
X00026154Y00022836D01*
X00026139Y00022799D01*
X00026119Y00022764D01*
X00026097Y00022732D01*
X00026071Y00022701D01*
X00026042Y00022674D01*
X00026010Y00022649D01*
X00025976Y00022628D01*
X00025940Y00022610D01*
X00025903Y00022596D01*
X00025864Y00022586D01*
X00025825Y00022580D01*
X00025785Y00022578D01*
X00022165Y00022578D01*
X00022165Y00023622D01*
X00018129Y00023622D01*
X00018129Y00023033D01*
X00018128Y00023003D01*
X00018125Y00022973D01*
X00018119Y00022944D01*
X00018111Y00022915D01*
X00018101Y00022886D01*
X00018089Y00022859D01*
X00018074Y00022832D01*
X00018058Y00022807D01*
X00018040Y00022783D01*
X00018020Y00022761D01*
X00017998Y00022740D01*
X00017975Y00022721D01*
X00017950Y00022703D01*
X00017925Y00022688D01*
X00017898Y00022674D01*
X00017870Y00022663D01*
X00017841Y00022654D01*
X00017812Y00022647D01*
X00017782Y00022642D01*
X00017752Y00022640D01*
X00017209Y00022617D01*
X00017177Y00022617D01*
X00017145Y00022620D01*
X00017114Y00022625D01*
X00017083Y00022632D01*
X00017053Y00022642D01*
X00017024Y00022655D01*
X00016995Y00022670D01*
X00016969Y00022687D01*
X00016943Y00022706D01*
X00016919Y00022727D01*
X00016897Y00022750D01*
X00016877Y00022774D01*
X00016859Y00022801D01*
X00016844Y00022828D01*
X00016830Y00022857D01*
X00016819Y00022887D01*
X00016810Y00022917D01*
X00016804Y00022948D01*
X00016800Y00022980D01*
X00016799Y00023012D01*
X00016801Y00023759D01*
X00013405Y00023759D01*
X00011909Y00022578D01*
X00008860Y00022578D01*
X00008820Y00022580D01*
X00008780Y00022587D01*
X00008741Y00022597D01*
X00008703Y00022611D01*
X00008667Y00022629D01*
X00008632Y00022651D01*
X00008601Y00022676D01*
X00008572Y00022704D01*
X00008546Y00022735D01*
X00008523Y00022768D01*
X00008504Y00022804D01*
X00008489Y00022841D01*
X00008477Y00022880D01*
X00008470Y00022920D01*
X00008466Y00022960D01*
X00008467Y00023000D01*
X00008472Y00023040D01*
X00008481Y00023080D01*
X00008494Y00023118D01*
X00008511Y00023155D01*
X00008660Y00023438D01*
X00008670Y00023455D01*
X00008680Y00023472D01*
X00008691Y00023489D01*
X00008704Y00023504D01*
X00008717Y00023519D01*
X00008730Y00023534D01*
X00008745Y00023547D01*
X00008760Y00023560D01*
X00008775Y00023573D01*
X00008792Y00023584D01*
X00008808Y00023594D01*
X00008826Y00023604D01*
X00008844Y00023613D01*
X00008862Y00023621D01*
X00008880Y00023628D01*
X00008899Y00023634D01*
X00008919Y00023639D01*
X00008938Y00023643D01*
X00008958Y00023646D01*
X00008977Y00023648D01*
X00009142Y00023661D01*
X00009307Y00023677D01*
X00009472Y00023696D01*
X00009637Y00023718D01*
X00009801Y00023744D01*
X00009964Y00023772D01*
X00010127Y00023803D01*
X00010290Y00023837D01*
X00010452Y00023875D01*
X00010613Y00023915D01*
X00010773Y00023958D01*
X00010933Y00024004D01*
X00011091Y00024053D01*
X00011249Y00024105D01*
X00011406Y00024160D01*
X00011561Y00024217D01*
X00011716Y00024278D01*
X00011869Y00024341D01*
X00012022Y00024408D01*
X00012173Y00024476D01*
X00012322Y00024548D01*
X00012471Y00024623D01*
X00012618Y00024700D01*
X00012763Y00024780D01*
X00012908Y00024862D01*
X00013050Y00024947D01*
X00013191Y00025035D01*
X00013330Y00025126D01*
X00013468Y00025219D01*
X00013604Y00025314D01*
X00013738Y00025412D01*
X00013870Y00025512D01*
X00014001Y00025615D01*
X00014129Y00025720D01*
X00014256Y00025828D01*
X00014380Y00025937D01*
X00014503Y00026049D01*
X00014623Y00026164D01*
X00014741Y00026280D01*
X00014858Y00026399D01*
X00014972Y00026520D01*
X00015083Y00026643D01*
X00015193Y00026767D01*
X00015300Y00026894D01*
X00015405Y00027023D01*
X00015507Y00027154D01*
X00015607Y00027286D01*
X00015704Y00027421D01*
X00015799Y00027557D01*
X00015892Y00027695D01*
X00015982Y00027834D01*
X00016069Y00027976D01*
X00016154Y00028118D01*
X00016236Y00028263D01*
X00016316Y00028408D01*
X00016392Y00028556D01*
X00016466Y00028704D01*
X00016538Y00028854D01*
X00016606Y00029006D01*
X00016642Y00029088D01*
M02*