%
M48
METRIC,000.000
T01C0.30
T02C0.70
T03C0.80
T04C1.00
T05C1.60
%
T01
X000653Y013071
X000688Y019294
X000729Y017943
X001329Y012264
X002449Y012238
X002576Y016663
X003701Y014951
X003706Y019366
X004450Y018438
X004544Y007930
X005200Y015238
X005489Y019411
X006048Y006427
X006124Y011893
X006299Y013089
X006622Y010496
X007902Y004852
X008176Y010674
X008461Y019391
X008949Y018489
X009538Y017694
X009634Y003745
X009660Y019376
X009680Y006320
X011468Y009968
X011489Y008301
X011649Y016739
X011773Y002632
X011997Y011309
X013236Y007234
X013353Y005751
X013424Y004659
X013607Y016739
X014303Y001596
X015664Y001281
X016055Y005528
X017031Y005507
X017386Y008087
X017524Y009647
X017544Y010603
X018291Y000722
X018570Y008698
X019200Y015860
X019220Y011964
X019312Y016714
X019754Y011471
X019845Y010277
X019911Y006986
X020765Y000529
X020874Y014077
X021458Y013531
X023162Y011746
X023188Y000646
X023477Y014943
X023650Y015738
X023813Y008057
X024031Y012350
X024051Y011344
X024250Y005289
X024308Y016271
X024552Y015510
X024570Y008794
X024580Y001332
X024973Y003188
X025299Y004639
X025375Y012789
X025405Y015898
X025494Y010234
X025906Y002419
X025961Y001088
X026226Y001829
X026388Y012563
X026650Y016315
X026810Y004522
X026901Y013681
X027127Y009467
X027171Y011202
X027275Y014664
X027384Y004898
X027790Y012548
X027983Y016363
X027983Y013554
X028550Y007890
X028659Y015934
X028776Y006889
X028862Y009452
X029025Y012688
X029454Y016010
X029838Y002322
X029843Y009881
X030254Y016010
X030589Y005624
X030612Y015291
X030630Y013475
X030640Y008087
X030721Y006889
X031143Y002927
X031191Y015896
X031354Y008571
X031374Y007463
X031687Y014712
X032124Y017532
X032299Y016088
X032898Y007214
X032964Y008388
X033119Y014801
X033124Y018868
X033358Y004202
X033615Y014159
X033658Y015393
X034506Y004974
X034765Y014616
X034918Y012218
X035499Y017189
X035994Y012807
X036000Y007689
X036525Y006914
X037234Y019838
X037450Y017339
X037676Y007869
X037724Y018164
X038174Y011588
X038298Y018789
X038725Y013290
X039037Y019807
X040546Y011893
X040650Y016739
X040699Y019807
X040724Y014463
X041466Y013468
X042035Y019376
X042070Y015556
X042106Y017217
X046703Y013082
X046739Y019305
X046779Y017954
X047379Y012274
X048499Y012249
X048626Y016674
X049751Y014962
X049756Y019376
X050500Y018449
X050594Y007941
X051250Y015249
X051539Y019422
X052098Y006437
X052174Y011903
X052349Y013100
X052672Y010506
X053952Y004863
X054226Y010684
X054511Y019402
X054999Y018500
X055588Y017705
X055684Y003755
X055710Y019386
X055730Y006331
X057518Y009978
X057539Y008312
X057699Y016750
X057823Y002643
X058047Y011319
X059286Y007245
X059403Y005762
X059474Y004670
X059657Y016750
X060353Y001606
X061714Y001291
X062105Y005538
X063081Y005518
X063436Y008099
X063574Y009658
X063594Y010613
X064340Y000733
X064620Y008708
X065250Y015871
X065269Y011975
X065361Y016724
X065804Y011482
X065895Y010288
X065961Y006996
X066815Y000539
X066924Y014088
X067508Y013542
X069212Y011756
X069238Y000656
X069527Y014954
X069700Y015749
X069863Y008068
X070081Y012361
X070101Y011355
X070300Y005299
X070358Y016282
X070602Y015520
X070620Y008805
X070630Y001342
X071023Y003199
X071349Y004649
X071425Y012800
X071455Y015909
X071544Y010245
X071956Y002429
X072011Y001098
X072276Y001840
X072438Y012574
X072700Y016326
X072860Y004532
X072951Y013692
X073177Y009478
X073221Y011213
X073325Y014675
X073434Y004908
X073840Y012559
X074033Y016373
X074033Y013565
X074600Y007900
X074709Y015945
X074826Y006900
X074912Y009463
X075075Y012698
X075504Y016021
X075888Y002333
X075893Y009892
X076304Y016021
X076639Y005635
X076662Y015302
X076680Y013486
X076690Y008099
X076771Y006900
X077193Y002937
X077241Y015907
X077404Y008581
X077424Y007474
X077737Y014723
X078174Y017542
X078349Y016100
X078948Y007225
X079014Y008398
X079169Y014812
X079174Y018878
X079408Y004212
X079665Y014169
X079708Y015404
X080556Y004985
X080815Y014626
X080968Y012229
X081549Y017199
X082044Y012818
X082050Y007700
X082575Y006925
X083284Y019849
X083500Y017349
X083726Y007880
X083774Y018175
X084224Y011599
X084348Y018800
X084775Y013300
X085087Y019818
X086596Y011903
X086700Y016750
X086749Y019818
X086774Y014474
X087516Y013478
X088085Y019386
X088120Y015566
X088156Y017227
X000703Y033082
X000739Y039305
X000779Y037954
X001379Y032274
X002499Y032249
X002626Y036674
X003751Y034962
X003756Y039376
X004500Y038449
X004594Y027941
X005250Y035249
X005539Y039422
X006098Y026437
X006174Y031903
X006349Y033100
X006672Y030506
X007952Y024863
X008226Y030684
X008511Y039402
X008999Y038500
X009588Y037705
X009684Y023755
X009710Y039386
X009730Y026331
X011518Y029978
X011539Y028312
X011699Y036750
X011823Y022643
X012047Y031319
X013286Y027245
X013403Y025762
X013474Y024670
X013657Y036750
X014353Y021606
X015714Y021291
X016105Y025538
X017081Y025518
X017436Y028099
X017574Y029658
X017594Y030613
X018341Y020733
X018620Y028708
X019250Y035871
X019270Y031975
X019362Y036724
X019804Y031482
X019895Y030288
X019961Y026996
X020815Y020539
X020924Y034088
X021508Y033542
X023212Y031756
X023238Y020656
X023527Y034954
X023700Y035749
X023863Y028068
X024081Y032360
X024101Y031355
X024300Y025299
X024358Y036282
X024602Y035520
X024620Y028805
X024630Y021342
X025023Y023199
X025349Y024649
X025425Y032800
X025455Y035909
X025544Y030245
X025956Y022429
X026011Y021098
X026276Y021840
X026438Y032573
X026700Y036326
X026860Y024532
X026951Y033692
X027177Y029478
X027221Y031213
X027325Y034675
X027434Y024908
X027840Y032558
X028033Y036374
X028033Y033565
X028600Y027900
X028709Y035945
X028826Y026900
X028912Y029463
X029075Y032698
X029504Y036021
X029888Y022333
X029893Y029892
X030304Y036021
X030639Y025635
X030662Y035302
X030680Y033486
X030690Y028099
X030771Y026900
X031193Y022937
X031241Y035907
X031404Y028581
X031424Y027474
X031737Y034723
X032174Y037542
X032348Y036100
X032948Y027225
X033014Y028398
X033169Y034812
X033174Y038878
X033408Y024212
X033665Y034169
X033708Y035404
X034556Y024985
X034815Y034626
X034968Y032229
X035549Y037199
X036044Y032818
X036050Y027700
X036575Y026925
X037284Y039849
X037500Y037349
X037726Y027880
X037774Y038175
X038224Y031599
X038348Y038800
X038775Y033300
X039087Y039818
X040596Y031903
X040700Y036750
X040749Y039818
X040774Y034474
X041516Y033478
X042085Y039386
X042120Y035566
X042156Y037227
X000703Y053082
X000739Y059305
X000779Y057954
X001379Y052274
X002499Y052249
X002626Y056674
X003751Y054962
X003756Y059376
X004500Y058449
X004594Y047941
X005250Y055249
X005539Y059422
X006098Y046437
X006174Y051903
X006349Y053100
X006672Y050506
X007952Y044863
X008226Y050684
X008511Y059402
X008999Y058500
X009588Y057705
X009684Y043755
X009710Y059386
X009730Y046331
X011518Y049978
X011539Y048312
X011699Y056750
X011823Y042643
X012047Y051319
X013286Y047245
X013403Y045762
X013474Y044670
X013657Y056750
X014353Y041606
X015714Y041291
X016105Y045538
X017081Y045518
X017436Y048099
X017574Y049658
X017594Y050613
X018341Y040733
X018620Y048708
X019250Y055871
X019270Y051975
X019362Y056724
X019804Y051482
X019895Y050288
X019961Y046996
X020815Y040539
X020924Y054088
X021508Y053542
X023212Y051756
X023238Y040656
X023527Y054954
X023700Y055749
X023863Y048068
X024081Y052361
X024101Y051355
X024300Y045299
X024358Y056282
X024602Y055520
X024620Y048805
X024630Y041342
X025023Y043199
X025349Y044649
X025425Y052800
X025455Y055909
X025544Y050245
X025956Y042429
X026011Y041098
X026276Y041840
X026438Y052574
X026700Y056326
X026860Y044532
X026951Y053692
X027177Y049478
X027221Y051213
X027325Y054675
X027434Y044908
X027840Y052559
X028033Y056374
X028033Y053565
X028600Y047900
X028709Y055945
X028826Y046900
X028912Y049463
X029075Y052698
X029504Y056021
X029888Y042333
X029893Y049892
X030304Y056021
X030639Y045635
X030662Y055302
X030680Y053486
X030690Y048099
X030771Y046900
X031193Y042937
X031241Y055907
X031404Y048581
X031424Y047474
X031737Y054723
X032174Y057542
X032348Y056100
X032948Y047225
X033014Y048398
X033169Y054812
X033174Y058878
X033408Y044212
X033665Y054169
X033708Y055404
X034556Y044985
X034815Y054626
X034968Y052229
X035549Y057199
X036044Y052818
X036050Y047700
X036575Y046925
X037284Y059849
X037500Y057349
X037726Y047880
X037774Y058175
X038224Y051599
X038348Y058800
X038775Y053300
X039087Y059818
X040596Y051903
X040700Y056750
X040749Y059818
X040774Y054474
X041516Y053478
X042085Y059386
X042120Y055566
X042156Y057227
X000703Y073082
X000739Y079305
X000779Y077954
X001379Y072274
X002499Y072249
X002626Y076674
X003751Y074962
X003756Y079376
X004500Y078449
X004594Y067941
X005250Y075249
X005539Y079422
X006098Y066437
X006174Y071903
X006349Y073100
X006672Y070506
X007952Y064863
X008226Y070684
X008511Y079402
X008999Y078500
X009588Y077705
X009684Y063755
X009710Y079386
X009730Y066331
X011518Y069978
X011539Y068312
X011699Y076750
X011823Y062643
X012047Y071319
X013286Y067245
X013403Y065762
X013474Y064670
X013657Y076750
X014353Y061606
X015714Y061291
X016105Y065538
X017081Y065518
X017436Y068099
X017574Y069658
X017594Y070613
X018341Y060733
X018620Y068708
X019250Y075871
X019270Y071975
X019362Y076724
X019804Y071482
X019895Y070288
X019961Y066996
X020815Y060539
X020924Y074088
X021508Y073542
X023212Y071756
X023238Y060656
X023527Y074954
X023700Y075749
X023863Y068068
X024081Y072361
X024101Y071355
X024300Y065299
X024358Y076282
X024602Y075520
X024620Y068805
X024630Y061342
X025023Y063199
X025349Y064649
X025425Y072800
X025455Y075909
X025544Y070245
X025956Y062429
X026011Y061098
X026276Y061840
X026438Y072574
X026700Y076326
X026860Y064532
X026951Y073692
X027177Y069478
X027221Y071213
X027325Y074675
X027434Y064908
X027840Y072559
X028033Y076374
X028033Y073565
X028600Y067900
X028709Y075945
X028826Y066900
X028912Y069463
X029075Y072698
X029504Y076021
X029888Y062333
X029893Y069892
X030304Y076021
X030639Y065635
X030662Y075302
X030680Y073486
X030690Y068099
X030771Y066900
X031193Y062937
X031241Y075907
X031404Y068581
X031424Y067474
X031737Y074723
X032174Y077542
X032348Y076100
X032948Y067225
X033014Y068398
X033169Y074812
X033174Y078878
X033408Y064212
X033665Y074169
X033708Y075404
X034556Y064985
X034815Y074626
X034968Y072229
X035549Y077199
X036044Y072818
X036050Y067700
X036575Y066925
X037284Y079849
X037500Y077349
X037726Y067880
X037774Y078175
X038224Y071599
X038348Y078800
X038775Y073300
X039087Y079818
X040596Y071903
X040700Y076750
X040749Y079818
X040774Y074474
X041516Y073478
X042085Y079386
X042120Y075566
X042156Y077227
X046703Y033082
X046739Y039305
X046779Y037954
X047379Y032274
X048499Y032249
X048626Y036674
X049751Y034962
X049756Y039376
X050500Y038449
X050594Y027941
X051250Y035249
X051539Y039422
X052098Y026437
X052174Y031903
X052349Y033100
X052672Y030506
X053952Y024863
X054226Y030684
X054511Y039402
X054999Y038500
X055588Y037705
X055684Y023755
X055710Y039386
X055730Y026331
X057518Y029978
X057539Y028312
X057699Y036750
X057823Y022643
X058047Y031319
X059286Y027245
X059403Y025762
X059474Y024670
X059657Y036750
X060353Y021606
X061714Y021291
X062105Y025538
X063081Y025518
X063436Y028099
X063574Y029658
X063594Y030613
X064340Y020733
X064620Y028708
X065250Y035871
X065269Y031975
X065361Y036724
X065804Y031482
X065895Y030288
X065961Y026996
X066815Y020539
X066924Y034088
X067508Y033542
X069212Y031756
X069238Y020656
X069527Y034954
X069700Y035749
X069863Y028068
X070081Y032360
X070101Y031355
X070300Y025299
X070358Y036282
X070602Y035520
X070620Y028805
X070630Y021342
X071023Y023199
X071349Y024649
X071425Y032800
X071455Y035909
X071544Y030245
X071956Y022429
X072011Y021098
X072276Y021840
X072438Y032573
X072700Y036326
X072860Y024532
X072951Y033692
X073177Y029478
X073221Y031213
X073325Y034675
X073434Y024908
X073840Y032558
X074033Y036374
X074033Y033565
X074600Y027900
X074709Y035945
X074826Y026900
X074912Y029463
X075075Y032698
X075504Y036021
X075888Y022333
X075893Y029892
X076304Y036021
X076639Y025635
X076662Y035302
X076680Y033486
X076690Y028099
X076771Y026900
X077193Y022937
X077241Y035907
X077404Y028581
X077424Y027474
X077737Y034723
X078174Y037542
X078349Y036100
X078948Y027225
X079014Y028398
X079169Y034812
X079174Y038878
X079408Y024212
X079665Y034169
X079708Y035404
X080556Y024985
X080815Y034626
X080968Y032229
X081549Y037199
X082044Y032818
X082050Y027700
X082575Y026925
X083284Y039849
X083500Y037349
X083726Y027880
X083774Y038175
X084224Y031599
X084348Y038800
X084775Y033300
X085087Y039818
X086596Y031903
X086700Y036750
X086749Y039818
X086774Y034474
X087516Y033478
X088085Y039386
X088120Y035566
X088156Y037227
X046703Y053082
X046739Y059305
X046779Y057954
X047379Y052274
X048499Y052249
X048626Y056674
X049751Y054962
X049756Y059376
X050500Y058449
X050594Y047941
X051250Y055249
X051539Y059422
X052098Y046437
X052174Y051903
X052349Y053100
X052672Y050506
X053952Y044863
X054226Y050684
X054511Y059402
X054999Y058500
X055588Y057705
X055684Y043755
X055710Y059386
X055730Y046331
X057518Y049978
X057539Y048312
X057699Y056750
X057823Y042643
X058047Y051319
X059286Y047245
X059403Y045762
X059474Y044670
X059657Y056750
X060353Y041606
X061714Y041291
X062105Y045538
X063081Y045518
X063436Y048099
X063574Y049658
X063594Y050613
X064340Y040733
X064620Y048708
X065250Y055871
X065269Y051975
X065361Y056724
X065804Y051482
X065895Y050288
X065961Y046996
X066815Y040539
X066924Y054088
X067508Y053542
X069212Y051756
X069238Y040656
X069527Y054954
X069700Y055749
X069863Y048068
X070081Y052361
X070101Y051355
X070300Y045299
X070358Y056282
X070602Y055520
X070620Y048805
X070630Y041342
X071023Y043199
X071349Y044649
X071425Y052800
X071455Y055909
X071544Y050245
X071956Y042429
X072011Y041098
X072276Y041840
X072438Y052574
X072700Y056326
X072860Y044532
X072951Y053692
X073177Y049478
X073221Y051213
X073325Y054675
X073434Y044908
X073840Y052559
X074033Y056374
X074033Y053565
X074600Y047900
X074709Y055945
X074826Y046900
X074912Y049463
X075075Y052698
X075504Y056021
X075888Y042333
X075893Y049892
X076304Y056021
X076639Y045635
X076662Y055302
X076680Y053486
X076690Y048099
X076771Y046900
X077193Y042937
X077241Y055907
X077404Y048581
X077424Y047474
X077737Y054723
X078174Y057542
X078349Y056100
X078948Y047225
X079014Y048398
X079169Y054812
X079174Y058878
X079408Y044212
X079665Y054169
X079708Y055404
X080556Y044985
X080815Y054626
X080968Y052229
X081549Y057199
X082044Y052818
X082050Y047700
X082575Y046925
X083284Y059849
X083500Y057349
X083726Y047880
X083774Y058175
X084224Y051599
X084348Y058800
X084775Y053300
X085087Y059818
X086596Y051903
X086700Y056750
X086749Y059818
X086774Y054474
X087516Y053478
X088085Y059386
X088120Y055566
X088156Y057227
X046703Y073082
X046739Y079305
X046779Y077954
X047379Y072274
X048499Y072249
X048626Y076674
X049751Y074962
X049756Y079376
X050500Y078449
X050594Y067941
X051250Y075249
X051539Y079422
X052098Y066437
X052174Y071903
X052349Y073100
X052672Y070506
X053952Y064863
X054226Y070684
X054511Y079402
X054999Y078500
X055588Y077705
X055684Y063755
X055710Y079386
X055730Y066331
X057518Y069978
X057539Y068312
X057699Y076750
X057823Y062643
X058047Y071319
X059286Y067245
X059403Y065762
X059474Y064670
X059657Y076750
X060353Y061606
X061714Y061291
X062105Y065538
X063081Y065518
X063436Y068099
X063574Y069658
X063594Y070613
X064340Y060733
X064620Y068708
X065250Y075871
X065269Y071975
X065361Y076724
X065804Y071482
X065895Y070288
X065961Y066996
X066815Y060539
X066924Y074088
X067508Y073542
X069212Y071756
X069238Y060656
X069527Y074954
X069700Y075749
X069863Y068068
X070081Y072361
X070101Y071355
X070300Y065299
X070358Y076282
X070602Y075520
X070620Y068805
X070630Y061342
X071023Y063199
X071349Y064649
X071425Y072800
X071455Y075909
X071544Y070245
X071956Y062429
X072011Y061098
X072276Y061840
X072438Y072574
X072700Y076326
X072860Y064532
X072951Y073692
X073177Y069478
X073221Y071213
X073325Y074675
X073434Y064908
X073840Y072559
X074033Y076374
X074033Y073565
X074600Y067900
X074709Y075945
X074826Y066900
X074912Y069463
X075075Y072698
X075504Y076021
X075888Y062333
X075893Y069892
X076304Y076021
X076639Y065635
X076662Y075302
X076680Y073486
X076690Y068099
X076771Y066900
X077193Y062937
X077241Y075907
X077404Y068581
X077424Y067474
X077737Y074723
X078174Y077542
X078349Y076100
X078948Y067225
X079014Y068398
X079169Y074812
X079174Y078878
X079408Y064212
X079665Y074169
X079708Y075404
X080556Y064985
X080815Y074626
X080968Y072229
X081549Y077199
X082044Y072818
X082050Y067700
X082575Y066925
X083284Y079849
X083500Y077349
X083726Y067880
X083774Y078175
X084224Y071599
X084348Y078800
X084775Y073300
X085087Y079818
X086596Y071903
X086700Y076750
X086749Y079818
X086774Y074474
X087516Y073478
X088085Y079386
X088120Y075566
X088156Y077227
T02
X032588Y010590
X033858Y010590
X035128Y010590
X036398Y010590
X037668Y010590
X038938Y010590
X078638Y010600
X079908Y010600
X081178Y010600
X082448Y010600
X083718Y010600
X084988Y010600
X032637Y030600
X033908Y030600
X035178Y030600
X036448Y030600
X037718Y030600
X038988Y030600
X032637Y050600
X033908Y050600
X035178Y050600
X036448Y050600
X037718Y050600
X038988Y050600
X032637Y070600
X033908Y070600
X035178Y070600
X036448Y070600
X037718Y070600
X038988Y070600
X078638Y030600
X079908Y030600
X081178Y030600
X082448Y030600
X083718Y030600
X084988Y030600
X078638Y050600
X079908Y050600
X081178Y050600
X082448Y050600
X083718Y050600
X084988Y050600
X078638Y070600
X079908Y070600
X081178Y070600
X082448Y070600
X083718Y070600
X084988Y070600
T03
X029599Y004189
X032101Y004189
X020150Y003839
X021918Y002071
X075649Y004200
X078151Y004200
X066200Y003849
X067968Y002081
X029649Y024200
X032151Y024200
X020200Y023849
X021968Y022081
X029649Y044200
X032151Y044200
X020200Y043849
X021968Y042081
X029649Y064200
X032151Y064200
X020200Y063849
X021968Y062081
X075649Y024200
X078151Y024200
X066200Y023849
X067968Y022081
X075649Y044200
X078151Y044200
X066200Y043849
X067968Y042081
X075649Y064200
X078151Y064200
X066200Y063849
X067968Y062081
T04
X009850Y014730
X009850Y012190
X022248Y015175
X014298Y003074
X016685Y002205
X055900Y014741
X055900Y012201
X068298Y015185
X060348Y003085
X062735Y002216
X009900Y034741
X009900Y032201
X022298Y035185
X014348Y023085
X016735Y022216
X009900Y054741
X009900Y052201
X022298Y055185
X014348Y043085
X016735Y042216
X009900Y074741
X009900Y072201
X022298Y075185
X014348Y063085
X016735Y062216
X055900Y034741
X055900Y032201
X068298Y035185
X060348Y023085
X062735Y022216
X055900Y054741
X055900Y052201
X068298Y055185
X060348Y043085
X062735Y042216
X055900Y074741
X055900Y072201
X068298Y075185
X060348Y063085
X062735Y062216
T05
X027099Y006688
X034600Y006688
X073149Y006699
X080650Y006699
X027149Y026699
X034650Y026699
X027149Y046699
X034650Y046699
X027149Y066699
X034650Y066699
X073149Y026699
X080650Y026699
X073149Y046699
X080650Y046699
X073149Y066699
X080650Y066699
M30